<?xml version="1.0" encoding="utf-8"?>
<!-- Generator: Adobe Illustrator 15.1.0, SVG Export Plug-In . SVG Version: 6.00 Build 0)  -->
<!DOCTYPE svg PUBLIC "-//W3C//DTD SVG 1.1//EN" "http://www.w3.org/Graphics/SVG/1.1/DTD/svg11.dtd">
<svg version="1.1" id="Layer_1" xmlns="http://www.w3.org/2000/svg" xmlns:xlink="http://www.w3.org/1999/xlink" x="0px" y="0px"
	 width="35px" height="35px" viewBox="0 0 35 35" enable-background="new 0 0 35 35" xml:space="preserve">
<g>
	<path fill="#FFFFFF" d="M25.719,9.462c-4.457-4.455-11.681-4.455-16.137,0c-4.457,4.457-4.457,11.682,0,16.137
		c4.456,4.457,11.68,4.457,16.137,0C30.174,21.145,30.174,13.917,25.719,9.462z M23.133,19.367c0,0.604-0.49,1.094-1.093,1.094
		c-0.604,0-1.093-0.49-1.093-1.094v-3.522l-6.85,6.848c-0.213,0.215-0.493,0.32-0.773,0.32c-0.279,0-0.561-0.105-0.774-0.32
		c-0.427-0.426-0.427-1.119,0-1.547l6.848-6.848h-3.52c-0.603,0-1.094-0.489-1.094-1.094c0-0.604,0.491-1.093,1.094-1.093h6.161
		c0.011,0,0.019,0.005,0.028,0.006c0.135,0.003,0.266,0.027,0.389,0.079c0.117,0.047,0.217,0.121,0.309,0.203
		c0.015,0.014,0.035,0.018,0.049,0.031c0.016,0.017,0.02,0.038,0.035,0.055c0.081,0.09,0.152,0.188,0.199,0.301
		c0.058,0.135,0.084,0.277,0.084,0.421V19.367z"/>
</g>
</svg>
