<?xml version="1.0" encoding="utf-8"?>
<!-- Generator: Adobe Illustrator 15.1.0, SVG Export Plug-In . SVG Version: 6.00 Build 0)  -->
<!DOCTYPE svg PUBLIC "-//W3C//DTD SVG 1.1//EN" "http://www.w3.org/Graphics/SVG/1.1/DTD/svg11.dtd">
<svg version="1.1" id="Layer_1" xmlns="http://www.w3.org/2000/svg" xmlns:xlink="http://www.w3.org/1999/xlink" x="0px" y="0px"
	 width="35px" height="35px" viewBox="0 0 35 35" enable-background="new 0 0 35 35" xml:space="preserve">
<g>
	<path fill="#FFFFFF" d="M25.719,25.599c4.455-4.459,4.455-11.681-0.002-16.136c-4.453-4.457-11.679-4.458-16.133,0
		c-4.458,4.455-4.457,11.679,0,16.136C14.04,30.054,21.266,30.055,25.719,25.599z M15.816,23.015
		c-0.603-0.001-1.094-0.491-1.095-1.096c0.001-0.603,0.493-1.093,1.093-1.094l3.523,0.001l-6.847-6.847
		c-0.215-0.215-0.322-0.495-0.323-0.772c0.001-0.281,0.108-0.564,0.321-0.773c0.425-0.429,1.119-0.429,1.546,0l6.848,6.849
		l0.002-3.521c0-0.605,0.488-1.094,1.095-1.094c0.603-0.002,1.091,0.491,1.093,1.09v6.163c0,0.012-0.006,0.017-0.006,0.027
		c-0.003,0.138-0.029,0.267-0.078,0.392c-0.05,0.115-0.123,0.215-0.207,0.305c-0.014,0.018-0.018,0.037-0.029,0.051
		c-0.017,0.017-0.037,0.02-0.055,0.037c-0.091,0.078-0.191,0.151-0.303,0.198c-0.133,0.056-0.275,0.084-0.42,0.084L15.816,23.015z"
		/>
</g>
</svg>
