<?xml version="1.0" encoding="utf-8"?>
<!-- Generator: Adobe Illustrator 15.1.0, SVG Export Plug-In . SVG Version: 6.00 Build 0)  -->
<!DOCTYPE svg PUBLIC "-//W3C//DTD SVG 1.1//EN" "http://www.w3.org/Graphics/SVG/1.1/DTD/svg11.dtd">
<svg version="1.1" id="Layer_1" xmlns="http://www.w3.org/2000/svg" xmlns:xlink="http://www.w3.org/1999/xlink" x="0px" y="0px"
	 width="35px" height="35px" viewBox="0 0 35 35" enable-background="new 0 0 35 35" xml:space="preserve">
<path id="faq" fill="#FFFFFF" d="M17.5,4.5c-7.18,0-13,5.82-13,13s5.82,13,13,13s13-5.82,13-13S24.68,4.5,17.5,4.5z M17.506,25.841
	c-0.316,0.309-0.693,0.463-1.131,0.463s-0.814-0.154-1.131-0.463s-0.475-0.682-0.475-1.119s0.158-0.814,0.475-1.131
	s0.693-0.475,1.131-0.475s0.814,0.158,1.131,0.475s0.475,0.693,0.475,1.131S17.822,25.532,17.506,25.841z M20.676,17.407
	c-0.922,0.915-2.188,1.467-3.797,1.654v2.59h-1.078V17.21c0.492-0.039,0.98-0.119,1.465-0.241c0.484-0.121,0.918-0.318,1.301-0.592
	c0.398-0.29,0.709-0.64,0.932-1.051s0.334-0.984,0.334-1.72c0-1.174-0.248-2.073-0.744-2.7c-0.496-0.625-1.221-0.938-2.174-0.938
	c-0.359,0-0.674,0.053-0.943,0.158s-0.467,0.205-0.592,0.299c0.039,0.188,0.092,0.457,0.158,0.809s0.1,0.621,0.1,0.809
	c0,0.289-0.125,0.553-0.375,0.791s-0.613,0.357-1.09,0.357c-0.422,0-0.723-0.145-0.902-0.434S13,12.132,13,11.749
	c0-0.313,0.086-0.619,0.258-0.92s0.441-0.592,0.809-0.873c0.313-0.25,0.736-0.465,1.271-0.645s1.092-0.27,1.67-0.27
	c0.828,0,1.563,0.131,2.203,0.394c0.641,0.262,1.168,0.611,1.582,1.049c0.43,0.455,0.748,0.965,0.955,1.531
	c0.207,0.567,0.311,1.184,0.311,1.849C22.059,15.311,21.598,16.492,20.676,17.407z"/>
</svg>
