<?xml version="1.0" encoding="utf-8"?>
<!-- Generator: Adobe Illustrator 15.1.0, SVG Export Plug-In . SVG Version: 6.00 Build 0)  -->
<!DOCTYPE svg PUBLIC "-//W3C//DTD SVG 1.1//EN" "http://www.w3.org/Graphics/SVG/1.1/DTD/svg11.dtd">
<svg version="1.1" id="Layer_1" xmlns="http://www.w3.org/2000/svg" xmlns:xlink="http://www.w3.org/1999/xlink" x="0px" y="0px"
	 width="35px" height="35px" viewBox="0 0 35 35" enable-background="new 0 0 35 35" xml:space="preserve">
<g id="gdp">
	<path fill="#FFFFFF" d="M15.242,13.72c0,0.605,0.143,1.089,0.428,1.451c0.286,0.36,0.717,0.659,1.294,0.896
		c0.084,0.034,0.189,0.076,0.313,0.126c0.124,0.049,0.244,0.093,0.354,0.134v-4.588c-0.674,0-1.242,0.19-1.699,0.573
		C15.473,12.694,15.242,13.163,15.242,13.72z"/>
	<path fill="#FFFFFF" d="M18.978,18.914c-0.091-0.034-0.176-0.065-0.256-0.094c-0.08-0.027-0.159-0.056-0.235-0.084v5.038
		c0.813-0.048,1.425-0.28,1.832-0.693c0.404-0.414,0.608-0.958,0.608-1.633c0-0.57-0.146-1.064-0.441-1.484
		C20.188,19.543,19.686,19.191,18.978,18.914z"/>
	<path fill="#FFFFFF" d="M17.5,4.414c-7.227,0-13.086,5.858-13.086,13.086c0,7.226,5.859,13.085,13.086,13.085
		S30.585,24.726,30.585,17.5C30.585,10.272,24.727,4.414,17.5,4.414z M21.637,23.352c-0.835,0.74-1.885,1.152-3.15,1.236v2.941
		h-0.854v-2.921c-1.377-0.027-2.493-0.356-3.349-0.985c-0.855-0.63-1.282-1.409-1.282-2.342c0-0.409,0.091-0.725,0.271-0.943
		c0.182-0.219,0.435-0.329,0.762-0.329c0.367,0,0.657,0.093,0.865,0.277c0.209,0.184,0.313,0.402,0.313,0.652
		c0,0.188-0.065,0.471-0.197,0.85c-0.132,0.378-0.217,0.637-0.25,0.776c0.201,0.363,0.551,0.654,1.048,0.876
		c0.497,0.223,1.104,0.337,1.82,0.346v-5.278c-0.307-0.111-0.572-0.211-0.798-0.293c-0.228-0.084-0.524-0.202-0.892-0.354
		c-0.802-0.326-1.425-0.757-1.878-1.288c-0.452-0.531-0.678-1.22-0.678-2.07c0-1.002,0.417-1.845,1.251-2.534
		c0.835-0.688,1.831-1.044,2.994-1.063v-2.39h0.854v2.39c0.688,0.013,1.297,0.113,1.825,0.302c0.528,0.187,0.959,0.42,1.293,0.698
		c0.334,0.279,0.587,0.585,0.757,0.919c0.171,0.332,0.257,0.657,0.257,0.969c0,0.313-0.074,0.579-0.221,0.798
		c-0.146,0.22-0.387,0.329-0.72,0.329c-0.34,0-0.624-0.088-0.849-0.26c-0.226-0.175-0.341-0.369-0.341-0.586
		c0-0.256,0.029-0.512,0.083-0.767c0.058-0.253,0.106-0.477,0.147-0.673c-0.021-0.041-0.09-0.116-0.207-0.223
		c-0.12-0.109-0.26-0.207-0.419-0.298c-0.175-0.097-0.404-0.185-0.688-0.262c-0.284-0.076-0.591-0.113-0.918-0.113v4.84
		c0.271,0.096,0.499,0.181,0.684,0.255c0.184,0.073,0.412,0.161,0.684,0.267c0.431,0.166,0.827,0.348,1.188,0.547
		c0.362,0.197,0.682,0.437,0.959,0.714c0.278,0.271,0.496,0.587,0.651,0.949c0.158,0.361,0.235,0.793,0.235,1.293
		C22.888,21.695,22.471,22.611,21.637,23.352z"/>
</g>
</svg>
