<?xml version="1.0" encoding="utf-8"?>
<!-- Generator: Adobe Illustrator 15.1.0, SVG Export Plug-In . SVG Version: 6.00 Build 0)  -->
<!DOCTYPE svg PUBLIC "-//W3C//DTD SVG 1.1//EN" "http://www.w3.org/Graphics/SVG/1.1/DTD/svg11.dtd">
<svg version="1.1" id="Layer_1" xmlns="http://www.w3.org/2000/svg" xmlns:xlink="http://www.w3.org/1999/xlink" x="0px" y="0px"
	 width="35px" height="35px" viewBox="0 0 35 35" enable-background="new 0 0 35 35" xml:space="preserve">
<g id="logout">
	<path fill="#FFFFFF" d="M18.043,22.166c-0.651-0.285-1.267-0.555-1.591-0.76c-0.536-0.34-0.087-1.449,0.069-1.793
		c1.34-1.322,2.104-3.264,2.104-5.363c0-3.825-2.579-6.938-5.75-6.938s-5.75,3.112-5.75,6.938c0,2.129,0.785,4.095,2.159,5.417
		c0.345,0.482,0.76,1.324,0.683,1.74C9.956,21.463,9.944,21.5,9.86,21.553c-0.324,0.205-0.938,0.473-1.587,0.758
		c-1.983,0.869-4.446,1.949-5.101,3.74C3.057,26.313,3,26.563,3,26.813l0.004,0.311l0.013,0.043
		c0.245,2.924,3.694,3.352,6.688,3.395c0.073,0,1.763,0,3.451,0c1.689,0,3.379,0,3.451,0c3.316-0.047,6.706-0.529,6.706-3.748
		C23.313,24.469,20.267,23.139,18.043,22.166z"/>
	<path fill="#FFFFFF" d="M26.073,18.377c-1.479-0.938-0.223-3.224-0.223-3.224l-0.006-0.002c1.173-1.081,1.937-2.814,1.937-4.775
		c0-3.279-2.127-5.938-4.75-5.938c-2.102,0-3.881,1.708-4.508,4.072c1.292,1.446,2.102,3.482,2.102,5.74
		c0,0.467-0.043,0.923-0.108,1.373c0.445,0.753,1.109,2.218,0.035,2.898c-0.331,0.211-0.837,0.441-1.418,0.697
		c-0.235,0.344-0.489,0.672-0.775,0.969c-0.067,0.17-0.123,0.355-0.148,0.5c0.309,0.158,0.777,0.363,1.233,0.563
		c2.145,0.936,4.971,2.176,5.692,4.436c0.901,0,1.568,0,1.613,0c4.854-0.068,5.72-1.273,5.72-2.748
		C32.469,20.646,27.553,19.314,26.073,18.377z"/>
</g>
</svg>
