<?xml version="1.0" encoding="utf-8"?>
<!-- Generator: Adobe Illustrator 15.1.0, SVG Export Plug-In . SVG Version: 6.00 Build 0)  -->
<!DOCTYPE svg PUBLIC "-//W3C//DTD SVG 1.1//EN" "http://www.w3.org/Graphics/SVG/1.1/DTD/svg11.dtd">
<svg version="1.1" id="Layer_1" xmlns="http://www.w3.org/2000/svg" xmlns:xlink="http://www.w3.org/1999/xlink" x="0px" y="0px"
	 width="35px" height="35px" viewBox="0 0 35 35" enable-background="new 0 0 35 35" xml:space="preserve">
<path id="population" fill="#FFFFFF" d="M13.158,31.063c-3.484-0.05-7.5-0.548-7.785-3.95l-0.016-0.05l-0.004-0.361
	c0-0.291,0.066-0.583,0.201-0.887c0.762-2.087,3.629-3.343,5.938-4.354c0.756-0.332,1.471-0.645,1.848-0.884
	c0.098-0.062,0.111-0.104,0.124-0.168c0.09-0.483-0.394-1.464-0.795-2.024c-1.599-1.541-2.513-3.829-2.513-6.308
	C10.156,7.623,13.158,4,16.85,4s6.693,3.623,6.693,8.076c0,2.443-0.889,4.703-2.449,6.242c-0.182,0.401-0.704,1.693-0.08,2.089
	c0.377,0.238,1.094,0.553,1.852,0.883C25.454,22.423,29,23.973,29,26.701c0,3.747-3.945,4.307-7.807,4.361
	c-0.084,0.001-2.051,0.001-4.018,0.001C15.21,31.063,13.243,31.063,13.158,31.063z"/>
</svg>
