<svg xmlns="http://www.w3.org/2000/svg">
    <symbol id="global_presence" viewBox="0 0 303.2 375.4"><path class="st0" d="M24.7 22.6c0 12.3 10 22.2 22.3 22.2s22.3-10 22.3-22.2C69.3 10.3 59.3.4 47 .4c-12.4 0-22.3 9.9-22.3 22.2z"/><path
        class="st0"
        d="M85.3 57.9l-.4-1c-3.5-7.3-11.6-12.3-20.6-12.3-4.1 4.8-10.3 7.8-17.3 7.8h-.1c-7 0-13.2-3-17.3-7.7-9 0-17.1 5-20.6 12.3l-.4 1C3.1 69.2 0 81.7 0 94.9c0 7.9 1.1 15.7 3.2 23.1H22V96.2h49.9V118h18.8c2.1-7.4 3.2-15.2 3.2-23.1 0-13.2-3-25.7-8.6-37zM132 22.6c0 12.3 10 22.2 22.3 22.2s22.3-10 22.3-22.2c0-12.3-10-22.2-22.3-22.2S132 10.3 132 22.6z"/><path
        class="st0"
        d="M192.7 57.9l-.4-1c-3.5-7.3-11.6-12.3-20.6-12.3-4.1 4.7-10.3 7.7-17.3 7.7h-.1c-7 0-13.2-3-17.3-7.7-9 0-17.1 5-20.6 12.3l-.5 1a83.86 83.86 0 0 0-8.6 37c0 7.9 1.1 15.7 3.2 23.1h18.8V96.2h49.9V118H198c2.1-7.4 3.2-15.2 3.2-23.1.1-13.2-3-25.7-8.5-37zM246.1 177.9v.9c0 25.8-20.6 46.7-46.1 46.7H.1v-21.7h.4c14.3 0 25.9-11.7 25.9-26.2S14.8 151.4.5 151.4H.1v-20.2H200c25.4.1 46.1 21 46.1 46.7zm-24.2-.3c0-14.5-11.6-26.2-25.9-26.2s-25.9 11.7-25.9 26.2 11.6 26.2 25.9 26.2 25.9-11.7 25.9-26.2zm-97.7 0c0-14.5-11.6-26.2-25.9-26.2-14.3 0-25.9 11.7-25.9 26.2s11.6 26.2 25.9 26.2c14.3.1 25.9-11.7 25.9-26.2z"/>
        <g><path
            class="st2"
            d="M303.2 35.5L296.6 53c-9.4-4.6-23-7.9-35.5-7.9-30.5 0-48.4 16-54.6 40.3h70.6l-4.2 10.7h-68.2c-.4 3.1-.4 5.9-.4 9 0 3.1 0 5.9.4 8.8h61.6l-3.7 10.7h-56.1c6.1 24.3 24.6 39.2 54.4 39.2 13.8 0 25.6-3.7 35.7-7.5l.2 18.9c-11 5-23.5 8.1-40.3 8.1-39.5 0-68.6-21.3-76.1-58.7h-19.3l3.9-10.7h14c-.2-2.8-.4-5.9-.4-9.2 0-2.8 0-5.7.2-8.5h-18.6l3.9-10.7h16.2c7.5-38.4 37.5-59.8 76.9-59.8 16.4-.1 33.9 3.9 46 9.8z"/></g>
        <g><path
            class="st1"
            d="M81.3 222.8c-.6.2-1.1.7-1.3 1.3-.2.6 0 1.3.5 1.8l5.8 5.8L68.9 249l-2.1 2.1c-7.1-6.1-16.3-9.8-26.4-9.8-22.3-.1-40.4 18-40.4 40.3C0 303.9 18.1 322 40.4 322c22.3 0 40.4-18.1 40.4-40.4 0-10.1-3.7-19.3-9.8-26.4l19.4-19.4 5.8 5.8c.5.5 1.1.6 1.8.5.6-.2 1.1-.7 1.3-1.3l6.5-24.4-24.5 6.4zM64.8 306c-6.5 6.5-15.2 10.1-24.4 10.1S22.5 312.5 16 306 5.9 290.8 5.9 281.6s3.6-17.9 10.1-24.4 15.2-10.1 24.4-10.1 17.9 3.6 24.4 10.1 10.1 15.2 10.1 24.4-3.6 17.9-10.1 24.4zM165.8 310.5c15.8-15.8 15.8-41.3 0-57.1-15.8-15.8-41.3-15.8-57.1 0-15.8 15.8-15.8 41.3 0 57.1 7.1 7.1 16.3 11 25.6 11.7v24H111v5.8h23.3v23.3h5.8V352h23.3v-5.8h-23.3v-24c9.5-.7 18.6-4.6 25.7-11.7zm-52.9-4.1c-6.5-6.5-10.1-15.2-10.1-24.4s3.6-17.9 10.1-24.4 15.2-10.1 24.4-10.1 17.9 3.6 24.4 10.1 10.1 15.2 10.1 24.4-3.6 17.9-10.1 24.4-15.2 10.1-24.4 10.1-17.9-3.6-24.4-10.1z"/></g>
    </symbol>
    <symbol id="sustainability" viewBox="0 0 303.2 375.4"><path class="st0" d="M228.5 280.9v-58.4c-36 0-66.2 24.9-74.3 58.4h-20.7v-58.4c-36 0-66.2 24.9-74.3 58.4H37.4L32.2 128h-26L1.1 280.9v94.5h247.4v-94.5h-20z"/><path
        class="st1"
        d="M113.8 10.7c9.4 0 18.2 3.5 24.6 9.9 5.8 5.7 9.2 13 9.8 21l.7 7.9 7.8 1.6c12.4 2.6 21.3 13.4 21.3 25.7 0 6.9-2.8 13.4-7.9 18.4-5.2 5.1-12 7.9-19.3 7.9H31.6c-5.6 0-10.1-2.4-12.8-4.4-5.1-3.8-8.2-9.7-8.2-15.9 0-4.6 1.7-9.1 4.8-12.7 3.1-3.6 7.4-6.1 12.1-7l6.8-1.3 1.6-6.8c1.3-5.5 4.2-10.6 8.5-14.6C50.2 35 57.8 32 65.9 32c2.1 0 4.1.2 6.1.6l7.3 1.4 3.8-6.3c6.4-10.6 18.1-17 30.7-17m0-10.7C97.3 0 82.2 8.6 74 22.1c-2.7-.5-5.4-.8-8.1-.8-10.8 0-21 4-28.8 11.3-5.9 5.5-9.8 12.4-11.6 19.9C11 55.2 0 67.8 0 82.7c0 9.9 4.9 18.9 12.5 24.5 5.3 3.9 11.9 6.5 19.1 6.5h119.3c20.9 0 37.9-16.7 37.9-36.9 0-17.5-12.8-32.5-29.8-36.1-.9-10.5-5.4-20.2-13-27.7-8.5-8.4-19.9-13-32.2-13z"/><path
        class="st1"
        d="M83.6 50.9l-1.8 5.3c-2.2-1-4.3-1.3-5.7-1.3-6.7 0-9.2 3.8-9.2 8.8 0 5.1 2.6 8.7 9 8.7 2.4 0 4.6-.6 6.6-1.4l1.5 5.4c-1.9.8-5.2 1.8-9.5 1.8-8.7 0-15.2-5-15.2-14.5 0-9.7 6.8-14.6 15.6-14.6 3.5 0 6.7.8 8.7 1.8zM117.7 63.7c0 8.5-5.4 14.5-14.7 14.5-9.4 0-14.8-6.1-14.8-14.5s5.4-14.5 14.8-14.5c9.4-.1 14.7 6 14.7 14.5zm-21.8 0c0 5.7 2.6 8.7 7.1 8.7 4.4 0 7-3 7-8.7 0-5.6-2.6-8.8-7-8.8s-7.1 3.2-7.1 8.8zM135.3 79.9c0 3-1.8 4.4-3.9 6.3l-2.8 2.4h6.8v3.8h-12.9v-3.5l6.3-5.5c1.3-1.2 1.9-2 1.9-3.2 0-1.2-.6-2.5-2.7-2.5-1.7 0-3.7.9-4.8 1.4l-1.4-3.4c2.1-1.2 4.6-1.8 6.9-1.8 3.8.1 6.6 2.4 6.6 6z"/><path
        class="st2"
        d="M227.4 139.3c3.5 0 8 2.7 9.7 5.8l16.8 29.9c.5.9 1.6 1.2 2.5.7l12.6-7.3-12.3 46.3-45.5-12.6 12.5-7.3c.9-.5 1.2-1.6.7-2.5l-27.3-48.7c-1-1.8-2.2-3.2-3.5-4.3h33.8zm-98.9 166.4l-16.9-29.8c-1.8-3.1-1.8-8.3 0-11.5l16.9-29.8c.5-.9.2-2-.7-2.5l-12.6-7.4 45.5-12.4 12.2 46.4-12.5-7.4c-.9-.5-2-.2-2.5.7l-27.6 48.5c-.9 1.8-1.6 3.5-1.8 5.2m66.4 9.9h-47.1l-2.6-.1c-.2 0-.4 0-.6-.1-1-.2-2.2-.6-3.2-1.1-1.6-1-2.5-2.5-2.4-4.5 0-1.5.5-3.1 1.5-4.8l13.8-24.2H195l-.1 34.8zm-13.5-105.4L152 192.8l23.7-41.5 1.4-2.3c.1-.2.2-.3.3-.5.7-.8 1.6-1.7 2.5-2.3 1.7-.9 3.4-.9 5 .1 1.2.8 2.4 2 3.4 3.8l13.6 24.3-20.5 35.8zm104 99.5c-1.8 3.1-6.2 5.8-9.7 5.8h-33.8c-1 0-1.8.9-1.8 1.9v14.8l-33.4-33.9 33.3-34V279c0 1 .8 1.8 1.8 1.8h55.1c2 0 3.9-.3 5.4-1l-16.9 29.9zm15.2-41.1c-1.3.7-2.9 1.1-4.9 1.1h-27.5l-20.4-35.9 29.5-17.4 23.6 41.6 1.3 2.3c.1.2.2.4.2.6.4 1 .6 2.2.7 3.4 0 1.9-.8 3.4-2.5 4.3"/></symbol>
</svg>
