<?xml version="1.0" encoding="utf-8"?>
<!-- Generator: Adobe Illustrator 15.1.0, SVG Export Plug-In . SVG Version: 6.00 Build 0)  -->
<!DOCTYPE svg PUBLIC "-//W3C//DTD SVG 1.1//EN" "http://www.w3.org/Graphics/SVG/1.1/DTD/svg11.dtd">
<svg version="1.1" id="Layer_1" xmlns="http://www.w3.org/2000/svg" xmlns:xlink="http://www.w3.org/1999/xlink" x="0px" y="0px"
	 width="35px" height="35px" viewBox="0 0 35 35" enable-background="new 0 0 35 35" xml:space="preserve">
<path id="topfavorite" fill="#FFFFFF" d="M23.438,6c3.771,0,6.828,3.239,6.828,7.235c0,1.865-0.672,3.561-1.764,4.843L17.5,29.125
	L6.498,18.078c-1.093-1.283-1.764-2.978-1.764-4.843C4.734,9.239,7.791,6,11.563,6c2.546,0,4.763,1.479,5.937,3.67
	C18.674,7.479,20.891,6,23.438,6 M23.438,3C21.26,3,19.182,3.754,17.5,5.083C15.818,3.754,13.74,3,11.563,3
	C6.143,3,1.734,7.591,1.734,13.235c0,2.5,0.881,4.912,2.48,6.789l0.076,0.09l0.083,0.082l11.002,11.047l2.125,2.135l2.125-2.135
	l11.002-11.047l0.082-0.082l0.076-0.09c1.6-1.879,2.48-4.289,2.48-6.789C33.266,7.591,28.856,3,23.438,3L23.438,3z"/>
</svg>
