<?xml version="1.0" encoding="utf-8"?>
<!-- Generator: Adobe Illustrator 15.1.0, SVG Export Plug-In . SVG Version: 6.00 Build 0)  -->
<!DOCTYPE svg PUBLIC "-//W3C//DTD SVG 1.1//EN" "http://www.w3.org/Graphics/SVG/1.1/DTD/svg11.dtd">
<svg version="1.1" id="Countries" xmlns="http://www.w3.org/2000/svg" xmlns:xlink="http://www.w3.org/1999/xlink" x="0px" y="0px"
	 width="581.281px" height="342.25px" viewBox="0 0 581.281 342.25" enable-background="new 0 0 581.281 342.25"
	 xml:space="preserve">
<g id="viewport" transform="">
	<g id="World">
		<polygon fill="#0B5ED7" points="185.78,35.41 185.8,35.4 185.9,35.19 184.45,34.37 179.95,34.3 180.35,35.21 184.83,35.54 		"/>
		<polygon fill="#0B5ED7" points="200.28,51.42 205.38,51.33 212.55,50.57 215.77,51.16 219.37,50.13 220.74,48.97 220.26,47.18 
			217.73,45.38 213.77,45.03 208.72,45.46 204.65,46.56 201,46.14 197.63,45.92 197.47,45.86 195.91,44.67 193.07,43.53 
			192.89,43.17 193.4,41.42 191.48,39.9 186.65,39.91 186.49,39.87 183.77,38.22 183.82,38.22 178.94,37.9 178.19,39.61 
			180.8,41.06 185.92,41.69 186.08,41.76 188.59,44.01 188.69,44.2 188.99,46.69 189.8,49.26 196.28,50.82 		"/>
		<polygon fill="#0B5ED7" points="176.45,76.25 176.63,76.26 179.82,77.52 181.03,76.32 181.04,76.32 178.99,74.04 177.54,73.27 
			175.09,72.1 173.49,73.87 171.65,75.03 174.53,76.7 		"/>
		<polygon fill="#0B5ED7" points="184.76,62.8 187.35,59.4 187.5,59.3 187.52,59.3 190.42,58.4 193.78,54.54 189.5,53.48 
			184.39,53.31 182.05,54.57 180.83,56.49 180.79,58.73 182.26,62.65 		"/>
		<polygon fill="#0B5ED7" points="185.04,50.43 186.19,48.8 186.19,48.79 185.4,47.41 183.39,45.78 180.05,47.05 178.94,48.93 
			181.62,50.08 		"/>
		<polygon fill="#0B5ED7" points="166.96,42.33 166.81,42.36 164.45,42.22 164.58,45.53 168.37,45.17 168.7,45.47 168.65,48.19 
			171.06,48.91 174.93,48.43 176,44.91 175.93,42.43 174.44,40.56 174.44,40.54 174.41,40.66 174.1,40.88 170.66,40.59 		"/>
		<polygon fill="#0B5ED7" points="172.39,65.92 174.62,66.28 178.49,64.6 178.9,60.76 175.29,58.81 175.22,58.33 177.41,56.17 
			176.94,55.16 172.69,55.74 172.55,55.73 169.72,54.76 169.71,54.74 167.12,56.79 169.67,59.68 169.71,60.02 169.41,60.18 
			164.62,59.63 164.59,60.64 170.66,64.17 		"/>
		<polygon fill="#0B5ED7" points="160.13,29.15 160.18,29.67 158.53,30.78 163.18,30.95 167.37,32.72 170.89,33.24 170.14,31.5 
			170.16,31.5 168.32,29 161.66,27.01 157.14,26.31 157.27,27.89 		"/>
		<polygon fill="#0B5ED7" points="218.74,56.79 221.35,59.19 221.94,59.42 224.67,58.79 229.66,59.01 229.52,58.19 229.51,58.21 
			225.37,55.67 219.76,55.16 218.82,55.41 		"/>
		<polygon fill="#0B5ED7" points="175.48,32.45 177.33,33.59 180.76,32.56 180.77,32.56 181.32,30.96 178.57,29.21 177.18,28.86 
			174.31,28.66 174.47,30.53 		"/>
		<polygon fill="#0B5ED7" points="183.21,25.25 187.7,25.21 187.99,25.41 187.89,25.75 186.03,27.15 186,28.87 188.51,30.96 
			193.58,31.64 197.88,31.26 202.43,27.19 205.44,25.72 202.9,24.19 202.79,24.07 202.78,24.08 200.86,20.43 196.87,19.37 
			192.66,18.12 192.53,18.05 189.43,15 184.33,15.26 185.05,16.15 184.86,16.63 182.39,17.03 180.74,18.72 179.13,21.1 
			180.58,23.46 		"/>
		<polygon fill="#0B5ED7" points="219.82,98.78 218.51,97.81 216.79,98.1 216.44,97.84 216.24,96.1 213.51,94.9 210.77,93.51 
			209.42,92.52 208.3,93.07 207.88,92.88 207.462,91.267 206.14,91.02 205.35,94.47 205.03,97.62 204.93,97.81 203.44,99.15 
			205.91,98.87 206.22,99.06 206.96,101.04 210.19,99.19 212.65,97.09 213.08,97.13 214.42,98.84 218.1,99.74 		"/>
		<polygon fill="#0B5ED7" points="232.37,83.33 232.59,82.87 232.57,81.27 230.86,80.23 228.83,80.76 227.87,82.93 228.39,84.67 
			230.87,84.48 230.87,84.49 		"/>
		<polygon fill="#0B5ED7" points="222.12,105 222.117,105.006 222.12,105.01 		"/>
		<polygon fill="#0B5ED7" points="250.62,88.2 253.86,87.68 254.12,87.77 258.03,91.72 260.87,93.33 265.05,88.79 265.72,86.28 
			262.14,86.03 261.94,85.93 258.4,82.09 254.45,81.15 248.55,78.32 248.56,77.78 252.85,75.87 250.67,72.04 248.58,70.3 
			242.59,68.52 242.45,68.43 239.96,65.63 235.48,66.64 235.12,66.39 234.82,64.5 231.5,62.36 226.13,60.05 223.9,61.82 
			223.79,61.87 218.84,63.23 218.46,62.9 218.82,59.95 214.74,55.23 208.69,57.12 206.43,60.87 205.92,60.88 203.95,57.91 
			203.94,57.59 203.99,57.62 205.49,55.07 199.75,56.22 197.29,58.1 195.43,62.19 196.17,66.55 199.47,66.57 199.75,66.77 
			199.65,67.1 197.33,68.95 199.05,70.26 203.06,70.93 208.34,72.24 217.4,73.23 221.8,72.67 223.07,71.42 223.46,71.4 
			225.37,72.87 227.49,73.11 227.67,73.2 230.32,75.95 230.27,76.4 229.18,77.15 233.71,78.48 237.55,80.58 237.66,80.68 
			238.63,82.15 239.35,84.1 239.3,84.39 236.09,88.45 235.29,90.34 236.05,91.68 235.82,92.13 230.67,92.65 226.11,92.72 
			224.68,95.32 226.48,96.49 233.33,95.88 233.3,94.99 233.74,94.72 241.12,98.73 241.21,99.18 240.54,100.04 243.27,101.77 
			248.6,104.02 254.86,105.45 254.63,104.67 252.08,102.36 248.54,98.96 248.5,98.57 248.88,98.48 255.14,101.63 257.99,102.59 
			258.73,100.16 257.16,96.36 256.2,95.36 252.78,93.47 250.15,91.09 250.05,90.83 250.37,88.46 		"/>
		<polygon fill="#0B5ED7" points="195.22,14.41 197.34,16.8 201.64,18.72 210.33,18.35 216.02,19.02 216.28,19.26 216.13,19.58 
			212.22,21.68 211.99,21.7 210.05,21.09 203.69,20.86 204.57,23.29 208.02,25.44 208.14,25.8 207.43,27.74 207.23,27.92 
			202.87,29.22 201.25,30.92 204.82,31.84 204.96,31.92 208.37,35.37 208.41,35.74 208.06,35.86 201.45,33.57 200.32,33.85 
			201.46,37.4 201.25,37.78 196.88,38.91 197.13,40.91 201.61,41.17 205.33,41.79 212.74,41 219.18,42.41 225.6,39.42 225.57,38.64 
			221.59,38.83 221.29,38.61 220.94,37.42 221.1,37.06 224.51,35.51 225.65,33.5 225.8,33.37 229.63,31.85 231.74,30.19 
			229.85,27.7 229.94,27.26 230.98,26.66 228.31,26.12 228.07,25.81 228.35,25.53 235.85,24.94 237.38,23.84 237.5,23.79 
			242.57,22.87 246.78,18.25 246.89,18.17 250.95,16.53 255.91,13.52 251.54,13.54 251.25,13.32 251.39,12.98 253.75,11.6 
			259.78,10.39 265.69,7.83 265.77,6.59 261.43,4.99 256.09,4.2 249.41,3.71 249.36,3.71 238.55,2.91 231.35,3.97 231.17,3.94 
			229.91,3.3 222.35,3.56 217.9,4.25 214.73,5.21 212.89,8.44 212.47,8.54 209.83,6.86 206.9,6.55 203.21,8.83 198.3,9.82 
			195.37,10.02 191.96,11.08 192.4,12.73 		"/>
		<polygon fill="#0B5ED7" points="220.94,104.4 220.1,105.41 220.06,105.5 220.58,106.41 221.33,106.63 222.117,105.006 
			221.68,104.46 		"/>
		<polygon fill="#0B5ED7" points="211,103.88 211.37,104.58 212.86,104.66 215.59,102.66 215.59,102.65 215.61,102.35 
			212.61,102.32 		"/>
		<polygon fill="#0B5ED7" points="167.58,73.95 167.79,72.44 163.47,70.4 159.25,68.14 159.1,67.95 158.33,64.71 156.8,60.25 
			154.11,58.41 151.75,57.68 149.93,58.26 151.6,62.81 151.57,63.08 150.31,65.01 149.78,64.97 147.77,60.44 145.74,59.06 
			143.08,61.34 142.71,61.36 139.34,59.04 133.9,60.45 133.56,60.01 134.64,58.08 134.67,58.09 132.56,57.32 126.02,60.16 
			124.34,61.97 122.46,65.1 126.41,66.2 130.23,66.14 130.53,66.39 130.32,66.72 124.93,68.42 125.9,69.64 129.3,69.73 
			134.72,69.38 139.56,70.44 139.8,70.73 139.57,71.02 136.3,71.8 132.72,71.61 128.9,72.37 127.7,72.71 130.36,75.73 132.41,75.28 
			132.57,75.29 135.99,76.49 136.14,76.61 137.4,78.52 141.67,78.13 147.98,77.48 152.65,76 155.62,75.72 160.02,76.91 
			164.32,77.56 164.97,76.33 163.52,74.79 163.71,74.29 		"/>
		<polygon fill="#0B5ED7" points="145.44,29.83 145.417,29.838 145.45,29.85 		"/>
		<polygon fill="#0B5ED7" points="158.85,56.58 158.845,56.587 158.85,56.59 		"/>
		<polygon fill="#0B5ED7" points="158.845,56.587 157.31,55.73 154.14,55.91 153.65,56.3 157.03,59.2 		"/>
		<polygon fill="#0B5ED7" points="207.46,91.26 207.462,91.267 207.48,91.27 		"/>
		<polygon fill="#0B5ED7" points="111.227,152.745 110.42,151.36 108,150.06 107.91,149.98 106.67,148.43 105.89,147.39 
			103.61,147.05 102.08,146.55 99.74,145.91 99.64,146.27 100.48,147.83 102.92,148.39 103.12,148.55 103.53,149.39 105.68,150.48 
			105.8,150.58 106.5,151.64 110.42,153.03 		"/>
		<polygon fill="#0B5ED7" points="145.417,29.838 143.03,29.02 141.83,28.79 139.49,30.29 139.47,30.6 143.26,30.6 		"/>
		<polygon fill="#0B5ED7" points="261.28,159.28 261.27,159.28 260.59,158.09 260.08,158.61 260.54,159.38 263.54,160.63 
			264.29,160.47 264.95,159.79 263.29,159.84 261.47,159.42 		"/>
		<polygon fill="#0B5ED7" points="265.85,150.7 265.84,150.58 263.45,149.31 260.28,148.52 260.09,148.58 261.86,149.75 
			265.01,150.74 		"/>
		<polygon fill="#0B5ED7" points="111.24,152.74 111.227,152.745 111.23,152.75 		"/>
		<polygon fill="#0B5ED7" points="90.01,138.09 90.68,134.61 88.68,134.84 88.54,134.82 88.53,134.82 87.71,134.51 87.62,135.17 
			88.04,136.52 89.3,137.6 90.21,139.13 91.61,140.55 91.85,140.55 90.07,138.33 		"/>
		<polygon fill="#0B5ED7" points="193.92,74.85 193.92,74.87 193.92,74.87 		"/>
		<polygon fill="#0B5ED7" points="287.79,152.73 286.36,153.18 285.99,152.8 286.68,150.7 284.59,149.87 283.57,150.57 
			283.29,150.6 281.07,149.71 280.94,149.25 281.58,148.42 280.41,147.93 278.91,148.94 278.54,148.91 278.48,148.54 280.14,145.66 
			280.12,145.69 281.45,143.62 281.72,143.11 281.09,143.03 279.05,144.1 277.56,145.91 274.99,151.08 273.08,152.87 273.9,153.52 
			273.89,154 272.52,154.99 272.74,155.53 277.39,155.62 280.18,155.44 282.58,156.21 282.68,156.73 281.48,157.74 282.11,157.79 
			284.92,155.13 285.28,155.09 285.98,155.49 286.12,155.81 285.63,158.15 286.97,158.63 287.85,158.54 288.8,156.04 288.06,154.16 
					"/>
		<polygon fill="#0B5ED7" points="129.66,35.4 129.659,35.41 129.66,35.41 		"/>
		<polygon fill="#0B5ED7" points="144.83,34.5 144.82,34.5 145.42,33.34 142.32,32.59 138.81,33.12 137.21,34.48 140.39,35.96 		"/>
		<polygon fill="#0B5ED7" points="129.75,48.2 141.02,47.6 141.33,47.83 141.16,48.17 136.18,50.29 136.4,51.42 139.91,51.32 
			146.25,49.17 154.58,48.41 155.96,46.24 155.58,44.08 153.25,43.88 151.08,44.71 150.71,44.57 149.71,42.7 149.72,42.71 
			148.93,40.39 146.65,39.86 144.69,41.48 148.1,46.16 147.83,46.64 143.46,46.25 143.32,46.2 138.92,43.2 132.05,41.5 
			129.85,42.85 126.71,47.42 		"/>
		<polygon fill="#0B5ED7" points="120.63,43.09 125.25,40.89 127.59,40.62 129.36,38.95 129.659,35.41 126.55,36.11 122.8,36.04 
			117.76,39.4 113.91,42.92 116.74,43.85 		"/>
		<polygon fill="#0B5ED7" points="111.66,66.12 112.85,67.94 119.02,65.87 119.03,65.89 119.03,64.08 119.11,63.87 122.21,60.59 
			128.42,57.18 131.1,56.14 128.85,54.43 126.5,53.06 120.18,52.79 116.59,51.77 108.75,52.48 110.84,55.04 110.86,55.4 
			108.7,58.55 106.97,61.99 106.05,63.69 111.53,66.01 		"/>
		<polygon fill="#0B5ED7" points="32.09,234.41 30.89,233.84 30.87,233.83 30.96,234.1 30.89,234.41 30.5,234.79 30.45,234.91 
			30.81,235.74 30.83,235.891 30.78,236.43 31.02,236.57 31.32,236.26 32.92,235.4 32.44,234.71 		"/>
		<polygon fill="#0B5ED7" points="21.39,228.609 21.29,228.68 21.61,228.859 21.63,228.84 21.61,228.63 		"/>
		<polygon fill="#0B5ED7" points="25.02,230.13 25.19,230.439 25.62,230.49 25.22,230.02 		"/>
		<polygon fill="#0B5ED7" points="4.13,112.05 2.37,112.51 3.31,113.14 4.81,113.78 6,113.33 6,113.32 5.84,112.34 		"/>
		<polygon fill="#0B5ED7" points="29.073,231.895 29.41,232.32 29.87,232.221 29.56,232.029 		"/>
		<polygon fill="#0B5ED7" points="29.06,231.891 29.073,231.895 29.07,231.891 		"/>
		<polygon fill="#0B5ED7" points="37.3,120.98 36.06,121.49 34,122.65 34.31,124 35.35,124.75 37.66,123.49 37.65,123.5 
			39.54,122.01 38.78,121.2 		"/>
		<polygon fill="#0B5ED7" points="361.488,71.84 354.898,71.65 354.62,71.45 354.71,71.12 357.47,68.86 356.669,65.94 356.8,65.61 
			357.159,65.63 360.259,68.27 362.089,69.93 366.089,69.15 365.238,65.86 362.068,63.12 358.738,61.97 358.63,61.47 359.919,60.21 
			360.238,60.15 364.779,61.94 364.758,60.41 361.709,57.26 361.918,56.75 365.379,56.74 368.738,56.03 369.389,54.68 
			366.699,52.84 366.578,52.51 366.85,52.29 371.85,51.97 368.939,48.14 369.129,47.66 371.52,47.24 370.989,43.34 366.489,40.67 
			366.529,40.13 370.648,38.47 374.049,38.27 371.439,35.27 371.37,35.08 371.29,29.03 371.329,28.88 373.35,25.27 375.98,21.55 
			370.73,21.3 370.439,21.01 370.701,20.7 378.609,19.72 380.041,18.4 389.939,14.35 388.77,12.22 381.46,11.08 369.37,13.4 
			363.02,15.6 362.68,15.49 362.689,15.13 365.279,11.87 363.52,10.03 358.838,11.81 358.648,11.82 351.159,9.75 342.35,10.42 
			342.129,10.35 340.869,9.26 340.777,8.93 341.049,8.73 354.527,8.13 364.049,7.86 367.969,5.85 353.039,1.1 333.1,0.3 
			324.35,0.91 321.229,3.19 321.04,3.25 312.318,2.97 304.13,6.6 304.113,6.57 303.822,8.83 309.593,11.99 309.725,12.38 
			309.343,12.54 304.173,10.59 300.624,10.1 294.773,7.86 288.253,11.15 287.943,11.13 285.293,9.29 277.713,9.34 270.053,10.29 
			264.463,11.79 265.383,14.16 265.153,14.56 261.553,15.19 252.973,19.24 251.163,21.14 257.453,23.05 257.633,23.47 
			256.663,25.52 256.473,25.68 247.293,28.36 237.993,30.96 237.723,32.64 243.103,34.74 253.783,36.12 254.043,36.43 
			253.763,36.72 248.753,37 242.813,38.5 246.653,41.4 249.463,42.99 255.493,42.62 262.183,42.41 267.533,42.79 274.353,45.8 
			274.533,46.08 274.503,48.02 277.543,49.87 277.643,49.98 280.653,55.19 282.623,58.49 284.133,60.24 284.163,60.6 281.543,64.7 
			283.243,65.63 285.623,65.01 285.873,65.06 288.113,66.64 292.413,69.54 292.523,69.91 292.184,70.08 287.113,68.88 
			285.023,68.94 284.143,71.11 284.293,73.9 287.103,75.22 289.223,74.63 290.553,73.99 293.402,72.42 293.842,72.73 293.322,76.2 
			292.302,78.13 292.152,78.26 288.482,79.83 286.152,84.53 287.652,85.87 287.742,86.18 286.892,89.1 290.242,92.77 290.322,92.94 
			290.662,96.52 291.893,99.04 296.203,103.9 297.893,107.68 300.182,109.65 305.081,109.67 305.271,109.74 308.872,112.74 
			312.081,112.53 314.393,105.96 313.412,103.02 313.512,102.69 317.543,99.59 318.752,97.1 318.782,94.34 318.852,94.15 
			321.001,91.63 321.15,91.53 324.741,90.57 328.07,89.56 329.801,89.38 335.08,86.52 338.52,82.1 341.189,80.38 341.35,80.33 
			344.079,80.31 351.339,78.83 358.1,75.4 363.96,72.02 		"/>
		<polygon fill="#0B5ED7" points="386.439,93.17 383.829,90.59 383.749,90.31 384.259,87.96 384.253,87.96 380.533,87.69 
			376.523,89.87 376.273,89.89 373.252,88.77 369.572,90.95 369.242,90.94 365.441,88.2 361.902,88.77 360.521,90.97 365.341,91.85 
			365.591,92.12 365.702,93.32 365.452,93.64 362.122,94.23 366.521,95.82 366.59,96.35 364.701,97.71 374.211,99.42 376.291,98.72 
			383.451,96 		"/>
		<polygon fill="#0B5ED7" points="473.5,34.71 477.259,35.77 481.99,33.92 481.98,33.91 479.15,32.95 478.98,32.8 478.089,30.97 
			473.63,31.91 474.81,33.26 474.769,33.69 		"/>
		<polygon fill="#0B5ED7" points="470.781,22.6 471.06,22.82 471.451,24.19 478.611,25.1 485.75,24.45 489,21.77 484.58,19.95 
			484.57,19.95 478.39,18.54 475.97,20.2 475.689,20.23 472.14,18.87 465.05,20.35 467.3,22.5 		"/>
		<polygon fill="#0B5ED7" points="448.62,128.69 448.88,129.77 451.13,131.46 452.397,129.076 451.768,127.69 		"/>
		<polygon fill="#0B5ED7" points="452.4,129.07 452.399,129.07 452.399,129.072 		"/>
		<polygon fill="#0B5ED7" points="452.399,129.08 452.399,129.072 452.397,129.076 		"/>
		<polygon fill="#0B5ED7" points="407.141,126.73 407.25,129.33 408.1,128.28 408.561,128.27 409.38,129.24 409.41,129.59 
			408.589,130.99 409.02,131.67 411.93,132.25 412.109,132.36 413.82,134.53 413.88,134.77 413.509,136.76 413.189,137 
			409.73,136.71 409.339,138.54 410.63,140.25 410.5,140.71 408.201,141.63 408.68,142.53 412.46,143.07 412.721,143.34 
			412.51,143.65 410.33,144.35 407.02,147.47 407.8,147.85 409.41,146.7 409.63,146.65 411.8,147 413.35,145.56 413.701,145.52 
			414.77,146.11 418.919,145.23 422.23,145.25 424.191,143.74 423.32,142.25 423.4,141.86 424.58,140.95 424.83,139.2 
			422.07,138.61 421.871,138.46 421.14,137.09 419.65,133.31 418.07,132.8 417.9,132.66 415.55,128.31 413.121,128.1 412.9,127.63 
			415.121,124.5 415.68,121.99 413.339,121.97 410.82,122.46 410.509,122.33 410.509,122 412.813,118.612 410.451,118.85 
			408.57,118.59 406.76,121.34 405.9,124.87 407.089,126.57 		"/>
		<polygon fill="#0B5ED7" points="396.451,141.83 399.471,142.26 403.75,140.35 405.529,137.51 405.17,135.356 405.167,135.354 
			405.169,135.35 405.3,134.76 406.391,132.84 404,130.92 402.38,131.03 401.83,131.3 400.291,132.62 397.05,135.18 398.279,138.44 
			398.259,138.7 		"/>
		<polygon fill="#0B5ED7" points="412.82,118.6 412.813,118.612 412.83,118.61 		"/>
		<polygon fill="#0B5ED7" points="405.18,135.36 405.169,135.35 405.17,135.356 		"/>
		<polygon fill="#0B5ED7" points="485.47,193.3 485.13,193 485.149,192.811 483.62,192.641 481.759,192.79 482.951,193.009 
			483.201,193.32 483.191,193.45 		"/>
		<polygon fill="#0B5ED7" points="480.24,192.51 481.486,192.738 480.441,192 		"/>
		<polygon fill="#0B5ED7" points="481.5,192.74 481.486,192.738 481.49,192.74 		"/>
		<polygon fill="#0B5ED7" points="486.249,193.24 486.3,193.12 485.65,193.279 		"/>
		<polygon fill="#0B5ED7" points="442.249,177.95 442.349,181.37 442.99,181.891 443.82,181.1 444.08,181.02 444.9,181.15 
			445.211,177.68 443.951,175.91 443.941,175.91 442.929,176.65 442.72,176.71 441.81,176.609 		"/>
		<polygon fill="#0B5ED7" points="459.349,184.63 459.338,184.63 455.389,185.13 452.659,184.891 452.429,185.88 455.669,187.24 
			456.999,187.58 458.599,188.49 458.97,187.46 458.64,186.67 458.64,186.439 		"/>
		<polygon fill="#0B5ED7" points="443.9,174.55 444.579,172.633 444.25,170.6 443.099,171.43 442.669,172.38 443.179,174.17 		"/>
		<polygon fill="#0B5ED7" points="467.05,373.27 467.06,373.27 467.059,373.268 		"/>
		<polygon fill="#0B5ED7" points="546.009,319.11 545.41,317.49 544.769,316.45 544.781,316.41 544.16,315.64 543.621,316.38 
			543.58,317.82 543.521,318 542.14,319.77 541.82,319.87 541.291,319.72 541.46,320.28 541.431,320.52 540.681,321.81 
			538.56,323.46 537.15,324.91 536.941,325 535.91,325.03 535.009,325.48 533.611,326.01 532.5,326.11 532.169,327.62 
			531.351,328.98 531.541,331.23 532,332.81 532.57,334.02 532.601,334.19 532.371,335.85 532.33,335.96 531.181,337.87 
			531.169,338.66 530.98,338.94 529.97,339.34 529.57,341.03 529.791,342.83 530.66,344.9 530.839,347.29 531.46,348.55 
			534.66,350.08 536.71,349.021 538.65,348.41 539.73,345.48 540.691,341.811 542.24,336.84 543.48,333.25 544.451,330.271 
			544.611,328.12 544.71,327.91 545.32,327.38 545.509,326.46 545.05,324.62 545.089,324.39 545.56,323.63 546.08,323.64 
			546.669,324.69 546.82,324.43 547.041,323.36 546.41,322.15 		"/>
		<polygon fill="#0B5ED7" points="488.202,153.75 488.179,153.74 488.201,153.75 		"/>
		<polygon fill="#0B5ED7" points="226.67,238.37 226.66,238.359 226.14,238.279 225.28,238.43 225.17,238.65 226.34,239.42 
			227.58,239.79 228.23,239.42 228.37,239.38 229.62,239.35 229.51,239.16 228.31,238.6 		"/>
		<polygon fill="#0B5ED7" points="225.76,216.5 225.74,216.34 224.38,216.27 223.53,216.43 223.6,216.84 		"/>
		<polygon fill="#0B5ED7" points="227.57,217.939 227.81,216.87 227.51,216.689 227.6,216.9 		"/>
		<polygon fill="#0B5ED7" points="225.36,220.74 224.96,222 225.74,222.641 225.83,222.76 226.37,224.061 226.5,224.029 
			226.49,224.029 226.48,222.79 225.69,220.79 		"/>
		<polygon fill="#0B5ED7" points="199.42,245.25 199.359,245.364 199.47,245.27 		"/>
		<polygon fill="#0B5ED7" points="236.91,238.5 237.06,238.48 238.55,238.66 239.81,238.49 241.12,238.84 241.14,238.62 
			240.57,237.939 240.63,237.5 241.14,237.13 241.3,236.3 241.12,235.15 239.17,234.779 237.82,234.68 237.64,234.91 238.77,235.2 
			239,235.5 238.98,236.359 240.03,237.391 239.98,237.859 239.08,238.439 238.89,238.49 236.99,238.279 234.95,237.96 
			234.86,238.32 235.88,238.93 		"/>
		<polygon fill="#0B5ED7" points="254.18,239.1 255.94,239.109 256.3,238.75 256.1,238.52 254.95,238.311 253.06,238.3 
			252.89,238.48 252.98,239.17 		"/>
		<polygon fill="#0B5ED7" points="213.65,263.79 213.654,263.779 213.63,263.779 		"/>
		<polygon fill="#0B5ED7" points="268.15,427.89 268.155,427.886 268.15,427.88 		"/>
		<polygon fill="#0B5ED7" points="273.04,426.88 272.73,426.93 270.75,426.16 268.155,427.886 269.01,428.92 270.91,427.57 
			271.3,427.61 272.3,428.65 275.4,427.73 275.94,426.89 274.36,425.71 		"/>
		<polygon fill="#0B5ED7" points="210.31,228.9 210.6,228.37 210.85,228.221 211.79,228.189 213.51,226.88 213.71,226.82 
			216.17,226.95 216.44,227.17 216.32,227.5 215.76,227.891 216.18,228.141 219.38,228.54 219.52,228.6 220.23,229.12 
			222.46,229.79 223.82,229.689 224.12,229.88 224.69,231.3 225.43,231.939 226.95,232.1 227.08,232.15 228.1,232.83 
			228.13,233.311 227.13,234.17 229.82,233.98 231.57,234.18 233.21,234.05 234.71,233.75 234.82,233.529 233.23,232.63 
			231.45,232.529 231.18,232.16 231.3,231.689 230.12,231.27 229.35,231.3 229.16,231.24 225.48,228.43 224.69,227.88 
			222.47,228.16 222.22,228.08 221.27,227.16 219.03,226.3 217.09,226.27 215.01,226.09 215.03,226.1 214.41,226.38 212.55,226.63 
			211.32,227.12 210.28,227.66 209.78,228.529 209.68,228.641 208.98,229.07 209.27,229.141 		"/>
		<polygon fill="#0B5ED7" points="278.11,270.25 278.1,270.26 278.108,270.261 		"/>
		<polygon fill="#0B5ED7" points="241.56,237.55 241.21,237.8 241.65,238.33 241.72,238.54 241.67,239.21 241.77,239.79 
			242.04,239.96 242.89,238.471 243.03,238.34 243.86,237.971 244.24,238.09 244.52,238.54 245.18,238.43 245.56,238.029 
			245.82,237.939 246.61,238.061 247.72,237.95 247.88,237.98 248.87,238.45 249.44,237.811 248.53,237.109 247.5,237.02 
			247.23,236.689 247.27,236.26 246.25,236.3 245.97,236.13 245.61,235.391 245.16,235.43 245.01,235.4 243.58,234.76 
			241.85,234.75 241.7,234.971 241.67,234.96 241.87,236.359 241.68,237.359 		"/>
		<polygon fill="#0B5ED7" points="268.15,257.859 267.95,257.83 266.81,258.09 266.85,258.84 266.76,259.07 266.35,259.46 
			268.08,259.23 		"/>
		<polygon fill="#0B5ED7" points="251.15,434.86 251.04,434.74 249.79,432.19 249.39,431.54 248.79,430.733 248.79,430.71 
			248.78,430.72 247.35,430.4 245.24,431.68 244.41,434 243.12,435.57 242.78,435.66 239.46,434.43 235.92,432.14 234.99,431.82 
			237.64,434.75 240.16,436.58 243.25,438.48 245.82,438.97 247.69,440.03 249.11,440.3 250.24,440.4 252.23,439.39 252.77,438.48 
			253.3,437.91 253.49,437.99 254.67,439.13 256.77,438.98 256.78,438.99 257.6,437.73 254.41,436.93 		"/>
		<polygon fill="#0B5ED7" points="652.96,21.04 654.839,25.02 658.87,27.09 665.759,28.67 670.941,28.02 670.928,28.02 
			671.498,23.36 665.869,17.92 661.139,15.04 655.889,16.33 649.979,19.95 652.78,20.88 		"/>
		<polygon fill="#0B5ED7" points="564.369,68.98 564.36,68.983 564.369,68.99 		"/>
		<polygon fill="#0B5ED7" points="776.02,137.23 775.811,141.62 777.25,144.82 777.281,144.95 777.17,149.34 776.59,151.8 
			776.871,155.21 776.59,158.31 776.92,160.17 778.15,158.36 778.611,158.32 780.019,159.73 780.07,158.33 777.691,155.16 
			777.65,154.89 779.191,150.24 779.56,150.05 782.65,150.94 780.371,145.71 780.37,145.71 780.37,145.7 779.339,142.35 
			779.39,138.99 778.531,135.76 777.97,133.82 777.49,134.03 778.301,135.33 778.211,135.74 		"/>
		<polygon fill="#0B5ED7" points="780.16,57.18 780.148,57.18 780.15,57.19 		"/>
		<polygon fill="#0B5ED7" points="683.839,31.18 683.838,31.18 683.838,31.17 684.44,29.37 678.36,26.35 676.589,26.01 
			674.71,26.59 670.55,33.15 		"/>
		<polygon fill="#0B5ED7" points="776.621,54.67 773.67,55.09 771.701,56.68 776.76,57.21 780.148,57.18 779.971,56.42 		"/>
		<polygon fill="#0B5ED7" points="795.419,49.95 797.64,48.44 797.649,48.43 792.059,47.26 787.639,46.54 787.219,47.67 
			791.569,49.52 		"/>
		<polygon fill="#0B5ED7" points="773.06,49.17 782.111,49.31 783.82,46.06 783.819,46.06 783.819,46.05 775.159,43.46 
			768.63,43.24 765.519,44.15 764.31,47.28 768.951,50.32 		"/>
		<polygon fill="#0B5ED7" points="874.881,68.04 877.291,67.01 877.371,66.79 874.07,65.59 872.08,65.58 871.83,65.73 868.84,67.53 
			869.151,68.53 		"/>
		<polygon fill="#0B5ED7" points="564.369,68.98 564.369,68.98 564.371,68.98 		"/>
		<polygon fill="#0B5ED7" points="688.57,38.85 688.577,38.876 688.601,38.88 		"/>
		<polygon fill="#0B5ED7" points="554.78,66.6 554.989,66.8 555.589,68.64 563.519,69.21 564.36,68.983 560.049,65.6 559.94,65.4 
			559.428,61.52 559.498,61.29 563.418,56.71 567.148,51.96 575.068,47.12 582.718,44.7 591.518,42.18 592.949,40.81 591.498,39.09 
			586.828,39.74 582.488,41.68 574.199,42.64 565.979,45.91 560.619,48.46 561.219,50.48 561.11,50.81 555.639,54.75 557.319,55.18 
			557.44,55.7 552.588,59.7 552.668,62.13 552.479,62.42 550.139,63.34 550.44,65.42 		"/>
		<polygon fill="#0B5ED7" points="539.069,18.97 537.87,20.48 540.14,21.62 542.81,20.76 543.111,19.95 543.33,19.76 545.58,19.32 
			548.861,18.57 548.848,18.57 549.389,18.08 546.258,17 544.059,17.9 542.659,19.25 542.169,19.13 541.73,17.77 538.179,17.84 
			535.7,18.38 538.839,18.48 		"/>
		<polygon fill="#0B5ED7" points="553.67,173.04 553.541,173.16 554.1,172.95 		"/>
		<polygon fill="#0B5ED7" points="561.88,218.471 562.019,217.82 561.72,218.2 561.871,218.49 		"/>
		<polygon fill="#0B5ED7" points="504.48,193.59 504.419,193.37 504.111,193.35 503.49,193.57 503.3,193.57 502.89,193.439 
			502.201,193.5 502.519,194.13 503.519,194.43 505.031,193.75 504.97,193.76 		"/>
		<polygon fill="#0B5ED7" points="486.941,176.561 486.49,176.811 486.47,177.17 487.041,178.18 488.849,176.8 488.861,176.79 
			489.919,175.88 490.099,175.811 492.919,175.65 493.111,175.34 491.24,174.51 491.07,174.311 490.82,173.34 488.929,172.99 
			487.019,173.7 487.74,174.17 487.849,174.54 487.07,176.41 		"/>
		<polygon fill="#0B5ED7" points="548.99,221.84 549.4,221.73 549.871,220.359 549.83,218.96 549.291,218.359 548.91,218.52 
			548.32,219.75 548.47,221.471 548.46,221.471 		"/>
		<polygon fill="#0B5ED7" points="808.4,298.6 808.413,298.608 808.41,298.6 		"/>
		<polygon fill="#0B5ED7" points="797.201,299.05 796.861,298.81 796.71,297.99 796.701,297.98 796.451,298.77 796.21,298.98 
			794.75,299.18 792.771,298.86 792.701,299.14 793.89,299.72 795.88,300.43 797.089,300.43 799.599,299.3 799.951,298.68 
			800.169,298.53 801.339,298.35 802.08,297.01 802.121,295.84 801.82,295.59 800.781,295.62 800.99,296.75 800.861,297.061 
			799.5,297.93 798.82,298.75 798.63,298.86 		"/>
		<polygon fill="#0B5ED7" points="809.019,299.06 808.413,298.608 808.679,299.56 809.73,301.09 810.65,301.91 811.07,301.76 
			811.25,301.39 810.21,300.62 		"/>
		<polygon fill="#0B5ED7" points="802.771,294.15 803.429,295.21 803.791,296.32 804.089,296.061 804.099,296.061 803.861,295.029 
			802.96,294.27 801.99,293.25 800.98,292.67 800.13,292.12 798.97,291.52 798.8,291.67 800.22,292.26 		"/>
		<polygon fill="#0B5ED7" points="730.82,264.42 730.111,263.5 728.929,264.311 727.451,264.971 726.58,266.85 726.75,267.15 
			728.33,265.95 728.541,265.891 729.55,265.971 730.24,265.061 730.66,265 732.25,266.189 732.32,266.59 731.64,267.66 
			732.25,269.23 734.849,270.51 735.339,269.7 734.599,267.99 734.65,267.67 735.82,266.391 736.32,266.49 736.96,268.279 
			737.5,266.82 737.361,265.48 737.111,263.82 737.111,263.84 736.75,261.779 735.339,260.95 735.441,262.33 735.15,262.65 
			733.58,262.71 733.24,263.65 733.06,263.83 731.16,264.52 		"/>
		<polygon fill="#0B5ED7" points="722.82,251.3 723.769,252.73 724.47,253.561 724.919,252.061 724.929,252.061 724.259,251.359 		
			"/>
		<polygon fill="#0B5ED7" points="726.71,258.189 727.861,257.641 728.9,256.68 728.929,256.061 727.65,256.061 727.509,256.029 
			726.66,255.58 726.82,256.09 726.83,256.221 726.66,257.48 		"/>
		<polygon fill="#0B5ED7" points="729.07,257.811 728.83,259.16 728.759,259.311 728.14,260.01 727.781,260.48 728.951,261.811 
			729.47,261.311 730.3,259.67 731.121,258.92 731.111,258.91 731.23,257.67 730.019,259.27 729.65,259.359 729.49,259.02 
			729.8,257.73 		"/>
		<polygon fill="#0B5ED7" points="719.13,259.01 717.63,260.76 715.82,262.33 715.611,262.63 717.48,261.279 718.769,259.58 
			720.33,258.25 720.099,257.17 		"/>
		<polygon fill="#0B5ED7" points="732.611,256.34 732.839,257.25 733.4,257.35 733.65,257.63 733.73,258.971 734.269,258.71 
			733.759,257.41 733.691,256.471 734.089,256.17 735.5,256.66 734.941,254.42 734.941,254.41 734.371,253.63 732.75,253.59 
			733.89,255.029 733.951,255.21 733.98,256.17 733.64,256.48 		"/>
		<polygon fill="#0B5ED7" points="721.509,244.24 721.58,245.98 721.919,247 722.781,248.02 722.929,247.59 723.4,247.45 
			724.15,248.04 724.16,248.51 723.47,249.08 723.38,249.8 724.339,250.24 726.519,249.88 726.781,249.96 728.121,251.24 
			728.56,250.59 729.05,250.59 729.939,251.88 731.48,252.87 731.611,252.311 730.951,251.811 730.83,251.52 731.031,250.359 
			728.21,249.08 727.21,249.35 727.07,249.35 725.74,249.07 725.509,248.859 724.951,246.82 724.939,246.68 725.33,244.609 
			725.47,244.41 726.839,243.62 727.429,241.7 726.621,239.95 726.611,239.721 726.98,238.75 726.929,238.62 726.49,239 
			726.16,239.04 724.679,238.33 724.71,238.35 723.48,238.35 722.75,240.45 722.49,244.439 722,244.65 		"/>
		<polygon fill="#0B5ED7" points="694.06,283.859 694.39,285.96 695.519,287.98 696.701,288.63 696.849,288.859 697.21,291.99 
			699.009,292.24 700.621,292.109 700.88,292.23 701.669,293.279 704.451,292.439 704.701,292.471 705.89,293.23 707.599,293.37 
			707.83,293.51 708.689,294.84 711.31,293.8 711.701,293.96 711.72,294.01 712.46,291.09 712.519,288.63 712.65,288.391 
			714.919,286.77 714.82,284.66 714.849,284.51 715.691,282.8 715.929,282.63 718.179,282.41 715.929,280.55 715.839,280.21 
			715.83,280.199 716.201,279.199 714.46,276.96 714.439,276.62 715.63,274.73 716.089,274.221 717.599,273.52 717.25,272.55 
			717.509,272.15 718.96,272.04 719.05,271.529 717.201,270.859 715.541,270.15 715.359,269.91 715.259,268.92 714.14,267.811 
			713.41,267.82 712.179,269.71 710.339,271.38 709.691,271.82 707.339,273.57 706.939,274.01 705.919,275.33 704.121,277.311 
			703.951,277.4 700.98,277.939 700.08,278.34 699.611,280.32 699.39,280.54 697.46,281.01 697.259,280.99 696,280.4 695.38,280.5 
			694.33,281.67 		"/>
		<polygon fill="#0B5ED7" points="839.06,324.02 839.269,324.04 839.4,324.1 839.13,322.74 839.13,322.75 838.519,322.35 
			838.55,323.67 838.769,324.1 		"/>
		<polygon fill="#0B5ED7" points="839.919,325.66 840.519,326.46 840.701,326.39 		"/>
		<polygon fill="#0B5ED7" points="867.57,329.13 867.14,329.42 866.89,329.46 865.91,329.19 865.191,329.85 865.361,330.63 
			866.49,330.89 867.81,330.59 868.121,329.59 867.58,329.12 		"/>
		<polygon fill="#0B5ED7" points="869.49,326.69 868.531,327.1 868.669,327.51 869.98,327.07 869.97,327.06 871.611,326.39 
			871.769,325.74 870.339,326.52 		"/>
		<polygon fill="#0B5ED7" points="838.941,341.25 837.929,340.31 835.871,338.68 835.861,338.68 835.07,337.95 833.99,337.08 
			832.669,336.25 832.13,336.23 832.291,336.64 833.9,338.43 835.48,339.79 837.24,340.95 838.451,341.57 		"/>
		<polygon fill="#0B5ED7" points="854.941,394.91 854.5,394.79 853.929,393.55 853.9,393.55 853.5,392.64 852.13,393.71 
			851.781,395.27 851.669,395.44 850.769,396.16 849.689,398.34 848.14,399.99 845.96,401.62 844.15,402.79 842.531,403.38 
			839.46,406.35 838.21,408.5 838.519,409.34 841.05,409.54 841.191,409.59 842.74,410.58 844.861,410.64 847.929,408.45 
			849.31,405.39 849.98,403.39 850.121,403.22 852.259,402.06 852.4,402.02 853.8,401.99 853.16,400.97 853.21,400.59 
			854.47,399.39 856.089,397.19 856.97,395.88 856.97,394.79 856.451,393.88 		"/>
		<polygon fill="#0B5ED7" points="865.451,384.99 865.23,385.05 863.451,384.79 861.429,383.85 861.259,383.63 860.91,381.57 
			860.339,381.17 860.3,382.58 860.08,382.86 859.75,382.72 857.9,379.62 857.91,379.62 857.24,377.229 855.429,376.55 
			855.31,376.47 854.07,375.04 853.689,375.13 854.55,376.77 856.49,379.26 857.669,380.43 857.759,380.68 857.71,381.09 
			858.679,382.94 858.71,383.06 858.82,385.01 858.4,387.25 858.25,387.46 856.58,388.4 856.531,389.09 859.031,390.18 
			859.179,390.32 860,391.95 859.99,392.24 858.72,394.39 859.439,394.69 859.589,394.82 859.871,395.33 861.47,394.34 
			863.621,390.77 863.929,390.31 863.72,389.16 863.769,388.93 864.439,388.04 864.689,387.92 866.4,387.97 867.07,386.47 
			867.599,384.2 866.759,383.98 		"/>
		<polygon fill="#0B5ED7" points="823.701,306.07 823.46,306.07 823.83,307.13 825.009,308.52 825.009,308.51 824.519,307.91 		"/>
		<polygon fill="#0B5ED7" points="817.9,303.81 818.24,304.11 819.58,305 820.791,305.66 820.49,305.25 		"/>
		<polygon fill="#0B5ED7" points="813.769,302.4 814.019,302.65 814.349,302.82 814.25,302.74 		"/>
		<polygon fill="#0B5ED7" points="822.39,308.78 821.099,308.47 821.019,308.97 821.339,309.21 822.769,309.45 823.21,309.42 
			823.22,309.43 823.111,309.25 		"/>
		<polygon fill="#0B5ED7" points="826.73,311.52 826.281,311.43 825.63,311.16 826.019,311.79 826.97,311.8 826.74,311.51 		"/>
		<polygon fill="#0B5ED7" points="803.919,354.85 804.089,353.21 804.031,351.74 803.361,349.69 801.46,347.59 800.3,346.58 
			798.519,344.95 798.429,344.771 798.07,342.44 797.849,342.59 797.46,342.54 796.611,341.58 795.82,342.04 795.39,341.88 
			794.441,339.1 793.05,337.5 793.009,337.16 793.21,336.76 790,334.55 787.31,333.2 787.169,333.061 786.361,331.3 786.339,331.12 
			786.57,329.85 785.951,327.84 785.429,327.58 785.281,327.4 784.9,326.1 784.371,323.9 784.371,323.76 784.589,322.8 
			783.531,321.92 782.82,321 781.439,321.83 781.009,321.7 780.109,319.7 780.08,319.55 780.169,318.66 780,317.33 779.13,316.1 
			779.08,315.96 778.99,315.06 778.519,314.83 778.349,314.59 778.179,313.06 777.701,312.22 777.121,312.81 777.05,313.5 
			776.57,314.89 776.009,316.14 776.339,316.87 776.291,317.2 775.871,317.65 775.57,319.43 775.849,320.84 775.849,320.97 
			775.691,321.64 776.021,322.8 776.009,322.99 775.259,325.01 774.951,326.4 774.429,327.59 773.941,328.96 773.8,329.12 
			772.15,330 771.91,330.021 769.519,329.14 769.349,328.99 769.009,328.29 767.861,327.71 767.23,327.71 767.041,327.64 
			765.24,326.13 763.99,325.271 762.031,324.43 760.041,323.01 759.919,322.84 759.74,322.12 759.791,321.87 760.669,320.63 
			761.339,319.48 761.08,318.58 761.339,318.2 762.089,318.13 762.929,317.22 763.49,316.08 762.669,315.19 762.3,315.49 
			762.041,315.55 761.201,315.35 759.83,316.03 759.56,316.03 758.121,315.31 757.531,315.52 757.339,315.52 755.23,314.87 
			753.839,313.81 752.32,313.23 751.88,313.35 752.96,313.84 753.14,314.1 753.189,315.4 752.96,315.7 750.861,316.18 
			750.72,316.18 749.56,315.91 748.201,316.71 747.269,317.95 747.55,318.41 747.451,318.83 746.39,319.46 745.3,321.32 
			745.781,322.59 745.451,322.99 743.88,322.75 742.33,322.729 742.111,322.63 740.75,321.15 739.05,320.07 737.07,320.68 
			737.041,321.12 736.66,321.39 735.919,321.189 735.9,321.53 735.701,321.8 734.541,322.2 733.941,323.18 732.65,324.37 
			732.361,326.22 731.929,326.439 731.07,326.01 730.541,326.85 731.31,327.9 731.201,328.35 730.13,328.86 729.73,328.72 
			728.88,326.93 727.49,328.67 727.429,329.99 727.32,331.02 727.22,331.21 725.8,332.479 725.191,333.81 725.111,333.91 
			723.75,335.06 723.64,335.12 721.009,335.88 719.589,335.83 719.08,336.01 718.759,336.5 718.57,336.63 717.089,336.91 
			715.15,337.87 714.89,337.87 714.291,337.59 713.291,337.77 711.451,338.689 710.179,339.83 708.24,340.67 707.23,342.39 
			706.91,342.53 706.679,342.27 706.58,341.24 706.07,342.18 706.32,343.62 706.31,343.75 705.97,345.07 705.451,345.77 
			705.21,347.1 705.72,347.79 706,348.689 707.22,350.76 707.259,350.9 707.3,352.27 707.099,352.56 706.759,352.45 706.05,351.46 
			705.57,351.16 706.14,352.85 706.009,353.2 705.64,353.15 705.55,353.06 705.451,353.021 706.679,354.85 706.73,354.97 
			707.029,356.99 708.07,358 708.16,358.19 708.22,358.92 709.179,360.64 709.22,360.811 709.121,362.32 709.509,363.811 
			710.849,366.65 711.13,368.29 710.83,370.29 710.919,371.26 710.871,371.45 710.451,372.09 710.291,372.21 709.25,372.53 
			709.21,373.72 710.419,374.21 713,375.97 714.599,375.97 716.32,376.07 717.451,375.22 718.71,374.42 718.919,374.38 
			719.5,374.48 720.88,373.09 721.07,373 722.781,372.87 724.57,372.57 726.839,373.07 728.39,372.83 730.38,372.771 
			731.179,371.78 731.65,370.36 731.849,370.17 733.99,369.53 736.621,368.12 736.791,368.09 739.121,368.271 741.919,367.36 
			745.16,366.37 749.71,366.101 749.871,366.141 752.22,367.45 753.91,367.53 754.041,367.561 757.25,369.25 757.349,369.69 
			757.05,370.101 758.201,371.021 759.769,373.061 759.83,373.26 759.759,374.58 761.259,375.48 762.08,373.55 762.201,373.41 
			763.72,372.47 765.73,370.12 766.259,370.29 766.46,372.36 766.41,372.561 765.48,373.891 765.111,375.46 765.05,375.58 
			764.32,376.46 765.55,376.17 766.71,374.32 767.25,374.4 767.861,376.5 767.83,376.74 767.24,377.73 769.201,378.01 
			769.361,378.09 770.589,379.25 770.66,379.36 771.259,380.86 771.71,382.97 773.22,384.64 775.541,385.45 776.99,385.67 
			778.419,386.13 780.41,386.86 782.47,384.88 783.929,384.271 784.33,384.62 784.009,385.86 785.339,386.32 787.23,387.5 
			788.57,386.39 789.781,385.22 792.089,384.03 792.22,384 794.929,383.9 796.14,383.05 796.041,382.23 796.371,380.21 797,378.07 
			797.98,376.61 798.74,374.14 799.56,372.771 800.47,370.62 800.57,370.5 802.361,369.18 803.419,366.75 803.9,364.83 
			803.861,363.2 804.541,360.76 804.97,359.521 805.111,357.24 803.951,355.021 		"/>
		<polygon fill="#0B5ED7" points="790.8,393.41 787.541,394.37 787.339,394.36 784.951,393.35 784.96,393.35 783.689,393.15 
			783.65,394.09 785.05,396.62 785.419,398.65 786.849,401.07 788.23,401.16 788.63,401.28 790.24,399.32 790.679,399.29 
			791.111,399.7 791.3,397.87 791.371,397.71 792.15,396.76 791.99,393.57 		"/>
		<polygon fill="#0B5ED7" points="739.169,293.52 738.81,293.04 736.88,293.13 737.13,293.68 738.57,294.061 739.179,293.52 		"/>
		<polygon fill="#0B5ED7" points="741.441,281.109 741.191,280.85 741.089,280.12 740.74,280.5 740.271,282.359 740.99,285.439 
			741.15,285.689 741.15,285.68 741.099,285.439 741.48,283.92 741.83,283.7 742.791,283.88 742.9,282.08 742.72,281.3 		"/>
		<polygon fill="#0B5ED7" points="790.871,301.24 790.48,300.39 786.419,298.88 786.23,298.67 785.871,297.279 784.55,296.09 
			782.88,294.84 778.3,293.42 774.349,291.85 773.72,291.66 771.201,291.2 769.349,290.311 767.271,289.46 765.179,289.46 
			762.429,290.91 760.38,293.52 759.99,293.59 757.4,292.09 757.25,291.88 756.56,287.859 756.55,287.85 756.23,287.09 
			752.48,286.13 751.201,286.92 748.339,287.43 748.99,288.189 751.13,288.63 751.32,288.76 752.22,290.12 755.72,290.12 
			756.009,290.33 756.22,290.99 755.929,291.38 754.201,291.33 752.15,292.02 753.541,292.91 753.679,293.16 753.691,294.17 
			754.099,294.84 754.73,294.699 755.4,293.59 755.81,293.49 759.509,295.77 761.599,296 766.451,298.13 766.589,298.26 
			767.82,300.45 768.47,303.189 768.3,303.53 766.82,304.189 766.041,305.7 768.57,305.64 769.101,305.02 769.39,304.92 
			771.929,305.43 772.08,305.5 773.8,307.1 774.429,307.5 776.73,307.59 778.099,307.99 779.75,307.26 779.47,305.63 
			779.621,305.32 781.201,304.47 783.32,303.75 783.509,303.75 786.781,304.85 786.939,304.98 788.22,307.15 789.599,308.5 
			791.47,310.05 796.06,310.7 796.24,310.79 796.75,311.34 798.08,311.2 798.189,310.92 795.8,309.97 795.75,309.44 795.89,309.35 
			794.66,309.08 794.429,308.76 794.5,307.99 793.41,308.05 793.14,307.91 791.541,305.29 789.349,303.67 789.24,303.52 
			789.269,303.53 788.72,301.85 788.97,301.46 		"/>
		<polygon fill="#0B5ED7" points="757.08,300.34 757.22,301.41 758.009,300.37 758.009,299.37 757.769,299.06 757.48,299.53 		"/>
		<polygon fill="#0B5ED7" points="709.9,305.84 707.531,304.69 703.82,304.24 703.589,304.09 702.74,302.57 698.451,301.45 
			698.009,302.28 697.73,302.44 692.929,302.19 692.669,302 692.65,301.99 692.371,301.25 691.419,301.06 689.451,300.1 
			686.64,299.96 685.33,301.8 687.089,301.94 687.339,302.13 687.72,303.07 692.06,304.05 693.031,303.76 693.16,303.75 695,304 
			697.939,304.97 700.25,305.42 702.82,305.6 705.07,305.53 707.839,306.53 		"/>
		<polygon fill="#0B5ED7" points="717.121,306.18 716.9,306.12 716.24,305.63 716.24,305.64 715.75,306.29 715.509,306.41 
			714.31,306.43 713.8,307.29 714.599,307.3 718.781,306.53 718.47,306 		"/>
		<polygon fill="#0B5ED7" points="729.429,286.811 728.64,286.95 728.64,286.96 729.361,287.2 		"/>
		<polygon fill="#0B5ED7" points="729.07,296.73 728.48,295.971 728.5,296.23 727.41,298.07 728.05,298.65 729.05,298.1 		"/>
		<polygon fill="#0B5ED7" points="685.63,299.27 685.61,299.27 685.609,299.3 		"/>
		<polygon fill="#0B5ED7" points="685.701,295.7 686.31,292.66 685.25,291.279 683.541,291.07 683.32,290.93 682.451,289.529 
			682.041,287.91 681.359,287.859 681.23,287.82 679.791,286.95 679.679,286.561 680.56,284.76 678.89,283.76 678.8,283.67 
			677.38,281.609 675.39,279.99 672.951,279.95 672.73,279.85 670.38,277.18 669.009,276.141 667.07,274.439 664.91,272.04 
			661.15,271.57 659.929,271.49 660.07,272.3 662.599,274.98 664.46,276.37 665.81,278.54 668.019,280.08 668.121,280.2 
			669.06,282.189 669.769,284.27 671.97,286.38 673.871,289.87 675.089,291.721 676.97,293.74 678.031,295.24 681.201,297.26 
			683.269,299.31 685.61,299.27 		"/>
		<polygon fill="#0B5ED7" points="719.72,309.01 722.24,310.36 722.98,310.33 722.99,310.32 723.05,310.04 722.33,309.41 
			721.14,308.71 		"/>
		<polygon fill="#0B5ED7" points="728.089,306.34 728.258,305.715 726.58,306.4 724.83,306.61 724.669,306.58 723.201,305.87 
			721.541,306.31 721.541,306.73 724.56,307.01 		"/>
		<polygon fill="#0B5ED7" points="742.009,292.3 741.66,293.109 742.939,293.18 744.39,293.02 746.48,293.23 747.929,293.92 
			747.451,292.9 747.451,292.88 744.871,292.2 		"/>
		<polygon fill="#0B5ED7" points="720.041,288.33 719.691,290.3 718.701,291.91 719.33,293.311 720.191,293.33 720.48,293.58 
			720.871,296 720.861,296.141 720.21,298.24 720.99,298.78 722.21,298.5 722.121,295.16 721.91,292.24 722.08,291.95 
			723.75,291.189 724.169,291.49 724,293.779 725.679,295.15 725.769,295.48 725.5,296.279 725.871,296.689 728.13,295.8 
			728.4,295.87 728.39,295.85 726.88,293.9 726.849,293.58 727.22,292.891 724.96,289.83 725.08,289.38 727.21,288.439 
			728.25,287.04 728.441,286.98 725.25,287.561 723.96,288.641 723.56,288.62 721.32,286.391 721.24,286.12 721.599,284.221 
			721.849,283.98 724.041,283.62 728.25,283.49 730.66,283.971 732.38,283.529 734.179,281.311 734.07,281.17 731.83,282.82 
			731.66,282.88 728.74,282.98 725.58,282.63 723.72,281.939 721.771,283.641 721.281,284.6 		"/>
		<polygon fill="#0B5ED7" points="741.191,285.75 741.839,286.77 741.951,286.721 		"/>
		<polygon fill="#0B5ED7" points="728.259,305.71 728.258,305.715 728.269,305.71 		"/>
		<polygon fill="#0B5ED7" points="736.371,306.36 734.38,306.88 734.21,307.22 734.21,307.23 733.74,307.6 731.599,308.47 
			730.599,309.89 730.429,310.53 730.49,310.59 732.38,310.1 732.39,310.1 733.88,308.38 734.451,308.08 736.16,307.49 
			738.73,306.4 739.16,306.08 738.871,305.98 738.089,306.28 		"/>
		<polygon fill="#0B5ED7" points="623.15,261.82 621.81,260.73 620.81,264.33 621.24,267.83 622.281,269.58 624.191,269.08 
			625.089,268.471 625.441,266.07 625.441,266.061 624.281,263.54 		"/>
		<polygon fill="#0B5ED7" points="770.361,184.43 770.271,184.539 765.169,188.561 764.79,188.561 763.409,187.419 760.96,192.189 
			760.63,192.35 758.009,191.779 753.179,192.6 751.339,194.52 748.87,195.95 747.589,197.67 747.45,197.77 745.409,198.52 
			746.22,200.05 747.72,200.82 747.87,201.161 747.3,203.48 748.2,204.27 749.55,203.3 751.12,198.859 748.749,196.93 
			748.659,196.6 748.94,196.4 751.809,196.35 754.799,195.02 759.149,194.4 759.489,194.68 759.589,196.63 760.95,197.5 
			764.348,194.439 764.539,194.359 768.889,194.189 771.95,192.91 773.13,191.1 772.73,189.799 772.74,189.6 773.66,187.359 
			773.649,187.368 773.61,184.438 773.669,184.248 775.929,181.389 775.999,179.159 774.739,175.339 772.469,175.811 771.53,177.48 
			771.95,180.7 771.929,180.859 		"/>
		<polygon fill="#0B5ED7" points="756.349,195.67 755.451,196.7 755.16,196.8 753.92,196.52 752.721,197.97 752.701,199 
			753.871,199.57 754.41,198.23 754.551,198.08 755.83,197.43 756.16,197.471 756.961,198.17 758.07,196.84 757.849,196.18 
			757.861,196.17 		"/>
		<polygon fill="#0B5ED7" points="774.99,169.22 772.48,169.38 771.361,171.48 771.66,174.109 773.98,174.07 775.269,170.96 
			775.691,170.81 779.4,172.75 781.441,169.96 781.621,169.84 785.06,169.07 784.63,166.4 783.249,167.41 782.97,167.45 
			781.17,166.78 781.17,166.79 779.17,165.69 776.58,162.85 776,164.75 775.271,168.97 		"/>
		<polygon fill="#0B5ED7" points="781.169,166.78 781.17,166.78 781.17,166.78 		"/>
		<polygon fill="#0B5ED7" points="725.21,220.58 723.41,222.391 722.009,224.87 722.269,226.67 723.281,228.37 724.099,226.721 
			725.599,222.5 725.589,222.5 725.97,221.109 		"/>
		<polygon fill="#0B5ED7" points="697,237.359 697.541,235.96 698.55,234.88 698.179,234.23 696.951,234.18 694.33,234.88 
			693.25,235.91 693.31,237.811 695.05,238.49 697,237.37 		"/>
		<path fill="#0B5ED7" d="M332.451,298.744l-0.762-0.664l-2.129-0.109l-1.931-0.721l-3.271-2.84l-3.601-2.02l-3.75,0.09l-4.8-1.301
			l-2.83,0.75l-0.359-0.38l0.369-1.229l-1.07-1.28l-4.069-1.5l-2.979-0.851l-1.779,1.541l-0.5-0.222l-0.08-2.25l-4.16-0.368
			l-0.18-0.08l-0.779-0.75l-0.01-0.42l1.799-1.972l-0.049-1.39l-1.141-0.352l-0.201-0.199l-1.398-4.369l-0.521-1.172l-0.488,0.07
			l-0.512-0.3l-0.33-0.81l-2.55-2.041l-2.42-0.779l-0.59-0.18l-2.25-0.562l-1.82,0.16l-0.19,0.319l-0.31,0.141l-2.702-0.449
			l-0.001,0.01l-0.006-0.011l-0.58-0.229l-2.13-1.92l-0.84-0.049l-0.28-0.281l-0.06-1.189l-1.44-1.529l-1.43-0.811v-0.029
			l-0.021,0.016l-0.528-0.325l-0.52-0.32l-1.21,0.052l-0.31-0.24l-0.37-1.9l-1.73-1.13l-1.93-0.181l-0.22-0.119l-0.86-1.19
			l0.14-0.46l0.41-0.141l-1.17,0.011l-2.82,0.14l-0.02,0.36l-0.15,0.25l-1.4,0.79l-0.2,0.029l-1.92-0.311l-0.14-0.06l-1.34-1.062
			l-2.55,0.25l-2.28-0.02l-0.3-0.27l-0.08-0.722l-1.46-1.271l-1.65-0.041l-0.26-0.158l-0.72-1.432l-0.45,0.41l0.29,1.021
			l-0.19,0.369l-2.9,0.961l0.1,1.578l0.71,0.812l0.06,0.29l-0.56,1.83l-0.24,0.21l-1.08,0.16l-0.32-0.171l-0.95-2l0.03-0.311
			l1.05-1.39l0.03-1.13l-0.632-0.885l0.002-0.006l-0.25-0.921l0.19-0.159l1.49-0.39l0.31-0.551l-0.43-0.438l-0.64-0.111l-1.16,1.16
			l-0.97,0.561l-1.96,1.279l-0.2,0.051l-1.73-0.189l-0.12,0.311l-0.27,0.189l-1.48,0.049l-1.28,1.041l-0.43,2.011l-0.02,0.811
			l-0.22,0.279l-0.96,0.25l-1.82,1.71l-0.22,0.08l-1.14-0.069l-0.54-0.291l-0.71-0.528l-0.78-0.722l-1.02-0.399l-1.35-0.08
			l-0.18-0.279l-0.99-0.109l-0.86,0.729l-1.49,0.5l-1.04,0.62l-0.474,0.078l-1.065,0.084l-0.041-0.012l-0.49-0.44l-0.27,0.101
			l-1-0.111l-0.26-0.328l0.04-0.391l-0.68-0.689l-0.52-0.5l-0.77-0.711l-0.97-1.02l-0.52-1.091l-0.32-0.44l-0.18-0.188l-0.08-0.149
			l-0.12-0.689l0.06-0.24l0.42-0.529l-0.14-0.531v-0.139l0.23-1.091l0.13-0.19l0.24-0.148l-0.05-0.95l-0.14-0.72l0.09-1.182
			l0.27-1.028l0.54-0.851l-0.22-0.801v-0.14l0.11-0.479L212,246.71l-0.1-0.11l-0.92-0.41l-0.71-0.56l-0.7-0.44l-0.38-0.06
			l-1.04-0.319l-0.49,0.199l-0.65,0.061l-0.69-0.18l-0.63-0.101l-0.29,0.25l-0.81,0.28l-1.24,0.08l-1.16-0.221l-0.31,0.101
			l-0.29-0.06l-0.14-0.132l-0.49,0.03l-0.47,0.39l-0.3,0.052l-0.09-0.041l-0.63-0.25l-0.113,0.097l0.001-0.002l-0.019,0.016h0.001
			l-0.013,0.013l-0.398,0.107l-0.75-0.42h-0.67l0.59-0.6l0.41-0.74l0.21-0.15l0.33-0.061l0.38-0.529l0.25-1.12l-0.09-0.14
			l-0.04-0.24l0.23-0.8l-0.16-0.29l-0.02-0.25l0.39-1.08l0.02-0.35l0.871-0.6l0.79-2.488l-0.33-0.32l-0.07-0.32l0.65-1.68l1.28-1.48
			l0.07-1.02l-0.39-0.36l-1.43,0.2l-2.18-0.09l-2.59,0.59l-1.58,0.64l-0.35,0.62l-0.22,2.21l-0.6,1.521l-0.11,0.141l-1.59,1.061
			l-1.67,0.489l-1.87,0.472l-1.91,0.26l-2.17,0.71l-0.31-0.08l-0.98-1.021l-2.58-0.67l-0.16-0.109l-0.98-1.28l-0.61-1.511
			l-1.63-1.899l-0.06-0.12l-0.49-1.979l-0.78-1.31l-0.43-1.431l-0.01-0.14l0.24-1.271l0.19-3.58l0.45-1.96l0.78-1.89l-0.02-0.65
			l-0.3-0.619l-0.13-1.32l0.03-1.859l0.03-0.12l0.58-1.22l1.43-1.381l2.53-1.209l2.25-1.99l0.11-0.061l2.11-0.641l1.61-0.199
			l0.14,0.01l1.75,0.609l2.11-0.33l0.23,0.061l1.79,1.391l1.64,0.08l0.87-0.48l0.26-0.01l0.77,0.33l0.06-0.05l-0.29-0.3l-0.09-0.221
			l0.04-1.021l-0.4-0.649l0.14-0.439l1.12-0.45l1.98-0.19l2.18,0.302l2.79-0.341l0.16,0.021l1.57,0.681l1.26,1.289l0.26,0.08
			l2.42-1.189l0.25-0.01l0.98,0.42l0.11,0.08l2,2.35l0.7,1.5l0.02,0.211l-0.49,1.71l0.34,0.94l2.44,4.278l0.89,0.58l0.12,0.16
			l0.34,1.021l0.97,0.26l0.54-0.239l0.57-1.479l0.1-0.989l0.08-1.74l-1.16-3.069l-0.03-1.199l-1.1-1.91l-0.85-2.371l-0.44-1.91
			V205.4l0.39-1.961l0.05-0.119l1.18-1.641l1.45-1.369l2.71-1.791l0.32-0.851l0.09-0.13l1.27-1.03l0.15-0.06l1.15-0.172l1.58-1.578
			l0.12-0.07l2.5-0.811l1.46-1.939l-0.33-2.72l-0.21-0.812l-0.55-0.148l-0.22-0.28l-0.1-2.58l-1.57-0.851l-0.14-0.381l0.36-0.18
			l1.14,0.311l-0.39-1.329l0.01-0.19l0.48-1.27l0.32-0.19l0.26,0.261l0.28,2.311l1.19,1.029l0.08,0.341l-0.05,0.12l0.39-0.631
			l0.74-1.049l-0.03-0.871l-0.52-0.431l-0.09-0.14l-0.52-1.58l0.12-0.342l0.36,0.031l0.77,0.689l0.48,0.13l0.21,0.22l0.04,0.17
			l1.4-1.74l0.45-1.75l-0.42-0.078l-0.17-0.5l0.76-0.82l0.36-0.061l0.16,0.33h1.19l2.87-0.729l-0.15-0.108l-3.55,0.539l-0.33-0.221
			l0.17-0.359l2.17-0.879l2.51-0.291l1.83-0.521l1.25,0.04l1.15-0.33l-0.78-0.061l-0.24-0.16l-0.83-1.59l-0.03-0.141l0.03-1.6
			l0.05-0.15l0.44-0.7l1.33-1.81l0.14-0.11l2.64-0.9l2.55-1.05l2.42-1.35l0.07-1.15l2.66-0.36l4.01-0.1l0.3,0.22l-0.14,0.34
			l-4.19,2.47l0.08,2.16l1.52,0.18l2.75-2.16l2.52-1.26l5.51-1.83l2.7-1.78l-1.26-0.88l-0.13-0.218l-0.11-1.46l-2.03,2.86
			l-0.21,0.12l-4.14,0.45l-0.16-0.03l-3.25-1.56l-0.15-0.17l-0.82-2.37l-0.8-3.46l0.09-0.29l2.09-1.91l-1.82-1.3l-3.58,0.31
			l-5.16,2.63l-3.98,4.15l-0.15,0.08l-2.13,0.52l-0.33-0.14l0.05-0.36l2.87-2.92l3.6-4.24l0.11-0.08l3.13-1.41l2.05-2.29l0.2-0.1
			l2.62-0.23l3.76,0.02l5.35,0.69l4.11-0.52l3.08-2.65l0.11-0.06l4.08-1.17l1.76-1.14l1.68-1.16l-0.17-3.53l-0.88-1.13l-1.85-0.43
			l-0.22-0.2l-0.96-2.82l-1.48-1.02l-3.94-0.89l-0.13-0.07l-2.23-1.98l-3.31-1.98l-0.12-0.38l0.94-2.09l-2.68-4.19l-3.26-4.68
			l-1.76-3.01l-1.36,1.43l-2.38,4.06l-0.11,0.11l-3.63,2.03l-0.38-0.07l-1.75-2.08l-2.19-0.55l-0.22-0.24l-0.83-4.7l0.06-2.95
			l-4.18-0.27l-0.25-0.16l-0.73-1.42l-3.01-2.18l-2.18-1.23l-1.93,0.95l-0.18,0.03l-2.6-0.38l-4.18-1.03l-1.45,0.75l0.8,5.75
			l1.08,3.38l-0.05,0.27l-2.79,3.66l2.9,2.64l1.7,3.07l0.04,0.12l0.2,2.39l-0.04,0.17l-1.45,2.55l-2.84,2.46l-3.68,1.51l1.46,1.5
			l0.08,0.14l1.31,5.38l-0.01,0.18l-1.35,3.44l-0.13,0.15l-1.93,1.08l-0.34-0.03l-3.73-3.17l-0.08-0.1l-1.81-3.78l-0.8-3.51
			l0.36-2.81l-2.41-0.3l-4.12-0.2l-0.13-0.04l-2.63-1.46l-3.11-0.96l-0.12-0.07l-1.76-1.65l-2.45-1.32l-4.55-1.52l-3.43,0.69
			l-0.34-0.18l-1.18-2.76l-1.07-3.24l-3.5-0.58l-0.25-0.31l0.14-4.31l0.99-3.06l2.75-4.38l3.1-3.2l0.17-0.09l2.68-0.45l0.15-2.33
			l0.1-0.21l1.98-1.68l0.17-0.07l3.48-0.26l2.78-2.61l0.74-1.78l2.39-3.44l0.73-2.05l0.41-0.17l2.5,1.21l3.33-0.62l4.74-2.84
			l0.28-1.8l-1.69-2.2v-0.37l1.79-2.22l-0.13-1.91l-3.18-2.08l-3.63-0.64l-3.23-0.31l-0.13,4.53l-0.03,0.12l-1.83,3.74l-2.66,3.14
			h-0.46l-2.42-2.88l-0.06-0.26l0.71-3.04l-2.65-2.5l-3.14,3.22l-0.33,0.07l-0.19-0.28l0.01-4.22l-4.41-0.85l-0.15-0.51l2.05-2.02
			l-3.24-4.88l-2.44-1.97l-3.06-0.69l-2.77,3.15l-0.19,4.73l2.83,1.76l2.68,2.73l0.08,0.29l-1.13,4.37l-0.31,0.22l-1.81-0.1
			l-1.51,3.23l-0.34,0.17l-0.23-0.29l0.01-3.84l-3.58-1.36l-1.9,0.65l0.26,2.44l-0.31,0.33l-3.62-0.1L166.97,83l-0.17-0.02
			l-4.35-1.9l-2.71,0.33l-0.24-0.08l-2.49-2.32l-1.89-0.97l-1.94,0.42l-2.94,0.19l-1.27,1.16l2.26,1.61l0.01,0.48l-2.72,2.16
			l-0.39-0.02l-2.54-2.44l-2.04,0.71l-6.84,0.5l-4.53-0.92l-0.24-0.24l0.14-0.31l3.12-1.89l-2.89-1.89l-2.44,0.26l-3.46-0.75
			l-5.86-1.61l-3.83-1.86l-2.81-0.24l-0.85,1.16l-0.17,0.12l-3.08,0.73l-0.37-0.26l-0.28-2.79l-2.89,2.62h-0.41l-4.18-3.96
			l-1.37-0.38l-0.48,1.83l-0.14,0.19l-1.87,1.04l-0.37-0.06l-1.6-1.72l-3.89,1.06l-3.72,1.94l-0.18,0.03l-3.63-0.53l-2.92,1.33
			l-2.17,1.81l-0.24,0.07l-2.61-0.4l-4-2.13l-4.27-0.98l-0.59-0.18l-2.52-0.58L61.39,72l-3.25,0.71l-0.15-0.01l-1.9-0.57l-4.84-0.43
			l-5.21-1.41l-2.6,0.44l-3.83-0.77l-0.24-0.34l0.1-0.72l-3.79-0.25l-1.02,0.81l-0.41-0.04l-1.75-1.99l0.03-0.01l-3.57-0.91
			l-3.74,2.37l-0.2,0.04l-2.22-0.29l-4.67,1.98l-2.42,0.52l-2.43,2.02l-0.57,2.07l-0.13,0.17l-3.16,2l-0.15,0.05l-4.28,0.14
			l-1.13,1.84l3.18,1.27l2.4,1.83l1.79,2.12l3.03,1.58l0.1,0.08l2.03,2.59l-0.23,0.49l-5.29,0.16l-0.31-0.35l0.28-1.73H9.19
			l-5.52,2.01L0.6,90.98l2.78,2.09l1.06,1.61l3.5,0.92l3.48-0.44l0.16,0.02l1.77,0.8l0.62-0.72l0.13-0.09l2.66-0.88l1.62-0.06
			l0.29,0.19l-0.09,0.34l-1.51,1.27l1,0.52l0.15,0.19l0.47,1.82l-0.13,0.33l-1.91,1.23l-0.22,0.04l-1.67-0.31l-1.91,1.8l-0.31,0.06
			l-1.65-0.6l-1.79,0.25l-0.88,1.94l-2.01,2.13l-0.86,1.96l1.76,1.48l0.11,0.23l0.01,1.97l1.61,0.85l2,1.66l3.11-0.68l0.26,0.06
			l1.61,1.33l0.09,0.33l-0.43,1.3l0.18,1.86h1.18l2.43-1.43l0.42,0.12l0.67,1.31l0.41-0.8l0.49-0.06l1.43,1.62l1.13-1.11l0.39-0.02
			l0.67,0.53l2.73-1.05l0.34,0.09l0.03,0.35l-1.24,2.12l-0.42,2.7l-0.13,0.2l-1.81,1.24l-0.61,0.75l-3.43,2.11l-1.2,1.41l-0.19,0.1
			l-3.03,0.39l-2.61,1.88l-2.49,1.1l-2.45,1.45l0.1,0.15l4.05-0.93l2.06-1.15l2.54-1.19l2.35-0.98l0.16-0.02l1.62,0.25L24,127.5
			l0.75-1.57l0.14-0.14l3.8-1.79l0.58-1.48l0.16-0.17l2.49-1.09l2.64-1.49l2.14-2.38l-1.63-1.59l0.03-0.46l3.57-2.62l1.76-2.54
			l3.19-2.12l0.41,0.07l0.69,0.96l-0.12,0.45l-2.54,1.11l-1.07,3.49l0.29,1.79l2.42-0.68l2.24-1.26l2.9-0.78l1.11-0.19l-0.46-2.31
			l0.21-0.35l2.78-0.8l0.23,0.02l2.96,1.6l4.84,1.7l3.52-0.3l5.762,1.736l2.349,1.289l3.899,2.865l2.85,1.021l3.93,0.09l2.43,0.24
			l0.25,0.19l1.32,3.35L90,126.2l0.09,0.16l0.68,2.94l2.08,1.05l1.22,1.14l0.32,0.57l0.05,1.53l2.92,2.4l0.11,0.18l0.41,2.58
			l3.06,1.37l0.17,0.33l-0.34,1.96l1.3,2.73l4.51,1.38l1.78,1.41l4.77,3.14l0.67,0.54l0.74,2.29l0.4,2.61l-0.06,0.22l-0.62,0.84
			l-0.52-0.06l-1.28-2.88l-3.24-0.97l-0.13,0.26l0.68,1.4l0.79,2.71l0.46,4.26l-0.61,5.66l-0.96,2.83l0.78,2.3l0.09,2.57
			l-0.52,2.398l1.24,1.5l0.07,0.15l0.33,2.31l1.87,2.36l1.08,0.939l0.1,0.271l-0.08,0.58l2.03,3.89l2.41,2.842l0.07,0.139
			l0.28,1.441l0.48,0.34l2.25,0.27l0.16,0.07l0.82,0.699l1.31,0.131l0.25,0.199l0.22,0.659l1.02,0.29l0.13,0.08l1.62,1.609
			l0.08,0.131l0.35,1.189l0.2,0.619l0.86,2.1l2.96,5.621l1.46,0.771l1.93,1.938l0.09,0.23l-0.09,1.221l-0.08,0.18l-0.93,1.011
			l-0.27,0.09l-0.61-0.09l-0.02,0.021l1.09,1.159l1.49,0.632l0.11,0.08l0.42,0.459l0.11-0.109l0.39-0.04l2.91,2.03l0.12,0.17
			l0.38,1.449l-0.07,1.851l1.15,0.61l1.81,1.278l1.67,1.53l0.07,0.109l0.59,1.42h0.13l0.88-0.811l0.03-0.24l-0.83-1.08l-0.92-1.1
			l-1.08-0.08l-0.28-0.27l-0.13-1.34l-0.66-1.19l-0.77-1.229l-0.8-2.42l-1.58-1.4l-0.51-0.909l-0.72-0.65l-0.09-0.14l-0.43-1.512
			l-0.2,0.021l-0.31-0.199l-0.29-0.82l-0.27-0.139l-0.12-0.102l-0.4-0.61l-1.84-1.858l-0.88-1.16l-0.06-0.15l-0.24-2.04l-0.41-1.3
			v-0.189l0.4-1.121l0.42-0.158l1.34,0.72l0.74-0.108l0.2,0.039l1.81,1.101l0.14,0.271l-0.04,0.989l0.85,2.021l1.33,2.039
			l0.05,0.131l0.1,0.761l1.11,1.25l1.38,1.35l1.25,0.2l0.24,0.2l0.6,1.81l1.39,1.23l1.24,0.609l0.16,0.34l-0.35,1.529l0.34,0.48
			l2.08,1.06l0.11,0.091l1.2,1.629l2.53,2.09l2.21,2.632l0.86,1.358l0.25,1.08l0.81,1.131l0.06,0.181l-0.01,0.909l-0.07,0.189
			l-0.46,0.551l0.2,0.58l-0.2,0.389l-0.5,0.15l0.44,0.93l1.2,1.562l2.63,1.438l1.07,1.182l2.45,0.779l1.37,0.149l0.19,0.101
			l0.6,0.66l2.04,1.199l2.79,1.18l1.92,0.382l2.31,1.159l1.85,0.479l1.72,0.66l1.14-0.229l2.07-0.979l1.4-0.188l0.13,0.01l2.04,0.67
			l1.36,0.869l2.42,2.351l0.569,0.476l1.19,0.93l1.06,0.472l1.5,0.04l1.05,0.352l-0.02-0.012l0.56,0.28l0.49,0.38l1.31,0.148
			l1.11,0.521l0.84,0.229l1.22,0.031l1.46,1.129l0.03,0.062l0.77,0.71l1.04,0.79l0.6,0.899l1.81,1.619l-0.05,0.76l0.318,0.199
			l0.123,0.332l-0.31,0.739l-0.01,0.62l0.23,0.34l0.7,0.221l0.14,0.101l0.34,0.42l0.17-0.21l-0.13-0.592l0.13-0.31h0.34l0.66,0.45
			l0.12,0.18l0.13,0.58l0.74,0.28l0.99,0.5l0.76,0.649l0.1,0.181l0.09,0.56l-0.05,0.211l-0.16,0.239l0.3,0.31l0.98,0.4l0.01,0.01
			l0.62-0.069l0.025-0.003l-0.001,0.003h0.976l0.13,0.03l0.61,0.279l0.99,0.16l0.22,0.16l0.44,0.88l0.5,0.09l0.21-0.28l0.53,0.101
			l0.36,1.261l0.81-0.09l0.29-0.3l0.41-0.212l-0.93-1.068l-0.05-0.32l0.25-0.52l0.22-0.171l0.49-0.079l0.9-0.561l0.47-0.811
			l0.22-0.15l1.058-0.154l0.314,0.082l1.168,0.652l0.11,0.11l0.41,0.72l0.51,0.141l0.14,0.49l-0.49,0.529l0.44,1.12l0.41,0.36
			l0.48,0.5l1.017,1.488l0.374,1.99l-0.06,0.24l-0.44,0.54l0.53,2.149l-0.01,0.159l-0.4,1.24l0.73,0.47l0.08,0.43l-0.95,1.312
			l-1.05,1.569l-0.21,0.131l-1.11,0.148l-0.46,0.711l0.1,1.149l-0.24,0.319l-0.57,0.111l0.15,0.35l-0.23,0.55l-1.57,0.91l-1.19,0.47
			l0.13,0.78l-0.04,0.2l-0.93,1.58l-0.45,1.52l-0.17,0.189l-0.66,0.28l0.38,2.039l-0.05,0.229l-0.33,0.461l1.03,0.75l0.78-0.94
			l0.5,0.062l0.54,1.09l-0.02,0.311l-1.25,1.76l-0.49,0.459l-1.59,1.262l-0.69,1.56l1.15,2.271l-0.02,0.31l-0.61,0.852l1.54,0.88
			l1.95,1.64l0.08,0.11l0.77,1.81l1.04,1.182l2.36,5.02l2.46,4.66l2.11,3.33l0.01,0.31l-0.33,0.602l0.94,1.908l1.87,1.521l4.46,2.79
			l4.95,2.58l0.16,0.21l0.19,0.93l2.25,1.33l0.31,0.55l0.49,3.472l0.18,4.328l-0.78,5.892l-0.8,5.52l-0.45,5.19l-1.46,3.34l0.29,3.3
			l-0.01,0.12l-0.73,2.2l0.56,4.2l-1.07,4.2l-1.73,4.52l-1.53,4.62l-0.26,0.2l-0.76,0.068l0.19,2.94l0.71,2.82l-0.03,0.22
			l-1.12,1.96l-0.85,5.46l-0.74,4.06l1.01,0.271l0.72-3.47l0.42-0.21l1.68,0.8l0.16,0.33l-1.31,6.31l-0.4,0.22l-2.44-0.948
			l-0.79,4.77l-0.07,0.15l-2.06,2.398l3.32,0.8l0.13,0.512l-2.59,2.398l-1.02,2.95l0.31,5.41l1.22,2.13l0.02,0.25l-0.67,1.84
			l0.71,1.92l1.467,0.911l1.593,0.989l2.83,2.34l2.72,1.07l0.75-0.062l0.37-2.938l0.16-0.23l2.25-1.21l1.045-0.716l0.084-0.024
			l2.73-0.02l-1.359-2.171l-0.641-2.729l0.04-0.229l1.03-1.54l0.1-0.09l2.2-1.24l1.59-3.71l0.12-0.14l2.86-1.75l0.74-2.45
			l-2.09-0.562l-0.13-0.068l-2.46-2.312l-0.08-0.31l0.72-2.34l0.1-0.15l1.96-1.59l0.19-0.07l2.16-0.01l0.51-1.42l0.36-3.05
			l0.09-0.182l2.01-1.89l2.1-0.88l-0.46-0.96l-1.08,0.75l-0.31,0.02l-1.69-0.909l-0.16-0.229l-0.35-2.98l0.11-0.27l0.97-0.78
			l0.31-0.04l2.33,1.05l2.41-0.39l1.27-0.88l-0.4-1.29l-0.01-0.16l0.49-2.13l-0.5-1.67l0.32-0.38l2.72,0.29l4.95-0.602l3.59-1.51
			l2.32-3.57l0.11-1.17l-1.44-1.148l-0.11-0.29l0.31-1.78l-3.03-2.32l-0.12-0.27l0.141-1.288l0.629-0.271l1.33,1.359l1.56-0.08
			l0.16,0.03l2.22,1.16l1.25-0.28l0.15,0.01l1.73,0.53l2.65-1.47l0.96-1.57l0.45-0.54l1.3-1.26l1.12-2.601l0.09-0.12l1.69-1.29
			l2.159-2.149l2.761-4.79l1.76-1.529l0.529-1.229l0.45-2.63l-0.399-1.421l-0.01-0.13l0.358-2l0.062-0.13l2.118-2.649l3.011-2.17
			l2.851-0.812l1.82-1.188l3.939-1.011h2.591l0.51-1.381l0.13-0.159l1.899-1.069l0.399-2.562l0.062-0.13l2.489-3.34l0.431-3.391
			l0.06-0.149l0.74-0.96l0.95-5.561l-0.181-4.76l0.72-1.99l0.261-0.189l0.5-0.04l1.75-2.09l1.63-2.91l3.521-3.51l1.221-1.58
			l0.959-4.03L332.451,298.744z M247.389,156.161l0.014-0.001l-0.037,0.03L247.389,156.161z M219.233,294.914l0.037-0.084
			l0.007-0.006L219.233,294.914z"/>
		<polyline fill="#0B5ED7" points="487.37,170.25 490.531,172.689 490.82,173.34 489.954,174.667 488.1,176.104 486.49,176.811 
			486.13,176.33 484.245,174.396 		"/>
		<path fill="#0B5ED7" d="M891.95,86.039l-6.312-0.58l0.511,2.66l-0.449,0.31l-1.691-1.04l-0.139-0.28l0.199-2.44l-6.4-4.15
			l-9.6-5.22l-7.119-2.1l-5.222,0.26l-7.778-1.22l-0.92,1.64l1.908,2.67l-0.119,0.45l-3.101,1.4l-0.319-0.05l-4.261-3.82
			l-4.608,0.48l-4.781-0.87l-4.369,0.11l-3.32,0.9l-0.188-0.01l-3.08-1.26l-0.182-0.31l0.291-3.13l-1.91-1.72l-4.859-0.729
			l-10.08,0.86l-0.17-0.03l-6.551-3.51l-0.1-0.08l-2.062-2.67l-22.389-3.04l-3,1.86l1.709,4.1l-0.32,0.41l-3.979-0.63l-1.738,1.23
			l-0.262,0.04l-4.761-1.4l-4.18,1.22l-0.219-0.02l-3.75-1.94l-2.281,4.56l-0.4,0.14l-3.938-1.86l-0.101-0.08l-3.149-3.64
			l-0.01-0.38l1.381-1.83l-1.062-2.79l-3.881-2.43l-3.959,0.02l-4.979-0.8l-0.131,3.34l-0.318,0.29l-10.471-0.71L718.71,58
			l-0.561-2.049l-7.789-0.78l-3.861,0.74l-1.029,1.18l-0.5-0.08l-1.16-2.84l-1.979,0.81l-0.209,0.01l-3.691-1.23l-3.09-0.68
			l-0.119-0.53l1.949-1.5l6.57-2.76l2.641-1.42l0.549-2.34l-1.85-1.771l-5.539-2.49l-7.18-0.07l-2.222,1.23l-0.438-0.19
			l-0.624-2.364l-5.445-0.776l-0.26-0.26l0.188-0.31l2.699-1.03l-3.479-1.4l-5.75,2.13l-2.291,2.15l-0.67,2.18l-0.289,0.21
			l-4.531-0.08l-5.549,2.71l-0.281-0.01l-1.969-1.11l-6.33,0.46l-0.76,1.27l-0.23,0.14l-6.561,0.67l-4.82,2.48l-0.119,0.03
			l-2.75,0.13l-2.65,2.99l1.882,2.37l-0.201,0.48l-5.469,0.64l-5.98-0.21l-4.07,0.92l0.23,4.78l2.188,3.84l-0.051,0.36l-0.358,0.05
			l-4.552-2.62l-5.049,0.24l-3.891,1.71l1.051,3.07l-0.371,0.38l-2.68-0.84l-0.199-0.35l0.969-4.39L609,59.53l-0.719,0.06l0.52,3.04
			l-0.121,0.3l-4.209,2.94l3.029,3.48l0.051,0.32l-1.961,4.42l0.531,2.16l2.529,0.33l0.239,0.41l-1.108,2.74l1.379,2.32l-0.049,0.37
			L607,84.4l-0.646,2.01l-0.182,0.19l-2.67,1.04l-0.939,1.42l-0.311,0.13l-2.859-0.61l-0.17-0.48l4.871-5.96l0.988-2.65l-2.619-2.54
			l-0.09-0.24l0.561-6.05l-0.771-3.04l-1.49-1.41l-0.049-0.38l2.311-3.67l-0.461-2.31l-6.33-1.2l-1.67,0.84l-1.6,4.18l-0.08,0.11
			l-4.521,4.09l0.068,1.27l1.32,3.47v0.22l-0.689,1.76l2.641,0.38l0.261,0.27l0.061,0.82l2.459,2.23l0.041,0.4l-1.67,2.27
			l-0.391,0.08l-9.062-4.97l-3.42-1.36l-7.199-1.31l-1,1.13l2.42,2.35v0.43l-2.85,2.88l-0.42,0.01l-2.701-2.48l-3.528,1.72
			l-0.121,0.03l-4.591,0.12L558.194,81l-0.229,0.07l-3.109-0.45l-0.182-0.5l2.061-2.2l-1.219-0.14l-8.67,3.69l-5.092,1.98
			l-0.58,2.55l-0.219,0.23l-3.871,0.91l-0.25-0.05l-1.969-1.44l-0.121-0.24l-0.021-2.36l0.25-0.3l2.74-0.46l-1.141-1.92l-6.15-1.22
			l1.42,2.07l0.021,0.3l-1.141,2.38l1.971,2.37l0.039,0.33l-1.459,2.87l-0.432,0.12l-2.279-1.42l-2.129-0.22l-5.521,3.84l1.551,2.75
			l-0.131,0.42l-2.109,0.98l-0.24,0.01l-5.868-2.45l-1.25,1.2l1.319,1.52l0.068,0.25l-0.318,1.94l-0.44,0.22l-1.939-1.03
			l-3.211-1.22l-0.188-0.27l-0.16-4.14l-0.15-1.77l-3.969-2.97l0.1-0.53l1.84-0.53h0.171l11.1,3.15l3.951-1.07l2.608-2.06
			l-0.149-2.55l-1.81-1.92l-9.371-4.87l-6.811-1.04l-0.119-0.05l-3.961-2.58l-2.459,1.47l-0.656-0.42l-2.43-2.49l0.11-0.49
			l2.519-0.94l-7.058-3h-0.01l-4.4,0.89l-4.51-0.19l-3.722,3.67l-0.229,0.09l-4.062-0.24l-5.389,1.92l-6.839,5.49l-4.17,3.23
			l-5.991,8.09L447.5,96l-5,4.16l-6.561,3.28l-2.181,2.36l0.782,8.6l0.859,3.82l3.239,1.74l3.16-0.81l4.89-4.21l0.44,0.05
			l1.389,1.88l0.361,0.59l1.851,5.01l2.09,4.04l0.76,3.15l2.479-0.14l1.341-2.64l0.301-0.16l2.817,0.32l1.32-3.09l0.952-6.05
			l0.199-0.24l2.49-0.82l2.131-3.88l-2.272-1.99l-1.779-2.68l-0.028-0.26l1.817-5.45l0.111-0.15l4.831-3.38l3.839-3.1l-0.361-2.31
			l0.07-0.24l2.43-2.86l0.15-0.1l-0.029,0.02l3.949-1.07l0.731-0.05l3.399,1.91l0.151,0.22l0.259,1.73l-0.16,0.31l-1.649,0.84
			l-5.69,4.33l-2.229,2.44l-1.119,2.13l1.17,3.37l0.009,0.14l-0.531,3.54l2.231,1.14l0.108,0.09l1.343,1.89l3.869-0.75l4.391-1.37
			l4.509-0.31l0.599,0.31l2.312,1.57l0.01,0.49l-2.631,1.9l-0.57,0.17l-2.478,0.1l-2.661-0.6l-3.07,0.53l-2.92,0.95l0.181,1.75
			l1.34,1.1l0.75-0.37l0.429,0.31l-0.226,1.668l-0.002,0.002l-0.093,0.66l-0.448,2.58l-0.289,0.25l-2.013,0.07l-0.25-0.12
			l-1.84-2.48l-2.049,1.07l-1.15,2.11l-0.069,2.15l0.051,0.63l0.449,2.51l-0.26,0.57l-3.24,1.06l-0.392,1.03l-0.438,0.53
			l-2.401-0.04l-0.289-0.23l-0.149-0.66l-2.231-0.52l-3.058,1.14l-3.881,1.58l-1.481,0.87l-0.619,0.06l-1.09-1.01l-2.63-1.27
			l-1.36,0.89l-2.551,0.65l-0.369-0.3l0.021-1l-2.32-0.74l-0.209-0.28l-0.031-0.92l-0.109-0.63l-0.562-1.4l0.031-0.29l1.799-2.53
			l0.381-0.09l0.469,0.24l0.353-0.76l-0.01-0.02l-1.062-0.42l-0.18-0.19l-0.301-1l0.028-0.25l0.701-1.1l0.062-1.26l-1.5,0.76
			l-0.843,0.95l-0.188,0.1l-2.07,0.21l-0.619,0.93l-0.381,0.88l0.07,3.47l0.92,1.76l0.161,0.68l0.09,1.51l0.55,1.24l-0.06,0.33
			l-1.699,1.69l-0.471-0.06l-0.369-0.6l-1.772,0.16l-0.317,0.47l-0.57,0.24l-1.821-0.08l-0.01-0.02l-3.25,1.35l-2.14,4.84
			l-0.101,0.12l-0.679,0.48l-0.752,0.53h-0.008l0.007,0.001l-1.658,0.539l-0.611,0.19l-1.75,0.53l-0.709,2.54l-0.17,0.19
			l-5.829,2.54l-0.27-0.02l-1.771-1.05l0.649,3l-0.349,0.36l-4.141-0.82l-2.921,0.63l0.201,1.88l3.64,1.17l0.11,0.06l1.89,1.65
			l2.58,3.3l0.061,0.21l-0.481,6.17l-0.049,0.15l-1.16,1.64l-0.489,0.32l-3.9-0.1l-2.141,0.15l-2.64-0.52l-3.33,0.02l-3.009-0.54
			l-3.161,1.96l0.821,1.05l0.058,0.2l-0.09,1.45l0.032,0.03l-0.051,0.77l0.09,0.801l0.51,1.14l0.041,1.36l-0.521,1.76l-0.17,1.17
			l-0.08,0.16l-0.931,0.99l-0.179,1.72l0.49,0.909l0.99,0.24l0.23,0.25l0.229,1.871l-0.309,1.809l0.85-0.209h0.159l1.181,0.359
			l0.729-0.539l0.601-0.07l2.141,0.41l0.218,0.18l0.69,1.6l0.82,0.86l0.961,0.19l0.9-1.011l1.568-1.01l0.172-0.05l2.379,0.05
			l3.029-0.04l1.682-2.1l0.148-0.101l1.73-0.53l0.5-1.729l0.089-0.14l1.271-1.141l-0.851-1.46l-0.019-0.26l0.97-2.399l1.54-1.681
			l0.21-0.92l0.231-0.229l3.129-0.621l2.201-1.85l-0.103-1.279l-2.877,0.262l-0.447-0.217l3.306-0.666l0.25-1.6l0.221-0.24
			l3.647-0.99l0.132-0.01l4.81,0.8l2.081-1.58l0.662-0.242l0.5-0.11l1.379-1.36l0.111-0.07l1.147-0.42l0.24,0.01l2.01,1l1.222,0.35
			l0.211,0.21l0.76,2.94l1.639,1.681l2.271,1.939l1.879,1.3l1.778,0.19l0.191,0.1l1.029,1.141l1.528,0.521l0.16,0.13l0.683,1.182
			l0.938,0.33l0.17,0.148l0.761,1.479l0.971,1.69l-0.031,0.351l-0.5,0.58l-0.479,1.459l-0.013,0.471l0.541-0.119l1.271-2.381
			l0.221-0.149l0.84-0.142l0.219-1.118l-1.629-0.98l-0.108-0.399l1.049-1.909l0.33-0.15l2.18,0.49l0.15,0.08l1.08,1.069l0.239-0.529
			l-0.17-0.359l-2.061-1.49l-4.062-1.971l-0.059-0.5l0.459-0.39l-0.308-0.341l-1.83,0.021l-0.201-0.069l-2.789-2.431l-1.291-2.53
			l-2.279-1.5l-0.1-0.11l-0.82-1.57l-0.02-0.24l0.289-0.82l-0.132-1.47l0.16-0.29l1.795-0.967l1.855,0.157l0.791,0.28l-0.051,0.15
			l0.5,0.653l-1.08-0.063l0.01,0.01l-0.04,0.73l0.411,0.57l0.529-0.93l0.35-0.14l1.611,0.49l0.209,0.27l0.041,0.94l1.067,1.22
			l-0.099,0.47l-0.12,0.06l1.771,1.9l2.229,0.88l1.5,1.11l1.87,0.89l-1.75-0.91l-0.1-0.09l-0.551-0.736l2.4,1.736l0.729,0.35
			l0.82,0.46l0.101,0.09l0.569,0.801h0.021l0.67,0.439l0.396,0.771l-0.306,0.828l-0.2,1.961l0.19,1.25l1.278,0.92l0.121,0.22
			l0.039,0.479l0.062,0.03l0.432,0.443l0.131,0.63l1.24,1.62l0.979,1.35l0.052,0.11l0.43,1.908l0.891,2.19l1.892,1.15l1.147-0.021
			l-0.799-2.141l0.219-0.398l1.201-0.23l-0.561-1.12l0.358-0.42l1.91,0.63l-0.02-1.061l-1.15-0.789l-1.389-1.352l0.039-0.46
			l0.66-0.448l-1.021-1.121l-0.061-0.109l-0.562-1.76l0.041-0.271l0.469-0.648l0.472-0.021l1.229,1.42h1.199l0.781-0.29l-1.392-1.34
			l0.129-0.51l3.031-0.771h0.142l1.278,0.279l1.41,0.08l0.43-0.24l0.642-1.54l0.013-0.028l-0.561-0.358l-0.413-0.813l2.551-0.949
			l0.16-0.01l1.58,0.299l-0.562-1.189v-0.24l0.91-2.17l0.969-0.97l0.401-0.54l0.64-3.41l0.401-0.22l0.628,0.24l0.92-0.51
			l-0.029-0.43l0.189-0.561l1.771-2.1l0.909-1.7l0.211-0.15l2.32-0.39l0.351,0.25l0.141,0.96l3.688,0.75l0.15,0.08l0.73,0.72
			l-0.093,0.49l-2.317,1l-0.15,0.2l2.34,0.78l0.189,0.39l-0.449,1.19l1,0.45l3.27-1.72l2.671-0.54l0.221-0.51l-2.062,0.15
			l-0.18-0.04l-1.229-0.75l-0.142-0.23l-0.147-1.94l0.157-0.29l2.16-1.17l0.121-0.04l2.271-0.16l1.6-0.98l0.121-0.04l1.75-0.22
			l0.64-0.119l1.861-0.42l0.369,0.26l0.069,0.69l-0.198,0.31l-3.211,1.12l1.02,0.9l0.041,0.41l-2.08,2.61l-0.16,0.1l-1.27,0.35
			l1.688,1.42l2.892,1.19l2.959,2.4l0.419,0.389l0.66,0.69l1.311,0.33l0.109,0.05l1.451,1.12l0.1,0.15l0.629,2.062v0.17
			l-0.258,0.873l-0.011,0.006l-0.313,0.621l-2.897,1.529l-0.183,0.03l-2.108-0.261l-2.882,0.451l-0.139-0.011l-3.63-1.17l-0.01,0.03
			l-4.312-2.08l-4.028,0.061l-2.841,0.83l-2.971,1.92l-0.188,0.049l-4.562-0.379l-0.959,2.069l-0.259,0.17l-3.741,0.11l-2.47,2.51
			l1.349,1.189l0.071,0.371l-1.11,2.06l1.722,1.54l1.397,2.699l2.551-0.049l0.17,0.049l2.32,1.461l1.469-0.29l0.513-1.06l0.278-0.17
			l2.699,0.1l0.17,0.06l1.942,1.47l3.58-0.3l1.647-1.579l0.302-0.07l2.028,0.64l1.461-0.229l0.312,0.149l-0.041,0.34l-0.789,0.9
			l0.58,0.819l0.199,0.621l-0.552,1.049l0.201,1.84l-1,1.988l-0.32,0.512l-0.721,1.851l-0.308,0.591l-0.272,0.539l-0.023,0.1
			l-0.502,2.024l-0.555,1.106l0.031,0.41l-0.621,0.779l-0.499,0.393l-0.92,0.52l-0.17,0.04l-1.949-0.16l-1.86-0.59l-0.459,0.71
			l-0.521-0.029l-0.621-1.24l-1.59-0.311l-2.08,0.211l-1.02,0.779l-1.931,0.87l-0.229,0.01l-1.15-0.43l-2.479-0.81l-2.361-0.722
			l-3.129,0.04l-0.5-0.33l-0.42-0.63l-2.353-0.312l-0.84-0.47l-0.85-0.01l-0.24-0.13l-0.779-1.141l-3.198-0.539l-1.611,0.35
			l-1.699,1.23l-0.688,1.188l0.549,2l-0.07,0.29l-1.27,1.318l-1.222,0.711L468.64,207l-2.649-1.359l-3.5-1.141l-2.24-0.529
			l-0.199-0.16l-1.121-2.359l-3.188-1.2l-2.01-0.45l-0.99,0.229l-0.16-0.01l-2.57-0.84l-0.608-0.199l-0.761-0.351l-0.149-0.14
			l-0.549-1.17l-1.111-0.04l-0.279-0.21l-0.479-1.54l0.09-0.32l1.561-1.351l0.289-2.18l-0.739-0.601l-0.109-0.24l0.02-1.319
			l0.08-0.199l1.142-1.28l-0.021-0.06l-1.811,0.898l-0.431-0.279l0.062-1.199l-1.41-0.28l-2.521,1.08l-0.671,0.11l-1.25,0.129
			l-0.198-0.049l-0.939-0.621l-2.52,0.021l-2.302,1.11l-0.229,0.01l-1.209-0.41l-4.07,0.23l-4.201,0.51l-2.34,0.85l-1.549,1.15
			l-0.131,0.05l-2.649,0.489l-2.13,1.371l-0.561,0.18l-0.97-0.03l-2.551-0.62l-2.33,0.19l-0.211-0.06l-1.43-1.142l-1.539-0.01
			l-0.721,1.59l-1.67,2.93l-0.101,0.11l-1.86,1.16l-2.479,1.27l-1.521,1.79l-0.33,1.44l-0.92,2.3l0.61,3.34l-0.069,0.261
			l-2.09,2.279l-1.302,0.771l-1.948,1.83l-0.17,0.08l-2.24,0.289l-1.2,0.989l-1.56,2.71l-0.111,0.11l-1.601,0.938l-0.829,1.521
			l-0.08,1.46l-0.66,1.55l-0.14,0.148l-0.791,0.4l-1.329,1.61l-0.8,1.739l0.14,0.801l-0.039,0.21l-0.82,1.37l-0.93,0.72
			l-0.063,0.669l-0.026,0.031l0.299,0.87l-0.318,0.51l1.189,1.05l0.649,1.24l0.029,0.2l-0.24,1.239l0.291,1.271l0.278,2.63
			l-0.311,2.43l-0.68,1.291l0.109,0.719l0.408,0.431l-0.378,0.36l-0.6,1.311l-1.211,1.8l-0.13,0.11l-0.62,0.279l0.829,0.601
			l0.091,0.101l0.932,1.784l-0.002,0.007l0.07,0.618l-0.149,0.552l-0.029,0.619l0.26,1.26l0.646,0.412l-0.507,0.157l0.05,0.16
			l0.68,0.479l0.131,0.261l-0.01,0.271l0.43,0.541l0.939,0.148l0.141,0.061l1.119,0.881l0.012,0.01l0.001-0.002l0.489,0.332
			l0.398,0.229l0.102,0.102l0.369,0.56l0.301,1.11l0.52,0.42l0.689,0.369l1,1.021l0.91,1.24l0.289,0.55l0.271,1.65l0.398,0.84
			l1.24,1.279l1.729,0.971l0.44,0.119l0.529,0.311l1.471,1.42l2.14,1.381l2.239,1.891l2.48,1.148l0.32-0.01l0.609,0.02l0.119,0.021
			l2.399-0.891l1.729-0.721l3.041-0.459l1.639-0.031l1.791,0.49l0.83-0.02l0.601,0.09l1.91,0.609l2.129-0.689l1.41-0.869
			l3.563-1.334l0.027,0.004l0.57-0.201l1.489-0.398l0.591-0.13l1.579-0.222h-0.02l0.001-0.024l0.019,0.024l0.591-0.039l3.778-0.029
			l0.211,0.08l1.771,1.658l0.881,1.871l1.23,1.439l1.778,0.051l0.892-0.521l0.188-0.039l0.879,0.119l2.4-0.83l0.5,0.75l0.479,0.271
			l0.132,0.139l0.459,1.012l1.028,0.38l0.15,0.13l0.979,1.66l0.039,0.21l-0.299,1.63l-0.131,0.591l-0.74,2.399l0.211,0.17l0.01,0.01
			l0.142,0.58l-0.461,1.689l-0.609,1.82l-0.541,0.811l-0.059,0.658l1.459,2.48l1.631,2.04l2.379,2.341l0.4,0.459l1.649,2.131
			l0.33,0.529l0.5,1.42l0.221,0.53l0.109,0.25l0.01,0.61l-0.1,0.198l1.189,1.54l1.27,4.12l-0.049,0.271l-0.73,0.949l-0.09,0.369
			l1.23,2.91l0.719,0.87l0.07,0.16l0.131,1.51l-0.261,1.88l-0.051,0.13l-0.819,1.15l-1.421,1.64l-0.569,1l-0.789,2.24l-0.142,1.13
			l-0.85,2.32l-0.34,2.189l0.17,1.199l0.109,0.66l0.131,1.67l1.979,2.46l0.59,1.71l1.3,3.102l1.27,2.12l0.951,1.06l0.07,0.14
			l0.33,1.5l0.059,3.132l0.83,4.05l0.621,1.95l0.539,2.578l0.938,1.9l1.611,1.771l0.35,0.488l1.711,3.37l1.25,2.312l1.629,2.58
			l0.052,0.148l0.069,2.13l-0.141,0.26l-0.59,0.37l0.709,1.642l0.021,0.12l-0.012,1.579l0.13,0.287l0.241-0.048l1,1.16l0.721,0.04
			l0.189,0.08l0.971,0.92l0.93-0.06l1.591-1.07l2.108-0.44l2.551-1.1l0.16-0.021l0.979,0.142l1.461-0.33h0.119l2.621,0.52l1.149-0.5
			l0.199-0.01l1.27,0.352l0.222-0.54l0.24-0.182l1.229-0.14l2.551-1.062l1.851-1.238l1.75-1.65l2.811-2.84l1.391-1.93l0.72-1.44
			l1.061-1.39l2.199-1.78l0.59-1.12l0.291-2.2l0.51-1.63l0.181-0.57l0.141-0.89l-0.381-0.11l-0.209-0.229l-0.211-1.13l0.09-0.28
			l1.1-0.99l3.08-1.488l2.031-0.882l0.949-0.858l0.281-0.83l-0.421-0.32l-0.102-0.33l0.391-1.188l0.062-2.13l-0.051,0.01
			l-0.392-0.28l-0.028-0.74l-0.472-1.47l-1.17-1.95l-0.039-0.188l0.209-1.86l0.15-0.229l0.99-0.58l1.721-1.812l1.01-0.51l2.879-2.8
			l5.062-2.21l1.52-1.521l0.941-1.729l0.698-1.71l-0.42-1.24l-0.1-3.97l-0.311-2.271l0.1-2.47l-0.25-0.7l-0.398-0.45l-0.53-0.318
			l-0.119-0.142l-1.031-2.479l-0.869-1.57l-0.028-0.188l0.159-1.16l-0.131-0.722l0.021-0.18l0.66-1.438l-0.05-0.42l-1.471-0.842
			l-0.15-0.229l-0.149-1.42l0.021-0.142l1.068-2.88l0.352-0.47l0.761-0.63l0.459-1.58l0.811-1.061l0.34-1.689l0.24-0.24l0.811-0.158
			l0.55-0.932l0.108-0.109l1.461-0.841l0.48-0.368l0.278-0.291l0.609-1.351l2.771-3.062l2.329-1.898l3.761-2.5l2.469-2l2.92-3.391
			l2.121-2.791l2.129-3.658l1.541-3.2l1.189-2.79l0.7-2.71l0.521-0.92l-0.01-1.25l0.233-1.493l-0.031-0.39h-0.57l-1.109,0.81
			l-0.118,0.051l-1.312,0.25l-1.141,0.369l-0.609,0.051l0.01,0.011l-0.6,0.028l-1.031,0.062l-0.84,0.43l-1.309,0.19l-2.17,0.779
			l-2.771,0.311l-2.42,0.648l-1.104-0.008l-1.782-1.779l-0.204-0.412l-0.49-0.279l-0.52-0.29l-0.82-0.528l0.051-0.531l1.26-0.539
			l0.062-0.76l-0.34-0.451l-0.011,0.021l-0.44-0.42l-0.939-0.601l-2.141-2.34l-1.369-1.431l-3.391-2.399l-1.4-1.271l-0.09-0.142
			l-0.68-2.34l-1.24-2.549l-0.42-0.521l-2.049-1.4l-0.121-0.159l-0.931-3.149l-0.358-2.69l0.1-0.271l0.4-0.351l-0.683-2.17
			l-0.389-0.55l-2.91-2.37l-0.108-0.22l-0.08-1.72l0.1-0.23l0.299-0.279l-2.08-2.729l-0.829-1.54l-0.939-1.479l-1.889-4.182
			l-1.552-2.76l-1.041-2.88l0.07-0.32l0.26-0.25l0.48,0.09l1.77,3.86l1.74,1.851l0.32-0.261l0.641-1.318l1.178,0.567l0.851-0.01
			l0.25,0.13l2.8,4.029l0.969,1.98l0.681,0.561l0.08,0.1l0.7,1.38l0.021,0.2l-0.11,0.49l0.719,1.33l1.341,0.56l1.25,1.13l1.44,2.93
			l0.03,0.15l-0.1,1.53l0.27,1.72l1.57,2.359l1.028,0.391l0.111,0.07l1.729,1.789l0.069,0.111l0.701,2.08l1.28,2.09l1.24,0.89
			l0.118,0.19l0.183,0.939l0.688,0.71l0.071,0.12l0.199,0.689l0.01,0.021l0.14,0.601l0.091,0.949l-0.039,0.189l-0.24,0.391
			l0.228,1.05l-0.219,0.36l-0.08,0.02l0.521,0.791l0.479,1.85l0.392,0.72l0.038,0.16l-0.069,1.319l0.551,1.26l1.48,0.111l0.729-0.32
			l0.13-0.021l1.062,0.05l0.299-0.49l0.179-0.129l0.571-0.16l0.49-0.6l0.17-0.101l0.68-0.149l2.07-0.131l1.51-0.47l1.42-1.03
			l0.229-0.05l0.699,0.14l0.972-0.119l2.278-1.801l3.981-1.189l2.31-1l0.071-0.791l0.478-1.139l0.17-0.16l1.513-0.58l-0.01-0.051
			l0.6-0.1l0.879-0.109l1.63-0.841l0.19-0.03l1.269,0.221l0.971-0.57l-0.01-0.87l0.129-0.25l0.981-0.649l0.17-0.051l1.438,0.021
			l0.41-0.399l0.231-1.171l0.14-0.2l1.56-0.97l0.159-0.04l1,0.01l0.07-0.09l-0.289-1.609l0.01-0.141l0.4-1.32l0.581-0.729
			l0.269-0.11l0.931,0.11l0.84-1.61l0.08-0.1l-0.01,0.029l1.01-0.799l1.25-2.19v-0.3l-0.7-0.26l-0.13-0.101l-1.75-2.319l-1.37-0.451
			l-1.82-0.34l-0.108-0.049l-1.401-0.961l-0.089-0.09l-1.032-1.67l-0.188-0.6l-0.279-1.721l-0.26-0.5l-1.312,1.36l-1.858,1.7
			l-1.711,1.789l-0.231,0.091l-3.539-0.149l-1.755,0.375l-0.286-0.046l-0.659-0.05l-0.011-0.029l-0.099-0.631l-0.351-0.75
			l-0.451,0.12l-0.25-0.04l-0.76-0.529l-0.09-0.101l-0.369-0.649l-0.33-0.861l-0.679-0.699l-0.071-0.109l-0.319-0.9l-0.011-0.18
			l0.231-0.83l-0.121-0.91l-1.59-1.061l-0.11-0.13l-0.39-0.851l-1.142-0.569l-0.139-0.149l-0.899-2.15l-0.23-0.61l-0.651-1.659
			v-0.211l0.183-0.51l-0.41-0.939l0.897-0.511l0.791-0.069l0.722-0.82l0.369-0.061l1.479,0.84l1.219-0.399l0.361,0.149l1.84,3.631
			l1.61,2.47l2.41,0.79l2.479,2.029l2.892,0.841l2.42-1.25l1.987-0.511l0.183,0.011l1.199,0.479l0.17,0.19l1.01,3.11l2.64,0.319
			l2.75,0.62l4.44,0.76l0.631-0.039l3.099-0.33l4.049-0.051l4.603-0.5l0.25,0.09l1.929,2.03l0.76,1.88l1.521,0.561l0.531,0.359
			l2.728,2.1l0.741,1.031l-0.062,0.41l-0.938,0.739l2.961,2.87l1.589,0.279l3.56-1.529l0.409,0.22l0.49,2.511l-0.009,3.119
			l0.74,3.291l1.028,4.939l2.291,3.561l0.44,1.619l0.609,3.141l1.301,2.379l0.899,1.261l0.959,2.569l1.142,3.471l2.14,2.119
			l0.741-0.529l0.808-1.65l0.183-0.149l1.828-0.57l-0.439-0.479l-0.04-0.36l1.139-1.931l0.231-0.149l1.019-0.101l0.013-4.029
			l0.028-0.12l1.029-2.351l-0.128-2.029l-0.522-3.311l0.022-0.149l0.75-1.96l0.25-0.189l1.128-0.131l2.211-0.9l1.071-0.549v-1
			l0.129-0.25l2.479-1.681l1.859-1.61l2.791-3.039l3.639-1.791l1.211-1.399l-0.131-1.841l0.25-0.319l3.093-0.54l1.549,0.02
			l0.26-0.68l0.57-0.22l0.778,0.19l0.541,0.209l0.231-0.299l0.369-0.091l0.801,0.4l0.599-1.11l-0.211-0.98l0.312-0.359l2.31,0.109
			l0.231,0.131l1.08,1.6l0.478,1.26l0.17,1.371l-0.048-0.65l0.591,0.504c0,0,0.174,0.065,0.445,0.167l-0.035,0.022l-0.41-0.189
			l0.119,1.5l1.65,1.979l1.368,0.311L655.74,235l-0.26,0.8l1.93,2.97l0.52,2.42v0.142l-0.789,2.93l1.271,0.49l1.26,0.2l2.74-1.762
			l1.639-1.279l0.449,0.1l1.111,2.221l0.448,3.221l0.802,2.979l0.979,1.271l0.062,0.199l-0.199,2.681L668.5,256l0.02,0.26
			l-0.737,1.87l0.1,0.771l0.14,1.129l-0.729,2.382l-0.26,1.479l0.139,0.409l0.15-0.54l0.5-0.13l1.221,1.2l1.33,1.42l0.059,0.109
			l0.41,1.181l0.722,0.71l0.35,0.49l0.449,0.869l0.03,0.181l-0.26,1.72l0.84,1.271l0.05,0.119l0.329,1.99l1.392,1.609l0.07,0.13
			l0.27,1.16l2.859,1.92l2.291,1.79l1.399-0.13l0.029-0.521l-0.92-2.08l-0.82-0.641l-0.108-0.199l-0.181-1.459l-0.239-0.842v-0.148
			l0.26-1.09l-0.131-1.57l-0.988-1.59l-1.41-1.451l-0.311-0.129l-0.5-0.33l-1.041-1.051l-1.431-0.271l-0.159-0.09l-1.398-1.44
			l-0.08-0.148l-0.441-2.15l-0.93-2.1L669.38,262l-0.281-0.27l-0.17-1.83l0.021-0.131l2.147-5.899l0.201-2.761l0.299-0.279
			l2.211-0.01l0.302,0.35l-0.302,1.641l1.771-0.041l0.141,0.03l1.699,0.88l0.691,0.45l1.237,2.56l0.933,1.201h0.01l1.889,0.33
			l0.611,0.369l1.469,1.141l0.09,0.351l-0.647,1.58l0.67,1.188l2.83-2.129l2.09-2.141l2.85-1.62l1.972-1.569l0.317-4.301
			l-1.119-4.619l-1.461-1.971l-2.309-1.63l-4.26-6.101l-0.041-0.261l0.551-1.8l0.059-0.109l2.093-2.459l2.858-1.932l0.01-0.01
			l0.68-0.389l1.09-0.4l0.17-0.01l3.359,0.84l0.19,0.439l-0.519,0.891l0.528,1.539l0.949-0.109l0.801-2.57l0.24-0.209l2.619-0.4
			l3.42-1.28l1.371-1.271l0.411,0.01l0.679,0.671l1.321-1.011l0.147-0.06l2.75-0.3l3.421-2.18l3.399-2.42l2.291-3.131l2.021-3.51
			l1.83-2.93l0.198-0.141l1.222-0.209l0.58-1.961l0.35-2l-1.289-0.75l-0.131-0.149l-0.601-1.47l0.15-0.381l1.401-0.67l0.028-1.76
			l-1.659-2.08l-1.521-2.561l-0.97-2.719l-2.601-1.5l-0.099-0.42l1.289-1.99l0.099-0.101l2.381-1.399l1.132-1.5l0.17-0.11
			l3.237-0.729l-0.269-1l-1.401-0.07l-0.119-0.03l-2.06-1.04l-2.661,1.96l-0.298,0.03l-1.981-0.84l-0.18-0.26l-0.07-1.08
			l-1.829-0.431l-0.181-0.13l-1.319-1.97l0.028-0.37l1.282-1.37l0.199-0.09l2.319-0.13l1.521-1.85l2.83-2.061l2.229-1.08l0.36,0.08
			l1.32,1.561l-0.021,0.409l-1.84,1.841l0.44,0.959l-0.062,0.33l-0.519,0.53l1.541-0.46l1.799-1.34l0.108-0.051l3.421-0.84
			l0.672,0.221l0.819,0.55l1.408,0.31l0.221,0.2l0.16,0.479l-0.01,0.211l-0.589,1.47l0.179,0.42l-0.131,0.38l-0.519,0.301
			l-0.521,0.969l0.43,0.291l0.619,0.25l0.183,0.229l0.028,0.2l0.289-0.09l0.25-0.439l0.392-0.131l0.971,0.439l0.509,0.441
			l1.549,2.239l-0.17,0.46l-1.539,0.4l0.99,2.67l0.01,0.17l-0.448,2.07l0.219,1.209l1.91-0.209l1.951-1.141l2.229-0.55l0.839-1.38
			l-0.019-3.17l-0.59-1.79l-1.859-2.95l-0.121,0.24l-0.068,0.053l0.189-0.293l-0.391-0.529l-1.222-1.101l-0.959-0.46l-0.09-0.471
			l0.219-0.25l0.071-1.17l0.121-0.22l1.089-0.79l1.69-0.51l0.881-0.82l0.528-0.58l1.119-0.57l-0.09-1.949l0.062-0.189l0.778-1.061
			l1.09-1.02l0.263-0.08l0.228,0.039l0.041,0.01l0.572-0.289l0.16-0.42l0.108-0.14l3.359-2.22l0.372,0.03l1.479,1.39l1.381-0.03
			l3.23-1.72l1.59-1.77l6.73-7.14l0.868-2.21l3.73-4.55l1.109-5.09l0.211-3.91l0.039-0.14l1.909-3.26l-0.08-2.67l-3.461-3.6
			l-2.487-0.2l-1.5,1.61l-0.312,0.08l-2.43-0.76l-0.17-0.14l-1.16-2.03l-3.791-0.42l-0.16-0.52l9.603-8.31l8.108-7.09l0.16-0.07
			l8.24-1.1l7.629,0.63l3.021-1.77l0.19-0.04l3.889,0.56l0.263,0.32l-0.16,2.32l3.51-0.34l5.039-0.87l-1.699-1.87l0.011-0.41
			l6.27-6.33l0.15-0.08l6.461-1.3l0.33,0.17l1.907,4.36l5.98-3.94l1.469-3.111l0.24-0.17l3.039-0.33l0.312,0.4l-2.011,5.43
			l-0.11,0.14l-4.479,3.01l-4.291,3.82l-4.469,4.61l-0.15,0.08l-3.67,0.77l-0.111,1.46l-0.09,0.19l-2.049,2.08l-1.17,4.76
			l1.389,7.59l1.07,4.88l0.76,1.88l3.222-2.76l0.729-3.32l0.23-0.23l3.549-0.79l0.83-3.72l0.18-0.21l4.031-1.63l-0.83-1.19
			l-0.041-0.27l1.07-2.94l0.26-0.2l2.061-0.12l0.299-4.7l-2.618-0.74l-0.222-0.27l-0.09-1.47l0.07-0.21l2.971-3.51l0.789-2.39
			l0.33-0.2l3.229,0.49l2.32-1.54l0.4,0.06l0.987,1.21l6.312-2.85l0.301,0.03l3.299,2.4l0.763-1.4l0.1-0.11l3.629-2.32l3.83-2.68
			l0.111-0.05l2.199-0.44l6.971-2.9l0.17-0.02l4.469,0.81l0.48-0.76l-0.25-1.41l-1.15-1.09l-1.469-3.22l-2.222-2.1l-0.069-0.34
			l0.301-0.18l3.148,0.29l3.092-1.71l1.27-1.55l-1.02-1.76l0.17-0.44l3-0.98l0.379,0.39l-0.48,1.36l1.121,1.19l2.689-0.5h0.131
			l2.539,0.67l0.211,0.2l0.51,1.63l3.189,1.13l1.91,1.39l2.141,0.11l0.809-0.67l0.062-3.83l0.27-0.29l4.021-0.42l2.1-1.52
			L891.95,86.039z M523.499,249.049l0.111,0.092l0.619,0.84l1.141,0.858l0.449,0.654l-2.814-2.675L523.499,249.049z
			 M558.158,176.539l-2.199,0.95l-0.211,0.01l-2.049-0.63l-0.41,1.85l1.33,0.141l0.25,0.391l-0.57,1.77l1.73,0.881l0.158,0.301
			l-0.359,3l0.391,1.699l-0.009,0.598l-0.009,0.002h0.009l-0.188,0.52l-0.23,0.19l-3.911,0.761l-3.66-0.49l-0.149-0.07l-1.69-1.4
			l-2.31-0.59l-0.209-0.189l-0.701-1.891l-0.11-0.59l-0.042-1.236l0.104-0.214l0.849-0.63l0.389-0.92l0.433-2.26l0.26-0.24
			l1.459-0.17l-0.28-0.29l-1.06-0.13l-0.221-0.141l-1.261-2.09l-1.108-1.33l-0.328-0.459l-2.562-3.321l-0.059-0.22l0.229-1.93
			l-2.199-2.81v-0.37l2.49-3.2l0.17-0.11l2.301-0.49l0.889-1.44l0.429-0.48l2.211-0.62l2.88-1.38l0.229-0.01l2.07,0.75l2.438-0.15
			l0.312,0.23l0.448,2.06l-0.448,3.04l-0.359,0.25l-2.121-0.45l-1.84,0.44l-0.09,2.03l-0.34,0.29l-2.07-0.25l0.041,0.48l1.24,0.7
			l0.129,0.15l1.08,2.62l2.778,0.99l0.17,0.16l0.48,1.05v0.26l-0.57,1.17l0.021,0.109l0.16,0.67l0.26,0.65l0.109-0.915l0.18-1.046
			l0.141-0.068l2.089-0.464l0.119,0.583l0.133,0.116l0.657,1.583l1.779,1.75L558.158,176.539z M670.357,255.509l0.001-0.003
			l0.23-0.396L670.357,255.509z M749.641,170.32l-0.278,0.27l-0.33,0.02l0.608-0.292V170.32z"/>
		<polygon fill="#0B5ED7" points="454.111,32.71 457.81,34.25 457.89,34.76 455.941,36.39 460.88,39.34 463.589,39.16 464.73,34.98 
			464.89,34.79 466.97,33.83 468.32,29.95 468.509,29.76 474.14,27.82 466.5,23.95 466.519,23.94 463.441,22 460.031,22.18 
			459.16,23.97 458.9,24.14 455.33,24.22 455.08,24.09 453.83,22.28 447.541,24.16 449.32,28.17 		"/>
	</g>
</g>
</svg>
