<?xml version="1.0" encoding="utf-8"?>
<!-- Generator: Adobe Illustrator 19.2.1, SVG Export Plug-In . SVG Version: 6.00 Build 0)  -->
<!DOCTYPE svg PUBLIC "-//W3C//DTD SVG 1.1//EN" "http://www.w3.org/Graphics/SVG/1.1/DTD/svg11.dtd">
<svg version="1.1" id="Layer_1" xmlns="http://www.w3.org/2000/svg" xmlns:xlink="http://www.w3.org/1999/xlink" x="0px" y="0px"
	 width="897.4px" height="440.81px" viewBox="0 0 897.4 440.81" style="enable-background:new 0 0 897.4 440.81;"
	 xml:space="preserve">
<style type="text/css">
	.st0{fill:red;}
	line.st1{fill:green;}
  polygon.st1{fill:orange;}
	.st2{fill:blue;}
  .st3{fill:yellow;}
</style>
<g id="worldmap">
	<polygon id="north_x5F_korea" class="st0" points="734.91,180.15 735.13,180.35 735.29,180.83 735.28,181.04 734.69,182.51 
		734.87,182.93 734.74,183.31 734.22,183.61 733.7,184.58 734.13,184.87 734.75,185.12 734.93,185.35 734.96,185.55 735.25,185.46 
		735.5,185.02 735.89,184.89 736.86,185.33 737.16,185.15 738.11,185.24 738.98,184.06 739.2,183.94 740.95,183.8 741.86,183.64 
		742.05,183.27 740.83,182.17 739.87,181.71 739.78,181.24 740,180.99 740.07,179.82 740.19,179.6 741.28,178.81 742.97,178.3 
		743.85,177.48 744.38,176.9 745.5,176.33 745.41,174.38 745.47,174.19 746.25,173.13 747.34,172.11 747.6,172.03 747.83,172.07 
		747.87,172.08 746.62,170.7 745.83,172.04 745.67,172.17 742.06,173.38 742.38,174.69 742.07,175.06 739.9,174.95 739.73,174.89 
		738.77,174.13 737.15,176.09 734.42,177.67 732.68,179.29 733.5,179.84 	"/>
	<g id="markets">
    
    <g id="central-east_europe">
 		  <polygon class="st3" points="495.83,159.16 495.98,158.77 495.14,158.02 495.08,157.92 494.72,156.64 
			  493.89,156.16 493.84,156.05 494.01,155.05 492.84,154.16 491.76,154.02 489.95,153.04 488.26,153.36 488.22,153.39 
			  487.53,153.83 486.61,153.83 486.01,154.54 485.94,154.58 484.14,154.88 483.36,155.33 483.24,155.32 482.14,154.59 
			  480.59,154.59 478.96,154.23 478.07,154.78 477.88,154.6 477.77,154.07 476.61,153.35 476.45,153.01 476.83,151.99 477.29,151.42 
			  477.89,150.81 477.51,149.75 479.7,147.13 480.96,146.75 481.24,145.78 479.99,142.94 479.92,141.4 479.21,139.96 479.26,139.83 
			  480.65,139.19 480.67,137.8 480,136.57 479.97,136.51 479.89,135.26 480.14,135.09 482.29,135.11 485.05,133.8 485.61,131.88 
			  485.67,131.81 487.69,130.72 487.48,129.36 487.64,129.06 488.91,128.56 491.64,127.19 490.83,125.13 490.6,123.31 489.59,122.62 
			  489.57,122.33 490.48,121.36 489.74,118.01 489.77,117.91 491.52,115.83 491.11,115.12 488.51,115.24 485.78,114.62 482.6,115.18 
			  479.41,116.21 479.63,118.39 481.26,119.72 482.02,119.35 482.11,119.41 481.82,121.52 481.39,123.98 481.29,124.06 
			  479.49,124.13 479.4,124.08 477.43,121.43 475.02,122.69 473.78,124.96 473.71,127.24 473.76,127.9 474.19,130.3 474.04,130.63 
			  470.79,131.7 470.36,132.83 470.06,133.19 467.95,133.15 467.85,133.07 467.68,132.32 465.13,131.72 461.96,132.91 458.04,134.51 
			  456.31,135.52 456.89,137.22 456.87,137.32 456.2,138.2 457.14,139.47 457.73,141.13 457.74,141.2 457.54,142.37 458.47,144.29 
			  458.34,144.54 457.58,144.77 457.49,144.76 456.86,144.39 456.26,145 456.22,145.04 454.42,145.68 453.43,146.52 451.62,147.24 
			  452.07,148.25 452.34,149.64 453.63,150.42 455.08,151.83 456.94,152.87 458.3,151.58 458.36,151.54 459.18,151.31 459.26,151.32 
			  461.16,152.28 462.29,152.12 462.36,152.13 463.19,152.58 463.37,152.65 463.46,152.61 463.24,153.05 463.46,153.98 
			  463.44,154.65 463.34,155.36 463.24,155.45 461.86,155.45 462.34,156.14 462.35,156.26 461.71,157.82 461.46,158.29 
			  461.12,158.66 461.04,158.7 458.91,158.78 457.68,159.48 457.61,159.49 455.88,159.29 455.64,159.33 455.49,159.57 455.26,160.84 
			  455.81,162.06 455.75,162.26 455.89,162.45 454.67,162.39 455.21,162.93 455.17,163.62 455.97,164.74 456.71,163.44 
			  456.83,163.39 458.22,163.81 458.29,163.91 458.33,164.86 459.37,166.04 459.34,166.17 458.95,166.36 461.09,168.67 
			  463.32,169.53 464.88,170.68 467.45,171.9 468.21,172.32 468.26,172.35 468.83,173.15 468.96,173.3 469.03,173.3 469.54,173.63 
			  469.82,174.18 469.55,174.95 469.35,177 469.56,178.4 470.9,179.36 470.94,179.44 470.99,180.05 471.48,180.29 472.68,178.82 
			  472.82,177.93 472.88,177.84 473.65,177.44 473.69,176.91 473.91,176.63 475.31,176.41 476.22,175.79 476.3,175.77 477.62,175.83 
			  478.01,175.33 478.08,175.29 478.19,175.27 478.74,175.22 480.34,175.29 482.27,174.49 482.38,174.5 484.09,175.51 486.43,175.22 
			  486.45,173.79 486.53,173.69 488.96,172.79 491.2,173.21 490.39,171.47 490.39,171.38 491.24,169.34 492.2,168.38 492.64,167.77 
			  493.27,164.45 493.38,164.38 494.01,164.62 495.27,163.93 495.21,163.07 494.02,162.52 492.9,163 492.81,162.99 492.04,162.6 
			  492.16,162.32 492.38,162.2 492.82,161.12 493.52,160.1 493.38,159.64 493.43,159.52 493.71,159.38 493.84,159.42 494.04,159.76 
			  495.47,159.85 495.6,159.83 495.99,159.71 		"/>         
    </g>

    <g id="dach">
      <polygon class="st3" points="463.6,154.16 463.37,153.16 463.38,153.07 463.56,152.68 462.36,152.04 461.22,152.19 
			461.15,152.18 459.23,151.22 458.32,151.46 456.99,152.71 456.87,152.73 455.4,151.92 454.94,151.57 453.66,150.32 452.47,149.6 
			452.41,149.52 452.15,148.18 451.79,147.37 451.83,147.25 453.52,146.58 454.5,145.75 456.25,145.12 456.8,144.57 456.92,144.55 
			457.5,144.89 458.7,144.53 457.68,142.44 457.66,142.32 457.85,141.21 457.22,139.39 456.38,138.27 456.38,138.15 457.02,137.31 
			456.42,135.54 455.22,134.44 452.37,133.06 450.89,134.02 448.57,134.62 448.47,134.54 448.49,133.45 446.03,132.66 
			445.95,132.56 445.91,131.28 445.47,131.43 444.36,131.8 444.26,131.81 442.35,131.35 442.47,133.39 443,134.59 442.98,134.71 
			441.48,136.2 441.35,136.18 440.95,135.54 438.8,135.74 438.28,136.5 438.74,137.58 438.75,137.69 438.14,140.72 437.56,141.89 
			437.45,141.96 435.99,141.96 436.42,145.41 436.13,147.72 436.61,148.42 436.63,148.5 436.5,149.9 437.71,150.77 441.15,151.33 
			441.2,151.45 440.02,153.5 439.76,155.4 439.53,155.89 439.06,156.27 438.96,156.29 437.82,155.99 437.91,156.8 437.87,156.89 
			436.09,158.63 436.05,160.15 437.2,159.67 437.33,159.71 438.12,160.99 439.23,161.68 440.46,161.52 441.77,160.54 441.9,160.55 
			442.26,160.96 443.5,160.86 444.01,159.68 444.13,159.62 445.87,159.99 447.01,159.43 447.14,158.58 447.55,158.26 448.72,158.61 
			449,158.04 449.07,157.98 451.34,157.48 451.46,157.53 451.98,158.54 455.6,159.37 457.68,159.61 458.88,158.92 458.94,158.89 
			461.15,158.81 461.65,158.26 462.49,156.19 462.11,155.64 462.16,155.55 463.4,155.54 463.58,154.25 463.42,154.23 		"/>   
    </g>
 		
    
    
    
		<g id="russia_central-asia">
			<polygon class="st1" points="516.45,160.18 514.91,158.81 518.81,157.45 518.79,157.24 517.2,157.6 516.54,157.72 514.75,157.95 
				513.18,158.93 510.78,159.12 508.82,160.2 508.95,161.89 508.97,161.89 510.01,162.5 512.88,162.27 512.53,163.1 514.58,162.52 
							"/>
			<polygon class="st2" points="652.74,21.3 654.64,25.33 658.86,27.48 665.81,29.07 671.05,28.42 671.02,28.07 671.34,28.11 
				671.93,23.28 666.12,17.67 661.26,14.71 655.82,16.05 649.22,20.09 652.67,21.24 			"/>
			<polygon class="st2" points="780.49,56.88 780.34,56.23 776.75,54.36 773.59,54.81 770.89,56.99 776.81,57.61 779.87,57.58 
				779.88,58.1 780.38,57.58 780.66,57.58 780.6,57.34 781.03,56.88 			"/>
			<polygon class="st2" points="683.96,31.58 684.26,31.52 684.26,31.28 684.93,29.24 678.49,26.06 676.64,25.7 674.55,26.34 
				669.91,33.66 			"/>
			<polygon class="st2" points="875.03,68.43 877.63,67.32 877.88,66.63 874.2,65.29 872.05,65.28 868.49,67.42 868.96,68.95 			"/>
			<polygon class="st2" points="795.58,50.36 797.97,48.72 798.4,48.27 792.18,46.96 787.48,46.2 786.84,47.91 791.55,49.91 			"/>
			<polygon class="st2" points="773.17,49.57 782.39,49.71 784.19,46.27 784.23,46.19 784.23,45.84 775.24,43.16 768.65,42.94 
				765.32,43.91 763.95,47.47 768.96,50.75 			"/>
			<polygon class="st2" points="779.66,150.47 783.33,151.53 780.77,145.66 779.76,142.35 779.79,138.95 778.93,135.71 
				778.26,133.39 777.04,133.92 777.99,135.44 777.96,135.58 775.74,137.09 775.52,141.74 777,144.99 776.9,149.31 776.3,151.82 
				776.59,155.23 776.31,158.42 776.79,161.13 778.41,158.74 778.54,158.73 780.41,160.6 780.49,158.27 778.09,155.07 
				778.07,154.97 779.54,150.54 			"/>
			<polygon class="st2" points="538.68,18.87 538.73,18.97 537.39,20.65 540.18,22.05 543.14,21.09 543.47,20.21 543.55,20.13 
				545.72,19.71 549,18.96 548.97,18.68 549.15,18.88 550.13,17.99 546.31,16.67 543.93,17.65 542.62,18.91 542.51,18.89 
				542.05,17.46 538.17,17.55 535.69,18.09 535.75,18.78 			"/>
			<polygon class="st2" points="552.38,62.08 552.31,62.18 549.82,63.17 550.19,65.75 554.67,66.96 554.75,67.04 555.4,69.02 
				563.62,69.61 564.32,69.42 564.78,69.9 564.78,69.29 565.19,69.18 564.78,68.86 564.77,68.68 564.55,68.68 560.39,65.42 
				560.34,65.34 559.85,61.6 559.88,61.51 563.76,56.98 567.45,52.27 575.24,47.5 582.88,45.09 591.77,42.54 593.49,40.88 
				591.71,38.77 586.75,39.47 582.46,41.39 574.14,42.36 565.9,45.64 560.26,48.32 560.92,50.52 560.88,50.64 554.89,54.95 
				557.09,55.52 557.12,55.62 552.3,59.59 			"/>
			<path class="st2" d="M892.23,85.56l-7.2-0.66l0.54,2.82l-1.07-0.66l0.21-2.61L878,80.1l-9.71-5.26l-7.24-2.13l-5.17,0.27
				l-8.16-1.28l-1.28,2.28l1.94,2.71l-2.67,1.21l-4.32-3.87l-4.7,0.51l-4.89-0.88l-4.5,0.13l-3.21,0.89l-2.85-1.17l0.3-3.23
				l-2.24-2.02l-5.15-0.76l-9.94,0.87h-0.05l-6.42-3.42l-2.2-2.85L772.73,59l-3.57,2.21l1.72,4.12l-3.75-0.59l-1.77,1.28l-0.01,0.02
				l-4.84-1.42l-4.21,1.25l-4.18-2.17l-2.42,4.85l-3.64-1.7l-3.02-3.49l1.44-1.91l-1.23-3.25l-4.17-2.61l-4.03,0.03l-5.59-0.9
				l-0.14,3.71l-10.04-0.68l-0.61-2.24l-8.27-0.82l-4.1,0.78l-0.89,1.02l-1.21-2.97l-2.38,0.99l-3.68-1.22l-2.57-0.57l1.41-1.1
				l6.62-2.78l2.86-1.54l0.68-2.89l-2.18-2.07l-5.74-2.56l-7.4-0.07l-2.07,1.15l-0.42-1.59l0.18-0.01l-0.25-0.25l-0.15-0.57
				l-4.85-0.69l3.09-1.18l-4.98-2l-6.08,2.27l-2.45,2.3l-0.66,2.14l-4.52-0.06l-5.45,2.69l-0.01,0.02l-2.04-1.15l-6.78,0.49
				l-0.79,1.37v0.03l-6.62,0.69l-4.77,2.48l-2.98,0.14l-3.11,3.51l1.88,2.38l-4.94,0.58l-6.12-0.2l-4.52,1.02l0.28,5.41l1.78,3.11
				l-3.89-2.24l-5.35,0.27l-4.41,1.94l1.05,3.08l-1.98-0.62l0.96-4.36L609.42,59l-1.69,0.14l0.6,3.48l-4.58,3.2l3.33,3.82
				l-1.97,4.45l0.66,2.71l2.58,0.34l-1.09,2.69l1.42,2.38l-2.08,1.99l-0.61,1.94v0.03l-2.76,1.07l-0.94,1.43L600,88.18l4.68-5.74
				l1.14-3.04l-2.8-2.67l0.55-6.1l-0.82-3.25L601.29,66l2.32-3.68l-0.58-2.89l-6.88-1.3l-2.03,1.02l-1.61,4.28l-4.72,4.27l0.1,1.65
				l1.32,3.41l-0.92,2.35l3.13,0.45l0.06,0.83l2.46,2.23l-1.41,1.91l-8.94-4.9l-3.52-1.39l-7.51-1.36l-1.55,1.75l2.62,2.54
				l-2.51,2.54l-2.8-2.57L564.56,79l-4.78,0.13l-1.73,1.47l-2.56-0.37l2.48-2.65l-2.45-0.28l-8.79,3.74l-5.36,2.09l-0.61,2.69
				l-3.55,0.86l-0.02,0.01l-1.78-1.27h-0.02l-0.02-2.07l3.32-0.56l-1.67-2.82l-7.72-1.53l2.1,3.06l-1.23,2.57l2.09,2.52L531,89.07
				l-2.2-1.35l-2.41-0.25l-6.1,4.24l1.67,2.95l-1.73,0.83l-6.13-2.56l-1.89,1.81l1.57,1.78l0.02,0.01l-0.25,1.53l-1.7-0.9L508.8,96
				l-0.16-4l-0.17-2.02l-3.77-2.82l1.24-0.39l11.26,3.19l4.24-1.17l2.88-2.28l-0.18-3.04l-2.04-2.15l-9.54-4.94l-6.77-1.02
				l-4.25-2.77l-2.68,1.61l-4.16,1.74l-2.26,0.46l-0.41,3.38l3.76,2.8l-2.26,3.14l2.93,4.73v0.06l-1.69,3.52l2.25,2.96l0.01,0.06
				l-1.04,2.64l3.69,2.68l-0.85,1.78l-2.27,2.19l-5.6,5.08l2.59,1.76l-2.74,1.98l0.4,0.69l-1.75,2.08l0.75,3.35l0.02,0.02
				l-1.21,1.29l0.19,0.13l1.16,0.76l0.23,1.75l0.66,1.72l-0.06,0.13l-2.35,1.19l-1.74,0.68l0.24,1.59l-1.98,1.08l-0.55,1.9v0.03
				l-2.54,1.24l-2.16-0.02l-0.45,0.68l0.44,1.41l0.49,1.19v1.06l-1.74,0.61l0.38,0.59l0.18,0.25l0.37,1.04l0.01,1.34l0.14,0.44
				l1.07,2.42l-0.17,0.67l0.01,0.03l-1.23,0.38l-2.42,2.89l0.48,1.09l-0.17-0.06l-0.84,1.04l-0.56,1.5l1.46,0.88l0.24,1.14
				l0.24-0.15l1.03-0.67l1.56,0.35h1.47l1.24,0.84l0.97-0.54l1.88-0.31l0.59-0.73h1.07l0.56-0.48l1.55-0.32l1.86,1l0.91,0.07
				l1.01,0.77l-0.19,1.09l0.96,0.53l0.37,1.33l0.8,0.73l-0.2,0.5l0.23,0.16l-0.16,0.06l-1.23-0.05l-0.02,0.01l-0.08-0.14l-0.31-0.4
				l-0.86,0.44l0.05,0.16l0.16,0.42l0.02,0.02l-0.68,1l-0.37,0.94l-0.99,0.54l1.63,0.85l1.15-0.53l1.24,0.59l2.11-2.52l0.81-1.58
				l1.99-0.33l0.16,1.09l3.98,0.8l0.43,0.42l-2.11,0.91l-0.7,0.93l2.82,0.94l-0.54,1.43l1.72,0.77l3.36-1.79l2.95-0.6l0.29-0.66
				l2.47,2.08l2.85,1.16l2.88,2.34l0.4,0.37l0.77,0.8l1.37,0.32l1.38,1.04l0.6,1.91l-0.47,1.58l2.86-0.18h0.06l2.44,1.48l3.63-0.49
				l0.55-0.44l1.78,0.81l1.27,0.16l0.29-0.05l0.51-0.51l-1.19-1.55l0.5-0.22l0.4,0.04l1.73,1.83l1.35,0.25l0.51-0.88l1.65-1.32
				l-2.83-3.63l0.24-2.09l-2.21-2.83l2.28-2.97l2.47-0.53l0.96-1.57l0.31-0.36l2.14-0.61l2.75-1.35l2.15,0.76l2.3-0.14l0.39,1.71
				l-0.4,2.71l-2.03-0.41l-2.32,0.55l-0.1,2.18l-2.48-0.3l0.12,1.44l1.41,0.78l1.15,2.79l2.89,1.01l0.4,0.83l0.02,0.01l-0.61,1.26
				l0.06,0.32l0.18,0.75l0.32,0.79l0.98-0.13l0.12-0.96l0.11-0.12l0.5-0.18l1.14-0.26l0.61,1.42l1.57,1.54l-1.75,0.77l-2.56-0.79
				l-0.67,3.03l1.63,0.17l-0.62,1.92l1.99,1.01l-0.34,2.95l0.53,2.31l2.55-0.67l1.67-1.59l1.67,0.08l1.07-0.54l1.6,0.23l2.88,1.5
				l1.86,0.28l0.05,0.02l2.88,2.57l1.73,0.1l0.21,2.34l2.76,1.17l2.1-0.42l0.48-1.26l-0.01-0.02l1.96-0.44l1.51-0.93l0.49-2.25
				v-0.01l2.08-0.55l0.33-0.86l1.02,0.64l0.45,0.05l0.62,0.05l1.07,0.02l1.57,0.51l0.48,0.18l0.6,0.27l1.78-0.91l0.93,0.63
				l0.87-1.42l1.47,0.05l0.51-0.55l0.26-1.15l0.9-0.84l1.02,0.5l-0.28,0.95l0.8,0.15l-0.23,2.32l1.22,1.15l1.02-0.69l1.15-0.31
				l1.46-1.24l1.7,0.21h2.88l-0.15-0.67l-0.28-1.12l0.08-1.39l-1.77-0.77l-0.65,0.23l-0.5-2.03l0.06-0.37l0.64-0.61l-0.33-0.65
				l2.08-1.22l1.67-0.61l2.83,0.44l0.97-1.94l3.19-0.35l0.85-1.19l4.03-1.66l0.26-0.55l0.11-0.83l-0.13-1.1l1.77-0.82l-2.24-5.29
				l4.76-1.21l1.33-0.73l1.77-5.5l4.89,1.03l1.56-1.6l0.12-3.1l1.96-0.28l1.72-1.95l0.33-0.19l0.76-0.2l2.71-0.59l4.72-2.78
				l3.71-1.54l2.2,1l2.51,0.03l1.69,1.55l2.54,0.12l3.76,0.86l2.67-2.5l-1.03-1.97l2.38-3.16l2.73,1.32l2.2,0.38l2.79,0.81
				l0.48,2.46l3.76,1.45l2.42-0.62l3.06-0.42l2.45,0.38l2.34,1.48l1.66,1.79l2.39-0.04l3.27,0.51l2.27-0.79l3.38-0.57l3.56-2.26
				l1.32,0.28l1.4,1.17l2.97-0.3l3.12,1.27l3.76-2.2l-0.04-1.5l2.16-3.37l1.51-1.18l-0.04-2.11l-1.19-0.7l1.68-1.41l3.02-0.6
				l3.26-0.11l3.65,0.95l2.19,1.23l1.55,3.38l0.91,1.38l0.85,1.96l0.98,3.39l4.4,1.02l2.9,2.23l1.06,3.13h4.05l2.21-1.28l3.6-0.83
				l-1.04,2.3l-1.06,1.32l-0.81,3.32l-1.62,2.94l-2.95-0.53l-2.4,1.22l0.69,2.81l-0.33,3.33l-1.31,0.08l0.02,1.78l1,0.18l0.06-0.16
				l0.11-0.33l3.15-2.08l1.5,1.41l1.78-0.06l3.41-1.83l1.62-1.81l6.82-7.25l0.84-2.17l3.79-4.66l1.14-5.26l0.17-3.8l1.99-3.4
				l-0.09-3.04l-3.75-3.9l-2.96-0.24l-1.57,1.69l-2.17-0.66l-1.27-2.22l-3.49-0.39l9.17-7.93l8.05-7.04l8.05-1.09l7.8,0.64
				l3.07-1.82l3.6,0.52l-0.19,2.74l4.2-0.41l6.03-1.04l-2.21-2.43l6.02-6.1l6.21-1.25l2.09,4.77l6.65-4.38l1.47-3.12h0.01l2.49-0.27
				l-1.82,4.95l-4.49,3.02l-4.32,3.85l-4.41,4.55l-4,0.84l-0.12,1.76l-2.11,2.15l-1.23,5.06l1.41,7.68l1.1,4.97l1.05,2.59l3.94-3.38
				l0.74-3.34l3.74-0.83l0.84-3.89l-0.01-0.02l4.59-1.86l-1.14-1.6h-0.03l0.98-2.71l2.38-0.14l0.36-5.63l-2.88-0.81l-0.09-1.17
				l3.01-3.58l0.75-2.25l3.23,0.49l2.31-1.53l1.1,1.36l6.56-2.96h0.02l3.67,2.68l0.98-1.86l3.65-2.33l3.73-2.64l2.3-0.47l6.82-2.86
				l0.06-0.02l4.78,0.87l0.79-1.25l-0.32-1.8l-1.19-1.11l-1.51-3.28l-1.75-1.65l2.6,0.24l3.35-1.87l1.55-1.9l-1.06-1.83l2.24-0.73
				l-0.43,1.21l1.56,1.65l2.92-0.55l2.32,0.59l0.04,0.04l0.55,1.76l3.35,1.18l2,1.46l2.52,0.13l1.17-0.97l0.06-3.86l3.95-0.41
				l2.8-2.03L892.23,85.56z M512.88,162.27l-2.87,0.22l-1.04-0.61h-0.02l-0.13-1.69l1.96-1.08l2.4-0.19l1.57-0.99l1.78-0.23
				l0.66-0.12l1.59-0.36l0.02,0.21l-3.9,1.36l1.54,1.37l-1.87,2.34l-2.06,0.57L512.88,162.27z"/>
			<polygon class="st2" points="658.06,166.14 659.53,166.46 659.61,166.53 660.72,169.28 662.21,171.1 664.99,171.04 
				670.21,171.71 673.53,171.3 675.94,171.74 679.65,173.58 682.63,173.58 682.71,173.61 683.79,174.52 686.73,172.9 690.71,171.86 
				694.53,171.74 697.48,170.66 699.22,169.07 701.06,167.99 700.62,166.9 699.9,165.84 699.9,165.72 701.09,163.91 701.2,163.86 
				702.5,164.12 705.1,164.75 707.6,163.1 711.43,161.89 713.23,159.86 714.97,158.96 718.6,158.52 720.66,158.88 720.95,157.65 
				718.66,155.4 716.62,154.37 714.73,155.53 714.64,155.54 712.22,155.06 710.91,155.43 710.8,155.37 710.25,154.25 710.25,154.14 
				711.99,151 713.25,148.47 710.24,148.74 710.16,148.72 708.89,147.66 707.35,147.29 703.74,149.57 703.69,149.59 700.36,150.14 
				698.17,150.91 698.1,150.92 694.91,150.4 692.7,150.43 692.6,150.39 691.09,148.75 688.66,147.2 686.14,146.76 682.95,147.2 
				680.65,147.79 680.58,147.78 677.15,146.45 677.08,146.37 676.62,143.95 673.63,143.08 671.46,142.72 668.54,141.3 665.9,144.81 
				666.88,146.67 666.86,146.79 664.58,148.93 664.48,148.96 660.91,148.16 658.5,148.04 658.43,148.01 656.78,146.51 
				654.23,146.47 654.17,146.46 651.98,145.44 648.12,147.01 643.41,149.78 641.05,150.3 640.89,150.36 640.71,150.61 
				641.33,152.77 643.45,154.49 646.98,155.67 647.04,155.72 648.69,158.16 648.71,158.25 647.76,161.87 648.68,163.26 
				651.68,163.8 655.03,164.21 			"/>
			<path class="st2" d="M541.35,180.55l0.2,0.25l0.59,0.71l-0.13,0.12l-0.19,0.04l-0.22,0.15v0.28l0.24,0.31l0.14,0.18l-0.12,0.24
				c0,0-0.28,0.05-0.33,0.06c-0.05,0.01-0.28,0.12-0.28,0.12l0.06,0.26l0.16,0.22l0.31,0.16l0.21,0.26l0.25,0.2l0.39,0.39l0.12,0.27
				h0.21l0.25-0.18l0.18,0.02l0.28-0.01l-0.11-0.29l-0.1-0.54l-0.04-1.16l0.03-0.05l0.86-0.63l0.45-1.08l0.41-2.15l0.09-0.08
				l2.05-0.24l-0.86-0.89l-1.1-0.14l-0.08-0.05l-1.25-2.06l-1.33-1.59l-1.54,1.25l-0.38,0.67l-0.12,0.06l-0.94-0.17l-0.13-0.07
				l-1.68-1.78l-0.74-0.11l-0.71,0.46l1.19,1.56l-0.01,0.13l-0.19,0.2l-0.09,0.03l-1.21-0.16l-1.93-0.88l-0.37,0.3l-0.46,0.25
				l-2.86,0.38l-0.49-0.03l-0.3-0.18v0.35l0.15,0.21l0.38,0.35l-0.1,0.21l0.16,0.14l0.03,0.17v0.21l-0.08,0.18l-0.13,0.22
				l-0.14,0.11l-0.13,0.11l0.02,0.1l0.15,0.14v0.18v0.16l0.17,0.2v0.11l0.08,0.23l-0.15,0.08l0.05,0.09l0.2,0.13l0.36,0.13h0.52
				l0.35-0.07l0.2,0.07l0.24,0.09l0.2,0.15l0.17,0.12l0.07,0.23l0.16,0.16l0.19,0.14l0.12,0.18l0.33-0.1l0.09,0.02l0.2-0.09
				l0.14-0.09l0.13,0.11l0.16,0.24v0.16l0.09,0.11h0.13l0.14,0.06l0.05,0.13l0.2,0.05l0.16,0.13l0.21-0.25l0.15-0.01l0.17-0.13
				l0.3,0.13l0.04,0.27v0.19l-0.05,0.2l0.22,0.07l0.19,0.18l0.14,0.09l-0.08,0.21l0.08,0.25l0.2,0.29v0.2l0.11,0.21l0.06,0.19h0.21
				l0.12-0.15l0.29,0.01l0.21,0.02l0.19,0.04l0.27-0.28l0.09-0.15l0.11-0.07l0.09-0.14l0.11-0.19l0.14-0.06l0.13-0.02l0.11,0.04
				l0.15-0.09l0.09-0.08v-0.16l0.16-0.13l0.16-0.06l0.13-0.06l0.15-0.15l0.09-0.16l0.09-0.12l0.14-0.05l0.24-0.09l0.2-0.11l0.2-0.21
				l0.16-0.05l0.15-0.14l0.12-0.04h0.18l0.15-0.11L541.35,180.55z"/>
		</g>
		<g id="middle-east_turkey">
			<line class="st1" x1="574.5" y1="192.1" x2="574.49" y2="192.15"/>
			<polygon class="st2" points="489.15,177.1 490.17,176.23 490.24,176.21 493.19,176.04 493.68,175.23 491.52,174.27 
				491.45,174.19 491.17,173.08 488.96,172.68 486.31,173.66 487.51,174.44 487.54,174.57 486.83,176.27 486.78,176.33 
				486.22,176.65 486.18,177.3 487,178.75 			"/>
			<path class="st2" d="M611.89,191.01l-0.07-0.07l-0.72-2.13l-1.42-1.04l0.31-0.32h-0.67l-0.26-0.34l-0.27-0.5h-2.57l-1.78-0.22
				l-1.51,1.26l-0.05,0.03l-1.12,0.29l-0.42,0.29l-0.58,0.15l-0.75-0.71l-0.03-0.1l0.23-2.39l-0.65-0.12l-0.07-0.11l0.24-0.78
				l-1.43-0.7l-1.12,1.05l-0.23,1.1l-0.02,0.06l-0.34,0.37l-0.09,0.04l-1.45-0.06l-0.75,1.22l-0.13,0.03l-0.75-0.49l-1.77,0.91h-0.1
				l-0.71-0.32l-1.88-0.61l-1.37-0.02l-0.7-0.07l-0.06-0.02l-1.23-0.81l-0.38,1.01l-0.07,0.07l-2.06,0.54l-0.49,2.26l-0.05,0.08
				l-1.39,0.84l-1.94,0.43l-0.5,1.23l-0.08,0.07l-1.75,0.35l-0.08-0.01l-2.14-0.91l-0.33-0.3l-0.2-2.25l-1.85-0.1l-0.07-0.03
				l-2.84-2.52l-1.95-0.31l-2.82-1.48l-1.81-0.28l-1.03,0.52l-0.07,0.02l-1.7-0.09l-1.73,1.62l-0.05,0.04l-2.05,0.52l0.04,0.32
				l-0.28-0.1l-0.16,0.43l-0.09,0.07l-3.77,0.73l-3.58-0.48l-1.75-1.45l-2.3-0.59l-0.08-0.08l-0.54-1.46l-0.28,0.01l-0.18-0.02
				l-0.25,0.18h-0.21l-0.12-0.27l-0.39-0.39l-0.25-0.2l-0.21-0.26l-0.31-0.16l-0.16-0.22l-0.06-0.26c0,0,0.24-0.11,0.28-0.12
				c0.05-0.01,0.33-0.06,0.33-0.06l0.12-0.24l-0.14-0.18l-0.24-0.31v-0.28l0.22-0.15l0.19-0.04l0.13-0.12l-0.59-0.71l-0.2-0.25
				l-0.16-0.08l-0.15,0.11h-0.18l-0.12,0.04l-0.15,0.14l-0.16,0.05l-0.2,0.21l-0.2,0.11l-0.24,0.09l-0.14,0.05l-0.09,0.12
				l-0.09,0.16l-0.15,0.15l-0.13,0.06l-0.16,0.06l-0.16,0.13v0.16l-0.09,0.08l-0.15,0.09l-0.11-0.04l-0.13,0.02l-0.14,0.06
				l-0.11,0.19l-0.09,0.14l-0.11,0.07l-0.09,0.15l-0.27,0.28l-0.19-0.04l-0.21-0.02l-0.29-0.01l-0.12,0.15h-0.21l-0.06-0.19
				l-0.11-0.21v-0.2l-0.2-0.29l-0.08-0.25l0.08-0.21l-0.14-0.09l-0.19-0.18l-0.22-0.07l0.05-0.2v-0.19l-0.04-0.27l-0.3-0.13
				l-0.17,0.13l-0.15,0.01l-0.21,0.25l-0.16-0.13l-0.2-0.05l-0.05-0.13l-0.14-0.06h-0.13l-0.09-0.11v-0.16l-0.16-0.24l-0.13-0.11
				l-0.14,0.09l-0.2,0.09l-0.09-0.02l-0.33,0.1l-0.12-0.18l-0.19-0.14l-0.16-0.16l-0.07-0.23l-0.17-0.12l-0.2-0.15l-0.24-0.09
				l-0.2-0.07l-0.35,0.07h-0.52l-0.36-0.13l-0.2-0.13l-0.05-0.09l0.15-0.08l-0.08-0.23v-0.11l-0.17-0.2v-0.16v-0.18l-0.15-0.14
				l-0.02-0.1l0.13-0.11l0.14-0.11l0.13-0.22l0.08-0.18v-0.21l-0.03-0.17l-0.16-0.14l0.1-0.21l-0.38-0.35l-0.15-0.21v-0.35
				l-1.97-1.2l-2.69,0.14l-2.92,1.54l-0.07,0.01l-2.16-0.25l-2.8,0.45h-0.06l-3.63-1.17l-0.12-0.03l-4.23-2.04l-4.21,0.08
				l-2.89,0.84l-2.97,1.92l-0.08,0.02l-4.74-0.4l-1.02,2.2l-0.09,0.06l-3.78,0.11l-2.83,2.87l1.54,1.36l0.02,0.13l-1.18,2.19
				l1.88,1.68l1.47,2.84l2.75-0.05l2.43,1.53l1.78-0.35l0.54-1.12l0.1-0.06l2.54,0.09l0.07,0.02l2,1.52l3.84-0.32l1.67-1.6
				l0.11-0.03l2.02,0.64l1.4-0.22l-0.88,1l0.71,1l0.14,0.43l-0.53,1.01l0.2,1.84l-0.94,1.87l-0.35,0.57l-0.91,2.33h0.94l0.2-0.43
				l0.1-0.06h0.02l0.01,0.45l0.39-0.37l0.13,0.08l0.03,0.83l-0.03,0.08l-0.03,0.04l-0.04,0.04l-0.32,0.58l-0.25,0.51l-0.07,0.07
				l0.01,1.7l-0.01,0.06l-0.37,0.83l0.04,1.13l-1.24,4.36l0.02,0.09l0.02,0.02l-0.01,0.51l-0.24,0.86l-0.11,0.92l-0.41,1.55
				l1.22-0.01l0.1,0.05l2.72,3.91l1,2.05l0.69,0.56l0.04,0.04l0.67,1.32l0.01,0.08l-0.13,0.56l0.84,1.55l1.4,0.58l1.16,1.04
				l1.38,2.78l0.02,0.06l-0.1,1.61l0.28,1.79l1.68,2.52l1.12,0.42l1.72,1.77l0.73,2.15l1.32,2.15l1.24,0.89l0.05,0.08l0.19,0.98
				l0.71,0.72l0.04,0.04l0.21,0.69l0.13,0.55l0.08,0.9l-0.02,0.08l-0.28,0.46l0.23,1.05l-0.07,0.12l-0.42,0.11l0.76,1.15l0.5,1.87
				l0.36,0.64l0.03,0.11l-0.07,1.35l0.67,1.53l1.78,0.13l0.72-0.33l0.06-0.02l1.27,0.06l0.37-0.61l0.07-0.05l0.62-0.17l0.52-0.64
				l0.07-0.04l0.57-0.13l2.15-0.15l1.56-0.49l1.41-1.02l0.09-0.02l0.68,0.14l1.12-0.14l2.3-1.82l3.95-1.18l2.5-1.08l0.08-0.94
				l0.43-1.02l0.07-0.06l1.45-0.55l0.11-0.06l0.4-0.07l0.94-0.12l1.63-0.84l0.08-0.01l1.34,0.23l1.26-0.74l-0.01-0.99l0.05-0.09
				l0.86-0.57l0.07-0.02l1.53,0.02l0.59-0.58l0.24-1.2l0.06-0.08l1.48-0.92l1.17,0.01l0.27-0.35l-0.31-1.68v-0.06l0.38-1.26
				l0.48-0.61l0.1-0.04l1.08,0.13l0.92-1.78l1.07-0.85l1.33-2.33v-0.64l-0.91-0.34l-1.81-2.4l-1.52-0.5l-1.74-0.31l-0.06-0.02
				l-1.39-0.94l-0.99-1.59l-0.18-0.55l-0.27-1.65l0.32-0.6l0.15-0.7l-0.62-0.29l-0.39,0.49l-1.62,1.68l-1.88,1.72l-1.66,1.73
				l-0.09,0.04l-3.56-0.14l-1.68,0.37l-0.25-0.04l-0.39-0.03l-0.08-0.48l-0.45-0.97l0.54-1.56l-0.05-1.59l-0.79-0.88l-0.73,0.31
				l-0.69,1.43l0.13,1.44H548l-0.06-0.1l-0.36-0.93l-0.72-0.74l-0.3-0.85v-0.07l0.23-0.84l-0.15-1.14l-1.65-1.08l-0.06-0.05
				l-0.44-0.96l-1.19-0.6l-0.05-0.06l-0.87-2.08l-0.23-0.62l-0.63-1.6v-0.08l0.21-0.58l-0.34-0.78l0.56-0.32l0.85-0.08l0.73-0.83
				l0.12-0.02l1.51,0.86l1.24-0.41l0.12,0.05l1.8,3.55l1.68,2.57l2.47,0.81l2.48,2.03l3.09,0.9l2.47-1.29l1.94-0.5h0.07l1.07,0.43
				l0.07,0.07l1.06,3.25l2.83,0.34l2.77,0.62l4.52,0.77l0.64-0.04l3.07-0.33l4.08-0.05l4.52-0.49l0.1,0.04l1.83,1.92l0.79,1.96
				l1.88,0.69l1.64-1.74l0.09-0.03l5.51,0.01l-0.52-2.36l-1.38-1.32l-0.04-0.07l-0.28-2.03l-1.53-1.12l-0.01-0.13l2.59-2.66
				l0.09-0.04l2.85,0.21l2.66-2.91l1.55-2.73l2.44-2.77l-0.04-1.9l0.05-0.1l2.12-1.59l-2-1.35l-0.05-0.04l-0.87-1.89l-0.85-2.36
				l0.02-0.11l1.1-1.09l0.1-0.03l3.72,0.67l2.82-0.42l2.49-2.45L611.89,191.01z"/>
		</g>
		<g id="asean">
			<polygon class="st2" points="795.89,300.83 797.23,300.83 799.91,299.62 800.28,298.97 800.37,298.91 801.63,298.72 
				802.49,297.15 802.54,295.73 802.01,295.29 800.43,295.33 800.69,296.76 800.65,296.87 799.33,297.71 798.66,298.53 
				798.58,298.57 797.35,298.73 797.24,298.66 797.12,297.98 797.09,297.85 796.6,297.4 796.21,298.62 796.12,298.7 794.82,298.88 
				792.57,298.51 792.36,299.38 793.84,300.1 			"/>
			<polygon class="st2" points="809.29,298.83 808.82,298.48 808.81,298.3 808.58,298.3 807.86,297.77 808.01,298.3 807.62,298.3 
				808.16,298.84 808.42,299.76 809.56,301.4 810.64,302.36 811.39,302.09 811.76,301.33 810.55,300.46 			"/>
			<polygon class="st2" points="802.57,294.44 803.16,295.37 803.69,296.98 804.29,296.46 804.61,296.46 804.24,294.89 
				803.28,294.08 802.27,293.02 801.24,292.42 800.36,291.86 798.98,291.15 798.21,291.83 800.08,292.59 			"/>
			<polygon class="st2" points="732.04,269.53 735.05,271.01 735.8,269.78 735.03,267.99 735.05,267.88 736.01,266.82 
				736.12,266.84 737.02,269.35 737.92,266.91 737.77,265.48 737.52,263.82 737.13,261.61 735.01,260.36 735.15,262.25 
				735.06,262.36 733.4,262.42 733,263.51 732.93,263.58 731.21,264.2 731.09,264.17 730.25,263.07 728.85,264.04 727.25,264.75 
				726.25,266.92 726.71,267.72 728.56,266.32 728.64,266.29 729.78,266.38 730.5,265.44 730.63,265.42 731.99,266.44 
				732.02,266.57 731.31,267.67 			"/>
			<polygon class="st2" points="723.57,253 724.69,254.33 725.25,252.46 725.81,252.46 724.48,251.07 722.21,250.97 			"/>
			<polygon class="st2" points="726.14,254.92 726.39,255.73 726.54,256.17 726.55,256.22 726.38,257.55 726.46,258.78 
				728.12,257.98 729.31,256.89 729.36,255.76 727.74,255.77 			"/>
			<polygon class="st2" points="728.84,257.54 728.58,259.06 728.53,259.17 727.93,259.85 727.39,260.54 728.99,262.37 
				729.82,261.57 730.65,259.93 731.42,259.23 731.68,258.97 731.54,258.83 731.76,256.52 729.95,258.92 730.32,257.38 			"/>
			<polygon class="st2" points="717.79,261.58 719.06,259.9 720.78,258.43 720.31,256.2 718.93,258.83 717.47,260.54 715.6,262.18 
				715.39,262.48 715.88,262.96 			"/>
			<polygon class="st2" points="733.67,255.32 733.69,256.07 733.59,256.16 732.21,255.97 732.62,257.6 733.28,257.72 
				733.37,257.82 733.48,259.56 734.78,258.93 734.17,257.38 734.12,256.68 734.22,256.61 736.06,257.25 735.35,254.46 
				735.35,254.34 734.62,253.33 732.08,253.27 733.64,255.25 			"/>
			<polygon class="st2" points="721.31,246.14 721.68,247.22 722.97,248.76 723.27,247.92 723.39,247.89 723.87,248.26 
				723.87,248.4 723.21,248.95 723.07,250.06 724.36,250.65 726.56,250.29 726.66,250.32 728.24,251.83 728.81,250.99 
				728.93,250.99 729.76,252.19 731.77,253.48 732.07,252.22 731.3,251.64 731.26,251.53 731.49,250.2 728.31,248.76 727.28,249.05 
				727.21,249.06 725.97,248.8 725.89,248.72 725.35,246.79 725.73,244.8 725.78,244.72 727.2,243.9 727.87,241.72 727.03,239.92 
				727.03,239.83 727.42,238.8 727.14,238.08 726.41,238.71 726.28,238.73 724.9,238.06 724.78,238.3 724.78,238.05 723.3,238.05 
				722.47,240.48 722.22,244.25 722.13,244.29 721.19,243.51 721.23,244.3 			"/>
			<polygon class="st2" points="662.68,243.52 664.2,242.34 664.33,242.36 665.34,244.38 665.79,247.59 666.6,250.64 667.59,251.91 
				667.61,251.99 667.41,254.71 668.22,256.15 668.23,256.25 667.49,258.13 667.73,260.05 667.01,262.4 666.73,263.97 
				667.27,265.53 667.67,264.1 667.78,264.07 668.85,265.12 670.13,266.47 670.16,266.52 670.6,267.78 671.34,268.5 671.66,268.95 
				672.09,269.77 672.1,269.84 671.83,271.64 672.74,273.01 673.09,275.09 674.53,276.76 674.84,278.05 677.79,280.03 
				680.19,281.91 682.03,281.74 682.08,280.83 681.09,278.6 680.26,277.95 680.21,277.87 680.03,276.42 679.81,275.68 679.8,275.61 
				680.07,274.47 679.93,272.76 678.85,271.04 677.39,269.53 677.07,269.41 676.62,269.12 675.51,268 674.03,267.72 673.96,267.68 
				672.65,266.35 672.61,266.3 672.15,264.08 671.13,261.78 669.58,261.71 669.49,261.62 669.33,260 669.33,259.94 671.5,253.94 
				671.69,251.32 671.79,251.23 673.71,251.22 673.79,251.32 673.44,253.22 675.61,253.16 677.28,254.02 677.89,254.42 
				679.13,256.95 680.06,258.15 680.11,258.28 680.29,258.28 682.11,258.6 682.63,258.92 684.01,259.98 684.04,260.1 683.37,261.73 
				684.32,263.42 687.51,261.01 689.52,258.93 692.41,257.28 694.5,255.62 694.84,251.11 693.69,246.37 692.15,244.29 
				689.85,242.67 685.67,236.69 685.65,236.58 686.15,234.93 686.17,234.88 688.19,232.48 691.11,230.5 691.54,230.07 
				690.96,229.91 689.16,229.44 689.1,229.41 687.98,228.4 687.95,228.29 688.34,226.82 686.02,226.34 684.78,225.32 682.63,226.76 
				680.25,227.06 678.2,227.05 677.19,227.53 676.62,227.75 675.48,228.09 675.85,230.97 675.76,231.07 674.7,231.02 674.6,230.94 
				674.38,230.33 674.31,229.34 672.48,230.1 672.38,230.1 671.37,229.65 669.62,228.72 669.58,228.6 670.28,226.48 668.73,225.98 
				668.65,225.91 668.07,223.51 665.55,223.93 665.45,223.84 665.73,220.92 665.76,220.85 668.1,218.65 668.2,216.4 668.12,214.31 
				667.02,213.67 666.17,212.05 664.63,212.26 664.8,213.23 664.75,213.35 663.94,213.81 664.13,215.32 664.03,215.4 662.4,214.96 
				659.12,216.85 659.2,218.32 659.18,218.43 657.82,220.63 657.66,221.99 656.63,224 656.51,224.06 654.61,223.47 654.53,226.18 
				654.52,226.25 653.94,227.17 654.19,228.19 654.13,228.31 652.97,228.89 652.92,230.61 652.82,230.67 652.04,230.31 
				652.22,232.52 654.01,234.67 655.35,234.98 655.42,235.09 655.15,235.9 657.14,238.96 657.65,241.29 656.78,244.52 
				658.41,245.14 659.8,245.37 			"/>
			<polygon class="st2" points="713.28,267.52 712.01,269.5 710.21,271.14 709.55,271.59 707.15,273.38 706.73,273.84 
				705.73,275.14 703.97,277.08 703.9,277.12 700.9,277.67 699.85,278.14 699.36,280.19 699.28,280.27 697.5,280.7 697.42,280.7 
				696.12,280.09 695.27,280.22 694.06,281.57 693.78,283.96 694.12,286.12 695.33,288.29 696.52,288.94 696.58,289.03 
				696.96,292.35 699.1,292.64 700.62,292.52 700.72,292.56 701.6,293.73 704.55,292.85 704.64,292.86 705.84,293.62 707.56,293.76 
				707.65,293.82 708.62,295.32 711.37,294.23 711.5,294.28 711.86,295.17 712.88,291.15 712.93,288.77 712.98,288.68 
				715.34,286.99 715.23,284.78 715.23,284.71 716.03,283.08 716.12,283.02 719.12,282.73 716.31,280.4 716.27,280.25 
				716.66,279.19 714.87,276.88 714.86,276.76 715.96,275.01 716.37,274.56 718.1,273.75 717.7,272.64 717.77,272.54 719.32,272.42 
				719.51,271.35 717.4,270.59 715.83,269.91 715.76,269.83 715.66,268.81 714.35,267.51 			"/>
			<polygon class="st2" points="838.65,324.56 839.16,324.42 839.24,324.43 839.94,324.76 839.54,322.72 839.22,322.76 
				839.39,322.51 838.22,321.74 838.27,323.81 			"/>
			<polygon class="st2" points="840.46,326.93 841.41,326.57 840.23,325.45 839.71,325.92 			"/>
			<polygon class="st2" points="867.67,328.68 867.44,328.89 867.07,329.14 866.98,329.15 865.88,328.85 864.87,329.78 
				865.13,330.97 866.55,331.3 868.15,330.94 868.59,329.52 867.88,328.91 			"/>
			<polygon class="st2" points="872.37,325.1 870.28,326.24 869.42,326.42 868.16,326.96 868.52,328 870.16,327.45 870.68,327.26 
				870.66,327.23 871.97,326.7 			"/>
			<polygon class="st2" points="839.57,341.35 838.21,340.08 836.11,338.43 835.35,337.73 834.24,336.83 832.84,335.95 
				831.68,335.91 832.05,336.88 833.74,338.75 835.35,340.13 837.15,341.31 838.54,342.02 			"/>
			<polygon class="st2" points="854.94,394.58 854.82,394.54 854.31,393.45 854.2,393.27 853.71,392.14 851.88,393.56 
				851.52,395.18 851.47,395.25 850.56,395.98 849.46,398.19 848,399.76 845.84,401.37 844.1,402.51 842.41,403.12 839.22,406.22 
				837.89,408.52 838.33,409.72 841,409.92 841.07,409.93 842.7,410.98 845.03,411.04 848.28,408.73 849.71,405.55 850.36,403.61 
				850.41,403.54 852.47,402.42 854.49,402.38 853.59,400.94 853.61,400.81 854.82,399.65 856.45,397.43 857.39,396.04 
				857.39,394.75 856.63,393.43 			"/>
			<polygon class="st2" points="865.36,384.72 865.27,384.74 863.62,384.5 861.72,383.62 861.66,383.53 861.3,381.42 860.07,380.56 
				860.02,382.43 858.31,379.56 857.59,377.01 855.64,376.29 854.26,374.7 853.24,374.94 854.34,377.03 856.31,379.56 
				857.43,380.67 857.47,380.77 857.42,381.2 858.41,383.08 858.43,383.13 858.54,384.99 858.14,387.16 858.08,387.24 
				856.31,388.24 856.23,389.36 858.9,390.53 858.96,390.58 859.71,392.08 859.71,392.19 858.28,394.61 859.32,395.04 
				859.38,395.09 859.81,395.87 861.79,394.64 863.98,391.02 864.37,390.44 864.14,389.21 864.16,389.13 864.73,388.37 
				864.83,388.32 866.69,388.37 867.48,386.6 868.08,384 866.75,383.65 			"/>
			<polygon class="st2" points="738.48,188.18 736.74,188.63 737.86,191.64 737.4,193.77 737.69,195.37 740,195.12 741.97,193.97 
				744.29,193.39 745.26,191.81 745.23,188.48 744.59,186.56 742.4,183.08 742.04,183.81 741.96,183.87 740.98,184.05 
				739.19,184.19 738.26,185.45 738.16,185.49 737.37,185.42 736.7,185.42 738.52,188.06 			"/>
			<polygon class="st2" points="825.43,308.43 824.9,307.82 823.99,305.77 823.03,305.77 823.59,307.36 824.81,308.8 825.43,309.51 
							"/>
			<polygon class="st2" points="820.79,305.03 818.14,303.55 817.73,304.12 818.11,304.45 819.48,305.36 820.69,306.02 
				821.14,305.5 			"/>
			<polygon class="st2" points="814.04,302.16 813.59,302.7 813.88,302.99 814.26,303.18 814.64,302.6 814.52,302.5 			"/>
			<polygon class="st2" points="823.43,309.05 822.6,308.5 820.88,308.09 820.71,309.17 821.26,309.59 822.82,309.85 823.3,309.82 
				823.28,309.53 823.58,309.3 			"/>
			<polygon class="st2" points="826.81,311.03 826.67,311.19 826.48,311.16 824.83,310.47 825.89,312.19 827.77,312.21 
				827.08,311.34 			"/>
			<polygon class="st2" points="804.51,353.24 804.43,351.68 803.73,349.56 801.76,347.37 800.6,346.37 798.87,344.78 
				798.83,344.71 798.4,341.89 797.83,342.27 797.7,342.26 796.75,341.18 795.85,341.7 795.73,341.66 794.81,338.97 793.45,337.4 
				793.44,337.27 793.73,336.69 790.22,334.29 787.58,332.96 787.53,332.91 786.77,331.25 786.76,331.18 786.99,329.88 
				786.31,327.64 785.72,327.35 785.66,327.28 785.31,326.07 784.78,323.95 784.78,323.89 785.05,322.72 783.87,321.75 
				782.97,320.59 781.46,321.5 781.33,321.46 780.52,319.68 780.5,319.58 780.58,318.67 780.4,317.25 779.53,316.03 779.49,315.97 
				779.38,314.88 778.82,314.6 778.75,314.51 778.59,313 777.84,311.69 776.85,312.7 776.78,313.43 776.32,314.8 775.69,316.19 
				776.04,316.97 776.03,317.09 775.61,317.54 775.28,319.48 775.57,320.94 775.39,321.7 775.73,322.89 775.73,322.97 
				774.98,324.98 774.69,326.31 774.17,327.52 773.7,328.83 773.64,328.89 772.11,329.71 772.02,329.71 769.77,328.88 769.7,328.82 
				769.34,328.08 768.01,327.41 767.36,327.41 767.28,327.38 765.5,325.89 764.19,325 762.3,324.19 760.36,322.81 760.31,322.74 
				760.16,322.16 760.18,322.06 761.04,320.85 761.78,319.58 761.53,318.69 761.6,318.58 762.32,318.51 763.29,317.47 
				763.98,316.07 762.77,314.76 762.21,315.22 762.11,315.24 761.22,315.03 759.81,315.73 759.71,315.73 758.21,314.98 
				757.53,315.22 757.46,315.22 755.46,314.6 754.08,313.55 752.4,312.91 750.92,313.32 752.79,314.17 752.86,314.26 752.9,315.34 
				752.82,315.44 750.93,315.88 750.86,315.89 749.57,315.59 748.03,316.49 746.91,317.98 747.24,318.52 747.21,318.65 
				746.2,319.25 744.98,321.34 745.45,322.57 745.37,322.66 743.95,322.45 742.47,322.43 742.38,322.39 741,320.9 739.17,319.74 
				736.8,320.47 736.77,320.98 736.66,321.06 735.66,320.79 735.62,321.45 735.55,321.55 734.37,321.96 733.77,322.97 
				732.39,324.24 732.11,326.04 731.99,326.1 731.01,325.6 730.18,326.91 731,328.02 730.96,328.16 730.18,328.53 730.05,328.49 
				729.02,326.32 727.21,328.59 727.15,330 727.04,330.97 727.01,331.04 725.58,332.32 724.98,333.64 724.95,333.69 723.61,334.83 
				721.03,335.58 719.6,335.53 718.92,335.77 718.57,336.3 718.5,336.35 717,336.65 715.13,337.57 715.03,337.57 714.4,337.27 
				713.2,337.51 711.28,338.48 710.05,339.58 708.06,340.44 707.08,342.12 706.88,340.12 705.77,342.17 706.04,343.64 
				706.04,343.71 705.71,344.97 705.19,345.68 704.9,347.24 705.47,348 705.76,348.92 706.95,350.9 706.98,350.96 707.01,352.16 
				706.36,351.25 704.99,350.39 705.81,352.81 704.59,352.33 706.45,355.07 706.77,357.21 707.85,358.26 707.88,358.33 
				707.94,359.07 708.9,360.77 708.93,360.89 708.83,362.4 709.26,364.01 710.57,366.76 710.84,368.34 710.55,370.37 710.63,371.28 
				710.61,371.35 710.26,371.9 710.19,371.94 708.97,372.32 708.92,374 710.29,374.55 712.96,376.37 714.65,376.37 716.49,376.48 
				717.7,375.56 718.91,374.8 718.99,374.78 719.69,374.91 721.15,373.43 721.23,373.39 722.9,373.26 724.63,372.98 726.9,373.47 
				728.47,373.23 730.62,373.16 731.56,372 732.02,370.6 732.1,370.53 734.22,369.89 736.83,368.49 739.23,368.67 742.09,367.74 
				745.25,366.77 749.77,366.5 752.19,367.84 753.94,367.92 757.01,369.53 757.04,369.66 756.64,370.21 757.99,371.28 
				759.52,373.27 759.54,373.35 759.47,374.82 761.49,376.04 762.45,373.79 762.5,373.73 764.02,372.79 765.91,370.57 766,370.6 
				766.17,372.38 766.15,372.46 765.22,373.79 764.86,375.35 764.85,375.41 763.45,377.09 765.84,376.53 766.95,374.75 
				767.04,374.76 767.57,376.58 767.56,376.67 766.73,378.05 769.16,378.4 769.22,378.43 770.36,379.49 770.4,379.54 770.98,380.98 
				771.45,383.18 773.09,384.99 775.55,385.84 776.95,386.05 778.36,386.51 780.56,387.31 782.73,385.23 783.93,384.73 784,384.79 
				783.66,386.13 785.22,386.67 787.32,387.98 788.88,386.69 790.05,385.56 792.23,384.42 792.3,384.4 795.11,384.29 796.58,383.26 
				796.45,382.34 796.77,380.36 797.39,378.27 798.36,376.81 799.1,374.37 799.95,372.96 800.85,370.83 802.71,369.46 
				803.83,366.88 804.31,364.87 804.28,363.29 804.94,360.92 805.39,359.59 805.53,357.21 804.34,354.93 			"/>
			<polygon class="st2" points="790.84,393.1 787.56,394.07 787.48,394.06 785.15,393.08 785.06,393.29 785.08,393.05 
				783.42,392.79 783.36,394.22 784.78,396.79 785.15,398.82 786.71,401.46 788.19,401.54 788.82,401.73 790.48,399.71 
				790.62,399.7 791.45,400.5 791.71,397.97 792.57,396.93 792.39,393.31 			"/>
			<polygon class="st2" points="739.41,293.22 739.04,292.73 736.41,292.85 736.95,294.03 738.73,294.5 740.16,293.22 			"/>
			<polygon class="st2" points="751.06,289.01 751.13,289.06 752.1,290.52 755.67,290.52 755.78,290.59 755.9,290.97 755.82,291.07 
				754.21,291.03 751.41,291.97 753.34,293.21 753.4,293.3 753.41,294.32 754,295.28 755.02,295.06 755.69,293.94 755.82,293.91 
				759.46,296.16 761.57,296.39 766.32,298.48 766.38,298.53 767.54,300.58 768.17,303.2 768.11,303.31 766.63,303.97 
				765.52,306.11 768.8,306.04 769.37,305.37 769.48,305.33 771.85,305.8 771.95,305.84 773.68,307.45 774.39,307.89 776.7,307.97 
				778.19,308.41 780.21,307.52 779.9,305.73 779.95,305.62 781.38,304.85 783.44,304.15 783.52,304.15 786.67,305.21 
				786.74,305.26 788.04,307.45 789.44,308.82 791.39,310.43 796.02,311.09 796.09,311.12 796.68,311.75 798.4,311.58 
				798.71,310.77 796.19,309.77 796.18,309.67 796.85,309.24 794.93,308.82 794.86,308.71 794.95,307.67 793.55,307.74 
				793.45,307.69 791.87,305.1 789.67,303.47 789.17,301.95 789.24,301.84 791.45,301.58 790.8,300.16 786.69,298.63 786.61,298.55 
				786.25,297.14 784.83,295.86 783.11,294.57 778.49,293.14 774.52,291.56 773.85,291.36 771.42,290.93 769.55,290.04 
				767.4,289.16 765.16,289.16 762.27,290.68 760.25,293.25 760.12,293.27 757.71,291.87 757.65,291.79 756.97,287.85 
				756.94,287.73 756.91,287.7 756.55,286.84 752.49,285.8 751.14,286.64 747.74,287.24 748.87,288.56 			"/>
			<polygon class="st2" points="756.79,300.33 757.05,302.35 758.43,300.54 758.43,299.3 757.8,298.5 757.23,299.42 			"/>
			<polygon class="st2" points="707.9,306.95 710.89,305.95 707.7,304.4 704.01,303.95 703.92,303.89 703.04,302.32 698.34,301.09 
				697.81,302.08 697.71,302.13 693.11,301.89 693.01,301.82 692.69,300.99 691.64,300.79 689.6,299.8 686.53,299.65 684.75,302.15 
				687.03,302.33 687.12,302.4 687.53,303.42 692.14,304.46 693.12,304.16 693.18,304.15 694.96,304.38 697.94,305.36 
				700.29,305.82 702.9,306 705.08,305.93 			"/>
			<polygon class="st2" points="719.4,306.83 718.72,305.67 717.21,305.87 717.12,305.85 716.51,305.4 715.96,304.99 715.96,305.57 
				715.59,306.06 715.49,306.11 714.17,306.13 713.26,307.68 714.7,307.7 			"/>
			<polygon class="st2" points="685.35,300.43 685.88,299.67 686.02,299.66 686.02,299.46 686.35,298.97 686.03,298.97 
				686.11,295.82 686.75,292.62 685.5,291 683.73,290.78 683.64,290.73 682.84,289.44 682.38,287.63 681.48,287.57 680.15,286.77 
				680.12,286.64 681.08,284.67 679.2,283.56 679.15,283.52 677.67,281.39 675.58,279.69 673.09,279.65 673.01,279.61 
				670.66,276.95 669.31,275.93 667.4,274.25 665.15,271.76 661.24,271.27 659.57,271.16 659.81,272.51 662.46,275.31 
				664.26,276.66 665.62,278.83 667.82,280.35 667.87,280.4 668.79,282.35 669.53,284.51 671.75,286.64 673.64,290.11 674.9,292.01 
				676.75,293.99 677.85,295.55 681.02,297.56 683.19,299.71 685.33,299.67 			"/>
			<polygon class="st2" points="723.06,310.73 723.21,310.71 723.38,310.54 723.5,309.96 722.57,309.16 721.27,308.39 
				718.78,308.91 722.22,310.76 			"/>
			<polygon class="st2" points="728.44,306.69 728.64,305.94 729.17,305.41 728.79,305.41 728.85,305.18 728.28,305.41 
				727.98,305.41 727.98,305.53 726.6,306.1 724.88,306.31 723.3,305.55 721.26,306.09 721.26,307.1 724.64,307.41 			"/>
			<polygon class="st2" points="744.42,293.42 746.45,293.62 748.73,294.71 747.86,292.87 747.86,292.66 744.97,291.9 
				741.84,292.01 741.2,293.48 743.04,293.58 			"/>
			<polygon class="st2" points="719.42,290.22 718.37,291.93 719.17,293.7 720.12,293.73 720.22,293.81 720.59,296.02 
				720.59,296.09 719.87,298.43 720.98,299.21 722.63,298.83 722.53,295.18 722.33,292.37 722.39,292.27 723.78,291.64 
				723.87,291.71 723.7,293.99 725.44,295.4 725.47,295.52 725.17,296.41 725.84,297.15 728.19,296.23 727.03,298.19 728.07,299.13 
				729.46,298.36 729.49,296.66 728.74,295.69 728.73,295.69 727.28,293.82 727.27,293.7 727.7,292.91 725.41,289.81 725.44,289.68 
				727.5,288.77 728.53,287.39 728.61,287.36 728.61,287.34 729.7,287.71 729.93,286.43 728.65,286.65 728.45,286.7 728.44,286.68 
				725.16,287.28 723.91,288.33 723.78,288.33 721.7,286.25 721.66,286.15 721.99,284.44 722.08,284.36 724.12,284.02 
				728.25,283.88 730.73,284.38 732.65,283.89 734.69,281.36 734.2,280.74 731.73,282.56 731.66,282.58 728.84,282.68 
				725.77,282.35 723.71,281.59 721.55,283.47 721.01,284.54 719.76,288.32 			"/>
			<polygon class="st2" points="741.77,287.27 742.56,286.9 741.55,285.6 741.52,285.5 741.85,284.19 741.97,284.12 743.18,284.35 
				743.32,282.1 743.07,281.04 741.67,280.83 741.59,280.74 741.4,279.39 740.49,280.38 739.98,282.41 740.73,285.63 740.92,285.93 
				740.96,285.99 740.96,285.99 			"/>
			<polygon class="st2" points="733.99,307.07 733.67,307.33 731.44,308.23 730.34,309.79 730.11,310.68 730.45,311.03 
				732.46,310.5 732.62,310.5 734.17,308.71 734.63,308.46 736.36,307.86 739,306.73 739.97,306.01 738.93,305.66 738.08,305.98 
				736.35,306.07 734.2,306.63 			"/>
		</g>
		<g id="benelux">
			<path class="st2" d="M438.35,136.44l-1.84-0.08l-0.06-0.13l-3.68,1.53l-2.15,4.89l-0.03,0.06l-1.39,0.98l-1.94,0.63l0.39,1.25
				l1.12,0.05l0.08,0.04l1.13,1.29l1.75,1.54l1.24-0.25l0.09,0.02l1.75,1.19l0.58,0.37l0.38,0.2l0.78-0.08l0.15-1.48l-0.36-0.54
				l-0.1-0.47l0.22-1.81l-0.05-0.75l-0.33-2.73l0.09-0.1h1.38l0.66-1.34l0.62-3.06L438.35,136.44z M429.36,144h-0.01H429.36z"/>
			<line class="st1" x1="429.36" y1="144" x2="429.35" y2="144"/>
		</g>
		<polygon id="iberia" class="st2" points="428.56,171.71 425.62,172.11 422.78,170.73 421.91,171.36 421.81,171.37 417.36,170.05 
			417.27,169.99 416.29,168.83 412.2,168.73 410.15,168.89 407.44,168.36 404.18,168.38 401.04,167.82 397.43,170.06 398.45,171.36 
			398.47,171.44 398.39,172.83 398.41,173.01 398.37,173.69 398.46,174.54 398.97,175.67 399,176.9 398.49,178.66 398.33,179.77 
			398.3,179.84 397.32,180.88 397.12,182.82 397.73,183.96 398.77,184.21 398.85,184.3 399.06,186.01 398.67,188.3 399.19,188.17 
			399.96,187.97 400.06,187.97 401.36,188.37 402.16,187.78 402.61,187.72 404.61,188.11 404.7,188.18 405.38,189.75 406.32,190.74 
			407.58,190.99 408.54,189.89 410.07,188.91 410.14,188.89 412.48,188.94 415.68,188.9 417.43,186.71 417.49,186.67 419.35,186.1 
			419.9,184.2 421.37,182.88 420.42,181.24 420.41,181.14 421.33,178.88 422.89,177.18 423.09,176.27 423.18,176.18 426.29,175.57 
			428.7,173.54 		"/>
		<g id="indian_subcontinent">
			<polygon class="st2" points="623.48,261.63 621.68,260.17 620.52,264.35 620.97,267.99 622.18,270.03 624.4,269.45 
				625.48,268.72 625.85,266.11 625.85,266.03 624.64,263.4 			"/>
			<polygon class="st2" points="664.17,213.78 664.98,213.32 664.79,212.22 662.24,211.84 662.19,211.73 662.95,210.72 
				661.72,208.95 659.96,210.08 659.87,210.09 657.82,209.44 654.88,211.21 652.64,213.2 651.3,213.42 650.53,213.47 649.54,212.82 
				648.22,212.75 646.41,212.11 645.03,212.81 643.59,214.56 643.43,214.52 643.24,212.67 642.81,212.82 641.9,213.17 
				641.35,213.23 638.76,213 635.89,212.35 633.86,211.17 632.02,210.66 631.95,210.61 631.13,209.34 629.67,208.91 627.15,207.15 
				625.15,206.31 624.24,206.89 623.74,206.75 620.67,205.05 618.26,203.34 618.21,203.27 617.57,200.46 617.65,200.37 
				619.32,200.71 619.41,199.22 618.44,197.82 618.42,197.75 618.67,195.49 616.18,192.41 615.89,192.21 615.62,192.41 
				613.48,194.52 613.41,194.55 610.63,194.95 606.87,194.27 605.6,195.53 606.51,198.03 607.38,199.93 609.26,201.22 
				609.26,201.35 607.25,202.86 607.29,204.79 607.27,204.87 604.86,207.62 603.32,210.35 600.75,213.15 600.66,213.18 
				597.81,212.98 594.99,215.86 596.62,217.06 596.67,217.14 596.95,219.15 598.31,220.44 598.37,220.54 598.82,222.61 
				598.74,222.71 593.38,222.7 591.65,224.52 594.65,226.83 595.28,227.7 595.26,227.83 594.11,228.73 597.44,231.96 599.24,232.27 
				602.74,230.77 602.85,230.83 603.31,233.11 603.3,236.31 604.04,239.59 605.09,244.59 607.38,248.16 607.8,249.71 608.42,252.9 
				609.77,255.36 610.63,256.54 611.58,259.1 612.75,262.65 615.16,265.04 616.21,264.28 617.03,262.62 617.1,262.56 619.39,261.85 
				618.65,261.05 618.64,260.92 619.68,259.16 619.77,259.1 621.02,258.98 621.02,254.71 621.03,254.65 622.09,252.22 
				621.95,250.07 621.44,246.79 622.15,244.93 622.24,244.85 623.37,244.71 625.61,243.8 626.86,243.15 626.86,242.03 
				626.92,241.93 629.35,240.27 631.24,238.64 633.99,235.64 637.63,233.85 638.98,232.29 638.85,230.44 638.94,230.33 
				641.83,229.82 643.62,229.84 643.92,229.08 644.24,228.96 644.87,229.11 645.65,229.41 645.97,229 646.09,228.97 647.08,229.46 
				647.9,227.94 647.7,227.01 647.79,226.91 649.85,227 649.93,227.05 650.93,228.51 651.39,229.69 651.56,231.06 652.25,230.99 
				652.22,230.54 652.31,230.47 653.07,230.82 653.12,229.05 653.42,228.76 654.38,228.28 654.12,227.19 654.14,227.1 
				654.67,226.25 654.76,223.66 654.87,223.58 656.7,224.15 657.85,221.92 657.96,220.63 659.35,218.38 659.28,216.93 
				659.34,216.82 662.43,215.05 662.52,215.04 664.32,215.52 664.12,213.89 			"/>
		</g>
		<g id="nordics">
			<polygon class="st2" points="381.52,10.77 369.32,13.12 363.14,15.26 365.81,11.9 363.68,9.67 358.83,11.51 358.75,11.52 
				351.26,9.45 342.46,10.12 342.37,10.09 341.26,9.12 354.61,8.53 364.21,8.26 368.95,5.82 353.12,0.8 333.14,0 324.29,0.62 
				321.14,2.92 321.06,2.95 312.32,2.67 304.32,6.21 303.95,5.65 303.51,9.07 308.91,12.03 304.28,10.29 300.81,9.82 294.82,7.53 
				288.24,10.84 288.13,10.84 285.46,8.99 277.73,9.04 270.02,10 264.06,11.6 265.06,14.18 264.99,14.29 261.47,14.92 252.83,19 
				250.58,21.36 257.26,23.39 257.31,23.51 256.44,25.35 256.37,25.41 247.26,28.07 237.75,30.73 237.4,32.91 243.12,35.14 
				253.28,36.45 248.73,36.71 242.08,38.39 246.54,41.75 249.44,43.39 255.57,43.02 262.22,42.81 267.51,43.18 274.18,46.13 
				274.24,46.23 274.21,48.26 277.35,50.15 277.4,50.2 280.42,55.42 282.42,58.77 283.86,60.43 283.87,60.56 281.11,64.88 
				283.26,66.05 285.7,65.42 285.79,65.44 287.98,66.98 292.05,69.72 287.17,68.58 284.85,68.65 283.85,71.1 284.02,74.18 
				287.13,75.64 289.44,74.99 290.78,74.35 293.44,72.88 293.53,72.94 293.05,76.14 292.09,77.96 292.03,78.01 288.29,79.61 
				285.78,84.66 287.41,86.11 287.44,86.23 286.56,89.24 290.01,93.02 290.04,93.08 290.38,96.67 291.69,99.32 295.97,104.14 
				297.67,107.94 300.12,110.05 305.08,110.07 305.16,110.1 308.82,113.15 312.4,112.91 314.83,106.01 313.84,103.06 313.88,102.95 
				317.88,99.87 319.16,97.23 319.19,94.45 319.22,94.38 321.26,91.97 321.36,91.9 324.91,90.95 328.17,89.96 329.97,89.77 
				335.38,86.84 338.83,82.41 341.36,80.76 341.47,80.73 344.22,80.7 351.56,79.19 358.34,75.75 365.19,71.8 361.57,71.54 
				355.1,71.35 357.93,69.04 357.11,66.04 360.09,68.58 362.05,70.36 366.59,69.47 365.62,65.72 362.31,62.86 359.1,61.75 
				359.08,61.63 360.15,60.58 360.27,60.56 365.2,62.51 365.17,60.32 362.19,57.23 362.22,57.15 365.52,57.13 369.05,56.39 
				369.9,54.61 367.08,52.68 372.59,52.33 369.4,48.13 369.45,48.02 371.98,47.58 371.38,43.17 366.92,40.53 366.93,40.42 
				370.79,38.87 374.85,38.63 371.81,35.14 371.78,35.06 371.69,29.17 371.7,29.1 373.7,25.52 376.7,21.28 371.37,21.03 
				378.83,20.1 380.3,18.75 390.5,14.57 389.06,11.95 			"/>
			<polygon class="st2" points="384.18,90.35 384.75,87.69 380.52,87.38 376.48,89.58 376.38,89.58 373.28,88.43 369.54,90.65 
				369.42,90.64 365.59,87.88 361.75,88.5 360.01,91.27 365.23,92.22 365.32,92.32 365.4,93.26 365.32,93.37 360.83,94.16 
				366.27,96.13 366.28,96.24 363.89,97.96 374.3,99.83 376.48,99.1 383.71,96.35 387.01,93.22 384.21,90.45 			"/>
			<polygon class="st2" points="496.36,99.58 496.32,99.46 497.31,96.95 495.1,94 495.09,93.88 496.74,90.44 493.87,85.75 
				493.87,85.64 496.15,82.48 492.35,79.64 492.3,79.54 492.58,77.26 493.26,76.49 494.69,76.19 498.99,74.4 496.33,71.68 
				496.36,71.56 499.52,70.38 491.65,67.04 491.51,67.02 491.44,67.02 487.12,67.9 482.46,67.7 478.68,71.43 478.59,71.46 
				474.54,71.23 469.02,73.19 462.14,78.71 457.9,82.01 451.92,90.09 447.34,95.78 442.41,99.9 435.79,103.21 433.46,105.73 
				434.26,114.53 435.16,118.5 438.66,120.38 442.03,119.52 446.87,115.35 447,115.37 448.29,117.1 448.62,117.63 450.48,122.68 
				452.55,126.64 453.37,130.08 456.35,129.91 457.73,127.19 457.83,127.13 460.8,127.47 462.25,124.05 463.19,118.1 463.26,118.01 
				465.79,117.18 468.12,112.93 465.7,110.83 463.96,108.21 463.95,108.12 465.73,102.79 465.77,102.73 470.58,99.37 474.57,96.14 
				474.19,93.71 474.22,93.62 476.53,90.88 476.6,90.83 480.43,89.79 481.06,89.75 484.29,91.56 484.35,91.65 484.58,93.19 
				484.53,93.3 482.92,94.12 477.19,98.49 474.91,101.01 473.72,103.27 474.92,106.69 474.93,106.76 474.36,110.55 476.8,111.78 
				478.27,113.86 482.4,113.05 486.71,111.7 491.34,111.38 496.72,106.5 499.04,104.27 500.01,102.23 			"/>
			<polygon class="st2" points="472.82,34.91 477.34,36.19 482.18,34.3 482.67,34.09 482.23,33.65 479.39,32.69 479.33,32.63 
				478.35,30.62 473.04,31.74 474.51,33.43 474.5,33.56 			"/>
			<polygon class="st2" points="470.72,23 470.82,23.07 471.24,24.56 478.67,25.5 485.95,24.84 489.74,21.72 484.71,19.66 
				478.38,18.21 475.91,19.91 475.8,19.92 472.23,18.56 464.39,20.19 467.22,22.89 			"/>
			<polygon class="st2" points="453.98,33.06 457.56,34.55 457.58,34.67 455.4,36.49 460.86,39.75 463.93,39.54 465.11,35.2 
				465.17,35.12 467.32,34.13 468.69,30.19 468.77,30.11 475.1,27.93 466.92,23.79 463.6,21.69 459.87,21.89 458.95,23.78 
				458.86,23.84 455.48,23.92 455.38,23.87 454.04,21.92 447.12,23.99 449.09,28.43 			"/>
			<polygon class="st2" points="448.27,128.5 448.63,130.02 451.31,132.03 452.86,129.13 452.02,127.31 			"/>
			<polygon class="st2" points="448.17,126 447.07,125.56 447,125.49 446.74,124.64 446.75,124.54 447.46,123.43 447.55,121.47 
				445.46,122.54 444.62,123.49 444.54,123.53 442.38,123.75 441.63,124.87 441.22,125.82 441.3,129.45 442.33,131.42 
				444.26,131.89 445.93,131.34 445.26,129.68 445.27,129.57 446.94,127.22 447.07,127.19 447.75,127.54 448.25,126.45 
				448.32,126.27 			"/>
		</g>
		<g id="uk_ireland">
			<polygon class="st2" points="424.97,141.19 425.29,138.97 422.28,138.33 422.21,138.28 421.53,137.01 419.98,133.08 
				418.31,132.54 418.24,132.48 415.83,128.03 413.42,127.82 413.37,127.71 415.51,124.69 416.18,121.69 413.34,121.67 
				410.94,122.14 413.06,119.01 413.73,119 413.34,118.6 413.59,118.24 413.01,118.29 412.88,118.17 412.72,118.32 410.56,118.55 
				408.46,118.26 406.5,121.25 405.59,124.99 406.86,126.8 407,130.32 408.34,128.68 408.47,128.67 409.11,129.43 409.12,129.56 
				408.25,131.05 408.87,132.03 411.87,132.63 411.94,132.67 413.56,134.74 413.59,134.83 413.26,136.61 413.15,136.69 
				409.52,136.38 409.03,138.67 410.31,140.37 410.28,140.5 407.77,141.5 408.52,142.9 412.26,143.43 410.21,144.09 406.48,147.61 
				407.9,148.31 409.62,147.08 409.71,147.06 411.98,147.42 413.57,145.94 413.69,145.93 414.78,146.53 418.98,145.63 
				422.41,145.65 424.71,143.88 423.76,142.24 423.78,142.11 			"/>
			<polygon class="st2" points="405.62,135.28 405.7,134.94 406.91,132.8 404.18,130.61 402.35,130.73 401.67,131.08 400.14,132.39 
				396.7,135.11 397.99,138.54 397.98,138.64 395.95,142.15 399.59,142.67 404.06,140.68 405.96,137.63 405.65,135.75 
				406.11,135.75 			"/>
		</g>

		<g id="italy_israel_greece">
			<polygon class="st2" points="486.35,175.02 486.26,175.12 484.17,175.37 484.09,175.36 482.35,174.33 480.4,175.14 
				480.34,175.16 478.44,175.09 477.99,175.18 477.62,175.64 477.53,175.69 476.23,175.63 475.29,176.29 473.61,176.57 
				473.57,177.3 473.51,177.39 472.76,177.79 472.61,178.75 471.44,180.2 471.62,181.07 472.9,182.75 473.85,184.03 473.87,184.08 
				474.32,186.04 475.25,188.34 477.33,189.6 479.08,189.57 478.16,187.12 478.22,187 479.71,186.72 479.05,185.39 479.11,185.33 
				481.26,186.04 481.23,184.3 479.98,183.45 478.71,182.21 478.72,182.08 479.58,181.5 478.33,180.15 478.3,180.1 477.76,178.42 
				477.78,178.31 478.1,177.87 478.23,177.87 479.46,179.28 480.88,179.28 482.24,178.77 480.6,177.19 480.62,177.08 483.37,176.37 
				483.43,176.36 484.77,176.65 486.28,176.73 486.9,176.38 487.61,174.68 487.69,174.42 486.38,173.58 			"/>
			<polygon class="st2" points="479.82,192.83 481.41,193.12 481.44,193.14 481.57,193.14 481.58,192.91 481.75,192.5 
				480.34,191.51 			"/>
			<polygon class="st2" points="485.56,192.91 485.6,192.55 483.66,192.34 481.8,192.49 481.76,193.18 482.82,193.38 482.91,193.48 
				482.87,193.87 486.4,193.64 486.39,193.63 486.55,193.62 486.96,192.66 485.65,192.98 			"/>
			<polygon class="st2" points="444.19,175.61 443.89,175.61 442.84,176.38 442.76,176.4 441.37,176.25 441.97,178.06 
				442.07,181.59 443.07,182.41 444.07,181.46 444.17,181.43 445.28,181.6 445.64,177.63 444.3,175.76 			"/>
			<polygon class="st2" points="464.88,176.46 460.99,174.58 460.98,174.45 461.57,173.95 460.91,173.23 458.98,173.25 
				458.9,173.22 456.22,170.88 454.92,168.33 452.63,166.83 452.58,166.8 451.79,165.29 451.78,165.2 452.07,164.37 451.94,162.93 
				452,162.83 453.9,161.81 453.98,161.79 456,162.26 455.37,160.85 455.65,159.27 452.1,158.47 452.02,158.4 451.47,157.34 
				448.94,157.9 448.69,158.41 448.57,158.47 447.12,158.04 446.92,159.3 446.86,159.38 445.89,159.85 445.81,159.86 443.98,159.47 
				443.45,160.68 443.36,160.75 442.35,160.83 442.25,160.8 441.85,160.32 440.43,161.4 439.28,161.54 439.21,161.53 438.12,160.86 
				437.99,161.83 438.68,162.92 438.67,163.04 437.86,163.91 438.52,166.35 439.77,166.71 439.83,166.82 439.56,168.09 
				440.69,167.84 442.08,166.45 442.13,166.42 443.21,166.02 443.31,166.03 445.31,167.01 446.44,167.34 446.52,167.42 
				447.28,170.36 449.01,172.12 451.31,174.09 453.26,175.44 455.06,175.63 455.14,175.67 456.19,176.83 457.74,177.36 
				457.8,177.41 458.52,178.65 459.52,179 459.58,179.06 460.32,180.49 461.24,182.09 461.23,182.22 460.75,182.76 460.24,184.34 
				460.22,185.31 461.35,185.06 462.65,182.61 462.74,182.55 463.74,182.38 464.06,180.79 462.34,179.75 462.3,179.62 
				463.23,177.94 463.34,177.89 465.32,178.32 465.43,178.37 466.83,179.76 467.34,178.63 467.06,178.04 			"/>
			<polygon class="st2" points="459.96,184.26 455.49,184.83 452.45,184.56 452.09,186.14 455.65,187.63 456.89,187.93 
				458.85,189.05 459.41,187.5 459.06,186.65 459.06,186.56 			"/>
			<polygon class="st2" points="510.77,198.39 510,198.43 509.81,198.86 509.71,198.92 508.88,198.92 508.49,199.71 508.46,199.83 
				507.98,201.77 507.39,202.97 507.42,203.34 506.76,204.16 508.47,209.06 509.76,204.51 509.72,203.86 509.78,203.27 
				510.08,202.63 510.06,201.2 510.19,200.69 510.51,200.07 510.53,199.94 510.8,199.61 			"/>
			<polygon class="st2" points="505.15,193.48 504.83,193.37 504.76,193.08 504.13,193.05 503.5,193.27 503.42,193.27 
				502.99,193.13 501.72,193.25 502.34,194.47 503.61,194.85 505.24,194.12 505.07,193.7 			"/>
		</g>
		<g id="japan">
			<polygon class="st2" points="784.95,165.83 783.18,167.12 783.07,167.14 781.4,166.52 779.45,165.46 776.49,162.21 
				775.72,164.74 775.01,168.84 774.91,168.93 772.33,169.09 771.06,171.46 771.41,174.51 774.28,174.46 775.6,171.29 
				775.73,171.24 779.57,173.25 781.75,170.27 781.83,170.22 785.52,169.39 			"/>
			<polygon class="st2" points="772.31,175.55 771.23,177.46 771.67,180.7 771.65,180.82 770.15,184.26 770.12,184.31 
				765.11,188.26 764.98,188.26 763.36,186.92 760.77,191.98 760.65,192.03 758.08,191.47 753.07,192.32 751.23,194.27 
				748.7,195.73 747.39,197.49 744.98,198.38 746.03,200.36 747.52,201.12 747.57,201.24 746.98,203.65 748.24,204.77 
				749.91,203.57 751.6,198.79 749.15,196.8 751.95,196.75 754.92,195.42 759.11,194.82 759.21,194.9 759.32,196.88 761.05,197.99 
				764.61,194.79 764.68,194.76 769.03,194.59 772.25,193.24 773.58,191.2 773.15,189.8 773.15,189.73 774.08,187.48 774.03,184.54 
				774.05,184.47 776.34,181.57 776.42,179.16 775.04,174.98 			"/>
			<polygon class="st2" points="756.31,195.31 755.31,196.45 755.21,196.49 753.85,196.18 752.44,197.89 752.41,199.27 
				754.12,200.1 754.77,198.47 754.83,198.41 755.96,197.84 756.08,197.85 757.06,198.72 758.53,196.96 758.31,196.31 
				758.55,196.06 			"/>
		</g>
		<g id="greater_china">
			<polygon class="st2" points="725.23,220.17 723.17,222.27 721.71,224.85 722,226.84 723.37,229.15 724.5,226.89 726,222.67 
				726.15,222.2 726.11,222.2 726.44,221.01 			"/>
			<polygon class="st2" points="696.98,233.88 694.22,234.61 692.96,235.81 693.03,238.1 695.15,238.93 697.24,237.72 
				697.42,237.61 697.42,237.47 697.91,236.2 699.05,234.98 698.45,233.94 			"/>
			<polygon class="st2" points="754.97,153.94 752.87,155.17 752.82,155.2 749.13,155.2 749.03,155.13 748.04,152.22 745.06,149.91 
				740.78,148.88 740.53,148.64 739.7,145.77 738.82,143.73 737.89,142.32 736.34,138.92 734.08,137.65 730.36,136.65 727,136.75 
				723.9,137.35 721.76,139.1 723.12,139.89 723.18,139.98 723.2,141.65 723.16,141.74 721.82,142.77 719.55,146.3 719.57,147.66 
				719.52,147.75 716.14,149.73 716.04,149.73 713.07,148.52 711.83,151.01 710.05,154.25 710.72,155.62 712.16,155.19 
				714.65,155.69 716.51,154.55 716.62,154.54 718.57,155.55 720.73,157.66 720.76,157.77 720.55,158.67 720.44,158.74 
				718.6,158.41 714.94,158.83 713.17,159.73 711.39,161.75 711.3,161.81 707.48,163.03 705.08,164.61 704.99,164.62 702.47,164 
				701.03,163.72 699.69,165.77 700.5,166.97 700.86,167.86 700.82,167.98 699.14,168.97 697.42,170.53 694.52,171.61 
				690.69,171.75 686.63,172.81 683.84,174.35 683.72,174.34 682.68,173.47 679.66,173.48 675.9,171.63 673.46,171.2 670.13,171.61 
				664.93,170.94 662.27,171.01 662.18,170.96 660.74,169.19 659.61,166.4 658,166.02 655.02,164.12 651.64,163.68 648.73,163.17 
				648.65,163.12 647.83,161.89 647.81,161.8 648.76,158.18 647.02,155.59 643.49,154.41 641.38,152.73 641.34,152.67 
				640.69,150.42 639.64,150.71 637.76,152.82 637.69,152.86 635.64,153.15 635.52,156.34 635.49,156.42 634.21,157.73 
				634.1,157.76 629.18,156.72 627.38,162.33 627.33,162.39 626.12,163.05 621.1,164.3 623.33,169.54 623.28,169.67 621.66,170.42 
				621.85,172.13 621.84,172.2 621.54,172.77 621.48,172.83 617.58,174.43 616.73,175.57 616.64,175.62 613.48,175.97 
				612.57,177.79 612.47,177.85 609.91,177.46 608.14,178.07 605.74,179.47 606.05,180.1 606.03,180.22 605.38,180.83 
				606.03,183.62 606.85,183.33 606.94,183.34 608.29,183.93 608.36,184.03 608.28,185.07 608.69,186.77 609.11,187.58 
				610.93,188.89 610.97,188.95 611.7,191.13 615.8,192.27 615.86,192.31 618.47,195.54 618.5,195.62 618.25,197.86 619.22,199.26 
				619.24,199.33 619.17,200.54 619.07,200.62 617.35,200.26 618.07,203.42 620.57,205.19 624.06,207.12 625.05,206.49 
				625.16,206.48 627.02,207.25 629.61,209.08 630.97,209.46 631.03,209.51 631.85,210.78 633.81,211.32 635.85,212.52 
				638.71,213.15 641.62,213.41 643,212.9 643.1,212.96 643.31,215.04 645,212.99 645.03,212.95 646.32,212.29 646.42,212.28 
				648.15,212.89 649.38,212.93 649.45,212.94 650.57,213.68 652.62,213.34 654.9,211.32 657.73,209.63 657.83,209.62 
				659.89,210.27 661.58,209.19 661.71,209.22 662.73,210.7 662.73,210.83 661.9,211.95 664.68,212.36 666.04,212.17 666.16,212.23 
				666.95,213.74 667.98,214.35 668.04,214.44 668.11,216.41 668.01,218.56 667.98,218.63 665.64,220.82 665.33,224.06 
				667.91,223.63 668.02,223.7 668.59,226.02 670.07,226.5 670.13,226.62 669.43,228.71 671.34,229.72 672.44,230.21 674.13,229.51 
				674.24,229.58 674.32,230.54 674.53,231.15 675.96,231.22 675.6,228.28 675.67,228.17 676.88,227.8 678.17,227.18 680.2,227.19 
				682.63,226.89 684.68,225.54 684.81,225.54 685.94,226.46 688.1,226.92 688.17,227.04 687.8,228.44 689.02,229.54 691.57,230.23 
				692.72,229.81 692.78,229.8 695.92,230.59 695.97,230.71 695.46,231.58 696.14,233.54 697.59,233.37 698.43,230.68 698.52,230.6 
				701.11,230.2 704.59,228.89 705.91,227.67 706.04,227.68 706.84,228.46 708.32,227.31 708.37,227.28 711.2,226.97 714.71,224.73 
				718.15,222.28 720.5,219.07 722.51,215.57 724.3,212.71 724.38,212.65 725.74,212.42 726.39,210.21 726.78,207.97 725.33,207.13 
				725.28,207.06 724.75,205.78 724.8,205.66 726.27,204.95 726.31,202.85 724.6,200.71 723.11,198.21 722.09,195.37 719.51,193.88 
				719.48,193.75 720.67,191.9 723.11,190.47 724.25,188.96 724.31,188.92 727.85,188.12 727.42,186.52 725.78,186.45 
				723.53,185.31 720.77,187.34 720.66,187.35 718.86,186.59 718.79,186.49 718.71,185.25 716.69,184.77 716.62,184.72 
				715.4,182.91 715.41,182.78 716.56,181.55 716.64,181.51 719.05,181.38 720.6,179.47 723.38,177.44 725.5,176.42 725.62,176.45 
				726.78,177.81 726.77,177.95 724.86,179.86 725.35,180.95 725.33,181.06 724.89,181.51 725.24,182.09 726.83,181.62 
				728.62,180.28 728.67,180.25 732.18,179.39 734.22,177.49 736.99,175.89 738.63,173.87 738.76,173.85 739.85,174.71 
				742.1,174.82 741.73,173.31 741.8,173.19 745.55,171.93 746.47,170.37 746.6,170.36 748.19,172.11 748.17,170.58 748.26,170.48 
				749.44,170.4 749.81,166.74 749.17,164.21 749.23,164.09 751.22,163.09 751.29,163.07 754.31,163.62 756.02,160.5 756.86,157.11 
				757.86,155.9 759.21,152.97 			"/>
		</g>
		<g id="north_america_bmc">
			<polygon class="st2" points="185.89,35.81 185.97,35.79 186.13,35.71 186.42,35.1 184.61,34.07 179.48,33.99 180.18,35.59 
				184.91,35.94 			"/>
			<polygon class="st2" points="200.32,51.82 205.48,51.73 212.6,50.97 215.85,51.57 219.6,50.5 221.2,49.14 220.63,47.02 
				217.92,45.09 213.81,44.73 208.69,45.17 204.69,46.25 201.09,45.84 197.77,45.62 197.71,45.6 196.11,44.39 193.39,43.3 
				193.33,43.19 193.87,41.34 191.67,39.6 186.8,39.62 186.69,39.59 184.02,37.97 183.9,38.16 183.91,37.92 178.78,37.58 
				177.81,39.81 180.76,41.45 185.89,42.08 185.95,42.11 188.38,44.28 188.42,44.35 188.72,46.84 189.59,49.6 196.29,51.22 			"/>
			<polygon class="st2" points="175.07,71.72 173.37,73.62 171.04,75.09 174.54,77.12 176.55,76.65 176.62,76.66 179.97,77.98 
				181.24,76.72 181.89,76.72 179.27,73.81 177.76,73 			"/>
			<polygon class="st2" points="184.99,63.21 187.66,59.71 187.7,59.68 190.68,58.75 194.49,54.39 189.58,53.18 184.37,53.01 
				181.87,54.35 180.55,56.43 180.5,58.84 182.08,63.04 			"/>
			<polygon class="st2" points="185.27,50.85 186.54,49.05 186.61,48.95 186.61,48.75 185.74,47.23 183.52,45.43 179.88,46.82 
				178.5,49.14 181.6,50.47 			"/>
			<polygon class="st2" points="171.1,49.32 175.26,48.8 176.42,45.01 176.34,42.35 174.78,40.39 174.57,40.55 174.35,40.53 
				174.27,40.42 174.07,40.57 170.66,40.28 166.96,42.04 166.9,42.06 164.15,41.9 164.31,45.96 168.31,45.58 168.41,45.67 
				168.36,48.5 			"/>
			<polygon class="st2" points="175.66,58.5 177.9,56.3 177.21,54.83 172.73,55.45 170.03,54.52 169.89,54.25 166.68,56.79 
				169.39,59.87 164.35,59.29 164.3,60.89 170.48,64.47 172.29,66.3 174.73,66.69 178.88,64.89 179.34,60.61 175.68,58.63 			"/>
			<polygon class="st2" points="159.87,29.44 159.88,29.55 157.51,31.14 163.17,31.35 167.38,33.12 171.53,33.73 170.74,31.9 
				170.92,31.9 168.6,28.75 161.78,26.71 156.82,25.94 157,28.18 			"/>
			<polygon class="st2" points="218.45,56.98 221.23,59.54 221.98,59.83 224.72,59.19 230.14,59.43 229.93,58.18 229.74,57.15 
				229.43,57.76 225.55,55.38 219.8,54.85 218.55,55.19 			"/>
			<polygon class="st2" points="175.28,32.75 177.35,34.02 180.84,32.96 181.08,32.96 181.81,30.86 178.78,28.93 177.27,28.56 
				173.99,28.33 174.19,30.68 			"/>
			<polygon class="st2" points="183.17,25.65 187.62,25.61 185.75,27.02 185.71,29.08 188.43,31.34 193.64,32.04 198.09,31.65 
				202.65,27.55 206.24,25.8 203.19,23.97 203.11,23.88 201.16,20.18 197.04,19.08 192.89,17.86 192.84,17.85 189.63,14.69 
				183.69,14.99 184.71,16.26 184.67,16.37 182.29,16.75 180.52,18.57 178.78,21.14 180.39,23.76 			"/>
			<polygon class="st2" points="220.53,98.87 218.66,97.49 216.94,97.78 216.84,97.7 216.63,95.91 213.73,94.64 211.04,93.28 
				209.52,92.16 208.36,92.73 208.24,92.68 207.81,91.02 207.67,90.99 207.18,90.76 207.18,90.9 205.94,90.66 205.07,94.48 
				204.75,97.57 204.71,97.64 202.46,99.67 205.9,99.28 206,99.34 206.84,101.6 210.48,99.51 212.83,97.5 212.96,97.51 214.28,99.2 
				218.22,100.16 			"/>
			<polygon class="st2" points="232.72,83.6 233.01,83 232.98,81.12 230.98,79.9 228.64,80.51 227.56,82.96 228.2,85.09 
				230.59,84.91 230.59,85.25 			"/>
			<polygon class="st2" points="250.86,88.58 253.89,88.09 253.99,88.12 257.92,92.07 261,93.82 265.43,89.01 266.23,86.01 
				262.3,85.73 262.22,85.69 258.65,81.82 254.67,80.88 248.97,78.15 248.97,78.06 253.41,76.08 251.01,71.86 248.81,70.03 
				242.84,68.27 242.78,68.25 240.15,65.29 235.62,66.31 235.51,66.24 235.21,64.34 231.7,62.09 226.14,59.69 223.82,61.55 
				223.76,61.58 218.99,62.89 218.9,62.81 219.25,59.89 214.92,54.88 208.52,56.87 206.3,60.57 206.17,60.58 204.36,57.85 
				204.36,57.84 206.25,54.62 199.67,55.94 197.07,57.92 195.13,62.19 195.94,66.95 199.38,66.97 196.83,69.01 198.97,70.64 
				203.04,71.32 208.37,72.64 217.51,73.63 222.03,73.05 223.29,71.81 223.41,71.81 225.3,73.26 227.45,73.5 227.52,73.54 
				230.02,76.12 230.01,76.25 228.44,77.33 233.61,78.84 237.38,80.89 237.43,80.92 238.37,82.32 239.05,84.18 239.04,84.29 
				235.83,88.36 234.97,90.41 235.72,91.74 235.66,91.85 230.73,92.35 225.97,92.42 224.28,95.49 226.46,96.9 233.76,96.25 
				233.72,95.23 233.82,95.17 240.87,99.01 240.9,99.14 240.09,100.18 243.2,102.14 248.59,104.41 255.43,105.97 255,104.53 
				252.39,102.16 249.1,99 255.09,102.01 258.29,103.08 259.17,100.19 257.52,96.21 256.48,95.13 253.08,93.26 250.51,90.94 
				250.47,90.84 250.77,88.67 			"/>
			<polygon class="st2" points="195.06,14.73 197.19,17.14 201.64,19.12 210.35,18.75 215.89,19.4 212.18,21.39 212.09,21.39 
				210.13,20.79 203.25,20.54 204.35,23.57 207.79,25.72 207.83,25.84 207.2,27.59 207.12,27.66 202.75,28.96 200.65,31.16 
				204.71,32.19 204.78,32.22 208.03,35.51 201.53,33.25 199.94,33.65 201.15,37.41 201.08,37.53 196.56,38.7 196.88,41.29 
				201.62,41.56 205.43,42.19 212.79,41.4 219.29,42.83 226.02,39.69 225.97,38.32 221.76,38.52 221.66,38.45 221.38,37.49 
				221.43,37.37 224.82,35.83 225.99,33.77 226.05,33.72 229.87,32.21 232.29,30.3 230.29,27.66 230.32,27.53 232.02,26.55 
				228.81,25.9 236.04,25.33 237.58,24.21 237.63,24.18 242.81,23.24 247.09,18.54 251.2,16.88 257.24,13.21 251.79,13.24 
				253.94,11.98 259.98,10.76 266.09,8.12 266.2,6.4 261.55,4.69 256.18,3.9 238.56,2.61 231.42,3.67 231.35,3.65 230.05,3 
				222.36,3.26 217.86,3.96 214.56,4.96 212.73,8.18 212.6,8.21 210.01,6.57 206.88,6.24 203.14,8.55 198.34,9.52 195.33,9.73 
				191.6,10.89 192.16,13.01 			"/>
			<polygon class="st2" points="221.58,107.1 222.6,105.01 221.92,104.17 220.85,104.09 219.9,105.24 219.83,105.36 219.73,105.57 
				220.41,106.75 			"/>
			<polygon class="st2" points="210.63,103.86 211.22,104.97 213.03,105.07 215.86,102.99 215.99,102.88 216.05,102.05 
				212.54,102.02 			"/>
			<polygon class="st2" points="167.95,74.32 168.24,72.28 163.7,70.14 159.54,67.92 159.49,67.84 158.73,64.64 157.16,60.08 
				154.33,58.14 151.81,57.36 149.54,58.09 151.31,62.9 151.3,63.01 150.2,64.69 150.08,64.69 148.11,60.26 145.78,58.67 
				143.01,61.05 142.88,61.05 139.47,58.71 134.1,60.1 134.04,60.03 135.01,58.3 134.74,58.15 134.86,57.81 132.61,56.99 
				125.88,59.92 124.11,61.84 121.99,65.36 126.43,66.6 129.93,66.54 124.4,68.29 125.79,70.03 129.39,70.13 134.71,69.77 
				139.33,70.78 136.33,71.5 132.72,71.32 128.87,72.08 127.14,72.57 130.3,76.17 132.45,75.68 132.52,75.67 135.88,76.85 
				135.94,76.9 137.29,78.94 141.77,78.53 148.15,77.86 152.75,76.4 155.66,76.12 160.03,77.31 164.58,77.99 165.46,76.32 
				163.99,74.76 164.02,74.67 			"/>
			<polygon class="st2" points="159.42,56.52 157.46,55.42 154.07,55.62 153.17,56.34 157.16,59.77 			"/>
			<path class="st2" d="M111.81,152.99l-1.07-1.84l-2.44-1.3l-0.05-0.04l-1.23-1.54l-0.87-1.16l-2.37-0.35l-1.55-0.5l-2.68-0.73
				l-0.23,0.83l0.98,1.82l2.52,0.58l0.08,0.06l0.43,0.88l2.19,1.1l0.08,0.07l0.74,1.12l4.15,1.47L111.81,152.99z M111.31,152.79
				l-0.01,0.01L111.31,152.79z"/>
			<polygon class="st2" points="145.49,30.26 146.2,30.47 146,30.08 146.55,29.89 145.75,29.61 145.64,29.42 145.46,29.51 
				143.16,28.73 141.82,28.47 139.22,30.14 139.16,31 143.39,31 			"/>
			<polygon class="st2" points="263.43,159.55 261.68,159.14 261.6,159.08 260.73,157.56 259.71,158.61 260.36,159.71 
				263.57,161.04 264.53,160.84 265.87,159.46 265.01,159.49 			"/>
			<polygon class="st2" points="266.24,150.41 263.6,149.02 260.33,148.21 259.35,148.51 259.96,148.92 261.82,150.13 
				265.03,151.14 266.29,151.08 			"/>
			<line class="st1" x1="111.31" y1="152.79" x2="111.3" y2="152.8"/>
			<polygon class="st2" points="90.43,138.13 91.18,134.26 88.79,134.54 88.69,134.53 87.49,134.08 87.33,135.25 87.8,136.77 
				89.1,137.88 90.03,139.42 91.53,140.95 92.64,140.95 90.46,138.22 			"/>
			<path class="st2" d="M281.48,137.25l-1.02-1.31l-1.89-0.44l-0.08-0.08l-0.97-2.84l-1.63-1.13l-3.92-0.87l-0.06-0.02l-2.28-2.02
				l-3.2-1.91l-0.04-0.13l0.96-2.14l-2.79-4.36l-3.24-4.66l-2-3.41l-1.73,1.83l-2.36,4.04l-3.52,1.97l-0.13-0.02l-1.74-2.07
				l-2.2-0.56l-0.08-0.08l-0.8-4.53l0.06-3.29l-4.42-0.28l-0.1-0.07l-0.72-1.41l-3.11-2.25l-2.34-1.32l-2.05,1.01l-0.08,0.01
				l-2.51-0.36l-4.31-1.06l-1.79,0.92l0.85,6.06l1.05,3.29l-0.01,0.1l-2.94,3.85l3.1,2.82l1.67,3l0.19,2.33l-0.01,0.07l-1.4,2.45
				l-2.75,2.39l-4.11,1.68l1.82,1.85l1.29,5.33v0.07l-1.31,3.34l-0.05,0.05l-1.78,1l-0.12-0.01l-3.64-3.08l-1.78-3.71l-0.79-3.45
				l0.4-3.09l-2.79-0.35l-4.03-0.19l-0.06-0.01l-2.7-1.49l-3.04-0.92l-0.06-0.03l-1.83-1.7l-2.5-1.34l-4.64-1.55l-3.4,0.68
				l-0.12-0.06l-1.12-2.62l-1.14-3.44l-3.58-0.59l-0.08-0.11l0.12-4.08l0.95-2.98l2.71-4.33l3.06-3.16l0.07-0.03l2.9-0.49l0.16-2.54
				l0.04-0.08l1.88-1.6l0.07-0.03l3.54-0.26l2.93-2.75l0.73-1.78l2.44-3.52l0.67-1.91l0.12-0.05l2.47,1.19l3.5-0.65l4.94-2.96
				l0.32-2.11l-1.7-2.22v-0.13l1.79-2.23l-0.15-2.22l-3.38-2.21l-3.73-0.66l-3.6-0.35l-0.13,4.83l-0.01,0.05l-1.78,3.67l-2.56,3.02
				h-0.13l-2.26-2.69l-0.02-0.1l0.73-3.16l-3.04-2.87l-3.3,3.38l0.01-4.39l-4.49-0.86l-0.03-0.11l2.11-2.07l-3.43-5.17l-2.55-2.05
				l-3.34-0.76l-2.99,3.4l-0.2,5.06l2.94,1.81l2.61,2.67l0.03,0.11l-1.07,4.16l-0.11,0.07l-1.92-0.1l-1.51,3.23l0.01-3.84
				l-3.93-1.49l-2.28,0.78l0.27,2.56l-0.09,0.09l-3.53-0.09l-3.81,0.67l-0.07-0.01l-4.39-1.92l-2.73,0.33l-0.09-0.03l-2.51-2.32
				l-2.01-1.03l-2.01,0.44l-3.06,0.2l-1.68,1.53l2.47,1.76v0.13l-2.48,1.97h-0.13l-2.6-2.5l-2.15,0.76l-6.74,0.51l-4.41-0.9
				l3.48-2.11l-3.46-2.26l-2.51,0.26l-3.38-0.73l-5.8-1.59l-3.89-1.88l-3.07-0.27l-0.93,1.28l-0.07,0.04l-2.86,0.68l-0.11-0.08
				l-0.34-3.32l-3.3,3h-0.14l-4.14-3.93l-1.79-0.49l-0.56,2.11l-0.05,0.07l-1.7,0.94l-0.13-0.02l-1.66-1.78l-4.17,1.14l-3.67,1.91
				l-0.07,0.01l-3.68-0.53l-3.09,1.42l-2.11,1.76l-0.1,0.03l-2.47-0.38l-4.04-2.13l-4.24-0.98l-0.62-0.18l-2.48-0.57l-3.81-1.35
				l-3.25,0.72h-0.07l-1.97-0.58l-4.78-0.42l-5.29-1.43l-2.61,0.44l-3.63-0.73l-0.08-0.11l0.13-0.96l-4.3-0.28l-1.01,0.81
				l-0.13-0.02l-1.32-1.49l0.65-0.22l-4.85-1.24l-3.82,2.42l-0.08,0.01l-2.25-0.29l-4.7,2l-2.5,0.53L13.04,73l-0.58,2.11l-0.05,0.07
				l-3.04,1.93l-0.1,0.03l-4.41,0.15l-1.45,2.35l3.48,1.38l2.35,1.77l1.83,2.18l3.08,1.59l1.9,2.43L16,89.09l-4.91,0.14L11,89.13
				l0.32-1.97H9.19l-5.61,2.05L0,90.97l3.19,2.39l1.1,1.67L7.98,96l3.46-0.44l0.11,0.01l1.96,0.89l0.73-0.86l0.08-0.07l2.52-0.84
				l1.47-0.06l-1.8,1.52l1.4,0.72l0.06,0.08l0.42,1.64l-0.05,0.12l-1.76,1.13l-0.08,0.01l-1.79-0.33l-1.96,1.85l-0.12,0.03
				l-1.64-0.6l-2.06,0.29l-0.94,2.06l-2.01,2.13l-0.99,2.26l1.9,1.6l0.05,0.09l0.01,2.1l1.73,0.91l2.13,1.77l3.2-0.7l0.11,0.02
				l1.46,1.21l0.03,0.12l-0.42,1.27l0.22,2.25H17l2.38-1.4l0.13,0.03l0.91,1.79l0.64-1.25l0.13-0.01l1.55,1.76l1.3-1.28h0.12
				l0.72,0.57l2.8-1.08l-1.21,2.07l-0.42,2.69L26,122.15l-1.79,1.23l-0.61,0.74l-3.42,2.11l-1.2,1.4l-0.07,0.04l-3.06,0.39
				l-2.62,1.9l-2.52,1.12l-2.77,1.64l0.44,0.65l4.38-1.02l2.03-1.13l2.53-1.19l2.26-0.95l0.06-0.03l1.73,0.27l2.96-1.51l0.78-1.63
				l0.05-0.05l3.87-1.82l0.61-1.55l0.06-0.07l2.46-1.08l2.69-1.51l2.4-2.68l-1.75-1.71v-0.14l3.49-2.55l1.76-2.54l3.01-2l0.14,0.02
				l0.5,0.71l-0.03,0.13l-2.53,1.1l-1.14,3.72l0.36,2.26l2.88-0.82l2.16-1.22l2.86-0.78l1.47-0.25l-0.5-2.53l0.06-0.11l2.59-0.75
				l0.09,0.01l2.95,1.59l4.91,1.72l3.53-0.3l5.63,1.7l2.31,1.26l3.94,2.89l2.95,1.06l3.96,0.09l2.33,0.23l0.1,0.07l1.31,3.34
				l3.23,2.88l0.71,3.09l2.15,1.07l1.18,1.1l0.25,0.45l0.05,1.6l3,2.46l0.04,0.07l0.43,2.7l3.12,1.4l0.06,0.11l-0.34,1.96l1.42,2.97
				l4.59,1.4l1.75,1.39l4.75,3.12l0.58,0.48l0.7,2.13l0.39,2.54l-0.02,0.08l-0.47,0.63l-0.12-0.02l-1.26-2.84l-3.68-1.1l-0.33,0.68
				l0.73,1.5l0.78,2.65l0.46,4.18l-0.6,5.59l-0.99,2.94l0.8,2.36l0.09,2.43l-0.55,2.57l1.3,1.56l0.05,0.1l0.33,2.35l1.98,2.48
				l1.01,0.88l0.04,0.11l-0.09,0.6l2.13,4.06l2.4,2.82l0.31,1.57l0.67,0.48l2.28,0.27l0.07,0.03l0.86,0.74l1.32,0.13l0.09,0.07
				l0.24,0.73l1.11,0.31l0.07,0.03l1.61,1.59l0.16,0.56c2.9-0.33,5.73-0.66,5.73-0.66v0.63l9.42,3.46h7.17v-1.25h4.42l3.17,2.58
				l1.25,1l0.5,2.08l1,1.17l1.92,1.08l0.92,0.42l0.75-0.83l0.5-1.08l0.83-0.67l1,0.08l1.42,0.25l0.92,0.75l0.75,0.67l0.67,1.5
				l0.75,1l1.75,2.42v1.58l1.08,1.58l1.25,0.42l0.92,0.67l2.13-0.14l-0.3-0.63l-0.12-1.22l0.02-1.78v-0.05l0.55-1.16l1.35-1.3
				l2.56-1.24l2.18-1.94l0.05-0.04l2.05-0.62l1.54-0.2l0.05-0.01l1.83,0.64l2.13-0.33l0.09,0.02l1.82,1.41l1.85,0.09l0.88-0.48
				l0.1-0.01l0.7,0.3l0.25,0.04l0.46-0.38l-0.51-0.53l-0.03-0.08l0.04-1.05l-0.37-0.61l0.04-0.13l0.87-0.36l1.9-0.19l2.27,0.3
				l2.77-0.35l1.5,0.65l1.28,1.31l0.48,0.14l2.47-1.21l0.1-0.01l0.89,0.38l1.95,2.27l0.67,1.44l0.01,0.09l-0.5,1.75l0.4,1.1
				l2.48,4.36l0.91,0.59l0.05,0.06l0.38,1.15l1.27,0.34l0.79-0.35l0.64-1.71l0.1-1.01l0.09-1.81l-1.17-3.08l-0.03-1.23l-1.12-1.93
				l-0.83-2.33l-0.43-1.83l-0.01-0.09l0.38-1.95l1.14-1.59l1.4-1.33l2.8-1.85l0.35-0.94l1.25-1.02l1.26-0.18l1.59-1.61l0.05-0.04
				l2.61-0.84l1.61-2.14l-0.36-2.91l-0.26-1.01l-0.63-0.17l-0.08-0.1l-0.1-2.66l-1.39-0.76l1.35,0.37l-0.55-1.87v-0.08l0.39-1.03
				l0.27,2.24l1.21,1.05l0.03,0.12l-0.01,0.02h0.01l0.02,0.09l0.11-0.03l0.48,0.25l0.38-0.61l0.81-1.15l-0.04-1.14l-0.62-0.52
				l-0.46-1.38l0.68,0.62l0.47,0.12l0.08,0.08l0.18,0.78l1.9-2.36l0.56-2.19l-0.59-0.11l-0.04-0.11l0.53-0.56l0.14,0.28l1.49-0.01
				l3.56-0.91l-0.82-0.64l-3.31,0.5l1.72-0.7l2.56-0.3l1.78-0.51l1.25,0.04l1.2-0.34l-0.07-0.69l-0.69-0.05l-0.09-0.06l-0.75-1.42
				l-0.02-0.06l0.03-1.58l0.42-0.67l1.26-1.75l0.09-0.07l2.61-0.89l2.59-1.06l2.58-1.45l0.07-1.05l2.33-0.32l3.83-0.1l-4.21,2.48
				l0.1,2.67l1.96,0.23l2.8-2.21l2.48-1.24l5.59-1.87l3.13-2.06l-1.62-1.14l-0.05-0.07l-0.18-2.34l-2.55,3.58l-0.07,0.05l-4.05,0.44
				l-3.18-1.52l-0.06-0.07l-0.78-2.27l-0.78-3.37l0.03-0.11l2.34-2.13l-2.28-1.63l-3.77,0.33l-5.28,2.68l-4,4.18l-1.95,0.48
				l2.76-2.81l3.54-4.19l0.05-0.04l3.2-1.44l2.05-2.3l0.08-0.04l2.52-0.22l3.72,0.02l5.44,0.69l4.21-0.54l3.14-2.7l4.13-1.19
				l1.81-1.17l1.84-1.27L281.48,137.25z"/>
			<polygon class="st2" points="288.47,154.14 288.13,152.33 286.53,152.83 286.45,152.76 287.18,150.54 284.61,149.52 
				283.51,150.28 283.4,150.29 281.43,149.5 281.39,149.37 282.2,148.32 280.44,147.58 278.95,148.58 280.51,145.88 281.82,143.83 
				282.33,142.88 281.09,142.72 278.89,143.87 277.31,145.8 274.77,150.92 272.61,152.94 273.61,153.74 273.61,153.87 
				272.16,154.92 272.57,155.92 277.48,156.02 280.2,155.84 282.34,156.53 282.36,156.64 280.67,158.07 282.3,158.2 285.14,155.51 
				285.27,155.5 285.77,155.79 285.82,155.9 285.29,158.43 286.99,159.04 288.17,158.92 289.24,156.09 			"/>
			<polygon class="st2" points="145,34.88 144.95,34.58 145.2,34.71 146,33.15 142.4,32.28 138.72,32.84 136.63,34.62 140.43,36.38 
							"/>
			<polygon class="st2" points="126.2,47.68 129.78,48.6 140.81,48.01 135.85,50.13 136.18,51.83 140.04,51.72 146.35,49.57 
				154.85,48.79 156.39,46.36 155.94,43.8 153.27,43.57 151.14,44.38 151.02,44.34 150.12,42.64 149.26,40.14 146.63,39.53 
				144.28,41.47 147.75,46.23 147.7,46.32 143.64,45.97 143.58,45.96 139.13,42.92 132.06,41.17 129.67,42.64 			"/>
			<polygon class="st2" points="120.85,43.46 125.41,41.28 127.81,41 129.76,39.16 130.11,35.01 126.62,35.81 122.76,35.74 
				117.59,39.19 113.3,43.11 116.78,44.26 			"/>
			<polygon class="st2" points="111.46,66.4 112.77,68.41 119.2,66.25 119.12,66.02 119.45,65.94 119.45,64.19 119.48,64.11 
				122.49,60.92 128.61,57.56 131.88,56.29 129.09,54.18 126.67,52.76 120.34,52.5 116.69,51.46 108.13,52.24 110.56,55.22 
				110.57,55.35 108.45,58.44 106.73,61.87 105.62,63.91 111.41,66.36 			"/>
			<polygon class="st2" points="32.73,234.49 32.31,234.14 31.09,233.56 30.34,233.2 30.66,234.17 30.64,234.28 30.27,234.64 
				30.14,234.96 30.53,235.83 30.55,235.91 30.48,236.67 31.15,237.06 31.6,236.59 33.5,235.57 33.27,235.25 			"/>
			<polygon class="st2" points="21.36,228.3 20.7,228.76 21.5,229.21 21.76,229.33 22.06,229.02 22,228.36 			"/>
			<polygon class="st2" points="24.61,230.04 25.04,230.82 26.53,230.99 25.37,229.63 			"/>
			<polygon class="st2" points="4.18,111.74 1.6,112.42 3.24,113.51 4.87,114.21 6.19,113.71 6.41,113.55 6.41,113.31 6.21,112.08 
							"/>
			<polygon class="st2" points="29.49,232.72 30.86,232.42 29.76,231.75 29.48,231.68 29.48,231.59 29.15,231.59 28.19,231.34 
				28.39,231.59 28.25,231.59 28.88,232.19 29.34,232.76 29.46,232.73 29.49,232.76 			"/>
			<polygon class="st2" points="37.32,120.67 35.95,121.23 33.67,122.52 34.06,124.26 35.39,125.21 37.89,123.85 37.79,123.66 
				37.93,123.82 40.12,122.1 39.02,120.92 			"/>
		</g>

		
    <g id="france">
			<polygon class="st2" points="436.51,149.82 436.38,149.83 435.87,149.9 435.8,149.9 435.28,149.64 433.04,148.12 431.82,148.36 
				431.72,148.33 430.01,146.82 429.9,146.74 428.83,145.53 427.75,145.47 427.66,145.4 427.32,144.29 425.05,144.98 424.31,147.63 
				424.25,147.7 418.57,150.17 418.46,150.17 416.07,148.75 416.85,152.35 416.77,152.44 412.74,151.64 409.44,152.35 409.7,154.77 
				413.55,156 415.39,157.6 417.93,160.85 417.95,160.94 417.49,166.96 417.46,167.06 416.17,168.88 417.21,170.1 421.85,171.49 
				422.7,170.88 422.82,170.87 425.57,172.2 428.52,171.8 428.79,170.05 428.88,169.96 432.41,169 437.37,169.82 439.67,168.07 
				439.97,166.67 438.65,166.3 438.57,166.22 437.97,164 437.99,163.9 438.82,162.99 438.1,161.85 438.09,161.77 438.19,160.93 
				437.29,159.5 436.24,159.94 436.14,159.87 436.17,158.71 436.21,158.62 438.01,156.87 437.94,156.22 438.04,156.14 439.03,156.4 
				439.75,155.83 440.06,153.59 441.36,151.28 437.71,150.67 			"/>
			<polygon class="st2" points="444.57,170.03 442.89,171.25 442.36,172.4 442.95,174.46 444.16,175.1 445.01,172.71 			"/>
		</g>
		<g id="africa">
			<polygon class="st2" points="546.4,319.04 545.77,317.36 545.21,316.44 545.23,316.38 544.21,315.12 543.34,316.31 543.3,317.81 
				543.27,317.88 542,319.52 541.88,319.55 540.83,319.26 541.17,320.36 541.16,320.46 540.48,321.62 538.37,323.26 537.01,324.67 
				536.93,324.7 535.89,324.73 534.95,325.2 533.64,325.71 532.28,325.83 531.91,327.54 531.06,328.95 531.27,331.38 531.75,333.01 
				532.29,334.13 532.31,334.25 532.11,335.78 532.1,335.83 530.9,337.82 530.89,338.6 530.82,338.7 529.74,339.13 529.28,341.06 
				529.53,343.01 530.38,345.03 530.56,347.43 531.27,348.86 534.73,350.52 536.88,349.4 538.98,348.74 540.13,345.62 
				541.09,341.96 542.64,337 543.88,333.41 544.86,330.35 545.02,328.26 545.06,328.18 545.7,327.62 545.93,326.5 545.47,324.66 
				545.49,324.57 545.82,324.03 545.94,324.04 546.73,325.45 547.22,324.61 547.47,323.36 546.81,322.09 			"/>
			<polygon class="st2" points="549.1,255.36 549.05,254.65 548.04,254.65 546.91,255.49 546.86,255.52 545.51,255.78 
				544.45,256.13 543.62,256.2 542.15,256.28 541.3,256.72 539.98,256.92 537.89,257.68 535.06,258 532.74,258.64 531.78,258.63 
				530.14,256.99 529.92,256.54 529.34,256.2 528.84,255.92 528.19,255.51 528.2,255.4 529.47,254.86 529.55,253.75 529.13,253.2 
				528.78,252.77 528.74,252.85 528.59,252.71 527.72,252.17 525.58,249.83 524.16,248.35 520.8,245.98 519.46,244.78 519.4,244.68 
				518.71,242.34 517.43,239.72 516.98,239.16 514.93,237.76 514.88,237.7 513.98,234.66 513.63,232.06 513.67,231.95 
				514.18,231.51 513.41,229.07 512.93,228.41 510.07,226.08 510.03,226 509.96,224.43 510,224.34 510.48,223.9 508.23,220.96 
				507.39,219.4 506.47,217.96 504.57,213.76 503.04,211.05 502.04,208.26 502.06,208.15 502.12,208.1 502.24,208.12 503.96,211.87 
				505.96,214 506.6,213.48 507.29,212.03 507.81,210.05 508.53,208.89 506.86,204.11 506.49,204.31 505.67,204.8 505.55,204.83 
				503.73,204.68 501.62,204.01 501.12,204.78 501.01,204.77 500.4,203.56 498.59,203.21 496.36,203.43 495.33,204.23 
				493.46,205.07 493.37,205.08 492.27,204.67 489.79,203.85 487.38,203.12 484.3,203.16 483.95,202.93 483.48,202.22 481.04,201.9 
				480.18,201.42 479.33,201.41 479.24,201.36 478.42,200.17 475.01,199.59 473.26,199.97 471.44,201.29 470.64,202.67 
				471.2,204.72 471.18,204.84 470.05,206.03 468.9,206.7 468.79,206.7 466.17,205.37 462.65,204.22 460.48,203.71 460.41,203.65 
				459.26,201.23 455.89,199.97 453.8,199.5 452.76,199.74 449.62,198.72 448.91,198.39 448.85,198.34 448.24,197.04 447.03,196.99 
				446.93,196.92 446.51,195.58 446.54,195.46 448.13,194.1 448.46,191.59 447.63,190.92 447.59,190.82 447.6,189.65 447.64,189.57 
				448.74,188.33 448.85,188.12 448.66,187.55 446.67,188.54 446.58,188.48 446.64,187.17 444.83,186.81 442.29,187.91 
				441.64,188.02 440.45,188.14 440.37,188.12 439.39,187.48 436.68,187.5 434.38,188.61 434.29,188.62 433.07,188.21 
				428.91,188.44 424.64,188.97 422.25,189.84 420.74,190.97 420.67,191 417.95,191.51 415.85,192.88 415.34,193.04 414.51,193.02 
				411.9,192.38 409.58,192.58 409.5,192.55 408.03,191.38 406.14,191.37 405.34,193.14 403.69,196.05 401.86,197.2 399.31,198.5 
				397.69,200.41 397.36,201.88 396.4,204.27 397.02,207.63 396.99,207.73 394.99,209.91 393.68,210.7 391.77,212.5 391.7,212.53 
				389.41,212.82 388.08,213.92 386.55,216.61 386.51,216.67 384.82,217.66 383.91,219.33 383.83,220.81 383.22,222.25 
				383.16,222.3 382.36,222.71 380.94,224.45 380.09,226.29 380.24,227.14 380.22,227.22 379.47,228.48 378.47,229.25 
				378.41,229.95 378.31,230.05 378.63,230.96 378.24,231.58 379.61,232.79 380.2,233.92 380.21,234 379.97,235.25 380.27,236.56 
				380.55,239.1 380.25,241.47 379.54,242.81 379.69,243.75 379.93,244.01 379.76,244.17 379.16,245.49 378.01,247.22 
				377.96,247.28 376.79,247.81 377.28,248.16 378.1,248.74 378.99,250.46 379.05,250.96 378.91,251.52 378.88,252.23 
				379.17,253.64 379.31,253.72 379.19,253.76 379.38,254.37 380.08,254.86 380.13,254.96 380.12,255.27 380.72,256.02 
				381.71,256.17 381.77,256.18 382.92,257.09 383.43,257.43 383.76,257.61 383.81,257.65 384.15,258.16 384.47,259.33 
				385.13,259.86 385.77,260.2 386.7,261.15 387.59,262.34 387.85,262.84 388.14,264.53 388.56,265.42 389.88,266.78 391.73,267.81 
				392.09,267.89 392.55,268.15 394.08,269.61 396.18,270.97 398.5,272.91 401.05,274.09 401.43,274.08 402,274.09 402.21,274.13 
				404.71,273.2 406.36,272.5 409.35,272.05 410.89,272.01 412.73,272.51 413.55,272.48 414.1,272.56 416.12,273.21 418.43,272.45 
				419.78,271.61 423.25,270.3 423.31,270.3 423.91,270.09 425.38,269.69 425.94,269.57 427.5,269.35 428.07,269.31 431.78,269.28 
				431.87,269.31 433.54,270.88 434.44,272.77 435.77,274.32 437.81,274.38 438.73,273.84 438.81,273.82 439.71,273.95 
				441.93,273.18 442.33,273.77 442.84,274.06 442.89,274.11 443.39,275.21 444.49,275.62 444.55,275.67 445.47,277.22 
				445.49,277.31 445.2,278.86 445.08,279.42 444.27,282.05 444.58,282.3 444.67,282.68 444.24,284.27 443.67,286 443.09,286.89 
				443.01,287.75 444.55,290.37 446.21,292.44 448.57,294.76 448.96,295.2 450.59,297.3 450.89,297.76 451.39,299.2 451.62,299.74 
				451.7,299.92 451.7,300.38 451.54,300.7 452.83,302.36 454.06,306.34 454.04,306.44 453.31,307.38 453.18,307.94 454.47,311 
				455.18,311.83 455.22,311.94 455.35,313.31 455.1,315.17 454.3,316.29 452.84,317.99 452.25,319.04 451.44,321.36 451.32,322.41 
				450.45,324.79 450.1,327.04 450.28,328.3 450.39,328.93 450.53,330.7 452.53,333.2 453.11,334.87 454.44,338.02 455.74,340.19 
				456.64,341.18 456.68,341.23 457.01,342.67 457.07,345.86 457.91,349.95 458.52,351.86 459.09,354.52 460.09,356.5 
				461.67,358.24 461.99,358.69 463.71,362.07 464.97,364.39 466.56,366.9 466.6,367 466.66,368.99 466.61,369.08 465.85,369.56 
				466.65,371.4 466.67,371.46 466.65,373.11 466.93,373.73 467.25,373.66 468.21,374.78 469.02,374.82 469.09,374.86 
				470.13,375.84 471.3,375.76 472.91,374.68 475.02,374.23 477.48,373.16 477.55,373.13 478.59,373.28 480.04,372.95 
				480.09,372.94 482.81,373.48 484.01,372.96 484.09,372.96 485.6,373.38 485.9,372.64 485.99,372.57 487.22,372.42 489.83,371.33 
				491.73,370.05 493.48,368.39 496.33,365.51 497.75,363.54 498.43,362.15 499.44,360.82 501.69,359 502.34,357.76 502.63,355.55 
				503.33,353.3 503.52,352.11 502.94,351.94 502.86,351.86 502.69,350.91 502.72,350.8 503.67,349.93 506.73,348.45 508.82,347.55 
				509.88,346.59 510.27,345.43 509.74,345.03 509.7,344.91 510.07,343.78 510.14,341.6 510.1,341.17 509.82,341.23 509.69,341.13 
				509.65,340.47 509.15,338.93 508.01,337.03 507.99,336.95 508.18,335.23 508.24,335.14 509.24,334.54 510.92,332.77 
				511.92,332.27 514.79,329.47 519.86,327.26 521.46,325.66 522.44,323.85 523.19,322.02 522.74,320.71 522.64,316.75 
				522.33,314.54 522.44,312 522.14,311.18 521.66,310.64 521.14,310.32 521.09,310.26 520.06,307.8 519.22,306.28 519.21,306.21 
				519.37,305.04 519.24,304.32 519.25,304.24 519.92,302.77 519.84,302.07 518.29,301.19 518.23,301.1 518.09,299.85 
				518.09,299.78 519.12,296.99 519.41,296.58 520.25,295.88 520.72,294.26 521.54,293.19 521.88,291.52 521.97,291.43 
				522.83,291.26 523.4,290.27 523.44,290.21 524.94,289.35 525.46,288.94 525.78,288.61 526.39,287.25 529.09,284.27 
				531.39,282.39 535.18,279.87 537.69,277.83 540.62,274.42 542.77,271.59 544.91,267.91 546.46,264.7 547.66,261.86 
				548.33,259.23 548.9,258.23 548.88,256.94 			"/>
		</g>
		<g id="latin_america">
			<polygon class="st2" points="228.48,238.31 226.9,238.09 226.89,238.08 226.2,237.97 225.11,238.17 224.78,238.82 226.26,239.79 
				227.69,240.22 228.44,239.78 230.28,239.74 229.82,238.94 			"/>
			<polygon class="st2" points="332.82,298.6 331.9,297.79 329.7,297.67 327.88,296.99 324.6,294.15 320.91,292.09 317.12,292.18 
				312.28,290.87 309.56,291.59 309.48,291.51 309.85,290.29 308.59,288.79 304.41,287.25 301.25,286.35 299.49,287.87 
				299.4,287.83 299.31,285.49 294.9,285.1 294.83,285.06 294.2,284.46 294.2,284.32 296,282.35 295.94,280.57 294.64,280.17 
				294.56,280.09 293.18,275.77 292.55,274.36 291.92,274.45 291.61,274.27 291.29,273.48 288.62,271.35 286.14,270.54 
				285.53,270.36 283.22,269.79 281.17,269.97 280.94,270.35 280.83,270.4 278.52,270.01 278.52,269.46 278.08,269.9 277.77,269.78 
				275.6,267.82 274.77,267.77 274.68,267.68 274.62,266.49 273.05,264.83 271.75,264.09 271.74,263.43 271.33,263.84 
				270.43,263.28 269.24,263.33 269.13,263.25 268.76,261.34 266.83,260.08 265.63,259.97 268.48,259.59 268.58,257.61 268,257.52 
				266.51,257.86 266.56,258.83 266.53,258.92 265.44,259.95 264.89,259.9 264.8,259.85 264.09,258.86 264.13,258.74 264.37,258.66 
				264.25,257.98 263.07,257.99 259.93,258.15 259.9,258.73 259.84,258.83 258.58,259.54 258.5,259.55 256.65,259.26 255.2,258.12 
				252.55,258.38 250.4,258.36 250.3,258.27 250.22,257.54 248.56,256.1 246.88,256.06 246.78,256 245.9,254.25 244.95,255.12 
				245.26,256.21 245.2,256.33 242.18,257.33 242.3,259.3 243.03,260.13 243.05,260.24 242.55,261.89 242.46,261.97 241.6,262.1 
				241.48,262.03 240.62,260.23 240.63,260.11 241.69,258.71 241.73,257.35 241.07,256.42 240.9,255.79 242.41,255.39 
				242.92,254.48 242.23,253.77 241.3,253.61 240.08,254.85 239.09,255.42 237.18,256.66 237.1,256.68 235.17,256.47 234.99,256.93 
				234.89,257 233.4,257.05 231.93,258.24 231.47,260.44 231.45,261.13 231.37,261.23 230.44,261.47 228.61,263.19 228.52,263.23 
				227.53,263.16 227.1,262.94 226.42,262.43 225.59,261.67 224.46,261.22 223.23,261.15 223.06,260.88 221.75,260.73 
				220.83,261.52 219.34,262.03 218.35,262.62 217.98,262.68 217.04,262.76 216.48,262.26 216.09,262.4 215.32,262.32 
				215.24,262.21 215.28,261.8 214.48,260.99 213.95,260.48 213.2,259.79 212.27,258.81 211.74,257.71 211.39,257.24 211.26,257.12 
				211.21,257.02 211.11,256.46 211.14,256.37 211.62,255.76 211.45,255.15 211.44,255.08 211.65,254.06 211.7,253.99 
				212.06,253.77 211.99,252.56 211.85,251.94 211.93,250.82 212.19,249.84 212.78,248.91 212.54,248.05 212.53,247.99 
				212.66,247.41 212.37,246.57 212.17,246.35 211.26,245.96 210.52,245.37 209.76,244.9 209.36,244.83 208.2,244.48 207.64,244.71 
				207.1,244.75 206.44,244.58 205.65,244.46 205.29,244.77 204.63,245.01 203.48,245.1 202.23,244.86 201.93,244.96 201.82,244.94 
				201.64,244.77 200.89,244.82 200.41,245.22 200.3,245.24 199.46,244.9 199.45,244.91 199.33,244.86 199.18,245.14 199.04,245.17 
				198.38,244.8 198.47,244.7 198.84,244.03 198.93,243.97 199.32,243.9 199.82,243.19 200.12,241.86 199.99,241.66 199.97,241.57 
				200.22,240.71 200.03,240.36 200.02,240.26 200.4,239.2 200.45,238.43 200.06,238.43 199.98,238.34 199.98,237.11 198.58,239.53 
				198.45,239.56 198.09,239.32 197.38,239.83 193.1,239.81 193.1,241.16 193,241.26 191.89,241.26 192.54,241.86 192.94,242.23 
				193.77,242.75 193.82,242.8 194.12,243.37 194.43,243.49 194.5,243.59 194.46,244.22 194.36,244.31 191.25,244.32 190.02,246.46 
				190.34,246.89 190.35,247 190.09,247.53 190.03,248.31 191.44,249.4 192.57,249.9 194.08,249.94 195.04,250.25 195.52,250.49 
				196.09,250.93 197.44,251.08 198.55,251.6 199.48,251.84 200.58,251.87 201.88,252.87 201.91,252.92 202.75,253.7 203.75,254.45 
				204.37,255.37 206.06,256.88 206,257.68 206.4,257.92 206.43,258.01 206.15,258.69 206.13,259.48 206.49,260.02 207.29,260.27 
				207.9,261.02 208.44,260.34 208.3,259.7 208.81,260.05 208.86,260.12 209.02,260.82 209.9,261.15 210.82,261.6 211.53,262.21 
				211.57,262.29 211.64,262.71 211.62,262.8 211.34,263.22 211.88,263.79 212.87,264.19 212.95,264.26 213.64,264.19 
				214.07,264.39 214.07,264.18 214.62,264.17 214.68,264.18 215.38,264.48 216.29,264.63 216.37,264.69 216.85,265.65 
				217.74,265.81 217.94,265.53 218.05,265.55 218.43,266.89 219.66,266.75 220,266.4 220.75,266.02 219.6,264.69 219.58,264.57 
				219.74,264.23 219.83,264.16 220.3,264.08 221.33,263.44 221.81,262.62 221.9,262.56 222.82,262.43 222.97,262.46 224.06,263.06 
				224.11,263.09 224.59,263.94 225.05,264.06 225.08,264.18 224.58,264.72 225.13,266.13 225.58,266.52 226.03,266.98 227,268.41 
				227.35,270.25 227.32,270.34 226.82,270.95 227.39,273.25 226.91,274.74 227.74,275.27 227.76,275.41 226.89,276.6 
				225.89,278.11 225.8,278.16 224.61,278.32 224,279.27 224.1,280.41 224.02,280.51 223.15,280.68 223.42,281.29 223.29,281.6 
				221.87,282.42 220.41,283 220.58,283.99 220.56,284.07 219.63,285.68 219.2,287.12 219.14,287.2 218.29,287.56 218.71,289.8 
				218.69,289.89 218.2,290.58 219.77,291.73 220.64,290.68 220.77,290.69 221.18,291.53 221.17,291.65 220.03,293.27 
				219.56,293.71 217.9,295.03 217.11,296.82 218.29,299.15 218.28,299.27 217.5,300.35 219.33,301.39 221.22,302.96 221.26,303.01 
				222.06,304.87 223.08,306.01 225.45,311.04 227.92,315.73 229.98,318.98 229.98,319.09 229.61,319.77 230.67,321.91 
				232.63,323.51 237.11,326.31 241.99,328.85 242.06,328.94 242.26,329.94 244.57,331.3 244.8,331.71 245.28,335.08 245.46,339.35 
				244.68,345.24 243.88,350.78 243.43,355.91 241.96,359.28 242.26,362.61 242.26,362.65 241.51,364.92 242.07,369.14 
				241.03,373.23 239.29,377.77 237.8,382.29 237.7,382.36 236.7,382.45 236.93,385.79 237.62,388.55 237.61,388.63 236.49,390.59 
				235.63,396.11 234.83,400.48 236.51,400.93 237.27,397.27 237.39,397.21 238.8,397.88 238.86,398 237.61,404.03 237.49,404.09 
				234.8,403.05 233.97,408.15 233.95,408.22 231.52,411.05 235.19,411.94 235.21,412.04 232.71,414.36 231.64,417.46 
				231.96,423.02 233.18,425.16 233.19,425.25 232.5,427.14 233.3,429.29 236.42,431.23 239.3,433.6 242.14,434.72 243.26,434.63 
				243.65,431.5 243.72,431.41 245.92,430.22 246.91,429.54 250.21,429.51 248.54,426.86 247.93,424.26 247.95,424.17 
				248.88,422.76 248.92,422.71 251.22,421.42 252.84,417.65 252.89,417.59 255.81,415.8 256.69,412.87 254.28,412.23 
				251.89,409.99 251.86,409.88 252.53,407.68 252.58,407.62 254.45,406.1 254.53,406.07 256.87,406.06 257.48,404.33 
				257.84,401.34 257.87,401.27 259.79,399.47 262.17,398.47 261.37,396.81 260.04,397.74 259.92,397.74 258.4,396.92 
				258.33,396.83 258,394.03 258.05,393.92 258.87,393.26 258.98,393.25 261.32,394.3 263.91,393.88 265.46,392.81 264.99,391.36 
				264.99,391.25 265.49,389.08 265.02,387.5 265.09,387.41 267.71,387.68 272.75,387.05 276.44,385.5 278.87,381.77 279,380.32 
				277.49,379.12 277.45,379 277.78,377.11 274.65,374.71 274.6,374.61 274.71,373.62 274.93,373.52 276.21,374.83 277.84,374.73 
				277.95,374.75 280.24,375.95 281.51,375.65 281.58,375.64 283.46,376.22 286.32,374.63 287.29,373.02 287.72,372.51 
				289.07,371.2 290.2,368.56 291.92,367.24 294.14,365.01 296.87,360.27 298.65,358.73 299.23,357.35 299.69,354.64 299.28,353.21 
				299.27,353.17 299.6,351.25 299.62,351.2 301.67,348.61 304.63,346.48 307.47,345.67 309.29,344.48 313.09,343.5 315.92,343.5 
				316.49,341.94 316.55,341.88 318.53,340.76 318.93,338.12 318.96,338.06 321.5,334.64 321.92,331.25 321.93,331.18 
				322.73,330.15 323.7,324.43 323.52,319.74 324.18,317.92 324.27,317.85 324.82,317.81 326.7,315.55 328.27,312.72 331.82,309.17 
				333.09,307.53 334.09,303.34 			"/>
			<polygon class="st2" points="226.21,216.84 226.12,216.05 224.38,215.98 223.19,216.2 223.38,217.29 			"/>
			<polygon class="st2" points="227.29,217.98 227.98,218.07 228.27,216.75 226.83,215.88 227.31,217.02 			"/>
			<polygon class="st2" points="226.9,222.77 226.01,220.52 225.18,220.4 224.62,222.17 225.53,222.9 225.57,222.94 226.23,224.52 
				226.65,224.42 226.6,224.08 226.91,224.08 			"/>
			<polygon class="st2" points="238.71,235.66 238.69,236.55 239.73,237.57 239.72,237.71 239,238.17 238.93,238.18 237.11,237.98 
				234.75,237.61 234.52,238.54 235.92,239.37 237.02,238.9 237.08,238.88 238.66,239.06 239.85,238.9 241.39,239.31 241.39,239.32 
				241.52,240.05 242.23,240.5 243.23,238.74 243.29,238.68 243.95,238.39 244.08,238.43 244.41,238.97 245.42,238.81 
				245.82,238.38 245.92,238.35 246.71,238.46 247.72,238.34 247.8,238.35 249.02,238.93 250.02,237.81 248.73,236.82 
				247.74,236.73 247.66,236.63 247.72,235.94 246.41,236 246.31,235.93 245.88,235.07 245.22,235.13 243.72,234.46 241.73,234.45 
				241.62,234.61 241.31,234.5 241.36,234.88 239.26,234.48 237.73,234.37 237.1,235.17 238.63,235.56 			"/>
			<polygon class="st2" points="254.24,239.5 256.15,239.51 256.84,238.82 256.35,238.25 255.02,238.01 252.98,238 252.59,238.41 
				252.74,239.59 			"/>
			<polygon class="st2" points="272.95,426.6 272.83,426.62 270.77,425.82 267.7,427.86 269.01,429.44 271.07,427.98 271.2,427.99 
				272.26,429.1 275.69,428.08 276.48,426.85 274.41,425.31 			"/>
			<polygon class="st2" points="210.61,229.25 210.93,228.67 211.02,228.62 211.98,228.59 213.74,227.25 213.82,227.22 
				216.07,227.34 215.18,227.96 216.13,228.53 219.31,228.91 219.38,228.93 220.14,229.49 222.49,230.19 223.8,230.1 223.9,230.16 
				224.46,231.56 225.35,232.33 226.89,232.48 226.95,232.49 227.83,233.07 227.84,233.21 226.17,234.64 229.85,234.38 
				231.63,234.58 233.34,234.44 235.01,234.11 235.35,233.44 233.4,232.33 231.7,232.24 231.63,232.14 231.78,231.52 230.24,230.97 
				229.46,231 229.39,230.97 225.75,228.19 224.85,227.56 222.57,227.85 222.47,227.82 221.53,226.91 219.16,226 217.19,225.97 
				215.11,225.79 215.04,226.03 214.95,225.83 214.38,226.09 212.49,226.35 211.22,226.86 210.09,227.45 209.56,228.39 
				208.15,229.26 209.33,229.55 			"/>
			<polygon class="st2" points="251.47,434.67 251.42,434.63 250.15,432.06 249.74,431.38 249.2,430.66 249.2,429.92 248.73,430.38 
				247.35,430.08 245.02,431.49 244.17,433.87 242.99,435.31 242.86,435.34 239.72,434.18 236.1,431.86 235.17,431.54 234.8,432.1 
				237.5,435.08 240.04,436.93 243.19,438.86 245.76,439.35 247.63,440.41 249.14,440.7 250.37,440.81 252.54,439.71 253.09,438.77 
				253.43,438.4 254.6,439.54 256.71,439.39 256.91,439.58 258.23,437.56 254.61,436.65 			"/>
			<path class="st2" d="M201.53,230.35l-2.27-0.08l-2.65,0.6l-1.69,0.69l-0.45,0.79l-0.2,2.19l-0.58,1.47l-0.04,0.06l-1.5,1
				l-1.61,0.47l-1.83,0.46l-1.98,0.28l-2.08,0.7l-0.11-0.03l-0.98-1.01l-2.62-0.68l-0.06-0.05l-0.9-1.15l-0.63-1.57l-1.62-1.87
				l-0.03-0.04l-0.51-2.04l-0.77-1.27l-0.43-1.41l0.25-1.31l0.18-3.52l0.43-1.91l0.81-1.96l-0.03-0.83l-2.13,0.14l-0.92-0.67
				l-1.25-0.42l-1.08-1.58v-1.58l-1.75-2.42l-0.75-1l-0.67-1.5l-0.75-0.67l-0.92-0.75l-1.42-0.25l-1-0.08l-0.83,0.67l-0.5,1.08
				l-0.75,0.83l-0.92-0.42l-1.92-1.08l-1-1.17l-0.5-2.08l-1.25-1l-3.17-2.58l-4.44-0.07v1.25l-7.15,0l-9.44-3.45v-0.63
				c0,0-2.81,0.39-5.71,0.73l0.19,0.64l0.21,0.67l0.88,2.13l3.01,5.72l1.51,0.79l1.84,1.85l0.03,0.09l-0.08,1.08l-0.03,0.07
				l-0.83,0.91l-0.11,0.03l-0.52-0.08h-0.2l-0.36,0.36l1.37,1.46l1.49,0.62l0.06,0.03l0.66,0.73l0.28-0.27l0.14-0.02l2.76,1.92
				l0.04,0.07l0.35,1.34l-0.07,2.02l1.3,0.69l1.78,1.25l1.61,1.46l0.04,0.05l0.68,1.64h0.5l1.08-0.99l0.06-0.51l-0.93-1.21
				l-1.01-1.21l-1.1-0.08l-0.1-0.09l-0.12-1.29l-0.71-1.27l-0.73-1.15l-0.83-2.51l-1.61-1.42l-0.51-0.91l-0.7-0.62l-0.06-0.1
				l-0.5-1.74l-0.37,0.04l-0.1-0.07l-0.3-0.84l-0.33-0.16l-0.08-0.07l-0.42-0.62l-1.81-1.82l-0.83-1.08l-0.04-0.06l-0.25-2.11
				l-0.39-1.24v-0.08l0.32-0.91l0.12-0.05l1.3,0.7l0.8-0.12l0.08,0.02l1.67,1.02l0.05,0.1l-0.04,0.97l0.91,2.15l1.33,2.03l0.11,0.86
				l1.2,1.35l1.46,1.43l1.27,0.2l0.08,0.07l0.6,1.81l1.54,1.34l1.13,0.56l0.06,0.12l-0.36,1.56l0.48,0.68l2.14,1.09l1.26,1.69
				l2.49,2.04l2.18,2.6l0.83,1.31l0.25,1.09l0.82,1.14l0.03,0.07l-0.01,0.79l-0.03,0.08l-0.55,0.66l0.22,0.62l-0.07,0.13l-0.75,0.22
				l0.66,1.36l1.24,1.62l2.65,1.45l1.09,1.2l2.61,0.83l1.3,0.14l0.08,0.04l0.59,0.65l2.13,1.25l2.86,1.2l1.83,0.35l2.38,1.19
				l1.81,0.47l1.81,0.69l1.33-0.27l2.02-0.96l1.32-0.19l1.96,0.63l1.3,0.83l2.89,2.81l0.12-0.65l0.01-0.13l0.3-0.63l-0.31-0.42
				l-0.01-0.12l1.11-1.91l0.1-0.06l3.17-0.01l0.07-0.96l-0.37-0.15l-0.07-0.06l-0.25-0.51l-0.94-0.6l-0.83-0.77h1.05v-1.37
				l0.09-0.09l4.19,0.02l0.36-0.07v-0.25l0.07-0.11l0.11-0.04l0.11,0.01l0.43,0.29l0.88-1.53l0.1-0.06l0.84-0.07l0.09,0.04
				l0.63,0.68l1.03-3.27l-0.4-0.4l-0.03-0.11l0.59-1.53l1.32-1.52l0.09-1.3l-0.64-0.59L201.53,230.35z"/>
		</g>
	
  
  </g>
</g>
</svg>
