<?xml version="1.0" encoding="utf-8"?>
<!-- Generator: Adobe Illustrator 19.1.0, SVG Export Plug-In . SVG Version: 6.00 Build 0)  -->
<svg version="1.1" id="Layer_1" xmlns="http://www.w3.org/2000/svg" xmlns:xlink="http://www.w3.org/1999/xlink" x="0px" y="0px"
	 viewBox="0 0 303.2 375.4" style="enable-background:new 0 0 303.2 375.4;" xml:space="preserve">
<style type="text/css">
	.st0{fill:#5BBBB7;}
	.st1{fill:#CAE3E9;}
	.st2{fill:#1E9D8B;}
</style>
<g>
	<g>
		<g>
			<g>
				<g>
					<path class="st0" d="M24.7,22.6c0,12.3,10,22.2,22.3,22.2c12.3,0,22.3-10,22.3-22.2c0-12.3-10-22.2-22.3-22.2h0
						C34.6,0.4,24.7,10.3,24.7,22.6z"/>
				</g>
			</g>
			<g>
				<path class="st0" d="M85.3,57.9l-0.4-1c-3.5-7.3-11.6-12.3-20.6-12.3C60.2,49.4,54,52.4,47,52.4h-0.1c-7,0-13.2-3-17.3-7.7
					c-9,0-17.1,5-20.6,12.3l-0.4,1C3.1,69.2,0,81.7,0,94.9c0,7.9,1.1,15.7,3.2,23.1H22V96.2h49.9V118h18.8
					c2.1-7.4,3.2-15.2,3.2-23.1C93.9,81.7,90.9,69.2,85.3,57.9z"/>
			</g>
		</g>
		<g>
			<g>
				<g>
					<path class="st0" d="M132,22.6c0,12.3,10,22.2,22.3,22.2c12.3,0,22.3-10,22.3-22.2c0-12.3-10-22.2-22.3-22.2h0
						C142,0.4,132,10.3,132,22.6z"/>
				</g>
			</g>
			<g>
				<path class="st0" d="M192.7,57.9l-0.4-1c-3.5-7.3-11.6-12.3-20.6-12.3c-4.1,4.7-10.3,7.7-17.3,7.7h-0.1c-7,0-13.2-3-17.3-7.7
					c-9,0-17.1,5-20.6,12.3l-0.5,1c-5.5,11.2-8.6,23.8-8.6,37c0,7.9,1.1,15.7,3.2,23.1h18.8V96.2h49.9V118h18.8
					c2.1-7.4,3.2-15.2,3.2-23.1C201.3,81.7,198.2,69.2,192.7,57.9z"/>
			</g>
		</g>
		<path class="st0" d="M246.1,177.9v0.9c0,25.8-20.6,46.7-46.1,46.7H0.1v-21.7c0.1,0,0.3,0,0.4,0c14.3,0,25.9-11.7,25.9-26.2
			c0-14.5-11.6-26.2-25.9-26.2c-0.1,0-0.3,0-0.4,0v-20.2H200C225.4,131.3,246.1,152.2,246.1,177.9z M221.9,177.6
			c0-14.5-11.6-26.2-25.9-26.2s-25.9,11.7-25.9,26.2c0,14.5,11.6,26.2,25.9,26.2S221.9,192.1,221.9,177.6z M124.2,177.6
			c0-14.5-11.6-26.2-25.9-26.2c-14.3,0-25.9,11.7-25.9,26.2c0,14.5,11.6,26.2,25.9,26.2C112.6,203.9,124.2,192.1,124.2,177.6z"/>
	</g>
	<g>
		<path class="st2" d="M303.2,35.5L296.6,53c-9.4-4.6-23-7.9-35.5-7.9c-30.5,0-48.4,16-54.6,40.3h70.6l-4.2,10.7h-68.2
			c-0.4,3.1-0.4,5.9-0.4,9c0,3.1,0,5.9,0.4,8.8h61.6l-3.7,10.7h-56.1c6.1,24.3,24.6,39.2,54.4,39.2c13.8,0,25.6-3.7,35.7-7.5
			l0.2,18.9c-11,5-23.5,8.1-40.3,8.1c-39.5,0-68.6-21.3-76.1-58.7h-19.3l3.9-10.7h14c-0.2-2.8-0.4-5.9-0.4-9.2c0-2.8,0-5.7,0.2-8.5
			h-18.6l3.9-10.7h16.2c7.5-38.4,37.5-59.8,76.9-59.8C273.6,25.6,291.1,29.6,303.2,35.5z"/>
	</g>
	<g>
		<path class="st1" d="M81.3,222.8c-0.6,0.2-1.1,0.7-1.3,1.3c-0.2,0.6,0,1.3,0.5,1.8l5.8,5.8L68.9,249c0,0,0,0,0,0l-2.1,2.1
			c-7.1-6.1-16.3-9.8-26.4-9.8C18.1,241.2,0,259.3,0,281.6C0,303.9,18.1,322,40.4,322c22.3,0,40.4-18.1,40.4-40.4
			c0-10.1-3.7-19.3-9.8-26.4l19.4-19.4l5.8,5.8c0.5,0.5,1.1,0.6,1.8,0.5c0.6-0.2,1.1-0.7,1.3-1.3l6.5-24.4L81.3,222.8z M64.8,306
			c-6.5,6.5-15.2,10.1-24.4,10.1c-9.2,0-17.9-3.6-24.4-10.1c-6.5-6.5-10.1-15.2-10.1-24.4c0-9.2,3.6-17.9,10.1-24.4
			c6.5-6.5,15.2-10.1,24.4-10.1c9.2,0,17.9,3.6,24.4,10.1c6.5,6.5,10.1,15.2,10.1,24.4C74.9,290.8,71.3,299.5,64.8,306z"/>
		<path class="st1" d="M165.8,310.5c15.8-15.8,15.8-41.3,0-57.1c-15.8-15.8-41.3-15.8-57.1,0c-15.8,15.8-15.8,41.3,0,57.1
			c7.1,7.1,16.3,11,25.6,11.7v0.7h0v23.3h-23.3v5.8h23.3v23.3h5.8V352h23.3v-5.8h-23.3v-23.3h0v-0.7
			C149.6,321.5,158.7,317.6,165.8,310.5z M112.9,306.4c-6.5-6.5-10.1-15.2-10.1-24.4c0-9.2,3.6-17.9,10.1-24.4
			c6.5-6.5,15.2-10.1,24.4-10.1c9.2,0,17.9,3.6,24.4,10.1c6.5,6.5,10.1,15.2,10.1,24.4c0,9.2-3.6,17.9-10.1,24.4
			c-6.5,6.5-15.2,10.1-24.4,10.1S119.4,312.9,112.9,306.4z"/>
	</g>
</g>
</svg>
