<?xml version="1.0" encoding="utf-8"?>
<!-- Generator: Adobe Illustrator 15.1.0, SVG Export Plug-In . SVG Version: 6.00 Build 0)  -->
<!DOCTYPE svg PUBLIC "-//W3C//DTD SVG 1.1//EN" "http://www.w3.org/Graphics/SVG/1.1/DTD/svg11.dtd">
<svg version="1.1" xmlns="http://www.w3.org/2000/svg" xmlns:xlink="http://www.w3.org/1999/xlink" x="0px" y="0px"
	 width="958.11px" height="374.173px" viewBox="0 0 958.11 374.173" enable-background="new 0 0 958.11 374.173"
	 xml:space="preserve">
<g id="New_Wordmark">
	<path d="M365.117,124.725h-38.066v49.577H287.42v-49.577h-38.067v124.723h38.067v-49.054h39.631v49.054h38.066V124.725
		L365.117,124.725z M497.567,224.398v-99.673h-38.066v124.723h68.832l5.736-25.05H497.567L497.567,224.398z M431.342,124.725
		h-38.065v124.723h38.065V124.725L431.342,124.725z M585.693,124.725h-38.066v124.723h38.066V124.725L585.693,124.725z
		 M773.419,156.558c0-6.784,6.779-9.916,17.729-9.916c11.994,0,25.03,2.609,33.895,6.263l-3.128-27.138
		c-9.908-2.087-18.772-3.651-34.938-3.651c-30.766,0-51.623,12.131-51.623,37.572c0,43.836,59.445,34.965,59.445,55.318
		c0,7.827-5.735,12.002-19.814,12.002c-12.516,0-31.81-4.175-43.281-9.915l4.172,28.701c11.472,4.177,27.115,6.264,39.63,6.264
		c31.81,0,57.882-10.437,57.882-41.749C833.386,168.561,773.419,176.388,773.419,156.558L773.419,156.558z M665.998,219.702
		c35.459,0,57.883-18.265,57.883-50.098c0-34.964-23.988-47.488-63.098-47.488c-15.121,0-33.372,1.042-46.408,2.609v124.723h38.066
		v-29.746H665.998L665.998,219.702z M686.336,170.125c0,16.178-7.822,27.138-27.638,27.138h-6.257v-51.533
		c2.215-0.13,4.302-0.13,6.257-0.13C677.47,145.6,686.336,154.47,686.336,170.125L686.336,170.125z M176.349,219.702
		c35.458,0,57.881-18.265,57.881-50.098c0-34.964-23.987-47.488-63.096-47.488c-15.122,0-33.373,1.042-46.41,2.609v124.723h38.066
		v-29.746H176.349L176.349,219.702z M196.685,170.125c0,16.178-7.822,27.138-27.637,27.138h-6.258v-51.533
		c2.216-0.13,4.302-0.13,6.258-0.13C187.821,145.6,196.685,154.47,196.685,170.125L196.685,170.125z"/>
</g>
<g id="Info">
</g>
</svg>
