<?xml version="1.0" standalone="no"?>
<!DOCTYPE svg PUBLIC "-//W3C//DTD SVG 1.1//EN" "http://www.w3.org/Graphics/SVG/1.1/DTD/svg11.dtd" >
<svg xmlns="http://www.w3.org/2000/svg">
<metadata>
Created by FontPrep 20130207 at Wed Nov 20 11:16:33 2013
 By MacMini
Copyright (c) 2012 by typedepot. All rights reserved.
</metadata>
<defs>
<font id="ea2dc55c37e347491b89b86847fd136c" horiz-adv-x='1024' >
  <font-face 
    font-family="CentraleSansCndXBold"
    font-weight="1000"
    font-stretch="normal"
    units-per-em="2048"
    panose-1="2 0 0 0 0 0 0 0 0 0"
    ascent="1536"
    descent="-512"
    x-height="1065"
    cap-height="1434"
    bbox="-106.023 -657 2259 1985"
    underline-thickness="102"
    underline-position="-102"
    unicode-range="U+000D-FB04"
  />
<missing-glyph horiz-adv-x="1144" 
d="M328 928v-701l129 348zM811 950l-139 -375l139 -380v755zM377 1260l184 -465l182 465h-366zM139 1462h867v-1749h-867v1749zM743 -88l-174 448l-184 -448h358z" />
    <glyph glyph-name="f_f" unicode="ff" horiz-adv-x="1247" 
d="M1145 1274q-94 0 -94 -96v-113h151v-246h-151v-819h-349v819h-206v-819h-349v819h-131v213l131 33v74q0 184 74 282t244 99q82 0 139 -17l21 -4l-29 -246q-24 4 -50 4q-50 0 -50 -90v-102h206v96q0 379 351 379q73 0 182 -20l-31 -254q-37 8 -59 8z" />
    <glyph glyph-name="f_i" unicode="fi" horiz-adv-x="1132" 
d="M639 1272q-143 0 -143 -131v-76h540v-1065h-348v819h-192v-819h-349v819h-131v213l131 33v74q0 131 69 220q125 161 382 161q181 0 328 -86l-101 -211q-109 49 -186 49z" />
    <glyph glyph-name="f_l" unicode="fl" horiz-adv-x="1210" 
d="M717 1112q0 78 -33 112t-78 33q-111 0 -110 -145v-47h114v-246h-114v-819h-349v819h-131v213l131 33v39q1 186 131 301t328 115t328 -116q131 -116 131 -302v-774q0 -78 72 -78q12 0 45 4v-242q-106 -33 -187 -32q-129 0 -203 68t-75 255v809z" />
    <glyph glyph-name="f_f_i" unicode="ffi" horiz-adv-x="1705" 
d="M1208 1292q-143 0 -143 -133v-94h541v-1065h-349v819h-192v-819h-348v819h-221v-819h-349v819h-131v213l131 33v74q0 184 74 282t244 99q82 0 139 -17l21 -4l-31 -248q-24 4 -50 4t-37 -17t-11 -60v-113h221v94q0 131 68 220q125 161 382 161q181 0 328 -86l-98 -205
q-94 43 -189 43z" />
    <glyph glyph-name="f_f_l" unicode="ffl" horiz-adv-x="1765" 
d="M1286 1128q0 78 -33 112t-77 34q-111 0 -111 -146v-63h115v-246h-115v-819h-348v819h-221v-819h-349v819h-131v213l131 33v74q0 184 74 282t244 99q82 0 139 -17l21 -4l-29 -246q-24 4 -50 4q-50 0 -50 -96v-96h221v59q0 186 130 301t328 115q199 0 329 -116t130 -302
v-794q0 -78 72 -78q12 0 45 4v-242q-106 -33 -186 -32q-129 0 -204 68t-75 255v825z" />
    <glyph glyph-name=".notdef" horiz-adv-x="1144" 
d="M328 928v-701l129 348zM811 950l-139 -375l139 -380v755zM377 1260l184 -465l182 465h-366zM139 1462h867v-1749h-867v1749zM743 -88l-174 448l-184 -448h358z" />
    <glyph glyph-name=".null" horiz-adv-x="0" 
 />
    <glyph glyph-name=".null" horiz-adv-x="0" 
 />
    <glyph glyph-name="nonmarkingreturn" horiz-adv-x="681" 
 />
    <glyph glyph-name="CR" unicode="&#xd;" horiz-adv-x="550" 
 />
    <glyph glyph-name="space" unicode=" " horiz-adv-x="460" 
 />
    <glyph glyph-name="exclam" unicode="!" horiz-adv-x="587" 
d="M294 334q77 0 126 -52t49 -130t-49 -129t-126 -51t-130 50q-53 52 -53 129t53 130t130 53zM88 1434h412l-64 -945h-280z" />
    <glyph glyph-name="quotedbl" unicode="&#x22;" horiz-adv-x="1075" 
d="M98 1434h363l-119 -650q-41 0 -110 3t-107 4zM655 1434h363l-123 -650q-39 0 -108 3t-109 4z" />
    <glyph glyph-name="numbersign" unicode="#" horiz-adv-x="1404" 
d="M610 831l-35 -243h218l36 243h-219zM408 1434h294l-47 -312h219l46 312h290l-47 -312h180l-45 -291h-178l-37 -243h181l-45 -293h-179l-45 -295h-288l45 295h-220l-43 -295h-296l43 295h-175l45 293h175l36 243h-178l45 291h178z" />
    <glyph glyph-name="dollar" unicode="$" horiz-adv-x="1044" 
d="M639 -240h-221v211q-211 12 -379 103l106 278q170 -86 333 -86t163 119q0 61 -42 93t-102 56q-59 24 -107 44q-115 47 -230 147q-115 99 -115 296t102 301t271 132v213h221v-211q176 -23 322 -92l-93 -270q-164 70 -295 69q-166 0 -165 -125q0 -45 30 -79t60 -49
q98 -51 143 -62q137 -57 251 -150q114 -94 114 -285q0 -192 -102 -294t-265 -135v-224z" />
    <glyph glyph-name="percent" unicode="%" horiz-adv-x="1509" 
d="M1169 184q25 0 40 35t16 96q1 129 -57 129t-58 -130t59 -130zM1466 317q0 -152 -85 -249t-217 -97q-132 1 -214 97t-82 248t85 248q85 98 216 98t214 -96t83 -249zM344 985q25 0 40 35t15 96q0 129 -57 129t-57 -130t59 -130zM262 0l699 1434h282l-692 -1434h-289z
M339 772q-132 0 -214 96t-82 248t85 249t216 97t214 -96t83 -248t-85 -249t-217 -97z" />
    <glyph glyph-name="ampersand" unicode="&#x26;" horiz-adv-x="1212" 
d="M508 1204q-33 0 -53 -24q-21 -24 -21 -69q0 -46 68 -136q80 69 80 149t-74 80zM356 438q0 -82 43 -126t115 -44t104 62l-192 276q-70 -51 -70 -168zM150 1108q0 146 97 250t249 104t249 -91q98 -91 99 -251q0 -195 -189 -344l160 -231q35 41 35 184h278q0 -297 -114 -465
l186 -264h-352l-49 68q-90 -96 -297 -96t-333 120q-126 121 -126 326q0 137 56 232t163 181q-66 98 -77 120q-35 67 -35 157z" />
    <glyph glyph-name="quotesingle" unicode="'" horiz-adv-x="524" 
d="M346 788l-217 3l-31 643h367z" />
    <glyph glyph-name="parenleft" unicode="(" horiz-adv-x="702" 
d="M372 1347q71 71 138 115l154 -209q-48 -51 -68 -71t-64 -84t-62 -120q-56 -169 -56 -349q0 -340 86 -491q45 -81 76 -121t88 -97l-154 -205q-70 47 -138 118q-315 324 -315 759q0 436 315 755z" />
    <glyph glyph-name="parenright" unicode=")" horiz-adv-x="702" 
d="M330 -167q-70 -71 -140 -118l-151 205q59 61 88 98t76 120q86 152 85 469t-121 492q-46 67 -63 84q-16 17 -67 70l153 209q70 -43 141 -114q312 -316 312 -757q0 -440 -313 -758z" />
    <glyph glyph-name="asterisk" unicode="*" horiz-adv-x="778" 
d="M76 1106l180 86l-180 82l102 182l146 -151l-35 235h198l-36 -235l147 151l104 -182l-182 -82l182 -86l-104 -182l-147 151l36 -231h-198l35 231l-146 -151z" />
    <glyph glyph-name="plus" unicode="+" horiz-adv-x="851" 
d="M311 1126h228v-297h243v-233h-243v-297h-228v297h-241v233h241v297z" />
    <glyph glyph-name="comma" unicode="," horiz-adv-x="528" 
d="M263 285q79 0 129 -68t50 -164q0 -236 -249 -366l-68 110q119 96 149 195q-16 -20 -63 -20t-84 37q-37 38 -37 109t47 119t126 48z" />
    <glyph glyph-name="hyphen" unicode="-" horiz-adv-x="868" 
d="M102 836h664v-230h-664v230z" />
    <glyph glyph-name="period" unicode="." horiz-adv-x="493" 
d="M88 134q0 73 45 121t112 48t113 -48t48 -121q0 -73 -46 -118t-116 -45q-68 0 -112 45t-44 118z" />
    <glyph glyph-name="slash" unicode="/" horiz-adv-x="913" 
d="M45 -78q443 1287 541 1577h280l-542 -1577h-279z" />
    <glyph glyph-name="zero" unicode="0" horiz-adv-x="1257" 
d="M633 268q190 0 190 449t-194 448q-195 -1 -195 -449t199 -448zM1184 719q0 -344 -156 -546t-400 -202q-243 0 -399 199q-155 199 -155 544t157 547q158 201 400 201q241 0 397 -200t156 -543z" />
    <glyph glyph-name="one" unicode="1" horiz-adv-x="774" 
d="M639 1434v-1434h-336v1034l-188 -71l-105 237l377 234h252z" />
    <glyph glyph-name="two" unicode="2" horiz-adv-x="1073" 
d="M495 1462q207 0 335 -123t128 -340q0 -140 -54 -230q-24 -40 -35 -59q-11 -20 -46 -60t-45 -52t-53 -56t-51 -53l-191 -198h523v-291h-910v289l406 424q135 143 135 247t-56 154q-56 51 -155 51t-283 -78l-92 256q236 119 444 119z" />
    <glyph glyph-name="three" unicode="3" horiz-adv-x="1007" 
d="M471 1462q203 0 311 -112t107 -289q0 -219 -180 -322q225 -94 225 -344q0 -199 -129 -311t-362 -113q-233 0 -396 121l94 238q125 -68 235 -68t161 52q49 52 49 140t-65 133q-65 44 -150 44h-95v250h105q74 1 124 33t50 100q0 143 -154 143q-118 0 -249 -47l-80 250
q36 26 156 64t243 38z" />
    <glyph glyph-name="four" unicode="4" horiz-adv-x="1085" 
d="M559 543v393l-233 -393h233zM895 1434v-891h123v-252h-123v-291h-336v291h-522v237l541 906h317z" />
    <glyph glyph-name="five" unicode="5" horiz-adv-x="1024" 
d="M903 1434v-291h-493l-19 -264q55 53 174 53q189 0 291 -118t102 -344t-136 -362t-357 -137q-119 0 -237 41t-197 97l110 239q143 -88 260 -88t172 69t55 157t-42 146q-43 60 -120 60t-132 -61l-223 119l65 684h727z" />
    <glyph glyph-name="six" unicode="6" horiz-adv-x="1110" 
d="M733 462q0 94 -38 158q-38 66 -125 66t-125 -68q-37 -68 -37 -158t42 -154q42 -62 120 -62t120 62q43 62 43 156zM651 948q160 0 278 -123t118 -350q1 -227 -131 -365t-334 -139q-130 -1 -232 61t-160 166q-118 208 -116 490q0 217 66 405q38 109 98 187t160 130
q99 52 216 52t212 -32t137 -66l43 -33l-117 -241q-115 82 -252 82t-202 -108t-66 -278q86 162 282 162z" />
    <glyph glyph-name="seven" unicode="7" horiz-adv-x="944" 
d="M55 1434h852v-246l-450 -1188h-346l440 1143h-496v291z" />
    <glyph glyph-name="eight" unicode="8" horiz-adv-x="1075" 
d="M538 1188q-56 0 -90 -42t-34 -112t34 -114t88 -46q56 0 90 46t34 116t-33 111t-89 41zM537 612q-63 0 -109 -47t-45 -145q0 -98 47 -144q46 -45 106 -45t107 45q47 44 47 142t-45 146t-108 48zM537 1462q167 0 293 -108t126 -283q0 -119 -58 -197t-128 -106
q94 -35 164 -125t70 -237q0 -207 -138 -321t-327 -114q-188 0 -329 113q-140 113 -140 324q0 141 68 232q69 91 165 128q-76 26 -131 104t-55 197q0 177 127 285t293 108z" />
    <glyph glyph-name="nine" unicode="9" horiz-adv-x="1114" 
d="M377 972q0 -92 38 -158t127 -66t125 66q35 66 35 158q0 93 -42 155q-42 63 -120 63t-120 -62q-43 -62 -43 -156zM473 262q137 0 202 109t66 276q-86 -164 -282 -164q-160 0 -278 124t-118 351q-1 228 131 366t334 138q130 0 232 -61t160 -165q118 -208 116 -491
q0 -216 -66 -404q-38 -109 -98 -187t-160 -130q-99 -52 -216 -52t-212 32q-95 33 -137 66l-43 32l115 242q117 -82 254 -82z" />
    <glyph glyph-name="colon" unicode=":" horiz-adv-x="522" 
d="M102 128q0 73 45 121t112 48t114 -48t47 -121t-46 -118t-115 -45t-113 45t-44 118zM102 798q0 73 45 121t112 48t114 -48t47 -121t-46 -118t-115 -45t-113 45t-44 118z" />
    <glyph glyph-name="semicolon" unicode=";" horiz-adv-x="557" 
d="M268 297q78 0 132 -69t55 -162q0 -236 -250 -367l-66 108q111 78 146 191q-20 -20 -66 -20t-82 38q-35 39 -35 112t44 121t122 48zM277 635q-69 0 -113 45t-43 118q0 73 45 121q46 48 112 48t113 -48t47 -121t-46 -118t-115 -45z" />
    <glyph glyph-name="less" unicode="&#x3c;" horiz-adv-x="729" 
d="M614 1104v-250l-237 -156q156 -102 241 -159v-258l-557 329v181z" />
    <glyph glyph-name="equal" unicode="=" horiz-adv-x="856" 
d="M109 649h639v-235h-639v235zM109 989h639v-233h-639v233z" />
    <glyph glyph-name="greater" unicode="&#x3e;" horiz-adv-x="729" 
d="M352 698l-235 156v250l551 -313v-181l-557 -329v258z" />
    <glyph glyph-name="question" unicode="?" horiz-adv-x="917" 
d="M419 334q77 0 126 -52t49 -130t-49 -129t-126 -51t-130 50q-53 52 -53 129t53 130t130 53zM456 1462q124 0 239 -76q157 -103 157 -305q0 -89 -31 -157t-76 -109t-90 -75q-106 -80 -106 -165v-86h-283v97q0 145 125 258q33 28 65 58q70 65 70 132q0 66 -36 98t-82 31
q-104 0 -230 -86l-125 246q181 139 403 139z" />
    <glyph glyph-name="at" unicode="@" horiz-adv-x="1568" 
d="M666 431q0 -54 26 -85t77 -31q50 0 86 35t36 111v71q-31 10 -87 10t-97 -28q-41 -29 -41 -83zM1507 603q0 -229 -92 -349t-262 -119q-170 0 -221 127q-12 -28 -32 -52t-70 -50t-113 -27q-113 0 -186 75t-73 206t81 206q80 75 225 74q53 0 127 -10v57q0 115 -127 115
q-66 0 -197 -33l-39 150q150 59 289 59q287 0 287 -291v-315q0 -45 24 -76t64 -31q100 0 100 244q0 313 -133 483t-369 171q-236 -1 -367 -187q-132 -186 -132 -448t111 -431q120 -182 379 -182q132 0 247 60l80 -181q-166 -96 -344 -96q-326 0 -508 234t-182 587
q0 240 83 433q83 192 249 310t390 118t389 -117t243 -301t79 -413z" />
    <glyph glyph-name="A" unicode="A" horiz-adv-x="1253" 
d="M618 1108l-102 -490h211l-104 490h-5zM408 1444h440l409 -1444h-374l-84 342h-357l-84 -342h-362z" />
    <glyph glyph-name="B" unicode="B" horiz-adv-x="1187" 
d="M475 1143v-275h107q74 0 112 40t37 98q0 58 -33 98q-33 39 -106 39h-117zM475 291h172q59 0 97 41q38 40 38 106t-36 109t-91 43h-180v-299zM127 1434h543q174 0 288 -104t115 -277q-1 -82 -27 -147t-79 -110t-101 -59q93 -22 152 -73q114 -100 113 -272t-107 -282
t-289 -110h-608v1434z" />
    <glyph glyph-name="C" unicode="C" horiz-adv-x="1169" 
d="M752 1165q-148 0 -235 -121q-87 -120 -87 -326t86 -328t242 -122q121 0 224 60q11 6 20 10t14 10l119 -256q-139 -121 -392 -121q-301 0 -493 196t-193 550q0 353 194 549t507 196q117 -2 221 -41t156 -86l-117 -252q-118 82 -266 82z" />
    <glyph glyph-name="D" unicode="D" horiz-adv-x="1249" 
d="M485 1143v-852h43q109 0 168 43q123 88 123 383t-123 383q-59 43 -168 43h-43zM127 0v1434h471q182 0 314 -91t203 -263t71 -366t-75 -367q-150 -347 -513 -347h-471z" />
    <glyph glyph-name="E" unicode="E" horiz-adv-x="1116" 
d="M127 1434h905v-291h-547v-297h473v-291h-473v-264h551v-291h-909v1434z" />
    <glyph glyph-name="F" unicode="F" horiz-adv-x="1101" 
d="M127 1434h934v-291h-576v-326h494v-287h-494v-530h-358v1434z" />
    <glyph glyph-name="G" unicode="G" horiz-adv-x="1290" 
d="M756 1462q225 0 420 -133l-123 -254q-173 90 -313 90t-225 -122t-85 -330q0 -444 322 -445q70 0 129 37l18 12v236h-256v256h569v-608q-76 -109 -211 -169t-266 -61q-324 0 -501 199t-177 545q0 347 191 547t508 200z" />
    <glyph glyph-name="H" unicode="H" horiz-adv-x="1357" 
d="M127 1434h358v-582h389v582h357v-1434h-357v545h-389v-545h-358v1434z" />
    <glyph glyph-name="I" unicode="I" horiz-adv-x="612" 
d="M127 1434h358v-1434h-358v1434z" />
    <glyph glyph-name="J" unicode="J" horiz-adv-x="958" 
d="M844 459q0 -215 -118 -351t-333 -137q-256 0 -405 213l188 191q72 -102 172 -103q61 0 99 41t38 109v1012h359v-975z" />
    <glyph glyph-name="K" unicode="K" horiz-adv-x="1245" 
d="M127 0v1434h358v-529h2l5 -2l358 531h399l-452 -641l448 -793h-411l-287 522l-62 -78v-444h-358z" />
    <glyph glyph-name="L" unicode="L" horiz-adv-x="976" 
d="M127 1434h358v-1143h467v-291h-825v1434z" />
    <glyph glyph-name="M" unicode="M" horiz-adv-x="1710" 
d="M1583 1434v-1434h-358v539l22 473h-4l-211 -928h-352l-211 928h-4l18 -473v-539h-356v1434h479l246 -957h6l246 957h479z" />
    <glyph glyph-name="N" unicode="N" horiz-adv-x="1331" 
d="M846 946v488h358v-1434h-370l-355 825h-4q10 -172 10 -362v-463h-358v1434h373l352 -799h4q-10 137 -10 311z" />
    <glyph glyph-name="O" unicode="O" horiz-adv-x="1404" 
d="M705 268q133 0 203 120t69 328q0 208 -73 328q-74 120 -200 121q-126 -1 -200 -121t-74 -328t71 -328t204 -120zM59 722q0 332 174 536q175 204 471 204t470 -204t174 -536t-169 -541q-169 -208 -474 -208t-476 208q-170 208 -170 541z" />
    <glyph glyph-name="P" unicode="P" horiz-adv-x="1177" 
d="M483 1143v-367h135q88 0 136 52q47 52 47 134t-43 131q-43 50 -131 50h-144zM127 1434h569q197 0 324 -134t127 -338t-129 -339t-322 -136h-213v-487h-356v1434z" />
    <glyph glyph-name="Q" unicode="Q" horiz-adv-x="1411" 
d="M705 268q133 0 203 120t69 328q0 208 -73 328q-74 120 -200 121q-126 -1 -200 -121t-74 -328t71 -328t204 -120zM705 -29q-305 0 -476 209q-170 209 -170 542q0 332 174 536q173 204 471 204t472 -204t174 -537q0 -456 -297 -651v-9q74 -39 323 -79l-78 -293
q-143 19 -276 83q-132 64 -192 111t-103 90q-14 -2 -22 -2z" />
    <glyph glyph-name="R" unicode="R" horiz-adv-x="1230" 
d="M475 1143v-334h178q61 0 110 49q48 49 48 118t-44 118t-114 49h-178zM127 1434h553q223 0 346 -128t123 -327q0 -270 -234 -395l283 -584h-375l-233 518h-115v-518h-348v1434z" />
    <glyph glyph-name="S" unicode="S" horiz-adv-x="1073" 
d="M1026 398q0 -108 -44 -196q-44 -87 -121 -136q-152 -97 -357 -97q-244 -4 -445 105l107 278q170 -86 333 -86t163 119q0 59 -42 92t-149 76t-163 76t-119 87q-125 109 -124 321q1 213 138 319t354 106t424 -98l-92 -270q-164 70 -295 69q-166 0 -166 -125q0 -67 52 -101
q34 -22 60 -34t52 -26t70 -27q80 -33 130 -62t111 -79q123 -102 123 -311z" />
    <glyph glyph-name="T" unicode="T" horiz-adv-x="1052" 
d="M23 1434h1007v-291h-323v-1143h-357v1143h-327v291z" />
    <glyph glyph-name="U" unicode="U" horiz-adv-x="1306" 
d="M113 1434h358v-949q0 -102 49 -159q49 -58 133 -58t133 58t50 159v949h358v-916q0 -238 -143 -392t-401 -155q-258 0 -398 159q-139 159 -139 388v916z" />
    <glyph glyph-name="V" unicode="V" horiz-adv-x="1200" 
d="M-6 1434h371l237 -1002h4l238 1002h362l-393 -1434h-426z" />
    <glyph glyph-name="W" unicode="W" horiz-adv-x="1878" 
d="M1507 1434h361l-320 -1444h-442l-164 909l-160 -909h-442l-330 1444h377l180 -971l174 971h412l172 -971z" />
    <glyph glyph-name="X" unicode="X" horiz-adv-x="1282" 
d="M1286 0h-407l-244 438l-236 -438h-399l430 725l-434 709h412l247 -422l234 422h395l-428 -709z" />
    <glyph glyph-name="Y" unicode="Y" horiz-adv-x="1148" 
d="M754 0h-359v571l-428 863h383l223 -523l224 523h383l-426 -863v-571z" />
    <glyph glyph-name="Z" unicode="Z" horiz-adv-x="1112" 
d="M90 1434h948v-238l-540 -911l252 6h288v-291h-983v240l557 907l-254 -4h-268v291z" />
    <glyph glyph-name="bracketleft" unicode="[" horiz-adv-x="616" 
d="M545 1462v-266h-148v-1313h148v-260h-426v1839h426z" />
    <glyph glyph-name="backslash" unicode="\" horiz-adv-x="913" 
d="M588 -78l-541 1577h281q90 -262 270 -788l270 -789h-280z" />
    <glyph glyph-name="bracketright" unicode="]" horiz-adv-x="616" 
d="M72 1196v266h426v-1839h-426v260h147v1313h-147z" />
    <glyph glyph-name="underscore" unicode="_" horiz-adv-x="1105" 
d="M102 -76h902v-241h-902v241z" />
    <glyph glyph-name="grave" unicode="`" horiz-adv-x="686" 
d="M170 1458l225 129l158 -424h-209z" />
    <glyph glyph-name="a" unicode="a" horiz-adv-x="1054" 
d="M580 360v115q-27 4 -52 4q-174 0 -174 -147q0 -57 31 -89t84 -32q111 -1 111 149zM928 727v-416q0 -47 41 -47q10 0 37 6v-241q-117 -39 -193 -39q-172 0 -195 151q-2 -6 -5 -17t-21 -39q-68 -105 -248 -105q-136 0 -222 93t-85 240q0 187 118 271t294 84q74 0 131 -9v19
q0 78 -35 110t-112 31q-77 0 -251 -41l-59 242q193 66 387 65q418 0 418 -358z" />
    <glyph glyph-name="b" unicode="b" horiz-adv-x="1130" 
d="M593 819q-71 0 -112 -78t-41 -209q0 -130 41 -208t112 -78t112 77t41 211t-41 209q-41 76 -112 76zM446 1499v-536q66 123 245 123t285 -158q105 -158 105 -396t-105 -396q-106 -158 -290 -156q-184 0 -258 163l-29 -143h-301v1499h348z" />
    <glyph glyph-name="c" unicode="c" horiz-adv-x="892" 
d="M551 -20q-227 0 -366 152q-138 152 -138 398t139 401t365 154q162 0 305 -94l-96 -221l-26 15q-61 34 -130 34q-113 0 -164 -87t-51 -200q0 -114 50 -200t165 -86q77 0 139 39q8 4 15 6l4 4l94 -221q-143 -94 -305 -94z" />
    <glyph glyph-name="d" unicode="d" horiz-adv-x="1130" 
d="M385 533q0 -135 41 -211t112 -76q72 0 112 78t40 208t-40 209q-40 78 -112 78q-71 0 -112 -76t-41 -210zM684 1499h348v-1499h-301l-29 143q-74 -163 -258 -163t-289 158t-105 394q0 238 104 396q106 158 285 158t245 -123v536z" />
    <glyph glyph-name="e" unicode="e" horiz-adv-x="991" 
d="M521 817q-54 0 -93 -40t-47 -138h248q4 74 -25 126t-83 52zM49 538q0 251 129 399t329 148q201 0 311 -128t118 -341q4 -88 -12 -174h-541q16 -197 213 -196q121 0 254 53l80 -231q-160 -88 -379 -88t-361 153q-141 154 -141 405z" />
    <glyph glyph-name="f" unicode="f" horiz-adv-x="681" 
d="M600 1257q-94 0 -94 -96v-96h151v-246h-151v-819h-348v819h-131v213l131 33v76q0 379 350 379q73 -1 182 -21l-31 -250q-37 8 -59 8z" />
    <glyph glyph-name="g" unicode="g" horiz-adv-x="1007" 
d="M586 16q-178 0 -192 6t-17 5q-23 -23 -23 -70q0 -84 131 -84q80 0 122 16t42 66q0 61 -63 61zM492 842q-100 0 -100 -146t100 -147q94 1 94 147t-94 146zM975 1065v-250l-105 -14q18 -55 19 -119q0 -148 -97 -254t-292 -106q-92 0 -144 32q-34 -34 -18 -75t114 -41h171
q100 0 169 -29q68 -29 98 -76q50 -79 50 -175q0 -97 -43 -166q-43 -68 -114 -98q-124 -52 -293 -52t-248 33q-116 48 -152 124q-23 49 -22 115q0 121 86 186q-84 53 -84 169t92 196q-78 90 -78 242q0 193 118 285t298 93q111 0 188 -20h287z" />
    <glyph glyph-name="h" unicode="h" horiz-adv-x="1056" 
d="M98 1499h348v-541q26 56 88 92t124 36t107 -17q44 -16 93 -57t79 -129t30 -215v-668h-349v690q0 129 -79 129q-43 0 -68 -39t-25 -110v-670h-348v1499z" />
    <glyph glyph-name="i" unicode="i" horiz-adv-x="593" 
d="M51 1065h443v-1065h-347v793l-96 26v246zM299 1556q80 0 128 -55t48 -134t-49 -133t-127 -54t-127 55t-49 133t48 133t128 55z" />
    <glyph glyph-name="j" unicode="j" horiz-adv-x="608" 
d="M303 1556q80 0 128 -55t48 -134t-49 -133t-127 -54t-127 55t-49 133t48 133t128 55zM76 -70q30 0 40 3q46 15 46 122v738l-119 34v238h467v-1032q0 -166 -96 -274t-269 -107q-102 0 -192 39l51 254q42 -15 72 -15z" />
    <glyph glyph-name="k" unicode="k" horiz-adv-x="1044" 
d="M98 1499h348v-434l-8 -328l4 -2l226 330h381l-320 -453l309 -612h-356l-182 385l-54 -74v-311h-348v1499z" />
    <glyph glyph-name="l" unicode="l" horiz-adv-x="608" 
d="M106 1499h349v-1171q0 -78 71 -78q12 0 45 4v-242q-106 -33 -186 -32q-129 0 -204 68t-75 255v1196z" />
    <glyph glyph-name="m" unicode="m" horiz-adv-x="1589" 
d="M98 1065h262l54 -152q66 172 232 172t231 -172q94 172 286 172q143 0 239 -100t97 -334v-651h-348v700q0 119 -82 119q-96 0 -96 -143v-676h-348v700q0 119 -86 119q-92 0 -93 -143v-676h-348v1065z" />
    <glyph glyph-name="n" unicode="n" horiz-adv-x="1056" 
d="M98 1065h262l54 -152q86 172 256 172q104 0 189 -74q48 -42 78 -131t30 -216v-664h-349v713q0 106 -81 106q-90 0 -91 -143v-676h-348v1065z" />
    <glyph glyph-name="o" unicode="o" horiz-adv-x="1056" 
d="M524 246q143 0 143 286t-140 287q-140 -1 -140 -287t137 -286zM47 536q0 250 132 400t347 150t350 -150q134 -150 134 -400t-134 -404q-134 -152 -350 -152t-347 152q-132 152 -132 404z" />
    <glyph glyph-name="p" unicode="p" horiz-adv-x="1128" 
d="M436 532q0 -134 41 -210t112 -76t111 76t41 212q-1 136 -41 210q-40 75 -111 75t-112 -77t-41 -210zM678 1085q197 1 298 -157t101 -396t-101 -396t-298 -156q-162 0 -232 122v-450h-348v1413h281l47 -135q90 155 252 155z" />
    <glyph glyph-name="q" unicode="q" horiz-adv-x="1126" 
d="M385 532q0 -134 41 -210t112 -76q72 0 112 76t40 212t-40 210q-40 75 -112 75q-71 0 -112 -77t-41 -210zM449 1085q162 0 251 -155l48 135h280v-1413h-348v450q-70 -123 -231 -122q-197 0 -298 158t-101 394q0 238 100 396q102 158 299 157z" />
    <glyph glyph-name="r" unicode="r" horiz-adv-x="743" 
d="M98 1065h281l41 -209q0 31 22 74q22 44 50 72t84 51q54 23 126 22v-340q-141 0 -198 -75t-58 -230v-430h-348v1065z" />
    <glyph glyph-name="s" unicode="s" horiz-adv-x="864" 
d="M421 -20q-175 0 -360 88l72 223q156 -66 259 -66t104 82q0 70 -158 127q-66 25 -130 59q-64 35 -111 101q-46 66 -46 162q0 172 116 251t279 79t345 -82l-72 -224q-121 62 -227 62t-107 -82q0 -37 45 -64q44 -28 108 -50t129 -56t109 -104q44 -71 45 -171
q0 -174 -112 -255q-113 -80 -288 -80z" />
    <glyph glyph-name="t" unicode="t" horiz-adv-x="727" 
d="M489 1372v-307h170v-246h-170v-504q0 -86 74 -86q39 0 90 19l15 -223q-129 -45 -232 -45q-295 0 -295 354v485h-112v217l112 23l52 313h296z" />
    <glyph glyph-name="u" unicode="u" 
d="M92 1065h348v-696q0 -123 76 -123q86 0 86 162v657h348v-1065h-262l-53 152q1 -22 -25 -57t-53 -59q-64 -55 -188 -56q-193 0 -255 206q-22 74 -22 172v707z" />
    <glyph glyph-name="v" unicode="v" horiz-adv-x="1050" 
d="M1026 1065l-315 -1065h-371l-315 1065h327l178 -719h5l176 719h315z" />
    <glyph glyph-name="w" unicode="w" horiz-adv-x="1583" 
d="M946 1065l150 -676h4l157 676h302l-275 -1065h-369l-124 578l-123 -578h-369l-274 1065h307l153 -676h4l150 676h307z" />
    <glyph glyph-name="x" unicode="x" horiz-adv-x="1011" 
d="M16 0l295 530l-295 535h338l152 -307l153 307h336l-288 -539l288 -526h-344l-145 313l-144 -313h-346z" />
    <glyph glyph-name="y" unicode="y" horiz-adv-x="1024" 
d="M0 1065h330l178 -672l166 672h325l-428 -1413h-352l107 344z" />
    <glyph glyph-name="z" unicode="z" horiz-adv-x="909" 
d="M70 1065h768v-258l-412 -547l2 -10l201 4h209v-254h-783v236l428 571l-2 6l-198 -4h-213v256z" />
    <glyph glyph-name="braceleft" unicode="{" horiz-adv-x="626" 
d="M131 379q0 66 -61 60q-10 -1 -13 -1v209h9q10 -2 17 -2q48 0 48 64v403q0 194 70 272t288 78h68v-256h-100q-35 0 -43 -16t-8 -80v-434q0 -117 -111 -135q111 -8 111 -131v-437q0 -65 7 -79t44 -15h100v-256h-68q-234 0 -303 98q-35 51 -45 105t-10 141v412z" />
    <glyph glyph-name="bar" unicode="|" horiz-adv-x="507" 
d="M117 1606h274v-1942h-274v1942z" />
    <glyph glyph-name="braceright" unicode="}" horiz-adv-x="626" 
d="M496 709q0 -64 48 -64q7 0 17 2h8v-209q-2 0 -12 1q-61 6 -61 -60v-412q0 -86 -10 -140q-27 -140 -155 -180q-75 -24 -194 -24h-67v256h100q37 1 44 15t7 79v437q0 123 111 131q-111 18 -111 135v434q0 64 -8 80t-43 16h-100v256h67q219 0 289 -79t70 -271v-403z" />
    <glyph glyph-name="exclamdown" unicode="&#xa1;" horiz-adv-x="563" 
d="M273 723q-77 0 -126 52t-49 130t49 129t126 51t130 -51t53 -128t-52 -130q-54 -53 -131 -53zM479 -377h-411l63 944h281z" />
    <glyph glyph-name="cent" unicode="&#xa2;" horiz-adv-x="940" 
d="M475 -20v176q-188 35 -302 179t-114 361q0 218 114 364t302 181v176h162v-170q123 -12 258 -90l-86 -217q-79 45 -189 45t-166 -85t-56 -204q0 -120 56 -202t162 -82t203 49l84 -221q-119 -78 -266 -95v-165h-162z" />
    <glyph glyph-name="sterling" unicode="&#xa3;" horiz-adv-x="1036" 
d="M647 1165q-109 0 -108 -127v-260h315v-186h-315v-90q0 -164 -88 -211h499v-291h-884v272q11 0 36 16q82 56 82 175v131h-69v194h69v199q0 215 104 345t333 130q88 0 181 -45t161 -127l-164 -219q-84 94 -152 94z" />
    <glyph glyph-name="yen" unicode="&#xa5;" horiz-adv-x="1306" 
d="M825 522h162v-151h-162v-78h162v-152h-162v-141h-342v141h-161v152h161v78h-161v151h161v49l-436 863h379l223 -543l223 543h388l-435 -863v-49z" />
    <glyph glyph-name="section" unicode="&#xa7;" horiz-adv-x="1062" 
d="M350 590q0 -52 47 -82t139 -58q92 -26 140 -55q37 47 37 98t-47 82q-46 31 -138 59t-141 56q-37 -48 -37 -100zM602 37q0 61 -54 101t-133 67t-157 61t-132 107q-54 74 -54 186q0 174 110 256q-108 86 -108 255t123 266q123 98 339 98t400 -101l-102 -268q-19 19 -113 44
t-141 26q-119 0 -119 -88q0 -61 54 -101t132 -66q78 -28 157 -63t133 -109t54 -182q0 -174 -110 -256q109 -86 109 -256t-125 -266q-124 -96 -339 -96t-399 100l102 268q139 -70 256 -70t117 87z" />
    <glyph glyph-name="dieresis" unicode="&#xa8;" horiz-adv-x="1073" 
d="M922 1366q0 -66 -42 -108t-110 -42t-110 42t-42 108t42 108t110 42t110 -42t42 -108zM457 1366q0 -66 -42 -108t-110 -42q-67 0 -109 42t-42 108t42 108t110 42t109 -42q42 -42 42 -108z" />
    <glyph glyph-name="copyright" unicode="&#xa9;" horiz-adv-x="1349" 
d="M1141 714q0 236 -138 406q-137 170 -329 170t-330 -170t-137 -406q0 -236 136 -403q136 -168 330 -168t331 168q137 167 137 403zM676 1434q250 0 426 -211t176 -505t-179 -506t-427 -212t-424 212t-176 506t177 505t427 211zM702 913q-58 0 -93 -56q-34 -56 -34 -142
q0 -87 34 -143q35 -56 95 -56t107 51l127 -141q-96 -121 -252 -121t-259 117t-103 296t104 294t257 115t249 -123l-125 -138q-49 47 -107 47z" />
    <glyph glyph-name="ordfeminine" unicode="&#xaa;" horiz-adv-x="847" 
d="M457 975v61q-41 4 -80 4t-70 -24t-31 -74q0 -82 84 -82q45 0 71 32t26 83zM76 596h674v-186h-674v186zM406 1499q144 1 215 -69q70 -70 69 -195v-303q0 -33 33 -33q8 0 29 4v-178q-52 -31 -118 -31t-113 25q-46 25 -58 72q-14 -34 -61 -66q-48 -31 -99 -31
q-109 0 -168 62t-59 182q0 119 80 176t204 57q55 0 97 -6v25q0 102 -103 102q-98 1 -180 -28l-47 186q135 49 279 49z" />
    <glyph glyph-name="guillemotleft" unicode="&#xab;" horiz-adv-x="1273" 
d="M1016 532l188 -362l-176 -178l-389 500v92l389 489l178 -182zM451 -8q-354 437 -406 500v63l406 518l174 -182l-195 -359q46 -83 193 -362z" />
    <glyph glyph-name="registered" unicode="&#xae;" horiz-adv-x="985" 
d="M432 1122v-106h80q43 0 43 53t-47 53h-76zM324 1221h192q64 0 104 -42t39 -110q0 -104 -71 -139l94 -193h-123l-84 178h-43v-178h-108v484zM492 635q126 0 200 95q74 94 74 238t-74 244t-199 99q-124 -1 -198 -99t-74 -242t73 -240t198 -95zM102 973q0 195 109 328
t283 133t282 -134t109 -328q0 -194 -110 -327q-111 -133 -283 -133t-281 133t-109 328z" />
    <glyph glyph-name="macron" unicode="&#xaf;" horiz-adv-x="849" 
d="M139 1399h572v-207h-572v207z" />
    <glyph glyph-name="degree" unicode="&#xb0;" horiz-adv-x="563" 
d="M203 1238q1 -44 25 -68t54 -24t54 26q24 24 24 67t-24 68t-54 25t-55 -25q-24 -25 -24 -69zM78 1240q0 106 60 168t146 62t142 -61q57 -61 57 -169t-57 -171t-142 -63t-146 64q-60 65 -60 170z" />
    <glyph glyph-name="plusminus" unicode="&#xb1;" horiz-adv-x="976" 
d="M98 168h783v-227h-783v227zM379 1096h223v-299h279v-215h-279v-297h-223v297h-283v215h283v299z" />
    <glyph glyph-name="acute" unicode="&#xb4;" horiz-adv-x="686" 
d="M287 1589l225 -129l-174 -295h-209z" />
    <glyph glyph-name="mu" unicode="&#xb5;" horiz-adv-x="1097" 
d="M440 -348h-323v1413h323v-541q0 -214 56 -258q26 -20 68 -20q83 0 104 93q16 74 16 181v545h322v-1065h-238l-39 121q-28 -108 -88 -135q-78 -35 -149 8q-39 23 -52 65v-407z" />
    <glyph glyph-name="paragraph" unicode="&#xb6;" horiz-adv-x="1275" 
d="M1133 -174h-246v1350h-197v-1350h-252v659h-16q-176 -2 -270 128t-95 343q0 126 39 224q40 98 102 150q125 104 269 104h666v-1608z" />
    <glyph glyph-name="periodcentered" unicode="&#xb7;" horiz-adv-x="573" 
d="M84 625q0 87 60 151t143 64q82 0 142 -64t60 -152q0 -89 -60 -154q-60 -64 -142 -64t-143 65q-60 66 -60 154z" />
    <glyph glyph-name="cedilla" unicode="&#xb8;" horiz-adv-x="544" 
d="M297 -113q61 0 106 -40q45 -41 45 -119t-52 -121q-54 -43 -145 -43t-165 28l31 109q55 -18 100 -18q66 0 66 54t-70 54q-19 0 -37 -6l-41 51l47 146h121l-20 -97q8 2 14 2z" />
    <glyph glyph-name="ordmasculine" unicode="&#xba;" horiz-adv-x="929" 
d="M143 596h648v-186h-648v186zM467 1292q-59 0 -94 -51t-35 -140t33 -145t96 -55q63 0 96 55q33 54 33 144t-35 141t-94 51zM467 694q-168 0 -271 114q-104 114 -104 289t104 289t271 113q166 0 270 -113q105 -112 105 -288t-104 -290t-271 -114z" />
    <glyph glyph-name="guillemotright" unicode="&#xbb;" horiz-adv-x="1277" 
d="M256 532l-188 359l176 182l403 -506v-61l-403 -514l-174 178zM838 532l-191 359l174 182l404 -518v-63l-404 -500l-172 178z" />
    <glyph glyph-name="questiondown" unicode="&#xbf;" horiz-adv-x="907" 
d="M493 723q-77 0 -126 52t-50 130t49 129t127 51t130 -51t53 -128t-53 -130t-130 -53zM362 567h283v-96q0 -148 -125 -258q-32 -29 -64 -59q-70 -66 -71 -132q0 -67 36 -98t83 -30q104 0 229 86l125 -246q-182 -140 -402 -140q-124 0 -240 76q-152 100 -157 305
q0 88 31 157t76 110q45 40 90 74q108 80 106 165v86z" />
    <glyph glyph-name="Agrave" unicode="&#xc0;" horiz-adv-x="1253" 
d="M618 1108l-102 -490h211l-104 490h-5zM408 1444h440l409 -1444h-374l-84 342h-357l-84 -342h-362zM344 1827l225 129l158 -424h-209z" />
    <glyph glyph-name="Aacute" unicode="&#xc1;" horiz-adv-x="1253" 
d="M618 1108l-102 -490h211l-104 490h-5zM408 1444h440l409 -1444h-374l-84 342h-357l-84 -342h-362zM692 1966l226 -129l-175 -295h-208z" />
    <glyph glyph-name="Acircumflex" unicode="&#xc2;" horiz-adv-x="1253" 
d="M618 1108l-102 -490h211l-104 490h-5zM408 1444h440l409 -1444h-374l-84 342h-357l-84 -342h-362zM500 1542h-226l232 328h229l246 -328h-231l-123 189z" />
    <glyph glyph-name="Atilde" unicode="&#xc3;" horiz-adv-x="1253" 
d="M618 1108l-102 -490h211l-104 490h-5zM408 1444h440l409 -1444h-374l-84 342h-357l-84 -342h-362zM524 1841q64 0 138 -45t114 -45t86 70l86 -68q-96 -211 -231 -211q-61 0 -127 44t-109 44t-92 -71l-90 73q39 84 100 146t125 63z" />
    <glyph glyph-name="Adieresis" unicode="&#xc4;" horiz-adv-x="1253" 
d="M618 1108l-102 -490h211l-104 490h-5zM408 1444h440l409 -1444h-374l-84 342h-357l-84 -342h-362zM1018 1694q0 -66 -42 -108t-110 -42t-110 42t-41 108q0 66 42 108q41 42 109 41q68 1 110 -41t42 -108zM553 1694q0 -66 -42 -108t-110 -42q-67 0 -109 42t-42 108t42 108
t110 41q68 1 109 -41q42 -42 42 -108z" />
    <glyph glyph-name="Aring" unicode="&#xc5;" horiz-adv-x="1253" 
d="M618 1108l-102 -490h211l-104 490h-5zM408 1444h440l409 -1444h-374l-84 342h-357l-84 -342h-362zM631 1774q-31 0 -55 -20t-23 -64q0 -44 24 -64q25 -20 55 -20t54 20t23 64q1 44 -23 64t-55 20zM631 1901q86 -1 146 -55q61 -54 61 -154t-60 -156t-147 -55
q-86 0 -147 55q-60 56 -60 156t60 154t147 55z" />
    <glyph glyph-name="AE" unicode="&#xc6;" horiz-adv-x="1699" 
d="M782 1143h-32l-170 -529h202v529zM1688 1434v-291h-547v-297h473v-291h-473v-264h551v-291h-910v342h-319l-123 -342h-375l586 1434h1137z" />
    <glyph glyph-name="Ccedilla" unicode="&#xc7;" horiz-adv-x="1171" 
d="M752 1165q-148 0 -235 -121q-87 -120 -87 -326t86 -328t242 -122q121 0 224 60q11 6 20 10t14 10l119 -256q-127 -109 -351 -119l-10 -88q8 2 23 2q61 0 102 -42q41 -43 41 -119t-53 -119t-145 -43t-164 28l30 109q57 -18 97 -18q70 0 69 55q0 53 -67 53q-20 0 -39 -6
l-41 51l35 139q-270 25 -438 219q-167 194 -167 536t194 536q194 196 507 196q117 -2 221 -41t156 -86l-117 -252q-118 82 -266 82z" />
    <glyph glyph-name="Egrave" unicode="&#xc8;" horiz-adv-x="1116" 
d="M127 1434h905v-291h-547v-297h473v-291h-473v-264h551v-291h-909v1434zM322 1837l225 129l158 -424h-209z" />
    <glyph glyph-name="Eacute" unicode="&#xc9;" horiz-adv-x="1116" 
d="M127 1434h905v-291h-547v-297h473v-291h-473v-264h551v-291h-909v1434zM588 1966l225 -129l-174 -295h-209z" />
    <glyph glyph-name="Ecircumflex" unicode="&#xca;" horiz-adv-x="1116" 
d="M127 1434h905v-291h-547v-297h473v-291h-473v-264h551v-291h-909v1434zM446 1542h-225l232 328h229l246 -328h-232l-123 189z" />
    <glyph glyph-name="Edieresis" unicode="&#xcb;" horiz-adv-x="1116" 
d="M127 1434h905v-291h-547v-297h473v-291h-473v-264h551v-291h-909v1434zM956 1694q0 -66 -42 -108t-110 -42t-109 42q-42 42 -42 108t42 108t110 41q67 1 109 -41t42 -108zM492 1694q0 -66 -42 -108t-110 -42t-110 42t-42 108t42 108t110 41q68 1 110 -41t42 -108z" />
    <glyph glyph-name="Igrave" unicode="&#xcc;" horiz-adv-x="612" 
d="M127 1434h358v-1434h-358v1434zM47 1837l225 129l158 -424h-209z" />
    <glyph glyph-name="Iacute" unicode="&#xcd;" horiz-adv-x="612" 
d="M127 1434h358v-1434h-358v1434zM360 1966l226 -129l-174 -295h-209z" />
    <glyph glyph-name="Icircumflex" unicode="&#xce;" horiz-adv-x="612" 
d="M127 1434h358v-1434h-358v1434zM186 1542h-225l232 328h229l246 -328h-232l-123 189z" />
    <glyph glyph-name="Idieresis" unicode="&#xcf;" horiz-adv-x="614" 
d="M127 1434h358v-1434h-358v1434zM694 1694q0 -66 -42 -108t-110 -42t-109 42q-42 42 -42 108t42 108t110 41q67 1 109 -41t42 -108zM229 1694q0 -66 -42 -108q-41 -42 -109 -42t-110 42t-42 108t42 108t110 41q68 1 110 -41t41 -108z" />
    <glyph glyph-name="Eth" unicode="&#xd0;" horiz-adv-x="1257" 
d="M494 1137v-326h151v-172h-151v-344h43q109 0 168 43q123 88 123 378t-123 378q-59 43 -168 43h-43zM135 0v639h-135v172h135v623h471q182 0 314 -91t203 -263t71 -366t-75 -367q-150 -347 -513 -347h-471z" />
    <glyph glyph-name="Ntilde" unicode="&#xd1;" horiz-adv-x="1331" 
d="M846 946v488h358v-1434h-370l-355 825h-4q10 -172 10 -362v-463h-358v1434h373l352 -799h4q-10 137 -10 311zM816 1751q40 0 87 70l86 -68q-92 -203 -231 -211q-63 -4 -129 42t-108 46t-91 -71l-90 73q39 82 100 144q62 62 126 64q64 3 137 -43t113 -46z" />
    <glyph glyph-name="Ograve" unicode="&#xd2;" horiz-adv-x="1404" 
d="M705 268q133 0 203 120t69 328q0 208 -73 328q-74 120 -200 121q-126 -1 -200 -121t-74 -328t71 -328t204 -120zM59 722q0 332 174 536q175 204 471 204t470 -204t174 -536t-169 -541q-169 -208 -474 -208t-476 208q-170 208 -170 541zM444 1837l226 129l157 -424h-209z
" />
    <glyph glyph-name="Oacute" unicode="&#xd3;" horiz-adv-x="1404" 
d="M705 268q133 0 203 120t69 328q0 208 -73 328q-74 120 -200 121q-126 -1 -200 -121t-74 -328t71 -328t204 -120zM59 722q0 332 174 536q175 204 471 204t470 -204t174 -536t-169 -541q-169 -208 -474 -208t-476 208q-170 208 -170 541zM733 1966l225 -129l-174 -295h-209
z" />
    <glyph glyph-name="Ocircumflex" unicode="&#xd4;" horiz-adv-x="1404" 
d="M705 268q133 0 203 120t69 328q0 208 -73 328q-74 120 -200 121q-126 -1 -200 -121t-74 -328t71 -328t204 -120zM59 722q0 332 174 536q175 204 471 204t470 -204t174 -536t-169 -541q-169 -208 -474 -208t-476 208q-170 208 -170 541zM582 1542h-226l232 328h229
l246 -328h-232l-122 189z" />
    <glyph glyph-name="Otilde" unicode="&#xd5;" horiz-adv-x="1404" 
d="M705 268q133 0 203 120t69 328q0 208 -73 328q-74 120 -200 121q-126 -1 -200 -121t-74 -328t71 -328t204 -120zM59 722q0 332 174 536q175 204 471 204t470 -204t174 -536t-169 -541q-169 -208 -474 -208t-476 208q-170 208 -170 541zM868 1751q40 0 86 70l86 -68
q-92 -203 -231 -211q-63 -4 -129 42t-107 46t-92 -71l-90 73q39 82 101 144t126 64q64 3 137 -43t113 -46z" />
    <glyph glyph-name="Odieresis" unicode="&#xd6;" horiz-adv-x="1404" 
d="M705 268q133 0 203 120t69 328q0 208 -73 328q-74 120 -200 121q-126 -1 -200 -121t-74 -328t71 -328t204 -120zM59 722q0 332 174 536q175 204 471 204t470 -204t174 -536t-169 -541q-169 -208 -474 -208t-476 208q-170 208 -170 541zM1090 1694q0 -66 -42 -108
t-110 -42t-110 42t-42 108t42 108t110 41q68 1 110 -41t42 -108zM625 1694q0 -66 -42 -108t-110 -42q-67 0 -109 42t-42 108t42 108t110 41q68 1 109 -41q42 -42 42 -108z" />
    <glyph glyph-name="multiply" unicode="&#xd7;" horiz-adv-x="819" 
d="M229 993l181 -207q129 147 180 207l139 -123l-197 -225l189 -215l-139 -121l-172 197l-174 -197l-138 121l189 215q-66 74 -197 225z" />
    <glyph glyph-name="Oslash" unicode="&#xd8;" horiz-adv-x="1404" 
d="M977 721q0 115 -25 205l-356 -633q49 -25 109 -25q133 0 203 120t69 333zM705 1165q-127 -1 -201 -121t-74 -295t33 -276l364 653q-55 39 -122 39zM59 721q0 333 174 537t472 204q154 0 278 -59l53 96h238l-123 -217q197 -203 197 -548t-169 -553t-474 -210
q-139 0 -261 49l-57 -102h-235l120 215q-213 203 -213 588z" />
    <glyph glyph-name="Ugrave" unicode="&#xd9;" horiz-adv-x="1277" 
d="M98 1434h359v-949q0 -102 49 -159q49 -58 133 -58t133 58t49 159v949h359v-916q0 -238 -144 -392t-401 -155q-258 0 -397 159t-140 388v916zM387 1837l225 129l158 -424h-209z" />
    <glyph glyph-name="Uacute" unicode="&#xda;" horiz-adv-x="1277" 
d="M98 1434h359v-949q0 -102 49 -159q49 -58 133 -58t133 58t49 159v949h359v-916q0 -238 -144 -392t-401 -155q-258 0 -397 159t-140 388v916zM662 1966l225 -129l-174 -295h-209z" />
    <glyph glyph-name="Ucircumflex" unicode="&#xdb;" horiz-adv-x="1277" 
d="M98 1434h359v-949q0 -102 49 -159q49 -58 133 -58t133 58t49 159v949h359v-916q0 -238 -144 -392t-401 -155q-258 0 -397 159t-140 388v916zM514 1542h-225l231 328h230l245 -328h-231l-123 189z" />
    <glyph glyph-name="Udieresis" unicode="&#xdc;" horiz-adv-x="1277" 
d="M98 1434h359v-949q0 -102 49 -159q49 -58 133 -58t133 58t49 159v949h359v-916q0 -238 -144 -392t-401 -155q-258 0 -397 159t-140 388v916zM1030 1694q0 -66 -42 -108t-110 -42t-109 42q-42 42 -42 108t42 108t110 41q67 1 109 -41t42 -108zM565 1694q0 -66 -42 -108
q-41 -42 -109 -42t-110 42t-42 108t42 108t110 41q68 1 110 -41t41 -108z" />
    <glyph glyph-name="Yacute" unicode="&#xdd;" horiz-adv-x="1148" 
d="M754 0h-359v571l-428 863h383l223 -523l224 523h383l-426 -863v-571zM606 1966l225 -129l-174 -295h-208z" />
    <glyph glyph-name="Thorn" unicode="&#xde;" horiz-adv-x="1179" 
d="M485 911v-366h136q88 0 135 52t47 133t-44 131t-130 50h-144zM129 0v1434h358v-234h211q197 0 324 -134t127 -338t-129 -339t-322 -135h-213v-254h-356z" />
    <glyph glyph-name="germandbls" unicode="&#xdf;" horiz-adv-x="1128" 
d="M98 952q0 256 138 400q106 110 290 110t296 -89q154 -123 155 -335q0 -94 -40 -179t-40 -127q0 -70 73 -146q30 -31 60 -65q72 -84 72 -222q0 -139 -86 -241t-266 -101q-139 0 -228 47l41 260q82 -31 129 -31q92 0 92 103t-70 163q-30 25 -60 51q-70 60 -70 159
q0 63 46 138t50 147t-24 121q-28 50 -91 50q-125 0 -125 -176v-989h-342v952z" />
    <glyph glyph-name="agrave" unicode="&#xe0;" 
d="M573 360v115q-27 4 -51 4q-174 0 -174 -147q0 -57 31 -89t84 -32q110 -1 110 149zM922 727v-416q0 -47 41 -47q8 0 36 6v-241q-117 -39 -192 -39q-172 0 -195 151q-2 -6 -5 -17t-21 -39q-68 -105 -248 -105q-136 0 -222 93t-85 240q0 186 117 271q118 84 294 84
q74 0 131 -9v19q-1 78 -35 110t-111 31q-77 0 -251 -41l-59 242q193 66 387 65q418 0 418 -358zM266 1509l226 129l157 -424h-209z" />
    <glyph glyph-name="aacute" unicode="&#xe1;" 
d="M573 360v115q-27 4 -51 4q-174 0 -174 -147q0 -57 31 -89t84 -32q110 -1 110 149zM922 727v-416q0 -47 41 -47q8 0 36 6v-241q-117 -39 -192 -39q-172 0 -195 151q-2 -6 -5 -17t-21 -39q-68 -105 -248 -105q-136 0 -222 93t-85 240q0 186 117 271q118 84 294 84
q74 0 131 -9v19q-1 78 -35 110t-111 31q-77 0 -251 -41l-59 242q193 66 387 65q418 0 418 -358zM530 1638l226 -129l-174 -295h-209z" />
    <glyph glyph-name="acircumflex" unicode="&#xe2;" 
d="M573 360v115q-27 4 -51 4q-174 0 -174 -147q0 -57 31 -89t84 -32q110 -1 110 149zM922 727v-416q0 -47 41 -47q8 0 36 6v-241q-117 -39 -192 -39q-172 0 -195 151q-2 -6 -5 -17t-21 -39q-68 -105 -248 -105q-136 0 -222 93t-85 240q0 186 117 271q118 84 294 84
q74 0 131 -9v19q-1 78 -35 110t-111 31q-77 0 -251 -41l-59 242q193 66 387 65q418 0 418 -358zM399 1214h-225l232 328h229l246 -328h-232l-123 189z" />
    <glyph glyph-name="atilde" unicode="&#xe3;" 
d="M573 360v115q-27 4 -51 4q-174 0 -174 -147q0 -57 31 -89t84 -32q110 -1 110 149zM922 727v-416q0 -47 41 -47q8 0 36 6v-241q-117 -39 -192 -39q-172 0 -195 151q-2 -6 -5 -17t-21 -39q-68 -105 -248 -105q-136 0 -222 93t-85 240q0 186 117 271q118 84 294 84
q74 0 131 -9v19q-1 78 -35 110t-111 31q-77 0 -251 -41l-59 242q193 66 387 65q418 0 418 -358zM456 1513q66 0 138 -45t112 -45t87 70l86 -68q-96 -211 -232 -211q-61 0 -127 44t-108 44t-93 -71l-90 74q39 84 101 146q60 62 126 62z" />
    <glyph glyph-name="adieresis" unicode="&#xe4;" 
d="M573 360v115q-27 4 -51 4q-174 0 -174 -147q0 -57 31 -89t84 -32q110 -1 110 149zM922 727v-416q0 -47 41 -47q8 0 36 6v-241q-117 -39 -192 -39q-172 0 -195 151q-2 -6 -5 -17t-21 -39q-68 -105 -248 -105q-136 0 -222 93t-85 240q0 186 117 271q118 84 294 84
q74 0 131 -9v19q-1 78 -35 110t-111 31q-77 0 -251 -41l-59 242q193 66 387 65q418 0 418 -358zM920 1366q0 -66 -42 -108t-110 -42t-110 42t-42 108t42 108t110 42t110 -42t42 -108zM455 1366q0 -66 -42 -108t-110 -42q-67 0 -109 42t-42 108t42 108t110 42t109 -42
q42 -42 42 -108z" />
    <glyph glyph-name="aring" unicode="&#xe5;" 
d="M573 360v115q-27 4 -51 4q-174 0 -174 -147q0 -57 31 -89t84 -32q110 -1 110 149zM922 727v-416q0 -47 41 -47q8 0 36 6v-241q-117 -39 -192 -39q-172 0 -195 151q-2 -6 -5 -17t-21 -39q-68 -105 -248 -105q-136 0 -222 93t-85 240q0 186 117 271q118 84 294 84
q74 0 131 -9v19q-1 78 -35 110t-111 31q-77 0 -251 -41l-59 242q193 66 387 65q418 0 418 -358zM555 1507q-31 0 -55 -20q-24 -19 -23 -63q0 -44 24 -64q25 -20 55 -20t54 20t23 63q1 43 -23 63t-55 21zM555 1634q86 0 146 -54q61 -54 61 -154t-60 -156t-147 -56
q-86 0 -146 56t-61 155q0 101 60 155t147 54z" />
    <glyph glyph-name="ae" unicode="&#xe6;" horiz-adv-x="1503" 
d="M1106 817q-154 0 -168 -178h291q4 72 -29 125t-94 53zM465 211q94 0 151 68q-33 76 -43 196q-20 4 -51 4q-174 0 -174 -147q0 -55 33 -88t84 -33zM1120 1085q178 0 294 -128q114 -128 122 -341q4 -88 -12 -174h-584q16 -197 248 -196q129 0 262 53l80 -231
q-160 -88 -400 -88t-391 155q-73 -78 -159 -117q-86 -38 -232 -38t-232 93t-85 240q0 184 116 270q117 85 295 85q72 0 133 -11q2 27 15 58q-12 104 -160 104q-82 0 -256 -41l-57 242q193 66 399 66t307 -97q119 96 297 96z" />
    <glyph glyph-name="ccedilla" unicode="&#xe7;" horiz-adv-x="894" 
d="M551 -20h-2l-23 -95q8 2 15 2q100 0 137 -84q14 -33 14 -69q0 -84 -53 -127t-144 -43t-165 28l30 109q55 -18 101 -18q66 0 65 55q0 53 -69 53q-18 0 -37 -6l-41 51l49 158q-176 39 -278 183q-102 143 -102 371t138 383q139 155 365 154q162 0 305 -94l-96 -221l-26 15
q-61 34 -130 34q-113 0 -164 -87t-51 -200q0 -114 50 -200t165 -86q77 0 139 39q8 4 15 6l4 4l94 -221q-143 -94 -305 -94z" />
    <glyph glyph-name="egrave" unicode="&#xe8;" horiz-adv-x="991" 
d="M521 817q-54 0 -93 -40t-47 -138h248q4 74 -25 126t-83 52zM49 538q0 251 129 399t329 148q201 0 311 -128t118 -341q4 -88 -12 -174h-541q16 -197 213 -196q121 0 254 53l80 -231q-160 -88 -379 -88t-361 153q-141 154 -141 405zM309 1509l226 129l157 -424h-209z" />
    <glyph glyph-name="eacute" unicode="&#xe9;" horiz-adv-x="991" 
d="M521 817q-54 0 -93 -40t-47 -138h248q4 74 -25 126t-83 52zM49 538q0 251 129 399t329 148q201 0 311 -128t118 -341q4 -88 -12 -174h-541q16 -197 213 -196q121 0 254 53l80 -231q-160 -88 -379 -88t-361 153q-141 154 -141 405zM530 1638l226 -129l-174 -295h-209z" />
    <glyph glyph-name="ecircumflex" unicode="&#xea;" horiz-adv-x="991" 
d="M521 817q-54 0 -93 -40t-47 -138h248q4 74 -25 126t-83 52zM49 538q0 251 129 399t329 148q201 0 311 -128t118 -341q4 -88 -12 -174h-541q16 -197 213 -196q121 0 254 53l80 -231q-160 -88 -379 -88t-361 153q-141 154 -141 405zM399 1214h-225l232 328h229l246 -328
h-232l-123 189z" />
    <glyph glyph-name="edieresis" unicode="&#xeb;" horiz-adv-x="974" 
d="M521 817q-54 0 -93 -40t-47 -138h248q4 74 -25 126t-83 52zM49 538q0 251 129 399t329 148q201 0 311 -128t118 -341q4 -88 -12 -174h-541q16 -197 213 -196q121 0 254 53l80 -231q-160 -88 -379 -88t-361 153q-141 154 -141 405zM930 1366q0 -66 -42 -108t-110 -42
t-110 42t-41 108q0 66 42 108q41 42 109 42t110 -42t42 -108zM465 1366q0 -66 -42 -108t-110 -42q-67 0 -109 42t-42 108t42 108t110 42t109 -42q42 -42 42 -108z" />
    <glyph glyph-name="igrave" unicode="&#xec;" horiz-adv-x="587" 
d="M45 1065h442v-1065h-346v793l-96 26v246zM12 1509l226 129l157 -424h-209z" />
    <glyph glyph-name="iacute" unicode="&#xed;" horiz-adv-x="589" 
d="M51 1065h443v-1065h-347v793l-96 26v246zM340 1638l225 -129l-174 -295h-209z" />
    <glyph glyph-name="icircumflex" unicode="&#xee;" horiz-adv-x="583" 
d="M31 1065h442v-1065h-346v793l-96 26v246zM133 1214h-225l231 328h230l245 -328h-231l-123 189z" />
    <glyph glyph-name="idieresis" unicode="&#xef;" horiz-adv-x="583" 
d="M45 1065h442v-1065h-346v793l-96 26v246zM662 1366q0 -66 -42 -108t-110 -42t-110 42t-42 108t42 108t110 42t110 -42t42 -108zM197 1366q0 -66 -42 -108t-110 -42t-110 42t-41 108q0 66 41 108q42 42 110 42t110 -42t42 -108z" />
    <glyph glyph-name="eth" unicode="&#xf0;" horiz-adv-x="1015" 
d="M346 483q0 -91 40 -157t114 -66t116 67t43 163q-1 96 -41 155q-40 60 -116 60t-116 -65t-40 -157zM967 586q0 -285 -125 -444q-125 -158 -339 -158t-336 142t-122 366t120 358t310 133q53 0 103 -20t71 -41l23 -19q-47 180 -150 297l-143 -117l-86 111l137 115
q-57 60 -176 123l88 145q147 -51 242 -135l155 131l92 -113l-141 -117q143 -151 210 -353t67 -404z" />
    <glyph glyph-name="ntilde" unicode="&#xf1;" horiz-adv-x="1038" 
d="M98 1065h262l54 -152q86 172 256 172q104 0 189 -74q48 -42 78 -131t30 -216v-664h-349v713q0 106 -81 106q-90 0 -91 -143v-676h-348v1065zM420 1513q64 0 138 -45q73 -45 113 -45t87 70l86 -68q-96 -211 -232 -211q-63 0 -129 44q-67 44 -107 44t-91 -71l-90 74
q39 84 100 146t125 62z" />
    <glyph glyph-name="ograve" unicode="&#xf2;" horiz-adv-x="1056" 
d="M524 246q143 0 143 286t-140 287q-140 -1 -140 -287t137 -286zM47 536q0 250 132 400t347 150t350 -150q134 -150 134 -400t-134 -404q-134 -152 -350 -152t-347 152q-132 152 -132 404zM307 1509l225 129l158 -424h-209z" />
    <glyph glyph-name="oacute" unicode="&#xf3;" horiz-adv-x="1056" 
d="M524 246q143 0 143 286t-140 287q-140 -1 -140 -287t137 -286zM47 536q0 250 132 400t347 150t350 -150q134 -150 134 -400t-134 -404q-134 -152 -350 -152t-347 152q-132 152 -132 404zM528 1638l226 -129l-174 -295h-209z" />
    <glyph glyph-name="ocircumflex" unicode="&#xf4;" horiz-adv-x="1056" 
d="M524 246q143 0 143 286t-140 287q-140 -1 -140 -287t137 -286zM47 536q0 250 132 400t347 150t350 -150q134 -150 134 -400t-134 -404q-134 -152 -350 -152t-347 152q-132 152 -132 404zM395 1214h-225l231 328h230l246 -328h-232l-123 189z" />
    <glyph glyph-name="otilde" unicode="&#xf5;" horiz-adv-x="1056" 
d="M524 246q143 0 143 286t-140 287q-140 -1 -140 -287t137 -286zM47 536q0 250 132 400t347 150t350 -150q134 -150 134 -400t-134 -404q-134 -152 -350 -152t-347 152q-132 152 -132 404zM677 1423q40 0 87 70l86 -68q-92 -203 -232 -211q-63 -4 -129 42q-65 46 -107 46
t-91 -71l-90 74q39 82 100 143t125 64t138 -43q73 -46 113 -46z" />
    <glyph glyph-name="odieresis" unicode="&#xf6;" horiz-adv-x="1056" 
d="M524 246q143 0 143 286t-140 287q-140 -1 -140 -287t137 -286zM47 536q0 250 132 400t347 150t350 -150q134 -150 134 -400t-134 -404q-134 -152 -350 -152t-347 152q-132 152 -132 404zM928 1381q0 -73 -48 -119t-119 -45q-71 -1 -117 45t-46 117t49 119t117 48t116 -46
t48 -119zM459 1381q0 -73 -46 -119t-118 -45q-72 -1 -117 45t-45 117t47 119t117 48t116 -46t46 -119z" />
    <glyph glyph-name="divide" unicode="&#xf7;" horiz-adv-x="1024" 
d="M367 309q0 66 44 111t103 45t104 -46q46 -45 46 -109t-46 -111t-106 -47q-61 0 -103 46t-42 111zM78 797h868v-224h-868v224zM515 1221q61 0 105 -45t44 -112t-44 -113t-106 -46t-105 47q-42 47 -42 113t44 111t104 45z" />
    <glyph glyph-name="oslash" unicode="&#xf8;" horiz-adv-x="1056" 
d="M526 819q-139 0 -139 -282q0 -66 4 -95l201 357q-31 20 -66 20zM668 539q0 72 -9 114l-213 -374q31 -33 78 -33q144 0 144 293zM47 526q0 260 132 410t347 149q113 0 203 -43l74 132h151l-114 -203q170 -150 170 -418t-134 -421t-350 -152q-117 0 -219 49l-67 -119h-150
l111 196q-154 159 -154 420z" />
    <glyph glyph-name="ugrave" unicode="&#xf9;" 
d="M92 1065h348v-696q0 -123 76 -123q86 0 86 162v657h348v-1065h-262l-53 152q1 -22 -25 -57t-53 -59q-64 -55 -188 -56q-193 0 -255 206q-22 74 -22 172v707zM285 1509l225 129l158 -424h-209z" />
    <glyph glyph-name="uacute" unicode="&#xfa;" 
d="M92 1065h348v-696q0 -123 76 -123q86 0 86 162v657h348v-1065h-262l-53 152q1 -22 -25 -57t-53 -59q-64 -55 -188 -56q-193 0 -255 206q-22 74 -22 172v707zM543 1638l225 -129l-174 -295h-209z" />
    <glyph glyph-name="ucircumflex" unicode="&#xfb;" 
d="M92 1065h348v-696q0 -123 76 -123q86 0 86 162v657h348v-1065h-262l-53 152q1 -22 -25 -57t-53 -59q-64 -55 -188 -56q-193 0 -255 206q-22 74 -22 172v707zM393 1214h-225l231 328h230l245 -328h-231l-123 189z" />
    <glyph glyph-name="udieresis" unicode="&#xfc;" 
d="M92 1065h348v-696q0 -123 76 -123q86 0 86 162v657h348v-1065h-262l-53 152q1 -22 -25 -57t-53 -59q-64 -55 -188 -56q-193 0 -255 206q-22 74 -22 172v707zM907 1366q0 -66 -42 -108q-41 -42 -109 -42t-110 42t-42 108t42 108t110 42t110 -42t41 -108zM442 1366
q0 -66 -42 -108t-110 -42t-109 42q-42 42 -42 108t42 108t110 42q67 0 109 -42t42 -108z" />
    <glyph glyph-name="yacute" unicode="&#xfd;" 
d="M25 1065h329l178 -672l166 672h326l-428 -1413h-352l106 344zM537 1638l225 -129l-174 -295h-209z" />
    <glyph glyph-name="thorn" unicode="&#xfe;" horiz-adv-x="1128" 
d="M436 532q0 -130 41 -208t112 -78t111 77t41 211q-1 134 -41 209q-40 76 -111 76t-112 -78t-41 -209zM678 1085q197 1 298 -157t101 -396t-101 -396t-298 -156q-164 0 -234 122v-450h-346v1782h346v-476q89 127 234 127z" />
    <glyph glyph-name="ydieresis" unicode="&#xff;" 
d="M25 1065h329l178 -672l166 672h326l-428 -1413h-352l106 344zM893 1366q0 -66 -42 -108t-110 -42q-67 0 -109 42t-42 108t42 108t110 42t109 -42q42 -42 42 -108zM428 1366q0 -66 -42 -108t-110 -42t-110 42t-41 108q0 66 42 108q41 42 109 42t110 -42t42 -108z" />
    <glyph glyph-name="Amacron" unicode="&#x100;" horiz-adv-x="1253" 
d="M618 1108l-102 -490h211l-104 490h-5zM408 1444h440l409 -1444h-374l-84 342h-357l-84 -342h-362zM342 1780h571v-207h-571v207z" />
    <glyph glyph-name="amacron" unicode="&#x101;" 
d="M573 360v115q-27 4 -51 4q-174 0 -174 -147q0 -57 31 -89t84 -32q110 -1 110 149zM922 727v-416q0 -47 41 -47q8 0 36 6v-241q-117 -39 -192 -39q-172 0 -195 151q-2 -6 -5 -17t-21 -39q-68 -105 -248 -105q-136 0 -222 93t-85 240q0 186 117 271q118 84 294 84
q74 0 131 -9v19q-1 78 -35 110t-111 31q-77 0 -251 -41l-59 242q193 66 387 65q418 0 418 -358zM231 1452h572v-207h-572v207z" />
    <glyph glyph-name="Abreve" unicode="&#x102;" horiz-adv-x="1253" 
d="M618 1108l-102 -490h211l-104 490h-5zM408 1444h440l409 -1444h-374l-84 342h-357l-84 -342h-362zM625 1698q59 0 93 37t38 98h155q-1 -151 -75 -227t-211 -76t-211 76t-76 227h156q14 -135 131 -135z" />
    <glyph glyph-name="abreve" unicode="&#x103;" 
d="M573 360v115q-27 4 -51 4q-174 0 -174 -147q0 -57 31 -89t84 -32q110 -1 110 149zM922 727v-416q0 -47 41 -47q8 0 36 6v-241q-117 -39 -192 -39q-172 0 -195 151q-2 -6 -5 -17t-21 -39q-68 -105 -248 -105q-136 0 -222 93t-85 240q0 186 117 271q118 84 294 84
q74 0 131 -9v19q-1 78 -35 110t-111 31q-77 0 -251 -41l-59 242q193 66 387 65q418 0 418 -358zM524 1214q-137 0 -211 77q-73 77 -75 227h155q14 -135 131 -136q59 0 93 37t38 99h156q-2 -150 -76 -227t-211 -77z" />
    <glyph glyph-name="Aogonek" unicode="&#x104;" horiz-adv-x="1269" 
d="M625 1108l-103 -490h211l-104 490h-4zM1128 -158q0 -74 68 -73q31 0 53 8l29 -123q-70 -35 -152 -35t-130 52q-46 51 -46 149t84 180h-145l-84 342h-356l-84 -342h-369l412 1444h440l409 -1444q-61 -18 -95 -63t-34 -95z" />
    <glyph glyph-name="aogonek" unicode="&#x105;" 
d="M573 360v115q-27 4 -51 4q-174 0 -174 -147q0 -57 32 -89t85 -32q108 -1 108 149zM922 727v-416q0 -47 41 -47q8 0 36 6v-241q-80 -31 -141 -37q-61 -43 -61 -133t73 -90q25 0 48 8l28 -119q-61 -37 -145 -37t-134 57t-51 140q0 121 80 194q-70 35 -84 129q-2 -6 -5 -17
t-21 -39q-68 -105 -248 -105q-136 0 -222 93t-85 240q0 186 117 271q118 84 294 84q74 0 131 -9v19q-1 78 -35 110t-111 31q-77 0 -251 -41l-59 242q193 66 387 65q418 0 418 -358z" />
    <glyph glyph-name="Cacute" unicode="&#x106;" horiz-adv-x="1169" 
d="M752 1165q-148 0 -235 -121q-87 -120 -87 -326t86 -328t242 -122q121 0 224 60q11 6 20 10t14 10l119 -256q-139 -121 -392 -121q-301 0 -493 196t-193 550q0 353 194 549t507 196q117 -2 221 -41t156 -86l-117 -252q-118 82 -266 82zM715 1966l225 -129l-174 -295h-209z
" />
    <glyph glyph-name="cacute" unicode="&#x107;" horiz-adv-x="892" 
d="M551 -20q-227 0 -366 152q-138 152 -138 398t139 401t365 154q162 0 305 -94l-96 -221l-26 15q-61 34 -130 34q-113 0 -164 -87t-51 -200q0 -114 50 -200t165 -86q77 0 139 39q8 4 15 6l4 4l94 -221q-143 -94 -305 -94zM537 1638l225 -129l-174 -295h-209z" />
    <glyph glyph-name="Ccircumflex" unicode="&#x108;" horiz-adv-x="1169" 
d="M752 1165q-148 0 -235 -121q-87 -120 -87 -326t86 -328t242 -122q121 0 224 60q11 6 20 10t14 10l119 -256q-139 -121 -392 -121q-301 0 -493 196t-193 550q0 353 194 549t507 196q117 -2 221 -41t156 -86l-117 -252q-118 82 -266 82zM573 1542h-225l232 328h229
l246 -328h-232l-123 189z" />
    <glyph glyph-name="ccircumflex" unicode="&#x109;" horiz-adv-x="892" 
d="M551 -20q-227 0 -366 152q-138 152 -138 398t139 401t365 154q162 0 305 -94l-96 -221l-26 15q-61 34 -130 34q-113 0 -164 -87t-51 -200q0 -114 50 -200t165 -86q77 0 139 39q8 4 15 6l4 4l94 -221q-143 -94 -305 -94zM406 1214h-226l232 328h229l246 -328h-232
l-123 189z" />
    <glyph glyph-name="Cdotaccent" unicode="&#x10a;" horiz-adv-x="1169" 
d="M752 1165q-148 0 -235 -121q-87 -120 -87 -326t86 -328t242 -122q121 0 224 60q11 6 20 10t14 10l119 -256q-139 -121 -392 -121q-301 0 -493 196t-193 550q0 353 194 549t507 196q117 -2 221 -41t156 -86l-117 -252q-118 82 -266 82zM877 1694q0 -66 -42 -108t-110 -42
t-110 42t-42 108t42 108t110 41q68 1 110 -41t42 -108z" />
    <glyph glyph-name="cdotaccent" unicode="&#x10b;" horiz-adv-x="892" 
d="M551 -20q-227 0 -366 152q-138 152 -138 398t139 401t365 154q162 0 305 -94l-96 -221l-26 15q-61 34 -130 34q-113 0 -164 -87t-51 -200q0 -114 50 -200t165 -86q77 0 139 39q8 4 15 6l4 4l94 -221q-143 -94 -305 -94zM705 1368q0 -66 -42 -108t-110 -41q-68 0 -110 42
q-42 41 -42 107t42 108t110 42t110 -42t42 -108z" />
    <glyph glyph-name="Ccaron" unicode="&#x10c;" horiz-adv-x="1169" 
d="M752 1165q-148 0 -235 -121q-87 -120 -87 -326t86 -328t242 -122q121 0 224 60q11 6 20 10t14 10l119 -256q-139 -121 -392 -121q-301 0 -493 196t-193 550q0 353 194 549t507 196q117 -2 221 -41t156 -86l-117 -252q-118 82 -266 82zM373 1870h225l127 -189l123 189h231
l-245 -328h-230z" />
    <glyph glyph-name="ccaron" unicode="&#x10d;" horiz-adv-x="892" 
d="M551 -20q-227 0 -366 152q-138 152 -138 398t139 401t365 154q162 0 305 -94l-96 -221l-26 15q-61 34 -130 34q-113 0 -164 -87t-51 -200q0 -114 50 -200t165 -86q77 0 139 39q8 4 15 6l4 4l94 -221q-143 -94 -305 -94zM176 1542h225l127 -188l123 188h232l-246 -328
h-229z" />
    <glyph glyph-name="Dcaron" unicode="&#x10e;" horiz-adv-x="1249" 
d="M485 1143v-852h43q109 0 168 43q123 88 123 383t-123 383q-59 43 -168 43h-43zM127 0v1434h471q182 0 314 -91t203 -263t71 -366t-75 -367q-150 -347 -513 -347h-471zM217 1870h225l127 -189l123 189h232l-246 -328h-229z" />
    <glyph glyph-name="dcaron" unicode="&#x10f;" horiz-adv-x="1224" 
d="M385 533q0 -135 41 -211t112 -76q72 0 112 78t40 208t-40 209q-40 78 -112 78q-71 0 -112 -76t-41 -210zM684 1499h348v-1499h-301l-29 143q-74 -163 -258 -163t-289 158t-105 394q0 238 104 396q106 158 285 158t245 -123v536zM1184 1499h241q8 -131 -49 -268t-121 -201
l-139 80q26 52 48 164t20 225z" />
    <glyph glyph-name="Dcroat" unicode="&#x110;" horiz-adv-x="1249" 
d="M485 1143v-332h152v-172h-152v-348h43q109 0 168 43q123 88 123 383t-123 383q-59 43 -168 43h-43zM127 0v639h-135v172h135v623h471q182 0 314 -91t203 -263t71 -366t-75 -367q-150 -347 -513 -347h-471z" />
    <glyph glyph-name="dcroat" unicode="&#x111;" horiz-adv-x="1130" 
d="M385 533q0 -135 41 -211t112 -76q72 0 112 78t40 208t-40 209q-40 78 -112 78q-71 0 -112 -76t-41 -210zM684 1208h-188v121h188v170h348v-170h86v-121h-86v-1208h-301l-29 143q-74 -163 -258 -163t-289 158t-105 394q0 238 104 396q106 158 285 158t245 -123v245z" />
    <glyph glyph-name="Emacron" unicode="&#x112;" horiz-adv-x="1116" 
d="M127 1434h905v-291h-547v-297h473v-291h-473v-264h551v-291h-909v1434zM297 1780h571v-207h-571v207z" />
    <glyph glyph-name="emacron" unicode="&#x113;" horiz-adv-x="991" 
d="M521 817q-54 0 -93 -40t-47 -138h248q4 74 -25 126t-83 52zM49 538q0 251 129 399t329 148q201 0 311 -128t118 -341q4 -88 -12 -174h-541q16 -197 213 -196q121 0 254 53l80 -231q-160 -88 -379 -88t-361 153q-141 154 -141 405zM244 1452h571v-207h-571v207z" />
    <glyph glyph-name="Ebreve" unicode="&#x114;" horiz-adv-x="1116" 
d="M127 1434h905v-291h-547v-297h473v-291h-473v-264h551v-291h-909v1434zM578 1698q59 0 93 37t38 98h155q-2 -151 -76 -227t-210 -76t-211 76q-74 76 -76 227h155q14 -135 132 -135z" />
    <glyph glyph-name="ebreve" unicode="&#x115;" horiz-adv-x="991" 
d="M521 817q-54 0 -93 -40t-47 -138h248q4 74 -25 126t-83 52zM49 538q0 251 129 399t329 148q201 0 311 -128t118 -341q4 -88 -12 -174h-541q16 -197 213 -196q121 0 254 53l80 -231q-160 -88 -379 -88t-361 153q-141 154 -141 405zM532 1214q-136 0 -210 77t-76 227h155
q14 -135 131 -136q59 0 94 37q34 37 38 99h155q-2 -150 -76 -227t-211 -77z" />
    <glyph glyph-name="Edotaccent" unicode="&#x116;" horiz-adv-x="1116" 
d="M127 1434h905v-291h-547v-297h473v-291h-473v-264h551v-291h-909v1434zM739 1694q0 -66 -42 -108q-41 -42 -109 -42t-110 42t-42 108t42 108t110 41q68 1 110 -41t41 -108z" />
    <glyph glyph-name="edotaccent" unicode="&#x117;" horiz-adv-x="991" 
d="M521 817q-54 0 -93 -40t-47 -138h248q4 74 -25 126t-83 52zM49 538q0 251 129 399t329 148q201 0 311 -128t118 -341q4 -88 -12 -174h-541q16 -197 213 -196q121 0 254 53l80 -231q-160 -88 -379 -88t-361 153q-141 154 -141 405zM696 1368q0 -66 -42 -108t-110 -41
q-68 0 -109 42q-42 41 -42 107t42 108t110 42q67 0 109 -42t42 -108z" />
    <glyph glyph-name="Eogonek" unicode="&#x118;" horiz-adv-x="1116" 
d="M127 1434h905v-291h-547v-297h473v-291h-473v-264h551v-291h-57q-57 -6 -87 -55t-30 -97t18 -64q18 -15 50 -15q31 0 53 8l29 -119q-56 -37 -148 -37q-92 1 -137 61t-45 153t68 165h-623v1434z" />
    <glyph glyph-name="eogonek" unicode="&#x119;" horiz-adv-x="995" 
d="M521 817q-54 0 -93 -40t-47 -138h248q4 74 -25 126t-83 52zM49 538q0 251 129 399t329 148q201 0 311 -128t118 -341q4 -88 -12 -174h-541q16 -197 213 -196q121 0 254 53l80 -231q-84 -47 -176 -66q-29 -16 -46 -63t-18 -93q0 -78 68 -77q31 0 53 8l29 -119
q-58 -37 -146 -37t-136 55q-48 54 -48 146t49 158q-227 0 -369 153q-141 154 -141 405z" />
    <glyph glyph-name="Ecaron" unicode="&#x11a;" horiz-adv-x="1116" 
d="M127 1434h905v-291h-547v-297h473v-291h-473v-264h551v-291h-909v1434zM246 1870h225l127 -189l123 189h231l-245 -328h-230z" />
    <glyph glyph-name="ecaron" unicode="&#x11b;" horiz-adv-x="991" 
d="M521 817q-54 0 -93 -40t-47 -138h248q4 74 -25 126t-83 52zM49 538q0 251 129 399t329 148q201 0 311 -128t118 -341q4 -88 -12 -174h-541q16 -197 213 -196q121 0 254 53l80 -231q-160 -88 -379 -88t-361 153q-141 154 -141 405zM180 1542h226l126 -188l123 188h232
l-246 -328h-229z" />
    <glyph glyph-name="Gcircumflex" unicode="&#x11c;" horiz-adv-x="1288" 
d="M756 1462q225 0 420 -133l-123 -254q-173 90 -313 90t-225 -122t-85 -330q0 -444 322 -445q70 0 129 37l18 12v236h-256v256h569v-608q-76 -109 -211 -169t-266 -61q-324 0 -501 199t-177 545q0 347 191 547t508 200zM592 1542h-225l231 328h229l246 -328h-231l-123 189z
" />
    <glyph glyph-name="gcircumflex" unicode="&#x11d;" horiz-adv-x="1007" 
d="M586 16q-178 0 -192 6t-17 5q-23 -23 -23 -70q0 -84 131 -84q80 0 122 16t42 66q0 61 -63 61zM492 842q-100 0 -100 -146t100 -147q94 1 94 147t-94 146zM975 1065v-250l-105 -14q18 -55 19 -119q0 -148 -97 -254t-292 -106q-92 0 -144 32q-34 -34 -18 -75t114 -41h171
q100 0 169 -29q68 -29 98 -76q50 -79 50 -175q0 -97 -43 -166q-43 -68 -114 -98q-124 -52 -293 -52t-248 33q-116 48 -152 124q-23 49 -22 115q0 121 86 186q-84 53 -84 169t92 196q-78 90 -78 242q0 193 118 285t298 93q111 0 188 -20h287zM375 1214h-225l231 328h229
l246 -328h-231l-123 189z" />
    <glyph glyph-name="Gbreve" unicode="&#x11e;" horiz-adv-x="1288" 
d="M756 1462q225 0 420 -133l-123 -254q-173 90 -313 90t-225 -122t-85 -330q0 -444 322 -445q70 0 129 37l18 12v236h-256v256h569v-608q-76 -109 -211 -169t-266 -61q-324 0 -501 199t-177 545q0 347 191 547t508 200zM739 1698q59 0 94 37q34 37 37 98h156
q-2 -151 -76 -227t-211 -76t-211 76t-75 227h155q14 -135 131 -135z" />
    <glyph glyph-name="gbreve" unicode="&#x11f;" horiz-adv-x="1007" 
d="M586 16q-178 0 -192 6t-17 5q-23 -23 -23 -70q0 -84 131 -84q80 0 122 16t42 66q0 61 -63 61zM492 842q-100 0 -100 -146t100 -147q94 1 94 147t-94 146zM975 1065v-250l-105 -14q18 -55 19 -119q0 -148 -97 -254t-292 -106q-92 0 -144 32q-34 -34 -18 -75t114 -41h171
q100 0 169 -29q68 -29 98 -76q50 -79 50 -175q0 -97 -43 -166q-43 -68 -114 -98q-124 -52 -293 -52t-248 33q-116 48 -152 124q-23 49 -22 115q0 121 86 186q-84 53 -84 169t92 196q-78 90 -78 242q0 193 118 285t298 93q111 0 188 -20h287zM496 1214q-137 0 -211 77
t-76 227h156q14 -135 131 -136q59 0 93 37t38 99h155q-2 -150 -76 -227t-210 -77z" />
    <glyph glyph-name="Gdotaccent" unicode="&#x120;" horiz-adv-x="1288" 
d="M756 1462q225 0 420 -133l-123 -254q-173 90 -313 90t-225 -122t-85 -330q0 -444 322 -445q70 0 129 37l18 12v236h-256v256h569v-608q-76 -109 -211 -169t-266 -61q-324 0 -501 199t-177 545q0 347 191 547t508 200zM879 1694q0 -66 -42 -108t-110 -42t-110 42t-42 108
t42 108t110 41q68 1 110 -41t42 -108z" />
    <glyph glyph-name="gdotaccent" unicode="&#x121;" horiz-adv-x="1007" 
d="M586 16q-178 0 -192 6t-17 5q-23 -23 -23 -70q0 -84 131 -84q80 0 122 16t42 66q0 61 -63 61zM492 842q-100 0 -100 -146t100 -147q94 1 94 147t-94 146zM975 1065v-250l-105 -14q18 -55 19 -119q0 -148 -97 -254t-292 -106q-92 0 -144 32q-34 -34 -18 -75t114 -41h171
q100 0 169 -29q68 -29 98 -76q50 -79 50 -175q0 -97 -43 -166q-43 -68 -114 -98q-124 -52 -293 -52t-248 33q-116 48 -152 124q-23 49 -22 115q0 121 86 186q-84 53 -84 169t92 196q-78 90 -78 242q0 193 118 285t298 93q111 0 188 -20h287zM641 1368q0 -66 -42 -108
t-110 -41q-67 0 -109 42q-42 41 -42 107t42 108t110 42t109 -42q42 -42 42 -108z" />
    <glyph glyph-name="Gcommaaccent" unicode="&#x122;" horiz-adv-x="1288" 
d="M756 1462q225 0 420 -133l-123 -254q-173 90 -313 90t-225 -122t-85 -330q0 -444 322 -445q70 0 129 37l18 12v236h-256v256h569v-608q-76 -109 -211 -169t-266 -61q-324 0 -501 199t-177 545q0 347 191 547t508 200zM718 -182q66 0 106 -50t40 -128q0 -188 -194 -297
l-56 96q51 41 74 71t39 82q-14 -28 -54 -28t-69 34t-29 86t38 93q39 41 105 41z" />
    <glyph glyph-name="gcommaaccent" unicode="&#x123;" horiz-adv-x="1007" 
d="M586 16q-178 0 -192 6t-17 5q-23 -23 -23 -70q0 -84 131 -84q80 0 122 16t42 66q0 61 -63 61zM492 842q-100 0 -100 -146t100 -147q94 1 94 147t-94 146zM975 1065v-250l-105 -14q18 -55 19 -119q0 -148 -97 -254t-292 -106q-92 0 -144 32q-34 -34 -18 -75t114 -41h171
q100 0 169 -29q68 -29 98 -76q50 -79 50 -175q0 -97 -43 -166q-43 -68 -114 -98q-124 -52 -293 -52t-248 33q-116 48 -152 124q-23 49 -22 115q0 121 86 186q-84 53 -84 169t92 196q-78 90 -78 242q0 193 118 285t298 93q111 0 188 -20h287zM643 1342q0 -52 -38 -92
q-39 -42 -105 -42t-106 50t-40 128q0 188 195 297l55 -96q-51 -41 -75 -71t-40 -82q13 28 55 28t70 -34t29 -86z" />
    <glyph glyph-name="Hcircumflex" unicode="&#x124;" horiz-adv-x="1357" 
d="M127 1434h358v-582h389v582h357v-1434h-357v545h-389v-545h-358v1434zM557 1542h-225l231 328h230l245 -328h-231l-123 189z" />
    <glyph glyph-name="hcircumflex" unicode="&#x125;" horiz-adv-x="1054" 
d="M96 1499h348v-541q27 56 88 92t124 36t107 -17q44 -16 93 -57t79 -129t30 -215v-668h-349v690q0 129 -79 129q-43 0 -68 -39t-25 -110v-670h-348v1499zM131 1542h-225l231 328h230l245 -328h-231l-123 189z" />
    <glyph glyph-name="Hbar" unicode="&#x126;" horiz-adv-x="1355" 
d="M485 852h389v203h-389v-203zM127 1434h358v-215h389v215h357v-215h88v-164h-88v-1055h-357v545h-389v-545h-358v1055h-88v164h88v215z" />
    <glyph glyph-name="hbar" unicode="&#x127;" horiz-adv-x="1054" 
d="M96 1499h348v-170h179v-121h-179v-250q27 56 88 92t124 36t107 -17q44 -16 93 -57t79 -129t30 -215v-668h-349v690q0 129 -79 129q-43 0 -68 -39t-25 -110v-670h-348v1208h-88v121h88v170z" />
    <glyph glyph-name="Itilde" unicode="&#x128;" horiz-adv-x="612" 
d="M127 1434h358v-1434h-358v1434zM460 1751q40 0 87 70l86 -68q-92 -203 -232 -211q-63 -4 -129 42t-108 46t-90 -71l-90 73q39 82 100 144q62 62 126 64q64 3 137 -43t113 -46z" />
    <glyph glyph-name="itilde" unicode="&#x129;" horiz-adv-x="583" 
d="M45 1065h442v-1065h-346v793l-96 26v246zM178 1513q64 0 136 -45q71 -45 113 -45t89 70l86 -68q-96 -211 -231 -211q-63 0 -129 44t-107 44t-92 -71l-90 74q39 84 100 146t125 62z" />
    <glyph glyph-name="Imacron" unicode="&#x12a;" horiz-adv-x="612" 
d="M127 1434h358v-1434h-358v1434zM20 1780h572v-207h-572v207z" />
    <glyph glyph-name="imacron" unicode="&#x12b;" horiz-adv-x="583" 
d="M45 1065h442v-1065h-346v793l-96 26v246zM-12 1452h571v-207h-571v207z" />
    <glyph glyph-name="Ibreve" unicode="&#x12c;" horiz-adv-x="614" 
d="M127 1434h358v-1434h-358v1434zM309 1698q59 0 93 37t38 98h156q-2 -151 -76 -227t-211 -76t-211 76t-75 227h155q14 -135 131 -135z" />
    <glyph glyph-name="ibreve" unicode="&#x12d;" horiz-adv-x="583" 
d="M45 1065h442v-1065h-346v793l-96 26v246zM278 1214q-136 0 -210 77t-76 227h155q14 -135 132 -136q59 0 93 37t38 99h155q-2 -150 -76 -227q-75 -77 -211 -77z" />
    <glyph glyph-name="Iogonek" unicode="&#x12e;" horiz-adv-x="610" 
d="M127 1434h358v-1434q-81 0 -115 -49t-34 -103q0 -86 74 -86q14 0 47 9l28 -113q-59 -37 -144 -37t-133 54t-48 137q0 119 78 188h-111v1434z" />
    <glyph glyph-name="iogonek" unicode="&#x12f;" horiz-adv-x="589" 
d="M301 1556q80 0 127 -55t47 -134t-48 -133t-126 -54t-126 54t-48 133t47 134t127 55zM51 1065h445v-1065h-4q-74 -6 -104 -53t-30 -97t18 -66q18 -15 50 -15q31 0 53 8l29 -119q-57 -37 -154 -37q-125 0 -166 129q-10 41 -10 74q0 104 68 176h-99v793l-96 26v246z" />
    <glyph glyph-name="Idotaccent" unicode="&#x130;" horiz-adv-x="612" 
d="M127 1434h358v-1434h-358v1434zM461 1694q0 -66 -42 -108t-110 -42q-67 0 -109 42t-42 108t42 108t110 41q68 1 109 -41q42 -42 42 -108z" />
    <glyph glyph-name="dotlessi" unicode="&#x131;" horiz-adv-x="589" 
d="M49 1065h443v-1065h-347v793l-96 26v246z" />
    <glyph glyph-name="Jcircumflex" unicode="&#x134;" horiz-adv-x="929" 
d="M844 459q0 -215 -118 -351t-333 -137q-256 0 -405 213l188 191q72 -102 172 -103q61 0 99 41t38 109v1012h359v-975zM532 1542h-225l232 328h229l246 -328h-232l-123 189z" />
    <glyph glyph-name="jcircumflex" unicode="&#x135;" horiz-adv-x="598" 
d="M72 -70q30 0 40 3q46 15 46 122v738l-119 34v238h467v-1032q0 -166 -96 -274t-269 -107q-102 0 -192 39l51 254q42 -15 72 -15zM164 1214h-225l231 328h229l246 -328h-231l-123 189z" />
    <glyph glyph-name="Kcommaaccent" unicode="&#x136;" horiz-adv-x="1243" 
d="M127 0v1434h358v-529h2l5 -2l358 531h399l-452 -641l448 -793h-411l-287 522l-62 -78v-444h-358zM630 -182q66 0 106 -50t40 -128q0 -188 -194 -297l-56 96q51 41 74 71t39 82q-14 -28 -54 -28t-69 34t-29 86t38 93q39 41 105 41z" />
    <glyph glyph-name="kcommaaccent" unicode="&#x137;" horiz-adv-x="1044" 
d="M98 1499h348v-434l-8 -328l4 -2l226 330h381l-320 -453l309 -612h-356l-182 385l-54 -74v-311h-348v1499zM542 -154q66 0 106 -50t40 -128q0 -188 -194 -297l-56 97q51 40 74 70t39 83q-14 -29 -54 -29t-69 34t-29 86t38 93q39 41 105 41z" />
    <glyph glyph-name="kgreenlandic" unicode="&#x138;" horiz-adv-x="1044" 
d="M98 1065h348l-8 -328l4 -2l226 330h381l-320 -453l309 -612h-356l-182 385l-54 -74v-311h-348v1065z" />
    <glyph glyph-name="Lacute" unicode="&#x139;" horiz-adv-x="976" 
d="M127 1434h358v-1143h467v-291h-825v1434zM356 1966l226 -129l-174 -295h-209z" />
    <glyph glyph-name="lacute" unicode="&#x13a;" horiz-adv-x="608" 
d="M106 1499h349v-1171q0 -78 71 -78q12 0 45 4v-242q-106 -33 -186 -32q-129 0 -204 68t-75 255v1196zM334 1985l225 -130l-174 -294h-209z" />
    <glyph glyph-name="Lcommaaccent" unicode="&#x13b;" horiz-adv-x="976" 
d="M127 1434h358v-1143h467v-291h-825v1434zM552 -182q66 0 106 -50t40 -128q0 -188 -194 -297l-55 96q51 41 73 71t39 82q-14 -28 -54 -28t-69 34q-28 34 -28 86t37 93q39 41 105 41z" />
    <glyph glyph-name="lcommaaccent" unicode="&#x13c;" horiz-adv-x="608" 
d="M106 1499h349v-1171q0 -78 71 -78q12 0 45 4v-242q-106 -33 -186 -32q-129 0 -204 68t-75 255v1196zM334 -182q66 0 106 -50t39 -128q0 -188 -194 -297l-56 96q51 41 74 71t39 82q-14 -28 -54 -28t-69 34t-29 86t38 93q40 41 106 41z" />
    <glyph glyph-name="Lcaron" unicode="&#x13d;" horiz-adv-x="985" 
d="M127 1434h358v-1143h467v-291h-825v1434zM721 1434h242q9 -130 -49 -268t-121 -201l-140 79q27 51 49 164t19 226z" />
    <glyph glyph-name="lcaron" unicode="&#x13e;" horiz-adv-x="704" 
d="M106 1499h349v-1171q0 -78 71 -78q12 0 45 4v-242q-106 -33 -186 -32q-129 0 -204 68t-75 255v1196zM672 1499h241q8 -131 -49 -268t-121 -201l-139 80q26 52 48 164t20 225z" />
    <glyph glyph-name="Lslash" unicode="&#x141;" horiz-adv-x="1011" 
d="M172 1434h358v-533l263 180v-168l-263 -180v-442h467v-291h-825v489l-168 -114v168l168 114v777z" />
    <glyph glyph-name="lslash" unicode="&#x142;" horiz-adv-x="696" 
d="M143 1499h349v-598l215 146v-183l-215 -141v-395q0 -78 71 -78q12 0 45 4v-242q-106 -33 -186 -32q-129 0 -204 68t-75 255v193l-145 -93v170l145 97v829z" />
    <glyph glyph-name="Nacute" unicode="&#x143;" horiz-adv-x="1331" 
d="M846 946v488h358v-1434h-370l-355 825h-4q10 -172 10 -362v-463h-358v1434h373l352 -799h4q-10 137 -10 311zM709 1966l225 -129l-174 -295h-209z" />
    <glyph glyph-name="nacute" unicode="&#x144;" horiz-adv-x="1038" 
d="M98 1065h262l54 -152q86 172 256 172q104 0 189 -74q48 -42 78 -131t30 -216v-664h-349v713q0 106 -81 106q-90 0 -91 -143v-676h-348v1065zM535 1638l225 -129l-174 -295h-209z" />
    <glyph glyph-name="Ncommaaccent" unicode="&#x145;" horiz-adv-x="1331" 
d="M846 946v488h358v-1434h-370l-355 825h-4q10 -172 10 -362v-463h-358v1434h373l352 -799h4q-10 137 -10 311zM512 -316q0 52 38 92q38 42 104 42t107 -50q40 -50 40 -128q0 -188 -195 -297l-55 96q51 41 74 71t39 82q-14 -28 -54 -28t-70 34q-28 34 -28 86z" />
    <glyph glyph-name="ncommaaccent" unicode="&#x146;" horiz-adv-x="1038" 
d="M98 1065h262l54 -152q86 172 256 172q104 0 189 -74q48 -42 78 -131t30 -216v-664h-349v713q0 106 -81 106q-90 0 -91 -143v-676h-348v1065zM387 -316q0 52 38 92q39 42 105 42t106 -50t40 -128q0 -188 -195 -297l-55 96q51 41 74 71t39 82q-15 -28 -55 -28t-68 34
t-29 86z" />
    <glyph glyph-name="Ncaron" unicode="&#x147;" horiz-adv-x="1331" 
d="M846 946v488h358v-1434h-370l-355 825h-4q10 -172 10 -362v-463h-358v1434h373l352 -799h4q-10 137 -10 311zM315 1870h226l127 -189l123 189h231l-246 -328h-229z" />
    <glyph glyph-name="ncaron" unicode="&#x148;" horiz-adv-x="1038" 
d="M98 1065h262l54 -152q86 172 256 172q104 0 189 -74q48 -42 78 -131t30 -216v-664h-349v713q0 106 -81 106q-90 0 -91 -143v-676h-348v1065zM168 1542h225l127 -188l123 188h231l-245 -328h-230z" />
    <glyph glyph-name="Eng" unicode="&#x14a;" horiz-adv-x="1331" 
d="M485 0h-358v1434h373l356 -779h4l-14 322v457h358v-1434q-2 -114 -44 -184q-74 -123 -264 -175q-77 -22 -124 -26l-47 -4l-57 244q6 2 34 7t65 28q71 47 73 110l-365 805h-4l14 -322v-483z" />
    <glyph glyph-name="eng" unicode="&#x14b;" horiz-adv-x="1062" 
d="M98 1065h273l53 -152q86 172 242 172q88 0 145 -37q57 -36 88 -80q74 -104 74 -304v-627q0 -250 -223 -360q-119 -58 -250 -66l-62 225q180 53 180 156v721q0 106 -75 106q-86 0 -86 -143v-676h-359v1065z" />
    <glyph glyph-name="Omacron" unicode="&#x14c;" horiz-adv-x="1404" 
d="M705 268q133 0 203 120t69 328q0 208 -73 328q-74 120 -200 121q-126 -1 -200 -121t-74 -328t71 -328t204 -120zM59 722q0 332 174 536q175 204 471 204t470 -204t174 -536t-169 -541q-169 -208 -474 -208t-476 208q-170 208 -170 541zM420 1780h571v-207h-571v207z" />
    <glyph glyph-name="omacron" unicode="&#x14d;" horiz-adv-x="1056" 
d="M524 246q143 0 143 286t-140 287q-140 -1 -140 -287t137 -286zM47 536q0 250 132 400t347 150t350 -150q134 -150 134 -400t-134 -404q-134 -152 -350 -152t-347 152q-132 152 -132 404zM238 1452h571v-207h-571v207z" />
    <glyph glyph-name="Obreve" unicode="&#x14e;" horiz-adv-x="1404" 
d="M705 268q133 0 203 120t69 328q0 208 -73 328q-74 120 -200 121q-126 -1 -200 -121t-74 -328t71 -328t204 -120zM59 722q0 332 174 536q175 204 471 204t470 -204t174 -536t-169 -541q-169 -208 -474 -208t-476 208q-170 208 -170 541zM709 1698q59 0 93 37t38 98h155
q-1 -151 -75 -227t-211 -76t-211 76t-76 227h156q14 -135 131 -135z" />
    <glyph glyph-name="obreve" unicode="&#x14f;" horiz-adv-x="1056" 
d="M524 246q143 0 143 286t-140 287q-140 -1 -140 -287t137 -286zM47 536q0 250 132 400t347 150t350 -150q134 -150 134 -400t-134 -404q-134 -152 -350 -152t-347 152q-132 152 -132 404zM528 1214q-137 0 -211 77q-73 77 -75 227h155q14 -135 131 -136q59 0 94 37
q34 37 37 99h156q-2 -150 -76 -227t-211 -77z" />
    <glyph glyph-name="Ohungarumlaut" unicode="&#x150;" horiz-adv-x="1404" 
d="M705 268q133 0 203 120t69 328q0 208 -73 328q-74 120 -200 121q-126 -1 -200 -121t-74 -328t71 -328t204 -120zM59 722q0 332 174 536q175 204 471 204t470 -204t174 -536t-169 -541q-169 -208 -474 -208t-476 208q-170 208 -170 541zM905 1966l225 -129l-174 -295h-208
zM561 1966l225 -129l-174 -295h-209z" />
    <glyph glyph-name="ohungarumlaut" unicode="&#x151;" horiz-adv-x="1056" 
d="M524 246q143 0 143 286t-140 287q-140 -1 -140 -287t137 -286zM47 536q0 250 132 400t347 150t350 -150q134 -150 134 -400t-134 -404q-134 -152 -350 -152t-347 152q-132 152 -132 404zM725 1638l225 -129l-174 -295h-209zM381 1638l225 -129l-174 -295h-209z" />
    <glyph glyph-name="OE" unicode="&#x152;" horiz-adv-x="1970" 
d="M705 268q133 0 203 120t69 328q0 208 -73 328q-74 120 -200 121q-126 -1 -200 -121t-74 -328t71 -328t204 -120zM981 1434h905v-291h-547v-297h473v-291h-473v-264h551v-291h-909v53q-117 -80 -276 -82q-305 2 -476 210q-170 208 -170 541q0 332 174 536t472 204
q154 0 276 -84v56z" />
    <glyph glyph-name="oe" unicode="&#x153;" horiz-adv-x="1849" 
d="M1379 817q-54 0 -93 -40t-47 -138h248q4 74 -25 126t-83 52zM518 246q143 0 143 286t-140 287q-140 -1 -140 -287t137 -286zM41 536q0 250 132 400t347 149q150 -1 264 -75t170 -209q53 133 164 209t254 75q194 0 304 -128t118 -341q4 -88 -12 -174h-541
q16 -197 213 -196q121 0 254 53l80 -231q-160 -88 -346 -88q-361 0 -486 296q-55 -139 -171 -218t-265 -78q-215 0 -347 152t-132 404z" />
    <glyph glyph-name="Racute" unicode="&#x154;" horiz-adv-x="1230" 
d="M475 1143v-334h178q61 0 110 49q48 49 48 118t-44 118t-114 49h-178zM127 1434h553q223 0 346 -128t123 -327q0 -270 -234 -395l283 -584h-375l-233 518h-115v-518h-348v1434zM584 1966l225 -129l-174 -295h-209z" />
    <glyph glyph-name="racute" unicode="&#x155;" horiz-adv-x="743" 
d="M98 1065h281l41 -209q0 31 22 74q22 44 50 72t84 51q54 23 126 22v-340q-141 0 -198 -75t-58 -230v-430h-348v1065zM453 1638l225 -129l-174 -295h-209z" />
    <glyph glyph-name="Rcommaaccent" unicode="&#x156;" horiz-adv-x="1230" 
d="M475 1143v-334h178q61 0 110 49q48 49 48 118t-44 118t-114 49h-178zM127 1434h553q223 0 346 -128t123 -327q0 -270 -234 -395l283 -584h-375l-233 518h-115v-518h-348v1434zM598 -182q66 0 106 -50t39 -128q0 -188 -194 -297l-55 96q52 41 74 71t38 82q-14 -28 -54 -28
t-69 34t-29 86t39 92q39 42 105 42z" />
    <glyph glyph-name="rcommaaccent" unicode="&#x157;" horiz-adv-x="743" 
d="M98 1065h281l41 -209q0 31 22 74q22 44 50 72t84 51q54 23 126 22v-340q-141 0 -198 -75t-58 -230v-430h-348v1065zM133 -316q0 52 38 92q39 42 105 42t106 -50t40 -128q0 -188 -195 -297l-55 96q51 41 74 71t39 82q-14 -28 -54 -28t-69 34t-29 86z" />
    <glyph glyph-name="Rcaron" unicode="&#x158;" horiz-adv-x="1230" 
d="M475 1143v-334h178q61 0 110 49q48 49 48 118t-44 118t-114 49h-178zM127 1434h553q223 0 346 -128t123 -327q0 -270 -234 -395l283 -584h-375l-233 518h-115v-518h-348v1434zM199 1870h225l127 -189l123 189h231l-246 -328h-229z" />
    <glyph glyph-name="rcaron" unicode="&#x159;" horiz-adv-x="737" 
d="M92 1065h281l41 -209q0 31 22 74q22 44 50 72t83 51t127 22v-340q-141 0 -198 -75t-58 -230v-430h-348v1065zM86 1542h225l127 -188l123 188h232l-246 -328h-230z" />
    <glyph glyph-name="Sacute" unicode="&#x15a;" horiz-adv-x="1073" 
d="M1026 398q0 -108 -44 -196q-44 -87 -121 -136q-152 -97 -357 -97q-244 -4 -445 105l107 278q170 -86 333 -86t163 119q0 59 -42 92t-149 76t-163 76t-119 87q-125 109 -124 321q1 213 138 319t354 106t424 -98l-92 -270q-164 70 -295 69q-166 0 -166 -125q0 -67 52 -101
q34 -22 60 -34t52 -26t70 -27q80 -33 130 -62t111 -79q123 -102 123 -311zM553 1966l225 -129l-174 -295h-209z" />
    <glyph glyph-name="sacute" unicode="&#x15b;" horiz-adv-x="864" 
d="M421 -20q-175 0 -360 88l72 223q156 -66 259 -66t104 82q0 70 -158 127q-66 25 -130 59q-64 35 -111 101q-46 66 -46 162q0 172 116 251t279 79t345 -82l-72 -224q-121 62 -227 62t-107 -82q0 -37 45 -64q44 -28 108 -50t129 -56t109 -104q44 -71 45 -171
q0 -174 -112 -255q-113 -80 -288 -80zM434 1638l225 -129l-174 -295h-209z" />
    <glyph glyph-name="Scircumflex" unicode="&#x15c;" horiz-adv-x="1073" 
d="M1026 398q0 -108 -44 -196q-44 -87 -121 -136q-152 -97 -357 -97q-244 -4 -445 105l107 278q170 -86 333 -86t163 119q0 59 -42 92t-149 76t-163 76t-119 87q-125 109 -124 321q1 213 138 319t354 106t424 -98l-92 -270q-164 70 -295 69q-166 0 -166 -125q0 -67 52 -101
q34 -22 60 -34t52 -26t70 -27q80 -33 130 -62t111 -79q123 -102 123 -311zM420 1542h-225l231 328h229l246 -328h-231l-123 189z" />
    <glyph glyph-name="scircumflex" unicode="&#x15d;" horiz-adv-x="864" 
d="M421 -20q-175 0 -360 88l72 223q156 -66 259 -66t104 82q0 70 -158 127q-66 25 -130 59q-64 35 -111 101q-46 66 -46 162q0 172 116 251t279 79t345 -82l-72 -224q-121 62 -227 62t-107 -82q0 -37 45 -64q44 -28 108 -50t129 -56t109 -104q44 -71 45 -171
q0 -174 -112 -255q-113 -80 -288 -80zM315 1214h-225l232 328h229l246 -328h-232l-123 189z" />
    <glyph glyph-name="Scedilla" unicode="&#x15e;" horiz-adv-x="1075" 
d="M561 -113q61 0 107 -40q46 -41 45 -119q1 -78 -53 -121t-145 -43t-165 28l31 109q55 -18 100 -18q66 0 66 54t-70 54q-18 0 -37 -6l-41 51l35 135q-211 12 -375 103l107 278q170 -86 333 -86t163 119q0 61 -42 93t-147 74t-163 76q-165 95 -214 222q-31 80 -30 184
q0 216 137 322t354 106t424 -98l-92 -270q-164 70 -295 69q-166 0 -166 -125q0 -45 31 -79t59 -49q28 -14 75 -34q46 -20 53 -23t80 -32t186 -122q114 -94 114 -301q0 -206 -132 -309t-335 -118l-12 -86q8 2 14 2z" />
    <glyph glyph-name="scedilla" unicode="&#x15f;" horiz-adv-x="866" 
d="M392 225q103 0 104 82q0 70 -158 127q-66 25 -130 59q-64 35 -111 101q-46 66 -46 162q0 172 116 251t279 79t345 -82l-72 -224q-121 62 -227 62t-107 -82q0 -37 45 -64q44 -28 108 -50t129 -56t109 -104q44 -71 45 -171q1 -169 -107 -249t-268 -86l-18 -95q6 2 14 2
q60 0 106 -40q46 -41 46 -119t-54 -121t-144 -43t-165 28l31 109q55 -18 100 -18q66 0 66 54t-70 54q-18 0 -36 -6l-41 51l45 152q-135 16 -265 80l72 223q156 -66 259 -66z" />
    <glyph glyph-name="Scaron" unicode="&#x160;" horiz-adv-x="1073" 
d="M1026 398q0 -108 -44 -196q-44 -87 -121 -136q-152 -97 -357 -97q-244 -4 -445 105l107 278q170 -86 333 -86t163 119q0 59 -42 92t-149 76t-163 76t-119 87q-125 109 -124 321q1 213 138 319t354 106t424 -98l-92 -270q-164 70 -295 69q-166 0 -166 -125q0 -67 52 -101
q34 -22 60 -34t52 -26t70 -27q80 -33 130 -62t111 -79q123 -102 123 -311zM199 1870h225l127 -189l123 189h231l-246 -328h-229z" />
    <glyph glyph-name="scaron" unicode="&#x161;" horiz-adv-x="864" 
d="M421 -20q-175 0 -360 88l72 223q156 -66 259 -66t104 82q0 70 -158 127q-66 25 -130 59q-64 35 -111 101q-46 66 -46 162q0 172 116 251t279 79t345 -82l-72 -224q-121 62 -227 62t-107 -82q0 -37 45 -64q44 -28 108 -50t129 -56t109 -104q44 -71 45 -171
q0 -174 -112 -255q-113 -80 -288 -80zM92 1542h225l127 -188l123 188h232l-246 -328h-229z" />
    <glyph glyph-name="Tcommaaccent" unicode="&#x162;" horiz-adv-x="1052" 
d="M23 1434h1007v-291h-323v-1143h-357v1143h-327v291zM486 -436q-44 0 -72 34t-29 86q0 52 38 92q39 42 105 42t106 -50t40 -128q0 -188 -195 -297l-55 96q51 41 75 72t40 86q-9 -33 -53 -33z" />
    <glyph glyph-name="tcommaaccent" unicode="&#x163;" horiz-adv-x="727" 
d="M489 1372v-307h170v-246h-170v-504q0 -86 74 -86q39 0 90 19l15 -223q-129 -45 -232 -45q-295 0 -295 354v485h-112v217l112 23l52 313h296zM390 -182q66 0 107 -50q40 -50 40 -128q0 -188 -195 -297l-55 96q51 41 73 71t39 82q-14 -28 -54 -28t-69 34q-28 34 -28 86
t38 92q38 42 104 42z" />
    <glyph glyph-name="Tcaron" unicode="&#x164;" horiz-adv-x="1052" 
d="M23 1434h1007v-291h-323v-1143h-357v1143h-327v291zM176 1870h225l127 -189l123 189h232l-246 -328h-229z" />
    <glyph glyph-name="tcaron" unicode="&#x165;" horiz-adv-x="727" 
d="M489 1372v-307h170v-246h-170v-504q0 -86 74 -86q39 0 90 19l15 -223q-129 -45 -232 -45q-295 0 -295 354v485h-112v217l112 23l52 313h296zM651 1642h242q8 -131 -49 -268t-121 -200l-139 79q27 51 48 163t19 226z" />
    <glyph glyph-name="Tbar" unicode="&#x166;" horiz-adv-x="1056" 
d="M25 1434h1007v-291h-323v-355h194v-170h-194v-618h-357v618h-190v170h190v355h-327v291z" />
    <glyph glyph-name="tbar" unicode="&#x167;" horiz-adv-x="727" 
d="M489 1372v-307h170v-246h-170v-194h150v-123h-150v-187q0 -86 74 -86q39 0 90 19l15 -223q-129 -45 -232 -45q-295 0 -295 354v168h-108v123h108v194h-112v217l112 23l52 313h296z" />
    <glyph glyph-name="Utilde" unicode="&#x168;" horiz-adv-x="1277" 
d="M98 1434h359v-949q0 -102 49 -159q49 -58 133 -58t133 58t49 159v949h359v-916q0 -238 -144 -392t-401 -155q-258 0 -397 159t-140 388v916zM804 1751q40 0 87 70l86 -68q-92 -203 -232 -211q-63 -4 -129 42t-108 46t-90 -71l-90 73q39 82 100 144q62 62 126 64
q64 3 137 -43t113 -46z" />
    <glyph glyph-name="utilde" unicode="&#x169;" 
d="M92 1065h348v-696q0 -123 76 -123q86 0 86 162v657h348v-1065h-262l-53 152q1 -22 -25 -57t-53 -59q-64 -55 -188 -56q-193 0 -255 206q-22 74 -22 172v707zM436 1513q64 0 138 -45q73 -45 113 -45t87 70l86 -68q-96 -211 -231 -211q-63 0 -129 44t-107 44t-92 -71
l-90 74q39 84 100 146t125 62z" />
    <glyph glyph-name="Umacron" unicode="&#x16a;" horiz-adv-x="1277" 
d="M98 1434h359v-949q0 -102 49 -159q49 -58 133 -58t133 58t49 159v949h359v-916q0 -238 -144 -392t-401 -155q-258 0 -397 159t-140 388v916zM354 1780h572v-207h-572v207z" />
    <glyph glyph-name="umacron" unicode="&#x16b;" 
d="M92 1065h348v-696q0 -123 76 -123q86 0 86 162v657h348v-1065h-262l-53 152q1 -22 -25 -57t-53 -59q-64 -55 -188 -56q-193 0 -255 206q-22 74 -22 172v707zM238 1452h571v-207h-571v207z" />
    <glyph glyph-name="Ubreve" unicode="&#x16c;" horiz-adv-x="1277" 
d="M98 1434h359v-949q0 -102 49 -159q49 -58 133 -58t133 58t49 159v949h359v-916q0 -238 -144 -392t-401 -155q-258 0 -397 159t-140 388v916zM643 1698q59 0 93 37t38 98h156q-2 -151 -76 -227t-211 -76t-211 76t-76 227h156q14 -135 131 -135z" />
    <glyph glyph-name="ubreve" unicode="&#x16d;" 
d="M92 1065h348v-696q0 -123 76 -123q86 0 86 162v657h348v-1065h-262l-53 152q1 -22 -25 -57t-53 -59q-64 -55 -188 -56q-193 0 -255 206q-22 74 -22 172v707zM520 1214q-137 0 -211 77t-76 227h156q14 -135 131 -136q59 0 93 37t38 99h156q-2 -150 -76 -227t-211 -77z" />
    <glyph glyph-name="Uring" unicode="&#x16e;" horiz-adv-x="1277" 
d="M98 1434h359v-949q0 -102 49 -159q49 -58 133 -58t133 58t49 159v949h359v-916q0 -238 -144 -392t-401 -155q-258 0 -397 159t-140 388v916zM637 1835q-31 0 -55 -20q-24 -19 -23 -63q0 -44 24 -64q25 -20 55 -20t54 20t23 63q1 43 -23 63t-55 21zM637 1962q86 0 146 -54
q61 -54 61 -154t-60 -156t-147 -56q-86 0 -147 55q-60 55 -60 155t60 156q61 54 147 54z" />
    <glyph glyph-name="uring" unicode="&#x16f;" 
d="M92 1065h348v-696q0 -123 76 -123q86 0 86 162v657h348v-1065h-262l-53 152q1 -22 -25 -57t-53 -59q-64 -55 -188 -56q-193 0 -255 206q-22 74 -22 172v707zM524 1507q-30 0 -54 -20q-24 -19 -24 -63t24 -64t54 -20t55 20q24 20 23 63q0 43 -23 64q-24 20 -55 20z
M524 1634q86 0 146 -54t61 -154q0 -100 -60 -156q-61 -56 -147 -56t-146 56t-61 155q1 101 61 155t146 54z" />
    <glyph glyph-name="Uhungarumlaut" unicode="&#x170;" horiz-adv-x="1277" 
d="M98 1434h359v-949q0 -102 49 -159q49 -58 133 -58t133 58t49 159v949h359v-916q0 -238 -144 -392t-401 -155q-258 0 -397 159t-140 388v916zM852 1966l225 -129l-174 -295h-209zM508 1966l225 -129l-174 -295h-209z" />
    <glyph glyph-name="uhungarumlaut" unicode="&#x171;" 
d="M92 1065h348v-696q0 -123 76 -123q86 0 86 162v657h348v-1065h-262l-53 152q1 -22 -25 -57t-53 -59q-64 -55 -188 -56q-193 0 -255 206q-22 74 -22 172v707zM725 1638l225 -129l-174 -295h-209zM381 1638l225 -129l-174 -295h-209z" />
    <glyph glyph-name="Uogonek" unicode="&#x172;" horiz-adv-x="1306" 
d="M113 518v916h358v-949q0 -102 49 -159q49 -58 133 -58t133 58t50 159v949h358v-916q0 -178 -83 -313t-234 -195q-74 -60 -74 -168t76 -108l47 8l28 -113q-61 -37 -141 -37t-132 52t-52 156q0 106 73 173l-47 -2q-264 0 -403 159t-139 388z" />
    <glyph glyph-name="uogonek" unicode="&#x173;" horiz-adv-x="1058" 
d="M92 1065h348v-696q0 -123 76 -123q86 0 86 162v657h348v-1065q-51 -12 -84 -60t-32 -98q0 -74 71 -73q27 0 49 8l29 -119q-53 -35 -143 -35t-139 54q-48 54 -48 133q0 119 95 190h-60l-53 152q1 -22 -25 -57t-53 -59q-64 -55 -188 -56q-193 0 -255 206q-22 74 -22 172
v707z" />
    <glyph glyph-name="Wcircumflex" unicode="&#x174;" horiz-adv-x="1841" 
d="M1507 1434h361l-320 -1444h-442l-164 909l-160 -909h-442l-330 1444h377l180 -971l174 971h412l172 -971zM801 1542h-226l232 328h229l246 -328h-231l-123 189z" />
    <glyph glyph-name="wcircumflex" unicode="&#x175;" horiz-adv-x="1583" 
d="M946 1065l150 -676h4l157 676h302l-275 -1065h-369l-124 578l-123 -578h-369l-274 1065h307l153 -676h4l150 676h307zM666 1214h-226l232 328h229l246 -328h-232l-122 189z" />
    <glyph glyph-name="Ycircumflex" unicode="&#x176;" horiz-adv-x="1148" 
d="M754 0h-359v571l-428 863h383l223 -523l224 523h383l-426 -863v-571zM446 1542h-225l232 328h229l246 -328h-232l-123 189z" />
    <glyph glyph-name="ycircumflex" unicode="&#x177;" 
d="M25 1065h329l178 -672l166 672h326l-428 -1413h-352l106 344zM379 1214h-225l231 328h229l246 -328h-231l-123 189z" />
    <glyph glyph-name="Ydieresis" unicode="&#x178;" horiz-adv-x="1148" 
d="M754 0h-359v571l-428 863h383l223 -523l224 523h383l-426 -863v-571zM961 1694q0 -66 -42 -108t-110 -42t-110 42t-42 108t42 108t110 41q68 1 110 -41t42 -108zM496 1694q0 -66 -42 -108t-110 -42t-110 42t-41 108q-1 66 41 108t110 41q68 1 110 -41t42 -108z" />
    <glyph glyph-name="Zacute" unicode="&#x179;" horiz-adv-x="1112" 
d="M90 1434h948v-238l-540 -911l252 6h288v-291h-983v240l557 907l-254 -4h-268v291zM590 1966l225 -129l-174 -295h-209z" />
    <glyph glyph-name="zacute" unicode="&#x17a;" horiz-adv-x="909" 
d="M70 1065h768v-258l-412 -547l2 -10l201 4h209v-254h-783v236l428 571l-2 6l-198 -4h-213v256zM481 1638l226 -129l-175 -295h-208z" />
    <glyph glyph-name="Zdotaccent" unicode="&#x17b;" horiz-adv-x="1112" 
d="M90 1434h948v-238l-540 -911l252 6h288v-291h-983v240l557 907l-254 -4h-268v291zM395 1694q0 66 42 108t110 41q67 0 109 -42q42 -41 42 -107t-42 -108t-110 -42t-109 42q-42 42 -42 108z" />
    <glyph glyph-name="zdotaccent" unicode="&#x17c;" horiz-adv-x="909" 
d="M70 1065h768v-258l-412 -547l2 -10l201 4h209v-254h-783v236l428 571l-2 6l-198 -4h-213v256zM627 1368q0 -66 -42 -108t-110 -41q-67 0 -109 42q-42 41 -42 107t42 108t110 42t109 -42q42 -42 42 -108z" />
    <glyph glyph-name="Zcaron" unicode="&#x17d;" horiz-adv-x="1112" 
d="M90 1434h948v-238l-540 -911l252 6h288v-291h-983v240l557 907l-254 -4h-268v291zM219 1870h225l127 -189l123 189h232l-246 -328h-229z" />
    <glyph glyph-name="zcaron" unicode="&#x17e;" horiz-adv-x="909" 
d="M70 1065h768v-258l-412 -547l2 -10l201 4h209v-254h-783v236l428 571l-2 6l-198 -4h-213v256zM104 1542h226l127 -188l123 188h231l-246 -328h-229z" />
    <glyph glyph-name="AEacute" unicode="&#x1fc;" horiz-adv-x="1699" 
d="M782 1143h-32l-170 -529h202v529zM1688 1434v-291h-547v-297h473v-291h-473v-264h551v-291h-910v342h-319l-123 -342h-375l586 1434h1137zM1071 1966l225 -129l-174 -295h-209z" />
    <glyph glyph-name="aeacute" unicode="&#x1fd;" horiz-adv-x="1503" 
d="M1106 817q-154 0 -168 -178h291q4 72 -29 125t-94 53zM465 211q94 0 151 68q-33 76 -43 196q-20 4 -51 4q-174 0 -174 -147q0 -55 33 -88t84 -33zM1120 1085q178 0 294 -128q114 -128 122 -341q4 -88 -12 -174h-584q16 -197 248 -196q129 0 262 53l80 -231
q-160 -88 -400 -88t-391 155q-73 -78 -159 -117q-86 -38 -232 -38t-232 93t-85 240q0 184 116 270q117 85 295 85q72 0 133 -11q2 27 15 58q-12 104 -160 104q-82 0 -256 -41l-57 242q193 66 399 66t307 -97q119 96 297 96zM805 1638l225 -129l-174 -295h-209z" />
    <glyph glyph-name="Oslashacute" unicode="&#x1fe;" horiz-adv-x="1404" 
d="M977 721q0 115 -25 205l-356 -633q49 -25 109 -25q133 0 203 120t69 333zM705 1165q-127 -1 -201 -121t-74 -295t33 -276l364 653q-55 39 -122 39zM59 721q0 333 174 537t472 204q154 0 278 -59l53 96h238l-123 -217q197 -203 197 -548t-169 -553t-474 -210
q-139 0 -261 49l-57 -102h-235l120 215q-213 203 -213 588zM733 1966l225 -129l-174 -295h-209z" />
    <glyph glyph-name="oslashacute" unicode="&#x1ff;" horiz-adv-x="1056" 
d="M526 819q-139 0 -139 -282q0 -66 4 -95l201 357q-31 20 -66 20zM668 539q0 72 -9 114l-213 -374q31 -33 78 -33q144 0 144 293zM47 526q0 260 132 410t347 149q113 0 203 -43l74 132h151l-114 -203q170 -150 170 -418t-134 -421t-350 -152q-117 0 -219 49l-67 -119h-150
l111 196q-154 159 -154 420zM528 1638l226 -129l-174 -295h-209z" />
    <glyph glyph-name="Scommaaccent" unicode="&#x218;" horiz-adv-x="1073" 
d="M1026 398q0 -108 -44 -196q-44 -87 -121 -136q-152 -97 -357 -97q-244 -4 -445 105l107 278q170 -86 333 -86t163 119q0 59 -42 92t-149 76t-163 76t-119 87q-125 109 -124 321q1 213 138 319t354 106t424 -98l-92 -270q-164 70 -295 69q-166 0 -166 -125q0 -67 52 -101
q34 -22 60 -34t52 -26t70 -27q80 -33 130 -62t111 -79q123 -102 123 -311zM558 -182q66 0 107 -50q40 -50 40 -128q0 -188 -195 -297l-55 96q51 41 73 71t39 82q-14 -28 -54 -28t-69 34q-28 34 -28 86t38 92q38 42 104 42z" />
    <glyph glyph-name="scommaaccent" unicode="&#x219;" horiz-adv-x="864" 
d="M421 -20q-175 0 -360 88l72 223q156 -66 259 -66t104 82q0 70 -158 127q-66 25 -130 59q-64 35 -111 101q-46 66 -46 162q0 172 116 251t279 79t345 -82l-72 -224q-121 62 -227 62t-107 -82q0 -37 45 -64q44 -28 108 -50t129 -56t109 -104q44 -71 45 -171
q0 -174 -112 -255q-113 -80 -288 -80zM311 -316q0 52 38 92q39 42 105 42t106 -50t40 -128q0 -188 -194 -297l-56 96q51 41 74 71t39 82q-14 -28 -54 -28t-69 34t-29 86z" />
    <glyph glyph-name="circumflex" unicode="&#x2c6;" horiz-adv-x="1075" 
d="M412 1214h-226l232 328h229l246 -328h-231l-123 189z" />
    <glyph glyph-name="caron" unicode="&#x2c7;" horiz-adv-x="1079" 
d="M184 1542h226l127 -158q35 47 122 158h232l-246 -328h-229z" />
    <glyph glyph-name="breve" unicode="&#x2d8;" horiz-adv-x="849" 
d="M428 1303q59 1 93 37t38 98h156q-2 -150 -76 -227t-211 -77t-211 78q-74 76 -76 226h156q14 -135 131 -135z" />
    <glyph glyph-name="dotaccent" unicode="&#x2d9;" horiz-adv-x="548" 
d="M121 1536q0 66 44 111t107 45q62 0 108 -45t46 -111t-45 -112t-109 -46t-107 46q-44 46 -44 112z" />
    <glyph glyph-name="ring" unicode="&#x2da;" horiz-adv-x="653" 
d="M326 1507q-31 0 -55 -20q-23 -19 -23 -63t24 -64t54 -20t54 20t23 63q0 43 -23 63t-54 21zM326 1634q86 0 146 -54t60 -154t-60 -156t-146 -56t-146 56t-61 155q0 100 60 155q61 54 147 54z" />
    <glyph glyph-name="ogonek" unicode="&#x2db;" horiz-adv-x="608" 
d="M387 -231q31 0 53 8l29 -119q-61 -37 -151 -37q-90 1 -134 61q-45 60 -45 151t64 161t166 104l26 -96q-35 -10 -55 -59t-20 -97t18 -62q18 -15 49 -15z" />
    <glyph glyph-name="tilde" unicode="&#x2dc;" horiz-adv-x="927" 
d="M616 1356q40 0 86 69l86 -67q-92 -203 -231 -211q-63 -4 -129 42t-108 46t-91 -72l-90 74q39 82 101 143q62 60 126 64t137 -42t113 -46z" />
    <glyph glyph-name="hungarumlaut" unicode="&#x2dd;" horiz-adv-x="942" 
d="M616 1597l226 -129l-174 -294h-209zM272 1597l226 -129l-174 -294h-209z" />
    <glyph glyph-name="Wgrave" unicode="&#x1e80;" horiz-adv-x="1841" 
d="M1507 1434h361l-320 -1444h-442l-164 909l-160 -909h-442l-330 1444h377l180 -971l174 971h412l172 -971zM659 1837l226 129l157 -424h-208z" />
    <glyph glyph-name="wgrave" unicode="&#x1e81;" horiz-adv-x="1583" 
d="M946 1065l150 -676h4l157 676h302l-275 -1065h-369l-124 578l-123 -578h-369l-274 1065h307l153 -676h4l150 676h307zM508 1499l225 129l158 -424h-209z" />
    <glyph glyph-name="Wacute" unicode="&#x1e82;" horiz-adv-x="1841" 
d="M1507 1434h361l-320 -1444h-442l-164 909l-160 -909h-442l-330 1444h377l180 -971l174 971h412l172 -971zM1008 1966l225 -129l-174 -295h-209z" />
    <glyph glyph-name="wacute" unicode="&#x1e83;" horiz-adv-x="1583" 
d="M946 1065l150 -676h4l157 676h302l-275 -1065h-369l-124 578l-123 -578h-369l-274 1065h307l153 -676h4l150 676h307zM858 1638l225 -129l-174 -295h-209z" />
    <glyph glyph-name="Wdieresis" unicode="&#x1e84;" horiz-adv-x="1841" 
d="M1507 1434h361l-320 -1444h-442l-164 909l-160 -909h-442l-330 1444h377l180 -971l174 971h412l172 -971zM1327 1694q0 -66 -42 -108q-41 -42 -109 -42t-110 42t-42 108t42 108t110 41q68 1 110 -41t41 -108zM862 1694q0 -66 -42 -108t-110 -42t-109 42q-42 42 -42 108
t42 108t110 41q67 1 109 -41t42 -108z" />
    <glyph glyph-name="wdieresis" unicode="&#x1e85;" horiz-adv-x="1583" 
d="M946 1065l150 -676h4l157 676h302l-275 -1065h-369l-124 578l-123 -578h-369l-274 1065h307l153 -676h4l150 676h307zM1180 1366q0 -66 -42 -108t-110 -42t-110 42t-41 108q0 66 42 108q41 42 109 42t110 -42t42 -108zM715 1366q0 -66 -42 -108t-110 -42q-67 0 -109 42
t-42 108t42 108t110 42t109 -42q42 -42 42 -108z" />
    <glyph glyph-name="germandbls.case" unicode="&#x1e9e;" horiz-adv-x="1218" 
d="M113 907q0 271 125 413t356 142q301 0 493 -286l-192 -351q131 -35 217 -136t86 -283t-116 -316q-116 -133 -310 -133q-141 0 -242 43l39 270q98 -25 144 -24q82 0 129 53t47 130t-43 121t-89 53t-95 5l-72 148l166 331q-15 30 -65 54t-91 24q-145 0 -145 -252v-913h-342
v907z" />
    <glyph glyph-name="Ygrave" unicode="&#x1ef2;" horiz-adv-x="1148" 
d="M754 0h-359v571l-428 863h383l223 -523l224 523h383l-426 -863v-571zM319 1837l226 129l157 -424h-208z" />
    <glyph glyph-name="ygrave" unicode="&#x1ef3;" 
d="M25 1065h329l178 -672l166 672h326l-428 -1413h-352l106 344zM266 1509l226 129l157 -424h-209z" />
    <glyph glyph-name="endash" unicode="&#x2013;" horiz-adv-x="1241" 
d="M102 836h1037v-230h-1037v230z" />
    <glyph glyph-name="emdash" unicode="&#x2014;" horiz-adv-x="1779" 
d="M102 836h1575v-230h-1575v230z" />
    <glyph glyph-name="quoteleft" unicode="&#x2018;" horiz-adv-x="505" 
d="M311 1151q45 0 81 -39t36 -110t-44 -121t-122 -50t-133 69t-55 163q0 233 252 367l67 -111q-123 -90 -143 -189q16 21 61 21z" />
    <glyph glyph-name="quoteright" unicode="&#x2019;" horiz-adv-x="499" 
d="M198 1110q-48 0 -84 39t-36 110t44 121t121 50t133 -69t56 -163q0 -233 -252 -367l-67 111q123 90 143 188q-10 -20 -58 -20z" />
    <glyph glyph-name="quotesinglbase" unicode="&#x201a;" horiz-adv-x="524" 
d="M215 0q-57 0 -93 40t-36 110t44 120t122 49t133 -69t55 -162q0 -233 -252 -367l-67 111q123 90 143 188q-30 -20 -49 -20z" />
    <glyph glyph-name="quotedblleft" unicode="&#x201c;" horiz-adv-x="946" 
d="M426 998q0 -71 -44 -119t-122 -48t-133 69t-55 163q0 233 252 367l67 -111q-2 -2 -14 -11q-11 -10 -17 -14t-18 -13t-19 -17t-17 -20q-43 -48 -58 -114q20 20 63 20t79 -40q36 -41 36 -112zM703 831q-78 0 -134 69q-55 69 -55 163q0 233 252 367l68 -111q-32 -25 -52 -39
t-51 -57t-41 -93q20 20 63 20t79 -42q36 -43 36 -112t-44 -117t-121 -48z" />
    <glyph glyph-name="quotedblright" unicode="&#x201d;" horiz-adv-x="942" 
d="M520 1263q0 71 44 119t122 48t133 -69t55 -163q0 -233 -251 -367l-68 111q2 2 14 11q11 9 17 13t28 21q22 16 48 58t36 85q-20 -20 -63 -20t-79 41t-36 112zM78 1265q0 69 44 117t121 48t133 -69t56 -163q0 -233 -252 -367l-67 111q33 25 52 39t50 57t41 92
q-20 -20 -47 -20q-59 0 -95 43t-36 112z" />
    <glyph glyph-name="quotedblbase" unicode="&#x201e;" horiz-adv-x="966" 
d="M528 153q0 71 44 119t122 47t133 -69t56 -162q0 -233 -252 -367l-68 111q3 2 15 11t17 13t17 14q67 51 95 150q-19 -20 -63 -20t-80 41t-36 112zM86 155q0 69 44 117t122 47t133 -69t55 -162q0 -233 -252 -367l-67 111q33 25 52 39t50 57t41 92q-20 -20 -47 -20
q-59 0 -95 43t-36 112z" />
    <glyph glyph-name="dagger" unicode="&#x2020;" horiz-adv-x="1243" 
d="M1182 1145v-236l-344 39v150zM61 1145l347 -47v-150l-347 -39v236zM481 1434h283l-37 -1227h-209z" />
    <glyph glyph-name="daggerdbl" unicode="&#x2021;" horiz-adv-x="1294" 
d="M88 651l346 -47v-149l-346 -45v241zM1206 651v-241l-344 45v149zM88 1145l346 -47v-150l-346 -39v236zM1206 1145v-236l-344 39v150zM506 1434h282l-34 -1434h-213z" />
    <glyph glyph-name="bullet" unicode="&#x2022;" horiz-adv-x="811" 
d="M119 704q0 124 86 212t202 88q115 0 199 -88t84 -214q0 -124 -84 -210t-200 -86t-201 87q-86 87 -86 211z" />
    <glyph glyph-name="ellipsis" unicode="&#x2026;" horiz-adv-x="1437" 
d="M561 134q0 73 45 121t112 48q68 0 114 -48t46 -121t-45 -118q-46 -45 -115 -45t-113 45t-44 118zM88 134q0 73 45 121t112 48t113 -48t48 -121q0 -73 -46 -118t-116 -45q-68 0 -112 45t-44 118zM1032 134q0 73 46 121t112 48t113 -48t47 -121t-46 -118t-114 -45t-113 45
t-45 118z" />
    <glyph glyph-name="perthousand" unicode="&#x2030;" horiz-adv-x="2209" 
d="M1171 184q25 0 40 35t16 96q1 129 -57 129t-58 -130t59 -130zM1468 317q0 -152 -85 -249t-217 -97q-132 1 -214 97t-82 248t85 248q85 98 217 98t214 -96t82 -249zM346 985q25 0 40 35t15 96q0 129 -57 129t-57 -130t59 -130zM264 0l699 1434h282l-692 -1434h-289z
M341 772q-132 0 -214 96t-82 248t85 249t216 97t214 -96t83 -248t-85 -249t-217 -97zM1870 184q25 0 40 35t15 96q0 129 -57 129t-57 -130t59 -130zM2167 317q0 -152 -85 -249t-217 -97q-132 1 -214 97t-82 248t85 248q85 98 216 98t214 -96t83 -249z" />
    <glyph glyph-name="guilsinglleft" unicode="&#x2039;" horiz-adv-x="688" 
d="M432 530l186 -364q-116 -116 -174 -178l-389 506v88l394 489l174 -182z" />
    <glyph glyph-name="guilsinglright" unicode="&#x203a;" horiz-adv-x="690" 
d="M256 530l-188 359l172 182l393 -500v-90l-393 -495l-170 180z" />
    <glyph glyph-name="fraction" unicode="&#x2044;" horiz-adv-x="743" 
d="M-6 0l483 1434h275q-206 -599 -484 -1434h-274z" />
    <glyph glyph-name="Euro" unicode="&#x20ac;" horiz-adv-x="1345" 
d="M953 1165q-267 0 -359 -233h520l-53 -160h-504q-4 -36 -4 -58t4 -67h459l-55 -160h-363q43 -102 128 -160q138 -94 360 -39q81 19 124 38l43 18v-307q-154 -66 -317 -66q-268 0 -461 132t-256 384h-203l56 160h125q-2 23 -2 65t2 60h-170l55 160h135q59 258 253 394
t466 136q116 -6 230 -41t175 -78l-88 -264q-156 86 -300 86z" />
    <glyph glyph-name="trademark" unicode="&#x2122;" horiz-adv-x="1437" 
d="M686 1434h188l125 -412l127 412h189v-658h-191l9 275l-66 -246h-135l-64 246l9 -275h-191v658zM106 1434h558v-195h-179v-463h-200v463h-179v195z" />
    <glyph glyph-name="commaaccent" unicode="&#xf6c3;" horiz-adv-x="512" 
d="M248 -182q66 0 106 -50t39 -128q0 -188 -194 -297l-56 96q51 41 75 72t40 86q-10 -33 -53 -33t-72 34t-29 86t38 93q40 41 106 41z" />
    <glyph glyph-name="apple" unicode="&#xf8ff;" horiz-adv-x="2318" 
d="M2187 981v-63h62v-19h-62v-133q0 -51 39 -51q20 0 31 4l2 -17q-12 -6 -35 -6q-57 0 -57 72v131h-33v16l33 3l4 63h16zM2079 808q0 40 -28 66q-29 26 -67 27q-38 -1 -64 -27t-26 -66t26 -68t65 -28t67 28t27 68zM1986 920q48 0 80 -32t33 -80q0 -48 -34 -82
q-33 -34 -79 -34t-79 34t-33 81t32 80t80 33zM1632 807q0 -41 25 -68t61 -27t63 28q26 28 25 67q0 39 -26 67t-62 27q-38 -1 -62 -27t-24 -67zM1827 807q0 -47 -30 -81q-29 -34 -87 -34t-76 53v-120h-22v293h16l4 -52q25 54 79 54t85 -33t31 -80zM1534 815q0 33 -22 59
t-56 27t-60 -25t-28 -61h166zM1454 920q45 0 77 -37t23 -84h-186q2 -37 28 -62q47 -45 134 -8l8 -16q-100 -49 -160 13q-33 34 -32 81q0 47 31 80q32 33 77 33zM1094 807q0 -41 24 -69t63 -28t63 28t24 68t-26 68t-62 27t-62 -27q-24 -26 -24 -67zM1266 1008h20v-312h-16
l-2 52q-27 -56 -81 -56t-85 34t-31 81t31 80t85 33t79 -52v140zM828 880q-54 0 -64 -57h121q-3 57 -57 57zM825 922q47 0 75 -33t28 -80l-2 -21h-162q6 -57 70 -57q23 0 65 14l14 -32q-35 -21 -83 -21t-80 32t-33 82q1 50 31 83t77 33zM504 807q0 -33 18 -53t48 -20t48 20
t19 53q-1 33 -19 53t-47 20t-48 -20t-19 -53zM684 807q0 -49 -29 -82t-77 -33t-70 31v-98h-47v293h37l6 -33q23 37 72 37q48 0 78 -33t30 -82zM268 625q-23 0 -43 6l8 41q13 -4 29 -4t31 28l-86 222h47l63 -173l62 173h49l-92 -232q-27 -61 -68 -61zM88 772v111h-31v28l31 7
l8 63h37v-63h51v-35h-51v-115q0 -33 29 -33l26 2l9 -32q-25 -8 -41 -9q-68 0 -68 76zM1012 1008v-394h-8v394h8z" />
    <glyph glyph-name="a.alt" horiz-adv-x="1122" 
d="M387 533q0 -135 41 -211t112 -76q72 0 112 78t40 208t-40 209q-40 78 -112 78q-71 0 -112 -76t-41 -210zM446 1085q86 0 150 -48t88 -109l45 137h295v-1065h-348v129q-16 -47 -55 -87t-124 -57q-26 -5 -48 -5q-195 0 -296 158t-101 400q0 244 102 396t292 151z" />
    <glyph glyph-name="g.alt" horiz-adv-x="1130" 
d="M544 324q74 0 112 70t38 178t-39 181t-113 73t-113 -72q-40 -70 -40 -184t41 -180t114 -66zM489 -68q66 0 117 40q50 40 64 96t18 129q-31 -59 -92 -93q-120 -66 -272 -6q-271 108 -271 477q0 135 39 237q38 102 100 160q123 115 269 113q176 0 248 -137l43 117h280v-858
q0 -271 -145 -413t-361 -142t-417 119l94 241q150 -80 286 -80z" />
    <glyph glyph-name="f_b" horiz-adv-x="1751" 
d="M1211 819q-71 0 -111 -78t-41 -209q0 -130 41 -208q42 -78 112 -78t111 77t41 211t-41 209q-41 76 -112 76zM717 0v1112q0 78 -33 112t-78 33q-111 0 -110 -145v-47h114v-246h-114v-819h-349v819h-131v213l131 33v37q1 186 131 302t328 116t328 -117q131 -117 131 -303
v-137q66 123 245 123t284 -158q106 -158 106 -396t-106 -396t-289 -156q-184 0 -258 163l-29 -143h-301z" />
    <glyph glyph-name="f_f_b" horiz-adv-x="2304" 
d="M1766 819q-72 0 -112 -78t-40 -209q0 -130 41 -208t111 -78t112 77q41 77 41 211t-41 209q-41 76 -112 76zM1620 1122v-159q66 123 245 123t284 -158t105 -396t-104 -396q-106 -158 -290 -156q-184 0 -258 163l-29 -143h-301v1128q0 78 -33 112t-78 34q-111 0 -110 -146
v-63h114v-246h-114v-819h-349v819h-206v-819h-349v819h-131v213l131 33v74q0 184 74 282t244 99q82 0 139 -17l21 -4l-29 -246q-24 4 -50 4q-50 0 -50 -90v-102h206v59q0 186 130 301t328 115t329 -116t131 -302z" />
    <glyph glyph-name="f_h" horiz-adv-x="1675" 
d="M1065 1102v-144q27 56 88 92t123 36t107 -17q43 -16 93 -57q108 -90 109 -344v-668h-348v690q0 129 -80 129q-43 0 -67 -39t-25 -110v-670h-348v1112q0 78 -33 112t-78 33q-111 0 -110 -145v-47h114v-246h-114v-819h-349v819h-131v213l131 33v39q1 186 131 301t328 115
t328 -116q131 -116 131 -302z" />
    <glyph glyph-name="f_f_h" horiz-adv-x="2230" 
d="M1620 1122v-164q27 56 88 92q62 36 124 36t106 -17q44 -16 94 -57q108 -90 108 -344v-668h-348v690q0 129 -80 129q-44 0 -68 -39t-24 -110v-670h-348v1128q0 78 -33 112t-78 34q-111 0 -110 -146v-63h114v-246h-114v-819h-349v819h-206v-819h-349v819h-131v213l131 33
v74q0 184 74 282t244 99q82 0 139 -17l21 -4l-29 -246q-24 4 -50 4q-50 0 -50 -90v-102h204v-2l2 2v59q0 186 130 301t328 115t329 -116t131 -302z" />
    <glyph glyph-name="f_k" horiz-adv-x="1662" 
d="M1065 1102v-354l221 317h381l-319 -453l309 -612h-357l-182 385l-53 -74v-311h-348v1112q0 78 -33 112t-78 33q-111 0 -110 -145v-47h114v-246h-114v-819h-349v819h-131v213l131 33v39q1 186 131 301t328 115t328 -116q131 -116 131 -302z" />
    <glyph glyph-name="f_f_k" horiz-adv-x="2217" 
d="M1620 1122v-374l221 317h381l-319 -453l309 -612h-357l-182 385l-53 -74v-311h-348v1128q0 78 -33 112t-78 34q-111 0 -110 -146v-63h114v-246h-114v-819h-349v819h-206v-819h-349v819h-131v213l131 33v74q0 184 74 282t244 99q82 0 139 -17l21 -4l-31 -246q-26 4 -50 4
q-48 0 -48 -90v-102h206v59q0 186 130 301t328 115t329 -116t131 -302z" />
    <glyph glyph-name="dollar.tnum" horiz-adv-x="1200" 
d="M723 -240h-221v211q-211 12 -379 103l106 278q170 -86 333 -86t163 119q0 61 -42 93t-102 56q-59 24 -107 44q-115 47 -230 147q-115 99 -115 296t102 301t271 132v213h221v-211q176 -23 321 -92l-92 -270q-164 70 -295 69q-166 0 -165 -121q0 -42 30 -78t71 -56
q40 -20 157 -72q118 -51 166 -90q101 -82 125 -133q47 -99 49 -210q0 -182 -102 -284t-265 -135v-224z" />
    <glyph glyph-name="percent.tnum" horiz-adv-x="1200" 
d="M226 973q60 0 60 142t-60 142t-60 -142t60 -142zM226 772q-128 0 -204 96t-75 248q0 152 77 248q78 98 202 98t202 -96t78 -248t-76 -249t-204 -97zM914 314q0 -142 60 -142t60 142t-59 143q-61 -1 -61 -143zM974 -29q-128 1 -204 97t-76 247t77 249t202 98t203 -96
t78 -249q0 -152 -76 -249t-204 -97zM137 0l647 1434h271l-639 -1434h-279z" />
    <glyph glyph-name="plus.tnum" horiz-adv-x="1200" 
d="M483 1126h230v-297h276v-233h-276v-297h-230v297h-274v233h274v297z" />
    <glyph glyph-name="hyphen.tnum" horiz-adv-x="1200" 
d="M236 836h727v-230h-727v230z" />
    <glyph glyph-name="zero.tnum" horiz-adv-x="1200" 
d="M604 268q190 0 190 449t-194 448q-195 -1 -195 -449t199 -448zM1155 719q-1 -344 -157 -546t-399 -202t-399 199t-155 544q0 345 158 547q157 201 399 201t398 -200t155 -543z" />
    <glyph glyph-name="one.tnum" horiz-adv-x="1200" 
d="M248 0v266h229v768l-196 -57l-117 229l401 228h248v-1168h225v-266h-790z" />
    <glyph glyph-name="two.tnum" horiz-adv-x="1200" 
d="M1030 989q0 -153 -71 -267t-205 -235l-211 -196h555v-291h-961v289l441 424q122 121 122 233t-54 164t-142 55q-129 1 -324 -67l-90 252q242 112 457 112t349 -129t134 -344z" />
    <glyph glyph-name="three.tnum" horiz-adv-x="1200" 
d="M567 1462q203 0 319 -114t116 -312t-160 -297q205 -80 205 -331q1 -203 -135 -320t-355 -117q-123 0 -243 35t-187 86q61 154 94 244q167 -68 273 -68q204 0 204 187q0 176 -211 176h-125v250h127q178 0 179 135q0 141 -162 141q-93 1 -180 -23t-95 -26l-79 252
q40 26 166 64t249 38z" />
    <glyph glyph-name="four.tnum" horiz-adv-x="1200" 
d="M633 543v405l-240 -405h240zM969 1434v-891h131v-252h-131v-291h-336v291h-555v237l553 906h338z" />
    <glyph glyph-name="five.tnum" horiz-adv-x="1200" 
d="M1004 1434v-291h-527l-20 -258q78 63 202 63q187 0 293 -120t106 -345t-142 -368q-144 -143 -363 -144q-119 0 -247 40t-202 93l103 246q160 -90 288 -90t182 69t52 157t-45 146t-132 58t-146 -61q-59 35 -228 121l64 684h762z" />
    <glyph glyph-name="six.tnum" horiz-adv-x="1200" 
d="M778 462q0 94 -38 158q-38 66 -125 66t-125 -68t-38 -158t43 -154q41 -62 119 -62t121 62t43 156zM696 948q160 0 278 -123t118 -350t-131 -365t-334 -139q-131 -1 -233 61t-160 166q-118 208 -115 490q0 217 66 405q39 109 99 187t159 130t216 52t212 -32t137 -66
l43 -33l-117 -241q-115 82 -252 82t-202 -108t-66 -278q86 162 282 162z" />
    <glyph glyph-name="seven.tnum" horiz-adv-x="1200" 
d="M172 1434h877v-308l-482 -1126h-356l485 1143h-524v291z" />
    <glyph glyph-name="eight.tnum" horiz-adv-x="1200" 
d="M599 1188q-54 0 -88 -42t-34 -113t32 -115t91 -44t90 44t31 116q0 70 -34 112t-88 42zM440 420q0 -98 48 -144q48 -45 110 -45t111 45q49 46 49 144t-46 145t-113 47t-113 -47t-46 -145zM598 1462q168 0 299 -108t131 -283q0 -211 -186 -305q98 -35 170 -124t71 -236
q0 -207 -143 -321t-339 -114t-341 113t-145 324q0 141 70 231q71 90 171 127q-74 33 -130 110t-56 193q0 177 130 285t298 108z" />
    <glyph glyph-name="nine.tnum" horiz-adv-x="1200" 
d="M422 972q0 -92 38 -158t127 -66t125 66t36 158q0 93 -42 155q-42 63 -120 63t-121 -62t-43 -156zM518 262q137 0 202 109t66 276q-86 -164 -282 -164q-160 0 -278 124t-118 351q0 228 132 366q131 138 333 138q131 0 233 -61t160 -165q118 -208 115 -491q0 -216 -66 -404
q-39 -109 -99 -187t-159 -130t-216 -52t-212 32q-95 33 -136 66l-43 32l114 242q117 -82 254 -82z" />
    <glyph glyph-name="equal.tnum" horiz-adv-x="1200" 
d="M250 649h700v-235h-700v235zM250 989h700v-233h-700v233z" />
    <glyph glyph-name="cent.tnum" horiz-adv-x="1200" 
d="M578 -20v176q-188 35 -298 178t-110 361q0 219 111 365t297 181v176h161v-174q117 -8 250 -86l-86 -217q-81 45 -185 45t-157 -84t-53 -205q0 -120 52 -202t154 -82t199 49l84 -221q-121 -78 -258 -95v-165h-161z" />
    <glyph glyph-name="sterling.tnum" horiz-adv-x="1200" 
d="M731 1165q-106 0 -106 -127v-260h315v-186h-315v-90q0 -164 -88 -211h499v-291h-884v272q11 0 36 16q82 54 82 175v131h-69v194h69v183q0 209 111 350t316 141t352 -172l-162 -213q-78 88 -156 88z" />
    <glyph glyph-name="yen.tnum" horiz-adv-x="1200" 
d="M770 522h158v-151h-158v-78h158v-152h-158v-141h-334v141h-205v152h205v78h-205v151h205v49l-422 863h371l215 -543l211 543h379l-420 -863v-49z" />
    <glyph glyph-name="multiply.tnum" horiz-adv-x="1191" 
d="M596 522l-184 -196l-136 123l195 208l-190 203l129 125l184 -197l182 197l133 -125l-192 -207l196 -207l-135 -120z" />
    <glyph glyph-name="divide.tnum" horiz-adv-x="1200" 
d="M451 309q0 66 46 111t107 45q60 0 106 -46q46 -45 46 -109t-45 -111t-108 -47t-107 46t-45 111zM150 797h901v-224h-901v224zM451 1065q0 66 46 111t107 45q60 0 106 -45t46 -111t-45 -113t-108 -47t-107 47t-45 113z" />
    <glyph glyph-name="Euro.tnum" horiz-adv-x="1200" 
d="M910 1165q-267 0 -359 -233h520l-53 -160h-504q-8 -61 0 -125h459l-55 -160h-363q43 -102 128 -160q138 -94 360 -39q81 19 124 38l43 18v-307q-154 -66 -317 -66q-270 0 -462 132q-191 132 -255 384h-203l56 160h125q-8 49 0 125h-170l55 160h135q59 258 253 394
t466 136q117 -6 231 -41t174 -78l-88 -264q-156 86 -300 86z" />
    <glyph glyph-name="agrave.alt" horiz-adv-x="1122" 
d="M387 533q0 -135 41 -211t112 -76q72 0 112 78t40 208t-40 209q-40 78 -112 78q-71 0 -112 -76t-41 -210zM446 1085q86 0 150 -48t88 -109l45 137h295v-1065h-348v129q-16 -47 -55 -87t-124 -57q-26 -5 -48 -5q-195 0 -296 158t-101 400q0 244 102 396t292 151zM336 1509
l225 129l158 -424h-209z" />
    <glyph glyph-name="acircumflex.alt" horiz-adv-x="1122" 
d="M387 533q0 -135 41 -211t112 -76q72 0 112 78t40 208t-40 209q-40 78 -112 78q-71 0 -112 -76t-41 -210zM446 1085q86 0 150 -48t88 -109l45 137h295v-1065h-348v129q-16 -47 -55 -87t-124 -57q-26 -5 -48 -5q-195 0 -296 158t-101 400q0 244 102 396t292 151zM487 1214
h-225l232 328h229l246 -328h-232l-123 189z" />
    <glyph glyph-name="aacute.alt" horiz-adv-x="1122" 
d="M387 533q0 -135 41 -211t112 -76q72 0 112 78t40 208t-40 209q-40 78 -112 78q-71 0 -112 -76t-41 -210zM446 1085q86 0 150 -48t88 -109l45 137h295v-1065h-348v129q-16 -47 -55 -87t-124 -57q-26 -5 -48 -5q-195 0 -296 158t-101 400q0 244 102 396t292 151zM553 1638
l225 -129l-174 -295h-209z" />
    <glyph glyph-name="adieresis.alt" horiz-adv-x="1122" 
d="M387 533q0 -135 41 -211t112 -76q72 0 112 78t40 208t-40 209q-40 78 -112 78q-71 0 -112 -76t-41 -210zM446 1085q86 0 150 -48t88 -109l45 137h295v-1065h-348v129q-16 -47 -55 -87t-124 -57q-26 -5 -48 -5q-195 0 -296 158t-101 400q0 244 102 396t292 151zM948 1366
q0 -66 -42 -108t-110 -42t-109 42q-42 42 -42 108t42 108t110 42q67 0 109 -42t42 -108zM483 1366q0 -66 -42 -108q-41 -42 -109 -42t-110 42t-42 108t42 108t110 42t110 -42t41 -108z" />
    <glyph glyph-name="aring.alt" horiz-adv-x="1122" 
d="M387 533q0 -135 41 -211t112 -76q72 0 112 78t40 208t-40 209q-40 78 -112 78q-71 0 -112 -76t-41 -210zM446 1085q86 0 150 -48t88 -109l45 137h295v-1065h-348v129q-16 -47 -55 -87t-124 -57q-26 -5 -48 -5q-195 0 -296 158t-101 400q0 244 102 396t292 151zM561 1507
q-31 0 -55 -20q-24 -19 -23 -63q0 -44 24 -64q25 -20 55 -20t54 20t23 63q1 43 -23 63t-55 21zM561 1634q87 0 147 -54t60 -154t-60 -156t-146 -56t-147 56q-60 56 -61 155q0 101 60 155t147 54z" />
    <glyph glyph-name="aogonek.alt" horiz-adv-x="1118" 
d="M387 533q0 -135 41 -211t112 -76q72 0 112 78t40 208t-40 209q-40 78 -112 78q-71 0 -112 -76t-41 -210zM446 1085q86 0 150 -48t88 -109l45 137h295v-1065q-59 -10 -95 -55t-36 -101q0 -74 68 -73q31 0 53 8l28 -119q-57 -37 -148 -37t-138 51t-47 129q0 119 88 197
h-121v129q-16 -47 -55 -87t-124 -57q-26 -5 -48 -5q-195 0 -296 158t-101 400q0 244 102 396t292 151z" />
    <glyph glyph-name="amacron.alt" horiz-adv-x="1122" 
d="M387 533q0 -135 41 -211t112 -76q72 0 112 78t40 208t-40 209q-40 78 -112 78q-71 0 -112 -76t-41 -210zM446 1085q86 0 150 -48t88 -109l45 137h295v-1065h-348v129q-16 -47 -55 -87t-124 -57q-26 -5 -48 -5q-195 0 -296 158t-101 400q0 244 102 396t292 151zM264 1452
h572v-207h-572v207z" />
    <glyph glyph-name="atilde.alt" horiz-adv-x="1122" 
d="M387 533q0 -135 41 -211t112 -76q72 0 112 78t40 208t-40 209q-40 78 -112 78q-71 0 -112 -76t-41 -210zM446 1085q86 0 150 -48t88 -109l45 137h295v-1065h-348v129q-16 -47 -55 -87t-124 -57q-26 -5 -48 -5q-195 0 -296 158t-101 400q0 244 102 396t292 151zM708 1423
q40 0 87 70l86 -68q-92 -203 -232 -211q-63 -4 -129 42t-106 46t-92 -71l-91 74q39 82 101 143t126 64t137 -43t113 -46z" />
    <glyph glyph-name="abreve.alt" horiz-adv-x="1122" 
d="M387 533q0 -135 41 -211t112 -76q72 0 112 78t40 208t-40 209q-40 78 -112 78q-71 0 -112 -76t-41 -210zM446 1085q86 0 150 -48t88 -109l45 137h295v-1065h-348v129q-16 -47 -55 -87t-124 -57q-26 -5 -48 -5q-195 0 -296 158t-101 400q0 244 102 396t292 151zM561 1214
q-137 0 -211 77t-76 227h156q14 -135 131 -136q59 0 93 37t38 99h156q-2 -150 -76 -227t-211 -77z" />
    <glyph glyph-name="gbreve.alt" horiz-adv-x="1130" 
d="M544 324q74 0 112 70t38 178t-39 181t-113 73t-113 -72q-40 -70 -40 -184t41 -180t114 -66zM489 -68q66 0 117 40q50 40 64 96t18 129q-31 -59 -92 -93q-120 -66 -272 -6q-271 108 -271 477q0 135 39 237q38 102 100 160q123 115 269 113q176 0 248 -137l43 117h280v-858
q0 -271 -145 -413t-361 -142t-417 119l94 241q150 -80 286 -80zM557 1214q-137 0 -211 77t-76 227h156q14 -135 131 -136q59 0 93 37t38 99h156q-2 -150 -76 -227t-211 -77z" />
    <glyph glyph-name="gcircumflex.alt" horiz-adv-x="1130" 
d="M544 324q74 0 112 70t38 178t-39 181t-113 73t-113 -72q-40 -70 -40 -184t41 -180t114 -66zM489 -68q66 0 117 40q50 40 64 96t18 129q-31 -59 -92 -93q-120 -66 -272 -6q-271 108 -271 477q0 135 39 237q38 102 100 160q123 115 269 113q176 0 248 -137l43 117h280v-858
q0 -271 -145 -413t-361 -142t-417 119l94 241q150 -80 286 -80zM422 1214h-225l231 328h229l246 -328h-231l-123 189z" />
    <glyph glyph-name="gcommaaccent.alt" horiz-adv-x="1130" 
d="M544 324q74 0 112 70t38 178t-39 181t-113 73t-113 -72q-40 -70 -40 -184t41 -180t114 -66zM489 -68q66 0 117 40q50 40 64 96t18 129q-31 -59 -92 -93q-120 -66 -272 -6q-271 108 -271 477q0 135 39 237q38 102 100 160q123 115 269 113q176 0 248 -137l43 117h280v-858
q0 -271 -145 -413t-361 -142t-417 119l94 241q150 -80 286 -80zM676 1342q0 -52 -38 -92q-38 -42 -104 -42t-107 50q-40 50 -40 128q0 188 195 297l55 -96q-51 -41 -75 -71t-40 -82q14 28 55 28t70 -34t29 -86z" />
    <glyph glyph-name="gdotaccent.alt" horiz-adv-x="1130" 
d="M544 324q74 0 112 70t38 178t-39 181t-113 73t-113 -72q-40 -70 -40 -184t41 -180t114 -66zM489 -68q66 0 117 40q50 40 64 96t18 129q-31 -59 -92 -93q-120 -66 -272 -6q-271 108 -271 477q0 135 39 237q38 102 100 160q123 115 269 113q176 0 248 -137l43 117h280v-858
q0 -271 -145 -413t-361 -142t-417 119l94 241q150 -80 286 -80zM702 1368q0 -66 -42 -108t-110 -41q-68 0 -109 42q-42 41 -42 107t42 108t110 42q67 0 109 -42t42 -108z" />
    <glyph glyph-name="J.alt" horiz-adv-x="718" 
d="M84 1434h512v-1160q0 -194 -148 -348t-342 -213l-118 256q2 1 19 13t54 36t83 79q45 55 69 105t25 117v797l-154 35v283z" />
    <glyph glyph-name="Jcircumflex.alt" horiz-adv-x="718" 
d="M84 1434h512v-1160q0 -248 -232 -426q-121 -92 -258 -135l-118 256q2 1 19 13t54 36t83 79q45 55 69 105t25 117v797l-154 35v283zM236 1542h-226l232 328h229l246 -328h-232l-123 189z" />
    <glyph glyph-name="j.alt" horiz-adv-x="606" 
d="M301 1556q80 0 128 -55t48 -134t-49 -133t-127 -54t-127 55t-49 133t48 133t128 55zM160 141v652l-119 34v238h467v-901q0 -104 -36 -192t-83 -139q-108 -119 -303 -181l-121 229q65 51 93 73t65 77t37 110z" />
    <glyph glyph-name="jcircumflex.alt" horiz-adv-x="595" 
d="M152 141v652l-119 34v238h467v-901q0 -104 -36 -192t-83 -139q-108 -119 -303 -181l-121 229q65 51 93 73t65 77t37 110zM152 1214h-226l232 328h229l246 -328h-232l-122 189z" />
    </font>
</defs>
</svg>
