<?xml version="1.0" standalone="no"?>
<!DOCTYPE svg PUBLIC "-//W3C//DTD SVG 1.1//EN" "http://www.w3.org/Graphics/SVG/1.1/DTD/svg11.dtd" >
<svg xmlns="http://www.w3.org/2000/svg">
<metadata>
Created by FontPrep 20130207 at Wed Nov 20 02:18:02 2013
 By MacMini
Copyright (c) 2011 by typedepot. All rights reserved.
</metadata>
<defs>
<font id="2e0966e06b18b0eaf7b97cfa6909a0f1" horiz-adv-x='1024' >
  <font-face 
    font-family="CentraleSansMedium-Italic"
    font-weight="500"
    font-style="italic"
    font-stretch="normal"
    units-per-em="2048"
    panose-1="0 0 0 0 0 0 0 0 0 0"
    ascent="1536"
    descent="-512"
    x-height="1065"
    cap-height="1434"
    bbox="-541 -414 2798 1929.02"
    underline-thickness="102"
    underline-position="-102"
    slope="-10"
    unicode-range="U+000D-FB04"
  />
<missing-glyph horiz-adv-x="1292" 
d="M399 1188l-200 -1127l393 570zM1126 1188l-395 -570l195 -557zM1108 1374h-639l213 -614zM856 -123l-215 612l-426 -612h641zM1303 1499l-308 -1747h-972l307 1747h973z" />
    <glyph glyph-name="f_f" unicode="ff" horiz-adv-x="1353" 
d="M1257 1530q104 0 238 -29l-39 -155q-66 20 -145 20q-160 0 -187 -166l-22 -135h295l-27 -152h-295l-196 -1138h-215l196 1138h-387l-197 -1138h-215l197 1138h-164l29 152h162l22 123q27 158 102 243t236 85q98 0 209 -25l-39 -156q-63 18 -115 19q-150 0 -178 -166
l-22 -123h389l22 137q29 152 107 240t239 88z" />
    <glyph glyph-name="f_f_i" unicode="ffi" horiz-adv-x="1808" 
d="M1372 1530q190 0 326 -107l-70 -120q-32 25 -102 49t-150 24q-217 0 -254 -200l-20 -111h643l-186 -1065h-216l160 913h-426l-198 -1138h-215l198 1138h-389l-197 -1138h-215l197 1138h-164l29 152h162l22 123q27 158 104 243t244 85q92 0 201 -25l-39 -156
q-66 18 -115 19q-152 0 -180 -166l-22 -123h389l18 106q31 175 153 267t312 92z" />
    <glyph glyph-name="f_f_l" unicode="ffl" horiz-adv-x="1875" 
d="M1548 -16q-104 0 -149 52t-23 179l158 889q10 55 10 78q0 94 -51 139t-139 45t-152 -56t-86 -169l-14 -76h239l-28 -152h-238l-198 -1138h-215l198 1138h-387l-199 -1138h-215l199 1138h-164l27 152h164l24 131q27 150 104 235t244 85q98 0 209 -27l-41 -154
q-63 18 -118 19q-152 0 -183 -160l-24 -129h387l16 80q31 176 144 279q113 104 299 104t301 -82t114 -252q0 -48 -12 -111l-156 -852q-14 -82 70 -81q61 0 88 6l-20 -158q-79 -14 -183 -14z" />
    <glyph glyph-name=".notdef" horiz-adv-x="1292" 
d="M399 1188l-200 -1127l393 570zM1126 1188l-395 -570l195 -557zM1108 1374h-639l213 -614zM856 -123l-215 612l-426 -612h641zM1303 1499l-308 -1747h-972l307 1747h973z" />
    <glyph glyph-name=".null" horiz-adv-x="0" 
 />
    <glyph glyph-name=".null" horiz-adv-x="0" 
 />
    <glyph glyph-name="nonmarkingreturn" horiz-adv-x="681" 
 />
    <glyph glyph-name="CR" unicode="&#xd;" horiz-adv-x="610" 
 />
    <glyph glyph-name="space" unicode=" " horiz-adv-x="542" 
 />
    <glyph glyph-name="exclam" unicode="!" horiz-adv-x="577" 
d="M217 203q55 0 89 -29t30 -82t-36 -85t-88 -32t-90 29t-30 82t37 85t88 32zM559 1438l-215 -1022h-176l145 1022h246z" />
    <glyph glyph-name="quotedbl" unicode="&#x22;" horiz-adv-x="921" 
d="M547 1434l-203 -562h-135l108 562h230zM942 1434l-205 -562h-135l111 562h229z" />
    <glyph glyph-name="numbersign" unicode="#" horiz-adv-x="1611" 
d="M705 913l-144 -407h389l144 407h-389zM1599 1096l-65 -183h-258l-143 -407h258l-66 -182h-258l-113 -324h-182l113 324h-389l-113 -324h-190l114 324h-262l68 182h260l145 407h-262l63 183h265l123 340h182l-121 -340h389l121 340h182l-121 -340h260z" />
    <glyph glyph-name="dollar" unicode="$" horiz-adv-x="1226" 
d="M729 1274q-155 0 -219 -60t-64 -147q0 -86 65 -138q65 -53 187 -103t178 -78q146 -77 190 -184q26 -62 26 -146q0 -176 -120 -303t-382 -140l-31 -176h-137l31 178q-233 27 -412 144l72 172q248 -143 462 -135q139 2 208 64t69 157q0 29 -10 63t-25 48q-14 14 -24 26
t-33 26t-36 21t-43 21t-45 20q-173 69 -222 97q-137 77 -181 181q-27 65 -26 150q0 180 124 299t382 127l32 182h123l-32 -186q199 -20 391 -133l-80 -176q-215 129 -418 129z" />
    <glyph glyph-name="percent" unicode="%" horiz-adv-x="1751" 
d="M1524 1436l-1075 -1436h-179l1080 1436h174zM340 1087q0 -184 163 -184q79 0 131 66t52 180q1 170 -151 170q-87 0 -141 -67t-54 -165zM559 1458q133 0 212 -77t79 -212q0 -189 -100 -295t-281 -106q-133 0 -213 77t-80 210q0 191 102 297t281 106zM1112 301
q0 -184 163 -184q79 -1 131 65t52 178q1 172 -151 172q-88 0 -142 -66q-53 -67 -53 -165zM1331 670q133 0 212 -77t79 -210q0 -193 -100 -298t-281 -105q-133 0 -213 76t-80 210q0 190 102 297t281 107z" />
    <glyph glyph-name="ampersand" unicode="&#x26;" horiz-adv-x="1345" 
d="M829 1147q0 143 -150 143q-71 0 -129 -52t-58 -140q0 -47 22 -91t74 -122q121 68 181 129t60 133zM483 158q154 0 305 110l-288 418q-123 -66 -189 -136q-65 -70 -65 -177t64 -161t173 -54zM307 1098q1 170 113 264t262 94t240 -73q92 -73 92 -207t-91 -226t-257 -178
l258 -377q98 106 206 277l142 -80q-125 -201 -254 -334l178 -258h-223l-92 135q-211 -158 -443 -158q-176 -1 -288 87t-111 263q0 175 125 294q97 91 260 178q-63 92 -90 155t-27 144z" />
    <glyph glyph-name="quotesingle" unicode="'" horiz-adv-x="530" 
d="M549 1434l-201 -562h-137l106 562h232z" />
    <glyph glyph-name="parenleft" unicode="(" horiz-adv-x="735" 
d="M305 310q0 -214 72 -424t149 -300h-225q-81 104 -149 310t-68 410q0 362 126 642q143 320 400 551h244q-62 -51 -120 -111t-140 -172t-142 -232q-147 -294 -147 -674z" />
    <glyph glyph-name="parenright" unicode=")" horiz-adv-x="741" 
d="M410 775q0 214 -73 423t-151 301h228q82 -104 150 -310q68 -205 67 -431q0 -432 -189 -747q-154 -258 -338 -425h-243q61 54 119 112t140 171q290 395 290 906z" />
    <glyph glyph-name="asterisk" unicode="*" horiz-adv-x="845" 
d="M543 1548l129 -35l-84 -241l239 100l37 -131l-250 -53l203 -156l-96 -100l-170 194l-35 -254l-129 33l82 242l-238 -100l-38 131l249 53l-200 153l94 101l172 -193z" />
    <glyph glyph-name="plus" unicode="+" horiz-adv-x="1124" 
d="M748 1155l-68 -391h387l-29 -158h-387l-67 -377h-164l67 377h-374l28 158h375l70 391h162z" />
    <glyph glyph-name="comma" unicode="," horiz-adv-x="518" 
d="M180 193q59 0 95 -43t36 -113q0 -104 -75 -188q-76 -83 -185 -123l-45 59q70 29 123 86t55 133q-26 -16 -58 -16t-54 24t-23 71q0 48 36 79t95 31z" />
    <glyph glyph-name="hyphen" unicode="-" horiz-adv-x="1032" 
d="M889 629l-31 -162h-743l30 162h744z" />
    <glyph glyph-name="period" unicode="." horiz-adv-x="493" 
d="M170 203q55 0 87 -28t28 -83q-6 -113 -119 -112q-53 0 -85 28t-28 82q11 113 117 113z" />
    <glyph glyph-name="slash" unicode="/" horiz-adv-x="978" 
d="M1149 1501l-1149 -1849h-186l1144 1849h191z" />
    <glyph glyph-name="zero" unicode="0" horiz-adv-x="1454" 
d="M815 1272q-219 0 -333 -186t-124 -465q-6 -227 85 -343t247 -116t260 96q192 177 205 555q6 227 -85 343t-255 116zM827 1456q258 0 413 -165t146 -466q-8 -346 -183 -589q-85 -119 -219 -189t-302 -70q-258 0 -412 165t-145 468q13 493 320 725q161 121 382 121z" />
    <glyph glyph-name="one" unicode="1" horiz-adv-x="778" 
d="M737 1436l-252 -1436h-225l215 1217l-276 -132l-62 158l426 193h174z" />
    <glyph glyph-name="two" unicode="2" horiz-adv-x="1243" 
d="M729 1460q213 0 336 -103t123 -302q0 -158 -91 -283t-290 -268l-447 -320h691l-33 -184h-1006l31 170l641 473q145 113 207 200q61 87 61 197t-75 173q-77 63 -223 63t-373 -119l-45 174q229 129 493 129z" />
    <glyph glyph-name="three" unicode="3" horiz-adv-x="1161" 
d="M649 1460q185 0 313 -93t128 -265q0 -134 -90 -228t-250 -118q136 -37 206 -128t70 -220q0 -209 -156 -321t-403 -112q-141 0 -274 35t-216 88l62 162q182 -100 399 -100q162 0 258 72t96 205t-94 187t-221 54h-147l26 164h150q143 0 247 56q103 56 103 164t-75 158
q-75 52 -205 52t-326 -76l-39 166q86 42 209 70t229 28z" />
    <glyph glyph-name="four" unicode="4" horiz-adv-x="1302" 
d="M922 1149l-629 -655h514zM1190 1436l-168 -942h180l-26 -166h-183l-57 -328h-217l57 328h-753l24 159l930 949h213z" />
    <glyph glyph-name="five" unicode="5" horiz-adv-x="1224" 
d="M684 909q215 -1 332 -113t117 -315q0 -244 -165 -376t-448 -132t-508 144l90 151q194 -116 388 -116t301 80q106 82 106 228t-79 218t-209 72t-287 -101l-129 86l172 699h831l-33 -179h-661l-101 -409q133 63 283 63z" />
    <glyph glyph-name="six" unicode="6" horiz-adv-x="1341" 
d="M699 752q-140 0 -233 -80q-94 -80 -108 -217t68 -223t221 -85q139 0 239 75q99 76 109 226t-72 227q-84 77 -224 77zM893 1456q223 0 422 -115l-86 -157q-155 92 -361 92t-346 -160q-119 -141 -164 -375q150 172 418 172q211 1 338 -115t118 -330t-162 -352t-406 -138
t-392 130q-139 132 -149 355q-14 213 55 428q70 215 211 358q203 207 504 207z" />
    <glyph glyph-name="seven" unicode="7" horiz-adv-x="1140" 
d="M1219 1434l-29 -166l-805 -1268h-270l815 1243h-754l33 191h1010z" />
    <glyph glyph-name="eight" unicode="8" horiz-adv-x="1329" 
d="M760 1288q-129 0 -215 -64t-88 -168q-2 -103 72 -161q75 -57 206 -57t213 59t85 163t-70 166q-74 62 -203 62zM671 668q-155 0 -254 -73t-103 -194t84 -193q89 -72 243 -71q154 0 251 73t100 197q2 125 -82 193t-239 68zM763 1458q228 0 361 -105t129 -274
q-4 -129 -88 -214t-233 -115q143 -33 221 -127t74 -224q-4 -199 -166 -311t-423 -113q-261 0 -412 110t-148 298q4 143 102 249t279 138q-113 35 -170 116t-53 183q2 178 150 284q149 105 377 105z" />
    <glyph glyph-name="nine" unicode="9" horiz-adv-x="1329" 
d="M735 1286q-186 0 -279 -126q-54 -74 -62 -200t77 -202q84 -76 223 -76t234 80q94 80 106 217t-71 222q-85 85 -228 85zM725 1456q254 0 393 -131t150 -371q16 -204 -52 -416t-202 -354q-201 -207 -504 -207q-229 0 -426 115l84 158q160 -92 368 -92t345 161
q113 131 149 355q-145 -154 -414 -154q-208 0 -336 115t-120 331t159 353q152 137 406 137z" />
    <glyph glyph-name="colon" unicode=":" horiz-adv-x="518" 
d="M299 932q55 0 87 -29t28 -82q-6 -113 -119 -112q-53 -1 -85 27t-28 81q11 115 117 115zM170 203q55 0 87 -28t28 -83q-6 -113 -119 -112q-53 0 -85 28t-28 82q11 113 117 113z" />
    <glyph glyph-name="semicolon" unicode=";" horiz-adv-x="552" 
d="M316 932q52 0 86 -31t32 -80q-4 -113 -121 -112q-51 1 -84 29t-29 80t34 83t82 31zM188 193q60 0 96 -43t35 -113q0 -104 -75 -189q-76 -84 -185 -124l-45 59q70 29 123 86t56 135q-25 -16 -52 -16q-84 0 -84 88q0 53 36 85t95 32z" />
    <glyph glyph-name="less" unicode="&#x3c;" horiz-adv-x="1191" 
d="M74 598l30 180l1119 371l-33 -193l-879 -274l781 -276l-31 -177z" />
    <glyph glyph-name="equal" unicode="=" horiz-adv-x="1103" 
d="M963 567l-25 -145h-801l27 145h799zM1022 932l-25 -146h-798l24 146h799z" />
    <glyph glyph-name="greater" unicode="&#x3e;" horiz-adv-x="1189" 
d="M1171 778l-30 -178l-1118 -371l34 191l877 276l-780 273l32 180z" />
    <glyph glyph-name="question" unicode="?" horiz-adv-x="999" 
d="M395 203q55 0 88 -29t29 -83t-37 -85t-88 -31t-88 28t-30 83t37 86t89 31zM815 1106q-1 180 -255 180q-126 0 -306 -90l-55 147q217 113 401 113t298 -82t114 -244q0 -100 -44 -176t-109 -123t-133 -87q-167 -99 -196 -218q-10 -41 -22 -129h-166q6 70 24 155
q18 84 70 150q54 66 116 107t122 81q140 93 141 216z" />
    <glyph glyph-name="at" unicode="@" horiz-adv-x="1912" 
d="M958 870q-74 0 -129 -30q-94 -52 -123 -182q-13 -52 -14 -105q-2 -119 58 -185t148 -67q162 0 222 113q51 96 51 215q0 241 -213 241zM1044 1419q362 0 584 -181t223 -517q-1 -245 -121 -397t-323 -152t-225 156q-90 -154 -305 -154q-164 0 -257 104q-92 104 -90 280
q2 177 104 307t301 130q198 0 277 -149l33 139h154l-96 -545q-25 -154 124 -153q139 0 211 127t72 309q0 297 -186 438t-484 142q-374 0 -590 -212q-216 -211 -216 -549t186 -500t498 -161q242 0 481 94l16 -112q-260 -94 -495 -94q-393 0 -611 200q-217 201 -217 557
q0 397 259 645t693 248z" />
    <glyph glyph-name="A" unicode="A" horiz-adv-x="1468" 
d="M862 1241h-2l-395 -711h543zM1038 1438l305 -1438h-231l-72 354h-667l-191 -354h-243l794 1438h305z" />
    <glyph glyph-name="B" unicode="B" horiz-adv-x="1435" 
d="M874 809q109 0 180 67q70 66 70 162t-59 158t-158 61h-385l-76 -448h428zM815 176q113 0 190 72t77 169t-56 163q-55 66 -154 65h-456l-82 -469h481zM971 1434q168 0 272 -98q105 -98 105 -253q0 -153 -92 -243t-205 -107q111 -23 187 -105t75 -220q0 -188 -137 -298
t-357 -110h-745l252 1434h645z" />
    <glyph glyph-name="C" unicode="C" horiz-adv-x="1402" 
d="M952 1456q266 0 475 -137l-79 -160q-180 115 -390 115q-284 0 -442 -174t-158 -422t136 -383t360 -135q180 0 381 90l45 -164q-211 -109 -459 -109q-307 -1 -506 175t-199 518t240 564t596 222z" />
    <glyph glyph-name="D" unicode="D" horiz-adv-x="1550" 
d="M774 1251h-248l-190 -1069h328q254 0 412 167t157 433q0 225 -120 347t-339 122zM743 1434q336 0 533 -163t197 -498q1 -335 -221 -554t-603 -219h-573l254 1434h413z" />
    <glyph glyph-name="E" unicode="E" horiz-adv-x="1327" 
d="M1354 1434l-31 -177h-797l-84 -469h688l-32 -176h-686l-76 -436h815l-31 -176h-1044l252 1434h1026z" />
    <glyph glyph-name="F" unicode="F" horiz-adv-x="1265" 
d="M1354 1434l-31 -177h-799l-86 -489h688l-30 -176h-688l-105 -592h-227l252 1434h1026z" />
    <glyph glyph-name="G" unicode="G" horiz-adv-x="1562" 
d="M961 1456q293 0 518 -127l-93 -162q-199 106 -419 107q-299 0 -453 -171t-156 -448q-2 -221 128 -357t374 -136q182 0 342 88l53 317h-372l26 166h557l-100 -588q-256 -168 -562 -168q-306 1 -496 175q-191 174 -189 493q0 365 234 588q235 223 608 223z" />
    <glyph glyph-name="H" unicode="H" horiz-adv-x="1572" 
d="M301 0h-227l252 1434h227l-113 -635h754l113 635h227l-252 -1434h-229l110 623h-753z" />
    <glyph glyph-name="I" unicode="I" horiz-adv-x="595" 
d="M557 1434l-256 -1434h-227l256 1434h227z" />
    <glyph glyph-name="J" unicode="J" horiz-adv-x="1142" 
d="M424 -23q-319 0 -426 265l145 110q90 -193 275 -192q236 0 289 297l174 977h227l-174 -983q-41 -231 -169 -353t-341 -121z" />
    <glyph glyph-name="K" unicode="K" horiz-adv-x="1427" 
d="M1497 1434l-602 -553l381 -881h-268l-301 709l-332 -306l-72 -403h-227l252 1434h227l-131 -744l803 744h270z" />
    <glyph glyph-name="L" unicode="L" horiz-adv-x="1171" 
d="M555 1434l-221 -1254h733l-35 -180h-958l254 1434h227z" />
    <glyph glyph-name="M" unicode="M" horiz-adv-x="1916" 
d="M1878 1434l-254 -1434h-229l151 846l72 325h-2l-637 -1026h-207l-276 1026h-4l-39 -325l-152 -846h-227l254 1434h315l275 -1053l626 1053h334z" />
    <glyph glyph-name="N" unicode="N" horiz-adv-x="1548" 
d="M1509 1434l-254 -1434h-237l-522 1083l-195 -1083h-227l254 1434h237l527 -1067l188 1067h229z" />
    <glyph glyph-name="O" unicode="O" horiz-adv-x="1675" 
d="M920 1274q-139 0 -250 -57t-174 -151q-126 -189 -132 -421q-6 -231 116 -357t327 -126q113 0 206 38q167 68 254 234q87 165 93 376q6 212 -114 338t-326 126zM801 -20q-315 0 -499 178q-183 178 -179 489q4 238 116 437q60 108 149 189q90 81 228 132t308 51
q313 -2 497 -180t178 -488q-4 -239 -115 -437q-128 -231 -376 -321q-137 -50 -307 -50z" />
    <glyph glyph-name="P" unicode="P" horiz-adv-x="1417" 
d="M889 1257h-365l-102 -579h432q158 0 240 89t82 209t-71 200t-216 81zM946 1434q229 0 349 -129t120 -320t-135 -337t-397 -146h-494l-88 -502h-227l254 1434h618z" />
    <glyph glyph-name="Q" unicode="Q" horiz-adv-x="1710" 
d="M918 1274q-319 0 -468 -284q-82 -154 -87 -365t117 -337t327 -126q113 0 206 38q167 68 254 234q87 165 93 376q6 212 -116 338t-326 126zM924 1456q313 -2 497 -180t178 -488q-4 -160 -53 -307t-174 -280t-307 -187q231 -90 391 -116l-57 -181q-268 63 -600 263
q-313 0 -497 178q-183 178 -179 489q4 238 116 437q60 108 149 189q90 81 228 132t308 51z" />
    <glyph glyph-name="R" unicode="R" horiz-adv-x="1470" 
d="M909 754q135 0 217 74t82 184t-60 178t-175 67h-428l-90 -503h454zM1024 1434q200 0 312 -118t112 -283t-101 -281t-278 -152l186 -600h-235l-166 578h-430l-102 -578h-228l254 1434h676z" />
    <glyph glyph-name="S" unicode="S" horiz-adv-x="1251" 
d="M724 1456q234 0 517 -127l-76 -178q-246 123 -421 123q-174 0 -242 -60t-68 -136q0 -128 128 -186q50 -24 156 -64q306 -116 372 -202q67 -87 65 -214q0 -211 -146 -323t-395 -112q-166 1 -328 49t-276 121l80 181q279 -164 535 -164q129 0 209 55t79 154q0 61 -44 106
t-93 68t-125 50t-99 34q-24 7 -107 45q-82 39 -141 85q-111 88 -109 263q0 216 147 324q148 108 382 108z" />
    <glyph glyph-name="T" unicode="T" horiz-adv-x="1241" 
d="M1366 1434l-33 -177h-481l-223 -1257h-228l224 1257h-482l33 177h1190z" />
    <glyph glyph-name="U" unicode="U" horiz-adv-x="1505" 
d="M156 432q0 68 4 98l159 904h228l-160 -906q-6 -35 -6 -69q0 -129 83 -214t243 -85t254 87t118 224l172 963h228l-168 -945q-41 -231 -195 -371t-423 -140t-403 136t-134 318z" />
    <glyph glyph-name="V" unicode="V" horiz-adv-x="1382" 
d="M1489 1434l-768 -1434h-299l-254 1434h238l208 -1192l621 1192h254z" />
    <glyph glyph-name="W" unicode="W" horiz-adv-x="2023" 
d="M2122 1434l-656 -1434h-282l-88 1102l-478 -1102h-282l-152 1434h238l108 -1168l490 1155h258l88 -1132l498 1145h258z" />
    <glyph glyph-name="X" unicode="X" horiz-adv-x="1374" 
d="M1501 1434l-653 -707l399 -727h-264l-293 547l-500 -547h-288l661 702l-409 732h266l307 -553l506 553h268z" />
    <glyph glyph-name="Y" unicode="Y" horiz-adv-x="1341" 
d="M680 0h-227l100 567l-363 867h228l272 -686l516 686h244l-672 -873z" />
    <glyph glyph-name="Z" unicode="Z" horiz-adv-x="1284" 
d="M1341 1434l-24 -150l-1014 -1114l410 6h420l-33 -176h-1135l27 152l1016 1110l-402 -5h-389l33 177h1091z" />
    <glyph glyph-name="bracketleft" unicode="[" horiz-adv-x="634" 
d="M694 1456l-28 -166h-197l-266 -1497h198l-28 -166h-373l322 1829h372z" />
    <glyph glyph-name="backslash" unicode="\" horiz-adv-x="1001" 
d="M229 1501h166l414 -1575h-166z" />
    <glyph glyph-name="bracketright" unicode="]" horiz-adv-x="634" 
d="M621 1456l-322 -1829h-373l29 164h197l264 1497h-197l29 168h373z" />
    <glyph glyph-name="underscore" unicode="_" horiz-adv-x="1198" 
d="M926 -139l-29 -152h-911l28 152h912z" />
    <glyph glyph-name="grave" unicode="`" horiz-adv-x="559" 
d="M279 1466h194l88 -303h-151z" />
    <glyph glyph-name="a" unicode="a" horiz-adv-x="1306" 
d="M954 594q0 150 -79 238t-211 88t-218 -73q-153 -130 -153 -370q0 -153 80 -241t221 -89q96 0 169 43q125 74 172 254q19 74 19 150zM621 1081q135 0 238 -58t149 -159l45 201h202l-141 -803l-33 -262h-200l18 152q-133 -168 -361 -168t-344 133t-117 369t142 416
q144 179 402 179z" />
    <glyph glyph-name="b" unicode="b" horiz-adv-x="1306" 
d="M639 147q94 0 167 42q123 71 170 248q19 73 19 147q1 154 -77 242t-212 89q-134 -1 -217 -75q-147 -130 -147 -361q0 -152 79 -242t218 -90zM766 1081q217 0 333 -133q115 -134 115 -372t-140 -414t-402 -178q-141 -2 -242 57q-100 59 -147 162l-43 -203h-201l262 1499
h215l-96 -557q129 139 346 139z" />
    <glyph glyph-name="c" unicode="c" horiz-adv-x="1116" 
d="M692 1081q197 0 365 -92l-76 -149q-143 74 -291 73q-184 0 -291 -114q-106 -115 -106 -293t96 -266q97 -88 249 -88t282 67l41 -156q-172 -79 -373 -79t-350 112q-76 56 -120 156t-44 229q0 270 174 435t444 165z" />
    <glyph glyph-name="d" unicode="d" horiz-adv-x="1320" 
d="M657 915q-209 0 -308 -202q-52 -106 -52 -247q0 -140 80 -228t213 -88t218 74q152 133 150 370q0 150 -79 236t-222 85zM530 -16q-218 0 -334 131t-117 369t141 418q142 179 403 181q135 0 237 -57t146 -156l112 629h215l-217 -1237l-33 -262h-186l21 168
q-137 -184 -388 -184z" />
    <glyph glyph-name="e" unicode="e" horiz-adv-x="1191" 
d="M524 580q385 0 387 190q4 148 -206 148q-147 0 -253 -92t-145 -230q98 -16 217 -16zM291 461q4 -320 353 -320q173 0 329 84l43 -145q-162 -96 -415 -96t-392 122t-137 366q2 243 179 426t470 183q180 -1 293 -73t110 -230q-2 -338 -575 -338q-145 0 -258 21z" />
    <glyph glyph-name="f" unicode="f" horiz-adv-x="753" 
d="M641 1516q153 0 250 -29l-45 -154q-66 20 -146 21q-150 0 -180 -166l-22 -123h290l-24 -152h-293l-199 -1138h-215l201 1138h-164l27 152h164l22 123q27 158 104 243t230 85z" />
    <glyph glyph-name="g" unicode="g" horiz-adv-x="1286" 
d="M640 918q-152 0 -243 -112q-90 -112 -94 -271t71 -247q76 -88 232 -89t244 113t92 276t-73 246t-229 84zM616 1081q142 0 242 -58t143 -151l43 193h197l-170 -965q-39 -229 -178 -341q-139 -111 -407 -111t-472 127l64 155q74 -49 184 -82t225 -32q315 0 365 276l10 66
q-121 -119 -332 -119q-212 0 -332 122q-120 123 -115 369t151 398t382 153z" />
    <glyph glyph-name="h" unicode="h" horiz-adv-x="1236" 
d="M1126 729q0 -55 -10 -121l-108 -608h-213l104 606q10 55 10 88q0 223 -219 224q-135 0 -221 -94t-117 -265l-98 -559h-215l264 1499h215l-102 -577q127 160 360 159q186 0 268 -98t82 -254z" />
    <glyph glyph-name="i" unicode="i" horiz-adv-x="542" 
d="M479 1065l-188 -1065h-215l162 913h-132l29 152h344zM385 1448q63 0 94 -27t27 -75q-4 -106 -125 -106t-115 101q6 107 119 107z" />
    <glyph glyph-name="j" unicode="j" horiz-adv-x="563" 
d="M420 1442q57 0 88 -28t27 -77q-6 -106 -125 -106q-57 -1 -88 27t-28 78t36 78t90 28zM-2 -362h-121l31 176h57q67 0 91 24t34 94l174 981h-141l27 152h356l-205 -1159q-25 -154 -97 -211t-206 -57z" />
    <glyph glyph-name="k" unicode="k" horiz-adv-x="1124" 
d="M520 1499l-168 -938l574 504h245l-460 -403l286 -662h-225l-223 520l-240 -211l-53 -309h-215l264 1499h215z" />
    <glyph glyph-name="l" unicode="l" horiz-adv-x="569" 
d="M244 -16q-104 0 -150 52q-45 52 -22 179l227 1284h215l-225 -1268q-14 -82 69 -81q59 0 88 6l-20 -158q-78 -14 -182 -14z" />
    <glyph glyph-name="m" unicode="m" horiz-adv-x="1851" 
d="M739 1081q219 0 289 -204q60 96 160 150t221 54q205 0 279 -129t41 -317l-111 -635h-215l113 635q24 121 -20 202t-158 81t-187 -81q-72 -81 -102 -219l-109 -618h-215l115 651q8 33 8 72q0 86 -47 140q-47 55 -161 55t-184 -96t-89 -228l-2 4l-105 -598h-215l143 807
l25 258h195l-15 -141q127 157 346 157z" />
    <glyph glyph-name="n" unicode="n" horiz-adv-x="1228" 
d="M780 1081q176 0 259 -91t83 -240q0 -59 -12 -121l-111 -629h-215l111 627q8 53 8 80q0 94 -50 152q-50 59 -176 59t-215 -100t-118 -261l-98 -557h-215l137 782l33 283h194l-18 -172q145 188 403 188z" />
    <glyph glyph-name="o" unicode="o" horiz-adv-x="1284" 
d="M670 913q-172 0 -268 -130t-97 -297q-2 -166 80 -250t217 -84q174 0 268 129t98 297t-79 252q-82 84 -219 83zM688 1081q222 0 362 -130t138 -363q-4 -266 -163 -435t-437 -169q-227 0 -366 129q-138 129 -135 379t163 419q160 170 438 170z" />
    <glyph glyph-name="p" unicode="p" horiz-adv-x="1306" 
d="M700 913q-212 0 -310 -206q-50 -105 -50 -246q0 -140 79 -227t220 -87q94 0 167 42q126 73 172 249q19 74 19 150q0 152 -78 238t-219 87zM754 1081q230 0 346 -131q117 -131 117 -356q0 -351 -241 -521q-126 -89 -284 -90t-258 56t-143 158l-98 -545h-216l201 1130
l31 283h186l-18 -168q147 184 377 184z" />
    <glyph glyph-name="q" unicode="q" horiz-adv-x="1298" 
d="M297 469q0 -145 81 -233t212 -89q131 0 216 75q152 134 150 372q0 150 -78 236t-210 88q-130 0 -216 -77q-154 -138 -155 -372zM529 -16q-217 0 -333 130t-118 351q0 352 243 524q125 90 283 92t260 -60t148 -167l45 211h198l-249 -1415h-215l83 481q-129 -147 -345 -147
z" />
    <glyph glyph-name="r" unicode="r" horiz-adv-x="741" 
d="M754 1065l-47 -211q-156 20 -243 -72t-122 -286l-86 -496h-215l143 819l29 246h195l-23 -201q53 108 147 170t222 31z" />
    <glyph glyph-name="s" unicode="s" horiz-adv-x="1011" 
d="M550 1081q177 0 408 -98l-67 -137q-174 82 -320 82q-217 0 -217 -142q0 -72 82 -109q56 -23 123 -45q68 -22 103 -35t86 -41q52 -28 76 -56q60 -69 61 -181q0 -167 -120 -251t-312 -84q-244 0 -455 133l68 137q197 -117 376 -117q225 4 226 154q0 63 -48 95t-140 60
t-123 36q-31 9 -79 35q-48 25 -74 53q-65 69 -67 186q0 162 118 244t295 81z" />
    <glyph glyph-name="t" unicode="t" horiz-adv-x="782" 
d="M342 238q0 -98 125 -99q66 0 151 27l-14 -143q-84 -39 -227 -39t-199 55q-55 55 -55 154q0 35 12 116l107 604h-150l27 152h151l86 309h183l-54 -309h299l-28 -152h-299l-107 -598q-8 -57 -8 -77z" />
    <glyph glyph-name="u" unicode="u" horiz-adv-x="1255" 
d="M432 -16q-176 0 -259 91t-83 240q0 59 12 121l111 629h215l-109 -627q-8 -53 -8 -82q0 -92 49 -150t176 -58q128 0 216 100t116 260l99 557h215l-138 -782l-30 -283h-195l17 166q-146 -182 -404 -182z" />
    <glyph glyph-name="v" unicode="v" horiz-adv-x="1101" 
d="M1135 1065l-588 -1065h-252l-186 1065h217l135 -838l434 838h240z" />
    <glyph glyph-name="w" unicode="w" horiz-adv-x="1703" 
d="M1735 1065l-504 -1065h-248l-106 772l-377 -772h-250l-125 1065h209l88 -836l407 836h193l111 -825l372 823z" />
    <glyph glyph-name="x" unicode="x" horiz-adv-x="1103" 
d="M1161 1065l-479 -524l293 -541h-230l-215 397l-354 -397h-233l477 530l-293 535h231l215 -391l357 391h231z" />
    <glyph glyph-name="y" unicode="y" horiz-adv-x="1167" 
d="M182 -358q-116 0 -241 34l36 160q184 -54 277 5q49 32 90 110l25 47l-250 1067h221l178 -862l436 862h236l-619 -1145q-90 -164 -182 -221q-91 -57 -207 -57z" />
    <glyph glyph-name="z" unicode="z" horiz-adv-x="1069" 
d="M1071 1065l-29 -170l-770 -750l357 7h297l-31 -152h-922l31 166l776 754l-350 -7h-278l30 152h889z" />
    <glyph glyph-name="braceleft" unicode="{" horiz-adv-x="688" 
d="M635 1296q-137 0 -162 -145l-80 -461q-20 -125 -153 -143q125 -14 100 -160l-80 -446q-29 -143 109 -144h88l-29 -157h-96q-172 0 -221 78t-25 221l76 438q18 104 -74 104h-33l23 131h26q98 0 117 95l82 467q27 142 93 212t216 70h138l-29 -160h-86z" />
    <glyph glyph-name="bar" unicode="|" horiz-adv-x="651" 
d="M418 1622v-1941h-174v1941h174z" />
    <glyph glyph-name="braceright" unicode="}" horiz-adv-x="686" 
d="M336 1456q172 0 220 -80t24 -223l-76 -434q-16 -109 78 -109h30l-22 -131h-25q-102 0 -119 -90l-81 -469q-25 -141 -92 -211t-218 -69h-137l29 157h86q137 0 162 146l79 463q20 125 154 141q-125 16 -100 160l80 444q29 145 -109 145h-90l29 160h98z" />
    <glyph glyph-name="exclamdown" unicode="&#xa1;" horiz-adv-x="540" 
d="M327 1085q56 -1 90 -29q33 -28 29 -82t-36 -85t-89 -31q-56 0 -90 29q-33 29 -29 82t37 85q32 32 88 31zM371 645l-146 -1022h-245l215 1022h176z" />
    <glyph glyph-name="cent" unicode="&#xa2;" horiz-adv-x="1110" 
d="M649 150h-41l-37 -205h-120l38 223q-174 41 -279 162t-106 323q0 250 161 412t417 180l35 207h121l-37 -207q154 -18 278 -88l-69 -141q-117 68 -262 67q-195 -1 -309 -123q-113 -122 -113 -292t93 -260q93 -92 245 -92t274 71l53 -139q-154 -98 -342 -98z" />
    <glyph glyph-name="sterling" unicode="&#xa3;" horiz-adv-x="1214" 
d="M506 537q0 -147 -57 -237t-125 -134h720l-28 -166h-1016l27 156q99 20 166 93q33 35 61 107t27 146q0 74 -9 123h-157l20 116h119q-14 96 -14 195q0 260 148 390t387 130t429 -123l-92 -151q-11 11 -28 17q-17 7 -33 16q-15 9 -27 13t-32 13q-20 8 -34 12q-16 3 -56 15
t-120 12q-154 0 -236 -86t-83 -256q0 -82 16 -197h500l-21 -116h-458q6 -43 6 -88z" />
    <glyph glyph-name="yen" unicode="&#xa5;" horiz-adv-x="1400" 
d="M1470 1434l-663 -856l-12 -62h245l-18 -100h-244l-16 -101h242l-17 -100h-242l-38 -215h-230l39 215h-244l19 100h241l17 101h-242l19 100h241l13 62l-363 856h227l273 -660l500 660h253z" />
    <glyph glyph-name="section" unicode="&#xa7;" horiz-adv-x="1241" 
d="M932 516q0 53 -41 94q-41 40 -88 60t-174 58t-178 60q-141 -106 -142 -221q-1 -71 57 -113t121 -62q252 -78 304 -97q141 109 141 221zM739 1436q246 0 475 -109l-69 -164q-227 88 -375 88t-225 -51q-76 -51 -76 -129q0 -86 115 -129q67 -25 127 -42q61 -17 113 -33
q120 -37 200 -92q108 -73 106 -212q0 -104 -68 -194t-149 -142q101 -79 101 -231t-132 -250t-383 -98t-472 108l69 164q228 -88 376 -88t223 51t75 129q0 53 -26 76q-26 22 -44 34t-53 23q-67 23 -130 40q-196 53 -303 125t-105 210q0 104 68 195q69 90 151 141
q-100 80 -100 232t132 250q133 98 379 98z" />
    <glyph glyph-name="dieresis" unicode="&#xa8;" horiz-adv-x="825" 
d="M766 1401q53 0 83 -28t28 -75q-4 -106 -115 -106q-53 0 -82 28t-27 76t31 77q29 28 82 28zM317 1192q-53 0 -81 28t-27 76q3 48 31 77q28 28 82 28t84 -28t28 -75q-4 -106 -117 -106z" />
    <glyph glyph-name="copyright" unicode="&#xa9;" horiz-adv-x="1687" 
d="M879 1350q-265 0 -447 -178t-182 -452t181 -452t447 -178t449 177q182 177 182 451t-182 454q-182 178 -448 178zM915 1100q129 0 224 -47l-31 -107q-94 33 -168 33q-129 0 -196 -71q-66 -72 -66 -186t66 -186t198 -71q86 0 174 37l25 -111q-100 -47 -228 -47
q-175 0 -285 100t-110 278t110 278t287 100zM879 1440q307 0 516 -203t209 -515t-211 -517t-514 -205t-513 204t-210 517t208 516t515 203z" />
    <glyph glyph-name="ordfeminine" unicode="&#xaa;" horiz-adv-x="1003" 
d="M592 1083q-231 0 -232 -153q0 -51 37 -81t108 -30t132 47t78 129l14 74q-67 14 -137 14zM862 565l-24 -129h-699l25 129h698zM674 1487q279 0 235 -248l-61 -352q-8 -37 22 -37q6 0 24 1t19 1l-20 -117q-57 -14 -103 -14q-102 0 -98 88v4q-94 -94 -246 -94
q-102 0 -163 48t-62 140q0 137 97 202t266 65q90 0 161 -13l9 51q12 80 -19 114t-135 34t-229 -39l-6 123q147 43 309 43z" />
    <glyph glyph-name="guillemotleft" unicode="&#xab;" horiz-adv-x="1259" 
d="M592 1036l102 -114l-393 -406l242 -391l-129 -96l-342 481l8 45zM1112 1036l102 -114l-393 -406l242 -391l-129 -96l-342 481l8 45z" />
    <glyph glyph-name="registered" unicode="&#xae;" horiz-adv-x="1226" 
d="M739 1221h-129v-162h133q39 -1 62 23t22 57q0 82 -88 82zM526 1290h226q68 0 110 -43t41 -108q0 -106 -90 -140l84 -190h-90l-70 178h-129v-178h-82v481zM705 1442q-178 0 -287 -114t-109 -286t109 -284t287 -113q177 0 285 113q108 112 108 284t-108 286t-285 114z
M705 1505q203 0 333 -131t129 -331q0 -201 -131 -331q-130 -130 -332 -130t-333 130t-131 330t131 332q131 131 334 131z" />
    <glyph glyph-name="macron" unicode="&#xaf;" horiz-adv-x="708" 
d="M811 1360l-20 -125h-625l22 125h623z" />
    <glyph glyph-name="degree" unicode="&#xb0;" horiz-adv-x="679" 
d="M464 1362q-70 0 -117 -47q-48 -47 -50 -132t45 -120t117 -35q71 0 117 47t48 132t-43 120q-47 35 -117 35zM452 936q-118 0 -194 60t-74 188t87 200q85 70 202 70t192 -58t73 -186t-86 -201q-83 -73 -200 -73z" />
    <glyph glyph-name="plusminus" unicode="&#xb1;" horiz-adv-x="1155" 
d="M756 1145l-58 -330h389l-30 -158h-387l-56 -317h-163l55 317h-375l31 158h375l57 330h162zM985 244l-24 -140h-928l26 140h926z" />
    <glyph glyph-name="acute" unicode="&#xb4;" horiz-adv-x="618" 
d="M705 1479l-246 -303h-162l207 303h201z" />
    <glyph glyph-name="mu" unicode="&#xb5;" horiz-adv-x="1286" 
d="M578 -23q-100 0 -177 41q-76 41 -104 109l-86 -475h-215l254 1413h215l-107 -594q-10 -59 -10 -98q0 -101 67 -163t183 -63q256 0 309 293l111 625h215l-148 -838l-24 -227h-182l6 139q-115 -162 -307 -162z" />
    <glyph glyph-name="paragraph" unicode="&#xb6;" horiz-adv-x="1241" 
d="M147 913q0 252 151 386t347 135h543l-285 -1610h-158l254 1450h-202l-256 -1450h-160l131 739h-51q-154 1 -234 99t-80 251z" />
    <glyph glyph-name="periodcentered" unicode="&#xb7;" horiz-adv-x="583" 
d="M312 762q68 0 108 -38t33 -109t-51 -107t-112 -37q-68 0 -106 39q-38 40 -32 108t48 106q44 38 112 38z" />
    <glyph glyph-name="cedilla" unicode="&#xb8;" horiz-adv-x="567" 
d="M338 -254q0 -80 -70 -120t-173 -40t-171 29l23 90q57 -27 151 -27t95 66q0 70 -121 53l-27 41l90 182h119l-68 -133q55 0 104 -30q48 -31 48 -111z" />
    <glyph glyph-name="ordmasculine" unicode="&#xba;" horiz-adv-x="1091" 
d="M664 1350q-110 0 -182 -70t-76 -188t53 -174q57 -58 167 -58t180 71t79 204q5 99 -53 157t-168 58zM940 565l-25 -129h-776l25 129h776zM670 1487q184 0 282 -89t92 -266t-122 -293t-300 -116t-282 89t-92 266t122 293t300 116z" />
    <glyph glyph-name="guillemotright" unicode="&#xbb;" horiz-adv-x="1284" 
d="M35 143l393 404l-242 393l129 96l342 -481l-6 -45l-512 -481zM555 143l391 404l-239 393l129 96l342 -481l-7 -45l-512 -481z" />
    <glyph glyph-name="questiondown" unicode="&#xbf;" horiz-adv-x="985" 
d="M598 856q-55 0 -88 29t-29 83t36 85t87 31t89 -28t30 -83t-37 -86t-88 -31zM178 -47q0 -180 254 -180q122 0 307 92l58 -150q-217 -110 -403 -110t-298 81t-112 245t110 260q79 70 211 152q133 82 160 192q4 16 20 127h166q-5 -197 -93 -306q-54 -66 -116 -106t-124 -81
q-140 -93 -140 -216z" />
    <glyph glyph-name="Agrave" unicode="&#xc0;" horiz-adv-x="1468" 
d="M940 1763l82 -231h-150l-124 231h192zM862 1241h-2l-395 -711h543zM1038 1438l305 -1438h-231l-72 354h-667l-191 -354h-243l794 1438h305z" />
    <glyph glyph-name="Aacute" unicode="&#xc1;" horiz-adv-x="1466" 
d="M1133 1765l-209 -233h-160l172 233h197zM862 1241h-2l-395 -711h543zM1038 1438l305 -1438h-231l-72 354h-667l-191 -354h-243l794 1438h305z" />
    <glyph glyph-name="Acircumflex" unicode="&#xc2;" horiz-adv-x="1468" 
d="M578 1532l274 233h192l183 -233h-164l-121 154l-186 -154h-178zM862 1241h-2l-395 -711h543zM1038 1438l305 -1438h-231l-72 354h-667l-191 -354h-243l794 1438h305z" />
    <glyph glyph-name="Atilde" unicode="&#xc3;" horiz-adv-x="1466" 
d="M1001 1563q-51 0 -132 45t-119 45q-68 0 -115 -76l-68 33q82 174 224 174q53 0 135 -45q74 -45 110 -45t60 14q25 14 34 26t27 38l70 -35q-88 -174 -226 -174zM862 1241h-2l-395 -711h543zM1038 1438l305 -1438h-231l-72 354h-667l-191 -354h-243l794 1438h305z" />
    <glyph glyph-name="Adieresis" unicode="&#xc4;" horiz-adv-x="1468" 
d="M684 1761q55 -1 84 -27t27 -73q-4 -100 -111 -100q-51 1 -79 27t-25 73q4 100 104 100zM1128 1761q55 -1 84 -27t27 -73q-4 -100 -111 -100q-50 1 -78 27t-26 73q4 100 104 100zM862 1241h-2l-395 -711h543zM1038 1438l305 -1438h-231l-72 354h-667l-191 -354h-243
l794 1438h305z" />
    <glyph glyph-name="Aring" unicode="&#xc5;" horiz-adv-x="1468" 
d="M938 1843q-45 0 -76 -31t-35 -89t27 -85q31 -26 76 -26t79 30t37 90t-30 86t-78 25zM941 1929q93 0 155 -49t59 -147q-2 -99 -65 -153q-64 -54 -158 -54t-156 50q-61 50 -57 148t66 152q63 53 156 53zM862 1241h-2l-395 -711h543zM1038 1438l305 -1438h-231l-72 354h-667
l-191 -354h-243l794 1438h305z" />
    <glyph glyph-name="AE" unicode="&#xc6;" horiz-adv-x="2121" 
d="M1038 1257l-487 -700h420l123 700h-56zM164 0h-260l1030 1434h1214l-30 -177h-797l-82 -471h688l-33 -176h-688l-73 -434h819l-33 -176h-1047l68 381h-512z" />
    <glyph glyph-name="Ccedilla" unicode="&#xc7;" horiz-adv-x="1400" 
d="M952 1456q266 0 475 -137l-79 -160q-180 115 -390 115q-284 0 -442 -174t-158 -422t136 -383t360 -135q180 0 381 90l45 -164q-211 -109 -459 -109q-25 0 -65 5l-47 -95q55 -1 103 -31t48 -110t-70 -120t-172 -40q-103 0 -172 29l23 90q57 -27 151 -27t95 66
q0 70 -121 53l-27 41l76 156q-238 47 -382 216t-144 447q0 354 239 577q240 222 596 222z" />
    <glyph glyph-name="Egrave" unicode="&#xc8;" horiz-adv-x="1327" 
d="M877 1763l81 -231h-149l-125 231h193zM1354 1434l-31 -177h-797l-84 -469h688l-32 -176h-686l-76 -436h815l-31 -176h-1044l252 1434h1026z" />
    <glyph glyph-name="Eacute" unicode="&#xc9;" horiz-adv-x="1327" 
d="M1116 1765l-209 -233h-159l172 233h196zM1354 1434l-31 -177h-797l-84 -469h688l-32 -176h-686l-76 -436h815l-31 -176h-1044l252 1434h1026z" />
    <glyph glyph-name="Ecircumflex" unicode="&#xca;" horiz-adv-x="1325" 
d="M541 1532l274 233h193l182 -233h-164l-121 154l-186 -154h-178zM1354 1434l-31 -177h-797l-84 -469h688l-32 -176h-686l-76 -436h815l-31 -176h-1044l252 1434h1026z" />
    <glyph glyph-name="Edieresis" unicode="&#xcb;" horiz-adv-x="1327" 
d="M1094 1761q55 -1 84 -27t26 -73q-4 -100 -110 -100q-51 1 -79 27t-26 73q5 100 105 100zM649 1761q55 -1 84 -27t27 -73q-4 -100 -111 -100q-51 1 -79 27t-25 73q4 100 104 100zM1354 1434l-31 -177h-797l-84 -469h688l-32 -176h-686l-76 -436h815l-31 -176h-1044
l252 1434h1026z" />
    <glyph glyph-name="Igrave" unicode="&#xcc;" horiz-adv-x="595" 
d="M479 1763l82 -231h-149l-125 231h192zM557 1434l-256 -1434h-227l256 1434h227z" />
    <glyph glyph-name="Iacute" unicode="&#xcd;" horiz-adv-x="595" 
d="M719 1765l-209 -233h-160l172 233h197zM557 1434l-256 -1434h-227l256 1434h227z" />
    <glyph glyph-name="Icircumflex" unicode="&#xce;" horiz-adv-x="595" 
d="M117 1532l274 233h193l182 -233h-164l-121 154l-186 -154h-178zM557 1434l-256 -1434h-227l256 1434h227z" />
    <glyph glyph-name="Idieresis" unicode="&#xcf;" horiz-adv-x="595" 
d="M696 1761q55 -1 84 -27t27 -73q-4 -100 -111 -100q-51 1 -79 27t-25 73q4 100 104 100zM252 1761q55 -1 84 -27t26 -73q-4 -100 -110 -100q-51 1 -79 27t-26 73q5 100 105 100zM557 1434l-256 -1434h-227l256 1434h227z" />
    <glyph glyph-name="Eth" unicode="&#xd0;" horiz-adv-x="1550" 
d="M774 1251h-248l-86 -479h293l-20 -139h-297l-80 -451h328q254 0 412 167t157 433q0 225 -120 347t-339 122zM743 1434q336 0 533 -163t197 -498q1 -335 -221 -554t-603 -219h-573l110 633h-163l20 139h168l119 662h413z" />
    <glyph glyph-name="Ntilde" unicode="&#xd1;" horiz-adv-x="1548" 
d="M1075 1563q-51 0 -132 45t-120 45q-68 0 -114 -76l-68 33q82 174 223 174q53 0 135 -45q74 -45 110 -45q37 0 61 14t34 26t27 38l69 -35q-88 -174 -225 -174zM1509 1434l-254 -1434h-237l-522 1083l-195 -1083h-227l254 1434h237l527 -1067l188 1067h229z" />
    <glyph glyph-name="Ograve" unicode="&#xd2;" horiz-adv-x="1673" 
d="M973 1763l82 -231h-150l-125 231h193zM920 1274q-139 0 -250 -57t-174 -151q-126 -189 -132 -421q-6 -231 116 -357t327 -126q113 0 206 38q167 68 254 234q87 165 93 376q6 212 -114 338t-326 126zM801 -20q-315 0 -499 178q-183 178 -179 489q4 238 116 437
q60 108 149 189q90 81 228 132t308 51q313 -2 497 -180t178 -488q-4 -239 -115 -437q-128 -231 -376 -321q-137 -50 -307 -50z" />
    <glyph glyph-name="Oacute" unicode="&#xd3;" horiz-adv-x="1675" 
d="M1167 1765l-209 -233h-159l172 233h196zM920 1274q-139 0 -250 -57t-174 -151q-126 -189 -132 -421q-6 -231 116 -357t327 -126q113 0 206 38q167 68 254 234q87 165 93 376q6 212 -114 338t-326 126zM801 -20q-315 0 -499 178q-183 178 -179 489q4 238 116 437
q60 108 149 189q90 81 228 132t308 51q313 -2 497 -180t178 -488q-4 -239 -115 -437q-128 -231 -376 -321q-137 -50 -307 -50z" />
    <glyph glyph-name="Ocircumflex" unicode="&#xd4;" horiz-adv-x="1673" 
d="M631 1532l274 233h193l182 -233h-164l-121 154l-186 -154h-178zM920 1274q-139 0 -250 -57t-174 -151q-126 -189 -132 -421q-6 -231 116 -357t327 -126q113 0 206 38q167 68 254 234q87 165 93 376q6 212 -114 338t-326 126zM801 -20q-315 0 -499 178q-183 178 -179 489
q4 238 116 437q60 108 149 189q90 81 228 132t308 51q313 -2 497 -180t178 -488q-4 -239 -115 -437q-128 -231 -376 -321q-137 -50 -307 -50z" />
    <glyph glyph-name="Otilde" unicode="&#xd5;" horiz-adv-x="1673" 
d="M1057 1563q-51 0 -132 45t-120 45q-68 0 -115 -76l-67 33q82 174 223 174q53 0 135 -45q74 -45 110 -45q37 0 61 14t33 26t27 38l70 -35q-86 -174 -225 -174zM920 1274q-139 0 -250 -57t-174 -151q-126 -189 -132 -421q-6 -231 116 -357t327 -126q113 0 206 38
q167 68 254 234q87 165 93 376q6 212 -114 338t-326 126zM801 -20q-315 0 -499 178q-183 178 -179 489q4 238 116 437q60 108 149 189q90 81 228 132t308 51q313 -2 497 -180t178 -488q-4 -239 -115 -437q-128 -231 -376 -321q-137 -50 -307 -50z" />
    <glyph glyph-name="Odieresis" unicode="&#xd6;" horiz-adv-x="1675" 
d="M1198 1761q55 -1 84 -27t27 -73q-4 -100 -111 -100q-51 1 -79 27t-25 73q4 100 104 100zM754 1761q55 -1 84 -27t26 -73q-4 -100 -110 -100q-51 1 -79 27t-26 73q5 100 105 100zM920 1274q-139 0 -250 -57t-174 -151q-126 -189 -132 -421q-6 -231 116 -357t327 -126
q113 0 206 38q167 68 254 234q87 165 93 376q6 212 -114 338t-326 126zM801 -20q-315 0 -499 178q-183 178 -179 489q4 238 116 437q60 108 149 189q90 81 228 132t308 51q313 -2 497 -180t178 -488q-4 -239 -115 -437q-128 -231 -376 -321q-137 -50 -307 -50z" />
    <glyph glyph-name="multiply" unicode="&#xd7;" horiz-adv-x="1075" 
d="M297 1128l272 -331l389 331l93 -110l-389 -332l272 -330l-131 -110l-273 329l-389 -329l-90 110l389 330l-272 332z" />
    <glyph glyph-name="Oslash" unicode="&#xd8;" horiz-adv-x="1675" 
d="M928 1274q-146 0 -258 -57q-111 -57 -174 -151q-126 -189 -133 -405q-7 -215 94 -346l727 883q-110 76 -256 76zM807 162q113 0 206 38q167 68 255 236q88 167 93 363q5 197 -95 323l-731 -882q109 -78 272 -78zM801 -20q-233 0 -398 100l-129 -156h-141l182 221
q-199 180 -192 502q4 238 116 437q60 108 149 189q90 81 228 132t308 51q227 -4 391 -100l119 145h143l-172 -209q201 -180 194 -504q-4 -239 -115 -437q-128 -231 -376 -321q-137 -50 -307 -50z" />
    <glyph glyph-name="Ugrave" unicode="&#xd9;" horiz-adv-x="1505" 
d="M952 1763l82 -231h-149l-125 231h192zM156 432q0 68 4 98l159 904h228l-160 -906q-6 -35 -6 -69q0 -129 83 -214t243 -85t254 87t118 224l172 963h228l-168 -945q-41 -231 -195 -371t-423 -140t-403 136t-134 318z" />
    <glyph glyph-name="Uacute" unicode="&#xda;" horiz-adv-x="1505" 
d="M1184 1765l-209 -233h-160l172 233h197zM156 432q0 68 4 98l159 904h228l-160 -906q-6 -35 -6 -69q0 -129 83 -214t243 -85t254 87t118 224l172 963h228l-168 -945q-41 -231 -195 -371t-423 -140t-403 136t-134 318z" />
    <glyph glyph-name="Ucircumflex" unicode="&#xdb;" horiz-adv-x="1505" 
d="M590 1532l274 233h193l182 -233h-164l-121 154l-186 -154h-178zM156 432q0 68 4 98l159 904h228l-160 -906q-6 -35 -6 -69q0 -129 83 -214t243 -85t254 87t118 224l172 963h228l-168 -945q-41 -231 -195 -371t-423 -140t-403 136t-134 318z" />
    <glyph glyph-name="Udieresis" unicode="&#xdc;" horiz-adv-x="1505" 
d="M1145 1761q55 -1 84 -27t26 -73q-4 -100 -110 -100q-51 1 -79 27t-26 73q5 100 105 100zM700 1761q55 -1 84 -27t27 -73q-4 -100 -111 -100q-50 1 -78 27t-26 73q4 100 104 100zM156 432q0 68 4 98l159 904h228l-160 -906q-6 -35 -6 -69q0 -129 83 -214t243 -85t254 87
t118 224l172 963h228l-168 -945q-41 -231 -195 -371t-423 -140t-403 136t-134 318z" />
    <glyph glyph-name="Yacute" unicode="&#xdd;" horiz-adv-x="1341" 
d="M1083 1765l-209 -233h-159l172 233h196zM680 0h-227l100 567l-363 867h228l272 -686l516 686h244l-672 -873z" />
    <glyph glyph-name="Thorn" unicode="&#xde;" horiz-adv-x="1404" 
d="M809 440q158 0 240 89q81 89 81 209t-70 201q-71 81 -216 81h-365l-102 -580h432zM901 1196q229 0 349 -129t120 -319t-135 -337q-135 -146 -397 -147h-492l-47 -264h-225l252 1434h225l-41 -238h391z" />
    <glyph glyph-name="germandbls" unicode="&#xdf;" horiz-adv-x="1298" 
d="M704 1456q186 0 290 -89t106 -218q0 -74 -27 -131t-57 -88q-85 -87 -85 -171q1 -84 85 -166q34 -34 68 -72q84 -95 79 -230q-1 -176 -113 -261t-280 -85t-346 55l41 166q141 -51 253 -51q227 0 232 207q4 95 -72 173q-32 31 -64 63q-77 76 -77 177q0 66 27 118t59 81
q88 77 86 176q0 70 -50 123q-51 53 -157 53t-176 -74t-94 -211l-178 -1001h-215l180 1024q39 216 169 324t316 108z" />
    <glyph glyph-name="agrave" unicode="&#xe0;" horiz-adv-x="1304" 
d="M541 1497h194l88 -303h-151zM954 594q0 150 -79 238t-211 88t-218 -73q-153 -130 -153 -370q0 -153 80 -241t221 -89q96 0 169 43q125 74 172 254q19 74 19 150zM621 1081q135 0 238 -58t149 -159l45 201h202l-141 -803l-33 -262h-200l18 152q-133 -168 -361 -168
t-344 133t-117 369t142 416q144 179 402 179z" />
    <glyph glyph-name="aacute" unicode="&#xe1;" horiz-adv-x="1306" 
d="M1020 1497l-246 -303h-162l207 303h201zM954 594q0 150 -79 238t-211 88t-218 -73q-153 -130 -153 -370q0 -153 80 -241t221 -89q96 0 169 43q125 74 172 254q19 74 19 150zM621 1081q135 0 238 -58t149 -159l45 201h202l-141 -803l-33 -262h-200l18 152
q-133 -168 -361 -168t-344 133t-117 369t142 416q144 179 402 179z" />
    <glyph glyph-name="acircumflex" unicode="&#xe2;" horiz-adv-x="1306" 
d="M422 1194l280 305h195l174 -305h-164l-116 217l-195 -217h-174zM954 594q0 150 -79 238t-211 88t-218 -73q-153 -130 -153 -370q0 -153 80 -241t221 -89q96 0 169 43q125 74 172 254q19 74 19 150zM621 1081q135 0 238 -58t149 -159l45 201h202l-141 -803l-33 -262h-200
l18 152q-133 -168 -361 -168t-344 133t-117 369t142 416q144 179 402 179z" />
    <glyph glyph-name="atilde" unicode="&#xe3;" horiz-adv-x="1304" 
d="M856 1225q-51 0 -132 45t-120 45q-68 0 -115 -76l-67 33q82 174 223 174q53 0 135 -45q74 -45 110 -45t60 14t34 26t28 38l69 -35q-86 -174 -225 -174zM954 594q0 150 -79 238t-211 88t-218 -73q-153 -130 -153 -370q0 -153 80 -241t221 -89q96 0 169 43q125 74 172 254
q19 74 19 150zM621 1081q135 0 238 -58t149 -159l45 201h202l-141 -803l-33 -262h-200l18 152q-133 -168 -361 -168t-344 133t-117 369t142 416q144 179 402 179z" />
    <glyph glyph-name="adieresis" unicode="&#xe4;" horiz-adv-x="1304" 
d="M973 1432q53 0 83 -28t27 -75q-4 -106 -114 -106q-53 -1 -82 27t-27 77t31 77t82 28zM524 1223q-53 -1 -82 27q-28 28 -26 77q5 105 113 105q54 0 84 -28t28 -75q-4 -106 -117 -106zM954 594q0 150 -79 238t-211 88t-218 -73q-153 -130 -153 -370q0 -153 80 -241t221 -89
q96 0 169 43q125 74 172 254q19 74 19 150zM621 1081q135 0 238 -58t149 -159l45 201h202l-141 -803l-33 -262h-200l18 152q-133 -168 -361 -168t-344 133t-117 369t142 416q144 179 402 179z" />
    <glyph glyph-name="aring" unicode="&#xe5;" horiz-adv-x="1306" 
d="M782 1505q-46 -1 -76 -31t-34 -88t26 -86q30 -26 76 -26q45 0 79 31t37 90t-30 85t-78 25zM785 1591q93 0 155 -49t59 -147q-2 -99 -65 -153q-64 -54 -158 -54t-155 50t-57 148t66 152t155 53zM954 594q0 150 -79 238t-211 88t-218 -73q-153 -130 -153 -370
q0 -153 80 -241t221 -89q96 0 169 43q125 74 172 254q19 74 19 150zM621 1081q135 0 238 -58t149 -159l45 201h202l-141 -803l-33 -262h-200l18 152q-133 -168 -361 -168t-344 133t-117 369t142 416q144 179 402 179z" />
    <glyph glyph-name="ae" unicode="&#xe6;" horiz-adv-x="1871" 
d="M1204 580q385 0 387 190q4 148 -207 148q-148 0 -254 -92t-143 -230q98 -16 217 -16zM463 137q219 0 303 178q-14 59 -14 144v33q-106 8 -179 8q-330 0 -329 -199q0 -164 219 -164zM971 461q4 -320 353 -320q173 0 329 84l43 -145q-162 -96 -426 -96q-319 0 -449 200
q-133 -201 -422 -200q-176 0 -274 76t-98 229q0 348 536 348q76 0 211 -8q29 94 80 176q-28 113 -228 113t-403 -56l-2 160q215 59 465 59t336 -108q162 108 360 108q198 -1 312 -73q113 -72 110 -230q-2 -338 -575 -338q-145 0 -258 21z" />
    <glyph glyph-name="ccedilla" unicode="&#xe7;" horiz-adv-x="1116" 
d="M676 -254q0 -80 -70 -120t-173 -40t-171 29l23 90q57 -27 151 -27t94 68t-120 51l-27 41l78 160q-174 35 -281 155q-106 120 -106 328q0 270 174 435t444 165q197 0 365 -92l-76 -149q-143 74 -291 73q-184 0 -291 -114q-106 -115 -106 -293t96 -266q97 -88 249 -88
t282 67l41 -156q-172 -80 -353 -79l-35 2l-49 -99q55 0 104 -30q48 -31 48 -111z" />
    <glyph glyph-name="egrave" unicode="&#xe8;" horiz-adv-x="1191" 
d="M575 1497h195l88 -303h-151zM524 580q385 0 387 190q4 148 -206 148q-147 0 -253 -92t-145 -230q98 -16 217 -16zM291 461q4 -320 353 -320q173 0 329 84l43 -145q-162 -96 -415 -96t-392 122t-137 366q2 243 179 426t470 183q180 -1 293 -73t110 -230q-2 -338 -575 -338
q-145 0 -258 21z" />
    <glyph glyph-name="eacute" unicode="&#xe9;" horiz-adv-x="1191" 
d="M991 1497l-246 -303h-161l207 303h200zM524 580q385 0 387 190q4 148 -206 148q-147 0 -253 -92t-145 -230q98 -16 217 -16zM291 461q4 -320 353 -320q173 0 329 84l43 -145q-162 -96 -415 -96t-392 122t-137 366q2 243 179 426t470 183q180 -1 293 -73t110 -230
q-2 -338 -575 -338q-145 0 -258 21z" />
    <glyph glyph-name="ecircumflex" unicode="&#xea;" horiz-adv-x="1191" 
d="M350 1194l281 305h194l174 -305h-163l-117 217l-195 -217h-174zM524 580q385 0 387 190q4 148 -206 148q-147 0 -253 -92t-145 -230q98 -16 217 -16zM291 461q4 -320 353 -320q173 0 329 84l43 -145q-162 -96 -415 -96t-392 122t-137 366q2 243 179 426t470 183
q180 -1 293 -73t110 -230q-2 -338 -575 -338q-145 0 -258 21z" />
    <glyph glyph-name="edieresis" unicode="&#xeb;" horiz-adv-x="1191" 
d="M932 1432q53 0 83 -28t27 -75q-4 -106 -114 -106q-53 -1 -82 27t-27 77t31 77t82 28zM483 1223q-53 -1 -82 27t-27 77t32 77q28 28 82 28t84 -28t28 -75q-4 -106 -117 -106zM524 580q385 0 387 190q4 148 -206 148q-147 0 -253 -92t-145 -230q98 -16 217 -16zM291 461
q4 -320 353 -320q173 0 329 84l43 -145q-162 -96 -415 -96t-392 122t-137 366q2 243 179 426t470 183q180 -1 293 -73t110 -230q-2 -338 -575 -338q-145 0 -258 21z" />
    <glyph glyph-name="igrave" unicode="&#xec;" horiz-adv-x="542" 
d="M186 1485h195l88 -303h-152zM479 1065l-188 -1065h-215l162 913h-132l29 152h344z" />
    <glyph glyph-name="iacute" unicode="&#xed;" horiz-adv-x="542" 
d="M668 1497l-246 -303h-162l207 303h201zM479 1065l-188 -1065h-215l162 913h-132l29 152h344z" />
    <glyph glyph-name="icircumflex" unicode="&#xee;" horiz-adv-x="542" 
d="M29 1182l280 305h195l174 -305h-164l-117 217l-194 -217h-174zM479 1065l-188 -1065h-215l162 913h-132l29 152h344z" />
    <glyph glyph-name="idieresis" unicode="&#xef;" horiz-adv-x="542" 
d="M584 1419q53 1 83 -27t27 -75q-4 -106 -114 -107q-53 0 -82 28t-27 77t31 77t82 27zM140 1419q54 1 84 -27t28 -75q-4 -106 -117 -107q-53 0 -82 28t-26 79q4 102 113 102zM479 1065l-188 -1065h-215l162 913h-132l29 152h344z" />
    <glyph glyph-name="eth" unicode="&#xf0;" horiz-adv-x="1181" 
d="M254 461q0 -314 290 -314q150 0 240 109t90 258q0 315 -296 315q-152 1 -238 -109t-86 -259zM35 451q0 227 138 385t386 158t367 -173q-6 53 -23 119q-29 180 -137 346l-197 -121l-37 68l189 117q-61 82 -164 178l145 90q94 -78 175 -172l196 121l37 -70l-184 -115
q203 -283 202 -655q0 -330 -156 -537t-437 -206q-240 0 -370 120t-130 347z" />
    <glyph glyph-name="ntilde" unicode="&#xf1;" horiz-adv-x="1228" 
d="M854 1225q-51 0 -132 45t-120 45q-68 0 -115 -76l-67 33q82 174 223 174q53 0 135 -45q74 -45 110 -45t60 14t34 26t28 38l69 -35q-88 -174 -225 -174zM780 1081q176 0 259 -91t83 -240q0 -59 -12 -121l-111 -629h-215l111 627q8 53 8 80q0 94 -50 152q-50 59 -176 59
t-215 -100t-118 -261l-98 -557h-215l137 782l33 283h194l-18 -172q145 188 403 188z" />
    <glyph glyph-name="ograve" unicode="&#xf2;" horiz-adv-x="1284" 
d="M551 1485h194l89 -303h-152zM670 913q-172 0 -268 -130t-97 -297q-2 -166 80 -250t217 -84q174 0 268 129t98 297t-79 252q-82 84 -219 83zM688 1081q222 0 362 -130t138 -363q-4 -266 -163 -435t-437 -169q-227 0 -366 129q-138 129 -135 379t163 419q160 170 438 170z
" />
    <glyph glyph-name="oacute" unicode="&#xf3;" horiz-adv-x="1284" 
d="M1006 1497l-246 -303h-162l207 303h201zM670 913q-172 0 -268 -130t-97 -297q-2 -166 80 -250t217 -84q174 0 268 129t98 297t-79 252q-82 84 -219 83zM688 1081q222 0 362 -130t138 -363q-4 -266 -163 -435t-437 -169q-227 0 -366 129q-138 129 -135 379t163 419
q160 170 438 170z" />
    <glyph glyph-name="ocircumflex" unicode="&#xf4;" horiz-adv-x="1284" 
d="M379 1182l280 305h195l174 -305h-164l-116 217l-195 -217h-174zM670 913q-172 0 -268 -130t-97 -297q-2 -166 80 -250t217 -84q174 0 268 129t98 297t-79 252q-82 84 -219 83zM688 1081q222 0 362 -130t138 -363q-4 -266 -163 -435t-437 -169q-227 0 -366 129
q-138 129 -135 379t163 419q160 170 438 170z" />
    <glyph glyph-name="otilde" unicode="&#xf5;" horiz-adv-x="1273" 
d="M836 1212q-51 0 -132 45t-120 46q-68 0 -115 -76l-68 33q82 174 224 174q53 0 135 -45q74 -45 110 -45t60 14t34 25q9 11 27 38l70 -35q-86 -174 -225 -174zM670 913q-172 0 -268 -130t-97 -297q-2 -166 80 -250t217 -84q174 0 268 129t98 297t-79 252q-82 84 -219 83z
M688 1081q222 0 362 -130t138 -363q-4 -266 -163 -435t-437 -169q-227 0 -366 129q-138 129 -135 379t163 419q160 170 438 170z" />
    <glyph glyph-name="odieresis" unicode="&#xf6;" horiz-adv-x="1273" 
d="M942 1419q53 1 83 -27t28 -75q-4 -106 -115 -107q-53 0 -82 28t-27 77t31 77t82 27zM499 1419q54 1 84 -27t27 -75q-4 -106 -116 -107q-53 0 -82 28t-27 77t31 77t83 27zM670 913q-172 0 -268 -130t-97 -297q-2 -166 80 -250t217 -84q174 0 268 129t98 297t-79 252
q-82 84 -219 83zM688 1081q222 0 362 -130t138 -363q-4 -266 -163 -435t-437 -169q-227 0 -366 129q-138 129 -135 379t163 419q160 170 438 170z" />
    <glyph glyph-name="divide" unicode="&#xf7;" horiz-adv-x="1177" 
d="M673 1141q50 0 81 -27q30 -27 26 -76t-32 -80q-28 -30 -78 -30q-49 0 -80 26t-28 74q3 49 32 81t79 32zM546 422q50 0 81 -28t27 -76t-34 -78q-28 -30 -77 -29q-49 0 -80 26q-31 25 -28 73t32 80t79 32zM1079 741l-24 -139h-926l25 139h925z" />
    <glyph glyph-name="oslash" unicode="&#xf8;" horiz-adv-x="1273" 
d="M670 913q-172 0 -268 -130t-97 -308q-2 -129 55 -211l494 594q-73 55 -184 55zM602 152q174 0 268 129t99 309q2 127 -60 213l-493 -596q74 -55 186 -55zM688 1081q164 0 289 -73l104 125h101l-142 -172q150 -133 147 -386t-162 -422t-437 -169q-176 0 -295 75l-105 -127
h-102l143 174q-145 133 -142 384t163 421t438 170z" />
    <glyph glyph-name="ugrave" unicode="&#xf9;" horiz-adv-x="1253" 
d="M514 1497h195l88 -303h-152zM432 -16q-176 0 -259 91t-83 240q0 59 12 121l111 629h215l-109 -627q-8 -53 -8 -82q0 -92 49 -150t176 -58q128 0 216 100t116 260l99 557h215l-138 -782l-30 -283h-195l17 166q-146 -182 -404 -182z" />
    <glyph glyph-name="uacute" unicode="&#xfa;" horiz-adv-x="1255" 
d="M1016 1497l-246 -303h-162l207 303h201zM432 -16q-176 0 -259 91t-83 240q0 59 12 121l111 629h215l-109 -627q-8 -53 -8 -82q0 -92 49 -150t176 -58q128 0 216 100t116 260l99 557h215l-138 -782l-30 -283h-195l17 166q-146 -182 -404 -182z" />
    <glyph glyph-name="ucircumflex" unicode="&#xfb;" horiz-adv-x="1255" 
d="M391 1194l281 305h194l174 -305h-163l-117 217l-195 -217h-174zM432 -16q-176 0 -259 91t-83 240q0 59 12 121l111 629h215l-109 -627q-8 -53 -8 -82q0 -92 49 -150t176 -58q128 0 216 100t116 260l99 557h215l-138 -782l-30 -283h-195l17 166q-146 -182 -404 -182z" />
    <glyph glyph-name="udieresis" unicode="&#xfc;" horiz-adv-x="1255" 
d="M944 1223q-53 -1 -82 27q-28 28 -26 77q5 105 112 105q53 0 83 -28t28 -75q-4 -106 -115 -106zM505 1432q54 0 84 -28t27 -75q-4 -106 -116 -106q-53 -1 -82 27t-27 77t31 77t83 28zM432 -16q-176 0 -259 91t-83 240q0 59 12 121l111 629h215l-109 -627q-8 -53 -8 -82
q0 -92 49 -150t176 -58q128 0 216 100t116 260l99 557h215l-138 -782l-30 -283h-195l17 166q-146 -182 -404 -182z" />
    <glyph glyph-name="yacute" unicode="&#xfd;" horiz-adv-x="1167" 
d="M942 1497l-246 -303h-161l206 303h201zM182 -358q-116 0 -241 34l36 160q184 -54 277 5q49 32 90 110l25 47l-250 1067h221l178 -862l436 862h236l-619 -1145q-90 -164 -182 -221q-91 -57 -207 -57z" />
    <glyph glyph-name="thorn" unicode="&#xfe;" horiz-adv-x="1308" 
d="M700 913q-256 0 -340 -295q-20 -74 -20 -147q0 -150 80 -237t211 -87t217 73q153 130 151 368q0 152 -79 238t-220 87zM771 1081q214 0 331 -131t117 -356q0 -351 -241 -521q-126 -89 -284 -90q-302 -2 -407 201l-94 -532h-216l314 1782h215l-86 -490q137 137 351 137z
" />
    <glyph glyph-name="ydieresis" unicode="&#xff;" horiz-adv-x="1167" 
d="M881 1401q53 0 83 -28t27 -75q-4 -106 -114 -106q-53 0 -82 28t-27 76t31 77q29 28 82 28zM432 1192q-53 0 -82 28q-28 28 -26 76q5 105 113 105q54 0 84 -28t28 -75q-4 -106 -117 -106zM182 -358q-116 0 -241 34l36 160q184 -54 277 5q49 32 90 110l25 47l-250 1067h221
l178 -862l436 862h236l-619 -1145q-90 -164 -182 -221q-91 -57 -207 -57z" />
    <glyph glyph-name="Amacron" unicode="&#x100;" horiz-adv-x="1466" 
d="M1221 1729l-21 -125h-625l23 125h623zM862 1241h-2l-395 -711h543zM1038 1438l305 -1438h-231l-72 354h-667l-191 -354h-243l794 1438h305z" />
    <glyph glyph-name="amacron" unicode="&#x101;" horiz-adv-x="1304" 
d="M1079 1391l-20 -125h-625l23 125h622zM954 594q0 150 -79 238t-211 88t-218 -73q-153 -130 -153 -370q0 -153 80 -241t221 -89q96 0 169 43q125 74 172 254q19 74 19 150zM621 1081q135 0 238 -58t149 -159l45 201h202l-141 -803l-33 -262h-200l18 152
q-133 -168 -361 -168t-344 133t-117 369t142 416q144 179 402 179z" />
    <glyph glyph-name="Abreve" unicode="&#x102;" horiz-adv-x="1468" 
d="M936 1657q125 0 172 123l121 -8q-33 -119 -108 -171t-197 -53q-240 0 -242 224l125 8q4 -123 129 -123zM862 1241h-2l-395 -711h543zM1038 1438l305 -1438h-231l-72 354h-667l-191 -354h-243l794 1438h305z" />
    <glyph glyph-name="abreve" unicode="&#x103;" horiz-adv-x="1306" 
d="M745 1319q136 0 181 145l127 -12q-35 -125 -111 -183t-207 -59q-248 0 -254 242l127 12q6 -145 137 -145zM954 594q0 150 -79 238t-211 88t-218 -73q-153 -130 -153 -370q0 -153 80 -241t221 -89q96 0 169 43q125 74 172 254q19 74 19 150zM621 1081q135 0 238 -58
t149 -159l45 201h202l-141 -803l-33 -262h-200l18 152q-133 -168 -361 -168t-344 133t-117 369t142 416q144 179 402 179z" />
    <glyph glyph-name="Aogonek" unicode="&#x104;" horiz-adv-x="1468" 
d="M862 1241h-2l-395 -711h543zM1204 -174q0 -72 70 -72q45 0 78 13l-4 -111q-57 -23 -125 -23q-154 0 -154 146q0 125 135 221h-92l-72 354h-667l-191 -354h-243l794 1438h305l305 -1438h-6q-133 -74 -133 -174z" />
    <glyph glyph-name="aogonek" unicode="&#x105;" horiz-adv-x="1306" 
d="M954 594q0 150 -79 238t-211 88t-218 -73q-153 -130 -153 -370q0 -153 80 -241t221 -89q96 0 169 43q125 74 172 254q19 74 19 150zM621 1081q135 0 238 -58t149 -159l45 201h202l-141 -803l-33 -262q-133 -74 -133 -174q0 -72 70 -72q43 0 78 13l-4 -111
q-55 -23 -125 -23q-154 0 -154 146q0 125 135 221h-67l18 152q-133 -168 -361 -168t-344 133t-117 369t142 416q144 179 402 179z" />
    <glyph glyph-name="Cacute" unicode="&#x106;" horiz-adv-x="1402" 
d="M1147 1765l-209 -233h-160l172 233h197zM952 1456q266 0 475 -137l-79 -160q-180 115 -390 115q-284 0 -442 -174t-158 -422t136 -383t360 -135q180 0 381 90l45 -164q-211 -109 -459 -109q-307 -1 -506 175t-199 518t240 564t596 222z" />
    <glyph glyph-name="cacute" unicode="&#x107;" horiz-adv-x="1116" 
d="M963 1497l-246 -303h-162l207 303h201zM692 1081q197 0 365 -92l-76 -149q-143 74 -291 73q-184 0 -291 -114q-106 -115 -106 -293t96 -266q97 -88 249 -88t282 67l41 -156q-172 -79 -373 -79t-350 112q-76 56 -120 156t-44 229q0 270 174 435t444 165z" />
    <glyph glyph-name="Ccircumflex" unicode="&#x108;" horiz-adv-x="1400" 
d="M631 1532l274 233h193l182 -233h-164l-121 154l-186 -154h-178zM952 1456q266 0 475 -137l-79 -160q-180 115 -390 115q-284 0 -442 -174t-158 -422t136 -383t360 -135q180 0 381 90l45 -164q-211 -109 -459 -109q-307 -1 -506 175t-199 518t240 564t596 222z" />
    <glyph glyph-name="ccircumflex" unicode="&#x109;" horiz-adv-x="1116" 
d="M360 1194l281 305h195l174 -305h-164l-117 217l-194 -217h-175zM692 1081q197 0 365 -92l-76 -149q-143 74 -291 73q-184 0 -291 -114q-106 -115 -106 -293t96 -266q97 -88 249 -88t282 67l41 -156q-172 -79 -373 -79t-350 112q-76 56 -120 156t-44 229q0 270 174 435
t444 165z" />
    <glyph glyph-name="Cdotaccent" unicode="&#x10a;" horiz-adv-x="1402" 
d="M989 1761q55 -1 84 -27t27 -73q-4 -100 -111 -100q-51 1 -79 27t-25 73q4 100 104 100zM952 1456q266 0 475 -137l-79 -160q-180 115 -390 115q-284 0 -442 -174t-158 -422t136 -383t360 -135q180 0 381 90l45 -164q-211 -109 -459 -109q-307 -1 -506 175t-199 518
t240 564t596 222z" />
    <glyph glyph-name="cdotaccent" unicode="&#x10b;" horiz-adv-x="1116" 
d="M684 1432q61 0 92 -27t29 -76q-6 -106 -125 -106t-113 106q4 103 117 103zM692 1081q197 0 365 -92l-76 -149q-143 74 -291 73q-184 0 -291 -114q-106 -115 -106 -293t96 -266q97 -88 249 -88t282 67l41 -156q-172 -79 -373 -79t-350 112q-76 56 -120 156t-44 229
q0 270 174 435t444 165z" />
    <glyph glyph-name="Ccaron" unicode="&#x10c;" horiz-adv-x="1400" 
d="M1335 1765l-274 -233h-193l-182 233h164l121 -153l186 153h178zM952 1456q266 0 475 -137l-79 -160q-180 115 -390 115q-284 0 -442 -174t-158 -422t136 -383t360 -135q180 0 381 90l45 -164q-211 -109 -459 -109q-307 -1 -506 175t-199 518t240 564t596 222z" />
    <glyph glyph-name="ccaron" unicode="&#x10d;" horiz-adv-x="1116" 
d="M1059 1499l-281 -305h-194l-174 305h163l113 -217l199 217h174zM692 1081q197 0 365 -92l-76 -149q-143 74 -291 73q-184 0 -291 -114q-106 -115 -106 -293t96 -266q97 -88 249 -88t282 67l41 -156q-172 -79 -373 -79t-350 112q-76 56 -120 156t-44 229q0 270 174 435
t444 165z" />
    <glyph glyph-name="Dcaron" unicode="&#x10e;" horiz-adv-x="1550" 
d="M1200 1765l-274 -233h-193l-182 233h164l121 -153l186 153h178zM774 1251h-248l-190 -1069h328q254 0 412 167t157 433q0 225 -120 347t-339 122zM743 1434q336 0 533 -163t197 -498q1 -335 -221 -554t-603 -219h-573l254 1434h413z" />
    <glyph glyph-name="dcaron" unicode="&#x10f;" horiz-adv-x="1306" 
d="M1448 1499h147q-27 -145 -102 -295h-107q58 275 62 295zM657 915q-209 0 -308 -202q-52 -106 -52 -247q0 -140 80 -228t213 -88t218 74q152 133 150 370q0 150 -79 236t-222 85zM530 -16q-218 0 -334 131t-117 369t141 418q142 179 403 181q135 0 237 -57t146 -156
l112 629h215l-217 -1237l-33 -262h-186l21 168q-137 -184 -388 -184z" />
    <glyph glyph-name="Dcroat" unicode="&#x110;" horiz-adv-x="1550" 
d="M774 1251h-248l-86 -479h293l-20 -139h-297l-80 -451h328q254 0 412 167t157 433q0 225 -120 347t-339 122zM743 1434q336 0 533 -163t197 -498q1 -335 -221 -554t-603 -219h-573l110 633h-163l20 139h168l119 662h413z" />
    <glyph glyph-name="dcroat" unicode="&#x111;" horiz-adv-x="1306" 
d="M657 915q-209 0 -308 -202q-52 -106 -52 -247q0 -140 80 -228t213 -88t218 74q152 133 150 370q0 150 -79 236t-222 85zM530 -16q-218 0 -334 131t-117 369t141 418q142 179 403 181q135 0 237 -57t146 -156l65 363h-305l14 76h303l35 190h215l-35 -190h138l-13 -76h-137
l-170 -971l-33 -262h-186l21 168q-137 -184 -388 -184z" />
    <glyph glyph-name="Emacron" unicode="&#x112;" horiz-adv-x="1327" 
d="M1194 1729l-20 -125h-625l22 125h623zM1354 1434l-31 -177h-797l-84 -469h688l-32 -176h-686l-76 -436h815l-31 -176h-1044l252 1434h1026z" />
    <glyph glyph-name="emacron" unicode="&#x113;" horiz-adv-x="1191" 
d="M1030 1391l-20 -125h-625l23 125h622zM524 580q385 0 387 190q4 148 -206 148q-147 0 -253 -92t-145 -230q98 -16 217 -16zM291 461q4 -320 353 -320q173 0 329 84l43 -145q-162 -96 -415 -96t-392 122t-137 366q2 243 179 426t470 183q180 -1 293 -73t110 -230
q-2 -338 -575 -338q-145 0 -258 21z" />
    <glyph glyph-name="Ebreve" unicode="&#x114;" horiz-adv-x="1327" 
d="M873 1657q126 0 171 123l121 -8q-33 -119 -107 -171t-198 -53q-240 0 -242 224l125 8q4 -123 130 -123zM1354 1434l-31 -177h-797l-84 -469h688l-32 -176h-686l-76 -436h815l-31 -176h-1044l252 1434h1026z" />
    <glyph glyph-name="ebreve" unicode="&#x115;" horiz-adv-x="1191" 
d="M696 1319q136 0 181 145l127 -12q-35 -125 -111 -183t-207 -59q-248 0 -254 242l127 12q6 -145 137 -145zM524 580q385 0 387 190q4 148 -206 148q-147 0 -253 -92t-145 -230q98 -16 217 -16zM291 461q4 -320 353 -320q173 0 329 84l43 -145q-162 -96 -415 -96t-392 122
t-137 366q2 243 179 426t470 183q180 -1 293 -73t110 -230q-2 -338 -575 -338q-145 0 -258 21z" />
    <glyph glyph-name="Edotaccent" unicode="&#x116;" horiz-adv-x="1327" 
d="M874 1761q55 -1 84 -27t27 -73q-4 -100 -111 -100q-50 1 -78 27t-26 73q4 100 104 100zM1354 1434l-31 -177h-797l-84 -469h688l-32 -176h-686l-76 -436h815l-31 -176h-1044l252 1434h1026z" />
    <glyph glyph-name="edotaccent" unicode="&#x117;" horiz-adv-x="1191" 
d="M727 1432q61 0 92 -27t29 -76q-6 -106 -125 -106t-113 106q4 103 117 103zM524 580q385 0 387 190q4 148 -206 148q-147 0 -253 -92t-145 -230q98 -16 217 -16zM291 461q4 -320 353 -320q173 0 329 84l43 -145q-162 -96 -415 -96t-392 122t-137 366q2 243 179 426
t470 183q180 -1 293 -73t110 -230q-2 -338 -575 -338q-145 0 -258 21z" />
    <glyph glyph-name="Eogonek" unicode="&#x118;" horiz-adv-x="1327" 
d="M918 -174q0 -72 69 -72q45 0 78 13l-4 -111q-55 -23 -125 -23q-154 0 -154 146q0 125 136 221h-842l252 1434h1026l-31 -177h-797l-84 -469h688l-32 -176h-686l-76 -436h815l-31 -176h-69q-133 -74 -133 -174z" />
    <glyph glyph-name="eogonek" unicode="&#x119;" horiz-adv-x="1191" 
d="M524 580q385 0 387 190q4 148 -206 148q-147 0 -253 -92t-145 -230q98 -16 217 -16zM291 461q4 -320 353 -320q173 0 329 84l43 -145q-66 -39 -176 -68q-137 -61 -138 -186q0 -72 70 -72q43 0 78 13l-4 -111q-55 -23 -125 -23q-154 0 -154 146q0 123 109 209
q-61 -4 -86 -4q-242 0 -381 122t-137 366q2 243 179 426t470 183q180 -1 293 -73t110 -230q-2 -338 -575 -338q-145 0 -258 21z" />
    <glyph glyph-name="Ecaron" unicode="&#x11a;" horiz-adv-x="1325" 
d="M1237 1765l-274 -233h-193l-182 233h164l120 -153l187 153h178zM1354 1434l-31 -177h-797l-84 -469h688l-32 -176h-686l-76 -436h815l-31 -176h-1044l252 1434h1026z" />
    <glyph glyph-name="ecaron" unicode="&#x11b;" horiz-adv-x="1191" 
d="M1053 1499l-281 -305h-194l-175 305h164l113 -217l199 217h174zM524 580q385 0 387 190q4 148 -206 148q-147 0 -253 -92t-145 -230q98 -16 217 -16zM291 461q4 -320 353 -320q173 0 329 84l43 -145q-162 -96 -415 -96t-392 122t-137 366q2 243 179 426t470 183
q180 -1 293 -73t110 -230q-2 -338 -575 -338q-145 0 -258 21z" />
    <glyph glyph-name="Gcircumflex" unicode="&#x11c;" horiz-adv-x="1562" 
d="M649 1532l275 233h192l182 -233h-163l-121 154l-187 -154h-178zM961 1456q293 0 518 -127l-93 -162q-199 106 -419 107q-299 0 -453 -171t-156 -448q-2 -221 128 -357t374 -136q182 0 342 88l53 317h-372l26 166h557l-100 -588q-256 -168 -562 -168q-306 1 -496 175
q-191 174 -189 493q0 365 234 588q235 223 608 223z" />
    <glyph glyph-name="gcircumflex" unicode="&#x11d;" horiz-adv-x="1286" 
d="M420 1194l280 305h195l174 -305h-164l-117 217l-194 -217h-174zM640 918q-152 0 -243 -112q-90 -112 -94 -271t71 -247q76 -88 232 -89t244 113t92 276t-73 246t-229 84zM616 1081q142 0 242 -58t143 -151l43 193h197l-170 -965q-39 -229 -178 -341q-139 -111 -407 -111
t-472 127l64 155q74 -49 184 -82t225 -32q315 0 365 276l10 66q-121 -119 -332 -119q-212 0 -332 122q-120 123 -115 369t151 398t382 153z" />
    <glyph glyph-name="Gbreve" unicode="&#x11e;" horiz-adv-x="1562" 
d="M1009 1657q126 0 171 123l120 -8q-34 -119 -108 -171t-197 -53q-240 0 -241 224l125 8q4 -123 130 -123zM961 1456q293 0 518 -127l-93 -162q-199 106 -419 107q-299 0 -453 -171t-156 -448q-2 -221 128 -357t374 -136q182 0 342 88l53 317h-372l26 166h557l-100 -588
q-256 -168 -562 -168q-306 1 -496 175q-191 174 -189 493q0 365 234 588q235 223 608 223z" />
    <glyph glyph-name="gbreve" unicode="&#x11f;" horiz-adv-x="1286" 
d="M725 1319q133 0 178 145l127 -12q-34 -125 -110 -183t-207 -59q-248 0 -254 242l127 12q6 -145 139 -145zM640 918q-152 0 -243 -112q-90 -112 -94 -271t71 -247q76 -88 232 -89t244 113t92 276t-73 246t-229 84zM616 1081q142 0 242 -58t143 -151l43 193h197l-170 -965
q-39 -229 -178 -341q-139 -111 -407 -111t-472 127l64 155q74 -49 184 -82t225 -32q315 0 365 276l10 66q-121 -119 -332 -119q-212 0 -332 122q-120 123 -115 369t151 398t382 153z" />
    <glyph glyph-name="Gdotaccent" unicode="&#x120;" horiz-adv-x="1562" 
d="M983 1761q55 -1 84 -27t27 -73q-4 -100 -111 -100q-51 1 -79 27t-25 73q4 100 104 100zM961 1456q293 0 518 -127l-93 -162q-199 106 -419 107q-299 0 -453 -171t-156 -448q-2 -221 128 -357t374 -136q182 0 342 88l53 317h-372l26 166h557l-100 -588
q-256 -168 -562 -168q-306 1 -496 175q-191 174 -189 493q0 365 234 588q235 223 608 223z" />
    <glyph glyph-name="gdotaccent" unicode="&#x121;" horiz-adv-x="1284" 
d="M758 1432q61 0 92 -27t29 -76q-6 -106 -125 -106t-113 106q4 103 117 103zM640 918q-152 0 -243 -112q-90 -112 -94 -271t71 -247q76 -88 232 -89t244 113t92 276t-73 246t-229 84zM616 1081q142 0 242 -58t143 -151l43 193h197l-170 -965q-39 -229 -178 -341
q-139 -111 -407 -111t-472 127l64 155q74 -49 184 -82t225 -32q315 0 365 276l10 66q-121 -119 -332 -119q-212 0 -332 122q-120 123 -115 369t151 398t382 153z" />
    <glyph glyph-name="Gcommaaccent" unicode="&#x122;" horiz-adv-x="1562" 
d="M702 -92h154q-16 -88 -32 -124q-17 -36 -43 -85t-31 -59h-132q2 8 34 83q33 74 50 185zM961 1456q293 0 518 -127l-93 -162q-199 106 -419 107q-299 0 -453 -171t-156 -448q-2 -221 128 -357t374 -136q182 0 342 88l53 317h-372l26 166h557l-100 -588
q-256 -168 -562 -168q-306 1 -496 175q-191 174 -189 493q0 365 234 588q235 223 608 223z" />
    <glyph glyph-name="gcommaaccent" unicode="&#x123;" horiz-adv-x="1284" 
d="M1751 1196q23 127 107 268h131q-2 -8 -34 -81t-50 -187h-154zM640 918q-152 0 -243 -112q-90 -112 -94 -271t71 -247q76 -88 232 -89t244 113t92 276t-73 246t-229 84zM616 1081q142 0 242 -58t143 -151l43 193h197l-170 -965q-39 -229 -178 -341q-139 -111 -407 -111
t-472 127l64 155q74 -49 184 -82t225 -32q315 0 365 276l10 66q-121 -119 -332 -119q-212 0 -332 122q-120 123 -115 369t151 398t382 153z" />
    <glyph glyph-name="Hcircumflex" unicode="&#x124;" horiz-adv-x="1572" 
d="M612 1532l275 233h192l183 -233h-164l-121 154l-186 -154h-179zM301 0h-227l252 1434h227l-113 -635h754l113 635h227l-252 -1434h-229l110 623h-753z" />
    <glyph glyph-name="hcircumflex" unicode="&#x125;" horiz-adv-x="1236" 
d="M84 1559l274 233h193l182 -233h-164l-120 153l-187 -153h-178zM1126 729q0 -55 -10 -121l-108 -608h-213l104 606q10 55 10 88q0 223 -219 224q-135 0 -221 -94t-117 -265l-98 -559h-215l264 1499h215l-102 -577q127 160 360 159q186 0 268 -98t82 -254z" />
    <glyph glyph-name="Hbar" unicode="&#x126;" horiz-adv-x="1566" 
d="M492 1085l-52 -286h754l51 286h-753zM1307 1434h227l-43 -246h104l-18 -103h-104l-191 -1085h-229l110 623h-753l-109 -623h-227l190 1085h-119l19 103h119l43 246h227l-43 -246h754z" />
    <glyph glyph-name="hbar" unicode="&#x127;" horiz-adv-x="1236" 
d="M1126 729q0 -55 -10 -121l-108 -608h-213l104 606q10 55 10 88q0 223 -219 224q-135 0 -221 -94t-117 -265l-98 -559h-215l217 1233h-152l15 76h149l35 190h215l-35 -190h279l-12 -76h-279l-55 -311q127 160 360 159q186 0 268 -98t82 -254z" />
    <glyph glyph-name="Itilde" unicode="&#x128;" horiz-adv-x="595" 
d="M594 1563q-51 0 -132 45t-120 45q-68 0 -115 -76l-67 33q82 174 223 174q53 0 135 -45q74 -45 110 -45t60 14t34 26t28 38l69 -35q-86 -174 -225 -174zM557 1434l-256 -1434h-227l256 1434h227z" />
    <glyph glyph-name="itilde" unicode="&#x129;" horiz-adv-x="542" 
d="M483 1212q-51 0 -132 45t-120 46q-68 0 -114 -76l-68 33q82 174 223 174q53 0 136 -45q74 -45 110 -45t60 14q25 14 34 25t27 38l70 -35q-86 -174 -226 -174zM479 1065l-188 -1065h-215l162 913h-132l29 152h344z" />
    <glyph glyph-name="Imacron" unicode="&#x12a;" horiz-adv-x="595" 
d="M797 1729l-21 -125h-624l22 125h623zM557 1434l-256 -1434h-227l256 1434h227z" />
    <glyph glyph-name="imacron" unicode="&#x12b;" horiz-adv-x="542" 
d="M686 1378l-20 -125h-625l22 125h623zM479 1065l-188 -1065h-215l162 913h-132l29 152h344z" />
    <glyph glyph-name="Ibreve" unicode="&#x12c;" horiz-adv-x="595" 
d="M476 1657q126 0 171 123l121 -8q-33 -119 -108 -171t-197 -53q-240 0 -242 224l125 8q4 -123 130 -123zM557 1434l-256 -1434h-227l256 1434h227z" />
    <glyph glyph-name="ibreve" unicode="&#x12d;" horiz-adv-x="542" 
d="M365 1198q-248 0 -254 242l127 12q6 -145 139 -145t178 145l127 -12q-35 -126 -111 -184t-206 -58zM479 1065l-188 -1065h-215l162 913h-132l29 152h344z" />
    <glyph glyph-name="Iogonek" unicode="&#x12e;" horiz-adv-x="595" 
d="M168 -174q0 -72 70 -72q45 0 77 13l-4 -111q-55 -23 -125 -23q-154 0 -153 146q0 125 135 221h-94l256 1434h227l-256 -1434q-133 -74 -133 -174z" />
    <glyph glyph-name="iogonek" unicode="&#x12f;" horiz-adv-x="542" 
d="M385 1448q63 0 94 -27t27 -75q-4 -106 -125 -106t-115 101q6 107 119 107zM135 -174q0 -72 70 -72q43 0 78 13l-4 -111q-55 -23 -125 -23q-154 0 -154 146q0 125 135 221h-59l162 913h-132l29 152h344l-188 -1065h-23q-133 -74 -133 -174z" />
    <glyph glyph-name="Idotaccent" unicode="&#x130;" horiz-adv-x="595" 
d="M477 1761q55 -1 84 -27t27 -73q-4 -100 -111 -100q-51 1 -79 27t-25 73q4 100 104 100zM557 1434l-256 -1434h-227l256 1434h227z" />
    <glyph glyph-name="dotlessi" unicode="&#x131;" horiz-adv-x="542" 
d="M479 1065l-188 -1065h-215l162 913h-132l29 152h344z" />
    <glyph glyph-name="Jcircumflex" unicode="&#x134;" horiz-adv-x="1142" 
d="M655 1532l275 233h192l183 -233h-164l-121 154l-186 -154h-179zM424 -23q-319 0 -426 265l145 110q90 -193 275 -192q236 0 289 297l174 977h227l-174 -983q-41 -231 -169 -353t-341 -121z" />
    <glyph glyph-name="jcircumflex" unicode="&#x135;" horiz-adv-x="563" 
d="M35 1163l280 305h195l174 -305h-164l-117 217l-194 -217h-174zM-2 -362h-121l31 176h57q67 0 91 24t34 94l174 981h-141l27 152h356l-205 -1159q-25 -154 -97 -211t-206 -57z" />
    <glyph glyph-name="Kcommaaccent" unicode="&#x136;" horiz-adv-x="1427" 
d="M582 -92h153q-16 -88 -32 -124q-17 -36 -43 -85t-31 -59h-131q5 19 36 88t48 180zM1497 1434l-602 -553l381 -881h-268l-301 709l-332 -306l-72 -403h-227l252 1434h227l-131 -744l803 744h270z" />
    <glyph glyph-name="kcommaaccent" unicode="&#x137;" horiz-adv-x="1124" 
d="M582 -92q-23 -127 -107 -268h-131q5 19 27 69q40 88 57 199h154zM520 1499l-168 -938l574 504h245l-460 -403l286 -662h-225l-223 520l-240 -211l-53 -309h-215l264 1499h215z" />
    <glyph glyph-name="kgreenlandic" unicode="&#x138;" horiz-adv-x="1124" 
d="M1171 1065l-460 -403l286 -662h-229l-221 516l-236 -207l-57 -309h-213l188 1065h215l-92 -504l574 504h245z" />
    <glyph glyph-name="Lacute" unicode="&#x139;" horiz-adv-x="1171" 
d="M729 1765l-209 -233h-160l172 233h197zM555 1434l-221 -1254h733l-35 -180h-958l254 1434h227z" />
    <glyph glyph-name="lacute" unicode="&#x13a;" horiz-adv-x="569" 
d="M694 1792l-209 -233h-159l172 233h196zM244 -16q-104 0 -150 52q-45 52 -22 179l227 1284h215l-225 -1268q-14 -82 69 -81q59 0 88 6l-20 -158q-78 -14 -182 -14z" />
    <glyph glyph-name="Lcommaaccent" unicode="&#x13b;" horiz-adv-x="1171" 
d="M489 -92h154q-16 -88 -32 -124q-17 -36 -43 -85t-31 -59h-131q2 8 34 83q32 74 49 185zM555 1434l-221 -1254h733l-35 -180h-958l254 1434h227z" />
    <glyph glyph-name="lcommaaccent" unicode="&#x13c;" horiz-adv-x="569" 
d="M283 -92q-23 -127 -107 -268h-131q5 19 27 69q40 88 57 199h154zM244 -16q-104 0 -150 52q-45 52 -22 179l227 1284h215l-225 -1268q-14 -82 69 -81q59 0 88 6l-20 -158q-78 -14 -182 -14z" />
    <glyph glyph-name="Lcaron" unicode="&#x13d;" horiz-adv-x="1171" 
d="M555 1434l-221 -1254h733l-35 -180h-958l254 1434h227zM897 1434h147q-27 -145 -102 -295h-106q57 275 61 295z" />
    <glyph glyph-name="lcaron" unicode="&#x13e;" horiz-adv-x="573" 
d="M244 -16q-104 0 -150 52q-45 52 -22 179l227 1284h215l-225 -1268q-14 -82 69 -81q59 0 88 6l-20 -158q-78 -14 -182 -14zM662 1499h147q-27 -145 -102 -295h-107q58 275 62 295z" />
    <glyph glyph-name="Lslash" unicode="&#x141;" horiz-adv-x="1171" 
d="M555 1434l-115 -648l363 197l-23 -109l-358 -196l-88 -498h733l-35 -180h-958l96 541l-203 -111l19 109l202 110l140 785h227z" />
    <glyph glyph-name="lslash" unicode="&#x142;" horiz-adv-x="630" 
d="M266 -16q-104 0 -149 52t-23 179l58 326l-158 -84l20 121l158 86l150 835h215l-127 -708l268 145l-16 -121l-273 -147l-78 -437q-14 -82 70 -81q61 0 88 6l-20 -158q-79 -14 -183 -14z" />
    <glyph glyph-name="Nacute" unicode="&#x143;" horiz-adv-x="1548" 
d="M1212 1765l-208 -233h-160l172 233h196zM1509 1434l-254 -1434h-237l-522 1083l-195 -1083h-227l254 1434h237l527 -1067l188 1067h229z" />
    <glyph glyph-name="nacute" unicode="&#x144;" horiz-adv-x="1228" 
d="M1018 1497l-246 -303h-162l207 303h201zM780 1081q176 0 259 -91t83 -240q0 -59 -12 -121l-111 -629h-215l111 627q8 53 8 80q0 94 -50 152q-50 59 -176 59t-215 -100t-118 -261l-98 -557h-215l137 782l33 283h194l-18 -172q145 188 403 188z" />
    <glyph glyph-name="Ncommaaccent" unicode="&#x145;" horiz-adv-x="1548" 
d="M748 -92q-23 -127 -107 -268h-131q5 19 27 69q40 88 57 199h154zM1509 1434l-254 -1434h-237l-522 1083l-195 -1083h-227l254 1434h237l527 -1067l188 1067h229z" />
    <glyph glyph-name="ncommaaccent" unicode="&#x146;" horiz-adv-x="1228" 
d="M590 -92q-23 -127 -107 -268h-131q2 8 34 83t50 185h154zM780 1081q176 0 259 -91t83 -240q0 -59 -12 -121l-111 -629h-215l111 627q8 53 8 80q0 94 -50 152q-50 59 -176 59t-215 -100t-118 -261l-98 -557h-215l137 782l33 283h194l-18 -172q145 188 403 188z" />
    <glyph glyph-name="Ncaron" unicode="&#x147;" horiz-adv-x="1548" 
d="M1307 1765l-275 -233h-192l-183 233h164l121 -153l186 153h179zM1509 1434l-254 -1434h-237l-522 1083l-195 -1083h-227l254 1434h237l527 -1067l188 1067h229z" />
    <glyph glyph-name="ncaron" unicode="&#x148;" horiz-adv-x="1228" 
d="M1079 1499l-280 -305h-195l-174 305h164l113 -217l198 217h174zM780 1081q176 0 259 -91t83 -240q0 -59 -12 -121l-111 -629h-215l111 627q8 53 8 80q0 94 -50 152q-50 59 -176 59t-215 -100t-118 -261l-98 -557h-215l137 782l33 283h194l-18 -172q145 188 403 188z" />
    <glyph glyph-name="Eng" unicode="&#x14a;" horiz-adv-x="1548" 
d="M1507 1434l-243 -1387q-36 -200 -171 -291q-113 -74 -272 -102l-22 153q190 49 221 168l6 25l-532 1104l-193 -1104h-227l250 1434h237l529 -1088l190 1088h227z" />
    <glyph glyph-name="eng" unicode="&#x14b;" horiz-adv-x="1214" 
d="M780 1081q168 0 247 -89t79 -242q0 -55 -14 -142l-111 -620q-27 -156 -139 -231t-287 -103l-16 139q152 41 193 101q24 33 32 75l110 637q10 57 11 101q0 211 -191 211q-143 0 -232 -100t-118 -261l-98 -557h-215l137 782l33 283h194l-18 -176q145 192 403 192z" />
    <glyph glyph-name="Omacron" unicode="&#x14c;" horiz-adv-x="1673" 
d="M1278 1729l-21 -125h-624l22 125h623zM920 1274q-139 0 -250 -57t-174 -151q-126 -189 -132 -421q-6 -231 116 -357t327 -126q113 0 206 38q167 68 254 234q87 165 93 376q6 212 -114 338t-326 126zM801 -20q-315 0 -499 178q-183 178 -179 489q4 238 116 437
q60 108 149 189q90 81 228 132t308 51q313 -2 497 -180t178 -488q-4 -239 -115 -437q-128 -231 -376 -321q-137 -50 -307 -50z" />
    <glyph glyph-name="omacron" unicode="&#x14d;" horiz-adv-x="1273" 
d="M1036 1378l-20 -125h-625l23 125h622zM670 913q-172 0 -268 -130t-97 -297q-2 -166 80 -250t217 -84q174 0 268 129t98 297t-79 252q-82 84 -219 83zM688 1081q222 0 362 -130t138 -363q-4 -266 -163 -435t-437 -169q-227 0 -366 129q-138 129 -135 379t163 419
q160 170 438 170z" />
    <glyph glyph-name="Obreve" unicode="&#x14e;" horiz-adv-x="1675" 
d="M976 1657q126 0 171 123l121 -8q-33 -119 -108 -171t-197 -53q-240 0 -242 224l125 8q4 -123 130 -123zM920 1274q-139 0 -250 -57t-174 -151q-126 -189 -132 -421q-6 -231 116 -357t327 -126q113 0 206 38q167 68 254 234q87 165 93 376q6 212 -114 338t-326 126z
M801 -20q-315 0 -499 178q-183 178 -179 489q4 238 116 437q60 108 149 189q90 81 228 132t308 51q313 -2 497 -180t178 -488q-4 -239 -115 -437q-128 -231 -376 -321q-137 -50 -307 -50z" />
    <glyph glyph-name="obreve" unicode="&#x14f;" horiz-adv-x="1284" 
d="M727 1198q-248 0 -254 242l127 12q6 -145 137 -145q136 0 181 145l126 -12q-35 -125 -110 -184q-76 -58 -207 -58zM670 913q-172 0 -268 -130t-97 -297q-2 -166 80 -250t217 -84q174 0 268 129t98 297t-79 252q-82 84 -219 83zM688 1081q222 0 362 -130t138 -363
q-4 -266 -163 -435t-437 -169q-227 0 -366 129q-138 129 -135 379t163 419q160 170 438 170z" />
    <glyph glyph-name="Ohungarumlaut" unicode="&#x150;" horiz-adv-x="1673" 
d="M1036 1765l-229 -233h-158l182 233h205zM1368 1765l-229 -233h-158l182 233h205zM920 1274q-139 0 -250 -57t-174 -151q-126 -189 -132 -421q-6 -231 116 -357t327 -126q113 0 206 38q167 68 254 234q87 165 93 376q6 212 -114 338t-326 126zM801 -20q-315 0 -499 178
q-183 178 -179 489q4 238 116 437q60 108 149 189q90 81 228 132t308 51q313 -2 497 -180t178 -488q-4 -239 -115 -437q-128 -231 -376 -321q-137 -50 -307 -50z" />
    <glyph glyph-name="ohungarumlaut" unicode="&#x151;" horiz-adv-x="1273" 
d="M836 1485l-254 -303h-158l207 303h205zM1167 1485l-254 -303h-157l207 303h204zM670 913q-172 0 -268 -130t-97 -297q-2 -166 80 -250t217 -84q174 0 268 129t98 297t-79 252q-82 84 -219 83zM688 1081q222 0 362 -130t138 -363q-4 -266 -163 -435t-437 -169
q-227 0 -366 129q-138 129 -135 379t163 419q160 170 438 170z" />
    <glyph glyph-name="OE" unicode="&#x152;" horiz-adv-x="2586" 
d="M918 1274q-139 0 -249 -56q-189 -96 -270 -353q-33 -108 -37 -222q-4 -231 117 -356t326 -125q139 0 249 56t173 150q125 187 131 421q6 233 -114 359t-326 126zM801 -20q-315 0 -499 178q-183 178 -179 489q4 238 116 437q60 108 149 189t227 132t335 50t354 -98
t220 -276l63 353h1026l-30 -177h-797l-84 -469h688l-33 -176h-686l-76 -436h815l-30 -176h-1045l41 242q-207 -262 -575 -262z" />
    <glyph glyph-name="oe" unicode="&#x153;" horiz-adv-x="2099" 
d="M1432 580q385 0 387 190q4 148 -207 148q-148 0 -254 -92t-144 -230q98 -16 218 -16zM670 913q-172 0 -268 -130t-97 -297q-2 -166 80 -250t217 -84q174 0 268 129t98 297t-79 252q-82 84 -219 83zM1198 461q4 -320 353 -320q173 0 329 84l43 -145q-162 -96 -426 -96
q-315 0 -446 198q-162 -199 -463 -198q-227 0 -366 129q-138 129 -135 379t163 419q160 170 438 170q145 0 259 -56t175 -165q186 221 506 221q180 -1 293 -73t111 -230q-2 -338 -576 -338q-145 0 -258 21z" />
    <glyph glyph-name="Racute" unicode="&#x154;" horiz-adv-x="1470" 
d="M1087 1765l-208 -233h-160l172 233h196zM909 754q135 0 217 74t82 184t-60 178t-175 67h-428l-90 -503h454zM1024 1434q200 0 312 -118t112 -283t-101 -281t-278 -152l186 -600h-235l-166 578h-430l-102 -578h-228l254 1434h676z" />
    <glyph glyph-name="racute" unicode="&#x155;" horiz-adv-x="741" 
d="M776 1479l-246 -303h-161l206 303h201zM754 1065l-47 -211q-156 20 -243 -72t-122 -286l-86 -496h-215l143 819l29 246h195l-23 -201q53 108 147 170t222 31z" />
    <glyph glyph-name="Rcommaaccent" unicode="&#x156;" horiz-adv-x="1470" 
d="M575 -92h154q-16 -88 -32 -124q-17 -36 -43 -85t-31 -59h-131q2 8 34 83q32 74 49 185zM909 754q135 0 217 74t82 184t-60 178t-175 67h-428l-90 -503h454zM1024 1434q200 0 312 -118t112 -283t-101 -281t-278 -152l186 -600h-235l-166 578h-430l-102 -578h-228l254 1434
h676z" />
    <glyph glyph-name="rcommaaccent" unicode="&#x157;" horiz-adv-x="741" 
d="M63 -92h154q-16 -88 -32 -124q-17 -36 -43 -85t-31 -59h-131q2 8 34 83q32 74 49 185zM754 1065l-47 -211q-156 20 -243 -72t-122 -286l-86 -496h-215l143 819l29 246h195l-23 -201q53 108 147 170t222 31z" />
    <glyph glyph-name="Rcaron" unicode="&#x158;" horiz-adv-x="1470" 
d="M1249 1759l-274 -233h-193l-182 233h164l121 -153l186 153h178zM909 754q135 0 217 74t82 184t-60 178t-175 67h-428l-90 -503h454zM1024 1434q200 0 312 -118t112 -283t-101 -281t-278 -152l186 -600h-235l-166 578h-430l-102 -578h-228l254 1434h676z" />
    <glyph glyph-name="rcaron" unicode="&#x159;" horiz-adv-x="741" 
d="M838 1481l-281 -305h-195l-174 305h164l113 -217l199 217h174zM754 1065l-47 -211q-156 20 -243 -72t-122 -286l-86 -496h-215l143 819l29 246h195l-23 -201q53 108 147 170t222 31z" />
    <glyph glyph-name="Sacute" unicode="&#x15a;" horiz-adv-x="1251" 
d="M1044 1765l-208 -233h-160l172 233h196zM724 1456q234 0 517 -127l-76 -178q-246 123 -421 123q-174 0 -242 -60t-68 -136q0 -128 128 -186q50 -24 156 -64q306 -116 372 -202q67 -87 65 -214q0 -211 -146 -323t-395 -112q-166 1 -328 49t-276 121l80 181
q279 -164 535 -164q129 0 209 55t79 154q0 61 -44 106t-93 68t-125 50t-99 34q-24 7 -107 45q-82 39 -141 85q-111 88 -109 263q0 216 147 324q148 108 382 108z" />
    <glyph glyph-name="sacute" unicode="&#x15b;" horiz-adv-x="1011" 
d="M905 1495l-246 -303h-161l207 303h200zM550 1081q177 0 408 -98l-67 -137q-174 82 -320 82q-217 0 -217 -142q0 -72 82 -109q56 -23 123 -45q68 -22 103 -35t86 -41q52 -28 76 -56q60 -69 61 -181q0 -167 -120 -251t-312 -84q-244 0 -455 133l68 137q197 -117 376 -117
q225 4 226 154q0 63 -48 95t-140 60t-123 36q-31 9 -79 35q-48 25 -74 53q-65 69 -67 186q0 162 118 244t295 81z" />
    <glyph glyph-name="Scircumflex" unicode="&#x15c;" horiz-adv-x="1251" 
d="M442 1532l275 233h192l183 -233h-164l-121 154l-186 -154h-179zM724 1456q234 0 517 -127l-76 -178q-246 123 -421 123q-174 0 -242 -60t-68 -136q0 -128 128 -186q50 -24 156 -64q306 -116 372 -202q67 -87 65 -214q0 -211 -146 -323t-395 -112q-166 1 -328 49t-276 121
l80 181q279 -164 535 -164q129 0 209 55t79 154q0 61 -44 106t-93 68t-125 50t-99 34q-24 7 -107 45q-82 39 -141 85q-111 88 -109 263q0 216 147 324q148 108 382 108z" />
    <glyph glyph-name="scircumflex" unicode="&#x15d;" horiz-adv-x="1011" 
d="M268 1190l281 305h194l175 -305h-164l-117 217l-195 -217h-174zM550 1081q177 0 408 -98l-67 -137q-174 82 -320 82q-217 0 -217 -142q0 -72 82 -109q56 -23 123 -45q68 -22 103 -35t86 -41q52 -28 76 -56q60 -69 61 -181q0 -167 -120 -251t-312 -84q-244 0 -455 133
l68 137q197 -117 376 -117q225 4 226 154q0 63 -48 95t-140 60t-123 36q-31 9 -79 35q-48 25 -74 53q-65 69 -67 186q0 162 118 244t295 81z" />
    <glyph glyph-name="Scedilla" unicode="&#x15e;" horiz-adv-x="1251" 
d="M724 1456q234 0 517 -127l-76 -178q-246 123 -421 123q-174 0 -242 -60t-68 -136q0 -128 128 -186q50 -24 156 -64q306 -116 372 -202q67 -87 65 -214q0 -211 -146 -323t-395 -112h-16l-45 -88q55 -1 103 -31t48 -110t-69 -120q-70 -40 -173 -40t-171 29l22 90
q57 -27 151 -27t95 66q0 70 -121 53l-26 41l71 146q-270 29 -473 161l80 181q279 -164 535 -164q129 0 209 55t79 154q0 61 -44 106t-93 68t-125 50t-99 34q-24 7 -107 45q-82 39 -141 85q-111 88 -109 263q0 216 147 324q148 108 382 108z" />
    <glyph glyph-name="scedilla" unicode="&#x15f;" horiz-adv-x="1011" 
d="M550 1081q177 0 408 -98l-67 -137q-174 82 -320 82q-217 0 -217 -142q0 -72 82 -109q56 -23 123 -45q68 -22 103 -35t86 -41q52 -28 76 -56q60 -69 61 -181q0 -167 -120 -251t-312 -84h-2l-50 -97q55 0 104 -30q48 -31 48 -111t-70 -120t-173 -40t-171 29l23 90
q57 -27 151 -27t95 66q0 70 -121 53l-27 41l76 154q-182 27 -338 125l68 137q197 -117 376 -117q225 4 226 154q0 63 -48 95t-140 60t-123 36q-31 9 -79 35q-48 25 -74 53q-65 69 -67 186q0 162 118 244t295 81z" />
    <glyph glyph-name="Scaron" unicode="&#x160;" horiz-adv-x="1251" 
d="M1139 1765l-275 -233h-192l-183 233h164l121 -153l187 153h178zM724 1456q234 0 517 -127l-76 -178q-246 123 -421 123q-174 0 -242 -60t-68 -136q0 -128 128 -186q50 -24 156 -64q306 -116 372 -202q67 -87 65 -214q0 -211 -146 -323t-395 -112q-166 1 -328 49t-276 121
l80 181q279 -164 535 -164q129 0 209 55t79 154q0 61 -44 106t-93 68t-125 50t-99 34q-24 7 -107 45q-82 39 -141 85q-111 88 -109 263q0 216 147 324q148 108 382 108z" />
    <glyph glyph-name="scaron" unicode="&#x161;" horiz-adv-x="1011" 
d="M971 1495l-281 -305h-194l-174 305h163l113 -217l199 217h174zM550 1081q177 0 408 -98l-67 -137q-174 82 -320 82q-217 0 -217 -142q0 -72 82 -109q56 -23 123 -45q68 -22 103 -35t86 -41q52 -28 76 -56q60 -69 61 -181q0 -167 -120 -251t-312 -84q-244 0 -455 133
l68 137q197 -117 376 -117q225 4 226 154q0 63 -48 95t-140 60t-123 36q-31 9 -79 35q-48 25 -74 53q-65 69 -67 186q0 162 118 244t295 81z" />
    <glyph glyph-name="Tcommaaccent" unicode="&#x162;" horiz-adv-x="1241" 
d="M444 -92h154q-16 -88 -32 -124q-17 -36 -43 -85t-31 -59h-132q2 8 34 83q33 74 50 185zM1366 1434l-33 -177h-481l-223 -1257h-228l224 1257h-482l33 177h1190z" />
    <glyph glyph-name="tcommaaccent" unicode="&#x163;" horiz-adv-x="782" 
d="M397 -92q-23 -130 -106 -268h-131q5 19 36 88t48 180h153zM342 238q0 -98 125 -99q66 0 151 27l-14 -143q-84 -39 -227 -39t-199 55q-55 55 -55 154q0 35 12 116l107 604h-150l27 152h151l86 309h183l-54 -309h299l-28 -152h-299l-107 -598q-8 -57 -8 -77z" />
    <glyph glyph-name="Tcaron" unicode="&#x164;" horiz-adv-x="1241" 
d="M1157 1765l-274 -233h-193l-182 233h164l121 -153l186 153h178zM1366 1434l-33 -177h-481l-223 -1257h-228l224 1257h-482l33 177h1190z" />
    <glyph glyph-name="tcaron" unicode="&#x165;" horiz-adv-x="782" 
d="M342 238q0 -98 125 -99q66 0 151 27l-14 -143q-84 -39 -227 -39t-199 55q-55 55 -55 154q0 35 12 116l107 604h-150l27 152h151l86 309h183l-54 -309h299l-28 -152h-299l-107 -598q-8 -57 -8 -77zM715 1499h147q-27 -145 -102 -295h-107q58 275 62 295z" />
    <glyph glyph-name="Tbar" unicode="&#x166;" horiz-adv-x="1241" 
d="M1366 1434l-33 -177h-481l-86 -481h324l-21 -102h-321l-119 -674h-228l119 674h-317l20 102h316l86 481h-482l33 177h1190z" />
    <glyph glyph-name="tbar" unicode="&#x167;" horiz-adv-x="778" 
d="M342 238q0 -98 125 -99q66 0 151 27l-14 -143q-84 -39 -227 -39t-199 55q-55 55 -55 154q0 35 12 116l60 340h-148l14 76h148l33 188h-150l27 152h151l86 309h183l-54 -309h299l-28 -152h-299l-35 -188h287l-15 -76h-284l-60 -334q-8 -57 -8 -77z" />
    <glyph glyph-name="Utilde" unicode="&#x168;" horiz-adv-x="1505" 
d="M1038 1563q-51 0 -132 45t-120 45q-68 0 -114 -76l-68 33q82 174 223 174q53 0 136 -45q73 -45 109 -45t61 14t34 26t27 38l70 -35q-88 -174 -226 -174zM156 432q0 68 4 98l159 904h228l-160 -906q-6 -35 -6 -69q0 -129 83 -214t243 -85t254 87t118 224l172 963h228
l-168 -945q-41 -231 -195 -371t-423 -140t-403 136t-134 318z" />
    <glyph glyph-name="utilde" unicode="&#x169;" horiz-adv-x="1253" 
d="M842 1225q-51 0 -132 45t-120 45q-68 0 -115 -76l-67 33q82 174 223 174q53 0 135 -45q74 -45 110 -45t60 14t34 26q9 12 27 38l70 -35q-88 -174 -225 -174zM432 -16q-176 0 -259 91t-83 240q0 59 12 121l111 629h215l-109 -627q-8 -53 -8 -82q0 -92 49 -150t176 -58
q128 0 216 100t116 260l99 557h215l-138 -782l-30 -283h-195l17 166q-146 -182 -404 -182z" />
    <glyph glyph-name="Umacron" unicode="&#x16a;" horiz-adv-x="1505" 
d="M1227 1729l-21 -125h-624l22 125h623zM156 432q0 68 4 98l159 904h228l-160 -906q-6 -35 -6 -69q0 -129 83 -214t243 -85t254 87t118 224l172 963h228l-168 -945q-41 -231 -195 -371t-423 -140t-403 136t-134 318z" />
    <glyph glyph-name="umacron" unicode="&#x16b;" horiz-adv-x="1255" 
d="M1051 1391l-21 -125h-624l22 125h623zM432 -16q-176 0 -259 91t-83 240q0 59 12 121l111 629h215l-109 -627q-8 -53 -8 -82q0 -92 49 -150t176 -58q128 0 216 100t116 260l99 557h215l-138 -782l-30 -283h-195l17 166q-146 -182 -404 -182z" />
    <glyph glyph-name="Ubreve" unicode="&#x16c;" horiz-adv-x="1505" 
d="M932 1657q125 0 172 123l121 -8q-33 -119 -108 -171t-197 -53q-240 0 -242 224l125 8q4 -123 129 -123zM156 432q0 68 4 98l159 904h228l-160 -906q-6 -35 -6 -69q0 -129 83 -214t243 -85t254 87t118 224l172 963h228l-168 -945q-41 -231 -195 -371t-423 -140t-403 136
t-134 318z" />
    <glyph glyph-name="ubreve" unicode="&#x16d;" horiz-adv-x="1255" 
d="M737 1319q136 0 181 145l126 -12q-34 -125 -110 -183t-207 -59q-248 0 -254 242l127 12q6 -145 137 -145zM432 -16q-176 0 -259 91t-83 240q0 59 12 121l111 629h215l-109 -627q-8 -53 -8 -82q0 -92 49 -150t176 -58q128 0 216 100t116 260l99 557h215l-138 -782
l-30 -283h-195l17 166q-146 -182 -404 -182z" />
    <glyph glyph-name="Uring" unicode="&#x16e;" horiz-adv-x="1505" 
d="M950 1843q-45 0 -76 -31q-30 -31 -34 -89t26 -85q30 -26 76 -26q45 0 79 30t37 90t-30 86t-78 25zM953 1929q93 0 155 -49t59 -147q-2 -99 -65 -153q-64 -54 -158 -54t-156 50q-61 50 -57 148q5 98 67 152t155 53zM156 432q0 68 4 98l159 904h228l-160 -906
q-6 -35 -6 -69q0 -129 83 -214t243 -85t254 87t118 224l172 963h228l-168 -945q-41 -231 -195 -371t-423 -140t-403 136t-134 318z" />
    <glyph glyph-name="uring" unicode="&#x16f;" horiz-adv-x="1255" 
d="M752 1505q-45 -1 -76 -31t-35 -88t27 -86q32 -26 76 -26t78 31t37 90t-29 85t-78 25zM755 1591q93 0 154 -49t59 -147q-2 -99 -64 -153q-64 -54 -158 -54t-156 50t-58 148t67 152t156 53zM432 -16q-176 0 -259 91t-83 240q0 59 12 121l111 629h215l-109 -627
q-8 -53 -8 -82q0 -92 49 -150t176 -58q128 0 216 100t116 260l99 557h215l-138 -782l-30 -283h-195l17 166q-146 -182 -404 -182z" />
    <glyph glyph-name="Uhungarumlaut" unicode="&#x170;" horiz-adv-x="1505" 
d="M1008 1765l-230 -233h-157l182 233h205zM1339 1765l-229 -233h-158l183 233h204zM156 432q0 68 4 98l159 904h228l-160 -906q-6 -35 -6 -69q0 -129 83 -214t243 -85t254 87t118 224l172 963h228l-168 -945q-41 -231 -195 -371t-423 -140t-403 136t-134 318z" />
    <glyph glyph-name="uhungarumlaut" unicode="&#x171;" horiz-adv-x="1253" 
d="M1192 1497l-254 -303h-158l207 303h205zM860 1497l-254 -303h-157l206 303h205zM432 -16q-176 0 -259 91t-83 240q0 59 12 121l111 629h215l-109 -627q-8 -53 -8 -82q0 -92 49 -150t176 -58q128 0 216 100t116 260l99 557h215l-138 -782l-30 -283h-195l17 166
q-146 -182 -404 -182z" />
    <glyph glyph-name="Uogonek" unicode="&#x172;" horiz-adv-x="1505" 
d="M745 -174q0 -72 68 -72q37 0 80 13l-4 -111q-66 -23 -125 -23q-154 0 -154 146q0 113 105 198h-19q-272 1 -406 137t-134 318q0 68 4 98l159 904h228l-160 -906q-6 -35 -6 -69q0 -129 83 -214t243 -85t254 87t118 224l172 963h228l-168 -945q-35 -193 -150 -325
t-307 -170q-109 -74 -109 -168z" />
    <glyph glyph-name="uogonek" unicode="&#x173;" horiz-adv-x="1255" 
d="M432 -16q-176 0 -259 91t-83 240q0 59 12 121l111 629h215l-109 -627q-8 -53 -8 -82q0 -92 49 -150t176 -58q128 0 216 100t116 260l99 557h215l-138 -782l-30 -283q-133 -74 -133 -174q0 -72 69 -72q45 0 78 13l-4 -111q-57 -23 -125 -23q-154 0 -154 146q0 125 136 221
h-62l17 166q-146 -182 -404 -182z" />
    <glyph glyph-name="Wcircumflex" unicode="&#x174;" horiz-adv-x="2023" 
d="M817 1532l275 233h192l182 -233h-163l-121 154l-187 -154h-178zM2122 1434l-656 -1434h-282l-88 1102l-478 -1102h-282l-152 1434h238l108 -1168l490 1155h258l88 -1132l498 1145h258z" />
    <glyph glyph-name="wcircumflex" unicode="&#x175;" horiz-adv-x="1703" 
d="M614 1182l281 305h195l174 -305h-164l-117 217l-195 -217h-174zM1735 1065l-504 -1065h-248l-106 772l-377 -772h-250l-125 1065h209l88 -836l407 836h193l111 -825l372 823z" />
    <glyph glyph-name="Ycircumflex" unicode="&#x176;" horiz-adv-x="1341" 
d="M481 1532l275 233h192l182 -233h-163l-121 154l-187 -154h-178zM680 0h-227l100 567l-363 867h228l272 -686l516 686h244l-672 -873z" />
    <glyph glyph-name="ycircumflex" unicode="&#x177;" horiz-adv-x="1167" 
d="M326 1182l280 305h195l174 -305h-164l-117 217l-194 -217h-174zM182 -358q-116 0 -241 34l36 160q184 -54 277 5q49 32 90 110l25 47l-250 1067h221l178 -862l436 862h236l-619 -1145q-90 -164 -182 -221q-91 -57 -207 -57z" />
    <glyph glyph-name="Ydieresis" unicode="&#x178;" horiz-adv-x="1341" 
d="M1057 1761q55 -1 84 -27t26 -73q-4 -100 -110 -100q-51 1 -79 27t-26 73q5 100 105 100zM612 1761q55 -1 84 -27t27 -73q-4 -100 -111 -100q-50 1 -78 27t-26 73q4 100 104 100zM680 0h-227l100 567l-363 867h228l272 -686l516 686h244l-672 -873z" />
    <glyph glyph-name="Zacute" unicode="&#x179;" horiz-adv-x="1284" 
d="M1065 1765l-209 -233h-160l172 233h197zM1341 1434l-24 -150l-1014 -1114l410 6h420l-33 -176h-1135l27 152l1016 1110l-402 -5h-389l33 177h1091z" />
    <glyph glyph-name="zacute" unicode="&#x17a;" horiz-adv-x="1069" 
d="M922 1497l-246 -303h-162l207 303h201zM1071 1065l-29 -170l-770 -750l357 7h297l-31 -152h-922l31 166l776 754l-350 -7h-278l30 152h889z" />
    <glyph glyph-name="Zdotaccent" unicode="&#x17b;" horiz-adv-x="1284" 
d="M813 1761q55 -1 84 -27t27 -73q-4 -100 -111 -100q-51 1 -79 27t-25 73q4 100 104 100zM1341 1434l-24 -150l-1014 -1114l410 6h420l-33 -176h-1135l27 152l1016 1110l-402 -5h-389l33 177h1091z" />
    <glyph glyph-name="zdotaccent" unicode="&#x17c;" horiz-adv-x="1069" 
d="M625 1419q61 -1 92 -27t28 -75q-7 -107 -125 -107t-112 107q4 102 117 102zM1071 1065l-29 -170l-770 -750l357 7h297l-31 -152h-922l31 166l776 754l-350 -7h-278l30 152h889z" />
    <glyph glyph-name="Zcaron" unicode="&#x17d;" horiz-adv-x="1284" 
d="M1159 1765l-274 -233h-193l-182 233h164l121 -153l186 153h178zM1341 1434l-24 -150l-1014 -1114l410 6h420l-33 -176h-1135l27 152l1016 1110l-402 -5h-389l33 177h1091z" />
    <glyph glyph-name="zcaron" unicode="&#x17e;" horiz-adv-x="1069" 
d="M1001 1499l-280 -305h-195l-174 305h164l113 -217l198 217h174zM1071 1065l-29 -170l-770 -750l357 7h297l-31 -152h-922l31 166l776 754l-350 -7h-278l30 152h889z" />
    <glyph glyph-name="AEacute" unicode="&#x1fc;" horiz-adv-x="2121" 
d="M1741 1765l-209 -233h-160l172 233h197zM1038 1257l-487 -700h420l123 700h-56zM164 0h-260l1030 1434h1214l-30 -177h-797l-82 -471h688l-33 -176h-688l-73 -434h819l-33 -176h-1047l68 381h-512z" />
    <glyph glyph-name="aeacute" unicode="&#x1fd;" horiz-adv-x="1871" 
d="M1300 1497l-245 -303h-162l207 303h200zM1204 580q385 0 387 190q4 148 -207 148q-148 0 -254 -92t-143 -230q98 -16 217 -16zM463 137q219 0 303 178q-14 59 -14 144v33q-106 8 -179 8q-330 0 -329 -199q0 -164 219 -164zM971 461q4 -320 353 -320q173 0 329 84l43 -145
q-162 -96 -426 -96q-319 0 -449 200q-133 -201 -422 -200q-176 0 -274 76t-98 229q0 348 536 348q76 0 211 -8q29 94 80 176q-28 113 -228 113t-403 -56l-2 160q215 59 465 59t336 -108q162 108 360 108q198 -1 312 -73q113 -72 110 -230q-2 -338 -575 -338q-145 0 -258 21z
" />
    <glyph glyph-name="Oslashacute" unicode="&#x1fe;" horiz-adv-x="1675" 
d="M1167 1765l-209 -233h-159l172 233h196zM928 1274q-146 0 -258 -57q-111 -57 -174 -151q-126 -189 -133 -405q-7 -215 94 -346l727 883q-110 76 -256 76zM807 162q113 0 206 38q167 68 255 236q88 167 93 363q5 197 -95 323l-731 -882q109 -78 272 -78zM801 -20
q-233 0 -398 100l-129 -156h-141l182 221q-199 180 -192 502q4 238 116 437q60 108 149 189q90 81 228 132t308 51q227 -4 391 -100l119 145h143l-172 -209q201 -180 194 -504q-4 -239 -115 -437q-128 -231 -376 -321q-137 -50 -307 -50z" />
    <glyph glyph-name="oslashacute" unicode="&#x1ff;" horiz-adv-x="1273" 
d="M993 1497l-245 -303h-162l207 303h200zM670 913q-172 0 -268 -130t-97 -308q-2 -129 55 -211l494 594q-73 55 -184 55zM602 152q174 0 268 129t99 309q2 127 -60 213l-493 -596q74 -55 186 -55zM688 1081q164 0 289 -73l104 125h101l-142 -172q150 -133 147 -386
t-162 -422t-437 -169q-176 0 -295 75l-105 -127h-102l143 174q-145 133 -142 384t163 421t438 170z" />
    <glyph glyph-name="Scommaaccent" unicode="&#x218;" horiz-adv-x="1251" 
d="M635 -90q-23 -127 -107 -268h-131q2 8 34 83t50 185h154zM724 1456q234 0 517 -127l-76 -178q-246 123 -421 123q-174 0 -242 -60t-68 -136q0 -128 128 -186q50 -24 156 -64q306 -116 372 -202q67 -87 65 -214q0 -211 -146 -323t-395 -112q-166 1 -328 49t-276 121
l80 181q279 -164 535 -164q129 0 209 55t79 154q0 61 -44 106t-93 68t-125 50t-99 34q-24 7 -107 45q-82 39 -141 85q-111 88 -109 263q0 216 147 324q148 108 382 108z" />
    <glyph glyph-name="scommaaccent" unicode="&#x219;" horiz-adv-x="1011" 
d="M500 -92q-23 -127 -107 -268h-131q2 8 25 62q41 94 59 206h154zM550 1081q177 0 408 -98l-67 -137q-174 82 -320 82q-217 0 -217 -142q0 -72 82 -109q56 -23 123 -45q68 -22 103 -35t86 -41q52 -28 76 -56q60 -69 61 -181q0 -167 -120 -251t-312 -84q-244 0 -455 133
l68 137q197 -117 376 -117q225 4 226 154q0 63 -48 95t-140 60t-123 36q-31 9 -79 35q-48 25 -74 53q-65 69 -67 186q0 162 118 244t295 81z" />
    <glyph glyph-name="circumflex" unicode="&#x2c6;" horiz-adv-x="768" 
d="M168 1163l281 305h194l174 -305h-164l-116 217l-195 -217h-174z" />
    <glyph glyph-name="caron" unicode="&#x2c7;" horiz-adv-x="733" 
d="M852 1468l-281 -305h-194l-174 305h164l112 -217l199 217h174z" />
    <glyph glyph-name="breve" unicode="&#x2d8;" horiz-adv-x="677" 
d="M457 1180q-248 0 -254 241l127 13q6 -145 137 -146q135 1 180 146l127 -13q-34 -125 -110 -183t-207 -58z" />
    <glyph glyph-name="dotaccent" unicode="&#x2d9;" horiz-adv-x="528" 
d="M391 1401q61 0 92 -27t29 -76q-6 -106 -125 -106t-113 106q4 103 117 103z" />
    <glyph glyph-name="ring" unicode="&#x2da;" horiz-adv-x="550" 
d="M432 1475q-45 0 -76 -31q-30 -31 -34 -89t26 -85t76 -27q45 0 79 31t37 90t-30 85t-78 26zM435 1561q93 1 155 -49t59 -148q-2 -98 -65 -152q-64 -54 -158 -55q-94 0 -156 50q-61 51 -57 149q5 98 67 152t155 53z" />
    <glyph glyph-name="ogonek" unicode="&#x2db;" horiz-adv-x="561" 
d="M162 -174q0 -72 69 -72q43 0 78 13l-4 -111q-57 -23 -125 -23q-154 0 -153 146q-1 171 241 282l27 -61q-133 -74 -133 -174z" />
    <glyph glyph-name="tilde" unicode="&#x2dc;" horiz-adv-x="743" 
d="M610 1194q-51 0 -132 45t-120 45q-68 0 -114 -76l-68 33q82 174 223 174q53 0 136 -45q73 -45 109 -45t61 14q25 13 34 25t27 39l70 -35q-86 -174 -226 -174z" />
    <glyph glyph-name="hungarumlaut" unicode="&#x2dd;" horiz-adv-x="808" 
d="M580 1466l-254 -303h-158l207 303h205zM911 1466l-254 -303h-157l207 303h204z" />
    <glyph glyph-name="Wgrave" unicode="&#x1e80;" horiz-adv-x="2023" 
d="M1180 1763l82 -231h-150l-125 231h193zM2122 1434l-656 -1434h-282l-88 1102l-478 -1102h-282l-152 1434h238l108 -1168l490 1155h258l88 -1132l498 1145h258z" />
    <glyph glyph-name="wgrave" unicode="&#x1e81;" horiz-adv-x="1703" 
d="M741 1485h195l88 -303h-152zM1735 1065l-504 -1065h-248l-106 772l-377 -772h-250l-125 1065h209l88 -836l407 836h193l111 -825l372 823z" />
    <glyph glyph-name="Wacute" unicode="&#x1e82;" horiz-adv-x="2023" 
d="M1419 1765l-209 -233h-159l172 233h196zM2122 1434l-656 -1434h-282l-88 1102l-478 -1102h-282l-152 1434h238l108 -1168l490 1155h258l88 -1132l498 1145h258z" />
    <glyph glyph-name="wacute" unicode="&#x1e83;" horiz-adv-x="1703" 
d="M1253 1497l-245 -303h-162l207 303h200zM1735 1065l-504 -1065h-248l-106 772l-377 -772h-250l-125 1065h209l88 -836l407 836h193l111 -825l372 823z" />
    <glyph glyph-name="Wdieresis" unicode="&#x1e84;" horiz-adv-x="2023" 
d="M1397 1761q55 -1 84 -27t26 -73q-4 -100 -110 -100q-51 1 -79 27t-26 73q5 100 105 100zM952 1761q55 -1 84 -27t27 -73q-4 -100 -111 -100q-51 1 -79 27t-25 73q4 100 104 100zM2122 1434l-656 -1434h-282l-88 1102l-478 -1102h-282l-152 1434h238l108 -1168l490 1155
h258l88 -1132l498 1145h258z" />
    <glyph glyph-name="wdieresis" unicode="&#x1e85;" horiz-adv-x="1703" 
d="M1173 1419q53 1 83 -27t28 -75q-4 -106 -115 -107q-53 0 -82 28t-27 77t32 77q28 28 81 27zM730 1419q54 1 84 -27t28 -75q-4 -106 -117 -107q-53 0 -82 28t-27 77t31 77t83 27zM1735 1065l-504 -1065h-248l-106 772l-377 -772h-250l-125 1065h209l88 -836l407 836h193
l111 -825l372 823z" />
    <glyph glyph-name="germandbls.case" unicode="&#x1e9e;" horiz-adv-x="1538" 
d="M901 -41q-152 0 -379 70l39 170q175 -70 319 -70t224 60t80 176q0 89 -105 191q-39 38 -71 97q-33 59 -33 111q0 125 73 232l41 62q9 14 54 70q45 57 49 64q-64 42 -160 66t-178 24q-170 0 -269 -98t-128 -271l-162 -913h-225l159 909q43 261 205 403t406 146
q160 2 322 -51t286 -150q-20 -27 -86 -111t-94 -122q-28 -39 -56 -102q-58 -125 6 -221q34 -50 74 -87q40 -36 75 -104q34 -68 34 -152q-2 -203 -139 -301t-361 -98z" />
    <glyph glyph-name="Ygrave" unicode="&#x1ef2;" horiz-adv-x="1341" 
d="M844 1763l82 -231h-150l-125 231h193zM680 0h-227l100 567l-363 867h228l272 -686l516 686h244l-672 -873z" />
    <glyph glyph-name="ygrave" unicode="&#x1ef3;" horiz-adv-x="1167" 
d="M453 1485h194l88 -303h-151zM182 -358q-116 0 -241 34l36 160q184 -54 277 5q49 32 90 110l25 47l-250 1067h221l178 -862l436 862h236l-619 -1145q-90 -164 -182 -221q-91 -57 -207 -57z" />
    <glyph glyph-name="endash" unicode="&#x2013;" horiz-adv-x="1458" 
d="M1313 629l-29 -160l-1169 -2l30 162h1168z" />
    <glyph glyph-name="emdash" unicode="&#x2014;" horiz-adv-x="1810" 
d="M1663 629l-29 -162h-1519l30 162h1518z" />
    <glyph glyph-name="quoteleft" unicode="&#x2018;" horiz-adv-x="534" 
d="M348 952q-59 0 -95 44t-36 114q0 104 76 187t184 124l45 -59q-70 -29 -125 -88t-55 -135q18 18 51 18q86 0 86 -86q0 -55 -36 -87t-95 -32z" />
    <glyph glyph-name="quoteright" unicode="&#x2019;" horiz-adv-x="534" 
d="M395 1417q59 0 95 -44t36 -113q0 -104 -76 -188q-77 -83 -184 -122l-45 58q70 33 123 89t55 132q-20 -16 -51 -17q-84 0 -84 88q0 53 36 85t95 32z" />
    <glyph glyph-name="quotesinglbase" unicode="&#x201a;" horiz-adv-x="530" 
d="M180 213q59 0 95 -43t36 -113q1 -104 -75 -187t-185 -124l-45 59q70 31 123 89t55 133q-20 -16 -51 -17q-84 0 -84 86q0 55 36 86t95 31z" />
    <glyph glyph-name="quotedblleft" unicode="&#x201c;" horiz-adv-x="933" 
d="M754 952q-59 0 -96 44q-36 44 -35 114q0 104 75 187q76 83 185 124l45 -59q-70 -29 -125 -88t-55 -135q18 18 51 18q86 0 86 -86q0 -55 -36 -87t-95 -32zM485 1071q0 -55 -36 -87t-95 -32t-95 44t-36 114q0 104 76 187t184 124l45 -59q-70 -29 -125 -88t-55 -135
q18 18 51 18q86 0 86 -86z" />
    <glyph glyph-name="quotedblright" unicode="&#x201d;" horiz-adv-x="933" 
d="M391 1417q59 0 95 -44t36 -113q0 -104 -77 -188t-183 -122l-45 58q70 31 123 88t55 133q-20 -16 -51 -17q-84 0 -84 88q0 53 36 85t95 32zM790 1417q60 0 96 -44t36 -113q0 -104 -77 -188t-183 -122l-46 58q70 31 123 88t56 133q-20 -16 -52 -17q-84 0 -84 88q0 53 36 85
t95 32z" />
    <glyph glyph-name="quotedblbase" unicode="&#x201e;" horiz-adv-x="929" 
d="M184 213q60 0 96 -43t35 -113q1 -104 -75 -187t-185 -124l-45 59q68 27 122 86t56 136q-20 -16 -51 -17q-84 0 -84 86q0 55 36 86t95 31zM586 213q59 0 95 -43t36 -113q0 -104 -76 -187t-184 -124l-45 59q68 27 122 86t56 136q-20 -16 -51 -17q-84 0 -84 86q0 55 35 86
q37 31 96 31z" />
    <glyph glyph-name="dagger" unicode="&#x2020;" horiz-adv-x="1171" 
d="M1178 1114l-25 -147l-319 24l18 94zM188 1114l318 -29l-19 -94l-325 -24zM834 1436l-277 -1436h-131l227 1436h181z" />
    <glyph glyph-name="daggerdbl" unicode="&#x2021;" horiz-adv-x="1171" 
d="M1176 1114l-25 -147l-320 24l17 94zM188 1114l316 -29l-17 -94l-325 -24zM1081 578l-26 -152l-318 29l17 94zM94 578l318 -29l-17 -94l-327 -29zM834 1436l-277 -1436h-131l227 1436h181z" />
    <glyph glyph-name="bullet" unicode="&#x2022;" horiz-adv-x="829" 
d="M448 911q95 0 151 -53t48 -150q-8 -96 -68 -150q-59 -54 -155 -54t-153 54q-56 54 -48 150t69 150q61 53 156 53z" />
    <glyph glyph-name="ellipsis" unicode="&#x2026;" horiz-adv-x="1382" 
d="M1057 203q55 0 87 -30t27 -79q-10 -115 -116 -114q-53 0 -86 28t-27 82q11 113 115 113zM610 203q55 0 87 -30t28 -79q-10 -115 -117 -114q-53 0 -86 28t-26 82q10 113 114 113zM168 203q55 0 87 -30t28 -79q-10 -115 -117 -114q-53 0 -86 28t-27 82q11 113 115 113z" />
    <glyph glyph-name="perthousand" unicode="&#x2030;" horiz-adv-x="2539" 
d="M2122 670q133 0 212 -77t79 -210q-1 -193 -101 -298t-280 -105q-133 0 -213 76t-80 210q0 190 101 297q102 107 282 107zM1903 301q1 -184 163 -184q78 -1 130 65t53 178q0 172 -152 172q-88 0 -141 -66t-53 -165zM1329 670q133 0 212 -77t79 -210q0 -193 -100 -298
t-281 -105q-133 0 -213 76t-80 210q0 190 102 297t281 107zM1112 301q0 -184 163 -184q79 -1 131 65t52 178q1 172 -151 172q-88 0 -142 -66q-53 -67 -53 -165zM557 1458q133 0 212 -77t79 -212q0 -189 -100 -295t-281 -106q-133 0 -213 77t-80 210q0 190 101 297
q102 106 282 106zM338 1087q0 -184 163 -184q79 0 131 66t52 180q0 170 -152 170q-88 0 -141 -67t-53 -165zM1524 1436l-1075 -1436h-179l1080 1436h174z" />
    <glyph glyph-name="guilsinglleft" unicode="&#x2039;" horiz-adv-x="739" 
d="M696 922l-393 -406l242 -391l-129 -96l-342 481l8 45l512 481z" />
    <glyph glyph-name="guilsinglright" unicode="&#x203a;" horiz-adv-x="739" 
d="M12 143l394 404l-242 393l129 96l342 -481l-6 -45l-512 -481z" />
    <glyph glyph-name="fraction" unicode="&#x2044;" horiz-adv-x="864" 
d="M981 1436l-883 -1436h-176l883 1436h176z" />
    <glyph glyph-name="Euro" unicode="&#x20ac;" horiz-adv-x="1626" 
d="M1012 164q192 0 348 76l-10 -185q-166 -76 -381 -75q-287 0 -460 154t-212 394h-178l41 101h127v33q0 76 10 133h-168l51 100h139q72 249 278 405t517 156q248 0 426 -113l-80 -155q-156 84 -352 84t-339 -104q-144 -104 -202 -273h670l-51 -100h-645q-10 -49 -11 -121
v-45h592l-41 -101h-536q37 -166 157 -265q118 -99 310 -99z" />
    <glyph glyph-name="trademark" unicode="&#x2122;" horiz-adv-x="1603" 
d="M829 1434l-18 -109h-221l-94 -526h-113l92 526h-217l18 109h553zM1602 1434l-113 -635h-111l74 418l-225 -328h-80l-119 328l-76 -418h-110l112 635h109l145 -418l283 418h111z" />
    <glyph glyph-name="commaaccentcomb" unicode="&#xf6c3;" horiz-adv-x="0" 
d="M-303 -92q-23 -127 -107 -268h-131q2 8 34 83t50 185h154z" />
    <glyph glyph-name="apple" unicode="&#xf8ff;" horiz-adv-x="2869" 
d="M1168 670q-30 0 -29 -41h51q8 41 -22 41zM1789 672q-30 0 -30 -41h51q9 41 -21 41zM2407 668q-19 0 -19 -54t19 -53q19 -1 19 53t-19 54zM2101 655q-14 0 -28 -14v-76q14 -10 24 -10q31 0 31 50t-27 50zM856 655q-14 0 -29 -14v-76q14 -10 25 -10q31 0 31 50t-27 50z
M1468 659q-34 0 -34 -52t24 -52q16 0 31 14v84q-13 6 -21 6zM283 819v-90h59v-76h-59v-39q0 -47 63 -30l2 -76q-37 -16 -89 -16t-78 24t-25 82v55h-47v76h47l16 90h111zM2734 819v-90h57v-76h-57v-39q0 -47 62 -30l2 -76q-37 -16 -89 -16t-78 24t-26 82v55h-45v76h45l16 90
h113zM1788 739q125 0 125 -94q0 -35 -2 -53h-150q5 -35 55 -35t87 10v-59q-55 -20 -109 -21q-150 0 -149 125q0 127 143 127zM1292 643q0 -35 -2 -53h-149q6 -35 57 -35t84 10v-59q-51 -20 -108 -21q-150 0 -150 126t134 126t134 -94zM2406 737h2q139 0 140 -125
q0 -127 -138 -127h-4q-72 0 -104 31q-32 30 -33 96q1 66 33 96t104 29zM2146 737q47 1 73 -31t26 -92q0 -129 -103 -129q-41 0 -67 23v-123h-131v344h108l8 -27q39 35 86 35zM901 737q47 1 73 -31t25 -92q0 -129 -102 -129q-41 0 -68 23v-123h-131v344h109l8 -27
q39 35 86 35zM1618 838v-344h-119l-6 22q-37 -31 -76 -31q-100 0 -100 126t104 126q33 0 66 -20v121h131zM664 729v-221q0 -70 -34 -102t-115 -31q-81 0 -122 24l13 66q42 -14 86 -14t45 32v21q-31 -18 -66 -19q-92 0 -92 101v143h129v-164q0 -25 29 -12v176h127z" />
    <glyph glyph-name="f_i" unicode="&#xfb01;" horiz-adv-x="1200" 
d="M756 1516q188 0 334 -97l-72 -131q-44 31 -118 53q-74 21 -134 21q-113 0 -174 -60t-78 -153l-14 -84h637l-187 -1065h-215l160 913h-422l-201 -1138h-215l201 1138h-164l29 152h162l14 78q29 173 149 273t308 100z" />
    <glyph glyph-name="f_l" unicode="&#xfb02;" horiz-adv-x="1247" 
d="M1049 150q61 0 88 6l-21 -158q-80 -14 -184 -14t-148 52q-45 52 -22 179l153 877q8 45 9 77q0 184 -189 185q-92 0 -153 -58t-82 -172l-11 -59h246l-26 -152h-246l-201 -1138h-215l201 1138h-154l27 152h153l9 47q33 186 149 295q118 109 304 109t292 -88t107 -267
q0 -57 -15 -133l-141 -797q-14 -81 70 -81z" />
    <glyph glyph-name="J.alt" horiz-adv-x="698" 
d="M670 1434l-221 -1264q-61 -336 -486 -457l-51 150q2 0 24 9t30 12q9 3 36 16t63 38q36 26 51 42t40 47q50 60 69 168l187 1062h-142l31 177h369z" />
    <glyph glyph-name="Jcircumflex.alt" horiz-adv-x="698" 
d="M188 1532l275 233h192l183 -233h-164l-121 154l-186 -154h-179zM670 1434l-221 -1264q-61 -336 -486 -457l-51 150q2 0 24 9t30 12q9 3 36 16t63 38q36 26 51 42t40 47q50 60 69 168l187 1062h-142l31 177h369z" />
    <glyph glyph-name="a.alt" horiz-adv-x="1218" 
d="M446 137q129 0 230 66q100 66 119 180l18 104q-119 12 -242 13q-328 0 -327 -195q-1 -168 202 -168zM674 1081q236 0 332 -89q98 -89 59 -304l-82 -457q-13 -69 50 -69q28 0 67 6l-21 -148q-198 -62 -278 5q-43 37 -35 102q-135 -143 -406 -143q-154 0 -244 76t-89 227
q0 350 542 350q96 0 269 -14l14 75q24 121 -38 170t-196 50q-195 0 -397 -56l-2 160q219 59 455 59z" />
    <glyph glyph-name="aacute.alt" horiz-adv-x="1218" 
d="M954 1497l-245 -303h-162l207 303h200zM446 137q129 0 230 66q100 66 119 180l18 104q-119 12 -242 13q-328 0 -327 -195q-1 -168 202 -168zM674 1081q236 0 332 -89q98 -89 59 -304l-82 -457q-13 -69 50 -69q28 0 67 6l-21 -148q-198 -62 -278 5q-43 37 -35 102
q-135 -143 -406 -143q-154 0 -244 76t-89 227q0 350 542 350q96 0 269 -14l14 75q24 121 -38 170t-196 50q-195 0 -397 -56l-2 160q219 59 455 59z" />
    <glyph glyph-name="abreve.alt" horiz-adv-x="1220" 
d="M725 1198q-248 0 -254 242l127 12q6 -145 139 -145t178 145l127 -12q-35 -125 -110 -184q-76 -58 -207 -58zM446 137q129 0 230 66q100 66 119 180l18 104q-119 12 -242 13q-328 0 -327 -195q-1 -168 202 -168zM674 1081q236 0 332 -89q98 -89 59 -304l-82 -457
q-13 -69 50 -69q28 0 67 6l-21 -148q-198 -62 -278 5q-43 37 -35 102q-135 -143 -406 -143q-154 0 -244 76t-89 227q0 350 542 350q96 0 269 -14l14 75q24 121 -38 170t-196 50q-195 0 -397 -56l-2 160q219 59 455 59z" />
    <glyph glyph-name="acircumflex.alt" horiz-adv-x="1218" 
d="M315 1182l281 305h195l174 -305h-164l-117 217l-195 -217h-174zM446 137q129 0 230 66q100 66 119 180l18 104q-119 12 -242 13q-328 0 -327 -195q-1 -168 202 -168zM674 1081q236 0 332 -89q98 -89 59 -304l-82 -457q-13 -69 50 -69q28 0 67 6l-21 -148q-198 -62 -278 5
q-43 37 -35 102q-135 -143 -406 -143q-154 0 -244 76t-89 227q0 350 542 350q96 0 269 -14l14 75q24 121 -38 170t-196 50q-195 0 -397 -56l-2 160q219 59 455 59z" />
    <glyph glyph-name="adieresis.alt" horiz-adv-x="1218" 
d="M897 1419q53 1 83 -27t28 -75q-4 -106 -115 -107q-53 0 -82 28t-27 77t31 77t82 27zM454 1419q54 1 84 -27t27 -75q-4 -106 -116 -107q-53 0 -82 28t-27 77t31 77t83 27zM446 137q129 0 230 66q100 66 119 180l18 104q-119 12 -242 13q-328 0 -327 -195q-1 -168 202 -168
zM674 1081q236 0 332 -89q98 -89 59 -304l-82 -457q-13 -69 50 -69q28 0 67 6l-21 -148q-198 -62 -278 5q-43 37 -35 102q-135 -143 -406 -143q-154 0 -244 76t-89 227q0 350 542 350q96 0 269 -14l14 75q24 121 -38 170t-196 50q-195 0 -397 -56l-2 160q219 59 455 59z" />
    <glyph glyph-name="agrave.alt" horiz-adv-x="1218" 
d="M477 1485h195l88 -303h-152zM446 137q129 0 230 66q100 66 119 180l18 104q-119 12 -242 13q-328 0 -327 -195q-1 -168 202 -168zM674 1081q236 0 332 -89q98 -89 59 -304l-82 -457q-13 -69 50 -69q28 0 67 6l-21 -148q-198 -62 -278 5q-43 37 -35 102
q-135 -143 -406 -143q-154 0 -244 76t-89 227q0 350 542 350q96 0 269 -14l14 75q24 121 -38 170t-196 50q-195 0 -397 -56l-2 160q219 59 455 59z" />
    <glyph glyph-name="amacron.alt" horiz-adv-x="1220" 
d="M1065 1378l-21 -125h-624l22 125h623zM446 137q129 0 230 66q100 66 119 180l18 104q-119 12 -242 13q-328 0 -327 -195q-1 -168 202 -168zM674 1081q236 0 332 -89q98 -89 59 -304l-82 -457q-13 -69 50 -69q28 0 67 6l-21 -148q-198 -62 -278 5q-43 37 -35 102
q-135 -143 -406 -143q-154 0 -244 76t-89 227q0 350 542 350q96 0 269 -14l14 75q24 121 -38 170t-196 50q-195 0 -397 -56l-2 160q219 59 455 59z" />
    <glyph glyph-name="aogonek.alt" horiz-adv-x="1218" 
d="M446 137q129 0 230 66q100 66 119 180l18 104q-119 12 -242 13q-328 0 -327 -195q-1 -168 202 -168zM360 -16q-154 0 -244 76t-89 227q0 350 542 350q96 0 269 -14l14 75q24 121 -38 170t-196 50q-195 0 -397 -56l-2 160q219 59 455 59t332 -89q98 -89 59 -304l-82 -457
q-13 -69 50 -69q28 0 67 6l-21 -148q-47 -16 -100 -22q-127 -74 -127 -172q0 -72 70 -72q45 0 77 13l-4 -111q-57 -23 -125 -23q-154 0 -153 146q0 125 135 221q-99 22 -86 127q-135 -143 -406 -143z" />
    <glyph glyph-name="aring.alt" horiz-adv-x="1220" 
d="M778 1493q-45 0 -76 -31q-30 -31 -34 -89t26 -85q30 -26 76 -26q45 0 79 30t37 90q3 59 -30 85t-78 26zM781 1579q93 0 155 -49q62 -50 59 -148q-2 -98 -65 -152q-64 -54 -158 -54t-156 50q-61 50 -57 148q5 98 67 152t155 53zM446 137q129 0 230 66q100 66 119 180
l18 104q-119 12 -242 13q-328 0 -327 -195q-1 -168 202 -168zM674 1081q236 0 332 -89q98 -89 59 -304l-82 -457q-13 -69 50 -69q28 0 67 6l-21 -148q-198 -62 -278 5q-43 37 -35 102q-135 -143 -406 -143q-154 0 -244 76t-89 227q0 350 542 350q96 0 269 -14l14 75
q24 121 -38 170t-196 50q-195 0 -397 -56l-2 160q219 59 455 59z" />
    <glyph glyph-name="atilde.alt" horiz-adv-x="1220" 
d="M846 1212q-51 0 -132 45t-120 46q-68 0 -115 -76l-67 33q82 174 223 174q53 0 135 -45q74 -45 110 -45t60 14t34 25q9 11 27 38l70 -35q-88 -174 -225 -174zM446 137q129 0 230 66q100 66 119 180l18 104q-119 12 -242 13q-328 0 -327 -195q-1 -168 202 -168zM674 1081
q236 0 332 -89q98 -89 59 -304l-82 -457q-13 -69 50 -69q28 0 67 6l-21 -148q-198 -62 -278 5q-43 37 -35 102q-135 -143 -406 -143q-154 0 -244 76t-89 227q0 350 542 350q96 0 269 -14l14 75q24 121 -38 170t-196 50q-195 0 -397 -56l-2 160q219 59 455 59z" />
    <glyph glyph-name="e.alt" horiz-adv-x="1218" 
d="M930 659q0 117 -68 188t-198 71t-226 -88t-129 -226h617q4 38 4 55zM658 1081q224 0 346 -122q121 -122 120 -330q0 -82 -24 -164h-803q6 -147 93 -231t264 -88q177 -3 354 92l22 -152q-78 -45 -192 -74t-220 -28q-246 0 -393 130t-144 391t178 419t399 157z" />
    <glyph glyph-name="eacute.alt" horiz-adv-x="1218" 
d="M975 1497l-246 -303h-162l207 303h201zM930 659q0 117 -68 188t-198 71t-226 -88t-129 -226h617q4 38 4 55zM658 1081q224 0 346 -122q121 -122 120 -330q0 -82 -24 -164h-803q6 -147 93 -231t264 -88q177 -3 354 92l22 -152q-78 -45 -192 -74t-220 -28q-246 0 -393 130
t-144 391t178 419t399 157z" />
    <glyph glyph-name="ebreve.alt" horiz-adv-x="1218" 
d="M709 1198q-248 0 -254 242l127 12q6 -145 139 -145t178 145l127 -12q-35 -126 -111 -184t-206 -58zM930 659q0 117 -68 188t-198 71t-226 -88t-129 -226h617q4 38 4 55zM658 1081q224 0 346 -122q121 -122 120 -330q0 -82 -24 -164h-803q6 -147 93 -231t264 -88
q177 -3 354 92l22 -152q-78 -45 -192 -74t-220 -28q-246 0 -393 130t-144 391t178 419t399 157z" />
    <glyph glyph-name="ecaron.alt" horiz-adv-x="1218" 
d="M1073 1487l-280 -305h-195l-174 305h164l112 -217l199 217h174zM930 659q0 117 -68 188t-198 71t-226 -88t-129 -226h617q4 38 4 55zM658 1081q224 0 346 -122q121 -122 120 -330q0 -82 -24 -164h-803q6 -147 93 -231t264 -88q177 -3 354 92l22 -152q-78 -45 -192 -74
t-220 -28q-246 0 -393 130t-144 391t178 419t399 157z" />
    <glyph glyph-name="ecircumflex.alt" horiz-adv-x="1218" 
d="M362 1182l281 305h195l174 -305h-164l-117 217l-194 -217h-175zM930 659q0 117 -68 188t-198 71t-226 -88t-129 -226h617q4 38 4 55zM658 1081q224 0 346 -122q121 -122 120 -330q0 -82 -24 -164h-803q6 -147 93 -231t264 -88q177 -3 354 92l22 -152q-78 -45 -192 -74
t-220 -28q-246 0 -393 130t-144 391t178 419t399 157z" />
    <glyph glyph-name="edieresis.alt" horiz-adv-x="1218" 
d="M903 1419q53 1 83 -27t28 -75q-4 -106 -115 -107q-53 0 -82 28t-27 77q6 104 113 104zM460 1419q54 1 84 -27t27 -75q-4 -106 -116 -107q-53 0 -82 28t-27 77t31 77t83 27zM930 659q0 117 -68 188t-198 71t-226 -88t-129 -226h617q4 38 4 55zM658 1081q224 0 346 -122
q121 -122 120 -330q0 -82 -24 -164h-803q6 -147 93 -231t264 -88q177 -3 354 92l22 -152q-78 -45 -192 -74t-220 -28q-246 0 -393 130t-144 391t178 419t399 157z" />
    <glyph glyph-name="edotaccent.alt" horiz-adv-x="1218" 
d="M702 1419q61 0 93 -26q31 -27 28 -76q-6 -107 -125 -107t-112 107q3 102 116 102zM930 659q0 117 -68 188t-198 71t-226 -88t-129 -226h617q4 38 4 55zM658 1081q224 0 346 -122q121 -122 120 -330q0 -82 -24 -164h-803q6 -147 93 -231t264 -88q177 -3 354 92l22 -152
q-78 -45 -192 -74t-220 -28q-246 0 -393 130t-144 391t178 419t399 157z" />
    <glyph glyph-name="egrave.alt" horiz-adv-x="1218" 
d="M498 1485h194l88 -303h-151zM930 659q0 117 -68 188t-198 71t-226 -88t-129 -226h617q4 38 4 55zM658 1081q224 0 346 -122q121 -122 120 -330q0 -82 -24 -164h-803q6 -147 93 -231t264 -88q177 -3 354 92l22 -152q-78 -45 -192 -74t-220 -28q-246 0 -393 130t-144 391
t178 419t399 157z" />
    <glyph glyph-name="emacron.alt" horiz-adv-x="1218" 
d="M1030 1378l-20 -125h-625l23 125h622zM930 659q0 117 -68 188t-198 71t-226 -88t-129 -226h617q4 38 4 55zM658 1081q224 0 346 -122q121 -122 120 -330q0 -82 -24 -164h-803q6 -147 93 -231t264 -88q177 -3 354 92l22 -152q-78 -45 -192 -74t-220 -28q-246 0 -393 130
t-144 391t178 419t399 157z" />
    <glyph glyph-name="eogonek.alt" horiz-adv-x="1218" 
d="M930 659q0 117 -68 188t-198 71t-226 -88t-129 -226h617q4 38 4 55zM658 1081q224 0 346 -122q121 -122 120 -330q0 -82 -24 -164h-803q6 -147 93 -231t264 -88q177 -3 354 92l22 -152q-57 -33 -153 -63q-135 -76 -136 -197q0 -72 70 -72q45 0 78 13l-4 -111
q-57 -23 -125 -23q-154 0 -154 146q0 115 111 211q-53 -6 -99 -6q-246 0 -393 130t-144 391t178 419t399 157z" />
    <glyph glyph-name="j.alt" horiz-adv-x="569" 
d="M433 1231q-120 0 -116 106q6 105 126 105t114 -105q-4 -106 -124 -106zM522 1065l-178 -1004q-28 -173 -155 -271q-102 -80 -173 -109t-73 -29l-52 143q203 72 236 248l154 870h-142l27 152h356z" />
    <glyph glyph-name="jcircumflex.alt" horiz-adv-x="569" 
d="M51 1163l281 305h194l174 -305h-163l-117 217l-195 -217h-174zM522 1065l-178 -1004q-28 -173 -155 -271q-102 -80 -173 -109t-73 -29l-52 143q203 72 236 248l154 870h-142l27 152h356z" />
    <glyph glyph-name="f_b" horiz-adv-x="1996" 
d="M1327 147q94 0 167 42q123 71 170 248q19 73 19 147q1 154 -77 242t-212 89q-134 -1 -216 -75q-148 -132 -148 -361q0 -152 79 -242t218 -90zM928 1169q0 185 -194 185t-234 -228l-13 -61h240l-27 -152h-239l-199 -1138h-215l199 1138h-152l27 152h151l9 49
q35 186 150 294t303 108t296 -88t109 -265q0 -35 -15 -121l-16 -100q127 139 345 139t334 -133q116 -134 116 -372q-1 -238 -141 -414t-402 -178q-141 -2 -242 58q-100 60 -147 163l-43 -205h-201l191 1092q10 61 10 77z" />
    <glyph glyph-name="f_f_b" horiz-adv-x="2609" 
d="M1942 147q94 0 166 42q123 71 170 248q19 73 20 147q0 154 -78 242t-211 89q-133 -1 -217 -75q-149 -132 -147 -361q0 -152 79 -242t218 -90zM1546 1184q0 182 -190 182q-88 0 -153 -56t-87 -169l-14 -76h239l-28 -152h-236l-200 -1138h-215l200 1138h-389l-199 -1138
h-215l199 1138h-164l29 152h162l24 131q27 150 104 235t244 85q98 0 209 -27l-41 -154q-63 18 -118 19q-156 0 -183 -160l-24 -129h389l14 80q31 176 147 280q116 105 301 105t298 -83t112 -253q0 -45 -12 -109l-25 -141q127 137 344 137t333 -133q116 -134 116 -372
t-140 -414t-403 -178q-141 -2 -241 58t-148 163l-43 -205h-201l195 1106q10 53 10 78z" />
    <glyph glyph-name="f_f_h" horiz-adv-x="2537" 
d="M2079 1081q186 0 268 -98t82 -254q0 -55 -10 -121l-109 -608h-213l105 606q10 57 10 88q0 223 -219 224q-135 0 -221 -94t-117 -265l-99 -559h-215l195 1106q10 53 10 78q0 94 -52 138t-140 44t-153 -56t-85 -169l-14 -76h239l-28 -152h-238l-196 -1138h-217l198 1138
h-389l-199 -1138h-213l199 1138h-164l29 152h162l24 131q27 150 104 235t244 85q98 0 209 -27l-41 -154q-63 18 -118 19q-158 0 -185 -160l-24 -129h389l16 80q31 176 147 280q116 105 301 105t298 -83t112 -253q0 -45 -12 -109l-29 -161q130 157 359 157z" />
    <glyph glyph-name="f_f_k" horiz-adv-x="2404" 
d="M1540 1186q0 94 -51 139t-138 45t-153 -57t-86 -168l-14 -76h239l-28 -151h-238l-197 -1143h-215l197 1143h-387l-197 -1143h-217l199 1143h-164l27 151h164l24 131q29 154 105 237t252 83q90 0 200 -27l-41 -154q-63 19 -133 19t-110 -38t-58 -122l-24 -129h387l14 80
q33 179 149 281t301 102t298 -82t112 -252q0 -47 -12 -111l-96 -522l573 504h246l-461 -403l287 -662h-226l-221 520l-241 -211l-54 -309h-215l195 1104q8 45 8 78z" />
    <glyph glyph-name="f_h" horiz-adv-x="1923" 
d="M1460 1081q186 0 268 -98t82 -254q0 -55 -10 -121l-108 -608h-213l104 606q10 57 10 88q0 223 -219 224q-135 0 -221 -94t-117 -265l-98 -559h-215l192 1092q10 55 11 77q0 184 -191 185q-92 0 -154 -58t-83 -170l-11 -61h248l-26 -152h-246l-199 -1138h-215l199 1138
h-154l27 152h151l9 49q33 184 150 293t303 109t294 -88t107 -267q0 -57 -15 -133l-18 -104q129 157 358 157z" />
    <glyph glyph-name="f_k" horiz-adv-x="1794" 
d="M928 1169q0 185 -191 185q-94 0 -155 -58t-82 -170l-11 -61h246l-26 -152h-246l-199 -1138h-215l199 1138h-154l27 152h153l9 49q31 184 147 293q117 109 302 109t296 -88t111 -267q0 -41 -15 -133l-86 -467l574 504h246l-461 -403l286 -662h-225l-221 520l-242 -211
l-53 -309h-215l193 1092q8 45 8 77z" />
    <glyph glyph-name="zero.tnum" 
d="M825 1274q-113 0 -197 -56t-134 -154q-97 -193 -108 -418q-11 -226 72 -355t247 -129q308 0 406 413q83 353 -38 564q-78 135 -248 135zM834 1456q256 0 403 -162t139 -469q-12 -338 -172 -582q-80 -122 -211 -194t-299 -72q-256 0 -403 161t-139 485t170 569
q80 120 212 192t300 72z" />
    <glyph glyph-name="one.tnum" 
d="M1014 1436l-223 -1272h378l-28 -164h-1004l31 164h399l185 1053l-363 -127l-59 155l510 191h174z" />
    <glyph glyph-name="two.tnum" 
d="M856 1460q205 0 327 -104t122 -282q-1 -178 -93 -307q-92 -130 -288 -263l-465 -320h704l-33 -184h-1026l31 170l666 473q143 113 206 199q62 86 62 198t-75 173q-75 62 -195 63q-195 0 -426 -119l-45 174q102 57 248 93t280 36z" />
    <glyph glyph-name="three.tnum" 
d="M1030 1062q0 210 -297 210q-143 0 -334 -74l-39 164q82 42 215 70t242 28q191 0 319 -92t128 -262q0 -138 -89 -232t-251 -118q136 -37 206 -131t70 -224q0 -205 -161 -315t-439 -111q-278 0 -473 123l61 162q72 -39 186 -70t230 -30q166 0 263 72t97 208q0 135 -108 195
q-89 49 -217 49h-160l27 154h162q152 0 257 57t105 167z" />
    <glyph glyph-name="four.tnum" 
d="M1004 1149l-662 -655h549zM1272 1436l-166 -942h184l-28 -166h-185l-59 -328h-217l59 328h-786l24 159l961 949h213z" />
    <glyph glyph-name="five.tnum" 
d="M795 909q215 -1 331 -113t117 -315q0 -244 -165 -376q-166 -132 -448 -132t-507 144l90 151q195 -116 389 -116t299 80q107 80 107 228q0 146 -79 218t-209 72t-288 -101l-129 86l172 699h832l-33 -179h-662l-100 -409q133 63 283 63z" />
    <glyph glyph-name="six.tnum" 
d="M711 147q182 0 283 126q58 73 63 182q8 143 -78 221t-227 76q-174 0 -264 -98t-90 -226q1 -127 85 -204t228 -77zM946 1456q233 0 430 -115l-84 -157q-160 92 -364 92t-348 -152q-143 -152 -189 -393q147 182 440 182q209 1 340 -115t121 -331t-164 -352t-412 -137
t-398 130q-140 132 -150 369q-16 219 61 434q78 215 228 353q202 192 489 192z" />
    <glyph glyph-name="seven.tnum" 
d="M1434 1434l-31 -166l-854 -1268h-268l860 1243h-856l34 191h1115z" />
    <glyph glyph-name="eight.tnum" 
d="M817 1288q-129 0 -215 -64t-88 -169q-2 -103 73 -161t205 -58t213 60t86 164t-71 166t-203 62zM730 668q-155 0 -254 -73t-103 -194t85 -193q88 -72 242 -71q154 0 251 73t101 197q4 125 -82 193q-85 68 -240 68zM822 1458q228 0 362 -105t129 -274q-4 -129 -88 -214
t-234 -115q143 -33 221 -127t74 -224q-4 -199 -166 -311t-423 -113q-261 0 -411 110t-149 298q5 143 103 249t278 138q-113 35 -170 116t-53 183q2 178 150 284q149 105 377 105z" />
    <glyph glyph-name="nine.tnum" 
d="M810 1286q-130 0 -237 -65q-53 -33 -87 -95t-37 -147q-6 -143 79 -221t226 -76q174 0 265 98t90 225t-85 204t-214 77zM559 -23q-231 0 -430 115l84 158q159 -92 369 -92t352 151q127 131 178 377q-150 -166 -440 -166q-209 0 -339 116t-121 331t165 352t415 137
t397 -131t148 -369q15 -221 -59 -436t-221 -352q-197 -191 -498 -191z" />
    <glyph glyph-name="exclamdown.case" horiz-adv-x="540" 
d="M392 1460q56 0 90 -28t30 -82q-4 -53 -37 -85t-89 -32t-89 29t-29 82q4 52 36 84t88 32zM434 1020l-145 -1022h-246l215 1022h176z" />
    <glyph glyph-name="questiondown.case" horiz-adv-x="978" 
d="M664 1233q-55 0 -89 29q-33 29 -29 83t37 85q32 30 87 30t89 -28q33 -28 29 -82q-4 -55 -36 -86t-88 -31zM244 328q0 -178 256 -178q124 0 305 90l57 -148q-220 -112 -404 -112t-296 82q-113 82 -113 243q0 100 43 176t109 123q67 47 133 87q169 102 196 218q2 6 21 127
h166q-8 -281 -210 -409q-63 -41 -123 -81q-140 -93 -140 -218z" />
    <glyph glyph-name="braceleft.case" horiz-adv-x="688" 
d="M649 1372q-137 0 -162 -145l-79 -461q-20 -123 -154 -141q125 -16 100 -162l-80 -445q-29 -143 109 -143h88l-29 -160h-96q-172 0 -221 79t-25 222l76 437q18 106 -74 106h-32l22 131h27q98 0 117 92l81 469q27 141 93 211t217 70h137l-29 -160h-86z" />
    <glyph glyph-name="braceright.case" horiz-adv-x="686" 
d="M350 1532q172 0 220 -79t24 -222l-76 -436q-16 -109 78 -109h31l-23 -129h-24q-102 0 -119 -92l-82 -469q-25 -141 -91 -211t-218 -70h-138l29 160h86q135 0 162 143l80 463q20 127 153 144q-125 14 -100 157l80 447q29 143 -109 143h-90l29 160h98z" />
    <glyph glyph-name="bracketleft.case" horiz-adv-x="634" 
d="M707 1532l-29 -166h-197l-266 -1497h199l-29 -164h-373l322 1827h373z" />
    <glyph glyph-name="bracketright.case" horiz-adv-x="634" 
d="M633 1532l-322 -1827h-372l28 164h197l264 1497h-197l29 166h373z" />
    <glyph glyph-name="parenleft.case" horiz-adv-x="737" 
d="M340 487q0 -414 219 -712h-221q-86 100 -153 293q-67 192 -67 402t40 378q39 168 97 291q153 325 419 549h223q-88 -82 -145 -142q-56 -60 -144 -176t-139 -232t-90 -288t-39 -363z" />
    <glyph glyph-name="parenright.case" horiz-adv-x="731" 
d="M438 975q0 420 -219 713h221q86 -100 153 -293t67 -425t-57 -430q-89 -314 -324 -591q-84 -98 -175 -174h-223q88 82 146 141q57 59 144 176t138 233q51 115 90 287t39 363z" />
    <glyph glyph-name="emdash.case" horiz-adv-x="1806" 
d="M1692 795l-29 -162h-1520l31 162h1518z" />
    <glyph glyph-name="endash.case" horiz-adv-x="1464" 
d="M1350 795l-29 -160l-1169 -2l30 162h1168z" />
    <glyph glyph-name="hyphen.case" horiz-adv-x="1030" 
d="M920 795l-31 -162h-744l31 162h744z" />
    <glyph glyph-name="hyphen.tnum" 
d="M1163 731l-30 -162h-824l31 162h823z" />
    <glyph glyph-name="guillemotleft.case" horiz-adv-x="1267" 
d="M606 1110l103 -115l-394 -403l242 -393l-129 -95l-342 482l8 45zM1124 1110l103 -115l-393 -403l241 -393l-129 -95l-342 482l8 45z" />
    <glyph glyph-name="guillemotright.case" horiz-adv-x="1288" 
d="M49 217l393 406l-241 393l129 94l342 -479l-6 -47l-512 -480zM567 217l391 406l-239 393l129 94l342 -479l-6 -47l-512 -480z" />
    <glyph glyph-name="guilsinglleft.case" horiz-adv-x="747" 
d="M709 995l-394 -403l242 -393l-129 -95l-342 482l8 45l512 479z" />
    <glyph glyph-name="guilsinglright.case" horiz-adv-x="727" 
d="M25 217l393 406l-242 393l129 94l342 -479l-6 -47l-512 -480z" />
    <glyph glyph-name="cent.tnum" 
d="M823 150h-37l-36 -205h-123l41 223q-176 41 -284 162t-108 323q0 250 162 412t422 180l35 207h123l-37 -207q158 -18 283 -88l-72 -141q-117 68 -266 67q-199 -1 -314 -123q-114 -122 -114 -292t93 -260q93 -92 248 -92t283 71l52 -139q-154 -98 -351 -98z" />
    <glyph glyph-name="dollar.tnum" 
d="M838 1274q-154 0 -218 -60t-65 -147q0 -86 65 -138q66 -53 188 -103t176 -78q147 -78 191 -184q26 -62 25 -146q0 -178 -120 -304t-384 -139l-30 -176h-138l31 178q-231 27 -409 144l71 172q248 -143 463 -135q139 2 208 64t69 157q-1 26 -11 61t-24 50q-14 14 -24 26
t-34 26q-23 14 -44 26q-21 13 -58 28q-37 14 -115 46t-127 58q-49 27 -102 72q-107 91 -107 265q0 175 124 294t382 127l33 182h123l-33 -186q199 -20 391 -133l-80 -176q-215 129 -417 129z" />
    <glyph glyph-name="Euro.tnum" 
d="M949 164q191 0 347 76l-10 -185q-166 -76 -381 -75q-287 0 -460 154t-212 394h-178l41 101h127v33q0 76 10 133h-167l51 100h139q72 249 278 405t517 156q248 0 426 -113l-80 -155q-155 84 -351 84t-340 -104t-202 -273h670l-52 -100h-645q-10 -49 -10 -121v-45h592
l-41 -101h-537q37 -166 157 -265t311 -99z" />
    <glyph glyph-name="sterling.tnum" 
d="M649 537q0 -147 -57 -237t-125 -134h721l-29 -166h-1016l27 156q99 20 166 93q32 35 60 107t28 146t-8 123h-158l21 116h118q-14 96 -14 195q0 260 148 390q147 130 387 130t430 -123l-93 -151q-9 8 -27 16t-34 17t-28 13t-30 13q-18 8 -34 12q-16 5 -39 11
q-58 16 -137 16q-154 0 -237 -86t-83 -256q0 -94 19 -197h497l-20 -116h-459q6 -43 6 -88z" />
    <glyph glyph-name="yen.tnum" 
d="M1499 1434l-663 -856l-13 -62h246l-18 -100h-244l-16 -101h241l-16 -100h-242l-39 -215h-229l39 215h-244l18 100h242l17 101h-242l18 100h242l12 62l-362 856h227l272 -660l500 660h254z" />
    <glyph glyph-name="divide.tnum" 
d="M789 1139q49 0 81 -28t27 -76q-4 -48 -34 -79q-30 -30 -78 -30q-49 0 -79 26t-27 73q3 48 32 81t78 33zM663 418q51 0 81 -27t26 -75t-33 -78t-78 -29q-49 -1 -79 25t-28 73q3 47 32 79t79 32zM1198 737l-24 -139h-926l24 139h926z" />
    <glyph glyph-name="equal.tnum" 
d="M1110 567l-25 -145h-784l27 145h782zM1174 932l-27 -146h-782l26 146h783z" />
    <glyph glyph-name="multiply.tnum" 
d="M498 1128l272 -331l389 331l92 -110l-389 -332l273 -330l-131 -110l-273 329l-389 -329l-90 110l389 330l-272 332z" />
    <glyph glyph-name="percent.tnum" 
d="M594 1149q0 170 -159 170q-79 0 -130 -67t-51 -165q0 -184 152 -184q88 0 138 66t50 180zM469 1458q123 0 199 -79t75 -210q0 -189 -97 -295t-267 -106q-123 0 -200 79t-77 208q0 187 98 295t269 108zM924 299q0 -184 160 -184q78 -1 129 65q50 66 51 178q0 172 -159 172
q-79 0 -130 -66t-51 -165zM1139 668q123 0 199 -78t75 -209q0 -188 -97 -296t-267 -108q-123 0 -200 79t-77 208q0 188 98 296q99 108 269 108zM1358 1434l-1028 -1434h-176l1032 1434h172z" />
    <glyph glyph-name="plus.tnum" 
d="M885 1155l-68 -391h395l-28 -158h-396l-65 -377h-166l68 377h-383l28 158h383l68 391h164z" />
    <glyph glyph-name="acute.case" horiz-adv-x="618" 
d="M668 1397l-209 -234h-160l172 234h197z" />
    <glyph glyph-name="breve.case" horiz-adv-x="677" 
d="M467 1180q-240 0 -242 223l125 8q4 -123 130 -123t171 123l121 -8q-34 -119 -108 -171t-197 -52z" />
    <glyph glyph-name="caron.case" horiz-adv-x="733" 
d="M846 1397l-275 -234h-192l-182 234h163l121 -154l187 154h178z" />
    <glyph glyph-name="circumflex.case" horiz-adv-x="768" 
d="M168 1163l274 234h193l182 -234h-164l-121 154l-186 -154h-178z" />
    <glyph glyph-name="dieresis.case" horiz-adv-x="825" 
d="M764 1393q55 0 84 -27t26 -74q-4 -100 -110 -100q-51 0 -79 27t-26 73q5 101 105 101zM319 1393q55 0 84 -27t27 -74q-4 -100 -111 -100q-51 0 -79 27t-25 73q4 101 104 101z" />
    <glyph glyph-name="dotaccent.case" horiz-adv-x="528" 
d="M389 1393q55 0 84 -27t27 -74q-4 -100 -111 -100q-51 0 -79 27t-25 73q4 101 104 101z" />
    <glyph glyph-name="grave.case" horiz-adv-x="559" 
d="M479 1395l82 -232h-149l-125 232h192z" />
    <glyph glyph-name="hungarumlaut.case" horiz-adv-x="808" 
d="M555 1397l-229 -234h-158l182 234h205zM887 1397l-230 -234h-157l182 234h205z" />
    </font>
</defs>
</svg>
