<?xml version="1.0" standalone="no"?>
<!DOCTYPE svg PUBLIC "-//W3C//DTD SVG 1.1//EN" "http://www.w3.org/Graphics/SVG/1.1/DTD/svg11.dtd" >
<svg xmlns="http://www.w3.org/2000/svg">
<metadata>
Created by FontPrep 20130207 at Wed Nov 20 02:17:55 2013
 By MacMini
Copyright (c) 2011 by typedepot. All rights reserved.
</metadata>
<defs>
<font id="1c655fab601ffc026afa8f553e514127" horiz-adv-x='1024' >
  <font-face 
    font-family="CentraleSansXThin-Italic"
    font-weight="250"
    font-style="italic"
    font-stretch="normal"
    units-per-em="2048"
    panose-1="2 0 0 0 0 0 0 0 0 0"
    ascent="1536"
    descent="-512"
    x-height="1065"
    cap-height="1434"
    bbox="-436 -387 2824 1839"
    underline-thickness="102"
    underline-position="-102"
    slope="-10"
    unicode-range="U+000D-FB04"
  />
<missing-glyph horiz-adv-x="1271" 
d="M358 1423l-280 -1593l555 799zM1231 1423l-559 -800l276 -793zM926 -211l-279 799l-555 -799h834zM1214 1464h-833l276 -800zM1278 1499l-307 -1745h-940l307 1745h940z" />
    <glyph glyph-name="f_f" unicode="ff" horiz-adv-x="1173" 
d="M1139 1520q68 0 153 -25l-8 -33q-63 23 -141 23q-121 0 -174 -65t-78 -195l-29 -160h332l-6 -33h-330l-223 -1257h-41l223 1257h-498l-223 -1257h-41l224 1257h-129l6 33h129l26 154q27 145 92 218q66 73 197 72q66 0 152 -24l-9 -33q-80 23 -141 23q-117 0 -172 -66
t-78 -192l-26 -152h497l29 166q25 145 90 217q66 72 197 72z" />
    <glyph glyph-name="f_f_i" unicode="ffi" horiz-adv-x="1589" 
d="M1209 1520q144 0 268 -90l-17 -29q-111 86 -245 86t-219 -72t-107 -205l-27 -145h617l-189 -1065h-41l183 1032h-574l-223 -1257h-41l221 1257h-496l-221 -1257h-41l222 1257h-129l6 33h129l26 149q27 147 93 222q67 74 200 73q68 0 148 -24l-9 -33q-74 23 -139 23
q-117 0 -173 -66t-79 -197l-26 -147h495l27 149q27 146 122 226t239 80z" />
    <glyph glyph-name="f_f_l" unicode="ffl" horiz-adv-x="1636" 
d="M1458 1241q0 123 -67 183q-68 60 -187 61q-266 0 -325 -332l-17 -88h309l-6 -33h-309l-221 -1257h-41l221 1257h-496l-221 -1257h-41l222 1257h-129l6 33h129l30 166q25 133 92 206t203 72q78 0 164 -26l-12 -33q-70 25 -168 25q-192 0 -238 -242l-30 -168h495l17 90
q66 365 362 365q137 0 217 -72t80 -207q0 -39 -16 -143l-170 -975q-12 -61 6 -81t65 -19l70 2l14 2l-6 -33l-16 -2l-76 -2q-63 0 -88 28t-10 107l170 973q18 111 18 143z" />
    <glyph glyph-name=".notdef" horiz-adv-x="1271" 
d="M358 1423l-280 -1593l555 799zM1231 1423l-559 -800l276 -793zM926 -211l-279 799l-555 -799h834zM1214 1464h-833l276 -800zM1278 1499l-307 -1745h-940l307 1745h940z" />
    <glyph glyph-name=".null" horiz-adv-x="0" 
 />
    <glyph glyph-name=".null" horiz-adv-x="0" 
 />
    <glyph glyph-name="nonmarkingreturn" horiz-adv-x="681" 
 />
    <glyph glyph-name="CR" unicode="&#xd;" horiz-adv-x="577" 
 />
    <glyph glyph-name="space" unicode=" " horiz-adv-x="542" 
 />
    <glyph glyph-name="exclam" unicode="!" horiz-adv-x="499" 
d="M129 0l33 182h33l-33 -182h-33zM424 1444l-203 -1122h-39l195 1122h47z" />
    <glyph glyph-name="quotedbl" unicode="&#x22;" horiz-adv-x="706" 
d="M434 1434l-147 -455h-33l133 455h47zM666 1434l-148 -455h-33l133 455h48z" />
    <glyph glyph-name="numbersign" unicode="#" horiz-adv-x="1591" 
d="M666 1020l-217 -619h516l217 619h-516zM1536 1059l-14 -39h-299l-217 -619h303l-15 -39h-303l-127 -362h-41l127 362h-516l-127 -362h-41l127 362h-307l14 39h308l217 619h-306l15 39h305l135 381h39l-135 -381h518l135 381h39l-135 -381h301z" />
    <glyph glyph-name="dollar" unicode="$" horiz-adv-x="1234" 
d="M727 1409q-229 0 -327 -90t-97 -218q0 -128 78 -197q79 -70 271 -144t249 -109q152 -98 152 -274q0 -177 -125 -283t-363 -106h-22l-27 -152h-35l27 154q-213 14 -436 145l12 35q254 -145 483 -145t334 101t105 257t-152 244q-64 37 -146 69q-84 30 -134 50
q-237 91 -290 210q-26 57 -26 136q0 164 122 259t343 95h29l28 168h35l-31 -170q211 -16 390 -131l-17 -33q-201 129 -430 129z" />
    <glyph glyph-name="percent" unicode="%" horiz-adv-x="1615" 
d="M1397 1440l-1084 -1440h-43l1084 1440h43zM797 1132q0 286 -257 287q-128 0 -215 -102q-87 -101 -87 -241t68 -212t194 -72q128 0 213 100q84 98 84 240zM542 1450q292 0 292 -316q0 -156 -96 -266q-96 -108 -240 -108q-146 0 -222 81t-76 235t98 264t244 110zM885 306
q-1 -140 67 -213t196 -73t212 100t84 240q0 142 -66 216t-192 73q-127 0 -214 -102q-87 -101 -87 -241zM1188 680q292 0 293 -318q1 -156 -95 -264t-242 -108t-222 80q-74 80 -74 234t97 266q97 110 243 110z" />
    <glyph glyph-name="ampersand" unicode="&#x26;" horiz-adv-x="1304" 
d="M393 1135q0 -68 30 -136t105 -176q205 109 293 189t88 183t-61 159t-170 55q-109 1 -197 -69t-88 -205zM432 25q246 0 465 223l-381 530q-80 -43 -117 -63q-37 -19 -105 -67t-98 -88q-32 -40 -59 -104t-26 -137q0 -145 87 -219t234 -75zM354 1135q0 151 98 231t225 80
q126 0 199 -65q72 -65 72 -183t-93 -205q-93 -88 -304 -198q0 -2 2 -2l373 -517q72 78 194 256l29 -20q-104 -160 -203 -266l178 -246h-47l-157 217q-229 -229 -492 -229q-160 0 -259 84t-99 243q0 218 196 357q91 64 230 135q-78 109 -110 179t-32 149z" />
    <glyph glyph-name="quotesingle" unicode="'" horiz-adv-x="475" 
d="M436 1434l-147 -455h-33l133 455h47z" />
    <glyph glyph-name="parenleft" unicode="(" horiz-adv-x="698" 
d="M127 394q0 -214 84 -410t203 -301h-47q-115 100 -199 304q-84 203 -84 411q0 387 203 689q178 267 389 412h55q-106 -74 -204 -172q-249 -251 -343 -543q-56 -176 -57 -390z" />
    <glyph glyph-name="parenright" unicode=")" horiz-adv-x="677" 
d="M541 784q0 -522 -391 -929q-99 -102 -201 -172h-55q220 154 397 405q207 296 207 700q0 214 -84 410t-203 301h49q113 -102 197 -305q84 -202 84 -410z" />
    <glyph glyph-name="asterisk" unicode="*" horiz-adv-x="780" 
d="M553 1538l43 -10l-64 -275l267 105l14 -41l-270 -90l217 -176l-31 -37l-207 192l-49 -280l-41 8l66 276l-271 -104l-16 45l274 88l-217 176l27 35l211 -190z" />
    <glyph glyph-name="plus" unicode="+" horiz-adv-x="1085" 
d="M657 1087l-69 -393h393l-6 -32h-393l-70 -392h-33l70 392h-391l6 32h391l70 393h32z" />
    <glyph glyph-name="comma" unicode="," horiz-adv-x="458" 
d="M84 -135l-23 14q63 76 74 146l33 178h37l-33 -183q-16 -81 -88 -155z" />
    <glyph glyph-name="hyphen" unicode="-" horiz-adv-x="1026" 
d="M879 582l-11 -41h-710l10 41h711z" />
    <glyph glyph-name="period" unicode="." horiz-adv-x="430" 
d="M94 0l37 203h37l-37 -203h-37z" />
    <glyph glyph-name="slash" unicode="/" horiz-adv-x="1064" 
d="M1112 1507l-1216 -1855h-41l1216 1855h41z" />
    <glyph glyph-name="zero" unicode="0" horiz-adv-x="1396" 
d="M780 1411q-150 -1 -264 -67t-180 -183q-134 -231 -146 -537q-12 -305 115 -453t336 -148q153 -1 267 67q204 120 282 442q35 139 43 302q12 281 -115 429t-338 148zM782 1446q230 0 368 -156t126 -452q-28 -638 -399 -803q-106 -47 -238 -47q-229 0 -367 155
q-137 156 -125 478t152 563q71 122 195 192t288 70z" />
    <glyph glyph-name="one" unicode="1" horiz-adv-x="641" 
d="M549 1440l-254 -1440h-43l246 1397l-285 -131l-12 32l309 142h39z" />
    <glyph glyph-name="two" unicode="2" horiz-adv-x="1196" 
d="M693 1454q205 0 317 -93t110 -282q0 -145 -83 -270t-298 -283l-661 -489h876l-6 -37h-940l4 33l705 524q193 143 275 262t83 275q0 156 -99 239q-99 84 -286 84t-389 -106l-8 39q195 104 400 104z" />
    <glyph glyph-name="three" unicode="3" horiz-adv-x="1099" 
d="M627 1454q176 0 281 -86q106 -86 106 -236t-102 -241q-102 -92 -271 -117q137 -27 220 -119t83 -245q0 -199 -139 -313q-139 -113 -386 -113t-429 96l12 35q178 -95 410 -95t359 104q128 104 128 286q0 96 -35 167q-60 121 -210 163q-60 17 -124 18h-159l8 35h158
q154 0 281 71q67 37 109 105t42 157q-1 139 -95 215t-252 76t-372 -88l-6 35q207 90 383 90z" />
    <glyph glyph-name="four" unicode="4" horiz-adv-x="1234" 
d="M1032 1376l-915 -964h745zM1087 1440l-182 -1028h195l-6 -37h-197l-66 -375h-43l68 375h-797l7 35l981 1030h40z" />
    <glyph glyph-name="five" unicode="5" horiz-adv-x="1165" 
d="M625 854q193 0 307 -110t112 -318q0 -208 -152 -328q-152 -118 -390 -118q-240 0 -443 110l15 31q197 -105 424 -105t364 110t137 302t-105 292q-104 100 -280 99q-176 0 -362 -117l-33 21l176 711h727l-8 -37h-688l-162 -649q168 106 361 106z" />
    <glyph glyph-name="six" unicode="6" horiz-adv-x="1325" 
d="M694 834q-196 0 -318 -104q-124 -104 -153 -279q-29 -174 87 -300t325 -126q132 0 219 40q86 39 133 83q109 101 123 290q14 188 -103 292t-313 104zM889 1446q170 0 352 -76l-14 -35q-174 74 -342 74q-295 0 -471 -235q-147 -188 -195 -486q-12 -86 -12 -145
q53 153 182 239t331 86t324 -116t108 -326q-16 -211 -160 -325q-144 -113 -355 -113t-325 103t-138 263q-36 190 22 436t191 410q191 246 502 246z" />
    <glyph glyph-name="seven" unicode="7" horiz-adv-x="1046" 
d="M1104 1434l-6 -35l-873 -1399h-53l875 1395h-852l8 39h901z" />
    <glyph glyph-name="eight" unicode="8" horiz-adv-x="1284" 
d="M758 1417q-186 0 -307 -93q-121 -94 -129 -240t93 -223t297 -77t310 81t124 227q9 146 -96 235q-106 90 -292 90zM659 739q-227 0 -365 -97t-148 -263t118 -264q127 -99 346 -99q218 0 356 104t146 271q8 168 -110 258t-343 90zM759 1452q205 0 321 -98t108 -262
q-18 -279 -365 -334q162 -27 254 -126t82 -239q-10 -188 -161 -300q-150 -111 -390 -111t-378 108t-129 277q9 168 128 273t320 126q-135 27 -207 111t-63 206q8 165 141 267t339 102z" />
    <glyph glyph-name="nine" unicode="9" horiz-adv-x="1310" 
d="M707 1409q-168 0 -297 -80q-72 -43 -118 -126t-52 -197q-12 -199 105 -303q119 -103 313 -103t320 106t148 279q22 174 -96 299q-116 125 -323 125zM704 1446q212 0 326 -104t141 -265q37 -188 -16 -433t-182 -411q-186 -246 -498 -245q-168 0 -354 75l12 35
q176 -74 346 -73q293 0 467 237q145 193 187 483q8 66 8 129q-49 -141 -179 -225t-330 -84t-325 116q-125 117 -113 327t155 324t355 114z" />
    <glyph glyph-name="colon" unicode=":" horiz-adv-x="423" 
d="M94 0l37 203h37l-37 -203h-37zM246 860l37 205h36l-36 -205h-37z" />
    <glyph glyph-name="semicolon" unicode=";" horiz-adv-x="483" 
d="M86 -135l-23 14q63 76 74 146l31 178h37l-31 -183q-20 -85 -88 -155zM285 862l37 203h36l-36 -203h-37z" />
    <glyph glyph-name="less" unicode="&#x3c;" horiz-adv-x="1185" 
d="M84 668l4 28l1096 359l-8 -39l-1033 -334l914 -336l-6 -37z" />
    <glyph glyph-name="equal" unicode="=" horiz-adv-x="1050" 
d="M866 514l-4 -33h-690l4 33h690zM922 834l-4 -33h-691l4 33h691z" />
    <glyph glyph-name="greater" unicode="&#x3e;" horiz-adv-x="1187" 
d="M1155 698l-6 -30l-1094 -359l6 41l1035 334l-916 334l8 37z" />
    <glyph glyph-name="question" unicode="?" horiz-adv-x="935" 
d="M289 0l33 182h32l-32 -182h-33zM573 1446q169 0 267 -70t98 -215q0 -83 -35 -149t-88 -108t-119 -87t-123 -85t-103 -103t-61 -147t-28 -163h-39q14 88 20 117t11 58q17 94 77 168t134 122t146 98q168 116 167 281q0 129 -84 187q-85 58 -241 59q-156 0 -318 -90l-10 33
q160 94 329 94z" />
    <glyph glyph-name="at" unicode="@" horiz-adv-x="1927" 
d="M935 985q-169 0 -257 -120q-88 -119 -92 -285t82 -262t252 -97q166 0 251 121q86 121 86 291t-76 261q-77 91 -246 91zM1849 731q0 -237 -106 -391t-303 -154q-113 0 -164 50t-47 141q-94 -188 -324 -189q-168 0 -264 106t-92 288t104 308t295 126q146 0 232 -78
t104 -213l53 283h29l-102 -584q-33 -207 176 -207q98 0 173 44t118 120q82 145 83 334q2 365 -234 524q-216 145 -523 143q-408 0 -658 -232t-249 -624q0 -358 210 -541t547 -184q283 0 523 107l8 -31q-266 -106 -514 -106q-248 -1 -421 77t-281 251t-107 425q0 406 259 648
t677 241q418 0 637 -224q161 -168 161 -458z" />
    <glyph glyph-name="A" unicode="A" horiz-adv-x="1413" 
d="M864 1403h-4l-563 -950h793zM895 1444l346 -1444h-43l-98 418h-821l-242 -418h-49l852 1444h55z" />
    <glyph glyph-name="B" unicode="B" horiz-adv-x="1390" 
d="M864 743q154 1 258 95t104 240t-93 234q-94 88 -236 87h-489l-115 -656h571zM782 35q166 0 283 101t117 263q0 129 -83 221t-214 91h-598l-119 -676h614zM915 1434q145 0 249 -96t106 -238q0 -142 -78 -242t-219 -129q123 -29 187 -121t65 -211q0 -173 -126 -285
t-327 -112h-651l252 1434h542z" />
    <glyph glyph-name="C" unicode="C" horiz-adv-x="1347" 
d="M940 1446q238 0 432 -109l-14 -30q-192 104 -390 104q-378 0 -579 -224t-202 -527q-1 -302 168 -470t446 -167q174 0 409 86l9 -33q-231 -88 -420 -88q-299 0 -477 176t-179 495q1 213 95 391t279 286q185 110 423 110z" />
    <glyph glyph-name="D" unicode="D" horiz-adv-x="1548" 
d="M780 1399h-368l-240 -1364h459q338 0 551 201t213 544q0 291 -162 455t-453 164zM766 1434q303 0 487 -164q185 -164 185 -504t-222 -553t-589 -213h-504l254 1434h389z" />
    <glyph glyph-name="E" unicode="E" horiz-adv-x="1331" 
d="M1331 1434l-8 -35h-913l-121 -684h788l-6 -35h-788l-113 -645h948l-6 -35h-991l254 1434h956z" />
    <glyph glyph-name="F" unicode="F" horiz-adv-x="1251" 
d="M1331 1434l-8 -35h-913l-123 -694h788l-6 -35h-788l-117 -670h-43l254 1434h956z" />
    <glyph glyph-name="G" unicode="G" horiz-adv-x="1574" 
d="M946 1446q256 0 469 -98l-12 -29q-207 92 -457 92q-360 0 -556 -214q-196 -213 -200 -521t161 -480t468 -173q238 0 486 149l79 459h-417l6 35h457l-89 -510q-268 -168 -528 -168q-324 0 -497 184t-169 483q4 339 214 565t585 226z" />
    <glyph glyph-name="H" unicode="H" horiz-adv-x="1511" 
d="M160 0h-41l254 1434h39l-123 -697h987l123 697h39l-252 -1434h-41l125 702h-987z" />
    <glyph glyph-name="I" unicode="I" horiz-adv-x="497" 
d="M160 0h-41l254 1434h39z" />
    <glyph glyph-name="J" unicode="J" horiz-adv-x="1107" 
d="M1034 1434l-178 -1004q-37 -211 -154 -327t-299 -115q-145 0 -238 70t-130 173l28 25q35 -100 123 -167t232 -67t254 102q109 101 145 310l176 1000h41z" />
    <glyph glyph-name="K" unicode="K" horiz-adv-x="1333" 
d="M1356 1434l-606 -533l411 -901h-47l-397 874l-469 -411l-82 -463h-41l254 1434h41l-164 -916l1047 916h53z" />
    <glyph glyph-name="L" unicode="L" horiz-adv-x="1101" 
d="M418 1434l-246 -1399h817l-6 -35h-860l254 1434h41z" />
    <glyph glyph-name="M" unicode="M" horiz-adv-x="1841" 
d="M1755 1434l-254 -1434h-41l217 1235l27 135h-2l-832 -1173h-47l-420 1173h-2l-241 -1370h-41l254 1434h53l426 -1196l846 1196h57z" />
    <glyph glyph-name="N" unicode="N" horiz-adv-x="1492" 
d="M1407 1434l-254 -1434h-47l-703 1372l-243 -1372h-41l254 1434h49l700 -1371l244 1371h41z" />
    <glyph glyph-name="O" unicode="O" horiz-adv-x="1691" 
d="M930 1411q-328 0 -524 -211t-206 -528q-11 -317 161 -483q173 -165 446 -164q325 0 521 211t207 528t-161 482t-444 165zM803 -10q-289 0 -473 174t-172 505t215 553t559 224q291 -2 474 -175t172 -504t-216 -554t-559 -223z" />
    <glyph glyph-name="P" unicode="P" horiz-adv-x="1376" 
d="M915 1399h-505l-142 -791h586q221 0 342 120t121 288q-1 168 -105 276t-297 107zM928 1434q208 0 320 -121t112 -298t-129 -309t-373 -133h-596l-102 -573h-41l256 1434h553z" />
    <glyph glyph-name="Q" unicode="Q" horiz-adv-x="1693" 
d="M911 1411q-298 0 -497 -206t-213 -537q-13 -291 157 -468t468 -177q298 -1 497 205t213 538q12 293 -158 469t-467 176zM910 1446q328 0 506 -185q179 -185 165 -500q-13 -315 -195 -529t-487 -240q233 -129 442 -195l-14 -39q-231 78 -491 232l-17 -2q-313 0 -493 186
t-168 492q12 344 218 562t534 218z" />
    <glyph glyph-name="R" unicode="R" horiz-adv-x="1413" 
d="M877 694q193 0 317 98t123 260q0 163 -89 255t-253 92h-565l-125 -705h592zM983 1434q177 0 277 -102t100 -264t-108 -272t-300 -132l207 -664h-45l-203 659h-630l-117 -659h-41l252 1434h608z" />
    <glyph glyph-name="S" unicode="S" horiz-adv-x="1218" 
d="M688 1446q213 0 467 -107l-10 -34q-242 106 -458 106t-315 -92t-100 -225q0 -66 22 -114t78 -87t105 -62t156 -65q264 -104 349 -176t85 -234t-111 -264q-111 -104 -354 -104q-295 0 -567 149l12 39q274 -156 561 -151q217 2 317 96q99 93 99 235t-82 208t-291 149
q-209 84 -271 121q-62 36 -88 68q-61 74 -63 185q0 171 123 265t336 94z" />
    <glyph glyph-name="T" unicode="T" horiz-adv-x="1140" 
d="M1278 1434l-6 -35h-531l-247 -1399h-41l245 1399h-528l6 35h1102z" />
    <glyph glyph-name="U" unicode="U" horiz-adv-x="1456" 
d="M671 -12q-224 0 -353 130q-128 130 -128 310q0 41 7 78l163 928h41l-165 -938q-6 -33 -7 -68q0 -168 120 -287t326 -119t335 120t157 284l179 1008h40l-176 -1004q-35 -190 -175 -316t-364 -126z" />
    <glyph glyph-name="V" unicode="V" horiz-adv-x="1308" 
d="M1366 1434l-797 -1434h-57l-291 1434h43l283 -1391l770 1391h49z" />
    <glyph glyph-name="W" unicode="W" horiz-adv-x="1945" 
d="M1982 1434l-675 -1434h-52l-161 1348l-637 -1348h-51l-177 1434h45l166 -1375l635 1346h53l162 -1348l645 1377h47z" />
    <glyph glyph-name="X" unicode="X" horiz-adv-x="1292" 
d="M1362 1434l-682 -727l422 -707h-49l-404 672l-641 -672h-61l678 705l-424 729h49l405 -695l650 695h57z" />
    <glyph glyph-name="Y" unicode="Y" horiz-adv-x="1249" 
d="M530 0h-41l103 588l-363 846h39l350 -807l631 807h49l-667 -850z" />
    <glyph glyph-name="Z" unicode="Z" horiz-adv-x="1230" 
d="M1282 1434l-6 -37l-1249 -1364l501 2h510l-8 -35h-1061l6 37l1252 1364l-484 -2h-501l6 35h1034z" />
    <glyph glyph-name="bracketleft" unicode="[" horiz-adv-x="567" 
d="M606 1446l-4 -37h-219l-309 -1751h219l-6 -37h-256l319 1825h256z" />
    <glyph glyph-name="backslash" unicode="\" horiz-adv-x="980" 
d="M256 1507h37l471 -1573h-43z" />
    <glyph glyph-name="bracketright" unicode="]" horiz-adv-x="567" 
d="M512 1446l-319 -1825h-256l4 35h219l311 1751h-219l4 39h256z" />
    <glyph glyph-name="underscore" unicode="_" horiz-adv-x="1091" 
d="M803 -221l-8 -35h-779l9 35h778z" />
    <glyph glyph-name="grave" unicode="`" horiz-adv-x="305" 
d="M248 1452h41l55 -301h-33z" />
    <glyph glyph-name="a" unicode="a" horiz-adv-x="1306" 
d="M1059 572q-1 222 -115 346t-330 124t-346 -162q-129 -162 -129 -384t116 -348t314 -125q229 0 360 163q130 164 130 386zM623 1075q186 1 313 -107t149 -294l72 391h39l-135 -776l-39 -289h-41l35 256q-143 -266 -453 -266q-213 0 -338 131t-127 367t135 411
q138 176 390 176z" />
    <glyph glyph-name="b" unicode="b" horiz-adv-x="1316" 
d="M645 23q233 0 359 160q124 161 124 381t-112 349q-113 129 -330 129t-342 -162t-125 -378q-1 -217 113 -348t313 -131zM709 1075q213 0 338 -137t124 -373q0 -325 -227 -487q-123 -88 -302 -88t-303 108t-151 299l-71 -397h-39l264 1499h43l-119 -670q142 246 443 246z
" />
    <glyph glyph-name="c" unicode="c" horiz-adv-x="1107" 
d="M676 1075q190 0 338 -74l-15 -28q-133 70 -323 69q-240 0 -387 -158t-147 -392t126 -352q128 -118 322 -118t328 82l10 -30q-139 -84 -346 -84t-345 125q-139 125 -139 375t161 418q161 167 417 167z" />
    <glyph glyph-name="d" unicode="d" horiz-adv-x="1292" 
d="M1059 570q1 220 -115 346t-332 126t-345 -162q-128 -162 -128 -384t116 -348t314 -125q231 0 361 163q129 164 129 384zM623 1075q186 0 313 -104t151 -287l144 815h41l-211 -1210l-39 -289h-41l33 240q-66 -113 -183 -182t-268 -68q-213 0 -338 131t-127 367t135 411
q137 176 390 176z" />
    <glyph glyph-name="e" unicode="e" horiz-adv-x="1153" 
d="M696 1042q-222 0 -374 -145t-187 -354q203 -16 262 -17q612 0 617 289q2 117 -84 172q-87 55 -234 55zM708 1075q152 0 251 -62t98 -196q-3 -100 -59 -168q-129 -155 -599 -155q-72 0 -268 16q-2 -20 -2 -59q-2 -211 112 -320q115 -109 327 -109t356 82l8 -32
q-150 -82 -376 -82t-350 121t-120 338q2 115 44 224q94 245 310 347q116 56 268 55z" />
    <glyph glyph-name="f" unicode="f" horiz-adv-x="636" 
d="M602 1477q-117 0 -171 -66t-79 -197l-26 -149h331l-6 -33h-332l-223 -1257h-43l226 1257h-129l6 33h129l26 149q25 147 91 222q67 74 200 73q70 0 152 -24l-9 -33q-70 25 -143 25z" />
    <glyph glyph-name="g" unicode="g" horiz-adv-x="1269" 
d="M612 1042q-212 0 -343 -153q-130 -154 -130 -371t110 -338t310 -121q240 0 361 160q120 160 120 376q0 215 -108 331t-320 116zM621 1075q188 0 306 -99t140 -261l68 350h36l-176 -1004q-72 -410 -526 -409q-248 0 -428 115l12 30q174 -113 414 -112q422 0 487 376
l33 193q-135 -227 -434 -227q-221 0 -340 131q-119 132 -118 362t141 392t385 163z" />
    <glyph glyph-name="h" unicode="h" horiz-adv-x="1234" 
d="M1071 711q0 -55 -16 -150l-99 -561h-41l99 561q14 82 14 146q0 155 -79 243t-265 88t-308 -136q-120 -136 -159 -349l-98 -553h-41l264 1499h41l-125 -704q143 281 451 280q195 0 279 -102t83 -262z" />
    <glyph glyph-name="i" unicode="i" horiz-adv-x="438" 
d="M326 1065l-189 -1065h-41l183 1032h-132l7 33h172zM326 1272l41 227h36l-41 -227h-36z" />
    <glyph glyph-name="j" unicode="j" horiz-adv-x="417" 
d="M324 1272l41 227h36l-41 -227h-36zM-63 -350h-52l6 37h41q72 -1 96 27t35 100l216 1218h-129l4 33h172l-224 -1255q-19 -124 -85 -148q-32 -12 -80 -12z" />
    <glyph glyph-name="k" unicode="k" horiz-adv-x="1058" 
d="M393 1499l-190 -1077l782 643h51l-485 -401l319 -664h-47l-305 637l-325 -268l-66 -369h-41l266 1499h41z" />
    <glyph glyph-name="l" unicode="l" horiz-adv-x="458" 
d="M185 23h40l58 4h6l-6 -33l-97 -4q-61 0 -85 28t-9 107l242 1374h41l-242 -1376q-20 -100 52 -100z" />
    <glyph glyph-name="m" unicode="m" horiz-adv-x="1818" 
d="M630 1075q138 0 218 -83t90 -218q53 143 165 222q111 79 229 79t193 -44q75 -43 101 -111q61 -160 25 -295l-111 -625h-41l111 625q36 143 -21 279q-25 60 -90 98q-66 38 -166 38q-135 0 -250 -104t-155 -313l-111 -623h-41l113 631q12 59 12 112q0 131 -70 214
q-69 83 -225 83t-261 -108t-136 -273l-115 -659h-41l137 778l33 287h39l-31 -242q113 252 399 252z" />
    <glyph glyph-name="n" unicode="n" horiz-adv-x="1214" 
d="M225 764q149 311 496 311q172 0 257 -104q84 -104 78 -234q-3 -66 -14 -129l-108 -608h-41l108 608q40 152 -23 292q-28 62 -99 102q-72 40 -182 40q-111 0 -203 -45q-162 -79 -247 -274q-36 -82 -52 -170l-99 -553h-41l129 731l39 334h39z" />
    <glyph glyph-name="o" unicode="o" horiz-adv-x="1284" 
d="M636 1042q-216 0 -354 -152t-144 -390t119 -358q126 -120 342 -120t355 152q140 152 146 390t-121 358t-343 120zM651 1075q217 0 357 -127t134 -380q-6 -254 -154 -416t-404 -162q-217 0 -357 127q-139 127 -133 379t154 416q148 163 403 163z" />
    <glyph glyph-name="p" unicode="p" horiz-adv-x="1316" 
d="M1130 570q0 222 -114 346q-114 126 -330 126q-215 0 -344 -164t-129 -384t116 -346t314 -125q231 1 359 163t128 384zM707 1075q215 0 341 -131t126 -362q0 -335 -232 -503q-123 -89 -304 -89t-307 108t-147 295l-131 -741h-41l191 1081l37 332h39l-31 -268
q61 127 178 203t281 75z" />
    <glyph glyph-name="q" unicode="q" horiz-adv-x="1294" 
d="M139 496q1 -222 115 -348t329 -125q215 0 345 163q129 164 129 384t-116 346t-314 126q-231 0 -360 -162q-128 -162 -128 -384zM623 1075q186 -1 313 -109t149 -294l72 393h39l-250 -1413h-41l105 592q-66 -115 -180 -185t-267 -69q-213 0 -338 131t-127 367t135 411
q137 176 390 176z" />
    <glyph glyph-name="r" unicode="r" horiz-adv-x="622" 
d="M635 1065l-10 -39q-147 18 -254 -92q-106 -111 -140 -291l-112 -643h-41l141 801l37 264h37l-31 -227q54 113 156 178t217 49z" />
    <glyph glyph-name="s" unicode="s" horiz-adv-x="966" 
d="M522 1075q168 0 352 -80l-8 -32q-194 79 -344 79t-230 -60t-81 -164q0 -104 59 -148t180 -86t167 -60q45 -18 97 -52t70 -78t19 -107q0 -143 -97 -220t-287 -77t-390 121l10 34q205 -125 397 -122q152 3 238 69t86 182t-66 162t-230 100t-230 106t-66 173t93 191t261 69z
" />
    <glyph glyph-name="t" unicode="t" horiz-adv-x="663" 
d="M320 -10q-94 0 -138 39q-43 39 -43 100t15 147l133 756h-166l6 33h166l61 307h35l-55 -307h321l-8 -33h-319l-133 -758q-13 -68 -13 -130t38 -92t110 -30t143 21l-2 -33q-57 -20 -151 -20z" />
    <glyph glyph-name="u" unicode="u" horiz-adv-x="1243" 
d="M483 -10q-190 0 -272 97t-82 247q0 63 12 123l109 608h41l-107 -608q-12 -61 -12 -123q0 -139 73 -225t236 -86q316 0 456 319q36 82 52 170l98 553h41l-129 -731l-38 -334h-37l32 299q-154 -309 -473 -309z" />
    <glyph glyph-name="v" unicode="v" horiz-adv-x="1026" 
d="M1020 1065l-608 -1065h-54l-231 1063h43l221 -1020l582 1022h47z" />
    <glyph glyph-name="w" unicode="w" horiz-adv-x="1605" 
d="M1599 1065l-552 -1065h-52l-143 1004l-500 -1004h-51l-174 1065h39l170 -1014l506 1014h39l147 -1016l524 1016h47z" />
    <glyph glyph-name="x" unicode="x" horiz-adv-x="1005" 
d="M1038 1065l-510 -528l328 -537h-47l-309 506l-488 -506h-53l518 537l-323 528h49l305 -498l479 498h51z" />
    <glyph glyph-name="y" unicode="y" horiz-adv-x="1085" 
d="M58 -352q-63 0 -124 16l7 35q55 -16 135 -16t149 59q68 59 146 197l32 55l-266 1071h43l252 -1030l596 1030h47l-667 -1147q-70 -119 -136 -181q-66 -61 -108 -75t-106 -14z" />
    <glyph glyph-name="z" unicode="z" horiz-adv-x="1009" 
d="M1018 1065l-8 -37l-965 -997l297 2h496l-9 -33h-843l6 37l966 997l-278 -2h-498l6 33h830z" />
    <glyph glyph-name="braceleft" unicode="{" horiz-adv-x="651" 
d="M659 1411q-119 0 -179 -48t-81 -161l-88 -518q-23 -133 -157 -149q125 -25 94 -197l-82 -473q-20 -113 24 -160t166 -47h33l-6 -35h-35q-141 1 -192 59t-29 187l86 481q23 168 -113 168h-20l6 33h10q154 0 176 129l90 522q23 128 95 186t209 58h39l-7 -35h-39z" />
    <glyph glyph-name="bar" unicode="|" horiz-adv-x="583" 
d="M319 1645v-1944h-36v1944h36z" />
    <glyph glyph-name="braceright" unicode="}" horiz-adv-x="649" 
d="M-29 -342q119 0 180 48q60 48 80 161l88 518q23 133 158 150q-125 25 -94 196l82 473q20 113 -25 160t-166 47h-32l6 35h35q141 0 192 -58t29 -188l-86 -481q-23 -168 112 -168h21l-6 -33h-10q-154 0 -177 -129l-90 -522q-22 -129 -94 -186t-209 -58h-39l6 35h39z" />
    <glyph glyph-name="exclamdown" unicode="&#xa1;" horiz-adv-x="456" 
d="M328 1065l-33 -182h-33l33 182h33zM33 -379l203 1122h38l-194 -1122h-47z" />
    <glyph glyph-name="cent" unicode="&#xa2;" horiz-adv-x="1144" 
d="M188 658q0 -224 127 -343t321 -119t329 85l10 -31q-139 -88 -330 -88q-43 0 -65 2l-29 -178h-33l31 182q-182 24 -293 148t-111 329q0 252 161 427t435 177l27 158h33l-29 -158q164 -8 287 -73l-12 -33q-133 72 -304 71q-255 0 -405 -166t-150 -390z" />
    <glyph glyph-name="sterling" unicode="&#xa3;" horiz-adv-x="1175" 
d="M330 516q0 16 -11 150h-159l6 28h149q-12 131 -12 248q0 244 129 374t341 130t376 -92l-14 -35q-154 90 -356 90q-201 0 -317 -122t-116 -347q0 -119 12 -246h570l-4 -28h-562q10 -128 10 -180t-22 -153q-23 -101 -75 -164q-53 -63 -75 -80t-53 -36l-28 -18h876l-4 -35
h-952l4 33q34 6 91 47q58 41 96 89t69 140t31 207z" />
    <glyph glyph-name="yen" unicode="&#xa5;" horiz-adv-x="1247" 
d="M1309 1434l-662 -846l-14 -78h295l-4 -27h-295l-25 -139h295l-6 -27h-293l-55 -317h-41l55 317h-299l6 27h297l25 139h-299l6 27h297l14 78l-364 846h43l346 -803l629 803h49z" />
    <glyph glyph-name="section" unicode="&#xa7;" horiz-adv-x="1234" 
d="M195 549q0 -106 76 -164q77 -57 223 -106l104 -32q132 -38 195 -67q256 170 256 357q0 110 -95 175q-75 51 -179 84t-197 63q-93 29 -129 44q-254 -166 -254 -354zM743 1438q229 0 449 -90l-12 -35q-206 88 -420 88t-328 -69t-115 -202q0 -84 53 -135t167 -85
q37 -10 109 -32t116 -36q162 -53 245 -118t83 -183q0 -65 -30 -131t-97 -134t-136 -112q143 -70 143 -210t-120 -223q-121 -83 -350 -83t-449 90l10 35q213 -88 423 -88q210 1 326 69t116 198t-133 188q-59 26 -163 58t-149 46q-163 54 -245 118t-82 183q0 193 260 375
q-142 70 -142 210t121 224t350 84z" />
    <glyph glyph-name="dieresis" unicode="&#xa8;" horiz-adv-x="559" 
d="M532 1186l41 233h33l-41 -233h-33zM213 1186l41 233h33l-41 -233h-33z" />
    <glyph glyph-name="copyright" unicode="&#xa9;" horiz-adv-x="1746" 
d="M950 1073q100 0 187 -35l-9 -28q-82 33 -176 32q-145 0 -231 -84t-86 -229t86 -229t233 -84q82 0 176 39l7 -29q-92 -39 -185 -39q-158 0 -255 92t-97 251t97 251t253 92zM906 1419q-290 -1 -490 -201t-199 -494q0 -294 199 -494q198 -200 490 -200t492 200t200 494
t-201 495q-201 200 -491 200zM907 1450q305 0 513 -208t208 -516t-208 -517t-513 -209t-513 209t-208 517t208 516t513 208z" />
    <glyph glyph-name="ordfeminine" unicode="&#xaa;" horiz-adv-x="1005" 
d="M821 532l-6 -30h-635l6 30h635zM289 946q1 -158 213 -156q102 0 192 68t107 168l22 117q-107 22 -209 22q-326 0 -325 -219zM477 762q-96 0 -160 45q-63 45 -63 137q0 248 362 248q98 0 211 -21l15 78q18 115 -16 166t-176 51t-269 -41v31q133 41 275 41t193 -54
q52 -54 30 -175l-74 -426q-4 -27 1 -35q6 -8 24 -8t42 4l-6 -31l-10 -2l-43 -2q-55 0 -43 68l10 71q-98 -145 -303 -145z" />
    <glyph glyph-name="guillemotleft" unicode="&#xab;" horiz-adv-x="1067" 
d="M586 987l24 -26l-450 -429l295 -432l-31 -22l-313 448l2 15zM961 987l24 -26l-450 -431l294 -430l-30 -22l-314 448l2 15z" />
    <glyph glyph-name="registered" unicode="&#xae;" horiz-adv-x="1284" 
d="M788 1257h-184v-219h184q43 0 73 32t30 79t-29 77t-74 31zM578 1282h210q54 0 92 -39t38 -91t-28 -88t-71 -46l92 -203h-26l-90 199h-191v-199h-26v467zM731 1475q-182 0 -306 -126q-124 -127 -124 -309t124 -308t307 -126t307 126t124 308t-125 308t-307 127zM732 1499
q196 0 328 -131t132 -327q0 -195 -132 -327t-328 -132t-328 132t-132 328t132 326q132 131 328 131z" />
    <glyph glyph-name="macron" unicode="&#xaf;" horiz-adv-x="700" 
d="M776 1305l-8 -29h-578l9 29h577z" />
    <glyph glyph-name="degree" unicode="&#xb0;" horiz-adv-x="686" 
d="M462 1425q-102 -1 -168 -67t-67 -178q1 -112 63 -162q62 -51 164 -51q102 1 171 67q67 66 67 178t-64 162q-64 51 -166 51zM464 1456q116 0 192 -61q75 -61 75 -185t-82 -199q-83 -75 -197 -75t-189 61t-75 184t80 199t196 76z" />
    <glyph glyph-name="plusminus" unicode="&#xb1;" horiz-adv-x="1085" 
d="M657 1087l-57 -331h391l-6 -33h-393l-60 -330h-32l59 330h-391l6 33h391l58 331h34zM903 264l-6 -31h-817l6 31h817z" />
    <glyph glyph-name="acute" unicode="&#xb4;" horiz-adv-x="440" 
d="M508 1454l-203 -303h-35l197 303h41z" />
    <glyph glyph-name="mu" unicode="&#xb5;" horiz-adv-x="1253" 
d="M209 336q0 -141 97 -226q96 -85 282 -85q186 1 294 121t140 305l108 614h41l-137 -786l-33 -279h-34l20 225q-133 -238 -418 -237q-154 0 -258 70t-127 190l-106 -596h-41l252 1413h41l-107 -604q-14 -86 -14 -125z" />
    <glyph glyph-name="paragraph" unicode="&#xb6;" horiz-adv-x="1028" 
d="M178 985q0 189 125 319t301 130h336l-285 -1616h-37l277 1579h-197l-276 -1579h-39l149 846h-79q-133 4 -204 95t-71 226z" />
    <glyph glyph-name="periodcentered" unicode="&#xb7;" horiz-adv-x="516" 
d="M231 508l37 203h37l-37 -203h-37z" />
    <glyph glyph-name="cedilla" unicode="&#xb8;" horiz-adv-x="638" 
d="M330 -260q0 -57 -49 -92t-130 -35t-151 29l6 26q57 -28 133 -28q156 1 156 108t-158 78l-10 14l76 156h28l-69 -141q34 4 68 1t67 -31t33 -85z" />
    <glyph glyph-name="ordmasculine" unicode="&#xba;" horiz-adv-x="1124" 
d="M685 1464q-163 0 -259 -97t-102 -258t80 -240t250 -79q163 0 259 98q97 97 105 258q8 162 -81 240t-252 78zM940 532l-6 -30h-746l7 30h745zM683 1497q177 0 277 -87t94 -259q-8 -172 -112 -283q-104 -110 -282 -110t-280 87q-101 87 -93 259q7 172 113 282t283 111z" />
    <glyph glyph-name="guillemotright" unicode="&#xbb;" horiz-adv-x="1067" 
d="M428 104l449 428l-293 433l28 22l316 -448l-2 -15l-475 -446zM53 104l449 428l-293 433l29 22l315 -448l-2 -15l-475 -446z" />
    <glyph glyph-name="questiondown" unicode="&#xbf;" horiz-adv-x="917" 
d="M616 1065l-32 -182h-33l33 182h32zM6 -98q0 -248 330 -248q154 0 311 92l12 -33q-158 -94 -329 -94t-268 69t-97 214q0 180 169 296q73 50 147 98t134 119t77 160l30 168h37l-29 -174q-16 -92 -76 -166q-60 -73 -134 -123t-146 -100t-120 -120q-48 -71 -48 -158z" />
    <glyph glyph-name="Agrave" unicode="&#xc0;" horiz-adv-x="1413" 
d="M860 1737l41 -217h-35l-49 217h43zM864 1403h-4l-563 -950h793zM895 1444l346 -1444h-43l-98 418h-821l-242 -418h-49l852 1444h55z" />
    <glyph glyph-name="Aacute" unicode="&#xc1;" horiz-adv-x="1413" 
d="M1036 1739l-149 -219h-35l143 219h41zM864 1403h-4l-563 -950h793zM895 1444l346 -1444h-43l-98 418h-821l-242 -418h-49l852 1444h55z" />
    <glyph glyph-name="Acircumflex" unicode="&#xc2;" horiz-adv-x="1413" 
d="M944 1739l170 -219h-39l-149 196l-236 -196h-43l254 219h43zM864 1403h-4l-563 -950h793zM895 1444l346 -1444h-43l-98 418h-821l-242 -418h-49l852 1444h55z" />
    <glyph glyph-name="Atilde" unicode="&#xc3;" horiz-adv-x="1413" 
d="M999 1610q-55 0 -118 37q-90 45 -121 45q-84 0 -129 -78l-21 10q53 98 154 98q56 0 126 -41t116 -41q80 0 129 74l18 -10q-55 -94 -154 -94zM864 1403h-4l-563 -950h793zM895 1444l346 -1444h-43l-98 418h-821l-242 -418h-49l852 1444h55z" />
    <glyph glyph-name="Adieresis" unicode="&#xc4;" horiz-adv-x="1413" 
d="M684 1536l41 233h33l-41 -233h-33zM1006 1536l41 233h32l-41 -233h-32zM864 1403h-4l-563 -950h793zM895 1444l346 -1444h-43l-98 418h-821l-242 -418h-49l852 1444h55z" />
    <glyph glyph-name="Aring" unicode="&#xc5;" horiz-adv-x="1413" 
d="M776 1677q0 -57 35 -87t95 -30t99 34q37 34 37 96q-1 121 -124 122q-142 0 -142 -135zM905 1534q-161 0 -159 148q2 76 48 116q46 41 120 41t116 -37q42 -36 43 -112q0 -76 -47 -116t-121 -40zM864 1403h-4l-563 -950h793zM895 1444l346 -1444h-43l-98 418h-821
l-242 -418h-49l852 1444h55z" />
    <glyph glyph-name="AE" unicode="&#xc6;" horiz-adv-x="2074" 
d="M1065 1399l-721 -924h604l164 924h-47zM-25 0h-51l1120 1434h1029l-7 -35h-911l-121 -684h785l-7 -35h-784l-113 -645h951l-8 -35h-994l80 440h-627z" />
    <glyph glyph-name="Ccedilla" unicode="&#xc7;" horiz-adv-x="1347" 
d="M940 1446q238 0 432 -109l-14 -30q-192 104 -390 104q-378 0 -579 -224t-202 -527q-1 -302 168 -470t446 -167q174 0 409 86l9 -33q-231 -88 -420 -88q-29 0 -74 4l-68 -137q35 4 69 1t67 -31t33 -85t-50 -92q-49 -35 -130 -35t-150 29l6 26q56 -28 132 -28
q156 1 157 108q0 107 -158 78l-10 14l73 154q-256 29 -404 202t-149 463q1 213 95 391t279 286q185 110 423 110z" />
    <glyph glyph-name="Egrave" unicode="&#xc8;" horiz-adv-x="1331" 
d="M856 1737l41 -217h-35l-49 217h43zM1331 1434l-8 -35h-913l-121 -684h788l-6 -35h-788l-113 -645h948l-6 -35h-991l254 1434h956z" />
    <glyph glyph-name="Eacute" unicode="&#xc9;" horiz-adv-x="1331" 
d="M1036 1739l-149 -219h-35l143 219h41zM1331 1434l-8 -35h-913l-121 -684h788l-6 -35h-788l-113 -645h948l-6 -35h-991l254 1434h956z" />
    <glyph glyph-name="Ecircumflex" unicode="&#xca;" horiz-adv-x="1331" 
d="M942 1739l170 -219h-39l-149 196l-236 -196h-43l254 219h43zM1331 1434l-8 -35h-913l-121 -684h788l-6 -35h-788l-113 -645h948l-6 -35h-991l254 1434h956z" />
    <glyph glyph-name="Edieresis" unicode="&#xcb;" horiz-adv-x="1331" 
d="M1014 1536l41 233h32l-40 -233h-33zM692 1536l41 233h33l-41 -233h-33zM1331 1434l-8 -35h-913l-121 -684h788l-6 -35h-788l-113 -645h948l-6 -35h-991l254 1434h956z" />
    <glyph glyph-name="Igrave" unicode="&#xcc;" horiz-adv-x="497" 
d="M397 1737l41 -217h-35l-49 217h43zM160 0h-41l254 1434h39z" />
    <glyph glyph-name="Iacute" unicode="&#xcd;" horiz-adv-x="497" 
d="M578 1739l-150 -219h-35l144 219h41zM160 0h-41l254 1434h39z" />
    <glyph glyph-name="Icircumflex" unicode="&#xce;" horiz-adv-x="497" 
d="M481 1739l170 -219h-39l-149 196l-236 -196h-43l254 219h43zM160 0h-41l254 1434h39z" />
    <glyph glyph-name="Idieresis" unicode="&#xcf;" horiz-adv-x="497" 
d="M555 1536l41 233h33l-41 -233h-33zM233 1536l41 233h33l-41 -233h-33zM160 0h-41l254 1434h39z" />
    <glyph glyph-name="Eth" unicode="&#xd0;" horiz-adv-x="1548" 
d="M780 1399h-368l-121 -686h401l-4 -29h-403l-113 -649h459q338 0 551 201t213 544q0 291 -162 455t-453 164zM766 1434q303 0 487 -164q185 -164 185 -504t-222 -553t-589 -213h-504l121 684h-189l6 29h187l129 721h389z" />
    <glyph glyph-name="Ntilde" unicode="&#xd1;" horiz-adv-x="1488" 
d="M1049 1610q-55 0 -119 37q-90 45 -121 45q-84 0 -129 -78l-21 10q53 98 154 98q57 0 127 -41t115 -41q80 0 129 74l18 -10q-55 -94 -153 -94zM1407 1434l-254 -1434h-47l-703 1372l-243 -1372h-41l254 1434h49l700 -1371l244 1371h41z" />
    <glyph glyph-name="Ograve" unicode="&#xd2;" horiz-adv-x="1691" 
d="M977 1737l41 -217h-35l-49 217h43zM930 1411q-328 0 -524 -211t-206 -528q-11 -317 161 -483q173 -165 446 -164q325 0 521 211t207 528t-161 482t-444 165zM803 -10q-289 0 -473 174t-172 505t215 553t559 224q291 -2 474 -175t172 -504t-216 -554t-559 -223z" />
    <glyph glyph-name="Oacute" unicode="&#xd3;" horiz-adv-x="1691" 
d="M1087 1739l-149 -219h-35l144 219h40zM930 1411q-328 0 -524 -211t-206 -528q-11 -317 161 -483q173 -165 446 -164q325 0 521 211t207 528t-161 482t-444 165zM803 -10q-289 0 -473 174t-172 505t215 553t559 224q291 -2 474 -175t172 -504t-216 -554t-559 -223z" />
    <glyph glyph-name="Ocircumflex" unicode="&#xd4;" horiz-adv-x="1691" 
d="M1030 1739l170 -219h-39l-149 196l-236 -196h-43l254 219h43zM930 1411q-328 0 -524 -211t-206 -528q-11 -317 161 -483q173 -165 446 -164q325 0 521 211t207 528t-161 482t-444 165zM803 -10q-289 0 -473 174t-172 505t215 553t559 224q291 -2 474 -175t172 -504
t-216 -554t-559 -223z" />
    <glyph glyph-name="Otilde" unicode="&#xd5;" horiz-adv-x="1691" 
d="M1092 1610q-55 0 -119 37q-90 45 -121 45q-84 0 -129 -78l-21 10q53 98 154 98q56 0 126 -41t116 -41q80 0 129 74l18 -10q-55 -94 -153 -94zM930 1411q-328 0 -524 -211t-206 -528q-11 -317 161 -483q173 -165 446 -164q325 0 521 211t207 528t-161 482t-444 165z
M803 -10q-289 0 -473 174t-172 505t215 553t559 224q291 -2 474 -175t172 -504t-216 -554t-559 -223z" />
    <glyph glyph-name="Odieresis" unicode="&#xd6;" horiz-adv-x="1691" 
d="M1108 1536l41 233h33l-41 -233h-33zM786 1536l41 233h33l-41 -233h-33zM930 1411q-328 0 -524 -211t-206 -528q-11 -317 161 -483q173 -165 446 -164q325 0 521 211t207 528t-161 482t-444 165zM803 -10q-289 0 -473 174t-172 505t215 553t559 224q291 -2 474 -175
t172 -504t-216 -554t-559 -223z" />
    <glyph glyph-name="multiply" unicode="&#xd7;" horiz-adv-x="921" 
d="M215 1036l272 -336l396 338l20 -24l-395 -338l274 -336l-24 -23l-275 336l-393 -336l-20 25l393 336l-275 336z" />
    <glyph glyph-name="Oslash" unicode="&#xd8;" horiz-adv-x="1691" 
d="M930 1411q-328 0 -524 -211q-196 -210 -206 -536q-11 -326 187 -500l928 1132q-158 115 -385 115zM807 25q325 1 521 211t208 540t-197 502l-929 -1133q158 -121 397 -120zM803 -10q-250 0 -418 125l-147 -181h-39l163 199q-220 183 -206 525t217 564t559 224
q242 -4 407 -121l146 178h39l-160 -196q227 -183 215 -527t-217 -567t-559 -223z" />
    <glyph glyph-name="Ugrave" unicode="&#xd9;" horiz-adv-x="1456" 
d="M879 1737l41 -217h-35l-49 217h43zM671 -12q-224 0 -353 130q-128 130 -128 310q0 41 7 78l163 928h41l-165 -938q-6 -33 -7 -68q0 -168 120 -287t326 -119t335 120t157 284l179 1008h40l-176 -1004q-35 -190 -175 -316t-364 -126z" />
    <glyph glyph-name="Uacute" unicode="&#xda;" horiz-adv-x="1456" 
d="M1059 1739l-150 -219h-35l144 219h41zM671 -12q-224 0 -353 130q-128 130 -128 310q0 41 7 78l163 928h41l-165 -938q-6 -33 -7 -68q0 -168 120 -287t326 -119t335 120t157 284l179 1008h40l-176 -1004q-35 -190 -175 -316t-364 -126z" />
    <glyph glyph-name="Ucircumflex" unicode="&#xdb;" horiz-adv-x="1456" 
d="M963 1739l170 -219h-39l-150 196l-235 -196h-43l254 219h43zM671 -12q-224 0 -353 130q-128 130 -128 310q0 41 7 78l163 928h41l-165 -938q-6 -33 -7 -68q0 -168 120 -287t326 -119t335 120t157 284l179 1008h40l-176 -1004q-35 -190 -175 -316t-364 -126z" />
    <glyph glyph-name="Udieresis" unicode="&#xdc;" horiz-adv-x="1456" 
d="M1032 1536l41 233h33l-41 -233h-33zM711 1536l41 233h32l-41 -233h-32zM671 -12q-224 0 -353 130q-128 130 -128 310q0 41 7 78l163 928h41l-165 -938q-6 -33 -7 -68q0 -168 120 -287t326 -119t335 120t157 284l179 1008h40l-176 -1004q-35 -190 -175 -316t-364 -126z
" />
    <glyph glyph-name="Yacute" unicode="&#xdd;" horiz-adv-x="1249" 
d="M897 1739l-149 -219h-35l143 219h41zM530 0h-41l103 588l-363 846h39l350 -807l631 807h49l-667 -850z" />
    <glyph glyph-name="Thorn" unicode="&#xde;" horiz-adv-x="1355" 
d="M784 354q223 0 343 112t120 277t-103 263t-298 98h-492l-131 -750h561zM858 1139q209 0 321 -112q111 -112 111 -287t-128 -298t-374 -123h-571l-57 -319h-41l254 1434h41l-54 -295h498z" />
    <glyph glyph-name="germandbls" unicode="&#xdf;" horiz-adv-x="1191" 
d="M680 1446q150 0 232 -77t81 -199q0 -122 -83 -203q-34 -33 -68 -64q-85 -77 -85 -174q1 -97 96 -173q40 -32 80 -66q95 -81 94 -225q-1 -145 -101 -233t-274 -87q-174 0 -322 51l8 33q133 -51 299 -51t257 81q91 82 91 210t-94 210q-39 33 -79 65q-97 77 -96 185
q1 107 85 181q35 32 69 65q84 83 83 184q-1 100 -63 176t-210 76q-82 0 -165 -40q-166 -80 -208 -312l-186 -1059h-43l186 1055q20 129 76 215t128 120q117 56 212 56z" />
    <glyph glyph-name="agrave" unicode="&#xe0;" horiz-adv-x="1306" 
d="M633 1495h41l55 -301h-33zM1059 572q-1 222 -115 346t-330 124t-346 -162q-129 -162 -129 -384t116 -348t314 -125q229 0 360 163q130 164 130 386zM623 1075q186 1 313 -107t149 -294l72 391h39l-135 -776l-39 -289h-41l35 256q-143 -266 -453 -266q-213 0 -338 131
t-127 367t135 411q138 176 390 176z" />
    <glyph glyph-name="aacute" unicode="&#xe1;" horiz-adv-x="1306" 
d="M922 1497l-203 -303h-35l197 303h41zM1059 572q-1 222 -115 346t-330 124t-346 -162q-129 -162 -129 -384t116 -348t314 -125q229 0 360 163q130 164 130 386zM623 1075q186 1 313 -107t149 -294l72 391h39l-135 -776l-39 -289h-41l35 256q-143 -266 -453 -266
q-213 0 -338 131t-127 367t135 411q138 176 390 176z" />
    <glyph glyph-name="acircumflex" unicode="&#xe2;" horiz-adv-x="1306" 
d="M483 1194l267 305h41l159 -305h-39l-141 281l-246 -281h-41zM1059 572q-1 222 -115 346t-330 124t-346 -162q-129 -162 -129 -384t116 -348t314 -125q229 0 360 163q130 164 130 386zM623 1075q186 1 313 -107t149 -294l72 391h39l-135 -776l-39 -289h-41l35 256
q-143 -266 -453 -266q-213 0 -338 131t-127 367t135 411q138 176 390 176z" />
    <glyph glyph-name="atilde" unicode="&#xe3;" horiz-adv-x="1306" 
d="M870 1284q-55 0 -118 37q-90 45 -121 45q-84 0 -129 -78l-21 10q53 98 154 99q57 0 127 -41t115 -41q80 0 129 74l18 -11q-55 -94 -154 -94zM1059 572q-1 222 -115 346t-330 124t-346 -162q-129 -162 -129 -384t116 -348t314 -125q229 0 360 163q130 164 130 386z
M623 1075q186 1 313 -107t149 -294l72 391h39l-135 -776l-39 -289h-41l35 256q-143 -266 -453 -266q-213 0 -338 131t-127 367t135 411q138 176 390 176z" />
    <glyph glyph-name="adieresis" unicode="&#xe4;" horiz-adv-x="1306" 
d="M856 1229l41 233h33l-41 -233h-33zM537 1229l41 233h32l-41 -233h-32zM1059 572q-1 222 -115 346t-330 124t-346 -162q-129 -162 -129 -384t116 -348t314 -125q229 0 360 163q130 164 130 386zM623 1075q186 1 313 -107t149 -294l72 391h39l-135 -776l-39 -289h-41
l35 256q-143 -266 -453 -266q-213 0 -338 131t-127 367t135 411q138 176 390 176z" />
    <glyph glyph-name="aring" unicode="&#xe5;" horiz-adv-x="1306" 
d="M879 1365q-1 122 -131 122q-60 0 -98 -34t-38 -96q0 -122 130 -122q60 0 99 34q38 34 38 96zM750 1513q159 0 159 -149q0 -76 -47 -116t-121 -40q-160 0 -158 148q1 76 47 116t120 41zM1059 572q-1 222 -115 346t-330 124t-346 -162q-129 -162 -129 -384t116 -348
t314 -125q229 0 360 163q130 164 130 386zM623 1075q186 1 313 -107t149 -294l72 391h39l-135 -776l-39 -289h-41l35 256q-143 -266 -453 -266q-213 0 -338 131t-127 367t135 411q138 176 390 176z" />
    <glyph glyph-name="ae" unicode="&#xe6;" horiz-adv-x="1849" 
d="M1393 1042q-221 0 -374 -146t-185 -355q176 -14 260 -15q612 0 616 289q2 117 -84 172t-233 55zM494 590q-168 0 -292 -73t-124 -221t83 -210t214 -63q131 0 251 61t187 162q-35 90 -31 203q0 53 15 129q-135 12 -303 12zM1395 1075q162 0 261 -62t97 -196
q-2 -100 -58 -168q-128 -155 -599 -155q-72 0 -269 16q-2 -20 -2 -61q-2 -211 112 -319t327 -108t356 82l8 -32q-150 -82 -377 -82q-313 0 -422 219q-75 -103 -199 -161t-270 -58t-235 74q-90 74 -90 219q0 176 136 258t355 82q111 0 279 -15q39 154 139 266q-18 94 -98 132
t-249 36q-169 0 -347 -51l-2 35q186 49 385 49q299 0 344 -166q172 166 418 166z" />
    <glyph glyph-name="ccedilla" unicode="&#xe7;" horiz-adv-x="1107" 
d="M676 1075q190 0 338 -74l-15 -28q-133 70 -323 69q-240 0 -387 -158t-147 -392t126 -352q128 -118 322 -118t328 82l10 -30q-139 -84 -334 -84q-23 0 -35 2l-65 -137q34 4 68 1t67 -31t33 -85t-50 -92t-130 -35q-81 0 -150 29l6 26q56 -28 132 -28q156 1 157 108
q0 107 -158 78l-10 14l73 154q-194 16 -314 140t-120 345q0 262 161 429t417 167z" />
    <glyph glyph-name="egrave" unicode="&#xe8;" horiz-adv-x="1153" 
d="M721 1495h41l55 -301h-33zM696 1042q-222 0 -374 -145t-187 -354q203 -16 262 -17q612 0 617 289q2 117 -84 172q-87 55 -234 55zM708 1075q152 0 251 -62t98 -196q-3 -100 -59 -168q-129 -155 -599 -155q-72 0 -268 16q-2 -20 -2 -59q-2 -211 112 -320
q115 -109 327 -109t356 82l8 -32q-150 -82 -376 -82t-350 121t-120 338q2 115 44 224q94 245 310 347q116 56 268 55z" />
    <glyph glyph-name="eacute" unicode="&#xe9;" horiz-adv-x="1153" 
d="M854 1497l-203 -303h-35l197 303h41zM696 1042q-222 0 -374 -145t-187 -354q203 -16 262 -17q612 0 617 289q2 117 -84 172q-87 55 -234 55zM708 1075q152 0 251 -62t98 -196q-3 -100 -59 -168q-129 -155 -599 -155q-72 0 -268 16q-2 -20 -2 -59q-2 -211 112 -320
q115 -109 327 -109t356 82l8 -32q-150 -82 -376 -82t-350 121t-120 338q2 115 44 224q94 245 310 347q116 56 268 55z" />
    <glyph glyph-name="ecircumflex" unicode="&#xea;" horiz-adv-x="1153" 
d="M430 1194l266 305h41l160 -305h-39l-141 281l-246 -281h-41zM696 1042q-222 0 -374 -145t-187 -354q203 -16 262 -17q612 0 617 289q2 117 -84 172q-87 55 -234 55zM708 1075q152 0 251 -62t98 -196q-3 -100 -59 -168q-129 -155 -599 -155q-72 0 -268 16q-2 -20 -2 -59
q-2 -211 112 -320q115 -109 327 -109t356 82l8 -32q-150 -82 -376 -82t-350 121t-120 338q2 115 44 224q94 245 310 347q116 56 268 55z" />
    <glyph glyph-name="edieresis" unicode="&#xeb;" horiz-adv-x="1153" 
d="M813 1229l41 233h33l-41 -233h-33zM494 1229l41 233h32l-41 -233h-32zM696 1042q-222 0 -374 -145t-187 -354q203 -16 262 -17q612 0 617 289q2 117 -84 172q-87 55 -234 55zM708 1075q152 0 251 -62t98 -196q-3 -100 -59 -168q-129 -155 -599 -155q-72 0 -268 16
q-2 -20 -2 -59q-2 -211 112 -320q115 -109 327 -109t356 82l8 -32q-150 -82 -376 -82t-350 121t-120 338q2 115 44 224q94 245 310 347q116 56 268 55z" />
    <glyph glyph-name="igrave" unicode="&#xec;" horiz-adv-x="438" 
d="M223 1495h41l55 -301h-32zM326 1065l-189 -1065h-41l183 1032h-132l7 33h172z" />
    <glyph glyph-name="iacute" unicode="&#xed;" horiz-adv-x="438" 
d="M514 1497l-203 -303h-35l197 303h41zM326 1065l-189 -1065h-41l183 1032h-132l7 33h172z" />
    <glyph glyph-name="icircumflex" unicode="&#xee;" horiz-adv-x="438" 
d="M68 1194l266 305h41l160 -305h-39l-142 281l-245 -281h-41zM326 1065l-189 -1065h-41l183 1032h-132l7 33h172z" />
    <glyph glyph-name="idieresis" unicode="&#xef;" horiz-adv-x="438" 
d="M430 1229l41 233h33l-41 -233h-33zM111 1229l41 233h32l-41 -233h-32zM326 1065l-189 -1065h-41l183 1032h-132l7 33h172z" />
    <glyph glyph-name="eth" unicode="&#xf0;" horiz-adv-x="1153" 
d="M973 506q-1 198 -113 316t-320 118t-329 -144t-121 -342t109 -315t315 -117t332 143q127 143 127 341zM1053 709q-1 -319 -141 -519t-410 -200q-215 0 -335 124t-120 344t137 367t365 148q188 1 311 -103t144 -282q6 68 6 141q-6 344 -191 621l-225 -138l-10 21l223 135
q-63 92 -156 184l29 21q92 -90 160 -184l231 141l12 -21l-229 -139q199 -293 199 -661z" />
    <glyph glyph-name="ntilde" unicode="&#xf1;" horiz-adv-x="1214" 
d="M864 1284q-55 0 -119 37q-90 45 -120 45q-84 0 -129 -78l-21 10q53 98 154 99q57 0 127 -41t114 -41q80 0 129 74l19 -11q-55 -94 -154 -94zM225 764q149 311 496 311q172 0 257 -104q84 -104 78 -234q-3 -66 -14 -129l-108 -608h-41l108 608q40 152 -23 292
q-28 62 -99 102q-72 40 -182 40q-111 0 -203 -45q-162 -79 -247 -274q-36 -82 -52 -170l-99 -553h-41l129 731l39 334h39z" />
    <glyph glyph-name="ograve" unicode="&#xf2;" horiz-adv-x="1284" 
d="M653 1495h41l56 -301h-33zM636 1042q-216 0 -354 -152t-144 -390t119 -358q126 -120 342 -120t355 152q140 152 146 390t-121 358t-343 120zM651 1075q217 0 357 -127t134 -380q-6 -254 -154 -416t-404 -162q-217 0 -357 127q-139 127 -133 379t154 416q148 163 403 163z
" />
    <glyph glyph-name="oacute" unicode="&#xf3;" horiz-adv-x="1284" 
d="M885 1497l-203 -303h-35l197 303h41zM636 1042q-216 0 -354 -152t-144 -390t119 -358q126 -120 342 -120t355 152q140 152 146 390t-121 358t-343 120zM651 1075q217 0 357 -127t134 -380q-6 -254 -154 -416t-404 -162q-217 0 -357 127q-139 127 -133 379t154 416
q148 163 403 163z" />
    <glyph glyph-name="ocircumflex" unicode="&#xf4;" horiz-adv-x="1284" 
d="M467 1194l266 305h41l160 -305h-39l-141 281l-246 -281h-41zM636 1042q-216 0 -354 -152t-144 -390t119 -358q126 -120 342 -120t355 152q140 152 146 390t-121 358t-343 120zM651 1075q217 0 357 -127t134 -380q-6 -254 -154 -416t-404 -162q-217 0 -357 127
q-139 127 -133 379t154 416q148 163 403 163z" />
    <glyph glyph-name="otilde" unicode="&#xf5;" horiz-adv-x="1284" 
d="M868 1284q-55 0 -118 37q-90 45 -121 45q-84 0 -129 -78l-21 10q53 98 154 99q57 0 127 -41t114 -41q81 0 130 74l18 -11q-55 -94 -154 -94zM636 1042q-216 0 -354 -152t-144 -390t119 -358q126 -120 342 -120t355 152q140 152 146 390t-121 358t-343 120zM651 1075
q217 0 357 -127t134 -380q-6 -254 -154 -416t-404 -162q-217 0 -357 127q-139 127 -133 379t154 416q148 163 403 163z" />
    <glyph glyph-name="odieresis" unicode="&#xf6;" horiz-adv-x="1284" 
d="M836 1229l41 233h32l-41 -233h-32zM516 1229l41 233h33l-41 -233h-33zM636 1042q-216 0 -354 -152t-144 -390t119 -358q126 -120 342 -120t355 152q140 152 146 390t-121 358t-343 120zM651 1075q217 0 357 -127t134 -380q-6 -254 -154 -416t-404 -162q-217 0 -357 127
q-139 127 -133 379t154 416q148 163 403 163z" />
    <glyph glyph-name="divide" unicode="&#xf7;" horiz-adv-x="1187" 
d="M510 152l43 233h31l-43 -233h-31zM643 907l43 234h31l-43 -234h-31zM1042 666l-6 -35h-848l7 35h847z" />
    <glyph glyph-name="oslash" unicode="&#xf8;" horiz-adv-x="1284" 
d="M584 23q230 0 370 151q140 152 146 388t-125 364l-676 -822q115 -82 285 -81zM651 1042q-231 0 -369 -152t-144 -398q-6 -247 143 -373l675 823q-119 100 -305 100zM651 1075q197 0 330 -104l131 159h31l-144 -174q145 -133 144 -381q-7 -261 -155 -423t-404 -162
q-186 0 -308 86l-116 -142h-31l129 156q-170 133 -164 396t154 426t403 163z" />
    <glyph glyph-name="ugrave" unicode="&#xf9;" horiz-adv-x="1243" 
d="M616 1495h41l56 -301h-33zM483 -10q-190 0 -272 97t-82 247q0 63 12 123l109 608h41l-107 -608q-12 -61 -12 -123q0 -139 73 -225t236 -86q316 0 456 319q36 82 52 170l98 553h41l-129 -731l-38 -334h-37l32 299q-154 -309 -473 -309z" />
    <glyph glyph-name="uacute" unicode="&#xfa;" horiz-adv-x="1243" 
d="M907 1497l-202 -303h-35l196 303h41zM483 -10q-190 0 -272 97t-82 247q0 63 12 123l109 608h41l-107 -608q-12 -61 -12 -123q0 -139 73 -225t236 -86q316 0 456 319q36 82 52 170l98 553h41l-129 -731l-38 -334h-37l32 299q-154 -309 -473 -309z" />
    <glyph glyph-name="ucircumflex" unicode="&#xfb;" horiz-adv-x="1243" 
d="M463 1194l266 305h41l160 -305h-39l-141 281l-246 -281h-41zM483 -10q-190 0 -272 97t-82 247q0 63 12 123l109 608h41l-107 -608q-12 -61 -12 -123q0 -139 73 -225t236 -86q316 0 456 319q36 82 52 170l98 553h41l-129 -731l-38 -334h-37l32 299q-154 -309 -473 -309z
" />
    <glyph glyph-name="udieresis" unicode="&#xfc;" horiz-adv-x="1243" 
d="M549 1229l41 233h33l-41 -233h-33zM868 1229l41 233h33l-41 -233h-33zM483 -10q-190 0 -272 97t-82 247q0 63 12 123l109 608h41l-107 -608q-12 -61 -12 -123q0 -139 73 -225t236 -86q316 0 456 319q36 82 52 170l98 553h41l-129 -731l-38 -334h-37l32 299
q-154 -309 -473 -309z" />
    <glyph glyph-name="yacute" unicode="&#xfd;" horiz-adv-x="1085" 
d="M799 1497l-203 -303h-35l197 303h41zM58 -352q-63 0 -124 16l7 35q55 -16 135 -16t149 59q68 59 146 197l32 55l-266 1071h43l252 -1030l596 1030h47l-667 -1147q-70 -119 -136 -181q-66 -61 -108 -75t-106 -14z" />
    <glyph glyph-name="thorn" unicode="&#xfe;" horiz-adv-x="1316" 
d="M1130 570q0 222 -114 346q-114 126 -330 126q-215 0 -344 -164t-129 -384t116 -346t314 -125q231 1 359 163t128 384zM707 1075q215 0 341 -131t126 -362q0 -335 -232 -503q-123 -89 -303 -89t-307 106t-148 291l-131 -735h-41l316 1782h41l-109 -613q66 115 179 185
q114 69 268 69z" />
    <glyph glyph-name="ydieresis" unicode="&#xff;" horiz-adv-x="1085" 
d="M428 1186l41 233h33l-41 -233h-33zM748 1186l40 233h33l-41 -233h-32zM58 -352q-63 0 -124 16l7 35q55 -16 135 -16t149 59q68 59 146 197l32 55l-266 1071h43l252 -1030l596 1030h47l-667 -1147q-70 -119 -136 -181q-66 -61 -108 -75t-106 -14z" />
    <glyph glyph-name="Amacron" unicode="&#x100;" horiz-adv-x="1413" 
d="M1180 1673l-9 -28h-577l8 28h578zM864 1403h-4l-563 -950h793zM895 1444l346 -1444h-43l-98 418h-821l-242 -418h-49l852 1444h55z" />
    <glyph glyph-name="amacron" unicode="&#x101;" horiz-adv-x="1306" 
d="M1034 1348l-8 -29h-577l8 29h577zM1059 572q-1 222 -115 346t-330 124t-346 -162q-129 -162 -129 -384t116 -348t314 -125q229 0 360 163q130 164 130 386zM623 1075q186 1 313 -107t149 -294l72 391h39l-135 -776l-39 -289h-41l35 256q-143 -266 -453 -266
q-213 0 -338 131t-127 367t135 411q138 176 390 176z" />
    <glyph glyph-name="Abreve" unicode="&#x102;" horiz-adv-x="1413" 
d="M894 1559q-192 0 -202 186l29 4q10 -162 179 -162t222 162l31 -4q-67 -186 -259 -186zM864 1403h-4l-563 -950h793zM895 1444l346 -1444h-43l-98 418h-821l-242 -418h-49l852 1444h55z" />
    <glyph glyph-name="abreve" unicode="&#x103;" horiz-adv-x="1306" 
d="M742 1233q-194 0 -203 188l28 4q13 -164 181 -164t223 164l30 -4q-65 -188 -259 -188zM1059 572q-1 222 -115 346t-330 124t-346 -162q-129 -162 -129 -384t116 -348t314 -125q229 0 360 163q130 164 130 386zM623 1075q186 1 313 -107t149 -294l72 391h39l-135 -776
l-39 -289h-41l35 256q-143 -266 -453 -266q-213 0 -338 131t-127 367t135 411q138 176 390 176z" />
    <glyph glyph-name="Aogonek" unicode="&#x104;" horiz-adv-x="1445" 
d="M864 1403h-4l-563 -950h793zM1061 -227q0 -82 86 -82q39 0 70 10v-29q-35 -12 -82 -12q-106 0 -107 107q0 137 168 237l-96 414h-821l-242 -418h-49l852 1444h55l346 -1444q-180 -96 -180 -227z" />
    <glyph glyph-name="aogonek" unicode="&#x105;" horiz-adv-x="1335" 
d="M1059 572q-1 222 -115 346t-330 124t-346 -162q-129 -162 -129 -384t116 -348t314 -125q229 0 360 163q130 164 130 386zM623 1075q186 1 313 -107t149 -294l72 391h39l-135 -776l-39 -289h-4q-180 -96 -180 -227q0 -82 86 -82q39 0 69 10v-29q-35 -12 -82 -12
q-106 0 -106 107q0 139 176 241l35 248q-143 -266 -453 -266q-213 0 -338 131t-127 367t135 411q138 176 390 176z" />
    <glyph glyph-name="Cacute" unicode="&#x106;" horiz-adv-x="1347" 
d="M1063 1739l-150 -219h-34l143 219h41zM940 1446q238 0 432 -109l-14 -30q-192 104 -390 104q-378 0 -579 -224t-202 -527q-1 -302 168 -470t446 -167q174 0 409 86l9 -33q-231 -88 -420 -88q-299 0 -477 176t-179 495q1 213 95 391t279 286q185 110 423 110z" />
    <glyph glyph-name="cacute" unicode="&#x107;" horiz-adv-x="1107" 
d="M864 1497l-202 -303h-35l196 303h41zM676 1075q190 0 338 -74l-15 -28q-133 70 -323 69q-240 0 -387 -158t-147 -392t126 -352q128 -118 322 -118t328 82l10 -30q-139 -84 -346 -84t-345 125q-139 125 -139 375t161 418q161 167 417 167z" />
    <glyph glyph-name="Ccircumflex" unicode="&#x108;" horiz-adv-x="1347" 
d="M1028 1739l170 -219h-39l-149 196l-236 -196h-43l254 219h43zM940 1446q238 0 432 -109l-14 -30q-192 104 -390 104q-378 0 -579 -224t-202 -527q-1 -302 168 -470t446 -167q174 0 409 86l9 -33q-231 -88 -420 -88q-299 0 -477 176t-179 495q1 213 95 391t279 286
q185 110 423 110z" />
    <glyph glyph-name="ccircumflex" unicode="&#x109;" horiz-adv-x="1107" 
d="M477 1194l266 305h41l160 -305h-39l-141 281l-246 -281h-41zM676 1075q190 0 338 -74l-15 -28q-133 70 -323 69q-240 0 -387 -158t-147 -392t126 -352q128 -118 322 -118t328 82l10 -30q-139 -84 -346 -84t-345 125q-139 125 -139 375t161 418q161 167 417 167z" />
    <glyph glyph-name="Cdotaccent" unicode="&#x10a;" horiz-adv-x="1347" 
d="M991 1536l41 233h31l-41 -233h-31zM940 1446q238 0 432 -109l-14 -30q-192 104 -390 104q-378 0 -579 -224t-202 -527q-1 -302 168 -470t446 -167q174 0 409 86l9 -33q-231 -88 -420 -88q-299 0 -477 176t-179 495q1 213 95 391t279 286q185 110 423 110z" />
    <glyph glyph-name="cdotaccent" unicode="&#x10b;" horiz-adv-x="1107" 
d="M643 1229l41 233h33l-41 -233h-33zM676 1075q190 0 338 -74l-15 -28q-133 70 -323 69q-240 0 -387 -158t-147 -392t126 -352q128 -118 322 -118t328 82l10 -30q-139 -84 -346 -84t-345 125q-139 125 -139 375t161 418q161 167 417 167z" />
    <glyph glyph-name="Ccaron" unicode="&#x10c;" horiz-adv-x="1347" 
d="M967 1520l-170 219h39l149 -197l236 197h43l-254 -219h-43zM940 1446q238 0 432 -109l-14 -30q-192 104 -390 104q-378 0 -579 -224t-202 -527q-1 -302 168 -470t446 -167q174 0 409 86l9 -33q-231 -88 -420 -88q-299 0 -477 176t-179 495q1 213 95 391t279 286
q185 110 423 110z" />
    <glyph glyph-name="ccaron" unicode="&#x10d;" horiz-adv-x="1107" 
d="M987 1499l-266 -305h-41l-160 305h39l141 -280l246 280h41zM676 1075q190 0 338 -74l-15 -28q-133 70 -323 69q-240 0 -387 -158t-147 -392t126 -352q128 -118 322 -118t328 82l10 -30q-139 -84 -346 -84t-345 125q-139 125 -139 375t161 418q161 167 417 167z" />
    <glyph glyph-name="Dcaron" unicode="&#x10e;" horiz-adv-x="1548" 
d="M788 1520l-170 219h39l150 -197l235 197h43l-254 -219h-43zM780 1399h-368l-240 -1364h459q338 0 551 201t213 544q0 291 -162 455t-453 164zM766 1434q303 0 487 -164q185 -164 185 -504t-222 -553t-589 -213h-504l254 1434h389z" />
    <glyph glyph-name="dcaron" unicode="&#x10f;" horiz-adv-x="1294" 
d="M1473 1499h36q-35 -176 -84 -285h-24q45 121 72 285zM1059 570q1 220 -115 346t-332 126t-345 -162q-128 -162 -128 -384t116 -348t314 -125q231 0 361 163q129 164 129 384zM623 1075q186 0 313 -104t151 -287l144 815h41l-211 -1210l-39 -289h-41l33 240
q-66 -113 -183 -182t-268 -68q-213 0 -338 131t-127 367t135 411q137 176 390 176z" />
    <glyph glyph-name="Dcroat" unicode="&#x110;" horiz-adv-x="1548" 
d="M780 1399h-368l-121 -686h401l-4 -29h-403l-113 -649h459q338 0 551 201t213 544q0 291 -162 455t-453 164zM766 1434q303 0 487 -164q185 -164 185 -504t-222 -553t-589 -213h-504l121 684h-189l6 29h187l129 721h389z" />
    <glyph glyph-name="dcroat" unicode="&#x111;" horiz-adv-x="1296" 
d="M1059 570q1 220 -115 346t-332 126t-345 -162q-128 -162 -128 -384t116 -348t314 -125q231 0 361 163q129 164 129 384zM623 1075q186 0 313 -104t151 -287l103 582h-352l4 20h352l37 213h41l-37 -213h192l-2 -20h-194l-170 -977l-39 -289h-41l33 240q-66 -113 -183 -182
t-268 -68q-213 0 -338 131t-127 367t135 411q137 176 390 176z" />
    <glyph glyph-name="Emacron" unicode="&#x112;" horiz-adv-x="1331" 
d="M1180 1673l-9 -28h-577l8 28h578zM1331 1434l-8 -35h-913l-121 -684h788l-6 -35h-788l-113 -645h948l-6 -35h-991l254 1434h956z" />
    <glyph glyph-name="emacron" unicode="&#x113;" horiz-adv-x="1153" 
d="M987 1348l-8 -29h-578l9 29h577zM696 1042q-222 0 -374 -145t-187 -354q203 -16 262 -17q612 0 617 289q2 117 -84 172q-87 55 -234 55zM708 1075q152 0 251 -62t98 -196q-3 -100 -59 -168q-129 -155 -599 -155q-72 0 -268 16q-2 -20 -2 -59q-2 -211 112 -320
q115 -109 327 -109t356 82l8 -32q-150 -82 -376 -82t-350 121t-120 338q2 115 44 224q94 245 310 347q116 56 268 55z" />
    <glyph glyph-name="Ebreve" unicode="&#x114;" horiz-adv-x="1331" 
d="M890 1559q-192 0 -202 186l29 4q10 -162 179 -162t222 162l31 -4q-67 -186 -259 -186zM1331 1434l-8 -35h-913l-121 -684h788l-6 -35h-788l-113 -645h948l-6 -35h-991l254 1434h956z" />
    <glyph glyph-name="ebreve" unicode="&#x115;" horiz-adv-x="1153" 
d="M692 1233q-194 0 -203 188l29 4q14 -164 182 -164t222 164l30 -4q-66 -188 -260 -188zM696 1042q-222 0 -374 -145t-187 -354q203 -16 262 -17q612 0 617 289q2 117 -84 172q-87 55 -234 55zM708 1075q152 0 251 -62t98 -196q-3 -100 -59 -168q-129 -155 -599 -155
q-72 0 -268 16q-2 -20 -2 -59q-2 -211 112 -320q115 -109 327 -109t356 82l8 -32q-150 -82 -376 -82t-350 121t-120 338q2 115 44 224q94 245 310 347q116 56 268 55z" />
    <glyph glyph-name="Edotaccent" unicode="&#x116;" horiz-adv-x="1331" 
d="M864 1536l41 233h31l-41 -233h-31zM1331 1434l-8 -35h-913l-121 -684h788l-6 -35h-788l-113 -645h948l-6 -35h-991l254 1434h956z" />
    <glyph glyph-name="edotaccent" unicode="&#x117;" horiz-adv-x="1153" 
d="M725 1229l41 233h33l-41 -233h-33zM696 1042q-222 0 -374 -145t-187 -354q203 -16 262 -17q612 0 617 289q2 117 -84 172q-87 55 -234 55zM708 1075q152 0 251 -62t98 -196q-3 -100 -59 -168q-129 -155 -599 -155q-72 0 -268 16q-2 -20 -2 -59q-2 -211 112 -320
q115 -109 327 -109t356 82l8 -32q-150 -82 -376 -82t-350 121t-120 338q2 115 44 224q94 245 310 347q116 56 268 55z" />
    <glyph glyph-name="Eogonek" unicode="&#x118;" horiz-adv-x="1331" 
d="M926 -227q0 -82 86 -82q39 0 69 10v-29q-35 -12 -82 -12q-106 0 -106 107q0 133 162 233h-934l254 1434h956l-8 -35h-913l-121 -684h788l-6 -35h-788l-113 -645h948l-6 -35h-6q-180 -96 -180 -227z" />
    <glyph glyph-name="eogonek" unicode="&#x119;" horiz-adv-x="1153" 
d="M696 1042q-222 0 -374 -145t-187 -354q203 -16 262 -17q612 0 617 289q2 117 -84 172q-87 55 -234 55zM708 1075q152 0 251 -62t98 -196q-3 -100 -59 -168q-129 -155 -599 -155q-72 0 -268 16q-2 -20 -2 -59q-2 -211 112 -320q115 -109 327 -109t356 82l8 -32
q-43 -27 -119 -47q-221 -86 -221 -246q0 -88 88 -88q39 0 70 10v-29q-35 -12 -83 -12t-78 30t-30 81q0 150 152 231q-86 -12 -156 -12q-225 0 -349 121t-120 338q2 115 44 224q94 245 310 347q116 56 268 55z" />
    <glyph glyph-name="Ecaron" unicode="&#x11a;" horiz-adv-x="1331" 
d="M860 1520l-170 219h39l150 -197l235 197h43l-254 -219h-43zM1331 1434l-8 -35h-913l-121 -684h788l-6 -35h-788l-113 -645h948l-6 -35h-991l254 1434h956z" />
    <glyph glyph-name="ecaron" unicode="&#x11b;" horiz-adv-x="1153" 
d="M928 1499l-266 -305h-41l-160 305h39l141 -280l246 280h41zM696 1042q-222 0 -374 -145t-187 -354q203 -16 262 -17q612 0 617 289q2 117 -84 172q-87 55 -234 55zM708 1075q152 0 251 -62t98 -196q-3 -100 -59 -168q-129 -155 -599 -155q-72 0 -268 16q-2 -20 -2 -59
q-2 -211 112 -320q115 -109 327 -109t356 82l8 -32q-150 -82 -376 -82t-350 121t-120 338q2 115 44 224q94 245 310 347q116 56 268 55z" />
    <glyph glyph-name="Gcircumflex" unicode="&#x11c;" horiz-adv-x="1574" 
d="M1034 1739l170 -219h-39l-149 196l-236 -196h-43l254 219h43zM946 1446q256 0 469 -98l-12 -29q-207 92 -457 92q-360 0 -556 -214q-196 -213 -200 -521t161 -480t468 -173q238 0 486 149l79 459h-417l6 35h457l-89 -510q-268 -168 -528 -168q-324 0 -497 184t-169 483
q4 339 214 565t585 226z" />
    <glyph glyph-name="gcircumflex" unicode="&#x11d;" horiz-adv-x="1269" 
d="M545 1194l266 305h41l160 -305h-39l-142 281l-245 -281h-41zM612 1042q-212 0 -343 -153q-130 -154 -130 -371t110 -338t310 -121q240 0 361 160q120 160 120 376q0 215 -108 331t-320 116zM621 1075q188 0 306 -99t140 -261l68 350h36l-176 -1004q-72 -410 -526 -409
q-248 0 -428 115l12 30q174 -113 414 -112q422 0 487 376l33 193q-135 -227 -434 -227q-221 0 -340 131q-119 132 -118 362t141 392t385 163z" />
    <glyph glyph-name="Gbreve" unicode="&#x11e;" horiz-adv-x="1574" 
d="M984 1559q-192 0 -202 186l29 4q10 -162 179 -162t222 162l31 -4q-67 -186 -259 -186zM946 1446q256 0 469 -98l-12 -29q-207 92 -457 92q-360 0 -556 -214q-196 -213 -200 -521t161 -480t468 -173q238 0 486 149l79 459h-417l6 35h457l-89 -510q-268 -168 -528 -168
q-324 0 -497 184t-169 483q4 339 214 565t585 226z" />
    <glyph glyph-name="gbreve" unicode="&#x11f;" horiz-adv-x="1269" 
d="M792 1233q-194 0 -204 188l28 4q14 -164 182 -164t222 164l31 -4q-65 -188 -259 -188zM612 1042q-212 0 -343 -153q-130 -154 -130 -371t110 -338t310 -121q240 0 361 160q120 160 120 376q0 215 -108 331t-320 116zM621 1075q188 0 306 -99t140 -261l68 350h36
l-176 -1004q-72 -410 -526 -409q-248 0 -428 115l12 30q174 -113 414 -112q422 0 487 376l33 193q-135 -227 -434 -227q-221 0 -340 131q-119 132 -118 362t141 392t385 163z" />
    <glyph glyph-name="Gdotaccent" unicode="&#x120;" horiz-adv-x="1574" 
d="M956 1536l41 233h31l-41 -233h-31zM946 1446q256 0 469 -98l-12 -29q-207 92 -457 92q-360 0 -556 -214q-196 -213 -200 -521t161 -480t468 -173q238 0 486 149l79 459h-417l6 35h457l-89 -510q-268 -168 -528 -168q-324 0 -497 184t-169 483q4 339 214 565t585 226z" />
    <glyph glyph-name="gdotaccent" unicode="&#x121;" horiz-adv-x="1269" 
d="M768 1229l41 233h33l-41 -233h-33zM612 1042q-212 0 -343 -153q-130 -154 -130 -371t110 -338t310 -121q240 0 361 160q120 160 120 376q0 215 -108 331t-320 116zM621 1075q188 0 306 -99t140 -261l68 350h36l-176 -1004q-72 -410 -526 -409q-248 0 -428 115l12 30
q174 -113 414 -112q422 0 487 376l33 193q-135 -227 -434 -227q-221 0 -340 131q-119 132 -118 362t141 392t385 163z" />
    <glyph glyph-name="Gcommaaccent" unicode="&#x122;" horiz-adv-x="1574" 
d="M770 -92h41q-16 -106 -55 -227h-35q31 104 49 227zM946 1446q256 0 469 -98l-12 -29q-207 92 -457 92q-360 0 -556 -214q-196 -213 -200 -521t161 -480t468 -173q238 0 486 149l79 459h-417l6 35h457l-89 -510q-268 -168 -528 -168q-324 0 -497 184t-169 483
q4 339 214 565t585 226z" />
    <glyph glyph-name="gcommaaccent" unicode="&#x123;" horiz-adv-x="1269" 
d="M729 1202h-41q16 106 55 228h35q-31 -105 -49 -228zM612 1042q-212 0 -343 -153q-130 -154 -130 -371t110 -338t310 -121q240 0 361 160q120 160 120 376q0 215 -108 331t-320 116zM621 1075q188 0 306 -99t140 -261l68 350h36l-176 -1004q-72 -410 -526 -409
q-248 0 -428 115l12 30q174 -113 414 -112q422 0 487 376l33 193q-135 -227 -434 -227q-221 0 -340 131q-119 132 -118 362t141 392t385 163z" />
    <glyph glyph-name="Hcircumflex" unicode="&#x124;" horiz-adv-x="1511" 
d="M985 1739l170 -219h-39l-149 196l-236 -196h-43l254 219h43zM160 0h-41l254 1434h39l-123 -697h987l123 697h39l-252 -1434h-41l125 702h-987z" />
    <glyph glyph-name="hcircumflex" unicode="&#x125;" horiz-adv-x="1234" 
d="M430 1800l170 -219h-39l-149 197l-236 -197h-43l254 219h43zM1071 711q0 -55 -16 -150l-99 -561h-41l99 561q14 82 14 146q0 155 -79 243t-265 88t-308 -136q-120 -136 -159 -349l-98 -553h-41l264 1499h41l-125 -704q143 281 451 280q195 0 279 -102t83 -262z" />
    <glyph glyph-name="Hbar" unicode="&#x126;" horiz-adv-x="1521" 
d="M356 1124l-67 -387h987l67 387h-987zM160 0h-41l198 1124h-133l6 29h134l49 281h39l-50 -281h988l49 281h39l-49 -281h133l-6 -29h-134l-196 -1124h-41l125 702h-987z" />
    <glyph glyph-name="hbar" unicode="&#x127;" horiz-adv-x="1234" 
d="M1071 711q0 -55 -16 -150l-99 -561h-41l99 561q14 82 14 146q0 155 -79 243t-265 88t-308 -136q-120 -136 -159 -349l-98 -553h-41l223 1266h-184l4 20h184l37 213h41l-39 -213h358l-2 -20h-360l-82 -471q143 281 451 280q195 0 279 -102t83 -262z" />
    <glyph glyph-name="Itilde" unicode="&#x128;" horiz-adv-x="497" 
d="M555 1610q-55 0 -119 37q-90 45 -121 45q-84 0 -129 -78l-20 10q53 98 153 98q57 0 127 -41t115 -41q80 0 129 74l19 -10q-55 -94 -154 -94zM160 0h-41l254 1434h39z" />
    <glyph glyph-name="itilde" unicode="&#x129;" horiz-adv-x="438" 
d="M459 1284q-55 0 -119 37q-90 45 -121 45q-84 0 -129 -78l-20 10q53 98 153 99q57 0 127 -41t115 -41q80 0 129 74l18 -11q-55 -94 -153 -94zM326 1065l-189 -1065h-41l183 1032h-132l7 33h172z" />
    <glyph glyph-name="Imacron" unicode="&#x12a;" horiz-adv-x="497" 
d="M721 1673l-8 -28h-578l8 28h578zM160 0h-41l254 1434h39z" />
    <glyph glyph-name="imacron" unicode="&#x12b;" horiz-adv-x="438" 
d="M602 1348l-8 -29h-578l9 29h577zM326 1065l-189 -1065h-41l183 1032h-132l7 33h172z" />
    <glyph glyph-name="Ibreve" unicode="&#x12c;" horiz-adv-x="497" 
d="M432 1559q-192 0 -203 186l29 4q10 -162 179 -162t222 162l31 -4q-66 -186 -258 -186zM160 0h-41l254 1434h39z" />
    <glyph glyph-name="ibreve" unicode="&#x12d;" horiz-adv-x="438" 
d="M314 1233q-194 0 -203 188l28 4q13 -164 181 -164t223 164l30 -4q-65 -188 -259 -188zM326 1065l-189 -1065h-41l183 1032h-132l7 33h172z" />
    <glyph glyph-name="Iogonek" unicode="&#x12e;" horiz-adv-x="497" 
d="M-20 -227q0 -82 86 -82q39 0 69 10v-29q-35 -12 -82 -12q-106 0 -106 107q0 135 172 239l254 1428h39l-252 -1434q-180 -96 -180 -227z" />
    <glyph glyph-name="iogonek" unicode="&#x12f;" horiz-adv-x="436" 
d="M326 1272l41 227h36l-41 -227h-36zM-43 -227q0 -82 86 -82q39 0 70 10v-29q-35 -12 -82 -12q-106 0 -107 107q0 135 172 239l183 1026h-132l7 33h172l-189 -1065q-180 -96 -180 -227z" />
    <glyph glyph-name="Idotaccent" unicode="&#x130;" horiz-adv-x="497" 
d="M406 1536l40 233h31l-41 -233h-30zM160 0h-41l254 1434h39z" />
    <glyph glyph-name="dotlessi" unicode="&#x131;" horiz-adv-x="438" 
d="M326 1065l-189 -1065h-41l183 1032h-132l7 33h172z" />
    <glyph glyph-name="Jcircumflex" unicode="&#x134;" horiz-adv-x="1107" 
d="M1073 1739l170 -219h-39l-149 196l-236 -196h-43l254 219h43zM1034 1434l-178 -1004q-37 -211 -154 -327t-299 -115q-145 0 -238 70t-130 173l28 25q35 -100 123 -167t232 -67t254 102q109 101 145 310l176 1000h41z" />
    <glyph glyph-name="jcircumflex" unicode="&#x135;" horiz-adv-x="417" 
d="M49 1151l266 305h41l160 -305h-39l-141 281l-246 -281h-41zM-63 -350h-52l6 37h41q72 -1 96 27t35 100l216 1218h-129l4 33h172l-224 -1255q-19 -124 -85 -148q-32 -12 -80 -12z" />
    <glyph glyph-name="Kcommaaccent" unicode="&#x136;" horiz-adv-x="1333" 
d="M594 -92h41q-16 -106 -55 -227h-35q31 104 49 227zM1356 1434l-606 -533l411 -901h-47l-397 874l-469 -411l-82 -463h-41l254 1434h41l-164 -916l1047 916h53z" />
    <glyph glyph-name="kcommaaccent" unicode="&#x137;" horiz-adv-x="1058" 
d="M457 -92h41q-16 -106 -56 -227h-34q31 104 49 227zM393 1499l-190 -1077l782 643h51l-485 -401l319 -664h-47l-305 637l-325 -268l-66 -369h-41l266 1499h41z" />
    <glyph glyph-name="kgreenlandic" unicode="&#x138;" horiz-adv-x="1058" 
d="M1036 1065l-485 -401l319 -664h-47l-305 637l-325 -268l-66 -369h-41l190 1065h41l-116 -643l784 643h51z" />
    <glyph glyph-name="Lacute" unicode="&#x139;" horiz-adv-x="1101" 
d="M582 1739l-150 -219h-35l144 219h41zM418 1434l-246 -1399h817l-6 -35h-860l254 1434h41z" />
    <glyph glyph-name="lacute" unicode="&#x13a;" horiz-adv-x="458" 
d="M530 1800l-149 -219h-35l143 219h41zM185 23h40l58 4h6l-6 -33l-97 -4q-61 0 -85 28t-9 107l242 1374h41l-242 -1376q-20 -100 52 -100z" />
    <glyph glyph-name="Lcommaaccent" unicode="&#x13b;" horiz-adv-x="1101" 
d="M535 -92h40q-16 -106 -55 -227h-35q32 104 50 227zM418 1434l-246 -1399h817l-6 -35h-860l254 1434h41z" />
    <glyph glyph-name="lcommaaccent" unicode="&#x13c;" horiz-adv-x="458" 
d="M113 -92h41q-16 -106 -56 -227h-35q32 104 50 227zM185 23h40l58 4h6l-6 -33l-97 -4q-61 0 -85 28t-9 107l242 1374h41l-242 -1376q-20 -100 52 -100z" />
    <glyph glyph-name="Lcaron" unicode="&#x13d;" horiz-adv-x="1101" 
d="M418 1434l-246 -1399h817l-6 -35h-860l254 1434h41zM889 1434h37q-35 -176 -84 -285h-25q45 121 72 285z" />
    <glyph glyph-name="lcaron" unicode="&#x13e;" horiz-adv-x="458" 
d="M185 23h40l58 4h6l-6 -33l-97 -4q-61 0 -85 28t-9 107l242 1374h41l-242 -1376q-20 -100 52 -100zM584 1499h37q-35 -176 -84 -285h-25q45 121 72 285z" />
    <glyph glyph-name="Lslash" unicode="&#x141;" horiz-adv-x="1101" 
d="M418 1434l-137 -783l378 201l-6 -33l-379 -201l-102 -583h817l-6 -35h-860l104 594l-188 -100l6 32l188 101l144 807h41z" />
    <glyph glyph-name="lslash" unicode="&#x142;" horiz-adv-x="464" 
d="M187 23h40l58 4h6l-6 -33l-97 -4q-61 0 -85 28t-9 107l82 473l-145 -78l10 35l141 76l154 868h41l-150 -844l226 121l-4 -33l-228 -120l-86 -500q-20 -100 52 -100z" />
    <glyph glyph-name="Nacute" unicode="&#x143;" horiz-adv-x="1492" 
d="M1077 1739l-149 -219h-35l143 219h41zM1407 1434l-254 -1434h-47l-703 1372l-243 -1372h-41l254 1434h49l700 -1371l244 1371h41z" />
    <glyph glyph-name="nacute" unicode="&#x144;" horiz-adv-x="1214" 
d="M918 1497l-203 -303h-35l197 303h41zM225 764q149 311 496 311q172 0 257 -104q84 -104 78 -234q-3 -66 -14 -129l-108 -608h-41l108 608q40 152 -23 292q-28 62 -99 102q-72 40 -182 40q-111 0 -203 -45q-162 -79 -247 -274q-36 -82 -52 -170l-99 -553h-41l129 731
l39 334h39z" />
    <glyph glyph-name="Ncommaaccent" unicode="&#x145;" horiz-adv-x="1492" 
d="M627 -92h41q-16 -106 -56 -227h-34q31 104 49 227zM1407 1434l-254 -1434h-47l-703 1372l-243 -1372h-41l254 1434h49l700 -1371l244 1371h41z" />
    <glyph glyph-name="ncommaaccent" unicode="&#x146;" horiz-adv-x="1214" 
d="M518 -92h41q-16 -106 -55 -227h-35q31 104 49 227zM225 764q149 311 496 311q172 0 257 -104q84 -104 78 -234q-3 -66 -14 -129l-108 -608h-41l108 608q40 152 -23 292q-28 62 -99 102q-72 40 -182 40q-111 0 -203 -45q-162 -79 -247 -274q-36 -82 -52 -170l-99 -553h-41
l129 731l39 334h39z" />
    <glyph glyph-name="Ncaron" unicode="&#x147;" horiz-adv-x="1492" 
d="M899 1520l-170 219h39l150 -197l235 197h43l-254 -219h-43zM1407 1434l-254 -1434h-47l-703 1372l-243 -1372h-41l254 1434h49l700 -1371l244 1371h41z" />
    <glyph glyph-name="ncaron" unicode="&#x148;" horiz-adv-x="1214" 
d="M991 1499l-266 -305h-41l-160 305h39l142 -280l245 280h41zM225 764q149 311 496 311q172 0 257 -104q84 -104 78 -234q-3 -66 -14 -129l-108 -608h-41l108 608q40 152 -23 292q-28 62 -99 102q-72 40 -182 40q-111 0 -203 -45q-162 -79 -247 -274q-36 -82 -52 -170
l-99 -553h-41l129 731l39 334h39z" />
    <glyph glyph-name="Eng" unicode="&#x14a;" horiz-adv-x="1490" 
d="M1405 1434l-256 -1459q-19 -106 -81 -163t-179 -105l-8 33q36 16 53 22t50 30q101 71 120 177l6 31l-709 1374l-241 -1374h-41l252 1434h47l704 -1368l242 1368h41z" />
    <glyph glyph-name="eng" unicode="&#x14b;" horiz-adv-x="1214" 
d="M720 1075q171 0 253 -98t82 -246q0 -66 -13 -123l-114 -639q-16 -104 -78 -159t-180 -103l-8 31l32 14q101 43 142 95q40 52 53 122l112 639q12 59 13 121q0 137 -74 225t-238 88q-116 0 -208 -45q-162 -79 -247 -274q-36 -82 -52 -170l-99 -553h-41l129 731l39 334h39
l-37 -301q149 311 495 311z" />
    <glyph glyph-name="Omacron" unicode="&#x14c;" horiz-adv-x="1691" 
d="M1282 1673l-8 -28h-578l9 28h577zM930 1411q-328 0 -524 -211t-206 -528q-11 -317 161 -483q173 -165 446 -164q325 0 521 211t207 528t-161 482t-444 165zM803 -10q-289 0 -473 174t-172 505t215 553t559 224q291 -2 474 -175t172 -504t-216 -554t-559 -223z" />
    <glyph glyph-name="omacron" unicode="&#x14d;" horiz-adv-x="1284" 
d="M1014 1348l-8 -29h-578l8 29h578zM636 1042q-216 0 -354 -152t-144 -390t119 -358q126 -120 342 -120t355 152q140 152 146 390t-121 358t-343 120zM651 1075q217 0 357 -127t134 -380q-6 -254 -154 -416t-404 -162q-217 0 -357 127q-139 127 -133 379t154 416
q148 163 403 163z" />
    <glyph glyph-name="Obreve" unicode="&#x14e;" horiz-adv-x="1691" 
d="M966 1559q-192 0 -202 186l29 4q10 -162 179 -162t222 162l31 -4q-67 -186 -259 -186zM930 1411q-328 0 -524 -211t-206 -528q-11 -317 161 -483q173 -165 446 -164q325 0 521 211t207 528t-161 482t-444 165zM803 -10q-289 0 -473 174t-172 505t215 553t559 224
q291 -2 474 -175t172 -504t-216 -554t-559 -223z" />
    <glyph glyph-name="obreve" unicode="&#x14f;" horiz-adv-x="1284" 
d="M742 1233q-194 0 -203 188l28 4q13 -164 181 -164t223 164l30 -4q-65 -188 -259 -188zM636 1042q-216 0 -354 -152t-144 -390t119 -358q126 -120 342 -120t355 152q140 152 146 390t-121 358t-343 120zM651 1075q217 0 357 -127t134 -380q-6 -254 -154 -416t-404 -162
q-217 0 -357 127q-139 127 -133 379t154 416q148 163 403 163z" />
    <glyph glyph-name="Ohungarumlaut" unicode="&#x150;" horiz-adv-x="1691" 
d="M987 1739l-151 -219h-35l143 219h43zM1206 1739l-151 -219h-35l143 219h43zM930 1411q-328 0 -524 -211t-206 -528q-11 -317 161 -483q173 -165 446 -164q325 0 521 211t207 528t-161 482t-444 165zM803 -10q-289 0 -473 174t-172 505t215 553t559 224q291 -2 474 -175
t172 -504t-216 -554t-559 -223z" />
    <glyph glyph-name="ohungarumlaut" unicode="&#x151;" horiz-adv-x="1284" 
d="M780 1497l-205 -303h-34l196 303h43zM999 1497l-204 -303h-35l196 303h43zM636 1042q-216 0 -354 -152t-144 -390t119 -358q126 -120 342 -120t355 152q140 152 146 390t-121 358t-343 120zM651 1075q217 0 357 -127t134 -380q-6 -254 -154 -416t-404 -162
q-217 0 -357 127q-139 127 -133 379t154 416q148 163 403 163z" />
    <glyph glyph-name="OE" unicode="&#x152;" horiz-adv-x="2629" 
d="M911 1411q-298 0 -498 -207t-212 -536q-11 -291 159 -468t466 -177q296 -1 496 205t214 538q12 291 -158 468t-467 177zM924 1446q280 0 454 -153t197 -408l98 549h957l-9 -35h-913l-121 -684h789l-6 -35h-789l-115 -645h951l-7 -35h-991l70 397q-92 -193 -264 -301
t-406 -108q-313 0 -493 186t-168 492q12 344 218 562t548 218z" />
    <glyph glyph-name="oe" unicode="&#x153;" horiz-adv-x="2160" 
d="M1704 1042q-221 0 -374 -145t-187 -354q203 -16 262 -17q612 0 616 289q2 117 -84 172t-233 55zM636 1042q-216 0 -354 -152t-144 -390t119 -358q126 -120 342 -120t355 152q140 152 146 390t-121 358t-343 120zM651 1075q193 0 327 -101t159 -298q66 174 213 287
t356 112q162 0 261 -62t97 -196q-2 -100 -58 -168q-128 -155 -599 -155q-72 0 -268 16q-2 -20 -2 -59q-3 -211 111 -320t327 -109t356 82l8 -32q-149 -82 -361 -82t-332 91t-146 259q-58 -164 -192 -257t-338 -93t-343 127t-133 379t154 416q148 163 403 163z" />
    <glyph glyph-name="Racute" unicode="&#x154;" horiz-adv-x="1413" 
d="M920 1739l-150 -219h-35l144 219h41zM877 694q193 0 317 98t123 260q0 163 -89 255t-253 92h-565l-125 -705h592zM983 1434q177 0 277 -102t100 -264t-108 -272t-300 -132l207 -664h-45l-203 659h-630l-117 -659h-41l252 1434h608z" />
    <glyph glyph-name="racute" unicode="&#x155;" horiz-adv-x="622" 
d="M621 1454l-203 -303h-35l197 303h41zM635 1065l-10 -39q-147 18 -254 -92q-106 -111 -140 -291l-112 -643h-41l141 801l37 264h37l-31 -227q54 113 156 178t217 49z" />
    <glyph glyph-name="Rcommaaccent" unicode="&#x156;" horiz-adv-x="1413" 
d="M592 -92h41q-16 -106 -55 -227h-35q31 104 49 227zM877 694q193 0 317 98t123 260q0 163 -89 255t-253 92h-565l-125 -705h592zM983 1434q177 0 277 -102t100 -264t-108 -272t-300 -132l207 -664h-45l-203 659h-630l-117 -659h-41l252 1434h608z" />
    <glyph glyph-name="rcommaaccent" unicode="&#x157;" horiz-adv-x="622" 
d="M63 -92h41q-16 -106 -55 -227h-35q31 104 49 227zM635 1065l-10 -39q-147 18 -254 -92q-106 -111 -140 -291l-112 -643h-41l141 801l37 264h37l-31 -227q54 113 156 178t217 49z" />
    <glyph glyph-name="Rcaron" unicode="&#x158;" horiz-adv-x="1413" 
d="M860 1520l-170 219h39l150 -197l235 197h43l-254 -219h-43zM877 694q193 0 317 98t123 260q0 163 -89 255t-253 92h-565l-125 -705h592zM983 1434q177 0 277 -102t100 -264t-108 -272t-300 -132l207 -664h-45l-203 659h-630l-117 -659h-41l252 1434h608z" />
    <glyph glyph-name="rcaron" unicode="&#x159;" horiz-adv-x="622" 
d="M696 1458l-266 -305h-41l-160 305h39l142 -280l245 280h41zM635 1065l-10 -39q-147 18 -254 -92q-106 -111 -140 -291l-112 -643h-41l141 801l37 264h37l-31 -227q54 113 156 178t217 49z" />
    <glyph glyph-name="Sacute" unicode="&#x15a;" horiz-adv-x="1218" 
d="M893 1737l-150 -219h-34l143 219h41zM688 1446q213 0 467 -107l-10 -34q-242 106 -458 106t-315 -92t-100 -225q0 -66 22 -114t78 -87t105 -62t156 -65q264 -104 349 -176t85 -234t-111 -264q-111 -104 -354 -104q-295 0 -567 149l12 39q274 -156 561 -151q217 2 317 96
q99 93 99 235t-82 208t-291 149q-209 84 -271 121q-62 36 -88 68q-61 74 -63 185q0 171 123 265t336 94z" />
    <glyph glyph-name="sacute" unicode="&#x15b;" horiz-adv-x="966" 
d="M784 1491l-202 -303h-35l196 303h41zM522 1075q168 0 352 -80l-8 -32q-194 79 -344 79t-230 -60t-81 -164q0 -104 59 -148t180 -86t167 -60q45 -18 97 -52t70 -78t19 -107q0 -143 -97 -220t-287 -77t-390 121l10 34q205 -125 397 -122q152 3 238 69t86 182t-66 162
t-230 100t-230 106t-66 173t93 191t261 69z" />
    <glyph glyph-name="Scircumflex" unicode="&#x15c;" horiz-adv-x="1218" 
d="M797 1737l170 -219h-39l-150 196l-235 -196h-43l254 219h43zM688 1446q213 0 467 -107l-10 -34q-242 106 -458 106t-315 -92t-100 -225q0 -66 22 -114t78 -87t105 -62t156 -65q264 -104 349 -176t85 -234t-111 -264q-111 -104 -354 -104q-295 0 -567 149l12 39
q274 -156 561 -151q217 2 317 96q99 93 99 235t-82 208t-291 149q-209 84 -271 121q-62 36 -88 68q-61 74 -63 185q0 171 123 265t336 94z" />
    <glyph glyph-name="scircumflex" unicode="&#x15d;" horiz-adv-x="966" 
d="M338 1188l266 305h41l160 -305h-39l-141 280l-246 -280h-41zM522 1075q168 0 352 -80l-8 -32q-194 79 -344 79t-230 -60t-81 -164q0 -104 59 -148t180 -86t167 -60q45 -18 97 -52t70 -78t19 -107q0 -143 -97 -220t-287 -77t-390 121l10 34q205 -125 397 -122
q152 3 238 69t86 182t-66 162t-230 100t-230 106t-66 173t93 191t261 69z" />
    <glyph glyph-name="Scedilla" unicode="&#x15e;" horiz-adv-x="1218" 
d="M688 1446q213 0 467 -107l-10 -34q-242 106 -458 106t-315 -92t-100 -225q0 -66 22 -114t78 -87t105 -62t156 -65q264 -104 349 -176t85 -234t-111 -264q-111 -104 -354 -104h-37l-63 -129q34 4 68 1t67 -31t33 -85t-49 -92t-131 -35t-150 29l6 26q57 -28 133 -28
q156 1 156 108t-158 78l-10 14l70 146q-266 14 -502 147l12 39q274 -156 561 -151q217 2 317 96q99 93 99 235t-82 208t-291 149q-209 84 -271 121q-62 36 -88 68q-61 74 -63 185q0 171 123 265t336 94z" />
    <glyph glyph-name="scedilla" unicode="&#x15f;" horiz-adv-x="966" 
d="M522 1075q168 0 352 -80l-8 -32q-194 79 -344 79t-230 -60t-81 -164q0 -104 59 -148t180 -86t167 -60q45 -18 97 -52t70 -78t19 -107q0 -143 -97 -220t-278 -77h-4l-66 -133q35 4 69 1t67 -31q32 -28 32 -85t-49 -92t-130 -35t-150 29l6 26q57 -28 133 -28q156 1 156 108
t-158 78l-10 14l71 150q-188 8 -366 119l10 34q205 -125 397 -122q152 3 238 69t86 182t-66 162t-230 100t-230 106t-66 173t93 191t261 69z" />
    <glyph glyph-name="Scaron" unicode="&#x160;" horiz-adv-x="1218" 
d="M715 1518l-170 219h39l149 -197l236 197h43l-254 -219h-43zM688 1446q213 0 467 -107l-10 -34q-242 106 -458 106t-315 -92t-100 -225q0 -66 22 -114t78 -87t105 -62t156 -65q264 -104 349 -176t85 -234t-111 -264q-111 -104 -354 -104q-295 0 -567 149l12 39
q274 -156 561 -151q217 2 317 96q99 93 99 235t-82 208t-291 149q-209 84 -271 121q-62 36 -88 68q-61 74 -63 185q0 171 123 265t336 94z" />
    <glyph glyph-name="scaron" unicode="&#x161;" horiz-adv-x="966" 
d="M860 1493l-266 -305h-41l-160 305h39l141 -281l246 281h41zM522 1075q168 0 352 -80l-8 -32q-194 79 -344 79t-230 -60t-81 -164q0 -104 59 -148t180 -86t167 -60q45 -18 97 -52t70 -78t19 -107q0 -143 -97 -220t-287 -77t-390 121l10 34q205 -125 397 -122q152 3 238 69
t86 182t-66 162t-230 100t-230 106t-66 173t93 191t261 69z" />
    <glyph glyph-name="Tcommaaccent" unicode="&#x162;" horiz-adv-x="1140" 
d="M436 -92h41q-16 -106 -55 -227h-35q31 104 49 227zM1278 1434l-6 -35h-531l-247 -1399h-41l245 1399h-528l6 35h1102z" />
    <glyph glyph-name="tcommaaccent" unicode="&#x163;" horiz-adv-x="663" 
d="M262 -92h41q-16 -106 -55 -227h-35q31 104 49 227zM320 -10q-94 0 -138 39q-43 39 -43 100t15 147l133 756h-166l6 33h166l61 307h35l-55 -307h321l-8 -33h-319l-133 -758q-13 -68 -13 -130t38 -92t110 -30t143 21l-2 -33q-57 -20 -151 -20z" />
    <glyph glyph-name="Tcaron" unicode="&#x164;" horiz-adv-x="1140" 
d="M717 1520l-170 219h39l149 -197l236 197h43l-254 -219h-43zM1278 1434l-6 -35h-531l-247 -1399h-41l245 1399h-528l6 35h1102z" />
    <glyph glyph-name="tcaron" unicode="&#x165;" horiz-adv-x="663" 
d="M320 -10q-94 0 -138 39q-43 39 -43 100t15 147l133 756h-166l6 33h166l61 307h35l-55 -307h321l-8 -33h-319l-133 -758q-13 -68 -13 -130t38 -92t110 -30t143 21l-2 -33q-57 -20 -151 -20zM604 1499h37q-35 -176 -84 -285h-25q45 121 72 285z" />
    <glyph glyph-name="Tbar" unicode="&#x166;" horiz-adv-x="1140" 
d="M1278 1434l-6 -35h-531l-112 -637h401l-6 -29h-401l-129 -733h-41l129 733h-418l6 29h416l112 637h-528l6 35h1102z" />
    <glyph glyph-name="tbar" unicode="&#x167;" horiz-adv-x="663" 
d="M320 -10q-94 0 -138 39q-43 39 -43 100t15 147l96 555h-164l4 21h164l33 180h-166l6 33h166l61 307h35l-55 -307h321l-8 -33h-319l-33 -180h317l-2 -21h-319l-96 -557q-13 -68 -13 -130t38 -92t110 -30t143 21l-2 -33q-57 -20 -151 -20z" />
    <glyph glyph-name="Utilde" unicode="&#x168;" horiz-adv-x="1456" 
d="M1032 1610q-55 0 -119 37q-90 45 -120 45q-84 0 -129 -78l-21 10q53 98 154 98q57 0 127 -41t114 -41q80 0 129 74l19 -10q-55 -94 -154 -94zM671 -12q-224 0 -353 130q-128 130 -128 310q0 41 7 78l163 928h41l-165 -938q-6 -33 -7 -68q0 -168 120 -287t326 -119
t335 120t157 284l179 1008h40l-176 -1004q-35 -190 -175 -316t-364 -126z" />
    <glyph glyph-name="utilde" unicode="&#x169;" horiz-adv-x="1243" 
d="M854 1284q-55 0 -119 37q-90 45 -121 45q-84 0 -129 -78l-20 10q53 98 153 99q57 0 127 -41t115 -41q80 0 129 74l19 -11q-55 -94 -154 -94zM483 -10q-190 0 -272 97t-82 247q0 63 12 123l109 608h41l-107 -608q-12 -61 -12 -123q0 -139 73 -225t236 -86q316 0 456 319
q36 82 52 170l98 553h41l-129 -731l-38 -334h-37l32 299q-154 -309 -473 -309z" />
    <glyph glyph-name="Umacron" unicode="&#x16a;" horiz-adv-x="1456" 
d="M1198 1673l-8 -28h-578l9 28h577zM671 -12q-224 0 -353 130q-128 130 -128 310q0 41 7 78l163 928h41l-165 -938q-6 -33 -7 -68q0 -168 120 -287t326 -119t335 120t157 284l179 1008h40l-176 -1004q-35 -190 -175 -316t-364 -126z" />
    <glyph glyph-name="umacron" unicode="&#x16b;" horiz-adv-x="1243" 
d="M1040 1348l-8 -29h-577l8 29h577zM483 -10q-190 0 -272 97t-82 247q0 63 12 123l109 608h41l-107 -608q-12 -61 -12 -123q0 -139 73 -225t236 -86q316 0 456 319q36 82 52 170l98 553h41l-129 -731l-38 -334h-37l32 299q-154 -309 -473 -309z" />
    <glyph glyph-name="Ubreve" unicode="&#x16c;" horiz-adv-x="1456" 
d="M892 1559q-192 0 -202 186l29 4q10 -162 179 -162t222 162l31 -4q-67 -186 -259 -186zM671 -12q-224 0 -353 130q-128 130 -128 310q0 41 7 78l163 928h41l-165 -938q-6 -33 -7 -68q0 -168 120 -287t326 -119t335 120t157 284l179 1008h40l-176 -1004q-35 -190 -175 -316
t-364 -126z" />
    <glyph glyph-name="ubreve" unicode="&#x16d;" horiz-adv-x="1243" 
d="M710 1233q-194 0 -204 188l29 4q14 -164 181 -164t222 164l31 -4q-65 -188 -259 -188zM483 -10q-190 0 -272 97t-82 247q0 63 12 123l109 608h41l-107 -608q-12 -61 -12 -123q0 -139 73 -225t236 -86q316 0 456 319q36 82 52 170l98 553h41l-129 -731l-38 -334h-37
l32 299q-154 -309 -473 -309z" />
    <glyph glyph-name="Uring" unicode="&#x16e;" horiz-adv-x="1456" 
d="M936 1812q-141 0 -141 -135q1 -57 35 -87t94 -30t99 34q38 34 38 96t-35 92t-90 30zM932 1839q74 0 117 -37q43 -36 43 -112t-48 -116t-120 -40q-74 0 -117 36t-42 112t47 116q46 41 120 41zM671 -12q-224 0 -353 130q-128 130 -128 310q0 41 7 78l163 928h41l-165 -938
q-6 -33 -7 -68q0 -168 120 -287t326 -119t335 120t157 284l179 1008h40l-176 -1004q-35 -190 -175 -316t-364 -126z" />
    <glyph glyph-name="uring" unicode="&#x16f;" horiz-adv-x="1243" 
d="M858 1365q0 122 -130 122q-60 0 -98 -34t-38 -96q0 -122 130 -122q60 0 98 34t38 96zM721 1208q-161 0 -159 148q1 76 47 116t120 41q160 0 160 -149q0 -76 -47 -116t-121 -40zM483 -10q-190 0 -272 97t-82 247q0 63 12 123l109 608h41l-107 -608q-12 -61 -12 -123
q0 -139 73 -225t236 -86q316 0 456 319q36 82 52 170l98 553h41l-129 -731l-38 -334h-37l32 299q-154 -309 -473 -309z" />
    <glyph glyph-name="Uhungarumlaut" unicode="&#x170;" horiz-adv-x="1456" 
d="M950 1739l-151 -219h-35l143 219h43zM1169 1739l-151 -219h-35l143 219h43zM671 -12q-224 0 -353 130q-128 130 -128 310q0 41 7 78l163 928h41l-165 -938q-6 -33 -7 -68q0 -168 120 -287t326 -119t335 120t157 284l179 1008h40l-176 -1004q-35 -190 -175 -316t-364 -126
z" />
    <glyph glyph-name="uhungarumlaut" unicode="&#x171;" horiz-adv-x="1243" 
d="M1024 1497l-205 -303h-35l197 303h43zM805 1497l-205 -303h-35l197 303h43zM483 -10q-190 0 -272 97t-82 247q0 63 12 123l109 608h41l-107 -608q-12 -61 -12 -123q0 -139 73 -225t236 -86q316 0 456 319q36 82 52 170l98 553h41l-129 -731l-38 -334h-37l32 299
q-154 -309 -473 -309z" />
    <glyph glyph-name="Uogonek" unicode="&#x172;" horiz-adv-x="1456" 
d="M569 -227q0 -82 86 -82q39 0 70 10v-29q-35 -12 -82 -12q-106 0 -106 107q0 133 151 221h-16q-225 0 -354 130q-128 130 -128 310q0 41 7 78l163 928h41l-165 -938q-6 -33 -7 -68q0 -168 120 -287t326 -119t335 120t157 284l179 1008h40l-176 -1004q-34 -174 -154 -296
t-311 -142q-176 -92 -176 -219z" />
    <glyph glyph-name="uogonek" unicode="&#x173;" horiz-adv-x="1243" 
d="M483 -10q-190 0 -272 97t-82 247q0 63 12 123l109 608h41l-107 -608q-12 -61 -12 -123q0 -139 73 -225t236 -86q316 0 456 319q36 82 52 170l98 553h41l-129 -731l-38 -334q-180 -96 -181 -227q0 -82 86 -82q39 0 70 10v-29q-35 -12 -82 -12q-106 0 -106 107
q0 139 176 241l32 291q-154 -309 -473 -309z" />
    <glyph glyph-name="Wcircumflex" unicode="&#x174;" horiz-adv-x="1945" 
d="M1174 1739l169 -219h-38l-150 196l-235 -196h-43l253 219h44zM1982 1434l-675 -1434h-52l-161 1348l-637 -1348h-51l-177 1434h45l166 -1375l635 1346h53l162 -1348l645 1377h47z" />
    <glyph glyph-name="wcircumflex" unicode="&#x175;" horiz-adv-x="1605" 
d="M651 1194l267 305h40l160 -305h-39l-141 281l-246 -281h-41zM1599 1065l-552 -1065h-52l-143 1004l-500 -1004h-51l-174 1065h39l170 -1014l506 1014h39l147 -1016l524 1016h47z" />
    <glyph glyph-name="Ycircumflex" unicode="&#x176;" horiz-adv-x="1249" 
d="M801 1739l170 -219h-39l-150 196l-235 -196h-43l254 219h43zM530 0h-41l103 588l-363 846h39l350 -807l631 807h49l-667 -850z" />
    <glyph glyph-name="ycircumflex" unicode="&#x177;" horiz-adv-x="1085" 
d="M354 1194l267 305h41l159 -305h-39l-141 281l-246 -281h-41zM58 -352q-63 0 -124 16l7 35q55 -16 135 -16t149 59q68 59 146 197l32 55l-266 1071h43l252 -1030l596 1030h47l-667 -1147q-70 -119 -136 -181q-66 -61 -108 -75t-106 -14z" />
    <glyph glyph-name="Ydieresis" unicode="&#x178;" horiz-adv-x="1249" 
d="M598 1536l41 233h33l-41 -233h-33zM920 1536l41 233h32l-41 -233h-32zM530 0h-41l103 588l-363 846h39l350 -807l631 807h49l-667 -850z" />
    <glyph glyph-name="Zacute" unicode="&#x179;" horiz-adv-x="1230" 
d="M909 1739l-149 -219h-35l143 219h41zM1282 1434l-6 -37l-1249 -1364l501 2h510l-8 -35h-1061l6 37l1252 1364l-484 -2h-501l6 35h1034z" />
    <glyph glyph-name="zacute" unicode="&#x17a;" horiz-adv-x="1009" 
d="M795 1497l-203 -303h-35l197 303h41zM1018 1065l-8 -37l-965 -997l297 2h496l-9 -33h-843l6 37l966 997l-278 -2h-498l6 33h830z" />
    <glyph glyph-name="Zdotaccent" unicode="&#x17b;" horiz-adv-x="1230" 
d="M758 1536l41 233h30l-41 -233h-30zM1282 1434l-6 -37l-1249 -1364l501 2h510l-8 -35h-1061l6 37l1252 1364l-484 -2h-501l6 35h1034z" />
    <glyph glyph-name="zdotaccent" unicode="&#x17c;" horiz-adv-x="1009" 
d="M571 1229l41 233h33l-41 -233h-33zM1018 1065l-8 -37l-965 -997l297 2h496l-9 -33h-843l6 37l966 997l-278 -2h-498l6 33h830z" />
    <glyph glyph-name="Zcaron" unicode="&#x17d;" horiz-adv-x="1230" 
d="M731 1520l-170 219h39l150 -197l235 197h43l-254 -219h-43zM1282 1434l-6 -37l-1249 -1364l501 2h510l-8 -35h-1061l6 37l1252 1364l-484 -2h-501l6 35h1034z" />
    <glyph glyph-name="zcaron" unicode="&#x17e;" horiz-adv-x="1009" 
d="M907 1499l-266 -305h-41l-160 305h39l142 -280l245 280h41zM1018 1065l-8 -37l-965 -997l297 2h496l-9 -33h-843l6 37l966 997l-278 -2h-498l6 33h830z" />
    <glyph glyph-name="AEacute" unicode="&#x1fc;" horiz-adv-x="2074" 
d="M1645 1739l-150 -219h-35l144 219h41zM1065 1399l-721 -924h604l164 924h-47zM-25 0h-51l1120 1434h1029l-7 -35h-911l-121 -684h785l-7 -35h-784l-113 -645h951l-8 -35h-994l80 440h-627z" />
    <glyph glyph-name="aeacute" unicode="&#x1fd;" horiz-adv-x="1849" 
d="M1231 1497l-203 -303h-35l197 303h41zM1393 1042q-221 0 -374 -146t-185 -355q176 -14 260 -15q612 0 616 289q2 117 -84 172t-233 55zM494 590q-168 0 -292 -73t-124 -221t83 -210t214 -63q131 0 251 61t187 162q-35 90 -31 203q0 53 15 129q-135 12 -303 12zM1395 1075
q162 0 261 -62t97 -196q-2 -100 -58 -168q-128 -155 -599 -155q-72 0 -269 16q-2 -20 -2 -61q-2 -211 112 -319t327 -108t356 82l8 -32q-150 -82 -377 -82q-313 0 -422 219q-75 -103 -199 -161t-270 -58t-235 74q-90 74 -90 219q0 176 136 258t355 82q111 0 279 -15
q39 154 139 266q-18 94 -98 132t-249 36q-169 0 -347 -51l-2 35q186 49 385 49q299 0 344 -166q172 166 418 166z" />
    <glyph glyph-name="Oslashacute" unicode="&#x1fe;" horiz-adv-x="1691" 
d="M1090 1739l-150 -219h-35l144 219h41zM930 1411q-328 0 -524 -211q-196 -210 -206 -536q-11 -326 187 -500l928 1132q-158 115 -385 115zM807 25q325 1 521 211t208 540t-197 502l-929 -1133q158 -121 397 -120zM803 -10q-250 0 -418 125l-147 -181h-39l163 199
q-220 183 -206 525t217 564t559 224q242 -4 407 -121l146 178h39l-160 -196q227 -183 215 -527t-217 -567t-559 -223z" />
    <glyph glyph-name="oslashacute" unicode="&#x1ff;" horiz-adv-x="1284" 
d="M883 1497l-203 -303h-35l197 303h41zM584 23q230 0 370 151q140 152 146 388t-125 364l-676 -822q115 -82 285 -81zM651 1042q-231 0 -369 -152t-144 -398q-6 -247 143 -373l675 823q-119 100 -305 100zM651 1075q197 0 330 -104l131 159h31l-144 -174q145 -133 144 -381
q-7 -261 -155 -423t-404 -162q-186 0 -308 86l-116 -142h-31l129 156q-170 133 -164 396t154 426t403 163z" />
    <glyph glyph-name="Scommaaccent" unicode="&#x218;" horiz-adv-x="1218" 
d="M532 -88h41q-16 -106 -55 -227h-35q31 104 49 227zM688 1446q213 0 467 -107l-10 -34q-242 106 -458 106t-315 -92t-100 -225q0 -66 22 -114t78 -87t105 -62t156 -65q264 -104 349 -176t85 -234t-111 -264q-111 -104 -354 -104q-295 0 -567 149l12 39q274 -156 561 -151
q217 2 317 96q99 93 99 235t-82 208t-291 149q-209 84 -271 121q-62 36 -88 68q-61 74 -63 185q0 171 123 265t336 94z" />
    <glyph glyph-name="scommaaccent" unicode="&#x219;" horiz-adv-x="966" 
d="M391 -90h41q-16 -106 -55 -227h-35q31 104 49 227zM522 1075q168 0 352 -80l-8 -32q-194 79 -344 79t-230 -60t-81 -164q0 -104 59 -148t180 -86t167 -60q45 -18 97 -52t70 -78t19 -107q0 -143 -97 -220t-287 -77t-390 121l10 34q205 -125 397 -122q152 3 238 69t86 182
t-66 162t-230 100t-230 106t-66 173t93 191t261 69z" />
    <glyph glyph-name="circumflex" unicode="&#x2c6;" horiz-adv-x="524" 
d="M137 1151l266 305h41l160 -305h-39l-141 281l-246 -281h-41z" />
    <glyph glyph-name="caron" unicode="&#x2c7;" horiz-adv-x="520" 
d="M657 1456l-266 -305h-41l-160 305h39l142 -280l245 280h41z" />
    <glyph glyph-name="breve" unicode="&#x2d8;" horiz-adv-x="583" 
d="M412 1190q-194 0 -203 188l29 4q14 -164 181 -164t222 164l31 -4q-66 -188 -260 -188z" />
    <glyph glyph-name="dotaccent" unicode="&#x2d9;" horiz-adv-x="468" 
d="M319 1186l41 233h33l-41 -233h-33z" />
    <glyph glyph-name="ring" unicode="&#x2da;" horiz-adv-x="456" 
d="M502 1322q0 122 -130 122q-60 0 -99 -34q-37 -34 -37 -96t34 -92t95 -30q60 0 99 34q38 34 38 96zM373 1470q159 0 159 -149q0 -76 -47 -116t-121 -40q-160 0 -158 148q1 77 47 117t120 40z" />
    <glyph glyph-name="ogonek" unicode="&#x2db;" horiz-adv-x="552" 
d="M84 -227q0 -82 86 -82q39 0 70 10v-29q-35 -12 -82 -12q-106 0 -107 107q0 147 201 256l12 -23q-180 -96 -180 -227z" />
    <glyph glyph-name="tilde" unicode="&#x2dc;" horiz-adv-x="649" 
d="M575 1241q-55 0 -118 37q-90 45 -121 45q-84 0 -129 -78l-21 10q53 98 154 99q56 0 126 -41t116 -41q80 0 129 74l18 -11q-55 -94 -154 -94z" />
    <glyph glyph-name="hungarumlaut" unicode="&#x2dd;" horiz-adv-x="526" 
d="M410 1454l-205 -303h-35l197 303h43zM629 1454l-205 -303h-35l197 303h43z" />
    <glyph glyph-name="Wgrave" unicode="&#x1e80;" horiz-adv-x="1945" 
d="M1104 1737l41 -217h-35l-49 217h43zM1982 1434l-675 -1434h-52l-161 1348l-637 -1348h-51l-177 1434h45l166 -1375l635 1346h53l162 -1348l645 1377h47z" />
    <glyph glyph-name="wgrave" unicode="&#x1e81;" horiz-adv-x="1605" 
d="M805 1495h41l55 -301h-33zM1599 1065l-552 -1065h-52l-143 1004l-500 -1004h-51l-174 1065h39l170 -1014l506 1014h39l147 -1016l524 1016h47z" />
    <glyph glyph-name="Wacute" unicode="&#x1e82;" horiz-adv-x="1945" 
d="M1284 1739l-149 -219h-35l143 219h41zM1982 1434l-675 -1434h-52l-161 1348l-637 -1348h-51l-177 1434h45l166 -1375l635 1346h53l162 -1348l645 1377h47z" />
    <glyph glyph-name="wacute" unicode="&#x1e83;" horiz-adv-x="1605" 
d="M1098 1497l-203 -303h-35l197 303h41zM1599 1065l-552 -1065h-52l-143 1004l-500 -1004h-51l-174 1065h39l170 -1014l506 1014h39l147 -1016l524 1016h47z" />
    <glyph glyph-name="Wdieresis" unicode="&#x1e84;" horiz-adv-x="1945" 
d="M1262 1536l41 233h32l-41 -233h-32zM940 1536l41 233h33l-41 -233h-33zM1982 1434l-675 -1434h-52l-161 1348l-637 -1348h-51l-177 1434h45l166 -1375l635 1346h53l162 -1348l645 1377h47z" />
    <glyph glyph-name="wdieresis" unicode="&#x1e85;" horiz-adv-x="1605" 
d="M1026 1229l41 233h33l-41 -233h-33zM707 1229l41 233h32l-41 -233h-32zM1599 1065l-552 -1065h-52l-143 1004l-500 -1004h-51l-174 1065h39l170 -1014l506 1014h39l147 -1016l524 1016h47z" />
    <glyph glyph-name="germandbls.case" unicode="&#x1e9e;" horiz-adv-x="1423" 
d="M1284 332q0 -172 -129 -270t-352 -99q-170 0 -393 76l6 39q210 -80 396 -80t308 85t121 249q0 121 -96 221t-95 223t56 217t119 175q65 82 84 106q-199 137 -447 137t-377 -132t-166 -335l-167 -944h-41l168 946q39 222 181 360t390 140q133 0 272 -44t240 -118
q-20 -28 -80 -100q-158 -190 -184 -296q-42 -168 57 -288q29 -35 59 -71q70 -86 70 -197z" />
    <glyph glyph-name="Ygrave" unicode="&#x1ef2;" horiz-adv-x="1249" 
d="M717 1737l41 -217h-35l-49 217h43zM530 0h-41l103 588l-363 846h39l350 -807l631 807h49l-667 -850z" />
    <glyph glyph-name="ygrave" unicode="&#x1ef3;" horiz-adv-x="1085" 
d="M508 1495h41l55 -301h-33zM58 -352q-63 0 -124 16l7 35q55 -16 135 -16t149 59q68 59 146 197l32 55l-266 1071h43l252 -1030l596 1030h47l-667 -1147q-70 -119 -136 -181q-66 -61 -108 -75t-106 -14z" />
    <glyph glyph-name="endash" unicode="&#x2013;" horiz-adv-x="1441" 
d="M1294 582l-12 -41h-1124l10 41h1126z" />
    <glyph glyph-name="emdash" unicode="&#x2014;" horiz-adv-x="1550" 
d="M1403 582l-10 -41h-1235l10 41h1235z" />
    <glyph glyph-name="quoteleft" unicode="&#x2018;" horiz-adv-x="516" 
d="M428 1411l25 -14q-63 -76 -74 -146l-35 -198h-37l35 202q16 80 86 156z" />
    <glyph glyph-name="quoteright" unicode="&#x2019;" horiz-adv-x="516" 
d="M334 1053l-25 14q63 76 74 145l35 199h37l-35 -203q-16 -79 -86 -155z" />
    <glyph glyph-name="quotesinglbase" unicode="&#x201a;" horiz-adv-x="516" 
d="M121 -156l-25 15q63 76 74 145l35 199h37l-35 -203q-16 -80 -86 -156z" />
    <glyph glyph-name="quotedblleft" unicode="&#x201c;" horiz-adv-x="751" 
d="M428 1411l25 -14q-63 -76 -74 -146l-35 -198h-37l35 202q16 80 86 156zM664 1411l24 -14q-63 -76 -74 -146l-34 -198h-37l35 202q16 80 86 156z" />
    <glyph glyph-name="quotedblright" unicode="&#x201d;" horiz-adv-x="751" 
d="M569 1053l-24 14q63 76 73 145l35 199h37l-35 -203q-16 -79 -86 -155zM334 1053l-25 14q63 76 74 145l35 199h37l-35 -203q-16 -79 -86 -155z" />
    <glyph glyph-name="quotedblbase" unicode="&#x201e;" horiz-adv-x="751" 
d="M356 -156l-24 15q63 76 74 145l34 199h37l-35 -203q-16 -80 -86 -156zM121 -156l-25 15q63 76 74 145l35 199h37l-35 -203q-16 -80 -86 -156z" />
    <glyph glyph-name="dagger" unicode="&#x2020;" horiz-adv-x="917" 
d="M889 1075l-6 -39l-248 8l6 25zM193 1075l247 -6l-6 -25l-248 -8zM627 1440l-258 -1440h-31l248 1440h41z" />
    <glyph glyph-name="daggerdbl" unicode="&#x2021;" horiz-adv-x="919" 
d="M891 1075l-6 -39l-248 8l4 25zM195 1075l245 -6l-4 -25l-248 -8zM784 485l-6 -39l-246 9l5 24zM88 485l248 -6l-4 -24l-250 -9zM629 1440l-258 -1440h-31l248 1440h41z" />
    <glyph glyph-name="bullet" unicode="&#x2022;" horiz-adv-x="694" 
d="M291 719q-1 -62 65 -63q66 0 66 62t-66 62q-29 0 -47 -16t-18 -45zM356 809q41 0 69 -24q28 -23 28 -67t-28 -68t-69 -24q-40 0 -68 26q-28 24 -28 66t28 66t68 25z" />
    <glyph glyph-name="ellipsis" unicode="&#x2026;" horiz-adv-x="1052" 
d="M717 0l37 203h37l-37 -203h-37zM406 0l36 203h37l-37 -203h-36zM94 0l37 203h37l-37 -203h-37z" />
    <glyph glyph-name="perthousand" unicode="&#x2030;" horiz-adv-x="2392" 
d="M1966 680q292 0 293 -318q0 -156 -95 -264q-96 -108 -242 -108t-221 80t-75 234t97 266q97 110 243 110zM1926 20q128 0 212 100t84 240q0 142 -66 216t-192 73q-127 0 -214 -102q-87 -101 -87 -241t68 -213q67 -73 195 -73zM1188 680q292 0 293 -318q1 -156 -95 -264
t-242 -108t-222 80q-74 80 -74 234t97 266q97 110 243 110zM885 306q-1 -140 67 -213t196 -73t212 100t84 240q0 142 -66 216t-192 73q-127 0 -214 -102q-87 -101 -87 -241zM542 1450q292 0 292 -316q0 -156 -96 -266q-96 -108 -240 -108q-146 0 -222 81t-76 235t98 264
t244 110zM797 1132q0 286 -257 287q-128 0 -215 -102q-87 -101 -87 -241t68 -212t194 -72q128 0 213 100q84 98 84 240zM1397 1440l-1084 -1440h-43l1084 1440h43z" />
    <glyph glyph-name="guilsinglleft" unicode="&#x2039;" horiz-adv-x="690" 
d="M608 961l-450 -429l295 -432l-31 -22l-313 448l2 15l473 446z" />
    <glyph glyph-name="guilsinglright" unicode="&#x203a;" horiz-adv-x="688" 
d="M49 104l449 428l-293 433l28 22l316 -448l-2 -15l-475 -446z" />
    <glyph glyph-name="fraction" unicode="&#x2044;" horiz-adv-x="860" 
d="M942 1438l-944 -1438h-41l940 1438h45z" />
    <glyph glyph-name="Euro" unicode="&#x20ac;" horiz-adv-x="1658" 
d="M985 -10q-264 0 -435 162t-194 428h-143l14 26h127v47q0 84 17 172h-152l14 27h142q61 266 268 430t498 164q227 0 407 -90l-10 -31q-182 86 -395 86q-276 0 -471 -154t-252 -405h788l-12 -27h-782q-16 -74 -17 -172v-47h682l-12 -26h-668q23 -252 187 -404t415 -151
q97 -1 201 21t154 44l-2 -37q-164 -63 -369 -63z" />
    <glyph glyph-name="trademark" unicode="&#x2122;" horiz-adv-x="1538" 
d="M754 1434l-6 -31h-218l-104 -584h-31l105 584h-219l6 31h467zM1511 1434l-110 -615h-31l98 553l-305 -405h-22l-176 405l-99 -553h-30l108 615h29l182 -426l322 426h34z" />
    <glyph glyph-name="commaaccentcomb" unicode="&#xf6c3;" horiz-adv-x="0" 
d="M-387 -92h41q-16 -106 -55 -227h-35q31 104 49 227z" />
    <glyph glyph-name="apple" unicode="&#xf8ff;" horiz-adv-x="2928" 
d="M1195 670q-30 0 -30 -41h52q8 41 -22 41zM1816 672q-30 0 -30 -41h51q9 41 -21 41zM2434 668q-19 0 -19 -54t19 -53q19 -1 19 53t-19 54zM2128 655q-14 0 -29 -14v-76q14 -10 25 -10q31 0 31 50t-27 50zM883 655q-14 0 -29 -14v-76q14 -10 25 -10q31 0 31 50t-27 50z
M1495 659q-35 0 -35 -52t25 -52q16 0 31 14v84q-13 6 -21 6zM309 819v-90h60v-76h-60v-39q0 -47 64 -30l2 -76q-37 -16 -89 -16t-78 24t-26 82v55h-47v76h47l17 90h110zM2761 819v-90h57v-76h-57v-39q0 -47 61 -30l2 -76q-37 -16 -89 -16t-78 24t-25 82v55h-45v76h45l16 90
h113zM1806 739q134 0 133 -94q0 -35 -2 -53h-149q6 -35 55 -35t86 10v-59q-55 -20 -108 -21q-150 0 -150 125q1 127 135 127zM1194 737q125 0 125 -94q0 -35 -2 -53h-150q5 -35 57 -35t85 10v-59q-51 -20 -109 -21q-150 0 -149 125q0 127 143 127zM2433 737h2
q139 0 139 -126t-137 -126h-4q-73 0 -105 31q-32 30 -32 96t32 96t105 29zM2173 737q47 1 73 -31t25 -92q0 -129 -102 -129q-41 0 -68 23v-123h-131v344h109l8 -27q39 35 86 35zM928 737q98 0 98 -126t-102 -126q-41 0 -68 23v-123h-131v344h109l8 -27q39 35 86 35z
M1645 838v-344h-119l-6 22q-37 -31 -76 -31q-100 0 -100 126t104 126q33 0 65 -20v121h132zM690 729v-221q0 -70 -34 -102t-114 -31q-80 0 -122 24l12 66q41 -14 86 -14t45 32v21q-31 -18 -65 -19q-92 0 -92 101v143h129v-164q0 -25 28 -12v176h127z" />
    <glyph glyph-name="f_i" unicode="&#xfb01;" horiz-adv-x="1050" 
d="M664 1509q154 0 272 -90l-18 -28q-98 86 -244 86t-226 -87t-102 -216l-20 -109h614l-188 -1065h-41l182 1032h-574l-221 -1257h-41l222 1257h-129l6 33h129l18 100q25 143 116 243t245 101z" />
    <glyph glyph-name="f_l" unicode="&#xfb02;" horiz-adv-x="1095" 
d="M915 1219q0 129 -68 192q-69 63 -188 64q-260 0 -319 -332l-14 -78h325l-6 -33h-326l-221 -1257h-41l222 1257h-129l6 33h129l14 76q66 369 360 368q133 1 214 -73t81 -215q0 -41 -16 -140l-168 -958q-20 -100 52 -100h40l58 4h6l-6 -33l-97 -4q-61 0 -85 28t-9 107
l170 965q16 98 16 129z" />
    <glyph glyph-name="J.alt" horiz-adv-x="587" 
d="M518 1434l-246 -1397q-16 -92 -71 -162q-55 -71 -107 -101t-129 -63l-14 33q170 71 235 176q33 53 45 119l240 1362h-115l6 33h156z" />
    <glyph glyph-name="Jcircumflex.alt" horiz-adv-x="587" 
d="M528 1739l170 -219h-39l-149 196l-236 -196h-43l254 219h43zM518 1434l-246 -1397q-16 -92 -71 -162q-55 -71 -107 -101t-129 -63l-14 33q170 71 235 176q33 53 45 119l240 1362h-115l6 33h156z" />
    <glyph glyph-name="a.alt" horiz-adv-x="1155" 
d="M375 23q175 1 327 111t181 265l28 160q-176 31 -381 31q-204 0 -328 -73t-124 -221t82 -210t215 -63zM643 1075q207 0 290 -81t48 -279l-109 -619q-8 -41 10 -52t44 -11t67 4l-4 -33q-33 -6 -80 -6q-98 0 -82 98l29 160q-70 -121 -204 -194q-134 -72 -286 -72t-241 74
q-90 74 -90 219q0 176 136 258t355 82q152 0 392 -29l24 129q33 186 -42 252q-74 65 -276 65t-372 -49l-2 35q186 49 393 49z" />
    <glyph glyph-name="aacute.alt" horiz-adv-x="1155" 
d="M846 1497l-203 -303h-35l197 303h41zM375 23q175 1 327 111t181 265l28 160q-176 31 -381 31q-204 0 -328 -73t-124 -221t82 -210t215 -63zM643 1075q207 0 290 -81t48 -279l-109 -619q-8 -41 10 -52t44 -11t67 4l-4 -33q-33 -6 -80 -6q-98 0 -82 98l29 160
q-70 -121 -204 -194q-134 -72 -286 -72t-241 74q-90 74 -90 219q0 176 136 258t355 82q152 0 392 -29l24 129q33 186 -42 252q-74 65 -276 65t-372 -49l-2 35q186 49 393 49z" />
    <glyph glyph-name="abreve.alt" horiz-adv-x="1155" 
d="M708 1233q-194 0 -204 188l28 4q14 -164 182 -164t222 164l31 -4q-65 -188 -259 -188zM375 23q175 1 327 111t181 265l28 160q-176 31 -381 31q-204 0 -328 -73t-124 -221t82 -210t215 -63zM643 1075q207 0 290 -81t48 -279l-109 -619q-8 -41 10 -52t44 -11t67 4l-4 -33
q-33 -6 -80 -6q-98 0 -82 98l29 160q-70 -121 -204 -194q-134 -72 -286 -72t-241 74q-90 74 -90 219q0 176 136 258t355 82q152 0 392 -29l24 129q33 186 -42 252q-74 65 -276 65t-372 -49l-2 35q186 49 393 49z" />
    <glyph glyph-name="acircumflex.alt" horiz-adv-x="1155" 
d="M399 1194l267 305h41l159 -305h-39l-141 281l-246 -281h-41zM375 23q175 1 327 111t181 265l28 160q-176 31 -381 31q-204 0 -328 -73t-124 -221t82 -210t215 -63zM643 1075q207 0 290 -81t48 -279l-109 -619q-8 -41 10 -52t44 -11t67 4l-4 -33q-33 -6 -80 -6
q-98 0 -82 98l29 160q-70 -121 -204 -194q-134 -72 -286 -72t-241 74q-90 74 -90 219q0 176 136 258t355 82q152 0 392 -29l24 129q33 186 -42 252q-74 65 -276 65t-372 -49l-2 35q186 49 393 49z" />
    <glyph glyph-name="adieresis.alt" horiz-adv-x="1155" 
d="M776 1229l41 233h33l-41 -233h-33zM457 1229l41 233h32l-41 -233h-32zM375 23q175 1 327 111t181 265l28 160q-176 31 -381 31q-204 0 -328 -73t-124 -221t82 -210t215 -63zM643 1075q207 0 290 -81t48 -279l-109 -619q-8 -41 10 -52t44 -11t67 4l-4 -33q-33 -6 -80 -6
q-98 0 -82 98l29 160q-70 -121 -204 -194q-134 -72 -286 -72t-241 74q-90 74 -90 219q0 176 136 258t355 82q152 0 392 -29l24 129q33 186 -42 252q-74 65 -276 65t-372 -49l-2 35q186 49 393 49z" />
    <glyph glyph-name="agrave.alt" horiz-adv-x="1155" 
d="M557 1495h41l55 -301h-32zM375 23q175 1 327 111t181 265l28 160q-176 31 -381 31q-204 0 -328 -73t-124 -221t82 -210t215 -63zM643 1075q207 0 290 -81t48 -279l-109 -619q-8 -41 10 -52t44 -11t67 4l-4 -33q-33 -6 -80 -6q-98 0 -82 98l29 160q-70 -121 -204 -194
q-134 -72 -286 -72t-241 74q-90 74 -90 219q0 176 136 258t355 82q152 0 392 -29l24 129q33 186 -42 252q-74 65 -276 65t-372 -49l-2 35q186 49 393 49z" />
    <glyph glyph-name="amacron.alt" horiz-adv-x="1155" 
d="M1018 1348l-8 -29h-578l8 29h578zM375 23q175 1 327 111t181 265l28 160q-176 31 -381 31q-204 0 -328 -73t-124 -221t82 -210t215 -63zM643 1075q207 0 290 -81t48 -279l-109 -619q-8 -41 10 -52t44 -11t67 4l-4 -33q-33 -6 -80 -6q-98 0 -82 98l29 160
q-70 -121 -204 -194q-134 -72 -286 -72t-241 74q-90 74 -90 219q0 176 136 258t355 82q152 0 392 -29l24 129q33 186 -42 252q-74 65 -276 65t-372 -49l-2 35q186 49 393 49z" />
    <glyph glyph-name="aogonek.alt" horiz-adv-x="1155" 
d="M375 23q175 1 327 111t181 265l28 160q-176 31 -381 31q-204 0 -328 -73t-124 -221t82 -210t215 -63zM643 1075q207 0 290 -81t48 -279l-109 -619q-8 -41 10 -52t44 -11t67 4l-4 -33q-25 -4 -43 -4q-178 -94 -178 -227q0 -82 86 -82q39 0 70 10v-29q-35 -12 -82 -12
q-106 0 -107 107q0 131 160 231q-84 6 -68 98l29 160q-70 -121 -204 -194q-134 -72 -286 -72t-241 74q-90 74 -90 219q0 176 136 258t355 82q152 0 392 -29l24 129q33 186 -42 252q-74 65 -276 65t-372 -49l-2 35q186 49 393 49z" />
    <glyph glyph-name="aring.alt" horiz-adv-x="1155" 
d="M850 1365q0 122 -130 122q-60 0 -98 -34t-38 -96q0 -122 127 -122q63 0 101 34t38 96zM713 1208q-161 0 -159 148q1 76 47 116t120 41q160 0 160 -149q0 -76 -47 -116t-121 -40zM375 23q175 1 327 111t181 265l28 160q-176 31 -381 31q-204 0 -328 -73t-124 -221t82 -210
t215 -63zM643 1075q207 0 290 -81t48 -279l-109 -619q-8 -41 10 -52t44 -11t67 4l-4 -33q-33 -6 -80 -6q-98 0 -82 98l29 160q-70 -121 -204 -194q-134 -72 -286 -72t-241 74q-90 74 -90 219q0 176 136 258t355 82q152 0 392 -29l24 129q33 186 -42 252q-74 65 -276 65
t-372 -49l-2 35q186 49 393 49z" />
    <glyph glyph-name="atilde.alt" horiz-adv-x="1155" 
d="M838 1284q-55 0 -119 37q-90 45 -121 45q-84 0 -129 -78l-20 10q53 98 153 99q56 0 126 -41t116 -41q80 0 129 74l18 -11q-55 -94 -153 -94zM375 23q175 1 327 111t181 265l28 160q-176 31 -381 31q-204 0 -328 -73t-124 -221t82 -210t215 -63zM643 1075q207 0 290 -81
t48 -279l-109 -619q-8 -41 10 -52t44 -11t67 4l-4 -33q-33 -6 -80 -6q-98 0 -82 98l29 160q-70 -121 -204 -194q-134 -72 -286 -72t-241 74q-90 74 -90 219q0 176 136 258t355 82q152 0 392 -29l24 129q33 186 -42 252q-74 65 -276 65t-372 -49l-2 35q186 49 393 49z" />
    <glyph glyph-name="e.alt" horiz-adv-x="1218" 
d="M1036 629q0 189 -96 301t-293 112t-343 -134t-165 -361h891q6 0 6 82zM644 1075q218 0 326 -122t107 -326q0 -88 -12 -113h-928v-8q-8 -195 89 -334q50 -70 144 -110t222 -39q203 0 373 114l8 -35q-175 -112 -399 -112t-356 132t-124 390t170 410t380 153z" />
    <glyph glyph-name="eacute.alt" horiz-adv-x="1218" 
d="M874 1497l-202 -303h-35l197 303h40zM1036 629q0 189 -96 301t-293 112t-343 -134t-165 -361h891q6 0 6 82zM644 1075q218 0 326 -122t107 -326q0 -88 -12 -113h-928v-8q-8 -195 89 -334q50 -70 144 -110t222 -39q203 0 373 114l8 -35q-175 -112 -399 -112t-356 132
t-124 390t170 410t380 153z" />
    <glyph glyph-name="ebreve.alt" horiz-adv-x="1218" 
d="M724 1233q-194 0 -204 188l29 4q14 -164 181 -164t222 164l31 -4q-65 -188 -259 -188zM1036 629q0 189 -96 301t-293 112t-343 -134t-165 -361h891q6 0 6 82zM644 1075q218 0 326 -122t107 -326q0 -88 -12 -113h-928v-8q-8 -195 89 -334q50 -70 144 -110t222 -39
q203 0 373 114l8 -35q-175 -112 -399 -112t-356 132t-124 390t170 410t380 153z" />
    <glyph glyph-name="ecaron.alt" horiz-adv-x="1218" 
d="M979 1499l-266 -305h-41l-160 305h39l141 -280l246 280h41zM1036 629q0 189 -96 301t-293 112t-343 -134t-165 -361h891q6 0 6 82zM644 1075q218 0 326 -122t107 -326q0 -88 -12 -113h-928v-8q-8 -195 89 -334q50 -70 144 -110t222 -39q203 0 373 114l8 -35
q-175 -112 -399 -112t-356 132t-124 390t170 410t380 153z" />
    <glyph glyph-name="ecircumflex.alt" horiz-adv-x="1218" 
d="M467 1194l266 305h41l160 -305h-39l-141 281l-246 -281h-41zM1036 629q0 189 -96 301t-293 112t-343 -134t-165 -361h891q6 0 6 82zM644 1075q218 0 326 -122t107 -326q0 -88 -12 -113h-928v-8q-8 -195 89 -334q50 -70 144 -110t222 -39q203 0 373 114l8 -35
q-175 -112 -399 -112t-356 132t-124 390t170 410t380 153z" />
    <glyph glyph-name="edieresis.alt" horiz-adv-x="1218" 
d="M831 1229l41 233h33l-41 -233h-33zM512 1229l41 233h33l-41 -233h-33zM1036 629q0 189 -96 301t-293 112t-343 -134t-165 -361h891q6 0 6 82zM644 1075q218 0 326 -122t107 -326q0 -88 -12 -113h-928v-8q-8 -195 89 -334q50 -70 144 -110t222 -39q203 0 373 114l8 -35
q-175 -112 -399 -112t-356 132t-124 390t170 410t380 153z" />
    <glyph glyph-name="edotaccent.alt" horiz-adv-x="1218" 
d="M690 1229l41 233h33l-41 -233h-33zM1036 629q0 189 -96 301t-293 112t-343 -134t-165 -361h891q6 0 6 82zM644 1075q218 0 326 -122t107 -326q0 -88 -12 -113h-928v-8q-8 -195 89 -334q50 -70 144 -110t222 -39q203 0 373 114l8 -35q-175 -112 -399 -112t-356 132
t-124 390t170 410t380 153z" />
    <glyph glyph-name="egrave.alt" horiz-adv-x="1218" 
d="M586 1495h41l55 -301h-33zM1036 629q0 189 -96 301t-293 112t-343 -134t-165 -361h891q6 0 6 82zM644 1075q218 0 326 -122t107 -326q0 -88 -12 -113h-928v-8q-8 -195 89 -334q50 -70 144 -110t222 -39q203 0 373 114l8 -35q-175 -112 -399 -112t-356 132t-124 390
t170 410t380 153z" />
    <glyph glyph-name="emacron.alt" horiz-adv-x="1218" 
d="M1008 1348l-9 -29h-577l8 29h578zM1036 629q0 189 -96 301t-293 112t-343 -134t-165 -361h891q6 0 6 82zM644 1075q218 0 326 -122t107 -326q0 -88 -12 -113h-928v-8q-8 -195 89 -334q50 -70 144 -110t222 -39q203 0 373 114l8 -35q-175 -112 -399 -112t-356 132
t-124 390t170 410t380 153z" />
    <glyph glyph-name="eogonek.alt" horiz-adv-x="1218" 
d="M1036 629q0 189 -96 301t-293 112t-343 -134t-165 -361h891q6 0 6 82zM644 1075q218 0 326 -122t107 -326q0 -88 -12 -113h-928v-8q-8 -195 89 -334q50 -70 144 -110t222 -39q203 0 373 114l8 -35q-86 -53 -164 -77q-195 -88 -195 -248q0 -86 88 -86q39 0 70 10v-29
q-35 -12 -83 -12t-78 29t-29 82q0 145 137 231q-78 -12 -127 -12q-242 0 -374 132t-124 390t170 410t380 153z" />
    <glyph glyph-name="j.alt" horiz-adv-x="395" 
d="M340 1272l41 227h37l-41 -227h-37zM340 1065l-201 -1133q-17 -98 -77 -161t-162 -119l-11 33q182 88 207 233l197 1114h-131l6 33h172z" />
    <glyph glyph-name="jcircumflex.alt" horiz-adv-x="393" 
d="M45 1151l266 305h41l160 -305h-39l-141 281l-246 -281h-41zM340 1065l-201 -1133q-17 -98 -77 -161t-162 -119l-11 33q182 88 207 233l197 1114h-131l6 33h172z" />
    <glyph glyph-name="f_b" horiz-adv-x="1951" 
d="M1280 23q233 -1 358 159t125 379t-112 350q-113 131 -330 131t-342 -162t-125 -378q0 -217 114 -348t312 -131zM1343 1075q213 0 338 -137t125 -373q0 -325 -227 -487q-123 -88 -302 -88t-303 108t-151 299l-71 -397h-37l192 1090q16 98 17 124q0 129 -69 195t-187 66
q-270 0 -326 -326l-14 -84h311l-6 -33h-311l-224 -1257h-39l222 1257h-131l6 33h131l14 80q66 365 365 364q133 1 215 -73t82 -215q0 -41 -17 -138l-45 -254q141 246 442 246z" />
    <glyph glyph-name="f_f_b" horiz-adv-x="2486" 
d="M1815 23q233 1 358 161t125 380t-113 349t-329 129t-343 -161q-125 -162 -125 -379t114 -348t313 -131zM1878 1075q213 0 338 -137t125 -373q0 -325 -227 -487q-123 -88 -302 -88t-304 108q-124 109 -150 299l-72 -397h-39l193 1096q18 96 18 131q0 127 -68 193t-194 65
q-127 0 -209 -89t-108 -239l-17 -92h309l-6 -33h-309l-221 -1257h-41l221 1257h-496l-221 -1257h-41l222 1257h-129l6 33h129l30 166q25 131 93 205t202 73q78 0 164 -26l-12 -33q-70 25 -148 25q-215 0 -258 -242l-30 -168h495l17 92q27 158 114 260q88 103 236 103
t229 -74q82 -74 82 -213q0 -39 -16 -137l-47 -267q141 246 442 246z" />
    <glyph glyph-name="f_f_h" horiz-adv-x="2404" 
d="M1878 1075q195 0 279 -102t84 -262q0 -55 -17 -150l-98 -561h-41l98 561q16 94 17 148q0 330 -330 329q-203 0 -324 -136t-160 -349l-98 -553h-41l195 1096q16 86 16 137q0 249 -262 251q-127 0 -209 -89q-82 -90 -108 -242l-17 -88h309l-6 -33h-307l-221 -1257h-41
l221 1257h-495l-222 -1257h-41l222 1257h-131l6 33h131l30 166q25 131 92 205t201 73q78 0 164 -26l-12 -33q-70 25 -152 25q-209 0 -252 -242l-30 -168h493l17 88q29 160 115 263q87 104 235 104t229 -73q82 -73 82 -214q0 -39 -16 -137l-56 -299q144 278 451 278z" />
    <glyph glyph-name="f_f_k" horiz-adv-x="2217" 
d="M1460 1229q0 127 -68 191t-196 65q-127 0 -209 -89t-108 -243l-17 -88h309l-6 -33h-309l-221 -1257h-41l221 1257h-496l-221 -1257h-41l222 1257h-129l6 33h129l30 168q47 276 295 276q78 0 164 -26l-12 -33q-70 25 -166 25q-194 0 -240 -242l-30 -168h495l17 88
q29 160 115 263q87 104 235 104t229 -74q82 -74 82 -213q0 -39 -16 -137l-121 -674l782 643h51l-485 -399l320 -666h-48l-303 639l-327 -270l-66 -369h-41l199 1100q16 86 16 129z" />
    <glyph glyph-name="f_h" horiz-adv-x="1873" 
d="M895 782q150 293 490 293q171 0 254 -105q84 -105 76 -233q-3 -66 -13 -129l-109 -608h-41l109 608q40 151 -24 292q-28 62 -99 102q-72 40 -180 40t-202 -45q-157 -76 -249 -274q-37 -82 -53 -170l-98 -553h-39l184 1051l6 39q16 98 17 124q0 129 -69 195t-187 66
q-270 0 -326 -326l-14 -84h311l-6 -33h-311l-224 -1257h-39l222 1257h-131l6 33h131l14 80q66 365 365 364q133 1 216 -73t83 -215q0 -41 -17 -138z" />
    <glyph glyph-name="f_k" horiz-adv-x="1677" 
d="M961 1221q0 -43 -19 -140l-117 -655l779 639h51l-486 -401l320 -664h-47l-305 637l-320 -264l-65 -373h-41l192 1090q18 96 19 129q0 129 -71 192t-194 64q-260 0 -317 -330l-14 -80h327l-6 -33h-328l-223 -1268h-41l224 1268h-129l6 33h129l14 80q66 365 363 364
q135 1 217 -73t82 -215z" />
    <glyph glyph-name="zero.tnum" 
d="M821 1411q-149 -1 -265 -67t-186 -183q-135 -227 -151 -559q-12 -280 120 -430t343 -149q152 1 268 69q210 125 290 443q36 139 44 299q12 276 -120 426t-343 151zM821 1446q233 0 375 -156t131 -452q-17 -352 -161 -587q-76 -122 -200 -193t-286 -70q-231 0 -374 156
q-142 157 -130 478t156 561q74 123 200 193t289 70z" />
    <glyph glyph-name="one.tnum" 
d="M874 1440l-245 -1405h428l-6 -35h-904l7 35h432l239 1364l-405 -125l-12 31l430 135h36z" />
    <glyph glyph-name="two.tnum" 
d="M825 1454q176 0 285 -94t109 -277q0 -143 -85 -272t-294 -285l-668 -489h897l-6 -37h-961l4 33l709 524q190 145 275 262q84 117 84 271t-98 241q-98 86 -282 86q-186 0 -399 -106l-8 39q205 104 438 104z" />
    <glyph glyph-name="three.tnum" 
d="M810 1454q182 0 288 -86t106 -237t-103 -243t-274 -114q143 -29 225 -125t83 -243q1 -195 -139 -309q-140 -113 -388 -113t-430 96l12 35q178 -95 410 -95t362 104t130 286q0 96 -36 168q-61 123 -212 164q-61 17 -125 18h-160l8 33h160q155 0 285 71q68 37 108 106
t41 158q0 139 -95 214t-259 75t-369 -84l-6 35q196 86 378 86z" />
    <glyph glyph-name="four.tnum" 
d="M184 412h789l166 964zM1192 1440l-178 -1028h205l-7 -37h-204l-70 -375h-41l68 375h-842l6 35l1024 1030h39z" />
    <glyph glyph-name="five.tnum" 
d="M742 854q192 0 306 -110t114 -318t-152 -328q-152 -118 -392 -118t-442 110l14 31q197 -105 424 -105t365 110q137 110 137 302t-105 292t-281 99q-176 0 -361 -114l-33 18l176 711h727l-8 -37h-690l-160 -647q169 104 361 104z" />
    <glyph glyph-name="six.tnum" 
d="M770 834q-131 0 -233 -43q-172 -72 -240 -249q-27 -71 -27 -141q2 -166 122 -271t298 -105t320 78q76 42 127 125t59 198q14 200 -106 304t-320 104zM967 1446q172 0 368 -76l-12 -37q-182 76 -362 76q-297 0 -486 -235q-158 -197 -205 -486q-14 -100 -14 -151
q53 159 186 245t343 86t341 -114t117 -327q-14 -212 -164 -326q-149 -113 -371 -113t-337 103q-156 140 -156 413q0 180 61 370t173 326q199 246 518 246z" />
    <glyph glyph-name="seven.tnum" 
d="M1391 1434l-7 -35l-983 -1399h-51l981 1395h-983l6 39h1037z" />
    <glyph glyph-name="eight.tnum" 
d="M821 1417q-186 0 -307 -93q-121 -94 -129 -240t93 -223t297 -77q197 0 311 81t123 227t-96 235q-106 90 -292 90zM721 739q-225 0 -363 -97t-148 -263q-9 -166 117 -264q126 -99 345 -99t358 104q138 104 146 271q8 168 -111 258t-344 90zM822 1452q206 0 322 -98
t107 -262q-18 -279 -364 -334q162 -27 254 -126t82 -239q-10 -188 -161 -300q-150 -111 -390 -111t-378 108t-129 277q9 168 128 273t319 126q-134 27 -206 111t-64 206q8 165 141 267t339 102z" />
    <glyph glyph-name="nine.tnum" 
d="M723 600q131 0 232 43q170 72 240 250q28 72 28 139q0 168 -116 272t-300 105q-184 0 -324 -79q-76 -42 -127 -125t-61 -197q-14 -201 107 -305q122 -103 321 -103zM526 -12q-172 0 -368 75l12 37q182 -76 362 -75q299 0 492 240t211 620q-57 -154 -191 -237t-340 -83
t-337 115t-117 327q14 211 162 325t370 114q221 0 339 -104q243 -213 121 -699q-60 -244 -198 -412q-201 -243 -518 -243z" />
    <glyph glyph-name="exclamdown.case" horiz-adv-x="499" 
d="M418 1444l-33 -182h-33l33 182h33zM123 0l203 1122h39l-195 -1122h-47z" />
    <glyph glyph-name="questiondown.case" horiz-adv-x="933" 
d="M715 1444l-33 -182h-33l33 182h33zM104 281q0 -248 332 -248q154 0 309 92l13 -33q-158 -94 -329 -94t-268 69t-98 214q0 98 49 172q48 74 120 124q73 50 147 98t134 119t77 160l31 168h36l-28 -174q-17 -92 -77 -166t-134 -123t-146 -99q-166 -115 -168 -279z" />
    <glyph glyph-name="braceleft.case" horiz-adv-x="651" 
d="M696 1583q-121 0 -183 -47t-83 -160l-88 -518q-25 -135 -158 -151q121 -20 95 -197l-82 -471q-19 -113 25 -161t165 -48h33l-6 -33h-35q-141 1 -193 59t-28 187l86 481q25 168 -113 168h-20l6 31h10q152 0 176 131l90 520q23 129 94 187q72 57 209 57h39l-6 -35h-33z" />
    <glyph glyph-name="braceright.case" horiz-adv-x="649" 
d="M313 1618q141 0 193 -58t29 -188l-86 -481q-27 -168 114 -168h19l-7 -31h-6q-71 0 -119 -33t-61 -98l-90 -520q-23 -129 -95 -186t-210 -58h-37l6 33h33q119 0 181 48t83 161l90 518q23 133 158 150q-121 23 -94 196l82 473q20 113 -25 160t-166 47h-33l7 35h34z" />
    <glyph glyph-name="bracketleft.case" horiz-adv-x="567" 
d="M637 1618l-4 -35h-219l-310 -1751h220l-7 -37h-256l320 1823h256z" />
    <glyph glyph-name="bracketright.case" horiz-adv-x="567" 
d="M543 1618l-320 -1823h-256l4 35h219l312 1751h-219l4 37h256z" />
    <glyph glyph-name="parenleft.case" horiz-adv-x="694" 
d="M104 532q0 522 396 930q98 102 200 172h54q-219 -150 -402 -408q-204 -290 -204 -700q0 -216 82 -408q83 -192 204 -300h-47q-115 100 -199 303t-84 411z" />
    <glyph glyph-name="parenright.case" horiz-adv-x="681" 
d="M561 920q0 -391 -205 -692q-181 -267 -391 -410h-53q221 154 399 408q205 292 205 700q0 214 -83 408t-202 300h48q115 -102 199 -304t83 -410z" />
    <glyph glyph-name="emdash.case" horiz-adv-x="1550" 
d="M1430 735l-11 -39h-1235l11 39h1235z" />
    <glyph glyph-name="endash.case" horiz-adv-x="1441" 
d="M1321 735l-12 -39h-1125l11 39h1126z" />
    <glyph glyph-name="hyphen.case" horiz-adv-x="1024" 
d="M905 735l-10 -39h-711l11 39h710z" />
    <glyph glyph-name="hyphen.tnum" 
d="M1137 737l-13 -41h-792l10 41h795z" />
    <glyph glyph-name="guillemotleft.case" horiz-adv-x="1081" 
d="M989 1155l25 -25l-451 -430l295 -430l-31 -22l-313 448l2 15zM614 1155l25 -25l-451 -430l295 -430l-30 -22l-314 448l2 15z" />
    <glyph glyph-name="guillemotright.case" horiz-adv-x="1075" 
d="M457 274l450 428l-295 433l29 20l315 -446l-2 -15l-475 -446zM82 274l448 428l-292 433l28 20l316 -446l-2 -15l-476 -446z" />
    <glyph glyph-name="guilsinglleft.case" horiz-adv-x="704" 
d="M637 1130l-451 -430l295 -430l-30 -22l-314 448l2 15l473 444z" />
    <glyph glyph-name="guilsinglright.case" horiz-adv-x="663" 
d="M78 274l450 428l-295 433l29 20l316 -446l-3 -15l-475 -446z" />
    <glyph glyph-name="cent.tnum" 
d="M354 660q0 -226 127 -345t321 -119t328 85l11 -31q-139 -88 -326 -88q-47 0 -70 2l-28 -178h-33l31 182q-182 24 -293 148t-111 329q0 252 161 427t435 177l27 158h33l-29 -158q164 -8 287 -73l-13 -33q-133 72 -307 71q-251 0 -401 -164t-150 -390z" />
    <glyph glyph-name="dollar.tnum" 
d="M798 1409q-216 0 -314 -90t-97 -219q0 -129 77 -196q76 -66 270 -142t251 -113q150 -96 150 -272q0 -177 -125 -283t-361 -106h-24l-27 -152h-35l27 154q-205 16 -434 145l12 35q254 -145 483 -145t335 101t106 247t-110 224q-85 60 -297 139t-275 158q-64 79 -66 198
q0 166 121 260t342 94h27l28 168h35l-31 -170q199 -14 391 -131l-16 -33q-227 129 -443 129z" />
    <glyph glyph-name="Euro.tnum" 
d="M868 -10q-264 0 -435 162t-193 428h-144l15 26h127v47q0 84 16 172h-152l15 27h141q61 266 268 430t498 164q227 0 408 -90l-11 -31q-182 86 -395 86q-276 0 -471 -154t-252 -405h789l-13 -27h-782q-16 -74 -16 -172v-47h682l-13 -26h-667q23 -252 187 -404t415 -151
q96 -1 200 21t154 44l-2 -37q-164 -63 -369 -63z" />
    <glyph glyph-name="sterling.tnum" horiz-adv-x="1396" 
d="M453 516q0 16 -11 150h-159l6 28h149q-12 131 -12 248q0 244 129 374t341 130t376 -92l-15 -35q-153 90 -355 90t-318 -122t-115 -347q0 -119 12 -246h570l-4 -28h-562q11 -128 11 -180t-22 -152t-73 -164t-71 -80t-51 -37l-29 -18h868l-4 -35h-952l4 33q34 6 91 47
q58 41 96 89t69 140t31 207z" />
    <glyph glyph-name="yen.tnum" horiz-adv-x="1384" 
d="M332 1434l350 -801l637 801h53l-676 -840l-16 -84h309l-6 -27h-307l-25 -139h310l-7 -27h-307l-57 -317h-41l57 317h-311l8 27h307l25 139h-309l6 27h307l16 84l-366 840h43z" />
    <glyph glyph-name="divide.tnum" 
d="M625 152l43 233h30l-43 -233h-30zM758 907l43 234h30l-43 -234h-30zM1155 666l-6 -35h-850l6 35h850z" />
    <glyph glyph-name="equal.tnum" 
d="M1077 516l-6 -35h-745l6 35h745zM1130 834l-6 -35h-743l6 35h743z" />
    <glyph glyph-name="multiply.tnum" horiz-adv-x="1425" 
d="M467 1036l272 -336l396 338l20 -24l-395 -338l274 -336l-24 -23l-275 336l-393 -336l-20 25l393 336l-275 336z" />
    <glyph glyph-name="percent.tnum" 
d="M717 1132q-1 142 -65 214t-188 73q-124 0 -208 -102q-84 -103 -84 -241t67 -211t191 -73t205 100q82 98 82 240zM137 1076q0 154 93 264q94 110 234 110t213 -80t73 -236t-92 -265t-233 -109q-140 0 -214 81t-74 235zM1036 18q124 0 205 100q82 100 82 240q1 142 -65 216
t-188 73q-122 0 -207 -102q-85 -101 -85 -241t67 -213t191 -73zM743 302q0 154 93 264q94 112 234 112t213 -81t73 -237t-92 -264t-232 -108t-215 80q-74 80 -74 234zM1286 1436l-1046 -1436h-43l1048 1436h41z" />
    <glyph glyph-name="plus.tnum" horiz-adv-x="1396" 
d="M811 1087l-70 -393h412l-6 -32h-412l-69 -392h-33l69 392h-411l6 32h412l69 393h33z" />
    <glyph glyph-name="acute.case" horiz-adv-x="440" 
d="M455 1370l-150 -219h-35l144 219h41z" />
    <glyph glyph-name="breve.case" horiz-adv-x="583" 
d="M414 1190q-192 0 -203 186l29 4q10 -162 179 -162t222 162l31 -4q-66 -186 -258 -186z" />
    <glyph glyph-name="caron.case" horiz-adv-x="520" 
d="M350 1151l-170 219h39l150 -196l235 196h43l-254 -219h-43z" />
    <glyph glyph-name="circumflex.case" horiz-adv-x="524" 
d="M434 1370l170 -219h-39l-149 197l-236 -197h-43l254 219h43z" />
    <glyph glyph-name="dieresis.case" horiz-adv-x="559" 
d="M524 1167l41 234h33l-41 -234h-33zM203 1167l41 234h32l-40 -234h-33z" />
    <glyph glyph-name="dotaccent.case" horiz-adv-x="468" 
d="M315 1167l41 234h31l-41 -234h-31z" />
    <glyph glyph-name="grave.case" horiz-adv-x="305" 
d="M303 1368l41 -217h-35l-49 217h43z" />
    <glyph glyph-name="hungarumlaut.case" horiz-adv-x="526" 
d="M356 1370l-151 -219h-35l143 219h43zM575 1370l-151 -219h-35l143 219h43z" />
    </font>
</defs>
</svg>
