<?xml version="1.0" standalone="no"?>
<!DOCTYPE svg PUBLIC "-//W3C//DTD SVG 1.1//EN" "http://www.w3.org/Graphics/SVG/1.1/DTD/svg11.dtd" >
<svg xmlns="http://www.w3.org/2000/svg">
<metadata>
Created by FontPrep 20130207 at Wed Nov 20 11:16:18 2013
 By MacMini
Copyright (c) 2012 by typedepot. All rights reserved.
</metadata>
<defs>
<font id="9c465f50cc9401b2100f6779db55c87e" horiz-adv-x='1024' >
  <font-face 
    font-family="CentraleSansCndBook"
    font-weight="400"
    font-stretch="normal"
    units-per-em="2048"
    panose-1="2 0 0 0 0 0 0 0 0 0"
    ascent="1536"
    descent="-512"
    x-height="1065"
    cap-height="1434"
    bbox="-68 -510 2251 1894"
    underline-thickness="102"
    underline-position="-102"
    unicode-range="U+000D-FB04"
  />
<missing-glyph horiz-adv-x="1112" 
d="M238 1231v-1213l262 598zM877 1251l-273 -635l273 -628v1263zM260 1397l291 -668l289 668h-580zM143 1499h830v-1747h-830v1747zM840 -147l-285 655l-291 -655h576z" />
    <glyph glyph-name="f_f" unicode="ff" horiz-adv-x="1077" 
d="M451 1382q-68 0 -95 -46t-26 -144v-127h321v139q1 166 61 249t203 83q84 0 140 -18l-21 -125q-40 6 -100 6t-86 -46t-25 -145v-143h219v-121h-219v-944h-172v944h-321v-944h-170v944h-117v100l117 21v123q0 166 59 249t205 83q64 -1 127 -19l-23 -125q-43 6 -77 6z" />
    <glyph glyph-name="f_i" unicode="fi" horiz-adv-x="978" 
d="M516 1382q-186 0 -186 -241v-76h516v-1065h-170v944h-346v-944h-170v944h-117v100l117 21v98q0 162 94 259q94 98 246 98t282 -90l-65 -107q-92 59 -201 59z" />
    <glyph glyph-name="f_l" unicode="fl" horiz-adv-x="1015" 
d="M678 139v1004q-2 117 -48 178t-126 61t-127 -63t-47 -189v-65h190v-121h-190v-944h-170v944h-117v100l117 21v65q0 178 96 284t244 106t248 -98t100 -283v-953q0 -41 11 -56t40 -15l55 6v-123q-55 -18 -127 -18q-73 0 -111 44t-38 115z" />
    <glyph glyph-name="f_f_i" unicode="ffi" horiz-adv-x="1452" 
d="M453 1382q-68 0 -95 -46t-26 -144v-127h321v119q3 160 95 256t244 96t276 -80l-54 -113q-92 53 -210 54q-180 0 -181 -226v-106h496v-1065h-170v944h-326v-944h-170v944h-321v-944h-170v944h-117v100l117 21v123q0 166 59 249t205 83q64 -1 127 -19l-23 -125q-43 6 -77 6
z" />
    <glyph glyph-name="f_f_l" unicode="ffl" horiz-adv-x="1509" 
d="M1171 139v1022q0 115 -47 176t-127 61t-127 -62t-47 -187v-84h191v-121h-191v-944h-170v944h-321v-944h-170v944h-117v100l117 21v123q0 166 59 249t205 83q63 0 127 -19l-23 -125q-43 6 -77 6q-68 0 -95 -46t-26 -144v-127h321v84q1 177 97 283t244 106t248 -98t99 -283
v-971q-1 -41 11 -56t41 -15l55 6v-123q-55 -18 -127 -18t-111 44t-39 115z" />
    <glyph glyph-name=".notdef" horiz-adv-x="1112" 
d="M238 1231v-1213l262 598zM877 1251l-273 -635l273 -628v1263zM260 1397l291 -668l289 668h-580zM143 1499h830v-1747h-830v1747zM840 -147l-285 655l-291 -655h576z" />
    <glyph glyph-name=".null" horiz-adv-x="0" 
 />
    <glyph glyph-name=".null" horiz-adv-x="0" 
 />
    <glyph glyph-name="nonmarkingreturn" horiz-adv-x="681" 
 />
    <glyph glyph-name="CR" unicode="&#xd;" horiz-adv-x="516" 
 />
    <glyph glyph-name="space" unicode=" " horiz-adv-x="460" 
 />
    <glyph glyph-name="exclam" unicode="!" horiz-adv-x="493" 
d="M147 80q0 46 30 76t73 30t71 -30q27 -30 27 -74q0 -45 -28 -74q-28 -28 -71 -28q-44 0 -73 28t-29 72zM145 1434h203l-35 -1041h-131z" />
    <glyph glyph-name="quotedbl" unicode="&#x22;" horiz-adv-x="737" 
d="M150 1438h180l-86 -529h-103zM455 1438h180l-88 -529h-101z" />
    <glyph glyph-name="numbersign" unicode="#" horiz-adv-x="1359" 
d="M545 944l-70 -469h346l72 469h-348zM477 1438h141l-53 -353h348l54 353h141l-53 -353h221l-21 -141h-221l-71 -469h223l-21 -141h-223l-49 -334h-141l49 334h-348l-50 -334h-141l49 334h-227l22 141h226l71 469h-227l21 141h227z" />
    <glyph glyph-name="dollar" unicode="$" horiz-adv-x="1021" 
d="M571 -199h-108v179q-190 10 -365 104l47 121q187 -84 333 -84q146 1 213 67t67 172t-68 172q-68 64 -163 102t-190 82t-163 132t-68 221q0 176 96 272t261 111v182h108v-182q170 -14 318 -88l-45 -121q-52 26 -145 48q-93 21 -160 22q-121 0 -190 -65t-68 -177
q0 -143 129 -214q57 -32 183 -80t212 -111q57 -43 93 -118t36 -177q0 -179 -98 -277t-265 -112v-181z" />
    <glyph glyph-name="percent" unicode="%" horiz-adv-x="1423" 
d="M938 323q0 -91 36 -147t97 -55q61 0 95 54q34 55 34 147t-35 149t-94 57t-96 -57t-37 -148zM1068 -20q-124 0 -201 97t-77 247t78 248t202 98t201 -98t77 -248t-78 -247t-202 -97zM221 1107q0 -91 36 -147t97 -55q61 0 96 54q34 55 34 147t-35 149t-95 57t-96 -56
q-37 -58 -37 -149zM281 0l702 1434h160l-703 -1434h-159zM351 764q-125 0 -201 97t-76 247t78 248t202 98t200 -97q77 -97 77 -248t-78 -248t-202 -97z" />
    <glyph glyph-name="ampersand" unicode="&#x26;" horiz-adv-x="1157" 
d="M655 1151q1 78 -45 125t-118 47t-116 -48t-44 -113t17 -97q39 -75 72 -114q32 -39 46 -60q94 68 141 125t47 135zM227 401q0 -131 80 -207t197 -75q76 0 148 34t114 95l-340 459q-199 -125 -199 -306zM197 1145q0 152 90 231q90 78 210 78q121 0 205 -83t84 -218
q0 -201 -245 -367l307 -415q18 18 35 100q16 82 16 141h135q0 -231 -92 -364l176 -248h-174l-98 135q-137 -156 -352 -155q-178 0 -301 112t-123 299q0 135 71 235q72 99 205 191q0 2 -21 31q-22 29 -25 34q-3 6 -21 32t-24 36q-5 10 -18 34t-18 39q-4 15 -13 45
q-9 29 -9 77z" />
    <glyph glyph-name="quotesingle" unicode="'" horiz-adv-x="432" 
d="M150 1438h180l-86 -527h-101z" />
    <glyph glyph-name="parenleft" unicode="(" horiz-adv-x="626" 
d="M86 573q0 318 132 539t271 342l76 -100q-82 -86 -140 -167q-59 -81 -113 -242t-54 -325q0 -310 109 -511q87 -161 198 -279l-76 -98q-94 82 -177 190t-154 294q-72 185 -72 357z" />
    <glyph glyph-name="parenright" unicode=")" horiz-adv-x="626" 
d="M267 -133q-64 -78 -132 -135l-74 98q59 66 103 124q133 179 177 376q28 125 26 268q0 288 -108 483q-83 151 -198 273l74 100q68 -57 132 -135q272 -326 272 -726q0 -399 -272 -726z" />
    <glyph glyph-name="asterisk" unicode="*" horiz-adv-x="763" 
d="M115 1110l202 115l-202 110l55 95l180 -152l-22 266h104l-20 -266l180 152l55 -95l-205 -110l205 -115l-55 -96l-180 153l20 -264h-104l22 266l-180 -155z" />
    <glyph glyph-name="plus" unicode="+" horiz-adv-x="888" 
d="M389 1069h115v-338h280v-119h-280v-338h-115v338h-283v119h283v338z" />
    <glyph glyph-name="comma" unicode="," horiz-adv-x="452" 
d="M125 70q-1 40 27 66t75 26t78 -49t31 -117q0 -164 -170 -260l-31 53q47 35 79 94t22 121q-8 -18 -39 -18t-52 22q-20 23 -20 62z" />
    <glyph glyph-name="hyphen" unicode="-" horiz-adv-x="882" 
d="M127 733h629v-117h-629v117z" />
    <glyph glyph-name="period" unicode="." horiz-adv-x="415" 
d="M121 75q1 41 25 67t60 26t62 -27t25 -67q0 -40 -26 -64q-27 -24 -63 -24t-60 24q-23 25 -23 65z" />
    <glyph glyph-name="slash" unicode="/" horiz-adv-x="851" 
d="M651 1503h137l-591 -1575h-136z" />
    <glyph glyph-name="zero" unicode="0" horiz-adv-x="1224" 
d="M612 117q160 0 252 166t92 435t-92 434t-252 165t-252 -166t-92 -435t92 -434t252 -165zM612 -20q-229 0 -369 208t-141 529q0 321 140 529t369 208q227 0 369 -208t142 -530t-140 -529q-141 -207 -370 -207z" />
    <glyph glyph-name="one" unicode="1" horiz-adv-x="616" 
d="M446 1438v-1438h-163v1241l-179 -92l-55 113l273 176h124z" />
    <glyph glyph-name="two" unicode="2" horiz-adv-x="1009" 
d="M474 1454q170 0 286 -117q114 -117 114 -296t-101 -326q-72 -107 -177 -219l-311 -349h630v-147h-821v141l416 463q209 236 209 410q0 131 -79 209t-203 78t-267 -74l-61 114q195 113 365 113z" />
    <glyph glyph-name="three" unicode="3" horiz-adv-x="980" 
d="M460 1454q167 0 272 -98t106 -256q0 -119 -62 -205t-168 -123q125 -37 201 -130t76 -245q0 -190 -123 -304q-123 -113 -313 -113t-353 102l49 106q320 -141 495 14q89 79 89 223t-95 213t-228 69h-84v127h98q106 0 184 64t78 176q0 110 -74 170t-186 60t-250 -51l-41 125
q162 76 329 76z" />
    <glyph glyph-name="four" unicode="4" horiz-adv-x="1054" 
d="M662 479v674l-435 -674h435zM827 1434v-955h150v-129h-150v-350h-165v350h-601v121l621 963h145z" />
    <glyph glyph-name="five" unicode="5" horiz-adv-x="1007" 
d="M866 1434v-148h-540l-45 -438q96 74 229 74q182 0 295 -128t113 -336t-132 -343t-326 -135t-368 110l58 115q150 -82 286 -82t228 100q90 101 90 243t-81 234t-197 92t-220 -92q-92 51 -113 62l70 672h653z" />
    <glyph glyph-name="six" unicode="6" horiz-adv-x="1077" 
d="M558 793q-126 1 -204 -97t-78 -241t77 -239t203 -97q126 0 199 100q73 99 73 245t-72 238t-198 91zM616 1307q-162 0 -259 -121t-97 -393l-2 -64q39 88 130 144t204 57q164 0 280 -125t115 -338q0 -213 -117 -350t-311 -137q-250 0 -364 227q-89 176 -89 438t44 403
q44 142 97 221q52 79 145 132t214 53q189 0 332 -96l-57 -125q-154 74 -265 74z" />
    <glyph glyph-name="seven" unicode="7" horiz-adv-x="925" 
d="M80 1434h799v-146l-500 -1288h-174l500 1286h-625v148z" />
    <glyph glyph-name="eight" unicode="8" horiz-adv-x="1034" 
d="M518 1307q-90 0 -152 -65t-62 -171t58 -173q60 -67 156 -67t154 67q57 68 57 174q-1 106 -61 170t-150 65zM518 676q-120 0 -192 -78t-72 -203t76 -201t188 -75q112 0 188 76q76 77 76 201t-72 202q-73 78 -192 78zM518 1454q147 0 256 -99t109 -265q-1 -121 -61 -210
t-152 -122q120 -33 196 -127t76 -240q0 -190 -124 -301q-124 -110 -297 -110t-301 112t-128 299q0 147 78 241t197 126q-92 31 -154 120q-61 89 -61 212q0 166 109 265q110 99 257 99z" />
    <glyph glyph-name="nine" unicode="9" horiz-adv-x="1077" 
d="M803 976q0 144 -77 242t-203 97q-127 -1 -199 -101t-72 -246t72 -236t197 -89q126 0 204 95q78 94 78 238zM463 133q162 0 259 125t97 397l2 45q-39 -88 -130 -144t-204 -56q-163 0 -279 129t-116 340t117 348t311 137q250 0 365 -227q88 -176 88 -439t-44 -404
q-44 -142 -96 -220q-51 -78 -145 -131t-215 -53q-187 0 -332 96l58 131q154 -74 264 -74z" />
    <glyph glyph-name="colon" unicode=":" horiz-adv-x="425" 
d="M127 75q0 39 26 65q27 26 61 26t60 -26t25 -66q0 -40 -25 -64q-26 -24 -62 -24t-60 24t-25 65zM299 827q0 -39 -25 -65q-26 -26 -62 -25t-60 25t-25 64q0 40 26 67q27 27 61 27t60 -27t25 -66z" />
    <glyph glyph-name="semicolon" unicode=";" horiz-adv-x="481" 
d="M211 -10q-31 0 -51 22t-20 63t24 67t72 26t80 -49t32 -117q0 -164 -170 -262l-31 53q45 33 77 92t24 125q-6 -20 -37 -20zM233 737q-37 1 -61 25t-25 64q0 40 26 67q25 27 61 27t61 -27t25 -66t-26 -65q-24 -26 -61 -25z" />
    <glyph glyph-name="less" unicode="&#x3c;" horiz-adv-x="749" 
d="M606 1042v-129l-366 -221l368 -223v-133l-514 307v98z" />
    <glyph glyph-name="equal" unicode="=" horiz-adv-x="872" 
d="M135 573h602v-118h-602v118zM135 899h602v-119h-602v119z" />
    <glyph glyph-name="greater" unicode="&#x3e;" horiz-adv-x="751" 
d="M143 913v129l512 -301v-98l-514 -307v133l365 223z" />
    <glyph glyph-name="question" unicode="?" horiz-adv-x="843" 
d="M274 81q0 45 29 75t73 30t72 -30t27 -74q0 -45 -28 -74q-27 -28 -71 -28t-73 28t-29 73zM393 1454q155 0 263 -96t108 -250t-115 -269q-47 -47 -94 -93q-115 -111 -115 -216v-137h-135v109q0 157 83 256q50 61 98 100t87 100q39 60 39 150t-67 145q-69 55 -181 55
t-223 -85l-61 118q59 49 145 81t168 32z" />
    <glyph glyph-name="at" unicode="@" horiz-adv-x="1603" 
d="M787 291q81 0 143 62q61 62 61 159v100q-102 16 -168 17q-209 0 -209 -168q0 -78 46 -124t127 -46zM1225 193q-88 0 -150 39q-61 40 -69 112q-53 -152 -249 -152q-101 0 -173 70t-72 197t84 187t223 61q54 0 148 -15l24 -4v88q0 100 -44 142q-82 77 -339 6l-24 82
q129 49 260 49t192 -69t62 -212v-354q0 -68 36 -100t93 -31q190 0 190 349t-166 527q-165 178 -435 178q-270 1 -440 -209t-171 -522q1 -312 157 -516q156 -205 435 -205q137 0 247 52l39 -90q-150 -72 -299 -72q-311 1 -499 237q-189 236 -189 596t203 600t519 240
t511 -215t195 -588q0 -458 -299 -458z" />
    <glyph glyph-name="A" unicode="A" horiz-adv-x="1157" 
d="M573 1241l-200 -711h403l-201 711h-2zM463 1444h231l420 -1444h-186l-115 387h-477l-117 -387h-176z" />
    <glyph glyph-name="B" unicode="B" horiz-adv-x="1165" 
d="M340 1286v-493h289q98 0 162 73q63 74 63 182t-71 173q-71 66 -177 65h-266zM340 147h315q115 0 186 72t71 181t-67 183q-67 73 -190 72h-315v-508zM668 0h-500v1434h457q165 0 279 -109t114 -270q0 -117 -60 -205t-139 -117q111 -25 186 -113t74 -227q-1 -177 -117 -285
t-294 -108z" />
    <glyph glyph-name="C" unicode="C" horiz-adv-x="1169" 
d="M737 1454q205 0 361 -108l-62 -132q-143 84 -299 84q-201 0 -336 -168t-135 -414t135 -413q135 -168 336 -168q162 0 297 84l64 -133q-166 -106 -361 -106q-276 0 -463 205q-186 206 -186 531q0 326 186 532t463 206z" />
    <glyph glyph-name="D" unicode="D" horiz-adv-x="1247" 
d="M340 1286v-1139h229q125 0 217 66q193 141 193 503t-193 507q-92 63 -217 63h-229zM600 0h-432v1434h432q158 0 287 -86q135 -98 201 -264t65 -368q0 -202 -67 -370q-68 -168 -198 -257t-288 -89z" />
    <glyph glyph-name="E" unicode="E" horiz-adv-x="1126" 
d="M168 1434h848v-148h-676v-514h584v-147h-584v-478h698v-147h-870v1434z" />
    <glyph glyph-name="F" unicode="F" horiz-adv-x="1067" 
d="M168 1434h848v-152h-676v-522h584v-148h-584v-612h-172v1434z" />
    <glyph glyph-name="G" unicode="G" horiz-adv-x="1298" 
d="M743 1454q217 0 394 -115l-66 -127q-150 86 -321 86q-216 0 -350 -170t-134 -416t132 -411q132 -166 345 -166q168 0 297 135v320h-319v143h479v-526q-190 -227 -468 -227t-461 208q-183 209 -183 529q0 321 188 529t467 208z" />
    <glyph glyph-name="H" unicode="H" horiz-adv-x="1323" 
d="M168 1434h172v-643h643v643h172v-1434h-172v641h-643v-641h-172v1434z" />
    <glyph glyph-name="I" unicode="I" horiz-adv-x="507" 
d="M168 1434h172v-1434h-172v1434z" />
    <glyph glyph-name="J" unicode="J" horiz-adv-x="907" 
d="M383 -20q-236 0 -363 233l103 86q96 -164 248 -164q111 0 164 77t53 198v1024h172v-975q0 -217 -98 -348t-279 -131z" />
    <glyph glyph-name="K" unicode="K" horiz-adv-x="1134" 
d="M168 0v1434h172v-471l-4 -320l4 -2l557 793h190l-454 -639l489 -795h-192l-402 666l-188 -246v-420h-172z" />
    <glyph glyph-name="L" unicode="L" horiz-adv-x="1003" 
d="M168 1434h172v-1287h635v-147h-807v1434z" />
    <glyph glyph-name="M" unicode="M" horiz-adv-x="1632" 
d="M1464 1434v-1434h-176v616l15 588h-5l-397 -1120h-170l-401 1120h-4l18 -588v-616h-176v1434h242l405 -1145h2l410 1145h237z" />
    <glyph glyph-name="N" unicode="N" horiz-adv-x="1296" 
d="M168 1434h180l613 -1141h2l-7 442v699h172v-1434h-182l-610 1151h-2l6 -516v-635h-172v1434z" />
    <glyph glyph-name="O" unicode="O" horiz-adv-x="1437" 
d="M266 715q0 -252 126 -416t329 -164t328 164t125 415t-127 418q-127 166 -326 166t-327 -166t-128 -417zM1350 719q0 -319 -172 -529t-457 -208q-285 0 -458 209t-173 529t175 526q175 208 455 208t455 -208t175 -527z" />
    <glyph glyph-name="P" unicode="P" horiz-adv-x="1126" 
d="M340 1286v-575h295q129 0 202 81q73 82 73 206t-73 206t-200 82h-297zM168 1434h487q180 0 300 -125t120 -311t-120 -311q-120 -126 -300 -126h-315v-561h-172v1434z" />
    <glyph glyph-name="Q" unicode="Q" horiz-adv-x="1433" 
d="M262 715q0 -252 126 -416t329 -164t327 164t125 415q0 251 -127 418q-128 166 -326 166t-326 -166t-128 -417zM86 720q0 320 175 526q175 208 455 208t454 -208t176 -529q0 -248 -106 -433t-296 -261v-7q145 -100 367 -145l-41 -141q-123 30 -258 102t-238 152
q-37 -4 -57 -4q-285 2 -458 211t-173 529z" />
    <glyph glyph-name="R" unicode="R" horiz-adv-x="1185" 
d="M340 1286v-536h309q119 0 194 74t75 192t-70 194t-199 76h-309zM168 1434h498q200 0 308 -117t107 -297q0 -274 -260 -383l303 -637h-178l-289 604h-317v-604h-172v1434z" />
    <glyph glyph-name="S" unicode="S" horiz-adv-x="1038" 
d="M506 -20q-209 0 -418 106l53 131q186 -88 341 -88t229 67q73 67 73 162t-51 154t-127 89t-166 70t-166 81t-127 124t-51 199q0 183 118 281t322 98t379 -88l-49 -125q-37 22 -142 45q-106 22 -173 23q-129 0 -204 -65t-75 -161t52 -154t127 -87t165 -67t166 -78t127 -125
t52 -203q0 -195 -123 -292t-332 -97z" />
    <glyph glyph-name="T" unicode="T" horiz-adv-x="1032" 
d="M25 1434h983v-148h-406v-1286h-170v1286h-407v148z" />
    <glyph glyph-name="U" unicode="U" horiz-adv-x="1255" 
d="M154 1434h172v-975q0 -143 84 -233t219 -91q135 0 218 91t83 233v975h172v-965q0 -217 -128 -353t-348 -136t-346 138t-126 351v965z" />
    <glyph glyph-name="V" unicode="V" horiz-adv-x="1114" 
d="M18 1434h183l358 -1221l356 1221h181l-432 -1434h-213z" />
    <glyph glyph-name="W" unicode="W" horiz-adv-x="1759" 
d="M780 1434h205l268 -1203l273 1203h180l-342 -1438h-221l-262 1173l-263 -1173h-221l-344 1438h187l270 -1203z" />
    <glyph glyph-name="X" unicode="X" horiz-adv-x="1161" 
d="M1139 0h-205l-365 586l-350 -586h-188l450 721l-454 713h202l363 -590l356 590h180l-446 -719z" />
    <glyph glyph-name="Y" unicode="Y" horiz-adv-x="1075" 
d="M623 0h-168v584l-435 850h187l332 -691h4l327 691h181l-428 -850v-584z" />
    <glyph glyph-name="Z" unicode="Z" horiz-adv-x="1071" 
d="M1001 1434v-119l-727 -1168l2 -4l265 4h452v-147h-934v119l725 1167l-4 4l-264 -4h-432l2 148h915z" />
    <glyph glyph-name="bracketleft" unicode="[" horiz-adv-x="540" 
d="M459 1454v-131h-172v-1569h172v-127h-305v1827h305z" />
    <glyph glyph-name="backslash" unicode="\" horiz-adv-x="854" 
d="M655 -72l-592 1575h138l590 -1575h-136z" />
    <glyph glyph-name="bracketright" unicode="]" horiz-adv-x="540" 
d="M82 1323v131h305v-1827h-305v127h170v1569h-170z" />
    <glyph glyph-name="underscore" unicode="_" horiz-adv-x="1009" 
d="M127 -162h756v-119h-756v119z" />
    <glyph glyph-name="grave" unicode="`" horiz-adv-x="542" 
d="M160 1470l119 64l127 -336h-115z" />
    <glyph glyph-name="a" unicode="a" horiz-adv-x="999" 
d="M229 311q-1 -194 207 -194q100 -1 172 79t72 205v97q-92 20 -191 20q-260 0 -260 -207zM500 1085q176 1 263 -81t87 -263v-559q0 -51 49 -51l47 4v-119q-38 -22 -106 -22t-114 34t-46 105q-82 -154 -285 -153q-145 0 -240 85t-95 249t110 248q111 85 293 85
q129 0 217 -16v86q0 133 -49 180t-172 47t-279 -47l-33 129q177 59 353 59z" />
    <glyph glyph-name="b" unicode="b" horiz-adv-x="1120" 
d="M580 942q-125 0 -203 -120t-78 -294t80 -290t203 -115q122 0 206 122q84 123 84 291t-84 287t-208 119zM137 1499h170v-604q41 86 127 138t182 52q182 0 305 -161q121 -162 121 -392t-120 -392q-120 -161 -306 -160q-227 0 -317 200l-18 -180h-144v1499z" />
    <glyph glyph-name="c" unicode="c" horiz-adv-x="899" 
d="M563 -20q-209 0 -347 156t-138 386v19q0 231 138 388t347 156q133 0 271 -73l-50 -119q-98 49 -194 49q-154 0 -248 -121t-94 -280v-19q0 -160 94 -280t250 -119q94 0 192 49l50 -119q-134 -73 -271 -73z" />
    <glyph glyph-name="d" unicode="d" horiz-adv-x="1120" 
d="M543 942q-125 0 -209 -119t-84 -288t84 -291t207 -121q123 0 203 116q80 115 79 289q1 174 -77 294t-203 120zM815 1499h170v-1499h-143l-19 180q-90 -201 -317 -200q-184 0 -305 160t-121 391t122 393t304 161q217 0 309 -190v604z" />
    <glyph glyph-name="e" unicode="e" horiz-adv-x="1015" 
d="M782 600q0 142 -62 242t-181 100t-198 -93t-87 -249h528zM78 522v19q0 231 128 388t322 157t300 -144q134 -180 110 -473h-684q8 -162 100 -254t224 -92t266 65l47 -122q-154 -86 -330 -86q-213 0 -348 154t-135 388z" />
    <glyph glyph-name="f" unicode="f" horiz-adv-x="595" 
d="M465 1382q-73 0 -101 -50t-28 -152v-115h223v-121h-223v-944h-170v944h-117v100l117 21v102q0 177 55 265t205 88q72 -1 158 -21l-33 -129q-45 12 -86 12z" />
    <glyph glyph-name="g" unicode="g" horiz-adv-x="950" 
d="M238 -57q0 -158 240 -158t241 162q0 71 -42 99t-134 30q-176 2 -242 18q-63 -51 -63 -151zM475 950q-88 0 -143 -59q-56 -59 -56 -161t54 -162t145 -60q92 0 145 60q52 60 52 160t-54 162q-54 60 -143 60zM885 1065v-115l-131 -12q76 -88 76 -228t-93 -236
q-92 -97 -252 -97q-106 0 -163 31q-58 -42 -58 -88t14 -68q28 -42 195 -41h96q305 0 305 -266q0 -293 -391 -293q-137 0 -254 43q-67 25 -107 81t-40 138q0 135 121 233q-90 53 -90 157t100 177q-94 82 -94 245t101 261t265 98q72 0 142 -20h258z" />
    <glyph glyph-name="h" unicode="h" horiz-adv-x="1060" 
d="M137 1499h168v-600q31 70 105 128t210 58t226 -111q90 -112 90 -333v-641h-170v653q0 137 -55 213t-163 76t-174 -97t-67 -224v-621h-170v1499z" />
    <glyph glyph-name="i" unicode="i" horiz-adv-x="471" 
d="M70 1065h254v-1065h-170v930l-84 22v113zM111 1351q0 46 32 79q33 32 79 32t79 -32t33 -80q0 -47 -32 -79t-79 -32t-80 33q-32 33 -32 79z" />
    <glyph glyph-name="j" unicode="j" horiz-adv-x="493" 
d="M228 1239q-46 0 -78 33t-33 79q0 46 34 79q35 32 79 32t77 -32t33 -80q0 -47 -33 -79t-79 -32zM74 -211q45 0 65 35t21 123v983l-84 22v113h254v-1110q0 -303 -224 -303q-78 0 -137 24l23 127q37 -14 82 -14z" />
    <glyph glyph-name="k" unicode="k" horiz-adv-x="897" 
d="M137 1499h170v-602l-2 -352l2 -2l383 522h174l-350 -485l342 -580h-182l-256 449l-111 -142v-307h-170v1499z" />
    <glyph glyph-name="l" unicode="l" horiz-adv-x="477" 
d="M145 139v1360h170v-1313q-1 -41 11 -56t41 -15l55 6v-123q-55 -18 -127 -18t-111 44t-39 115z" />
    <glyph glyph-name="m" unicode="m" horiz-adv-x="1585" 
d="M137 1065h133l29 -145q33 63 105 114q73 51 166 51t168 -54t102 -142q27 76 106 136q80 60 191 60q149 0 235 -100t86 -297v-688h-170v696q0 115 -48 181q-48 65 -143 65t-155 -78t-59 -192v-672h-168v705q0 113 -50 175q-49 62 -143 62t-154 -80t-61 -190v-672h-170
v1065z" />
    <glyph glyph-name="n" unicode="n" horiz-adv-x="1062" 
d="M137 1065h135l29 -174q24 59 74 105q96 91 238 90t233 -112q90 -112 90 -333v-641h-170v653q0 137 -56 213t-164 76t-174 -97t-65 -224v-621h-170v1065z" />
    <glyph glyph-name="o" unicode="o" horiz-adv-x="1097" 
d="M246 533q0 -181 82 -295t221 -115q139 0 221 115q82 116 82 296t-82 294t-221 114t-221 -114t-82 -295zM1022 532q0 -244 -132 -398t-341 -154t-341 154t-132 398t133 399t340 155t340 -156q133 -154 133 -398z" />
    <glyph glyph-name="p" unicode="p" horiz-adv-x="1122" 
d="M580 942q-125 0 -203 -120t-78 -294t80 -290t203 -115q122 0 206 122q84 121 84 287t-84 288t-208 122zM618 1085q182 0 304 -161q120 -162 120 -392t-122 -392q-122 -161 -304 -160q-106 0 -190 55t-119 129v-512h-170v1413h129l27 -191q47 90 131 150t194 61z" />
    <glyph glyph-name="q" unicode="q" horiz-adv-x="1120" 
d="M541 942q-125 0 -209 -122t-84 -288t84 -288t207 -121q123 0 203 116q80 115 79 289q1 174 -77 294t-203 120zM502 1085q110 0 194 -60t131 -151l27 191h129v-1413h-170v512q-35 -74 -119 -129t-190 -55q-182 0 -304 160t-122 391q0 230 121 392t303 162z" />
    <glyph glyph-name="r" unicode="r" horiz-adv-x="618" 
d="M137 1065h133l23 -207q20 76 91 146t189 71v-160q-125 0 -195 -88t-71 -245v-582h-170v1065z" />
    <glyph glyph-name="s" unicode="s" horiz-adv-x="825" 
d="M404 -20q-166 0 -322 81l39 121q156 -72 280 -71q193 0 193 165q0 78 -45 113t-109 57q-114 41 -177 71q-184 87 -181 267q0 146 96 224t249 78t292 -68l-41 -117q-126 53 -230 53t-154 -42t-50 -117t58 -114q40 -28 126 -60t126 -51t95 -58q107 -76 107 -227t-93 -228
t-259 -77z" />
    <glyph glyph-name="t" unicode="t" horiz-adv-x="628" 
d="M338 1372v-307h223v-121h-223v-643q0 -106 24 -148t95 -42q33 0 102 18l6 -115q-76 -35 -157 -34q-137 0 -189 74q-51 75 -51 253v637h-129v103l129 16l27 309h143z" />
    <glyph glyph-name="u" unicode="u" horiz-adv-x="1058" 
d="M127 1065h170v-649q0 -293 213 -293q121 0 182 87t62 216v639h170v-1065h-133l-29 154q-33 -70 -109 -122q-75 -52 -209 -52t-226 98q-91 98 -91 315v672z" />
    <glyph glyph-name="v" unicode="v" horiz-adv-x="962" 
d="M55 1065h174l258 -879l250 879h168l-327 -1065h-191z" />
    <glyph glyph-name="w" unicode="w" horiz-adv-x="1484" 
d="M657 1065h164l215 -850l224 850h157l-284 -1065h-195l-199 803l-194 -803h-197l-282 1065h157l226 -850z" />
    <glyph glyph-name="x" unicode="x" horiz-adv-x="931" 
d="M41 0l328 530l-330 535h186l248 -422l248 422h170l-320 -533l322 -532h-186l-244 422l-252 -422h-170z" />
    <glyph glyph-name="y" unicode="y" horiz-adv-x="978" 
d="M57 1065h181l260 -854l245 854h179l-439 -1413h-174l99 328z" />
    <glyph glyph-name="z" unicode="z" horiz-adv-x="886" 
d="M84 1065h729v-131l-549 -789l4 -8l246 2h299v-139h-754v127l557 797l-2 6l-286 -4h-244v139z" />
    <glyph glyph-name="braceleft" unicode="{" horiz-adv-x="585" 
d="M315 369v-453q0 -94 30 -128t104 -34h57v-127h-43q-97 1 -155 21q-103 37 -121 182q-7 57 -7 162v366q0 123 -108 127v107q109 4 108 129v366q0 209 52 288t231 79h43v-127h-57q-84 0 -109 -41t-25 -158v-417q0 -143 -102 -172q102 -25 102 -170z" />
    <glyph glyph-name="bar" unicode="|" horiz-adv-x="438" 
d="M152 1628h133v-1941h-133v1941z" />
    <glyph glyph-name="braceright" unicode="}" horiz-adv-x="585" 
d="M272 1128q0 117 -24 158q-25 41 -109 41h-57v127h43q178 0 230 -79t53 -288v-366q0 -125 108 -129v-107q-109 -4 -108 -127v-366q0 -104 -8 -162q-19 -147 -119 -182q-57 -20 -156 -21h-43v127h57q74 0 104 34t29 128v453q1 145 103 170q-102 29 -103 172v417z" />
    <glyph glyph-name="exclamdown" unicode="&#xa1;" horiz-adv-x="464" 
d="M334 984q0 -44 -30 -74t-74 -31t-72 29t-27 75q0 45 28 74q27 29 71 29t74 -30q30 -28 30 -72zM334 -369h-203l35 1041h131z" />
    <glyph glyph-name="cent" unicode="&#xa2;" horiz-adv-x="968" 
d="M594 -20h-80v176q-198 20 -314 175t-116 376t116 375t314 173v162h80v-157q123 -6 246 -76l-43 -117l-47 19q-97 34 -175 34q-151 0 -239 -124t-88 -290t88 -289q88 -124 239 -124q92 0 224 53l41 -117q-117 -70 -246 -75v-174z" />
    <glyph glyph-name="sterling" unicode="&#xa3;" horiz-adv-x="1019" 
d="M589 1298q-105 0 -162 -75q-56 -76 -56 -203v-285h409v-100h-409v-279q0 -82 -30 -139t-67 -80h635v-137h-819v137q12 7 30 19t50 64q31 52 31 124v291h-88v100h88v277q0 194 97 318t282 124q82 0 162 -42t135 -120l-105 -86q-78 92 -183 92z" />
    <glyph glyph-name="yen" unicode="&#xa5;" horiz-adv-x="1140" 
d="M655 516h211v-80h-211v-112h211v-80h-211v-244h-163v244h-216v80h216v112h-216v80h216v68l-437 850h183l331 -695h4l328 695h184l-430 -850v-68z" />
    <glyph glyph-name="section" unicode="&#xa7;" horiz-adv-x="1050" 
d="M240 588q0 -129 172 -211q55 -27 156 -58t134 -45q102 102 102 219t-117 186q-86 51 -199 86q-113 36 -142 46q-106 -94 -106 -223zM510 -199q246 0 246 183q0 80 -68 131t-164 83t-192 70t-164 115q-68 78 -68 195q0 168 146 296q-57 38 -96 100t-39 132q0 328 419 328
q186 0 375 -97l-49 -127q-172 78 -309 78q-252 0 -252 -188q-1 -80 67 -132t164 -84t192 -69t165 -113q67 -76 67 -180t-49 -187t-96 -122q135 -87 135 -241t-109 -237t-305 -83t-383 96l47 127q160 -74 320 -74z" />
    <glyph glyph-name="dieresis" unicode="&#xa8;" horiz-adv-x="851" 
d="M241 1389q37 0 63 -26t26 -66q0 -41 -26 -67t-66 -26t-64 26t-24 65q0 40 26 67q27 27 65 27zM612 1204q-40 0 -64 26t-24 65q0 40 27 67t65 27t63 -26q26 -26 26 -66q0 -41 -27 -67t-66 -26z" />
    <glyph glyph-name="copyright" unicode="&#xa9;" horiz-adv-x="1427" 
d="M721 354q-129 0 -224 106t-95 264q0 157 94 263q94 107 225 107t213 -93l-64 -73q-68 53 -146 53t-134 -75q-58 -75 -58 -182t58 -182t138 -75q81 0 142 53l66 -76q-86 -90 -215 -90zM713 74q223 0 383 188t160 454t-160 456t-383 190t-384 -190t-161 -455
q0 -263 161 -453t384 -190zM713 1434q254 0 434 -210t180 -506t-181 -507t-433 -211t-433 211q-182 211 -182 507t180 506t435 210z" />
    <glyph glyph-name="ordfeminine" unicode="&#xaa;" horiz-adv-x="854" 
d="M117 637h622v-92h-622v92zM545 1006v88q-51 12 -137 12q-184 0 -185 -141q0 -74 43 -110t113 -36q70 1 118 55t48 132zM420 1499q238 0 237 -252v-379q0 -27 31 -26q8 0 21 2h12v-88q-2 -2 -32 -10q-29 -7 -55 -7q-26 -1 -54 19t-29 63v31q-17 -47 -69 -83t-144 -36
q-92 -1 -156 59q-66 60 -66 176t82 166q81 50 185 50t145 -13l17 -2v58q0 100 -34 135q-33 35 -113 35t-199 -31l-23 88q143 45 244 45z" />
    <glyph glyph-name="guillemotleft" unicode="&#xab;" horiz-adv-x="1040" 
d="M936 129l-84 -86l-346 469v39l346 471l86 -86l-260 -404zM428 1022l84 -86l-264 -404l262 -403l-82 -86l-354 469v37z" />
    <glyph glyph-name="registered" unicode="&#xae;" horiz-adv-x="1036" 
d="M432 1163v-172h113q33 0 53 25q20 24 20 62t-22 62q-23 24 -53 23h-111zM379 1212h170q53 0 88 -38t35 -90q0 -54 -24 -90t-62 -46l100 -207h-61l-97 201h-96v-201h-53v471zM846 972q0 170 -90 284t-238 114t-238 -115t-90 -283t90 -281t236 -113q147 0 239 112
q91 113 91 282zM516 516q-172 0 -280 132t-107 327q-1 195 107 327t281 132t282 -132t109 -327t-110 -327t-282 -132z" />
    <glyph glyph-name="macron" unicode="&#xaf;" horiz-adv-x="808" 
d="M143 1341h527v-104h-527v104z" />
    <glyph glyph-name="degree" unicode="&#xb0;" horiz-adv-x="575" 
d="M180 1267q0 -52 33 -87t75 -35t74 35t33 88q0 53 -33 88q-32 35 -74 35t-75 -36t-33 -88zM461 1270q0 -88 -50 -144t-123 -57q-73 1 -124 57t-51 142t53 141t124 55t121 -53t50 -141z" />
    <glyph glyph-name="plusminus" unicode="&#xb1;" horiz-adv-x="894" 
d="M129 246h635v-113h-635v113zM391 1079h111v-282h262v-109h-262v-280h-111v280h-262v109h262v282z" />
    <glyph glyph-name="acute" unicode="&#xb4;" horiz-adv-x="542" 
d="M262 1538l119 -63l-131 -273h-115z" />
    <glyph glyph-name="mu" unicode="&#xb5;" horiz-adv-x="1075" 
d="M309 -350h-157v1415h157v-578q0 -365 244 -364q111 0 179 103t67 241v598h157v-1065h-122l-21 193q-25 -84 -95 -149q-70 -64 -164 -64q-93 0 -157 48q-63 48 -88 122v-500z" />
    <glyph glyph-name="paragraph" unicode="&#xb6;" horiz-adv-x="993" 
d="M821 -178h-121v1485h-141v-1485h-123v770h-47q-153 2 -235 123t-82 309t101 298q101 112 243 112h405v-1612z" />
    <glyph glyph-name="periodcentered" unicode="&#xb7;" horiz-adv-x="493" 
d="M119 615q0 55 38 97t90 42t90 -40t38 -98t-38 -99q-38 -40 -90 -40t-90 41t-38 97z" />
    <glyph glyph-name="cedilla" unicode="&#xb8;" horiz-adv-x="550" 
d="M293 -131q53 0 94 -37q41 -36 41 -102t-48 -107t-120 -41t-139 23l18 69q66 -16 92 -16q92 0 93 78q0 33 -22 52t-58 19l-35 -4l-29 39l43 135h72l-27 -110q10 2 25 2z" />
    <glyph glyph-name="ordmasculine" unicode="&#xba;" horiz-adv-x="948" 
d="M168 637h616v-92h-616v92zM474 1397q-100 0 -158 -78t-58 -203t58 -203q58 -77 158 -77t158 76q58 77 58 204t-58 204q-59 77 -158 77zM817 1116q0 -170 -91 -276t-252 -107q-161 1 -252 107t-91 276t91 276t252 107q161 0 252 -106q91 -107 91 -277z" />
    <glyph glyph-name="guillemotright" unicode="&#xbb;" horiz-adv-x="1044" 
d="M188 43l-84 86l258 403l-260 404l86 86l347 -471v-39zM528 936l84 86l355 -473v-37l-355 -469l-82 86l263 403z" />
    <glyph glyph-name="questiondown" unicode="&#xbf;" horiz-adv-x="833" 
d="M464 879q-44 -1 -72 29t-28 75t28 74t72 29t73 -28t29 -74t-29 -76q-29 -29 -73 -29zM446 -389q-156 0 -264 96t-106 249q0 153 114 270q47 48 95 93q116 111 114 216v137h136v-109q0 -155 -83 -256q-50 -61 -98 -100t-88 -101q-39 -62 -39 -133q0 -106 68 -161
q69 -56 181 -56t222 86l62 -118q-60 -49 -146 -81t-168 -32z" />
    <glyph glyph-name="Agrave" unicode="&#xc0;" horiz-adv-x="1157" 
d="M573 1241l-200 -711h403l-201 711h-2zM463 1444h231l420 -1444h-186l-115 387h-477l-117 -387h-176zM387 1798l119 64l127 -336h-115z" />
    <glyph glyph-name="Aacute" unicode="&#xc1;" horiz-adv-x="1157" 
d="M573 1241l-200 -711h403l-201 711h-2zM463 1444h231l420 -1444h-186l-115 387h-477l-117 -387h-176zM664 1862l118 -64l-131 -272h-114z" />
    <glyph glyph-name="Acircumflex" unicode="&#xc2;" horiz-adv-x="1157" 
d="M573 1241l-200 -711h403l-201 711h-2zM463 1444h231l420 -1444h-186l-115 387h-477l-117 -387h-176zM463 1532h-125l180 250h119l186 -250h-125l-118 180z" />
    <glyph glyph-name="Atilde" unicode="&#xc3;" horiz-adv-x="1157" 
d="M573 1241l-200 -711h403l-201 711h-2zM463 1444h231l420 -1444h-186l-115 387h-477l-117 -387h-176zM712 1649q46 0 93 67l43 -37q-68 -139 -170 -139q-51 0 -117 43t-113 43t-94 -63l-45 34q68 137 172 138q47 0 116 -43t115 -43z" />
    <glyph glyph-name="Adieresis" unicode="&#xc4;" horiz-adv-x="1159" 
d="M573 1241l-200 -711h403l-201 711h-2zM463 1444h231l420 -1444h-186l-115 387h-477l-117 -387h-176zM394 1536q-40 0 -64 26t-25 65q0 40 27 67q26 26 64 26t64 -26t26 -65q0 -41 -26 -67t-66 -26zM768 1536q-40 0 -64 26t-24 65q0 40 27 67q27 26 65 26t63 -26t25 -65
q0 -41 -26 -67t-66 -26z" />
    <glyph glyph-name="Aring" unicode="&#xc5;" horiz-adv-x="1157" 
d="M573 1241l-200 -711h403l-201 711h-2zM463 1444h231l420 -1444h-186l-115 387h-477l-117 -387h-176zM582 1792q-43 0 -65 -26q-21 -26 -21 -64t22 -64q22 -25 64 -24q84 0 84 89t-84 89zM582 1538q-74 0 -123 46t-49 118t49 119t122 47t121 -47t50 -119q0 -72 -48 -118
t-122 -46z" />
    <glyph glyph-name="AE" unicode="&#xc6;" horiz-adv-x="1646" 
d="M758 1286h-66l-293 -756h359v756zM1606 1434v-148h-676v-514h583v-147h-583v-478h698v-147h-870v391h-412l-149 -391h-181l580 1434h1010z" />
    <glyph glyph-name="Ccedilla" unicode="&#xc7;" horiz-adv-x="1169" 
d="M88 724q0 316 186 524q186 206 463 206q205 0 361 -108l-62 -132q-143 84 -299 84q-201 0 -336 -168t-135 -414t135 -413q135 -168 336 -168q162 0 297 84l64 -133q-152 -100 -344 -106h-2l-25 -107q10 2 25 2q53 0 94 -37q41 -36 41 -102t-48 -107t-120 -41t-139 23
l18 70q66 -16 92 -17q92 0 92 78q0 70 -80 72l-34 -4l-29 38l43 136q-256 16 -425 220t-169 520z" />
    <glyph glyph-name="Egrave" unicode="&#xc8;" horiz-adv-x="1122" 
d="M168 1434h848v-148h-676v-514h584v-147h-584v-478h698v-147h-870v1434zM449 1798l118 64l127 -336h-114z" />
    <glyph glyph-name="Eacute" unicode="&#xc9;" horiz-adv-x="1122" 
d="M168 1434h848v-148h-676v-514h584v-147h-584v-478h698v-147h-870v1434zM633 1862l119 -64l-131 -272h-115z" />
    <glyph glyph-name="Ecircumflex" unicode="&#xca;" horiz-adv-x="1122" 
d="M168 1434h848v-148h-676v-514h584v-147h-584v-478h698v-147h-870v1434zM487 1532h-125l181 250h119l186 -250h-125l-119 180z" />
    <glyph glyph-name="Edieresis" unicode="&#xcb;" horiz-adv-x="1122" 
d="M168 1434h848v-148h-676v-514h584v-147h-584v-478h698v-147h-870v1434zM506 1629q0 -41 -26 -67t-66 -26t-64 26t-24 65q0 40 26 67q27 26 65 26q37 0 63 -26t26 -65zM788 1536q-40 0 -64 26t-24 65q0 40 27 67q27 26 65 26t63 -26q26 -26 26 -65q0 -41 -27 -67t-66 -26z
" />
    <glyph glyph-name="Igrave" unicode="&#xcc;" horiz-adv-x="507" 
d="M168 1434h172v-1434h-172v1434zM70 1798l118 64l127 -336h-114z" />
    <glyph glyph-name="Iacute" unicode="&#xcd;" horiz-adv-x="507" 
d="M168 1434h172v-1434h-172v1434zM334 1862l119 -64l-131 -272h-115z" />
    <glyph glyph-name="Icircumflex" unicode="&#xce;" horiz-adv-x="503" 
d="M166 1434h172v-1434h-172v1434zM139 1532h-125l181 250h118l187 -250h-125l-119 180z" />
    <glyph glyph-name="Idieresis" unicode="&#xcf;" horiz-adv-x="503" 
d="M166 1434h172v-1434h-172v1434zM154 1629q0 -41 -26 -67t-66 -26t-64 26t-25 65q0 40 27 67q26 26 64 26t64 -26t26 -65zM436 1536q-40 0 -64 26t-24 65q0 40 27 67q27 26 65 26t63 -26t25 -65q0 -41 -26 -67t-66 -26z" />
    <glyph glyph-name="Eth" unicode="&#xd0;" horiz-adv-x="1253" 
d="M346 1286v-520h252v-86h-252v-533h229q125 0 218 66q193 141 193 503t-193 507q-92 63 -218 63h-229zM606 0h-432v680h-158v86h158v668h432q158 0 287 -86q135 -98 201 -264t66 -368t-68 -370q-66 -168 -197 -257t-289 -89z" />
    <glyph glyph-name="Ntilde" unicode="&#xd1;" horiz-adv-x="1296" 
d="M168 1434h180l613 -1141h2l-7 442v699h172v-1434h-182l-610 1151h-2l6 -516v-635h-172v1434zM788 1651q46 0 93 67l43 -37q-68 -139 -170 -139q-53 0 -119 43t-112 43t-93 -63l-45 34q68 137 172 138q47 0 116 -43t115 -43z" />
    <glyph glyph-name="Ograve" unicode="&#xd2;" horiz-adv-x="1437" 
d="M266 715q0 -252 126 -416t329 -164t328 164t125 415t-127 418q-127 166 -326 166t-327 -166t-128 -417zM1350 719q0 -319 -172 -529t-457 -208q-285 0 -458 209t-173 529t175 526q175 208 455 208t455 -208t175 -527zM598 1798l119 64l127 -336h-115z" />
    <glyph glyph-name="Oacute" unicode="&#xd3;" horiz-adv-x="1437" 
d="M266 715q0 -252 126 -416t329 -164t328 164t125 415t-127 418q-127 166 -326 166t-327 -166t-128 -417zM1350 719q0 -319 -172 -529t-457 -208q-285 0 -458 209t-173 529t175 526q175 208 455 208t455 -208t175 -527zM764 1862l119 -64l-131 -272h-115z" />
    <glyph glyph-name="Ocircumflex" unicode="&#xd4;" horiz-adv-x="1437" 
d="M266 715q0 -252 126 -416t329 -164t328 164t125 415t-127 418q-127 166 -326 166t-327 -166t-128 -417zM1350 719q0 -319 -172 -529t-457 -208q-285 0 -458 209t-173 529t175 526q175 208 455 208t455 -208t175 -527zM602 1532h-125l180 250h119l187 -250h-125l-119 180z
" />
    <glyph glyph-name="Otilde" unicode="&#xd5;" horiz-adv-x="1437" 
d="M266 715q0 -252 126 -416t329 -164t328 164t125 415t-127 418q-127 166 -326 166t-327 -166t-128 -417zM1350 719q0 -319 -172 -529t-457 -208q-285 0 -458 209t-173 529t175 526q175 208 455 208t455 -208t175 -527zM861 1651q46 0 93 67l43 -37q-68 -139 -170 -139
q-53 0 -119 43t-111 43q-46 0 -93 -63l-45 34q68 137 172 138q47 0 115 -43t115 -43z" />
    <glyph glyph-name="Odieresis" unicode="&#xd6;" horiz-adv-x="1437" 
d="M266 715q0 -252 126 -416t329 -164t328 164t125 415t-127 418q-127 166 -326 166t-327 -166t-128 -417zM1350 719q0 -319 -172 -529t-457 -208q-285 0 -458 209t-173 529t175 526q175 208 455 208t455 -208t175 -527zM530 1536q-40 0 -64 26t-24 65q0 40 27 67
q27 26 65 26t63 -26q26 -26 26 -65q0 -41 -27 -67t-66 -26zM906 1536q-40 0 -64 26t-25 65q0 40 27 67q26 26 64 26t64 -26t26 -65q0 -41 -26 -67t-66 -26z" />
    <glyph glyph-name="multiply" unicode="&#xd7;" horiz-adv-x="792" 
d="M201 956l196 -225l197 225l72 -63l-205 -236l205 -235l-74 -62l-195 224l-194 -224l-74 62l205 235l-205 236z" />
    <glyph glyph-name="Oslash" unicode="&#xd8;" horiz-adv-x="1437" 
d="M1174 721q0 258 -140 424l-526 -952q96 -57 213 -58q203 0 328 164t125 422zM266 702q0 -266 144 -428l528 959q-102 66 -217 65q-199 0 -327 -166q-128 -164 -128 -430zM90 717q0 321 175 529t456 208q160 0 297 -78l65 119h144l-107 -192q229 -213 230 -586
q0 -317 -172 -527t-457 -210q-164 0 -291 71l-65 -119h-144l105 191q-113 100 -174 255q-62 155 -62 339z" />
    <glyph glyph-name="Ugrave" unicode="&#xd9;" horiz-adv-x="1255" 
d="M154 1434h172v-975q0 -143 84 -233t219 -91q135 0 218 91t83 233v975h172v-965q0 -217 -128 -353t-348 -136t-346 138t-126 351v965zM465 1798l119 64l127 -336h-115z" />
    <glyph glyph-name="Uacute" unicode="&#xda;" horiz-adv-x="1255" 
d="M154 1434h172v-975q0 -143 84 -233t219 -91q135 0 218 91t83 233v975h172v-965q0 -217 -128 -353t-348 -136t-346 138t-126 351v965zM672 1860l119 -64l-132 -272h-114z" />
    <glyph glyph-name="Ucircumflex" unicode="&#xdb;" horiz-adv-x="1255" 
d="M154 1434h172v-975q0 -143 84 -233t219 -91q135 0 218 91t83 233v975h172v-965q0 -217 -128 -353t-348 -136t-346 138t-126 351v965zM508 1532h-125l180 250h119l186 -250h-125l-118 180z" />
    <glyph glyph-name="Udieresis" unicode="&#xdc;" horiz-adv-x="1255" 
d="M154 1434h172v-975q0 -143 84 -233t219 -91q135 0 218 91t83 233v975h172v-965q0 -217 -128 -353t-348 -136t-346 138t-126 351v965zM535 1629q0 -41 -26 -67t-66 -26q-41 0 -65 26t-24 65q0 40 27 67q27 26 65 26t63 -26q26 -26 26 -65zM817 1536q-39 0 -63 26t-25 65
q0 40 27 67q26 26 64 26t64 -26t26 -65q0 -41 -28 -67q-26 -26 -65 -26z" />
    <glyph glyph-name="Yacute" unicode="&#xdd;" horiz-adv-x="1075" 
d="M623 0h-168v584l-435 850h187l332 -691h4l327 691h181l-428 -850v-584zM584 1860l118 -64l-131 -272h-114z" />
    <glyph glyph-name="Thorn" unicode="&#xde;" horiz-adv-x="1138" 
d="M328 1008v-559h336q106 1 180 77t74 202t-75 203t-179 77h-336zM168 1434h160v-271h354q178 0 288 -124t110 -308t-108 -311t-282 -127h-362v-293h-160v1434z" />
    <glyph glyph-name="germandbls" unicode="&#xdf;" horiz-adv-x="1036" 
d="M502 1454q168 0 262 -99t94 -263q0 -100 -48 -206t-48 -154t26 -88t61 -73q36 -33 71 -69q86 -87 86 -230t-84 -228t-241 -85t-251 49l35 127q90 -37 184 -37t148 46q53 46 53 122q0 127 -88 200q-37 30 -75 60q-89 71 -89 185q0 73 53 181t55 159q5 168 -94 224
q-41 24 -100 23q-205 0 -205 -301v-997h-170v989q0 171 73 307q38 72 113 115t179 43z" />
    <glyph glyph-name="agrave" unicode="&#xe0;" horiz-adv-x="999" 
d="M229 311q-1 -194 207 -194q100 -1 172 79t72 205v97q-92 20 -191 20q-260 0 -260 -207zM500 1085q176 1 263 -81t87 -263v-559q0 -51 49 -51l47 4v-119q-38 -22 -106 -22t-114 34t-46 105q-82 -154 -285 -153q-145 0 -240 85t-95 249t110 248q111 85 293 85
q129 0 217 -16v86q0 133 -49 180t-172 47t-279 -47l-33 129q177 59 353 59zM358 1470l119 64l127 -336h-115z" />
    <glyph glyph-name="aacute" unicode="&#xe1;" horiz-adv-x="999" 
d="M229 311q-1 -194 207 -194q100 -1 172 79t72 205v97q-92 20 -191 20q-260 0 -260 -207zM500 1085q176 1 263 -81t87 -263v-559q0 -51 49 -51l47 4v-119q-38 -22 -106 -22t-114 34t-46 105q-82 -154 -285 -153q-145 0 -240 85t-95 249t110 248q111 85 293 85
q129 0 217 -16v86q0 133 -49 180t-172 47t-279 -47l-33 129q177 59 353 59zM537 1534l118 -64l-131 -272h-114z" />
    <glyph glyph-name="acircumflex" unicode="&#xe2;" horiz-adv-x="999" 
d="M229 311q-1 -194 207 -194q100 -1 172 79t72 205v97q-92 20 -191 20q-260 0 -260 -207zM500 1085q176 1 263 -81t87 -263v-559q0 -51 49 -51l47 4v-119q-38 -22 -106 -22t-114 34t-46 105q-82 -154 -285 -153q-145 0 -240 85t-95 249t110 248q111 85 293 85
q129 0 217 -16v86q0 133 -49 180t-172 47t-279 -47l-33 129q177 59 353 59zM397 1204h-125l181 250h118l187 -250h-125l-119 180z" />
    <glyph glyph-name="atilde" unicode="&#xe3;" horiz-adv-x="999" 
d="M229 311q-1 -194 207 -194q100 -1 172 79t72 205v97q-92 20 -191 20q-260 0 -260 -207zM500 1085q176 1 263 -81t87 -263v-559q0 -51 49 -51l47 4v-119q-38 -22 -106 -22t-114 34t-46 105q-82 -154 -285 -153q-145 0 -240 85t-95 249t110 248q111 85 293 85
q129 0 217 -16v86q0 133 -49 180t-172 47t-279 -47l-33 129q177 59 353 59zM410 1411q48 0 116 -43t114 -43t93 68l43 -37q-68 -139 -170 -139q-53 0 -119 43q-65 42 -111 42t-93 -63l-45 35q68 137 172 137z" />
    <glyph glyph-name="adieresis" unicode="&#xe4;" horiz-adv-x="999" 
d="M229 311q-1 -194 207 -194q100 -1 172 79t72 205v97q-92 20 -191 20q-260 0 -260 -207zM500 1085q176 1 263 -81t87 -263v-559q0 -51 49 -51l47 4v-119q-38 -22 -106 -22t-114 34t-46 105q-82 -154 -285 -153q-145 0 -240 85t-95 249t110 248q111 85 293 85
q129 0 217 -16v86q0 133 -49 180t-172 47t-279 -47l-33 129q177 59 353 59zM337 1389q37 0 63 -26t26 -66q0 -41 -27 -67t-65 -26t-64 26q-24 26 -24 65q0 40 26 67q27 27 65 27zM712 1389q38 0 64 -26t25 -66q0 -41 -26 -67q-25 -26 -65 -26t-64 26t-25 65q0 40 26 67
q27 27 65 27z" />
    <glyph glyph-name="aring" unicode="&#xe5;" horiz-adv-x="999" 
d="M229 311q-1 -194 207 -194q100 -1 172 79t72 205v97q-92 20 -191 20q-260 0 -260 -207zM500 1085q176 1 263 -81t87 -263v-559q0 -51 49 -51l47 4v-119q-38 -22 -106 -22t-114 34t-46 105q-82 -154 -285 -153q-145 0 -240 85t-95 249t110 248q111 85 293 85
q129 0 217 -16v86q0 133 -49 180t-172 47t-279 -47l-33 129q177 59 353 59zM539 1470q-43 0 -65 -26t-22 -64q0 -40 22 -64t65 -24q84 0 84 89t-84 89zM539 1217q-74 0 -123 46q-49 45 -49 117t49 119t122 47q74 0 122 -47t48 -119t-47 -118q-48 -46 -122 -45z" />
    <glyph glyph-name="ae" unicode="&#xe6;" horiz-adv-x="1607" 
d="M1423 600q0 142 -62 242t-188 100q-127 0 -213 -93t-94 -249h557zM489 518q-260 0 -260 -209q1 -98 55 -148t152 -50q201 -1 289 206q-35 92 -35 183q-111 18 -201 18zM498 1085q262 0 329 -170q133 170 335 170t308 -143q133 -180 109 -473h-713q8 -162 108 -254
t259 -92q117 0 252 65l47 -122q-154 -86 -330 -86q-272 0 -411 206q-133 -207 -381 -206q-160 0 -255 82t-95 249q0 166 110 251q111 85 287 85q102 0 237 -22l6 37v55q0 131 -57 179t-182 48t-281 -47l-33 129q178 59 351 59z" />
    <glyph glyph-name="ccedilla" unicode="&#xe7;" horiz-adv-x="901" 
d="M563 -20h-22l-25 -107q10 2 25 2q53 0 94 -37q41 -36 41 -102t-48 -107t-120 -41t-139 23l18 70q66 -16 92 -17q92 0 92 78q0 33 -21 52q-22 19 -58 20l-35 -4l-29 38l45 140q-174 35 -285 183t-110 351v19q0 231 138 388t347 156q133 0 271 -73l-50 -119q-98 49 -194 49
q-154 0 -248 -121t-94 -280v-19q0 -160 94 -280t250 -119q94 0 192 49l50 -119q-134 -73 -271 -73z" />
    <glyph glyph-name="egrave" unicode="&#xe8;" horiz-adv-x="1015" 
d="M782 600q0 142 -62 242t-181 100t-198 -93t-87 -249h528zM78 522v19q0 231 128 388t322 157t300 -144q134 -180 110 -473h-684q8 -162 100 -254t224 -92t266 65l47 -122q-154 -86 -330 -86q-213 0 -348 154t-135 388zM410 1470l118 64l127 -336h-114z" />
    <glyph glyph-name="eacute" unicode="&#xe9;" horiz-adv-x="1015" 
d="M782 600q0 142 -62 242t-181 100t-198 -93t-87 -249h528zM78 522v19q0 231 128 388t322 157t300 -144q134 -180 110 -473h-684q8 -162 100 -254t224 -92t266 65l47 -122q-154 -86 -330 -86q-213 0 -348 154t-135 388zM565 1534l119 -64l-131 -272h-115z" />
    <glyph glyph-name="ecircumflex" unicode="&#xea;" horiz-adv-x="1015" 
d="M782 600q0 142 -62 242t-181 100t-198 -93t-87 -249h528zM78 522v19q0 231 128 388t322 157t300 -144q134 -180 110 -473h-684q8 -162 100 -254t224 -92t266 65l47 -122q-154 -86 -330 -86q-213 0 -348 154t-135 388zM426 1204h-125l180 250h119l186 -250h-124l-119 180z
" />
    <glyph glyph-name="edieresis" unicode="&#xeb;" horiz-adv-x="1015" 
d="M782 600q0 142 -62 242t-181 100t-198 -93t-87 -249h528zM78 522v19q0 231 128 388t322 157t300 -144q134 -180 110 -473h-684q8 -162 100 -254t224 -92t266 65l47 -122q-154 -86 -330 -86q-213 0 -348 154t-135 388zM353 1204q-41 0 -65 26t-24 65q0 40 27 67t65 27
t63 -26t25 -66q0 -41 -26 -67t-65 -26zM727 1204q-39 0 -63 26t-25 65q0 40 27 67q26 27 64 27t64 -26t26 -66q0 -41 -28 -67q-26 -26 -65 -26z" />
    <glyph glyph-name="igrave" unicode="&#xec;" horiz-adv-x="460" 
d="M70 1065h254v-1065h-170v930l-84 22v113zM35 1470l119 64l127 -336h-115z" />
    <glyph glyph-name="iacute" unicode="&#xed;" horiz-adv-x="460" 
d="M70 1065h254v-1065h-170v930l-84 22v113zM287 1534l119 -64l-132 -272h-114z" />
    <glyph glyph-name="icircumflex" unicode="&#xee;" horiz-adv-x="458" 
d="M68 1065h254v-1065h-170v930l-84 22v113zM92 1204h-125l180 250h119l187 -250h-125l-119 180z" />
    <glyph glyph-name="idieresis" unicode="&#xef;" horiz-adv-x="460" 
d="M70 1065h254v-1065h-170v930l-84 22v113zM113 1297q0 -41 -26 -67t-66 -26q-41 0 -65 26t-24 65q0 40 27 67t65 27t63 -26q26 -26 26 -66zM395 1204q-39 0 -63 26t-25 65q0 40 27 67q26 27 64 27t64 -26t26 -66q0 -41 -28 -67q-26 -26 -65 -26z" />
    <glyph glyph-name="eth" unicode="&#xf0;" horiz-adv-x="976" 
d="M459 844q-117 0 -178 -104t-61 -252q0 -150 64 -256q66 -106 182 -107t190 109t73 261t-77 250t-193 99zM905 586q0 -274 -123 -438t-312 -164t-298 142t-109 366t111 356t287 133q106 0 190 -65t121 -171h2q-20 175 -82 319t-135 226l-154 -129l-51 58l150 131
q-72 76 -219 155l45 78q139 -59 254 -166l153 133l51 -59l-147 -129q266 -285 266 -776z" />
    <glyph glyph-name="ntilde" unicode="&#xf1;" horiz-adv-x="1062" 
d="M137 1065h135l29 -174q24 59 74 105q96 91 238 90t233 -112q90 -112 90 -333v-641h-170v653q0 137 -56 213t-164 76t-174 -97t-65 -224v-621h-170v1065zM438 1411q47 0 116 -43t115 -43t93 68l43 -37q-68 -139 -170 -139q-53 0 -119 43q-66 42 -112 42t-93 -63l-45 35
q68 137 172 137z" />
    <glyph glyph-name="ograve" unicode="&#xf2;" horiz-adv-x="1097" 
d="M246 533q0 -181 82 -295t221 -115q139 0 221 115q82 116 82 296t-82 294t-221 114t-221 -114t-82 -295zM1022 532q0 -244 -132 -398t-341 -154t-341 154t-132 398t133 399t340 155t340 -156q133 -154 133 -398zM412 1470l118 64l127 -336h-114z" />
    <glyph glyph-name="oacute" unicode="&#xf3;" horiz-adv-x="1097" 
d="M246 533q0 -181 82 -295t221 -115q139 0 221 115q82 116 82 296t-82 294t-221 114t-221 -114t-82 -295zM1022 532q0 -244 -132 -398t-341 -154t-341 154t-132 398t133 399t340 155t340 -156q133 -154 133 -398zM569 1534l119 -64l-131 -272h-115z" />
    <glyph glyph-name="ocircumflex" unicode="&#xf4;" horiz-adv-x="1097" 
d="M246 533q0 -181 82 -295t221 -115q139 0 221 115q82 116 82 296t-82 294t-221 114t-221 -114t-82 -295zM1022 532q0 -244 -132 -398t-341 -154t-341 154t-132 398t133 399t340 155t340 -156q133 -154 133 -398zM432 1204h-125l180 250h119l187 -250h-125l-119 180z" />
    <glyph glyph-name="otilde" unicode="&#xf5;" horiz-adv-x="1097" 
d="M246 533q0 -181 82 -295t221 -115q139 0 221 115q82 116 82 296t-82 294t-221 114t-221 -114t-82 -295zM1022 532q0 -244 -132 -398t-341 -154t-341 154t-132 398t133 399t340 155t340 -156q133 -154 133 -398zM453 1411q47 0 115 -43t115 -43q46 0 93 68l43 -37
q-68 -139 -170 -139q-51 0 -117 43q-66 42 -112 42t-94 -63l-45 35q68 137 172 137z" />
    <glyph glyph-name="odieresis" unicode="&#xf6;" horiz-adv-x="1097" 
d="M246 533q0 -181 82 -295t221 -115q139 0 221 115q82 116 82 296t-82 294t-221 114t-221 -114t-82 -295zM1022 532q0 -244 -132 -398t-341 -154t-341 154t-132 398t133 399t340 155t340 -156q133 -154 133 -398zM453 1297q0 -41 -26 -67t-66 -26q-41 0 -65 26t-24 65
q0 40 27 67t65 27t63 -26q26 -26 26 -66zM735 1204q-39 0 -63 26t-25 65q0 40 27 67q26 27 64 27t64 -26t26 -66q0 -41 -28 -67q-26 -26 -65 -26z" />
    <glyph glyph-name="divide" unicode="&#xf7;" horiz-adv-x="1007" 
d="M416 326q0 40 26 68t63 28q35 0 63 -29t28 -67t-28 -68q-28 -29 -64 -29t-63 28q-25 28 -25 69zM123 717h764v-115h-764v115zM506 1090q36 0 64 -28t28 -68t-28 -68t-66 -29q-38 0 -63 29q-25 30 -25 70t26 67q27 27 64 27z" />
    <glyph glyph-name="oslash" unicode="&#xf8;" horiz-adv-x="1097" 
d="M246 533q0 -181 78 -289l366 659q-66 39 -141 39q-139 0 -221 -114t-82 -295zM549 123q139 1 221 115t82 291t-78 294l-366 -661q66 -39 141 -39zM1022 548q0 -260 -132 -414t-341 -154q-117 0 -213 51l-60 -107h-129l95 172q-166 156 -166 418t133 417t340 154
q117 0 213 -53l59 109h129l-96 -174q168 -159 168 -419z" />
    <glyph glyph-name="ugrave" unicode="&#xf9;" horiz-adv-x="1058" 
d="M127 1065h170v-649q0 -293 213 -293q121 0 182 87t62 216v639h170v-1065h-133l-29 154q-33 -70 -109 -122q-75 -52 -209 -52t-226 98q-91 98 -91 315v672zM387 1470l119 64l127 -336h-115z" />
    <glyph glyph-name="uacute" unicode="&#xfa;" horiz-adv-x="1058" 
d="M127 1065h170v-649q0 -293 213 -293q121 0 182 87t62 216v639h170v-1065h-133l-29 154q-33 -70 -109 -122q-75 -52 -209 -52t-226 98q-91 98 -91 315v672zM567 1534l119 -64l-131 -272h-115z" />
    <glyph glyph-name="ucircumflex" unicode="&#xfb;" horiz-adv-x="1058" 
d="M127 1065h170v-649q0 -293 213 -293q121 0 182 87t62 216v639h170v-1065h-133l-29 154q-33 -70 -109 -122q-75 -52 -209 -52t-226 98q-91 98 -91 315v672zM414 1204h-125l180 250h119l186 -250h-125l-119 180z" />
    <glyph glyph-name="udieresis" unicode="&#xfc;" horiz-adv-x="1058" 
d="M127 1065h170v-649q0 -293 213 -293q121 0 182 87t62 216v639h170v-1065h-133l-29 154q-33 -70 -109 -122q-75 -52 -209 -52t-226 98q-91 98 -91 315v672zM341 1389q37 0 63 -26t26 -66q0 -41 -27 -67t-65 -26t-64 26q-24 26 -24 65q0 40 26 67q27 27 65 27zM716 1389
q38 0 64 -26t25 -66q0 -41 -26 -67q-25 -26 -65 -26t-64 26t-25 65q0 40 26 67q27 27 65 27z" />
    <glyph glyph-name="yacute" unicode="&#xfd;" horiz-adv-x="978" 
d="M57 1065h181l260 -854l245 854h179l-439 -1413h-174l99 328zM530 1534l119 -64l-131 -272h-115z" />
    <glyph glyph-name="thorn" unicode="&#xfe;" horiz-adv-x="1116" 
d="M583 936q-126 0 -205 -117t-79 -291t80 -286t206 -113q126 0 209 114q83 115 83 285t-84 289t-210 119zM614 1085q186 0 306 -164q118 -165 118 -397t-114 -388q-114 -157 -306 -156q-112 0 -192 51t-119 131v-510h-170v1782h170v-533q49 80 129 132t178 52z" />
    <glyph glyph-name="ydieresis" unicode="&#xff;" horiz-adv-x="978" 
d="M57 1065h181l260 -854l245 854h179l-439 -1413h-174l99 328zM304 1204q-40 0 -64 26t-25 65q0 40 27 67q26 27 64 27t64 -26t26 -66q0 -41 -26 -67t-66 -26zM681 1389q37 0 63 -26t26 -66q0 -41 -27 -67t-65 -26t-64 26q-24 26 -24 65q0 40 26 67q27 27 65 27z" />
    <glyph glyph-name="Amacron" unicode="&#x100;" horiz-adv-x="1157" 
d="M573 1241l-200 -711h403l-201 711h-2zM463 1444h231l420 -1444h-186l-115 387h-477l-117 -387h-176zM317 1665h527v-104h-527v104z" />
    <glyph glyph-name="amacron" unicode="&#x101;" horiz-adv-x="999" 
d="M229 311q-1 -194 207 -194q100 -1 172 79t72 205v97q-92 20 -191 20q-260 0 -260 -207zM500 1085q176 1 263 -81t87 -263v-559q0 -51 49 -51l47 4v-119q-38 -22 -106 -22t-114 34t-46 105q-82 -154 -285 -153q-145 0 -240 85t-95 249t110 248q111 85 293 85
q129 0 217 -16v86q0 133 -49 180t-172 47t-279 -47l-33 129q177 59 353 59zM242 1337h526v-104h-526v104z" />
    <glyph glyph-name="Abreve" unicode="&#x102;" horiz-adv-x="1157" 
d="M573 1241l-200 -711h403l-201 711h-2zM463 1444h231l420 -1444h-186l-115 387h-477l-117 -387h-176zM352 1774h76q20 -133 152 -134q66 0 100 32t47 102h78q-20 -229 -225 -230q-214 1 -228 230z" />
    <glyph glyph-name="abreve" unicode="&#x103;" horiz-adv-x="999" 
d="M229 311q-1 -194 207 -194q100 -1 172 79t72 205v97q-92 20 -191 20q-260 0 -260 -207zM500 1085q176 1 263 -81t87 -263v-559q0 -51 49 -51l47 4v-119q-38 -22 -106 -22t-114 34t-46 105q-82 -154 -285 -153q-145 0 -240 85t-95 249t110 248q111 85 293 85
q129 0 217 -16v86q0 133 -49 180t-172 47t-279 -47l-33 129q177 59 353 59zM496 1307q66 -1 100 31t47 102h78q-20 -229 -225 -230q-214 1 -228 230h76q20 -133 152 -133z" />
    <glyph glyph-name="Aogonek" unicode="&#x104;" horiz-adv-x="1163" 
d="M573 1241l-200 -711h403l-201 711h-2zM993 -203q0 -84 74 -84l55 8l15 -59q-41 -27 -99 -27t-99 44q-40 44 -40 114q0 121 100 207h-71l-115 387h-477l-117 -387h-176l420 1444h231l420 -1444q-59 -25 -90 -86t-31 -117z" />
    <glyph glyph-name="aogonek" unicode="&#x105;" horiz-adv-x="999" 
d="M229 311q-1 -194 207 -194q100 -1 172 79t72 205v97q-92 20 -191 20q-260 0 -260 -207zM500 1085q176 1 263 -81t87 -263v-559q0 -51 49 -51l47 4v-119q-29 -18 -102 -22q-43 -27 -67 -80q-23 -53 -23 -101t22 -73t55 -25l54 9l14 -64q-39 -25 -98 -25t-101 43
q-41 43 -41 115q0 135 107 211q-86 33 -86 129q-82 -154 -285 -153q-145 0 -240 85t-95 249t110 248q111 85 293 85q129 0 217 -16v86q0 133 -49 180t-172 47t-279 -47l-33 129q177 59 353 59z" />
    <glyph glyph-name="Cacute" unicode="&#x106;" horiz-adv-x="1169" 
d="M737 1454q205 0 361 -108l-62 -132q-143 84 -299 84q-201 0 -336 -168t-135 -414t135 -413q135 -168 336 -168q162 0 297 84l64 -133q-166 -106 -361 -106q-276 0 -463 205q-186 206 -186 531q0 326 186 532t463 206zM756 1862l118 -64l-131 -272h-114z" />
    <glyph glyph-name="cacute" unicode="&#x107;" horiz-adv-x="899" 
d="M563 -20q-209 0 -347 156t-138 386v19q0 231 138 388t347 156q133 0 271 -73l-50 -119q-98 49 -194 49q-154 0 -248 -121t-94 -280v-19q0 -160 94 -280t250 -119q94 0 192 49l50 -119q-134 -73 -271 -73zM594 1534l119 -64l-131 -272h-115z" />
    <glyph glyph-name="Ccircumflex" unicode="&#x108;" horiz-adv-x="1169" 
d="M737 1454q205 0 361 -108l-62 -132q-143 84 -299 84q-201 0 -336 -168t-135 -414t135 -413q135 -168 336 -168q162 0 297 84l64 -133q-166 -106 -361 -106q-276 0 -463 205q-186 206 -186 531q0 326 186 532t463 206zM594 1532h-125l180 250h119l186 -250h-125l-118 180z
" />
    <glyph glyph-name="ccircumflex" unicode="&#x109;" horiz-adv-x="899" 
d="M563 -20q-209 0 -347 156t-138 386v19q0 231 138 388t347 156q133 0 271 -73l-50 -119q-98 49 -194 49q-154 0 -248 -121t-94 -280v-19q0 -160 94 -280t250 -119q94 0 192 49l50 -119q-134 -73 -271 -73zM432 1204h-125l180 250h119l187 -250h-125l-119 180z" />
    <glyph glyph-name="Cdotaccent" unicode="&#x10a;" horiz-adv-x="1169" 
d="M737 1454q205 0 361 -108l-62 -132q-143 84 -299 84q-201 0 -336 -168t-135 -414t135 -413q135 -168 336 -168q162 0 297 84l64 -133q-166 -106 -361 -106q-276 0 -463 205q-186 206 -186 531q0 326 186 532t463 206zM811 1626q0 -40 -27 -66q-28 -26 -66 -26t-62 26
t-25 65q0 40 26 67q27 26 65 26t64 -26t25 -66z" />
    <glyph glyph-name="cdotaccent" unicode="&#x10b;" horiz-adv-x="899" 
d="M563 -20q-209 0 -347 156t-138 386v19q0 231 138 388t347 156q133 0 271 -73l-50 -119q-98 49 -194 49q-154 0 -248 -121t-94 -280v-19q0 -160 94 -280t250 -119q94 0 192 49l50 -119q-134 -73 -271 -73zM561 1210q-35 0 -59 24t-23 61q0 36 24 62q25 25 59 25t59 -26
t25 -61q0 -37 -26 -61q-24 -24 -59 -24z" />
    <glyph glyph-name="Ccaron" unicode="&#x10c;" horiz-adv-x="1169" 
d="M737 1454q205 0 361 -108l-62 -132q-143 84 -299 84q-201 0 -336 -168t-135 -414t135 -413q135 -168 336 -168q162 0 297 84l64 -133q-166 -106 -361 -106q-276 0 -463 205q-186 206 -186 531q0 326 186 532t463 206zM481 1782h125l117 -180l119 180h125l-187 -250h-118z
" />
    <glyph glyph-name="ccaron" unicode="&#x10d;" horiz-adv-x="899" 
d="M563 -20q-209 0 -347 156t-138 386v19q0 231 138 388t347 156q133 0 271 -73l-50 -119q-98 49 -194 49q-154 0 -248 -121t-94 -280v-19q0 -160 94 -280t250 -119q94 0 192 49l50 -119q-134 -73 -271 -73zM311 1454h125l117 -180l119 180h125l-187 -250h-118z" />
    <glyph glyph-name="Dcaron" unicode="&#x10e;" horiz-adv-x="1247" 
d="M340 1286v-1139h229q125 0 217 66q193 141 193 503t-193 507q-92 63 -217 63h-229zM600 0h-432v1434h432q158 0 287 -86q135 -98 201 -264t65 -368q0 -202 -67 -370q-68 -168 -198 -257t-288 -89zM332 1782h125l116 -180l119 180h125l-186 -250h-119z" />
    <glyph glyph-name="dcaron" unicode="&#x10f;" horiz-adv-x="1210" 
d="M543 942q-125 0 -209 -119t-84 -288t84 -291t207 -121q123 0 203 116q80 115 79 289q1 174 -77 294t-203 120zM815 1499h170v-1499h-143l-19 180q-90 -201 -317 -200q-184 0 -305 160t-121 391t122 393t304 161q217 0 309 -190v604zM1186 1499h129q0 -94 -29 -196
t-65 -160l-86 31q51 112 51 325z" />
    <glyph glyph-name="Dcroat" unicode="&#x110;" horiz-adv-x="1253" 
d="M346 1286v-518h252v-94h-252v-527h229q125 0 218 66q193 141 193 503t-193 507q-92 63 -218 63h-229zM606 0h-432v674h-158v94h158v666h432q158 0 287 -86q135 -98 201 -264t66 -368t-68 -370q-66 -168 -197 -257t-289 -89z" />
    <glyph glyph-name="dcroat" unicode="&#x111;" horiz-adv-x="1122" 
d="M543 942q-125 0 -209 -119t-84 -288t84 -291t207 -121q123 0 203 116q80 115 79 289q1 174 -77 294t-203 120zM815 1499h170v-192h131v-62h-131v-1245h-143l-19 180q-90 -201 -317 -200q-184 0 -305 160t-121 391t122 393t304 161q217 0 309 -190v350h-244v62h244v192z
" />
    <glyph glyph-name="Emacron" unicode="&#x112;" horiz-adv-x="1122" 
d="M168 1434h848v-148h-676v-514h584v-147h-584v-478h698v-147h-870v1434zM338 1665h526v-104h-526v104z" />
    <glyph glyph-name="emacron" unicode="&#x113;" horiz-adv-x="1015" 
d="M782 600q0 142 -62 242t-181 100t-198 -93t-87 -249h528zM78 522v19q0 231 128 388t322 157t300 -144q134 -180 110 -473h-684q8 -162 100 -254t224 -92t266 65l47 -122q-154 -86 -330 -86q-213 0 -348 154t-135 388zM264 1337h527v-104h-527v104z" />
    <glyph glyph-name="Ebreve" unicode="&#x114;" horiz-adv-x="1122" 
d="M168 1434h848v-148h-676v-514h584v-147h-584v-478h698v-147h-870v1434zM367 1774h75q20 -133 152 -134q66 0 100 32t47 102h78q-20 -229 -225 -230q-213 1 -227 230z" />
    <glyph glyph-name="ebreve" unicode="&#x115;" horiz-adv-x="1015" 
d="M782 600q0 142 -62 242t-181 100t-198 -93t-87 -249h528zM78 522v19q0 231 128 388t322 157t300 -144q134 -180 110 -473h-684q8 -162 100 -254t224 -92t266 65l47 -122q-154 -86 -330 -86q-213 0 -348 154t-135 388zM524 1307q66 -1 101 31t47 102h78
q-20 -229 -226 -230q-213 1 -227 230h76q20 -133 151 -133z" />
    <glyph glyph-name="Edotaccent" unicode="&#x116;" horiz-adv-x="1122" 
d="M168 1434h848v-148h-676v-514h584v-147h-584v-478h698v-147h-870v1434zM680 1626q0 -40 -27 -66t-65 -26t-64 26q-24 26 -24 65q0 40 26 67q27 26 65 26q37 0 63 -26t26 -66z" />
    <glyph glyph-name="edotaccent" unicode="&#x117;" horiz-adv-x="1015" 
d="M782 600q0 142 -62 242t-181 100t-198 -93t-87 -249h528zM78 522v19q0 231 128 388t322 157t300 -144q134 -180 110 -473h-684q8 -162 100 -254t224 -92t266 65l47 -122q-154 -86 -330 -86q-213 0 -348 154t-135 388zM540 1389q38 0 64 -26t25 -66q0 -41 -26 -67
q-25 -26 -65 -26t-64 26t-25 65q0 40 26 67q27 27 65 27z" />
    <glyph glyph-name="Eogonek" unicode="&#x118;" horiz-adv-x="1122" 
d="M168 1434h848v-148h-676v-514h584v-147h-584v-478h698v-147h-39q-59 -25 -90 -86t-30 -115q0 -86 75 -86l54 8l14 -59q-41 -27 -98 -27t-99 43q-41 43 -41 109q0 131 101 213h-717v1434z" />
    <glyph glyph-name="eogonek" unicode="&#x119;" horiz-adv-x="1015" 
d="M782 600q0 142 -62 242t-181 100t-198 -93t-87 -249h528zM78 522v19q0 231 128 388t322 157t300 -144q134 -180 110 -473h-684q8 -162 100 -254t224 -92t266 65l47 -122q-76 -41 -156 -62q-72 -61 -71 -205q0 -86 75 -86l54 8l14 -59q-41 -27 -98 -27t-99 43
q-41 43 -41 109q0 111 64 197q-49 -4 -72 -4q-213 0 -348 154t-135 388z" />
    <glyph glyph-name="Ecaron" unicode="&#x11a;" horiz-adv-x="1122" 
d="M168 1434h848v-148h-676v-514h584v-147h-584v-478h698v-147h-870v1434zM358 1782h125l117 -180l119 180h125l-187 -250h-118z" />
    <glyph glyph-name="ecaron" unicode="&#x11b;" horiz-adv-x="1015" 
d="M782 600q0 142 -62 242t-181 100t-198 -93t-87 -249h528zM78 522v19q0 231 128 388t322 157t300 -144q134 -180 110 -473h-684q8 -162 100 -254t224 -92t266 65l47 -122q-154 -86 -330 -86q-213 0 -348 154t-135 388zM291 1454h125l116 -180l119 180h125l-186 -250h-119z
" />
    <glyph glyph-name="Gcircumflex" unicode="&#x11c;" horiz-adv-x="1300" 
d="M743 1454q217 0 394 -115l-66 -127q-150 86 -321 86q-216 0 -350 -170t-134 -416t132 -411q132 -166 345 -166q168 0 297 135v320h-319v143h479v-526q-190 -227 -468 -227t-461 208q-183 209 -183 529q0 321 188 529t467 208zM635 1532h-125l180 250h119l186 -250h-125
l-118 180z" />
    <glyph glyph-name="gcircumflex" unicode="&#x11d;" horiz-adv-x="950" 
d="M238 -57q0 -158 240 -158t241 162q0 71 -42 99t-134 30q-176 2 -242 18q-63 -51 -63 -151zM475 950q-88 0 -143 -59q-56 -59 -56 -161t54 -162t145 -60q92 0 145 60q52 60 52 160t-54 162q-54 60 -143 60zM885 1065v-115l-131 -12q76 -88 76 -228t-93 -236
q-92 -97 -252 -97q-106 0 -163 31q-58 -42 -58 -88t14 -68q28 -42 195 -41h96q305 0 305 -266q0 -293 -391 -293q-137 0 -254 43q-67 25 -107 81t-40 138q0 135 121 233q-90 53 -90 157t100 177q-94 82 -94 245t101 261t265 98q72 0 142 -20h258zM367 1204h-125l180 250h119
l186 -250h-125l-119 180z" />
    <glyph glyph-name="Gbreve" unicode="&#x11e;" horiz-adv-x="1300" 
d="M743 1454q217 0 394 -115l-66 -127q-150 86 -321 86q-216 0 -350 -170t-134 -416t132 -411q132 -166 345 -166q168 0 297 135v320h-319v143h479v-526q-190 -227 -468 -227t-461 208q-183 209 -183 529q0 321 188 529t467 208zM506 1774h76q20 -133 151 -134q66 0 101 32
t47 102h77q-20 -229 -225 -230q-213 1 -227 230z" />
    <glyph glyph-name="gbreve" unicode="&#x11f;" horiz-adv-x="950" 
d="M238 -57q0 -158 240 -158t241 162q0 71 -42 99t-134 30q-176 2 -242 18q-63 -51 -63 -151zM475 950q-88 0 -143 -59q-56 -59 -56 -161t54 -162t145 -60q92 0 145 60q52 60 52 160t-54 162q-54 60 -143 60zM885 1065v-115l-131 -12q76 -88 76 -228t-93 -236
q-92 -97 -252 -97q-106 0 -163 31q-58 -42 -58 -88t14 -68q28 -42 195 -41h96q305 0 305 -266q0 -293 -391 -293q-137 0 -254 43q-67 25 -107 81t-40 138q0 135 121 233q-90 53 -90 157t100 177q-94 82 -94 245t101 261t265 98q72 0 142 -20h258zM475 1307q67 -1 101 31
t47 102h77q-20 -229 -225 -230q-213 1 -227 230h76q20 -133 151 -133z" />
    <glyph glyph-name="Gdotaccent" unicode="&#x120;" horiz-adv-x="1300" 
d="M743 1454q217 0 394 -115l-66 -127q-150 86 -321 86q-216 0 -350 -170t-134 -416t132 -411q132 -166 345 -166q168 0 297 135v320h-319v143h479v-526q-190 -227 -468 -227t-461 208q-183 209 -183 529q0 321 188 529t467 208zM727 1534q-39 0 -63 26t-25 65q0 40 27 67
q26 26 64 26t64 -26t26 -66t-28 -66q-26 -26 -65 -26z" />
    <glyph glyph-name="gdotaccent" unicode="&#x121;" horiz-adv-x="950" 
d="M238 -57q0 -158 240 -158t241 162q0 71 -42 99t-134 30q-176 2 -242 18q-63 -51 -63 -151zM475 950q-88 0 -143 -59q-56 -59 -56 -161t54 -162t145 -60q92 0 145 60q52 60 52 160t-54 162q-54 60 -143 60zM885 1065v-115l-131 -12q76 -88 76 -228t-93 -236
q-92 -97 -252 -97q-106 0 -163 31q-58 -42 -58 -88t14 -68q28 -42 195 -41h96q305 0 305 -266q0 -293 -391 -293q-137 0 -254 43q-67 25 -107 81t-40 138q0 135 121 233q-90 53 -90 157t100 177q-94 82 -94 245t101 261t265 98q72 0 142 -20h258zM468 1389q38 0 64 -26
t25 -66q0 -41 -27 -67q-28 -26 -66 -26t-62 26t-25 65q0 40 26 67q27 27 65 27z" />
    <glyph glyph-name="Gcommaaccent" unicode="&#x122;" horiz-adv-x="1300" 
d="M743 1454q217 0 394 -115l-66 -127q-150 86 -321 86q-216 0 -350 -170t-134 -416t132 -411q132 -166 345 -166q168 0 297 135v320h-319v143h479v-526q-190 -227 -468 -227t-461 208q-183 209 -183 529q0 321 188 529t467 208zM728 -170q40 0 64 -38t23 -93
q0 -129 -131 -207l-27 45q98 74 80 174q-5 -23 -31 -23t-42 19q-16 18 -16 48q0 31 20 53t60 22z" />
    <glyph glyph-name="gcommaaccent" unicode="&#x123;" horiz-adv-x="950" 
d="M238 -57q0 -158 240 -158t241 162q0 71 -42 99t-134 30q-176 2 -242 18q-63 -51 -63 -151zM475 950q-88 0 -143 -59q-56 -59 -56 -161t54 -162t145 -60q92 0 145 60q52 60 52 160t-54 162q-54 60 -143 60zM885 1065v-115l-131 -12q76 -88 76 -228t-93 -236
q-92 -97 -252 -97q-106 0 -163 31q-58 -42 -58 -88t14 -68q28 -42 195 -41h96q305 0 305 -266q0 -293 -391 -293q-137 0 -254 43q-67 25 -107 81t-40 138q0 135 121 233q-90 53 -90 157t100 177q-94 82 -94 245t101 261t265 98q72 0 142 -20h258zM498 1348q27 0 43 -18
t16 -49q-1 -31 -21 -53t-60 -22t-64 38t-23 93q0 129 131 207l27 -45q-98 -74 -80 -174q4 23 31 23z" />
    <glyph glyph-name="Hcircumflex" unicode="&#x124;" horiz-adv-x="1323" 
d="M168 1434h172v-643h643v643h172v-1434h-172v641h-643v-641h-172v1434zM549 1532h-125l180 250h119l186 -250h-125l-118 180z" />
    <glyph glyph-name="hcircumflex" unicode="&#x125;" horiz-adv-x="1056" 
d="M133 1499h168v-600q31 70 105 128t210 58t226 -111q90 -112 90 -333v-641h-170v653q0 137 -55 213t-163 76t-174 -97t-67 -224v-621h-170v1499zM96 1538h-125l181 250h118l187 -250h-125l-119 180z" />
    <glyph glyph-name="Hbar" unicode="&#x126;" horiz-adv-x="1323" 
d="M338 791h643v290h-643v-290zM166 1434h172v-267h643v267h172v-267h107v-86h-107v-1081h-172v641h-643v-641h-172v1081h-100v86h100v267z" />
    <glyph glyph-name="hbar" unicode="&#x127;" horiz-adv-x="1060" 
d="M137 1499h168v-192h248v-62h-248v-346q31 70 105 128t210 58t226 -111q90 -112 90 -333v-641h-170v653q0 137 -55 213t-163 76t-174 -97t-67 -224v-621h-170v1245h-133v62h133v192z" />
    <glyph glyph-name="Itilde" unicode="&#x128;" horiz-adv-x="505" 
d="M168 1434h172v-1434h-172v1434zM388 1649q46 0 93 67l43 -37q-68 -139 -170 -139q-50 0 -116 43t-113 43t-94 -63l-45 34q68 137 172 138q48 0 116 -43t114 -43z" />
    <glyph glyph-name="itilde" unicode="&#x129;" horiz-adv-x="458" 
d="M68 1065h254v-1065h-170v930l-84 22v113zM109 1411q47 0 115 -43t115 -43q46 0 93 68l43 -37q-68 -139 -170 -139q-51 0 -117 43q-66 42 -112 42t-94 -63l-45 35q68 137 172 137z" />
    <glyph glyph-name="Imacron" unicode="&#x12a;" horiz-adv-x="503" 
d="M166 1434h172v-1434h-172v1434zM-10 1665h524v-104h-524v104z" />
    <glyph glyph-name="imacron" unicode="&#x12b;" horiz-adv-x="460" 
d="M70 1065h254v-1065h-170v930l-84 22v113zM-55 1337h526v-104h-526v104z" />
    <glyph glyph-name="Ibreve" unicode="&#x12c;" horiz-adv-x="505" 
d="M168 1434h172v-1434h-172v1434zM27 1774h75q20 -133 152 -134q66 0 100 32t47 102h78q-20 -229 -225 -230q-213 1 -227 230z" />
    <glyph glyph-name="ibreve" unicode="&#x12d;" horiz-adv-x="456" 
d="M68 1065h254v-1065h-170v930l-84 22v113zM199 1307q67 -1 101 31t46 102h78q-20 -229 -225 -230q-214 1 -228 230h76q20 -133 152 -133z" />
    <glyph glyph-name="Iogonek" unicode="&#x12e;" horiz-adv-x="501" 
d="M164 1434h172v-1434q-70 -20 -102 -76t-31 -112q0 -98 84 -99q27 0 49 8l14 -59q-43 -27 -98 -27t-91 33q-36 34 -45 94q-10 60 14 128t75 110h-41v1434z" />
    <glyph glyph-name="iogonek" unicode="&#x12f;" horiz-adv-x="481" 
d="M111 1351q0 46 32 79q33 32 79 32t79 -32t33 -80q0 -47 -32 -79t-79 -32t-80 33q-32 33 -32 79zM70 1065h254v-1065q-49 -29 -74 -88t-25 -113q0 -86 76 -86l53 8l15 -59q-41 -27 -99 -27t-98 43q-41 43 -41 109q0 135 94 213h-71v930l-84 22v113z" />
    <glyph glyph-name="Idotaccent" unicode="&#x130;" horiz-adv-x="507" 
d="M168 1434h172v-1434h-172v1434zM255 1534q-41 0 -65 26t-24 65q0 40 27 67q27 26 65 26t63 -26t25 -66t-26 -66t-65 -26z" />
    <glyph glyph-name="dotlessi" unicode="&#x131;" horiz-adv-x="458" 
d="M70 1065h254v-1065h-170v930l-84 22v113z" />
    <glyph glyph-name="Jcircumflex" unicode="&#x134;" horiz-adv-x="892" 
d="M383 -20q-236 0 -363 233l103 86q96 -164 248 -164q111 0 164 77t53 198v1024h172v-975q0 -217 -98 -348t-279 -131zM563 1532h-125l180 250h119l187 -250h-125l-119 180z" />
    <glyph glyph-name="jcircumflex" unicode="&#x135;" horiz-adv-x="471" 
d="M94 1204h-125l181 250h118l187 -250h-125l-119 180zM69 -211q46 0 66 35t21 123v983l-84 22v113h254v-1110q0 -303 -224 -303q-78 0 -137 24l23 127q35 -14 81 -14z" />
    <glyph glyph-name="Kcommaaccent" unicode="&#x136;" horiz-adv-x="1130" 
d="M168 0v1434h172v-471l-4 -320l4 -2l557 793h190l-454 -639l489 -795h-192l-402 666l-188 -246v-420h-172zM510 -245q0 31 20 53t61 22q39 0 63 -38t24 -93q0 -129 -131 -207l-27 45q98 74 80 174q-4 -23 -31 -23t-43 19q-16 18 -16 48z" />
    <glyph glyph-name="kcommaaccent" unicode="&#x137;" horiz-adv-x="897" 
d="M137 1499h170v-602l-2 -352l2 -2l383 522h174l-350 -485l342 -580h-182l-256 449l-111 -142v-307h-170v1499zM448 -299q-26 0 -42 18t-16 48q0 31 20 53t60 22t64 -38t23 -93q0 -129 -131 -207l-27 45q98 74 80 175q-4 -23 -31 -23z" />
    <glyph glyph-name="kgreenlandic" unicode="&#x138;" horiz-adv-x="897" 
d="M137 1065h170l-2 -520l2 -2l383 522h174l-350 -485l342 -580h-182l-256 449l-111 -142v-307h-170v1065z" />
    <glyph glyph-name="Lacute" unicode="&#x139;" horiz-adv-x="1003" 
d="M168 1434h172v-1287h635v-147h-807v1434zM332 1862l119 -64l-132 -272h-114z" />
    <glyph glyph-name="lacute" unicode="&#x13a;" horiz-adv-x="477" 
d="M145 139v1360h170v-1313q-1 -41 11 -56t41 -15l55 6v-123q-55 -18 -127 -18t-111 44t-39 115zM305 1894l119 -63l-131 -272h-115z" />
    <glyph glyph-name="Lcommaaccent" unicode="&#x13b;" horiz-adv-x="1003" 
d="M168 1434h172v-1287h635v-147h-807v1434zM502 -245q0 31 20 53t60 22t64 -38t24 -93q0 -129 -131 -207l-27 45q98 74 80 174q-4 -23 -31 -23t-43 19q-16 18 -16 48z" />
    <glyph glyph-name="lcommaaccent" unicode="&#x13c;" horiz-adv-x="481" 
d="M145 139v1360h170v-1313q-1 -41 11 -56t41 -15l55 6v-123q-55 -18 -127 -18t-111 44t-39 115zM271 -170q40 0 64 -38t23 -93q0 -129 -131 -207l-26 45q98 74 80 174q-4 -23 -31 -23t-43 19q-17 18 -17 48q0 31 20 53t61 22z" />
    <glyph glyph-name="Lcaron" unicode="&#x13d;" horiz-adv-x="1007" 
d="M168 1434h172v-1287h635v-147h-807v1434zM629 1434h129q0 -94 -29 -196t-65 -161l-86 31q51 113 51 326z" />
    <glyph glyph-name="lcaron" unicode="&#x13e;" horiz-adv-x="550" 
d="M145 139v1360h170v-1313q-1 -41 11 -56t41 -15l55 6v-123q-55 -18 -127 -18t-111 44t-39 115zM516 1499h129q0 -94 -29 -196t-65 -160l-86 31q51 112 51 325z" />
    <glyph glyph-name="Lslash" unicode="&#x141;" horiz-adv-x="1011" 
d="M190 1434h172v-676l271 184v-86l-271 -184v-525h601v-147h-773v553l-178 -121v86l178 121v795z" />
    <glyph glyph-name="lslash" unicode="&#x142;" horiz-adv-x="571" 
d="M168 139v420l-154 -104v133l154 104v807h170v-692l211 145v-133l-211 -145v-488q0 -41 11 -56t40 -15l55 6v-123q-55 -18 -127 -18q-73 0 -111 44t-38 115z" />
    <glyph glyph-name="Nacute" unicode="&#x143;" horiz-adv-x="1296" 
d="M168 1434h180l613 -1141h2l-7 442v699h172v-1434h-182l-610 1151h-2l6 -516v-635h-172v1434zM705 1862l118 -64l-131 -272h-114z" />
    <glyph glyph-name="nacute" unicode="&#x144;" horiz-adv-x="1062" 
d="M137 1065h135l29 -174q24 59 74 105q96 91 238 90t233 -112q90 -112 90 -333v-641h-170v653q0 137 -56 213t-164 76t-174 -97t-65 -224v-621h-170v1065zM580 1534l118 -64l-131 -272h-114z" />
    <glyph glyph-name="Ncommaaccent" unicode="&#x145;" horiz-adv-x="1296" 
d="M168 1434h180l613 -1141h2l-7 442v699h172v-1434h-182l-610 1151h-2l6 -516v-635h-172v1434zM648 -170q40 0 64 -38t23 -93q0 -129 -131 -207l-26 45q98 74 79 174q-5 -23 -31 -23t-42 19q-16 18 -16 48q0 31 20 53t60 22z" />
    <glyph glyph-name="ncommaaccent" unicode="&#x146;" horiz-adv-x="1062" 
d="M137 1065h135l29 -174q24 59 74 105q96 91 238 90t233 -112q90 -112 90 -333v-641h-170v653q0 137 -56 213t-164 76t-174 -97t-65 -224v-621h-170v1065zM469 -245q1 31 21 53t60 22t64 -38t23 -93q0 -129 -131 -207l-27 45q98 74 80 174q-4 -23 -31 -23t-43 19
q-16 18 -16 48z" />
    <glyph glyph-name="Ncaron" unicode="&#x147;" horiz-adv-x="1296" 
d="M168 1434h180l613 -1141h2l-7 442v699h172v-1434h-182l-610 1151h-2l6 -516v-635h-172v1434zM420 1782h125l117 -180l118 180h125l-186 -250h-119z" />
    <glyph glyph-name="ncaron" unicode="&#x148;" horiz-adv-x="1062" 
d="M137 1065h135l29 -174q24 59 74 105q96 91 238 90t233 -112q90 -112 90 -333v-641h-170v653q0 137 -56 213t-164 76t-174 -97t-65 -224v-621h-170v1065zM293 1454h125l117 -180l118 180h125l-186 -250h-119z" />
    <glyph glyph-name="Eng" unicode="&#x14a;" horiz-adv-x="1302" 
d="M1137 1434v-1438q0 -221 -133 -281q-61 -27 -164 -43l-25 107q76 25 112 65t36 111v43l-627 1153h-2l6 -539v-612h-172v1434h186l617 -1129h2l-8 537v592h172z" />
    <glyph glyph-name="eng" unicode="&#x14b;" horiz-adv-x="1062" 
d="M137 1065h135l29 -174q29 68 102 131t213 63q140 -1 230 -111t90 -333v-649q0 -143 -74 -219t-217 -105l-29 107q76 27 113 63t37 103v712q0 137 -55 213t-163 76t-172 -97t-69 -224v-621h-170v1065z" />
    <glyph glyph-name="Omacron" unicode="&#x14c;" horiz-adv-x="1437" 
d="M266 715q0 -252 126 -416t329 -164t328 164t125 415t-127 418q-127 166 -326 166t-327 -166t-128 -417zM1350 719q0 -319 -172 -529t-457 -208q-285 0 -458 209t-173 529t175 526q175 208 455 208t455 -208t175 -527zM459 1665h524v-104h-524v104z" />
    <glyph glyph-name="omacron" unicode="&#x14d;" horiz-adv-x="1097" 
d="M246 533q0 -181 82 -295t221 -115q139 0 221 115q82 116 82 296t-82 294t-221 114t-221 -114t-82 -295zM1022 532q0 -244 -132 -398t-341 -154t-341 154t-132 398t133 399t340 155t340 -156q133 -154 133 -398zM285 1337h526v-104h-526v104z" />
    <glyph glyph-name="Obreve" unicode="&#x14e;" horiz-adv-x="1437" 
d="M266 715q0 -252 126 -416t329 -164t328 164t125 415t-127 418q-127 166 -326 166t-327 -166t-128 -417zM1350 719q0 -319 -172 -529t-457 -208q-285 0 -458 209t-173 529t175 526q175 208 455 208t455 -208t175 -527zM492 1774h75q20 -133 152 -134q67 0 101 32t46 102
h78q-20 -229 -225 -230q-213 1 -227 230z" />
    <glyph glyph-name="obreve" unicode="&#x14f;" horiz-adv-x="1097" 
d="M246 533q0 -181 82 -295t221 -115q139 0 221 115q82 116 82 296t-82 294t-221 114t-221 -114t-82 -295zM1022 532q0 -244 -132 -398t-341 -154t-341 154t-132 398t133 399t340 155t340 -156q133 -154 133 -398zM553 1307q67 -1 101 31t46 102h78q-20 -229 -225 -230
q-213 1 -227 230h75q20 -133 152 -133z" />
    <glyph glyph-name="Ohungarumlaut" unicode="&#x150;" horiz-adv-x="1437" 
d="M266 715q0 -252 126 -416t329 -164t328 164t125 415t-127 418q-127 166 -326 166t-327 -166t-128 -417zM1350 719q0 -319 -172 -529t-457 -208q-285 0 -458 209t-173 529t175 526q175 208 455 208t455 -208t175 -527zM911 1862l119 -64l-131 -272h-115zM659 1862l119 -64
l-131 -272h-115z" />
    <glyph glyph-name="ohungarumlaut" unicode="&#x151;" horiz-adv-x="1097" 
d="M246 533q0 -181 82 -295t221 -115q139 0 221 115q82 116 82 296t-82 294t-221 114t-221 -114t-82 -295zM1022 532q0 -244 -132 -398t-341 -154t-341 154t-132 398t133 399t340 155t340 -156q133 -154 133 -398zM737 1534l119 -64l-131 -272h-115zM485 1534l119 -64
l-131 -272h-115z" />
    <glyph glyph-name="OE" unicode="&#x152;" horiz-adv-x="2129" 
d="M266 715q0 -252 126 -416t328 -164t328 167t126 439q-8 240 -134 399q-126 158 -322 158t-324 -166t-128 -417zM1174 1434h847v-148h-675v-514h583v-147h-583v-478h698v-147h-870v199q-170 -219 -454 -218t-457 209t-173 529q0 319 175 527t456 208t453 -221v201z" />
    <glyph glyph-name="oe" unicode="&#x153;" horiz-adv-x="1781" 
d="M1657 600q-1 142 -63 242t-181 100t-198 -93t-87 -249h529zM537 942q-139 0 -221 -114t-83 -295q0 -181 82 -295q81 -114 221 -115q140 0 222 115q82 116 82 296t-82 294t-221 114zM537 1085q159 0 277 -93t165 -255q47 158 162 253t266 95q191 0 297 -143
q137 -183 108 -473h-684q8 -162 100 -254t224 -92q131 0 266 65l47 -122q-153 -86 -323 -86t-292 94t-171 250q-47 -160 -165 -252t-277 -92q-209 0 -341 154t-132 398t132 398q134 154 341 155z" />
    <glyph glyph-name="Racute" unicode="&#x154;" horiz-adv-x="1185" 
d="M340 1286v-536h309q119 0 194 74t75 192t-70 194t-199 76h-309zM168 1434h498q200 0 308 -117t107 -297q0 -274 -260 -383l303 -637h-178l-289 604h-317v-604h-172v1434zM580 1862l118 -64l-131 -272h-114z" />
    <glyph glyph-name="racute" unicode="&#x155;" horiz-adv-x="618" 
d="M137 1065h133l23 -207q20 76 91 146t189 71v-160q-125 0 -195 -88t-71 -245v-582h-170v1065zM391 1534l119 -64l-131 -272h-115z" />
    <glyph glyph-name="Rcommaaccent" unicode="&#x156;" horiz-adv-x="1185" 
d="M340 1286v-536h309q119 0 194 74t75 192t-70 194t-199 76h-309zM168 1434h498q200 0 308 -117t107 -297q0 -274 -260 -383l303 -637h-178l-289 604h-317v-604h-172v1434zM601 -170q40 0 64 -38t23 -93q0 -129 -131 -207l-27 45q98 74 80 174q-4 -23 -30 -23t-43 19
q-17 18 -17 48q0 31 20 53t61 22z" />
    <glyph glyph-name="rcommaaccent" unicode="&#x157;" horiz-adv-x="618" 
d="M137 1065h133l23 -207q20 76 91 146t189 71v-160q-125 0 -195 -88t-71 -245v-582h-170v1065zM224 -170q40 0 64 -38t23 -93q0 -129 -131 -207l-26 45q98 74 79 174q-5 -23 -31 -23t-42 19q-16 18 -16 48q0 31 20 53t60 22z" />
    <glyph glyph-name="Rcaron" unicode="&#x158;" horiz-adv-x="1185" 
d="M340 1286v-536h309q119 0 194 74t75 192t-70 194t-199 76h-309zM168 1434h498q200 0 308 -117t107 -297q0 -274 -260 -383l303 -637h-178l-289 604h-317v-604h-172v1434zM305 1782h125l117 -180l119 180h125l-187 -250h-119z" />
    <glyph glyph-name="rcaron" unicode="&#x159;" horiz-adv-x="618" 
d="M135 1065h133l23 -207q20 76 91 146t189 71v-160q-125 0 -195 -88t-71 -245v-582h-170v1065zM115 1454h125l116 -180l119 180h125l-186 -250h-119z" />
    <glyph glyph-name="Sacute" unicode="&#x15a;" horiz-adv-x="1038" 
d="M954 369q0 -195 -122 -292t-332 -97q-209 0 -418 106l53 131q187 -88 341 -88t229 67q73 67 73 162t-51 154t-127 89t-166 70t-166 81t-127 124t-51 199q0 183 118 281t322 98t379 -88l-49 -125q-37 22 -142 45q-106 22 -173 23q-129 0 -204 -65t-75 -161t51 -154
t127 -87t166 -67t166 -78t127 -125t51 -203zM557 1862l119 -64l-131 -272h-115z" />
    <glyph glyph-name="sacute" unicode="&#x15b;" horiz-adv-x="825" 
d="M404 -20q-166 0 -322 81l39 121q156 -72 280 -71q193 0 193 165q0 78 -45 113t-109 57q-114 41 -177 71q-184 87 -181 267q0 146 96 224t249 78t292 -68l-41 -117q-126 53 -230 53t-154 -42t-50 -117t58 -114q40 -28 126 -60t126 -51t95 -58q107 -76 107 -227t-93 -228
t-259 -77zM463 1534l119 -64l-131 -272h-115z" />
    <glyph glyph-name="Scircumflex" unicode="&#x15c;" horiz-adv-x="1038" 
d="M954 369q0 -195 -122 -292t-332 -97q-209 0 -418 106l53 131q187 -88 341 -88t229 67q73 67 73 162t-51 154t-127 89t-166 70t-166 81t-127 124t-51 199q0 183 118 281t322 98t379 -88l-49 -125q-37 22 -142 45q-106 22 -173 23q-129 0 -204 -65t-75 -161t51 -154
t127 -87t166 -67t166 -78t127 -125t51 -203zM406 1532h-125l180 250h119l186 -250h-125l-119 180z" />
    <glyph glyph-name="scircumflex" unicode="&#x15d;" horiz-adv-x="825" 
d="M404 -20q-166 0 -322 81l39 121q156 -72 280 -71q193 0 193 165q0 78 -45 113t-109 57q-114 41 -177 71q-184 87 -181 267q0 146 96 224t249 78t292 -68l-41 -117q-126 53 -230 53t-154 -42t-50 -117t58 -114q40 -28 126 -60t126 -51t95 -58q107 -76 107 -227t-93 -228
t-259 -77zM299 1204h-125l180 250h119l186 -250h-124l-119 180z" />
    <glyph glyph-name="Scedilla" unicode="&#x15e;" horiz-adv-x="1038" 
d="M476 129q154 0 229 67q73 67 73 162t-51 154t-127 89t-166 70t-166 81t-127 124t-51 199q0 183 118 281t322 98t379 -88l-49 -125q-37 22 -142 45q-106 22 -173 23q-129 0 -204 -65t-75 -161t51 -154t127 -87t166 -67t166 -78t127 -125t51 -203q0 -186 -114 -285
q-115 -98 -301 -104l-25 -107q10 2 25 2q55 0 95 -37q40 -36 40 -102t-48 -107t-120 -41t-139 23l18 70q66 -16 92 -17q92 0 92 78q0 70 -80 72l-34 -4l-29 38l39 134q-199 10 -383 104l53 131q187 -88 341 -88z" />
    <glyph glyph-name="scedilla" unicode="&#x15f;" horiz-adv-x="827" 
d="M596 276q0 78 -45 113t-109 57q-114 41 -177 71q-119 57 -157 145q-24 53 -24 122q0 146 96 224t249 78t292 -68l-41 -117q-126 53 -230 53t-154 -42t-50 -117t58 -114q40 -28 126 -60t126 -51t95 -58q107 -76 107 -226t-91 -226t-239 -80l-25 -107q10 2 25 2
q53 0 94 -37q41 -36 41 -102t-48 -107t-120 -41t-139 23l18 70q66 -16 95 -17q90 0 90 78q0 33 -22 52t-58 20l-35 -4l-29 38l43 136q-160 14 -274 77l39 121q156 -72 280 -71q193 0 193 165z" />
    <glyph glyph-name="Scaron" unicode="&#x160;" horiz-adv-x="1038" 
d="M954 369q0 -195 -122 -292t-332 -97q-209 0 -418 106l53 131q187 -88 341 -88t229 67q73 67 73 162t-51 154t-127 89t-166 70t-166 81t-127 124t-51 199q0 183 118 281t322 98t379 -88l-49 -125q-37 22 -142 45q-106 22 -173 23q-129 0 -204 -65t-75 -161t51 -154
t127 -87t166 -67t166 -78t127 -125t51 -203zM287 1782h125l116 -180l119 180h125l-186 -250h-119z" />
    <glyph glyph-name="scaron" unicode="&#x161;" horiz-adv-x="825" 
d="M404 -20q-166 0 -322 81l39 121q156 -72 280 -71q193 0 193 165q0 78 -45 113t-109 57q-114 41 -177 71q-184 87 -181 267q0 146 96 224t249 78t292 -68l-41 -117q-126 53 -230 53t-154 -42t-50 -117t58 -114q40 -28 126 -60t126 -51t95 -58q107 -76 107 -227t-93 -228
t-259 -77zM176 1454h125l117 -180l119 180h125l-187 -250h-119z" />
    <glyph glyph-name="Tcommaaccent" unicode="&#x162;" horiz-adv-x="1032" 
d="M25 1434h983v-148h-406v-1286h-170v1286h-407v148zM517 -170q40 0 64 -38t23 -93q0 -129 -131 -207l-27 45q98 74 80 174q-4 -23 -30 -23t-43 19q-17 18 -17 48q0 31 20 53t61 22z" />
    <glyph glyph-name="tcommaaccent" unicode="&#x163;" horiz-adv-x="628" 
d="M338 1372v-307h223v-121h-223v-643q0 -106 24 -148t95 -42q33 0 102 18l6 -115q-76 -35 -157 -34q-137 0 -189 74q-51 75 -51 253v637h-129v103l129 16l27 309h143zM353 -170q40 0 64 -38t23 -93q0 -129 -131 -207l-26 45q98 74 79 174q-4 -23 -30 -23t-43 19
q-17 18 -17 48q0 31 20 53t61 22z" />
    <glyph glyph-name="Tcaron" unicode="&#x164;" horiz-adv-x="1032" 
d="M25 1434h983v-148h-406v-1286h-170v1286h-407v148zM276 1782h125l117 -180l119 180h125l-187 -250h-118z" />
    <glyph glyph-name="tcaron" unicode="&#x165;" horiz-adv-x="628" 
d="M338 1372v-307h223v-121h-223v-643q0 -106 24 -148t95 -42q33 0 102 18l6 -115q-76 -35 -157 -34q-137 0 -189 74q-51 75 -51 253v637h-129v103l129 16l27 309h143zM539 1552h129q0 -94 -29 -196t-66 -160l-86 31q52 112 52 325z" />
    <glyph glyph-name="Tbar" unicode="&#x166;" horiz-adv-x="1032" 
d="M25 1434h983v-148h-406v-510h285v-92h-285v-684h-170v684h-282v92h282v510h-407v148z" />
    <glyph glyph-name="tbar" unicode="&#x167;" horiz-adv-x="632" 
d="M342 1372v-307h223v-121h-223v-194h215v-70h-215v-379q0 -106 24 -148t95 -42q33 0 102 18l6 -115q-76 -35 -157 -34q-137 0 -189 74q-51 75 -51 253v373h-127v70h127v194h-129v103l129 16l27 309h143z" />
    <glyph glyph-name="Utilde" unicode="&#x168;" horiz-adv-x="1255" 
d="M154 1434h172v-975q0 -143 84 -233t219 -91q135 0 218 91t83 233v975h172v-965q0 -217 -128 -353t-348 -136t-346 138t-126 351v965zM767 1651q46 0 93 67l43 -37q-68 -139 -170 -139q-53 0 -119 43t-112 43t-92 -63l-45 34q68 137 172 138q47 0 115 -43t115 -43z" />
    <glyph glyph-name="utilde" unicode="&#x169;" horiz-adv-x="1058" 
d="M127 1065h170v-649q0 -293 213 -293q121 0 182 87t62 216v639h170v-1065h-133l-29 154q-33 -70 -109 -122q-75 -52 -209 -52t-226 98q-91 98 -91 315v672zM434 1411q47 0 116 -43q68 -43 114 -43t94 68l43 -37q-68 -139 -170 -139q-53 0 -119 43q-66 42 -112 42t-93 -63
l-45 35q68 137 172 137z" />
    <glyph glyph-name="Umacron" unicode="&#x16a;" horiz-adv-x="1255" 
d="M154 1434h172v-975q0 -143 84 -233t219 -91q135 0 218 91t83 233v975h172v-965q0 -217 -128 -353t-348 -136t-346 138t-126 351v965zM365 1665h526v-104h-526v104z" />
    <glyph glyph-name="umacron" unicode="&#x16b;" horiz-adv-x="1058" 
d="M127 1065h170v-649q0 -293 213 -293q121 0 182 87t62 216v639h170v-1065h-133l-29 154q-33 -70 -109 -122q-75 -52 -209 -52t-226 98q-91 98 -91 315v672zM260 1337h526v-104h-526v104z" />
    <glyph glyph-name="Ubreve" unicode="&#x16c;" horiz-adv-x="1255" 
d="M154 1434h172v-975q0 -143 84 -233t219 -91q135 0 218 91t83 233v975h172v-965q0 -217 -128 -353t-348 -136t-346 138t-126 351v965zM403 1774h76q20 -133 152 -134q67 0 101 32t46 102h78q-20 -229 -225 -230q-214 1 -228 230z" />
    <glyph glyph-name="ubreve" unicode="&#x16d;" horiz-adv-x="1058" 
d="M127 1065h170v-649q0 -293 213 -293q121 0 182 87t62 216v639h170v-1065h-133l-29 154q-33 -70 -109 -122q-75 -52 -209 -52t-226 98q-91 98 -91 315v672zM526 1307q66 -1 101 31t47 102h78q-20 -229 -226 -230q-213 1 -227 230h76q20 -133 151 -133z" />
    <glyph glyph-name="Uring" unicode="&#x16e;" horiz-adv-x="1255" 
d="M154 1434h172v-975q0 -143 84 -233t219 -91q135 0 218 91t83 233v975h172v-965q0 -217 -128 -353t-348 -136t-346 138t-126 351v965zM631 1792q-43 0 -65 -26t-22 -64t22 -64q22 -25 65 -24q84 0 84 89t-84 89zM631 1538q-74 0 -123 46t-49 118t49 119t122 47t122 -47
t49 -119t-48 -118t-122 -46z" />
    <glyph glyph-name="uring" unicode="&#x16f;" horiz-adv-x="1058" 
d="M127 1065h170v-649q0 -293 213 -293q121 0 182 87t62 216v639h170v-1065h-133l-29 154q-33 -70 -109 -122q-75 -52 -209 -52t-226 98q-91 98 -91 315v672zM530 1470q-42 0 -64 -26t-22 -64q0 -40 22 -64t64 -24q84 0 84 89t-84 89zM530 1217q-74 0 -122 46
q-48 45 -50 117q0 72 50 119t122 47t121 -47t49 -119t-48 -118t-122 -45z" />
    <glyph glyph-name="Uhungarumlaut" unicode="&#x170;" horiz-adv-x="1255" 
d="M154 1434h172v-975q0 -143 84 -233t219 -91q135 0 218 91t83 233v975h172v-965q0 -217 -128 -353t-348 -136t-346 138t-126 351v965zM813 1862l119 -64l-131 -272h-115zM561 1862l119 -64l-131 -272h-115z" />
    <glyph glyph-name="uhungarumlaut" unicode="&#x171;" horiz-adv-x="1058" 
d="M127 1065h170v-649q0 -293 213 -293q121 0 182 87t62 216v639h170v-1065h-133l-29 154q-33 -70 -109 -122q-75 -52 -209 -52t-226 98q-91 98 -91 315v672zM711 1534l118 -64l-131 -272h-114zM459 1534l119 -64l-132 -272h-114z" />
    <glyph glyph-name="Uogonek" unicode="&#x172;" horiz-adv-x="1255" 
d="M154 1434h172v-975q0 -143 84 -233t219 -91q135 0 218 91t83 233v975h172v-965q0 -164 -75 -285t-210 -172q-47 -34 -76 -108t-28 -125q0 -86 75 -86l54 8l14 -59q-41 -27 -98 -27t-99 44q-41 44 -41 110q0 111 78 215q-45 -4 -67 -4q-223 0 -349 138t-126 351v965z" />
    <glyph glyph-name="uogonek" unicode="&#x173;" horiz-adv-x="1058" 
d="M127 1065h170v-649q0 -293 213 -293q123 0 183 88t61 215v639h170v-1065q-121 -63 -121 -201q0 -86 76 -86l53 8l14 -59q-41 -27 -98 -27t-98 43t-41 109q0 131 106 213h-24l-29 154q-104 -174 -309 -174q-145 0 -236 98q-90 98 -90 315v672z" />
    <glyph glyph-name="Wcircumflex" unicode="&#x174;" horiz-adv-x="1789" 
d="M780 1434h205l268 -1203l273 1203h180l-342 -1438h-221l-262 1173l-263 -1173h-221l-344 1438h187l270 -1203zM764 1532h-125l180 250h119l186 -250h-125l-118 180z" />
    <glyph glyph-name="wcircumflex" unicode="&#x175;" horiz-adv-x="1484" 
d="M657 1065h164l215 -850l224 850h157l-284 -1065h-195l-199 803l-194 -803h-197l-282 1065h157l226 -850zM625 1204h-125l180 250h119l186 -250h-125l-119 180z" />
    <glyph glyph-name="Ycircumflex" unicode="&#x176;" horiz-adv-x="1075" 
d="M623 0h-168v584l-435 850h187l332 -691h4l327 691h181l-428 -850v-584zM424 1532h-125l180 250h119l186 -250h-125l-118 180z" />
    <glyph glyph-name="ycircumflex" unicode="&#x177;" horiz-adv-x="978" 
d="M57 1065h181l260 -854l245 854h179l-439 -1413h-174l99 328zM381 1204h-125l180 250h119l186 -250h-125l-118 180z" />
    <glyph glyph-name="Ydieresis" unicode="&#x178;" horiz-adv-x="1075" 
d="M623 0h-168v584l-435 850h187l332 -691h4l327 691h181l-428 -850v-584zM349 1536q-41 0 -65 26t-24 65q0 40 27 67q27 26 65 26t63 -26t25 -65q0 -41 -26 -67t-65 -26zM722 1536q-38 0 -62 26t-25 65q0 40 27 67q26 26 64 26t64 -26t26 -65q0 -41 -28 -67t-66 -26z" />
    <glyph glyph-name="Zacute" unicode="&#x179;" horiz-adv-x="1071" 
d="M1001 1434v-119l-727 -1168l2 -4l265 4h452v-147h-934v119l725 1167l-4 4l-264 -4h-432l2 148h915zM586 1860l119 -64l-132 -272h-114z" />
    <glyph glyph-name="zacute" unicode="&#x17a;" horiz-adv-x="886" 
d="M84 1065h729v-131l-549 -789l4 -8l246 2h299v-139h-754v127l557 797l-2 6l-286 -4h-244v139zM485 1534l119 -64l-131 -272h-115z" />
    <glyph glyph-name="Zdotaccent" unicode="&#x17b;" horiz-adv-x="1071" 
d="M1001 1434v-119l-727 -1168l2 -4l265 4h452v-147h-934v119l725 1167l-4 4l-264 -4h-432l2 148h915zM526 1534q-40 0 -64 26t-24 65q0 40 27 67q27 26 65 26t63 -26t25 -66t-26 -66t-66 -26z" />
    <glyph glyph-name="zdotaccent" unicode="&#x17c;" horiz-adv-x="886" 
d="M84 1065h729v-131l-549 -789l4 -8l246 2h299v-139h-754v127l557 797l-2 6l-286 -4h-244v139zM444 1204q-40 0 -64 26t-24 65q0 40 27 67t65 27t63 -26q26 -26 26 -66q0 -41 -27 -67t-66 -26z" />
    <glyph glyph-name="Zcaron" unicode="&#x17d;" horiz-adv-x="1071" 
d="M1001 1434v-119l-727 -1168l2 -4l265 4h452v-147h-934v119l725 1167l-4 4l-264 -4h-432l2 148h915zM307 1782h125l117 -180l119 180h125l-187 -250h-119z" />
    <glyph glyph-name="zcaron" unicode="&#x17e;" horiz-adv-x="886" 
d="M84 1065h729v-131l-549 -789l4 -8l246 2h299v-139h-754v127l557 797l-2 6l-286 -4h-244v139zM209 1454h125l117 -180l118 180h125l-186 -250h-119z" />
    <glyph glyph-name="AEacute" unicode="&#x1fc;" horiz-adv-x="1646" 
d="M758 1286h-66l-293 -756h359v756zM1606 1434v-148h-676v-514h583v-147h-583v-478h698v-147h-870v391h-412l-149 -391h-181l580 1434h1010zM1092 1862l118 -64l-131 -272h-114z" />
    <glyph glyph-name="aeacute" unicode="&#x1fd;" horiz-adv-x="1607" 
d="M1423 600q0 142 -62 242t-188 100q-127 0 -213 -93t-94 -249h557zM489 518q-260 0 -260 -209q1 -98 55 -148t152 -50q201 -1 289 206q-35 92 -35 183q-111 18 -201 18zM498 1085q262 0 329 -170q133 170 335 170t308 -143q133 -180 109 -473h-713q8 -162 108 -254
t259 -92q117 0 252 65l47 -122q-154 -86 -330 -86q-272 0 -411 206q-133 -207 -381 -206q-160 0 -255 82t-95 249q0 166 110 251q111 85 287 85q102 0 237 -22l6 37v55q0 131 -57 179t-182 48t-281 -47l-33 129q178 59 351 59zM842 1534l119 -64l-132 -272h-114z" />
    <glyph glyph-name="Oslashacute" unicode="&#x1fe;" horiz-adv-x="1437" 
d="M764 1862l119 -64l-131 -272h-115zM1174 721q0 258 -140 424l-526 -952q96 -57 213 -58q203 0 328 164t125 422zM266 702q0 -266 144 -428l528 959q-102 66 -217 65q-199 0 -327 -166q-128 -164 -128 -430zM90 717q0 321 175 529t456 208q160 0 297 -78l65 119h144
l-107 -192q229 -213 230 -586q0 -319 -171 -529t-458 -208q-168 4 -291 71l-65 -119h-144l105 191q-113 100 -174 255q-62 155 -62 339z" />
    <glyph glyph-name="oslashacute" unicode="&#x1ff;" horiz-adv-x="1097" 
d="M573 1534l119 -64l-131 -272h-115zM246 533q0 -181 78 -289l366 659q-66 39 -141 39q-139 0 -221 -114t-82 -295zM549 123q139 1 221 115t82 291t-78 294l-366 -661q66 -39 141 -39zM1022 548q0 -260 -132 -414t-341 -154q-117 0 -213 51l-60 -107h-129l95 172
q-166 156 -166 418t133 417t340 154q117 0 213 -53l59 109h129l-96 -174q168 -159 168 -419z" />
    <glyph glyph-name="Scommaaccent" unicode="&#x218;" horiz-adv-x="1038" 
d="M954 369q0 -195 -122 -292t-332 -97q-209 0 -418 106l53 131q187 -88 341 -88t229 67q73 67 73 162t-51 154t-127 89t-166 70t-166 81t-127 124t-51 199q0 183 118 281t322 98t379 -88l-49 -125q-37 22 -142 45q-106 22 -173 23q-129 0 -204 -65t-75 -161t51 -154
t127 -87t166 -67t166 -78t127 -125t51 -203zM451 -245q0 31 20 53t60 22t64 -38t23 -93q0 -129 -131 -207l-26 45q98 74 80 174q-4 -23 -31 -23t-43 19q-16 18 -16 48z" />
    <glyph glyph-name="scommaaccent" unicode="&#x219;" horiz-adv-x="825" 
d="M404 -20q-166 0 -322 81l39 121q156 -72 280 -71q193 0 193 165q0 78 -45 113t-109 57q-114 41 -177 71q-184 87 -181 267q0 146 96 224t249 78t292 -68l-41 -117q-126 53 -230 53t-154 -42t-50 -117t58 -114q40 -28 126 -60t126 -51t95 -58q107 -76 107 -227t-93 -228
t-259 -77zM429 -170q40 0 64 -38t23 -93q0 -129 -131 -207l-27 45q98 74 80 174q-4 -23 -30 -23t-43 19q-17 18 -17 48q0 31 20 53t61 22z" />
    <glyph glyph-name="circumflex" unicode="&#x2c6;" horiz-adv-x="819" 
d="M283 1278h-125l180 250h119l186 -250h-125l-119 180z" />
    <glyph glyph-name="caron" unicode="&#x2c7;" horiz-adv-x="821" 
d="M168 1522h125l117 -181l118 181h125l-186 -250h-119z" />
    <glyph glyph-name="breve" unicode="&#x2d8;" horiz-adv-x="741" 
d="M145 1477h76q20 -133 152 -134q67 0 101 32t46 102h78q-20 -229 -225 -230q-214 1 -228 230z" />
    <glyph glyph-name="dotaccent" unicode="&#x2d9;" horiz-adv-x="468" 
d="M326 1470q0 -40 -26 -66t-66 -26t-64 26t-25 65q0 40 27 67q26 27 64 27t64 -26t26 -67z" />
    <glyph glyph-name="ring" unicode="&#x2da;" horiz-adv-x="593" 
d="M299 1444q-35 0 -61 -30t-27 -75q0 -45 26 -73q27 -28 63 -29q36 0 60 29q24 28 23 74t-25 75t-59 29zM298 1511q62 0 108 -48t47 -123q0 -74 -46 -122q-47 -48 -109 -48t-108 47q-46 48 -47 123q0 75 47 123q46 48 108 48z" />
    <glyph glyph-name="ogonek" unicode="&#x2db;" horiz-adv-x="524" 
d="M143 -198q0 76 48 142q48 68 124 99l21 -43q-51 -29 -75 -86t-23 -111q0 -86 75 -86l54 9l14 -60q-41 -26 -98 -26t-99 43q-41 43 -41 119z" />
    <glyph glyph-name="tilde" unicode="&#x2dc;" horiz-adv-x="825" 
d="M548 1352q46 0 93 67l43 -37q-68 -139 -170 -139q-51 0 -117 43t-113 43t-94 -63l-45 34q68 137 172 138q47 0 116 -43t115 -43z" />
    <glyph glyph-name="hungarumlaut" unicode="&#x2dd;" horiz-adv-x="753" 
d="M506 1534l119 -64l-131 -272h-115zM254 1534l119 -64l-131 -272h-115z" />
    <glyph glyph-name="Wgrave" unicode="&#x1e80;" horiz-adv-x="1789" 
d="M780 1434h205l268 -1203l273 1203h180l-342 -1438h-221l-262 1173l-263 -1173h-221l-344 1438h187l270 -1203zM698 1798l119 64l127 -336h-115z" />
    <glyph glyph-name="wgrave" unicode="&#x1e81;" horiz-adv-x="1484" 
d="M657 1065h164l215 -850l224 850h157l-284 -1065h-195l-199 803l-194 -803h-197l-282 1065h157l226 -850zM551 1470l119 64l127 -336h-115z" />
    <glyph glyph-name="Wacute" unicode="&#x1e82;" horiz-adv-x="1789" 
d="M780 1434h205l268 -1203l273 1203h180l-342 -1438h-221l-262 1173l-263 -1173h-221l-344 1438h187l270 -1203zM987 1860l119 -64l-131 -272h-115z" />
    <glyph glyph-name="wacute" unicode="&#x1e83;" horiz-adv-x="1484" 
d="M657 1065h164l215 -850l224 850h157l-284 -1065h-195l-199 803l-194 -803h-197l-282 1065h157l226 -850zM823 1534l119 -64l-131 -272h-115z" />
    <glyph glyph-name="Wdieresis" unicode="&#x1e84;" horiz-adv-x="1789" 
d="M780 1434h205l268 -1203l273 1203h180l-342 -1438h-221l-262 1173l-263 -1173h-221l-344 1438h187l270 -1203zM693 1536q-41 0 -65 26t-24 65q0 40 27 67q27 26 65 26t63 -26t25 -65q0 -41 -26 -67t-65 -26zM1067 1536q-39 0 -63 26t-25 65q0 40 27 67q26 26 64 26
t64 -26t26 -65q0 -41 -28 -67q-26 -26 -65 -26z" />
    <glyph glyph-name="wdieresis" unicode="&#x1e85;" horiz-adv-x="1484" 
d="M657 1065h164l215 -850l224 850h157l-284 -1065h-195l-199 803l-194 -803h-197l-282 1065h157l226 -850zM554 1204q-40 0 -64 26t-25 65q0 40 27 67q26 27 64 27t64 -26t26 -66q0 -41 -26 -67t-66 -26zM931 1389q37 0 63 -26t26 -66q0 -41 -27 -67t-65 -26t-64 26
q-24 26 -24 65q0 40 26 67q27 27 65 27z" />
    <glyph glyph-name="germandbls.case" unicode="&#x1e9e;" horiz-adv-x="1206" 
d="M154 934q0 240 109 380q110 140 319 140q260 0 415 -213l-215 -418q160 -35 262 -135t102 -292t-115 -313q-116 -122 -302 -122q-141 0 -250 51l31 125q100 -37 197 -37q131 0 207 87t77 231q0 144 -93 214q-93 71 -228 83l-43 84l204 401q-29 41 -101 72t-148 31
q-135 -1 -200 -101t-65 -264v-938h-163v934z" />
    <glyph glyph-name="Ygrave" unicode="&#x1ef2;" horiz-adv-x="1075" 
d="M623 0h-168v584l-435 850h187l332 -691h4l327 691h181l-428 -850v-584zM369 1798l118 64l127 -336h-114z" />
    <glyph glyph-name="ygrave" unicode="&#x1ef3;" horiz-adv-x="978" 
d="M57 1065h181l260 -854l245 854h179l-439 -1413h-174l99 328zM342 1470l119 64l127 -336h-115z" />
    <glyph glyph-name="endash" unicode="&#x2013;" horiz-adv-x="1245" 
d="M127 733h991v-117h-991v117z" />
    <glyph glyph-name="emdash" unicode="&#x2014;" horiz-adv-x="1484" 
d="M127 733h1231v-117h-1231v117z" />
    <glyph glyph-name="quoteleft" unicode="&#x2018;" horiz-adv-x="452" 
d="M227 999q-47 -1 -79 49t-31 117q0 166 170 262l30 -53q-121 -92 -98 -215q6 19 39 19t52 -25q20 -25 20 -63t-28 -64q-28 -27 -75 -27z" />
    <glyph glyph-name="quoteright" unicode="&#x2019;" horiz-adv-x="450" 
d="M127 1336q-1 38 27 64t76 27q48 0 79 -49t31 -116q0 -166 -170 -263l-31 54q121 92 99 215q-6 -18 -39 -18t-53 24q-19 24 -19 62z" />
    <glyph glyph-name="quotesinglbase" unicode="&#x201a;" horiz-adv-x="452" 
d="M123 88q-1 38 27 64t76 26t79 -49t31 -117q0 -166 -170 -262l-31 53q121 92 98 215q-7 -18 -39 -18t-52 25q-19 25 -19 63z" />
    <glyph glyph-name="quotedblleft" unicode="&#x201c;" horiz-adv-x="784" 
d="M224 999q-48 -1 -79 49t-30 117q0 166 170 262l30 -53q-121 -92 -98 -215q6 19 39 19t52 -25q20 -25 20 -63t-28 -64q-28 -27 -76 -27zM558 999q-48 -1 -79 49t-30 117q0 166 169 262l31 -53q-121 -92 -98 -215q6 19 39 19t52 -25q20 -25 20 -63t-28 -64q-28 -27 -76 -27
z" />
    <glyph glyph-name="quotedblright" unicode="&#x201d;" horiz-adv-x="780" 
d="M562 1427q48 0 79 -49t31 -116q0 -166 -170 -263l-31 54q121 92 98 215q-6 -18 -39 -18t-52 24t-19 62t27 65q28 26 76 26zM125 1336q-1 38 27 64t76 27q48 0 79 -49t31 -116q0 -166 -170 -263l-31 54q121 92 99 215q-6 -18 -39 -18t-53 24q-19 24 -19 62z" />
    <glyph glyph-name="quotedblbase" unicode="&#x201e;" horiz-adv-x="784" 
d="M560 178q48 0 79 -49t31 -117q0 -166 -170 -262l-31 53q121 92 98 215q-6 -18 -39 -18t-52 25t-19 63t27 64q28 26 76 26zM123 88q-1 38 27 64t76 26t79 -49t31 -117q0 -166 -170 -262l-31 53q121 92 98 215q-7 -18 -39 -18t-52 25q-19 25 -19 63z" />
    <glyph glyph-name="dagger" unicode="&#x2020;" horiz-adv-x="974" 
d="M893 1108v-135l-266 24v80zM82 1108l266 -31v-80l-266 -24v135zM416 1434h143l-20 -1227h-103z" />
    <glyph glyph-name="daggerdbl" unicode="&#x2021;" horiz-adv-x="1038" 
d="M115 551l266 -31v-78l-266 -28v137zM924 551v-137l-267 28v78zM115 1108l266 -31v-80l-266 -24v135zM924 1108v-135l-267 24v80zM446 1434h146l-21 -1438h-104z" />
    <glyph glyph-name="bullet" unicode="&#x2022;" horiz-adv-x="684" 
d="M344 909q74 0 126 -56t52 -137t-52 -137q-52 -57 -126 -57t-128 58t-54 138q0 81 54 136t128 55z" />
    <glyph glyph-name="ellipsis" unicode="&#x2026;" horiz-adv-x="1312" 
d="M854 76q0 40 27 66t63 26t61 -27t25 -65t-26 -65q-26 -25 -62 -25t-62 26t-26 64zM485 76q0 40 27 66q26 26 62 26t62 -27t26 -65t-26 -65q-26 -25 -62 -25t-62 26t-27 64zM121 76q1 40 27 66t62 26t62 -27t25 -65q0 -38 -26 -65q-27 -25 -63 -25t-62 25q-25 26 -25 65z
" />
    <glyph glyph-name="perthousand" unicode="&#x2030;" horiz-adv-x="2136" 
d="M1655 323q0 -91 36 -147t97 -55q61 0 95 54q34 55 34 147t-35 149t-94 57t-96 -57t-37 -148zM1507 324q0 150 78 248t202 98t201 -98q76 -98 76 -248t-78 -247t-201 -97q-124 0 -201 97t-77 247zM938 323q0 -91 36 -147t97 -55q61 0 95 54q34 55 34 147t-35 149t-94 57
t-96 -57t-37 -148zM1068 -20q-124 0 -201 97t-77 247t78 248t202 98t201 -98t77 -248t-78 -247t-202 -97zM221 1107q0 -91 36 -147t97 -55q61 0 96 54q34 55 34 147t-35 149t-95 57t-96 -56q-37 -58 -37 -149zM281 0l702 1434h160l-703 -1434h-159zM351 764q-125 0 -201 97
t-76 247t78 248t202 98t200 -97q77 -97 77 -248t-78 -248t-202 -97z" />
    <glyph glyph-name="guilsinglleft" unicode="&#x2039;" horiz-adv-x="618" 
d="M432 1022l84 -86l-264 -404l262 -403l-82 -86l-354 469v37z" />
    <glyph glyph-name="guilsinglright" unicode="&#x203a;" horiz-adv-x="620" 
d="M102 936l84 86l355 -473v-37l-355 -469l-82 86l263 403z" />
    <glyph glyph-name="fraction" unicode="&#x2044;" horiz-adv-x="716" 
d="M557 1434h135l-534 -1434h-133z" />
    <glyph glyph-name="Euro" unicode="&#x20ac;" horiz-adv-x="1400" 
d="M911 1454q197 0 375 -108l-43 -127q-147 81 -323 81t-303 -110q-126 -110 -164 -297h616l-33 -96h-600q-4 -25 -4 -76t8 -92h539l-33 -97h-491q47 -184 170 -292t291 -107q168 0 325 82v-158q-176 -78 -330 -77q-247 0 -419 152t-226 400h-170l33 97h121q-4 61 -4 102
t2 66h-162l35 96h141q47 253 222 407t427 154z" />
    <glyph glyph-name="trademark" unicode="&#x2122;" horiz-adv-x="1382" 
d="M692 1434h94l179 -422l172 422h96v-633h-94v446l-142 -346h-65l-146 346v-446h-94v633zM123 1434h463v-97h-180v-536h-101v536h-182v97z" />
    <glyph glyph-name="commaaccent" unicode="&#xf6c3;" horiz-adv-x="444" 
d="M218 -172q40 0 64 -38t23 -93q0 -129 -131 -207l-27 45q98 74 80 174q-5 -23 -31 -23t-42 19q-16 18 -16 48q0 31 20 53t60 22z" />
    <glyph glyph-name="apple" unicode="&#xf8ff;" horiz-adv-x="2297" 
d="M2179 981v-63h62v-19h-62v-133q0 -51 39 -51q20 0 31 4l2 -17q-12 -6 -35 -6q-57 0 -57 72v131h-33v16l33 3l4 63h16zM1976 901q-38 -1 -64 -27t-26 -66t26 -68t64 -28t67 28q28 28 28 68t-28 66t-67 27zM1977 920q48 0 81 -32t33 -80t-34 -82t-80 -34t-79 34t-32 81
q0 47 31 80q32 33 80 33zM1624 807q0 -41 25 -68t61 -27t63 28q26 28 25 67q0 39 -26 67t-62 27q-38 -1 -62 -27t-24 -67zM1819 807q0 -47 -30 -81q-29 -34 -87 -34t-76 53v-120h-22v293h16l4 -52q25 54 79 54t85 -33t31 -80zM1526 815q0 33 -22 59t-56 27t-60 -25t-28 -61
h166zM1446 920q45 0 77 -37t23 -84h-186q2 -37 28 -62q47 -45 134 -8l8 -16q-100 -49 -160 13q-33 34 -33 81t32 80t77 33zM1085 807q0 -41 25 -69t63 -28q39 0 63 28t24 68t-26 68t-62 27t-62 -27q-25 -26 -25 -67zM1257 1008h21v-312h-16l-2 52q-28 -56 -82 -56t-84 34
t-31 81q0 47 31 80q30 33 84 33t79 -52v140zM820 880q-54 0 -64 -57h121q-3 57 -57 57zM817 922q47 0 75 -33t28 -80l-2 -21h-162q6 -57 69 -57q23 0 66 14l14 -32q-35 -21 -83 -21t-81 32t-33 82t31 83t78 33zM496 807q0 -33 18 -53t48 -20t48 20t19 53q-1 33 -19 53
t-47 20t-48 -20t-19 -53zM676 807q0 -49 -29 -82t-78 -33t-69 31v-98h-47v293h36l7 -33q24 37 72 37t78 -33t30 -82zM260 625q-23 0 -43 6l8 41q13 -4 29 -4t31 28l-86 222h47l63 -173l62 173h49l-92 -232q-27 -61 -68 -61zM80 883h-31v28l31 7l8 63h37v-63h51v-35h-51v-115
q0 -33 29 -33l26 2l8 -32q-25 -8 -41 -9q-68 0 -67 76v111zM1004 1008v-394h-9v394h9z" />
    <glyph glyph-name="a.alt" horiz-adv-x="1114" 
d="M498 1085q110 0 196 -54t125 -150l23 184h135v-1065h-170v166q-43 -90 -128 -138t-183 -48q-188 0 -303 160t-115 394q0 232 118 392t302 159zM541 942q-125 0 -209 -121t-84 -293t82 -288t208 -117q126 0 206 115q80 114 81 290t-79 295t-205 119z" />
    <glyph glyph-name="g.alt" horiz-adv-x="1110" 
d="M537 942q-131 0 -207 -106t-76 -260t77 -256t208 -103q131 0 207 101q76 100 75 258q0 158 -77 262t-207 104zM488 -203q143 0 227 80t92 240v141q-37 -76 -123 -128t-192 -52q-162 0 -285 136t-123 364t125 367q125 140 289 140q116 0 196 -54t121 -132l27 166h131v-901
q0 -252 -123 -382t-333 -130t-374 100l50 127q152 -82 295 -82z" />
    <glyph glyph-name="f_b" horiz-adv-x="1665" 
d="M1131 942q-125 0 -203 -120t-78 -294t80 -290t202 -115q122 0 207 122q84 123 84 291t-83 287t-209 119zM503 1382q-79 0 -126 -63t-47 -189v-65h190v-121h-190v-944h-170v944h-117v100l117 21v65q0 178 96 284t244 106t250 -98t104 -279v-248q41 84 129 137t180 53
q195 -1 309 -161t113 -392q0 -232 -116 -393q-116 -160 -306 -159q-117 0 -197 54t-120 140l-19 -174h-143v1149q-4 113 -53 173t-128 60z" />
    <glyph glyph-name="f_f_b" horiz-adv-x="2144" 
d="M1622 942q-125 0 -203 -120t-78 -294t80 -290t203 -115q123 0 207 122q84 123 84 291t-84 287t-209 119zM451 1382q-68 0 -95 -46t-26 -144v-127h321v82q1 177 97 283t244 106t250 -98t104 -279v-264q41 84 129 137t180 53q195 -1 309 -161t113 -392q0 -232 -116 -393
q-116 -160 -306 -159q-117 0 -197 55t-121 141l-18 -176h-143v1165q0 111 -50 172t-131 61q-80 0 -127 -62q-47 -64 -47 -189v-82h191v-121h-191v-944h-170v944h-321v-944h-170v944h-117v100l117 21v123q0 166 59 249t205 83q64 -1 127 -19l-23 -125q-43 6 -77 6z" />
    <glyph glyph-name="f_h" horiz-adv-x="1599" 
d="M1305 643q-1 299 -217 299q-110 0 -172 -100t-62 -230v-612h-170v1145q0 113 -50 175t-130 62t-127 -63t-47 -189v-65h190v-121h-190v-944h-170v944h-117v100l117 21v65q0 178 96 284t246 106t250 -100q102 -100 102 -281v-219q29 61 102 113q74 52 189 52
q153 1 241 -109t89 -333v-643h-170v643z" />
    <glyph glyph-name="f_f_h" horiz-adv-x="2095" 
d="M1796 643q0 299 -216 299q-110 0 -172 -100t-62 -230v-612h-170v1161q0 113 -50 175t-131 62q-80 0 -127 -62q-47 -64 -47 -189v-82h191v-121h-191v-944h-170v944h-321v-944h-170v944h-117v100l117 21v123q0 166 59 249t205 83q64 -1 127 -19l-23 -125q-43 6 -77 6
q-68 0 -95 -46t-26 -144v-127h321v82q1 177 97 283t245 106t251 -99t102 -282v-235q29 61 102 113q74 52 188 52q152 1 241 -109t89 -333v-643h-170v643z" />
    <glyph glyph-name="f_k" horiz-adv-x="1441" 
d="M504 1382q-80 0 -127 -63t-47 -189v-65h190v-121h-190v-944h-170v944h-117v100l117 21v65q0 178 96 284t246 106t250 -100q102 -100 102 -281v-615l383 541h174l-350 -485l342 -580h-160l-270 465l-119 -158v-307h-170v1145q-4 115 -52 176t-128 61z" />
    <glyph glyph-name="f_f_k" horiz-adv-x="1925" 
d="M451 1382q-68 0 -95 -46t-26 -144v-127h321v82q1 177 97 283t245 106t251 -99t102 -282v-631l383 541h174l-351 -485l342 -580h-159l-271 465l-118 -158v-307h-170v1161q0 113 -50 175t-131 62q-80 0 -127 -62q-47 -64 -47 -189v-82h191v-121h-191v-944h-170v944h-321
v-944h-170v944h-117v100l117 21v123q0 166 59 249t205 83q64 -1 127 -19l-23 -125q-43 6 -77 6z" />
    <glyph glyph-name="dollar.tnum" 
d="M664 -197h-115v177q-180 12 -375 102l51 123q199 -84 347 -84q297 0 294 256q0 74 -42 126t-86 74q-92 46 -156 62q-78 29 -119 45t-106 55t-97 79t-59 106t-27 147q0 172 98 270t277 113v184h115v-186q174 -10 340 -88l-52 -123q-168 70 -308 70q-294 0 -294 -240
q0 -115 88 -174q49 -33 82 -47q49 -21 191 -78t188 -97q45 -40 81 -83q65 -78 66 -236q2 -158 -100 -258t-282 -118v-177z" />
    <glyph glyph-name="percent.tnum" 
d="M940 80q70 0 113 68t43 176t-43 176t-114 68t-111 -68q-40 -66 -40 -176t41 -176q41 -68 111 -68zM106 1108q0 -108 43 -176t113 -68t111 67t41 175t-43 178q-43 68 -113 68t-111 -68t-41 -176zM938 -20q-120 0 -190 97t-70 248t71 249t189 98t192 -98t74 -248t-74 -248
t-192 -98zM199 0l665 1434h133l-665 -1434h-133zM522 1110q0 -150 -72 -248t-193 -98t-191 96t-70 247t71 249t189 98t192 -97t74 -247z" />
    <glyph glyph-name="plus.tnum" 
d="M541 1069h116v-338h316v-119h-316v-338h-116v338h-316v119h316v338z" />
    <glyph glyph-name="hyphen.tnum" 
d="M252 733h694v-117h-694v117z" />
    <glyph glyph-name="zero.tnum" horiz-adv-x="1202" 
d="M600 117q160 0 252 166t92 435t-92 434t-252 165t-252 -166t-92 -435t92 -434t252 -165zM600 -20q-229 0 -370 207q-140 208 -140 530q0 321 140 529t368 208t370 -208t142 -530t-140 -529q-141 -207 -370 -207z" />
    <glyph glyph-name="one.tnum" 
d="M264 0v131h273v1108l-230 -90l-55 111l323 174h127v-1303h287v-131h-725z" />
    <glyph glyph-name="two.tnum" 
d="M989 1028q0 -258 -287 -534l-337 -347h673v-147h-876v141l450 463q217 221 217 414q0 127 -80 205q-81 78 -219 78t-297 -76l-55 121q203 108 387 108t304 -118t120 -308z" />
    <glyph glyph-name="three.tnum" 
d="M565 1454q178 0 290 -99t112 -265q1 -113 -63 -201t-173 -123q129 -33 209 -131t80 -240q0 -188 -132 -302t-329 -113q-103 0 -207 30t-168 72l45 113q159 -72 299 -72t233 79t93 215t-102 213t-228 77h-108v127h125q106 0 186 62t80 176t-79 173q-80 59 -196 59
t-272 -49l-39 121q166 78 344 78z" />
    <glyph glyph-name="four.tnum" horiz-adv-x="1198" 
d="M752 479v688l-476 -688h476zM918 1434v-955h155v-129h-155v-350h-166v350h-639v121l659 963h146z" />
    <glyph glyph-name="five.tnum" horiz-adv-x="1198" 
d="M981 1434v-148h-578l-47 -442q104 78 270 78t287 -124t121 -340t-138 -347t-346 -131t-382 110l61 113q165 -80 307 -80t238 94t96 249t-86 240t-218 85t-236 -89l-111 60l70 672h692z" />
    <glyph glyph-name="six.tnum" 
d="M897 462q0 144 -73 236t-203 93q-129 -1 -209 -99t-80 -239t79 -237t209 -97q130 0 203 100q74 99 74 243zM657 934q166 0 283 -127t117 -340t-118 -350t-314 -137q-258 0 -377 227q-90 174 -90 461t92 509q51 125 160 201t282 76t318 -96l-60 -129q-154 72 -268 71
q-168 0 -267 -122t-100 -396l-2 -53q39 89 132 147t212 58z" />
    <glyph glyph-name="seven.tnum" 
d="M190 1434h859v-148l-547 -1286h-176l546 1286h-682v148z" />
    <glyph glyph-name="eight.tnum" 
d="M600 1307q-94 0 -162 -66t-68 -172t64 -175q62 -69 164 -69t165 69q62 70 62 176q1 106 -65 172t-160 65zM319 396q0 -126 81 -202t198 -75q117 0 199 76q82 77 82 201t-78 205t-203 81t-202 -80t-77 -206zM217 1090q1 166 115 265t267 99t267 -99t115 -265
q0 -117 -63 -208t-160 -124q127 -37 205 -129t77 -238q0 -190 -129 -301q-129 -110 -309 -110t-313 112t-133 299q0 145 81 239t203 128q-94 31 -158 122t-65 210z" />
    <glyph glyph-name="nine.tnum" 
d="M583 1315q-128 -1 -202 -101t-74 -246t73 -236t202 -89q129 0 208 95q78 94 78 238t-78 242q-79 97 -207 97zM522 133q164 0 263 125t100 397l2 45q-39 -88 -131 -144t-209 -56q-164 0 -284 129t-120 340t120 348t317 137q254 0 372 -227q90 -174 90 -473
q0 -222 -45 -367t-98 -223t-148 -131t-219 -53q-192 0 -337 96l57 131q160 -74 270 -74z" />
    <glyph glyph-name="equal.tnum" horiz-adv-x="1202" 
d="M268 573h666v-118h-666v118zM268 899h666v-119h-666v119z" />
    <glyph glyph-name="cent.tnum" 
d="M684 -20h-80v176q-198 20 -314 175t-116 376t116 375t314 173v162h80v-157q123 -6 246 -76l-43 -117l-47 19q-97 34 -174 34q-152 0 -240 -124t-88 -290t88 -289q88 -124 240 -124q90 0 223 53l41 -117q-117 -70 -246 -75v-174z" />
    <glyph glyph-name="sterling.tnum" horiz-adv-x="1202" 
d="M283 635h-90v100h90v277q0 194 99 318q100 124 286 124t307 -162l-109 -86q-78 92 -186 92t-166 -75q-57 -76 -57 -203v-285h420v-100h-420v-279q0 -82 -31 -139t-68 -80h650v-137h-838v137q110 55 113 207v291z" />
    <glyph glyph-name="yen.tnum" horiz-adv-x="1202" 
d="M684 516h213v-80h-213v-112h213v-80h-213v-244h-160v244h-239v80h239v112h-239v80h239v68l-434 850h178l332 -695h4l328 695h182l-430 -850v-68z" />
    <glyph glyph-name="multiply.tnum" 
d="M602 588l-223 -223l-72 65l228 232l-224 231l70 65l221 -229l215 227l74 -63l-221 -234l223 -229l-74 -65z" />
    <glyph glyph-name="divide.tnum" 
d="M508 326q0 40 28 68t64 28t63 -29t27 -67t-28 -68q-28 -29 -64 -29q-38 0 -64 28t-26 69zM199 717h800v-115h-800v115zM508 995q0 41 28 68t64 27t65 -28q27 -28 27 -68t-28 -68t-65 -29q-39 1 -65 29t-26 69z" />
    <glyph glyph-name="Euro.tnum" 
d="M834 1454q197 0 374 -108l-43 -127q-147 81 -323 81t-302 -110t-165 -297h616l-33 -96h-600q-4 -25 -4 -76t8 -92h539l-33 -97h-491q47 -184 170 -292t292 -107q169 0 324 82v-158q-176 -78 -329 -77q-246 0 -419 152t-227 400h-170l33 97h121q-4 61 -4 102t2 66h-162
l35 96h141q46 253 222 407t428 154z" />
    <glyph glyph-name="agrave.alt" horiz-adv-x="1114" 
d="M498 1085q110 0 196 -54t125 -150l23 184h135v-1065h-170v166q-43 -90 -128 -138t-183 -48q-188 0 -303 160t-115 394q0 232 118 392t302 159zM541 942q-125 0 -209 -121t-84 -293t82 -288t208 -117q126 0 206 115q80 114 81 290t-79 295t-205 119zM399 1470l119 64
l127 -336h-115z" />
    <glyph glyph-name="acircumflex.alt" horiz-adv-x="1114" 
d="M498 1085q110 0 196 -54t125 -150l23 184h135v-1065h-170v166q-43 -90 -128 -138t-183 -48q-188 0 -303 160t-115 394q0 232 118 392t302 159zM541 942q-125 0 -209 -121t-84 -293t82 -288t208 -117q126 0 206 115q80 114 81 290t-79 295t-205 119zM457 1204h-125
l180 250h119l186 -250h-125l-119 180z" />
    <glyph glyph-name="aacute.alt" horiz-adv-x="1114" 
d="M498 1085q110 0 196 -54t125 -150l23 184h135v-1065h-170v166q-43 -90 -128 -138t-183 -48q-188 0 -303 160t-115 394q0 232 118 392t302 159zM541 942q-125 0 -209 -121t-84 -293t82 -288t208 -117q126 0 206 115q80 114 81 290t-79 295t-205 119zM561 1534l119 -64
l-131 -272h-115z" />
    <glyph glyph-name="adieresis.alt" horiz-adv-x="1114" 
d="M498 1085q110 0 196 -54t125 -150l23 184h135v-1065h-170v166q-43 -90 -128 -138t-183 -48q-188 0 -303 160t-115 394q0 232 118 392t302 159zM541 942q-125 0 -209 -121t-84 -293t82 -288t208 -117q126 0 206 115q80 114 81 290t-79 295t-205 119zM368 1389q38 0 64 -26
t25 -66q0 -41 -26 -67q-25 -26 -65 -26t-65 26t-25 65q0 40 27 67t65 27zM739 1204q-39 0 -63 26t-25 65q0 40 27 67q26 27 64 27t64 -26t26 -66q0 -41 -28 -67q-26 -26 -65 -26z" />
    <glyph glyph-name="aring.alt" horiz-adv-x="1114" 
d="M498 1085q110 0 196 -54t125 -150l23 184h135v-1065h-170v166q-43 -90 -128 -138t-183 -48q-188 0 -303 160t-115 394q0 232 118 392t302 159zM541 942q-125 0 -209 -121t-84 -293t82 -288t208 -117q126 0 206 115q80 114 81 290t-79 295t-205 119zM565 1470
q-43 0 -65 -26t-21 -64q0 -40 22 -64t64 -24q84 0 84 89t-84 89zM565 1217q-74 0 -123 46q-49 45 -49 117t49 119t122 47t122 -47t49 -119t-48 -118t-122 -45z" />
    <glyph glyph-name="aogonek.alt" horiz-adv-x="1101" 
d="M498 1085q110 0 196 -54t125 -150l23 184h135v-1065h-23q-57 -27 -84 -86t-26 -115q0 -86 76 -86l53 8l14 -59q-41 -27 -98 -27t-98 43t-41 109q0 131 98 213h-41v166q-43 -90 -128 -138t-183 -48q-188 0 -303 160t-115 394q0 232 118 392t302 159zM541 942
q-125 0 -209 -121t-84 -293t82 -288t208 -117q126 0 206 115q80 114 81 290t-79 295t-205 119z" />
    <glyph glyph-name="amacron.alt" horiz-adv-x="1114" 
d="M498 1085q110 0 196 -54t125 -150l23 184h135v-1065h-170v166q-43 -90 -128 -138t-183 -48q-188 0 -303 160t-115 394q0 232 118 392t302 159zM541 942q-125 0 -209 -121t-84 -293t82 -288t208 -117q126 0 206 115q80 114 81 290t-79 295t-205 119zM285 1337h526v-104
h-526v104z" />
    <glyph glyph-name="atilde.alt" horiz-adv-x="1114" 
d="M498 1085q110 0 196 -54t125 -150l23 184h135v-1065h-170v166q-43 -90 -128 -138t-183 -48q-188 0 -303 160t-115 394q0 232 118 392t302 159zM541 942q-125 0 -209 -121t-84 -293t82 -288t208 -117q126 0 206 115q80 114 81 290t-79 295t-205 119zM459 1411
q47 0 115 -43t115 -43q46 0 93 68l43 -37q-68 -139 -170 -139q-53 0 -119 43q-66 42 -111 42q-46 0 -93 -63l-45 35q68 137 172 137z" />
    <glyph glyph-name="abreve.alt" horiz-adv-x="1114" 
d="M498 1085q110 0 196 -54t125 -150l23 184h135v-1065h-170v166q-43 -90 -128 -138t-183 -48q-188 0 -303 160t-115 394q0 232 118 392t302 159zM541 942q-125 0 -209 -121t-84 -293t82 -288t208 -117q126 0 206 115q80 114 81 290t-79 295t-205 119zM549 1307
q67 -1 101 31t46 102h78q-20 -229 -225 -230q-213 1 -227 230h75q20 -133 152 -133z" />
    <glyph glyph-name="gbreve.alt" horiz-adv-x="1110" 
d="M537 942q-131 0 -207 -106t-76 -260t77 -256t208 -103q131 0 207 101q76 100 75 258q0 158 -77 262t-207 104zM488 -203q143 0 227 80t92 240v141q-37 -76 -123 -128t-192 -52q-162 0 -285 136t-123 364t125 367q125 140 289 140q116 0 196 -54t121 -132l27 166h131v-901
q0 -252 -123 -382t-333 -130t-374 100l50 127q152 -82 295 -82zM322 1444h73q18 -68 51 -101t101 -33q69 0 101 34q32 32 50 100h76q-23 -229 -225 -230q-213 1 -227 230z" />
    <glyph glyph-name="gcircumflex.alt" horiz-adv-x="1110" 
d="M537 942q-131 0 -207 -106t-76 -260t77 -256t208 -103q131 0 207 101q76 100 75 258q0 158 -77 262t-207 104zM488 -203q143 0 227 80t92 240v141q-37 -76 -123 -128t-192 -52q-162 0 -285 136t-123 364t125 367q125 140 289 140q116 0 196 -54t121 -132l27 166h131v-901
q0 -252 -123 -382t-333 -130t-374 100l50 127q152 -82 295 -82zM416 1210h-125l180 250h119l186 -250h-125l-119 181z" />
    <glyph glyph-name="gcommaaccent.alt" horiz-adv-x="1110" 
d="M537 942q-131 0 -207 -106t-76 -260t77 -256t208 -103q131 0 207 101q76 100 75 258q0 158 -77 262t-207 104zM488 -203q143 0 227 80t92 240v141q-37 -76 -123 -128t-192 -52q-162 0 -285 136t-123 364t125 367q125 140 289 140q116 0 196 -54t121 -132l27 166h131v-901
q0 -252 -123 -382t-333 -130t-374 100l50 127q152 -82 295 -82zM551 1348q27 0 43 -18t16 -49t-20 -53t-60 -22t-64 38t-24 93q0 129 131 207l27 -45q-98 -74 -80 -174q4 23 31 23z" />
    <glyph glyph-name="gdotaccent.alt" horiz-adv-x="1110" 
d="M537 942q-131 0 -207 -106t-76 -260t77 -256t208 -103q131 0 207 101q76 100 75 258q0 158 -77 262t-207 104zM488 -203q143 0 227 80t92 240v141q-37 -76 -123 -128t-192 -52q-162 0 -285 136t-123 364t125 367q125 140 289 140q116 0 196 -54t121 -132l27 166h131v-901
q0 -252 -123 -382t-333 -130t-374 100l50 127q152 -82 295 -82zM546 1389q38 0 64 -26t25 -66q0 -41 -27 -67q-28 -26 -66 -26t-62 26t-25 65q0 40 26 67q27 27 65 27z" />
    <glyph glyph-name="J.alt" horiz-adv-x="555" 
d="M217 150v1128l-125 27v129h297v-1198q0 -123 -22 -195q-31 -121 -117 -204t-191 -124l-55 119q50 30 106 84q107 105 107 234z" />
    <glyph glyph-name="Jcircumflex.alt" horiz-adv-x="555" 
d="M217 150v1128l-125 27v129h297v-1198q0 -123 -22 -195q-31 -121 -117 -204t-191 -124l-55 119q50 30 106 84q107 105 107 234zM145 1532h-125l181 250h118l187 -250h-125l-119 180z" />
    <glyph glyph-name="j.alt" horiz-adv-x="473" 
d="M113 1351q0 46 33 79q34 32 79 32t78 -32t33 -80q0 -47 -33 -79t-79 -32t-79 33q-32 33 -32 79zM72 1065h254v-1002q0 -161 -74 -269t-172 -142l-57 106q133 84 133 260v912l-84 22v113z" />
    <glyph glyph-name="jcircumflex.alt" horiz-adv-x="462" 
d="M86 1204h-125l180 250h119l186 -250h-124l-119 180zM72 1065h254v-1002q0 -161 -74 -269t-172 -142l-57 106q133 84 133 260v912l-84 22v113z" />
    </font>
</defs>
</svg>
