<?xml version="1.0" standalone="no"?>
<!DOCTYPE svg PUBLIC "-//W3C//DTD SVG 1.1//EN" "http://www.w3.org/Graphics/SVG/1.1/DTD/svg11.dtd" >
<svg xmlns="http://www.w3.org/2000/svg">
<metadata>
Created by FontPrep 20130207 at Wed Nov 20 11:16:39 2013
 By MacMini
Copyright (c) 2012 by typedepot. All rights reserved.
</metadata>
<defs>
<font id="8f5a09d534b862326e62923d432029b4" horiz-adv-x='1024' >
  <font-face 
    font-family="CentraleSansCndXThin"
    font-weight="250"
    font-stretch="normal"
    units-per-em="2048"
    panose-1="2 0 0 0 0 0 0 0 0 0"
    ascent="1536"
    descent="-512"
    x-height="1065"
    cap-height="1434"
    bbox="-86 -410 2245 1855"
    underline-thickness="102"
    underline-position="-102"
    unicode-range="U+000D-FB04"
  />
<missing-glyph horiz-adv-x="1091" 
d="M176 1413v-1563l352 771zM922 1434l-363 -813l363 -799v1612zM180 1464l363 -805l362 805h-725zM147 1499h805v-1745h-805v1745zM905 -213l-360 797l-363 -797h723z" />
    <glyph glyph-name="f_f" unicode="ff" horiz-adv-x="989" 
d="M666 0h-41v1030h-410v-1030h-41v1030h-113v23l113 12v149q0 146 49 222t166 75q66 0 119 -16l-10 -33q-43 12 -105 13q-102 -1 -140 -63t-38 -195v-152h410v137q0 156 47 238t172 82q53 0 119 -17l-9 -35q-57 14 -108 15q-106 0 -144 -73t-36 -208v-139h278v-35h-278
v-1030z" />
    <glyph glyph-name="f_i" unicode="fi" horiz-adv-x="888" 
d="M444 1475q-122 -1 -176 -93t-55 -221v-96h516v-1065h-41v1030h-475v-1030h-41v1030h-109v25l109 10v106q0 145 72 243t200 97q66 -1 129 -23t95 -46l32 -23l-20 -28q-114 84 -236 84z" />
    <glyph glyph-name="f_l" unicode="fl" horiz-adv-x="911" 
d="M688 1149q0 154 -60 240t-176 86t-176 -86t-59 -240v-84h254v-35h-254v-1030h-41v1030h-115v23l115 12v84q0 176 75 269t202 93t201 -93t75 -269v-1049q0 -74 59 -73l54 8v-35q-31 -10 -62 -10q-92 0 -92 100v1059z" />
    <glyph glyph-name="f_f_i" unicode="ffi" horiz-adv-x="1343" 
d="M903 1485q-127 0 -181 -92t-54 -222v-106h516v-1065h-41v1030h-475v-1030h-41v1030h-410v-1030h-41v1030h-113v23l113 12v149q0 146 50 222t169 75q61 0 115 -16l-10 -33q-43 12 -105 13q-100 0 -139 -66t-39 -192v-152h410v117q0 145 71 242q72 97 201 98q67 0 131 -24
t94 -46l31 -22l-20 -29q-29 29 -98 56q-70 28 -134 28z" />
    <glyph glyph-name="f_f_l" unicode="ffl" horiz-adv-x="1361" 
d="M1141 1159q-1 154 -61 240t-176 86t-175 -86t-59 -240v-94h254v-35h-254v-1030h-41v1030h-410v-1030h-41v1030h-112v23l112 12v149q0 146 50 222t169 75q61 0 115 -16l-10 -33q-43 12 -105 13q-100 0 -139 -66t-39 -192v-152h410v94q0 176 74 269q75 94 202 94t202 -94
t75 -269v-1059q0 -74 59 -73l53 8v-35q-31 -10 -61 -10q-92 0 -92 100v1069z" />
    <glyph glyph-name=".notdef" horiz-adv-x="1091" 
d="M176 1413v-1563l352 771zM922 1434l-363 -813l363 -799v1612zM180 1464l363 -805l362 805h-725zM147 1499h805v-1745h-805v1745zM905 -213l-360 797l-363 -797h723z" />
    <glyph glyph-name=".null" horiz-adv-x="0" 
 />
    <glyph glyph-name=".null" horiz-adv-x="0" 
 />
    <glyph glyph-name="nonmarkingreturn" horiz-adv-x="681" 
 />
    <glyph glyph-name="CR" unicode="&#xd;" horiz-adv-x="491" 
 />
    <glyph glyph-name="space" unicode=" " horiz-adv-x="460" 
 />
    <glyph glyph-name="exclam" unicode="!" horiz-adv-x="425" 
d="M216 90q46 0 46 -50t-46 -50t-46 50t46 50zM182 1434h62l-17 -1076h-30z" />
    <glyph glyph-name="quotedbl" unicode="&#x22;" horiz-adv-x="526" 
d="M340 1440h55l-65 -447h-21zM184 1440h54l-64 -447h-22z" />
    <glyph glyph-name="numbersign" unicode="#" horiz-adv-x="1335" 
d="M498 1022l-95 -625h439l94 625h-438zM524 1440h37l-55 -379h436l57 379h39l-57 -379h252l-6 -39h-254l-92 -625h256l-7 -39h-260l-55 -358h-37l56 358h-439l-55 -358h-39l57 358h-258l6 39h259l96 625h-262l6 39h264z" />
    <glyph glyph-name="dollar" unicode="$" horiz-adv-x="1007" 
d="M524 -164h-30v152q-188 8 -371 106l16 35q193 -100 367 -100t262 85t88 236q0 92 -40 158t-103 104t-212 94q-149 57 -219 102q-151 97 -151 290q0 160 95 254t268 100v166h30v-166q164 -8 322 -84l-17 -35q-170 78 -320 78q-151 0 -243 -79t-92 -230q0 -183 144 -271
q65 -39 142 -69q76 -30 154 -62q78 -30 143 -70t105 -112t39 -170q0 -166 -99 -261t-278 -99v-152z" />
    <glyph glyph-name="percent" unicode="%" horiz-adv-x="1361" 
d="M1014 645q-102 0 -162 -88t-59 -222t61 -221t161 -87t161 86q59 86 59 220t-60 223q-59 89 -161 89zM1014 -10q-119 0 -192 97q-72 97 -72 247t72 248q73 98 192 98q118 0 190 -97t72 -248t-72 -248t-190 -97zM350 1409q-102 0 -162 -88t-59 -222t61 -221t161 -87t161 86
q59 86 59 220t-60 223q-59 89 -161 89zM1057 1440l-709 -1440h-45l709 1440h45zM350 754q-120 0 -192 97t-72 247t73 248t191 98t191 -97q71 -97 71 -248t-72 -248t-190 -97z" />
    <glyph glyph-name="ampersand" unicode="&#x26;" horiz-adv-x="1118" 
d="M474 1407q-96 0 -156 -69t-60 -157t38 -152q13 -22 28 -49t32 -48q16 -20 40 -53t32 -43q88 57 135 94q47 38 90 102t43 154t-63 155q-64 66 -159 66zM129 391q0 -164 102 -262t252 -98q196 0 346 207l-411 548q-289 -170 -289 -395zM219 1165q1 125 71 202t182 77
t186 -77t75 -195q0 -118 -77 -202t-207 -161l405 -541q7 10 29 62q41 96 41 213h37q0 -82 -27 -183t-53 -122l178 -238h-49l-154 205q-158 -215 -373 -215q-165 0 -279 106t-114 289q0 133 79 235t226 195q-2 4 -42 57q-106 141 -125 218q-9 37 -9 75z" />
    <glyph glyph-name="quotesingle" unicode="'" horiz-adv-x="370" 
d="M186 1440h54l-64 -447h-22z" />
    <glyph glyph-name="parenleft" unicode="(" horiz-adv-x="575" 
d="M106 593q0 259 112 482t257 369l23 -25q-346 -367 -346 -823t348 -829l-25 -27q-147 150 -258 372t-111 481z" />
    <glyph glyph-name="parenright" unicode=")" horiz-adv-x="575" 
d="M469 593q0 -259 -111 -481t-258 -372l-24 27q348 379 347 833t-345 819l22 25q145 -144 257 -368t112 -483z" />
    <glyph glyph-name="asterisk" unicode="*" horiz-adv-x="749" 
d="M141 1112l217 133l-217 133l23 33l205 -154l-15 291h41l-12 -288l205 151l20 -33l-219 -133l219 -133l-20 -35l-205 154l12 -287h-41l15 289l-205 -156z" />
    <glyph glyph-name="plus" unicode="+" horiz-adv-x="911" 
d="M440 1030h35v-366h307v-41h-307v-365h-35v365h-309v41h309v366z" />
    <glyph glyph-name="comma" unicode="," horiz-adv-x="403" 
d="M202 82q26 0 44 -36t18 -83q0 -115 -114 -192l-9 14q51 39 75 105t-5 128q-4 -18 -27 -18q-33 0 -32 39q0 16 11 30q13 13 39 13z" />
    <glyph glyph-name="hyphen" unicode="-" horiz-adv-x="892" 
d="M145 664h603v-39h-603v39z" />
    <glyph glyph-name="period" unicode="." horiz-adv-x="364" 
d="M143 38q-1 18 11 30t27 12t27 -12t11 -30q0 -18 -11 -28q-10 -12 -26 -12t-28 12t-11 28z" />
    <glyph glyph-name="slash" unicode="/" horiz-adv-x="808" 
d="M698 1507h37l-622 -1573h-39q98 250 624 1573z" />
    <glyph glyph-name="zero" unicode="0" horiz-adv-x="1204" 
d="M601 27q200 1 318 201q117 200 117 489t-118 489t-317 201q-199 0 -317 -199q-118 -200 -118 -490t118 -490t317 -201zM602 -10q-147 0 -258 100t-166 264t-55 367q0 305 129 514t349 209t350 -208t130 -516t-129 -519t-350 -211z" />
    <glyph glyph-name="one" unicode="1" horiz-adv-x="507" 
d="M313 1434v-1434h-41v1384l-180 -114l-16 26l203 138h34z" />
    <glyph glyph-name="two" unicode="2" horiz-adv-x="966" 
d="M852 37v-37h-760v37l422 493q192 229 239 378q24 77 23 155q0 147 -95 245t-229 99q-134 0 -286 -98l-19 28q158 107 309 107t256 -106t105 -279q0 -172 -108 -335q-74 -112 -170 -224l-394 -463h707z" />
    <glyph glyph-name="three" unicode="3" horiz-adv-x="970" 
d="M858 381q0 -166 -121 -279q-121 -112 -294 -112t-314 90l16 29q145 -82 293 -82t263 101q114 101 114 272q0 172 -114 266t-269 94h-90v31h104q125 0 221 89q95 89 95 229t-93 219t-219 79t-270 -53l-10 28q136 62 282 62t248 -90t102 -228t-73 -233q-74 -94 -176 -115
q137 -33 221 -132t84 -265z" />
    <glyph glyph-name="four" unicode="4" horiz-adv-x="1042" 
d="M750 432v924l-627 -924h627zM791 1434v-1002h165v-37h-165v-395h-41v395h-670v37l678 1002h33z" />
    <glyph glyph-name="five" unicode="5" horiz-adv-x="997" 
d="M834 1434v-37h-564l-63 -600q125 106 289 106t279 -126q116 -127 116 -325t-127 -330t-295 -132t-346 96l16 29q166 -88 324 -88q159 0 273 128t114 304t-108 293q-108 116 -258 116t-281 -116l-37 18l74 664h594z" />
    <glyph glyph-name="six" unicode="6" horiz-adv-x="1056" 
d="M554 879q-159 0 -260 -126t-101 -297t103 -300t257 -129t253 123t99 308t-96 303t-255 118zM602 1407q-190 0 -312 -177t-124 -571q0 -27 6 -81q28 158 138 248t247 89q172 -1 281 -125q108 -124 108 -326t-105 -338t-298 -136t-305 178t-111 496q0 223 42 368
q42 146 92 226t139 132q90 54 218 54t271 -76l-15 -31q-152 70 -272 70z" />
    <glyph glyph-name="seven" unicode="7" horiz-adv-x="911" 
d="M96 1434h760v-39l-534 -1395h-39l532 1397h-719v37z" />
    <glyph glyph-name="eight" unicode="8" horiz-adv-x="1007" 
d="M504 1407q-123 0 -209 -84t-86 -218t78 -228q78 -95 216 -95t216 94t78 230q0 135 -85 218t-208 83zM150 384q0 -151 98 -253t255 -102t256 103t99 253t-96 252t-258 102t-258 -102t-96 -253zM504 1444q141 0 237 -93q97 -93 97 -229t-60 -231q-60 -96 -172 -127
q135 -35 215 -134t80 -245q0 -183 -117 -289q-116 -106 -280 -106t-280 106t-115 289q0 147 80 247q81 99 214 132q-113 31 -173 126q-60 96 -60 232t96 229q97 93 238 93z" />
    <glyph glyph-name="nine" unicode="9" horiz-adv-x="1056" 
d="M152 972q0 -192 92 -308t252 -115q160 0 264 125t104 301t-103 304t-258 128t-253 -122q-98 -121 -98 -313zM891 778q0 37 -6 70q-33 -158 -142 -248t-237 -90q-186 0 -291 125q-104 125 -104 331t105 342t298 136q192 0 304 -176t112 -494q0 -226 -42 -371t-92 -225
t-140 -134t-217 -54q-128 0 -271 76l14 30q152 -70 273 -69q190 0 313 179t123 572z" />
    <glyph glyph-name="colon" unicode=":" horiz-adv-x="362" 
d="M145 39q1 15 11 27t26 12t26 -11t11 -28q0 -41 -37 -41t-37 41zM145 848q1 16 11 28t26 11q16 0 26 -11t11 -28q0 -41 -37 -41t-37 41z" />
    <glyph glyph-name="semicolon" unicode=";" horiz-adv-x="434" 
d="M216 80q26 0 44 -36t19 -83q0 -115 -115 -192l-8 14q50 39 74 105t-5 128q-4 -18 -26 -18q-33 0 -33 39q0 16 11 30q13 13 39 13zM168 847q0 17 11 29t28 11q35 0 35 -40t-35 -40q-16 0 -28 11q-11 12 -11 29z" />
    <glyph glyph-name="less" unicode="&#x3c;" horiz-adv-x="768" 
d="M600 999v-47l-453 -266l455 -266v-47l-485 293v41z" />
    <glyph glyph-name="equal" unicode="=" horiz-adv-x="882" 
d="M154 522h575v-39h-575v39zM154 836h575v-37h-575v37z" />
    <glyph glyph-name="greater" unicode="&#x3e;" horiz-adv-x="768" 
d="M166 952v47l483 -292v-41l-485 -293v47l450 266z" />
    <glyph glyph-name="question" unicode="?" horiz-adv-x="802" 
d="M352 90q43 0 43 -50t-43 -50q-49 0 -49 50t49 50zM362 1444q154 0 253 -90t99 -237t-122 -272q-52 -53 -102 -103q-123 -123 -121 -253v-170h-35v164q0 154 120 274q50 50 100 98q120 115 120 255q0 139 -90 216t-223 77t-242 -86l-19 31q108 96 262 96z" />
    <glyph glyph-name="at" unicode="@" horiz-adv-x="1642" 
d="M582 453q0 -100 60 -160t162 -60t178 78t77 197v106q-115 43 -217 43q-260 0 -260 -204zM1260 201q-94 0 -147 49q-52 49 -52 137v6q-29 -92 -102 -142t-171 -50t-171 66q-71 67 -71 191t86 177q85 53 200 53t227 -41v119q0 135 -54 186q-55 52 -161 52t-213 -33l-8 26
q115 37 235 37t176 -63q57 -63 58 -209v-346q0 -182 165 -183q258 0 259 414q0 197 -56 347t-153 239q-192 176 -455 176q-309 0 -508 -232q-199 -231 -199 -575q1 -344 183 -571t485 -228q131 0 242 45l10 -26q-129 -53 -258 -53q-309 1 -503 237t-194 596t211 600
q210 242 533 242q282 0 480 -188q100 -94 158 -248t58 -353q1 -454 -290 -454z" />
    <glyph glyph-name="A" unicode="A" horiz-adv-x="1138" 
d="M567 1403l-305 -942h615l-306 942h-4zM543 1440h51l475 -1440h-43l-137 426h-639l-139 -426h-41z" />
    <glyph glyph-name="B" unicode="B" horiz-adv-x="1150" 
d="M236 1397v-652h448q106 -1 179 89t73 236t-92 236q-92 91 -248 91h-360zM236 37h446q129 0 224 92q95 93 95 237t-89 243t-212 100h-464v-672zM195 1434h401q170 0 275 -100t106 -273q0 -254 -201 -334q113 -25 190 -123t76 -231q0 -169 -104 -271t-260 -102h-483v1434z
" />
    <glyph glyph-name="C" unicode="C" horiz-adv-x="1169" 
d="M725 1444q190 0 348 -96l-18 -31q-158 90 -326 90q-245 0 -409 -199q-164 -200 -164 -492t165 -491t408 -198q176 0 326 90l18 -31q-162 -96 -348 -96q-258 0 -437 209t-179 518t179 518t437 209z" />
    <glyph glyph-name="D" unicode="D" horiz-adv-x="1243" 
d="M238 1397v-1360h356q135 0 253 83q118 82 178 242t60 355t-60 355t-176 243q-116 82 -255 82h-356zM596 0h-401v1434h401q150 0 276 -88t191 -255t65 -374t-63 -374t-193 -255t-276 -88z" />
    <glyph glyph-name="E" unicode="E" horiz-adv-x="1128" 
d="M195 1434h806v-37h-765v-682h661v-37h-661v-641h798v-37h-839v1434z" />
    <glyph glyph-name="F" unicode="F" horiz-adv-x="1060" 
d="M195 1434h806v-37h-765v-690h661v-37h-661v-670h-41v1434z" />
    <glyph glyph-name="G" unicode="G" horiz-adv-x="1308" 
d="M739 1444q195 0 371 -103l-18 -30q-164 96 -351 96q-249 0 -417 -202q-168 -201 -168 -491t166 -489t406 -199t425 197v408h-354v35h395v-453q-102 -115 -227 -169t-240 -54q-258 0 -437 208t-179 516t182 519t446 211z" />
    <glyph glyph-name="H" unicode="H" horiz-adv-x="1298" 
d="M195 1434h43v-697h825v697h41v-1434h-41v702h-825v-702h-43v1434z" />
    <glyph glyph-name="I" unicode="I" horiz-adv-x="430" 
d="M195 1434h41v-1434h-41v1434z" />
    <glyph glyph-name="J" unicode="J" horiz-adv-x="876" 
d="M367 -10q-209 0 -334 225l28 21q92 -151 193 -190q49 -19 108 -19q143 0 218 109q74 110 73 282v1016h41v-1002q0 -206 -86 -324t-241 -118z" />
    <glyph glyph-name="K" unicode="K" horiz-adv-x="1056" 
d="M195 0v1434h41v-521l-3 -448l687 969h49l-455 -641l524 -793h-53l-498 758l-251 -355v-403h-41z" />
    <glyph glyph-name="L" unicode="L" horiz-adv-x="1017" 
d="M195 1434h41v-1397h749v-37h-790v1434z" />
    <glyph glyph-name="M" unicode="M" horiz-adv-x="1556" 
d="M1362 1434v-1434h-41v1386h-4l-516 -1302h-47l-514 1302h-4v-1386h-41v1434h67l514 -1307h2l518 1307h66z" />
    <glyph glyph-name="N" unicode="N" horiz-adv-x="1267" 
d="M195 1434h47l790 -1375v1375h41v-1434h-53l-784 1364v-1364h-41v1434z" />
    <glyph glyph-name="O" unicode="O" horiz-adv-x="1460" 
d="M729 1407q-255 1 -415 -197t-160 -495t160 -493t417 -196q256 0 417 196t161 490t-163 494t-417 201zM111 716q0 314 173 521t446 207q274 0 448 -207t174 -521t-173 -520t-449 -206t-447 206q-172 206 -172 520z" />
    <glyph glyph-name="P" unicode="P" horiz-adv-x="1093" 
d="M236 1397v-740h411q141 1 237 105t97 262q0 158 -97 266t-237 107h-411zM195 1434h458q158 0 266 -118q107 -118 105 -291t-108 -289t-263 -115h-417v-621h-41v1434z" />
    <glyph glyph-name="Q" unicode="Q" horiz-adv-x="1449" 
d="M723 1407q-254 1 -415 -197t-161 -495t161 -493t417 -196t417 196t161 490t-163 494t-417 201zM104 716q0 314 174 521t446 207q273 0 447 -207q175 -207 175 -501t-134 -491q-134 -196 -360 -243q98 -72 229 -129t187 -74l-15 -39q-57 14 -194 81t-258 155
q-39 -6 -78 -6q-274 0 -447 206q-172 206 -172 520z" />
    <glyph glyph-name="R" unicode="R" horiz-adv-x="1159" 
d="M236 1397v-697h438q143 0 232 98t89 246q0 150 -90 251t-231 102h-438zM195 1434h475q160 0 263 -112t103 -270t-78 -257q-78 -98 -206 -123l323 -672h-47l-317 664h-475v-664h-41v1434z" />
    <glyph glyph-name="S" unicode="S" horiz-adv-x="1015" 
d="M514 -10q-194 0 -405 106l14 33q225 -102 397 -102t266 85t94 252t-151 249q-69 38 -149 67q-80 28 -161 58t-149 70t-109 113q-42 73 -42 173q0 166 103 258q102 92 288 92t356 -82l-14 -33q-58 29 -160 53t-176 25q-158 0 -256 -81t-98 -220t79 -217t191 -115t222 -76
q112 -39 191 -124t79 -222q0 -176 -108 -269t-302 -93z" />
    <glyph glyph-name="T" unicode="T" horiz-adv-x="1005" 
d="M20 1434h965v-37h-461v-1397h-41v1397h-463v37z" />
    <glyph glyph-name="U" unicode="U" horiz-adv-x="1236" 
d="M182 1434h41v-1004q0 -174 112 -289q113 -115 285 -115t283 116q111 114 111 288v1004h41v-994q0 -202 -122 -326t-317 -124q-194 0 -314 125t-120 325v994z" />
    <glyph glyph-name="V" unicode="V" horiz-adv-x="1107" 
d="M68 1434h43l446 -1395l440 1395h43l-456 -1434h-56z" />
    <glyph glyph-name="W" unicode="W" horiz-adv-x="1656" 
d="M805 1434h47l340 -1373h2l338 1373h41l-352 -1434h-56l-336 1370h-2l-333 -1370h-56l-354 1434h41l340 -1373h2z" />
    <glyph glyph-name="X" unicode="X" horiz-adv-x="1089" 
d="M1042 0h-51l-444 674l-447 -674h-51l471 709l-471 725h51l447 -691l442 691h51l-467 -725z" />
    <glyph glyph-name="Y" unicode="Y" horiz-adv-x="1028" 
d="M532 0h-43v590l-432 844h49l404 -799h2l406 799h47l-433 -844v-590z" />
    <glyph glyph-name="Z" unicode="Z" 
d="M84 1434h891v-37l-862 -1362l2 -2l344 4h504v-37h-900v37l863 1362l-2 2l-443 -4h-397v37z" />
    <glyph glyph-name="bracketleft" unicode="[" horiz-adv-x="489" 
d="M399 1444v-37h-186v-1747h186v-39h-223v1823h223z" />
    <glyph glyph-name="backslash" unicode="\" horiz-adv-x="811" 
d="M698 -66l-624 1573h39l312 -786q208 -524 312 -787h-39z" />
    <glyph glyph-name="bracketright" unicode="]" horiz-adv-x="491" 
d="M90 1407v37h223v-1823h-223v39h186v1747h-186z" />
    <glyph glyph-name="underscore" unicode="_" horiz-adv-x="940" 
d="M143 -221h654v-35h-654v35z" />
    <glyph glyph-name="grave" unicode="`" horiz-adv-x="444" 
d="M152 1470l45 27l100 -254h-21z" />
    <glyph glyph-name="a" unicode="a" horiz-adv-x="980" 
d="M772 414v137q-147 37 -256 37t-167 -14t-111 -43q-117 -66 -117 -218q0 -151 84 -219t196 -67q156 0 264 117q107 118 107 270zM494 1075q162 0 240 -75q79 -75 79 -257v-649q0 -51 27 -58q10 -3 32 -3t54 6v-33q-37 -10 -72 -10q-82 0 -82 100v172q-39 -126 -141 -202
q-103 -76 -233 -76t-224 76t-94 242t114 241q114 76 266 76t312 -35v155q0 165 -73 229t-217 64t-300 -47l-10 33q160 51 322 51z" />
    <glyph glyph-name="b" unicode="b" horiz-adv-x="1122" 
d="M981 532q-1 210 -117 358t-281 148t-274 -143t-109 -359t108 -363q108 -146 274 -146t282 148t117 357zM162 1499h41v-754q45 158 151 244t236 86q180 -1 306 -157t126 -384t-122 -387q-122 -158 -310 -157q-139 0 -245 92q-105 92 -144 242l-8 -324h-31v1499z" />
    <glyph glyph-name="c" unicode="c" horiz-adv-x="907" 
d="M575 -10q-203 0 -339 156t-138 386q0 228 138 386t342 157q121 0 241 -59l-14 -29q-100 51 -221 51q-190 0 -319 -149q-128 -150 -128 -357q0 -206 128 -356t317 -149q111 0 223 51l14 -29q-125 -59 -244 -59z" />
    <glyph glyph-name="d" unicode="d" horiz-adv-x="1124" 
d="M541 27q165 0 273 146q108 147 108 363t-108 359t-274 143q-165 0 -282 -148t-117 -358t117 -357q117 -148 283 -148zM920 1499h41v-1499h-31l-8 324q-38 -150 -144 -242t-246 -92q-188 0 -310 158t-122 385t126 385t306 157q130 0 236 -86t152 -244v754z" />
    <glyph glyph-name="e" unicode="e" 
d="M139 549h779q-4 271 -165 413q-87 77 -210 76q-174 0 -289 -145t-115 -344zM569 -10q-205 0 -338 159t-133 384t124 383t320 159t306 -155t110 -369q0 -27 -2 -37h-817q4 -203 126 -345t310 -142q129 0 285 79l14 -30q-168 -86 -305 -86z" />
    <glyph glyph-name="f" unicode="f" horiz-adv-x="536" 
d="M215 1198v-133h279v-35h-279v-1030h-41v1030h-108v25l108 10v127q0 156 47 238t172 81q53 0 119 -16l-8 -35q-57 14 -109 15q-106 0 -143 -71t-37 -206z" />
    <glyph glyph-name="g" unicode="g" horiz-adv-x="913" 
d="M131 -76q0 -233 330 -233t330 243q0 115 -71 158t-204 45t-169 5t-89 20q-127 -98 -127 -238zM750 752q0 134 -77 210t-207 76t-208 -74t-78 -211q0 -138 74 -215t211 -77t211 78t74 213zM827 1065v-27l-192 -8q156 -76 156 -278q0 -152 -85 -240t-241 -88
q-106 0 -197 51q-92 -78 -92 -166t99 -115q74 -20 180 -20h69q154 0 231 -56t76 -184q-1 -282 -371 -282t-370 268q0 145 131 256q-82 49 -82 142t103 178q-102 88 -102 249t88 245q89 84 237 85q47 0 104 -10h258z" />
    <glyph glyph-name="h" unicode="h" horiz-adv-x="1058" 
d="M162 1499h41v-725q20 90 103 191q42 49 110 79t147 31q170 0 257 -123t87 -338v-614h-43v621q0 193 -79 305t-226 112q-111 0 -195 -70q-157 -131 -161 -360v-608h-41v1499z" />
    <glyph glyph-name="i" unicode="i" horiz-adv-x="370" 
d="M82 1065h127v-1065h-41v1026l-86 16v23zM121 1309q0 23 15 39t37 16t36 -16t14 -39t-14 -38q-13 -15 -35 -15t-38 14q-16 16 -15 39z" />
    <glyph glyph-name="j" unicode="j" horiz-adv-x="372" 
d="M123 1309q0 23 15 39t37 16t36 -16t14 -39t-14 -38q-13 -15 -35 -15t-38 14q-16 16 -15 39zM66 -319q109 0 108 178v1167l-86 16v23h127v-1210q0 -211 -147 -211q-47 0 -88 18l12 33q37 -14 74 -14z" />
    <glyph glyph-name="k" unicode="k" horiz-adv-x="811" 
d="M162 1499h41v-639l-2 -473l506 678h47l-365 -487l371 -578h-47l-346 549l-164 -217v-332h-41v1499z" />
    <glyph glyph-name="l" unicode="l" horiz-adv-x="395" 
d="M172 1499h41v-1399q0 -74 59 -73l54 8v-35q-31 -10 -62 -10q-92 0 -92 100v1409z" />
    <glyph glyph-name="m" unicode="m" horiz-adv-x="1572" 
d="M162 1065h28l11 -234q33 115 117 180q85 65 196 65q112 0 190 -68t97 -185q23 109 111 181q89 72 200 71q156 0 232 -100t75 -270v-705h-41v702q0 164 -70 250q-71 86 -199 86t-214 -100t-86 -258v-680h-41v717q0 161 -74 241t-196 80t-208 -104q-87 -104 -87 -254v-680
h-41v1065z" />
    <glyph glyph-name="n" unicode="n" horiz-adv-x="1056" 
d="M162 1065h31l10 -289q25 106 116 203q92 96 253 96t248 -124t87 -337v-614h-41v621q0 193 -80 305t-225 112q-115 0 -200 -72q-158 -135 -158 -372v-594h-41v1065z" />
    <glyph glyph-name="o" unicode="o" horiz-adv-x="1112" 
d="M557 1038q-188 0 -304 -143t-116 -363t116 -363q116 -142 304 -142t304 142t116 362q0 219 -116 363t-304 144zM96 532q0 238 127 391t334 153t334 -154q127 -152 127 -390t-127 -390t-334 -152t-334 152t-127 390z" />
    <glyph glyph-name="p" unicode="p" horiz-adv-x="1120" 
d="M582 1038q-166 0 -274 -146t-108 -360t110 -360q110 -145 274 -145t280 148t117 357q-1 210 -117 358t-282 148zM588 1075q182 -1 308 -157t126 -384t-123 -386q-123 -159 -309 -158q-135 0 -243 89t-144 243v-670h-41v1413h31l8 -330q41 162 147 251q107 89 240 89z" />
    <glyph glyph-name="q" unicode="q" horiz-adv-x="1120" 
d="M539 1038q-166 0 -283 -148t-117 -358t117 -357q117 -148 281 -148q163 0 273 144t110 358q0 213 -108 361t-273 148zM532 1075q134 0 240 -89t148 -251l8 330h30v-1413h-40v670q-37 -154 -145 -243t-243 -89q-186 0 -309 158t-123 388q0 228 126 384t308 155z" />
    <glyph glyph-name="r" unicode="r" horiz-adv-x="536" 
d="M162 1065h31l6 -231q33 109 110 171q78 62 178 62v-37q-117 -2 -201 -96t-83 -248v-686h-41v1065z" />
    <glyph glyph-name="s" unicode="s" horiz-adv-x="811" 
d="M406 -10q-156 0 -304 80l15 32q152 -76 289 -76q138 0 208 61q70 60 70 173q0 141 -131 202q-54 26 -143 54q-90 28 -130 46t-85 52q-91 67 -91 193q0 127 80 198t222 71t276 -58l-14 -33q-115 53 -246 53t-204 -57t-73 -171t82 -169q60 -40 153 -70q228 -73 287 -139
q58 -67 58 -184q0 -118 -82 -188q-81 -70 -237 -70z" />
    <glyph glyph-name="t" unicode="t" horiz-adv-x="565" 
d="M492 45l4 -33q-56 -22 -114 -22q-105 1 -154 54q-34 39 -41 144q-1 31 -1 95v747h-139v25l139 10l13 307h28v-307h267v-35h-267v-747q0 -182 33 -215q41 -41 103 -41q61 0 129 18z" />
    <glyph glyph-name="u" unicode="u" horiz-adv-x="1058" 
d="M152 1065h41v-639q0 -399 309 -399q172 1 263 121t91 280v637h41v-1065h-31l-8 254q-35 -123 -130 -194t-230 -70q-170 0 -258 112t-88 326v637z" />
    <glyph glyph-name="v" unicode="v" horiz-adv-x="901" 
d="M82 1065h45l324 -1028l323 1028h45l-340 -1065h-57z" />
    <glyph glyph-name="w" unicode="w" horiz-adv-x="1402" 
d="M674 1065h51l262 -1010l285 1010h45l-301 -1065h-58l-258 1006l-260 -1006h-57l-297 1065h43l283 -1010z" />
    <glyph glyph-name="x" unicode="x" horiz-adv-x="868" 
d="M55 0l357 535l-355 530h49l330 -496h2l324 496h49l-350 -528l356 -537h-49l-330 500h-2l-332 -500h-49z" />
    <glyph glyph-name="y" unicode="y" horiz-adv-x="905" 
d="M82 1065h43l334 -1024l321 1024h43l-450 -1413h-43l106 338z" />
    <glyph glyph-name="z" unicode="z" horiz-adv-x="872" 
d="M84 1065h713v-35l-686 -997l2 -2l311 4h373v-35h-734v33l687 999l-2 2l-328 -4h-336v35z" />
    <glyph glyph-name="braceleft" unicode="{" horiz-adv-x="559" 
d="M254 338v-410q0 -156 35 -212t149 -56h31v-39h-25q-141 0 -185 67t-44 244v408q0 172 -135 174v39q135 4 135 174v406q0 179 44 245t185 66h25v-39h-31q-116 0 -150 -56t-34 -212v-406q0 -163 -98 -196q98 -37 98 -197z" />
    <glyph glyph-name="bar" unicode="|" horiz-adv-x="389" 
d="M176 1645h37v-1944h-37v1944z" />
    <glyph glyph-name="braceright" unicode="}" horiz-adv-x="557" 
d="M303 731v406q0 156 -35 212t-149 56h-31v39h25q141 0 185 -67t44 -244v-406q0 -170 135 -174v-39q-135 -2 -135 -174v-408q0 -178 -44 -244t-185 -67h-25v39h31q115 0 149 56t35 212v410q0 160 98 197q-98 33 -98 196z" />
    <glyph glyph-name="exclamdown" unicode="&#xa1;" horiz-adv-x="393" 
d="M166 -377l16 1073h29l16 -1073h-61zM199 977q-47 0 -47 50t47 50t47 -50t-47 -50z" />
    <glyph glyph-name="cent" unicode="&#xa2;" horiz-adv-x="993" 
d="M563 -10h-26v172q-193 14 -318 168t-125 372t125 373q125 154 318 168v174h26v-172h4q125 0 248 -61l-8 -31q-106 55 -234 55q-193 0 -315 -146t-123 -360q0 -214 123 -359q123 -146 315 -146q107 0 205 41l29 14l8 -31q-123 -61 -248 -61h-4v-170z" />
    <glyph glyph-name="sterling" unicode="&#xa3;" horiz-adv-x="1009" 
d="M552 1407q-144 0 -220 -102t-76 -269v-338h473v-34h-473v-406q0 -156 -102 -221h727v-37h-772v39q12 6 29 21q17 16 47 72t30 126v406h-102v34h102v336q0 186 85 298t250 112t267 -154l-26 -22q-95 139 -239 139z" />
    <glyph glyph-name="yen" unicode="&#xa5;" horiz-adv-x="1034" 
d="M543 512h243v-31h-243v-129h243v-33h-243v-319h-43v319h-250v33h250v129h-250v31h250v78l-437 844h48l409 -799l404 799h47l-428 -844v-78z" />
    <glyph glyph-name="section" unicode="&#xa7;" horiz-adv-x="1044" 
d="M160 588q0 -143 139 -226q104 -60 240 -103q137 -44 182 -64q162 150 162 305q0 117 -93 190t-232 118t-234 87q-164 -133 -164 -307zM862 -53q0 92 -77 154q-77 63 -185 99t-218 76q-108 40 -184 117q-76 78 -77 195q0 172 172 325q-156 90 -156 226q0 295 398 295
q166 0 350 -91l-15 -34q-188 86 -338 86q-350 0 -350 -256q0 -97 77 -159t185 -98t218 -75t186 -115t76 -192q0 -76 -39 -153t-71 -111t-60 -62q154 -92 153 -227q0 -295 -397 -295q-162 0 -352 88l14 35q174 -82 334 -84q356 -4 356 256z" />
    <glyph glyph-name="dieresis" unicode="&#xa8;" horiz-adv-x="698" 
d="M475 1284q0 16 13 30q14 14 30 13q16 0 28 -13q12 -14 13 -30q0 -16 -12 -30q-13 -14 -29 -13q-16 0 -30 13q-13 14 -13 30zM143 1284q-1 16 13 30t30 13q16 0 30 -13q14 -14 13 -30q0 -16 -13 -30q-14 -14 -30 -13q-16 -1 -30 13t-13 30z" />
    <glyph glyph-name="copyright" unicode="&#xa9;" horiz-adv-x="1462" 
d="M1315 724q0 286 -171 488t-412 203q-241 0 -413 -203q-172 -202 -172 -488t171 -488t413 -203q242 0 413 203q171 202 171 488zM731 1450q254 0 433 -212t179 -512t-179 -513t-432 -213t-433 213t-180 512t179 512t433 213zM736 1036q-94 0 -170 -91t-77 -216
q0 -125 76 -215t171 -90t165 55l19 -24q-78 -68 -188 -68t-196 98q-86 99 -85 241q0 142 87 244q88 102 196 104q108 0 188 -70l-19 -23q-73 55 -167 55z" />
    <glyph glyph-name="ordfeminine" unicode="&#xaa;" horiz-adv-x="849" 
d="M123 604v27h596v-27h-596zM412 1167q-227 0 -228 -178q0 -88 54 -139t144 -51q91 1 157 73t65 170v84q-96 41 -192 41zM421 1507q114 0 164 -57t50 -186v-433q0 -31 27 -30l32 4v-25q-23 -6 -39 -6q-49 0 -49 53v113q-27 -80 -90 -125t-150 -45t-151 55q-63 55 -63 162
q0 207 256 207q102 0 196 -39v96q0 119 -37 173t-142 54t-216 -36l-8 24q106 41 220 41z" />
    <glyph glyph-name="guillemotleft" unicode="&#xab;" horiz-adv-x="903" 
d="M776 100l-20 -20l-340 446v6l338 455l24 -20l-309 -435zM432 987l25 -20l-310 -435l308 -432l-21 -20l-340 446v6z" />
    <glyph glyph-name="registered" unicode="&#xae;" horiz-adv-x="1075" 
d="M434 1202v-215h135q39 0 66 31t27 76q0 44 -27 76t-68 32h-133zM416 1219h155q45 0 77 -37t32 -86t-26 -83t-68 -42l106 -213h-20l-107 213h-131v-213h-18v461zM537 1421q-163 0 -265 -126t-102 -310t100 -310t264 -126t266 125q103 125 103 310t-101 311t-265 126z
M537 1444q173 0 281 -131t108 -325t-109 -326t-281 -134q-172 0 -279 132q-108 132 -107 327q0 195 106 326q107 131 281 131z" />
    <glyph glyph-name="macron" unicode="&#xaf;" horiz-adv-x="780" 
d="M147 1303h494v-35h-494v35z" />
    <glyph glyph-name="degree" unicode="&#xb0;" horiz-adv-x="579" 
d="M414 1287q0 59 -38 101t-87 42t-87 -41t-38 -101t37 -102q37 -41 88 -41t88 41t37 101zM137 1289q0 75 45 123q44 48 106 48t107 -48t45 -123t-44 -125t-107 -50t-108 50q-44 50 -44 125z" />
    <glyph glyph-name="plusminus" unicode="&#xb1;" horiz-adv-x="837" 
d="M152 299h532v-35h-532v35zM401 1069h33v-272h250v-35h-250v-273h-33v273h-249v35h249v272z" />
    <glyph glyph-name="acute" unicode="&#xb4;" horiz-adv-x="444" 
d="M244 1503l41 -20l-113 -240h-20z" />
    <glyph glyph-name="mu" unicode="&#xb5;" horiz-adv-x="1058" 
d="M213 -352h-39v1417h41v-612q0 -193 80 -310t248 -116q137 -1 237 119t101 276v643h41v-1065h-29l-10 260q-39 -114 -134 -192t-216 -78t-205 68t-115 188v-598z" />
    <glyph glyph-name="paragraph" unicode="&#xb6;" horiz-adv-x="798" 
d="M606 -178h-35v1579h-104v-1579h-35v848h-67q-135 6 -210 120t-75 274t83 266q83 108 214 108h229v-1616z" />
    <glyph glyph-name="periodcentered" unicode="&#xb7;" horiz-adv-x="440" 
d="M219 696q31 0 53 -26t23 -61q0 -35 -23 -59q-22 -24 -54 -24t-54 24t-21 60t23 60q22 26 53 26z" />
    <glyph glyph-name="cedilla" unicode="&#xb8;" horiz-adv-x="536" 
d="M397 -270q0 -62 -45 -92t-104 -31q-59 0 -103 14l7 23q41 -10 81 -11q125 0 125 99q0 42 -26 70t-59 28q-34 0 -44 -2l-18 20l43 134h27l-39 -132q66 11 111 -23q44 -35 44 -97z" />
    <glyph glyph-name="ordmasculine" unicode="&#xba;" horiz-adv-x="958" 
d="M477 799q131 0 210 97q79 96 79 242t-79 243t-210 97t-210 -96q-79 -98 -79 -243t79 -243t210 -97zM477 1507q145 0 233 -106t89 -262q0 -156 -88 -262q-87 -107 -233 -107t-234 106t-88 263q0 156 88 262t233 106zM180 604v27h596v-27h-596z" />
    <glyph glyph-name="guillemotright" unicode="&#xbb;" horiz-adv-x="901" 
d="M147 80l-20 20l307 432l-309 435l25 20l337 -455v-6zM446 967l25 20l338 -455v-6l-340 -446l-20 20l307 432z" />
    <glyph glyph-name="questiondown" unicode="&#xbf;" horiz-adv-x="786" 
d="M444 975q-43 0 -43 50t43 50q49 0 49 -50t-49 -50zM434 -379q-154 0 -253 90t-99 237t123 272q51 52 101 102q122 123 122 253v170h35v-163q0 -154 -120 -274q-50 -50 -100 -98q-120 -115 -120 -255q0 -139 90 -216t223 -77t242 86l18 -31q-108 -96 -262 -96z" />
    <glyph glyph-name="Agrave" unicode="&#xc0;" horiz-adv-x="1138" 
d="M567 1403l-305 -942h615l-306 942h-4zM543 1440h51l475 -1440h-43l-137 426h-639l-139 -426h-41zM444 1772l41 20l97 -276h-33z" />
    <glyph glyph-name="Aacute" unicode="&#xc1;" horiz-adv-x="1138" 
d="M567 1403l-305 -942h615l-306 942h-4zM543 1440h51l475 -1440h-43l-137 426h-639l-139 -426h-41zM655 1792l41 -20l-104 -256h-33z" />
    <glyph glyph-name="Acircumflex" unicode="&#xc2;" horiz-adv-x="1138" 
d="M567 1403l-305 -942h615l-306 942h-4zM543 1440h51l475 -1440h-43l-137 426h-639l-139 -426h-41zM434 1524h-45l164 192h27l163 -192h-45l-131 155z" />
    <glyph glyph-name="Atilde" unicode="&#xc3;" horiz-adv-x="1138" 
d="M567 1403l-305 -942h615l-306 942h-4zM543 1440h51l475 -1440h-43l-137 426h-639l-139 -426h-41zM467 1634q39 0 105 -40t116 -40q49 0 98 66l15 -12q-49 -92 -131 -92q-41 0 -108 40t-118 41q-51 0 -92 -61l-14 12q41 86 129 86z" />
    <glyph glyph-name="Adieresis" unicode="&#xc4;" horiz-adv-x="1140" 
d="M567 1403l-305 -942h615l-306 942h-4zM543 1440h51l475 -1440h-43l-137 426h-639l-139 -426h-41zM692 1567q0 16 14 29q31 30 58 0q12 -13 12 -29q0 -15 -12 -29t-28 -14t-30 14t-14 29zM360 1567q0 16 14 29q30 29 59 0q13 -13 13 -29q0 -15 -13 -29t-29 -14t-30 14
t-14 29z" />
    <glyph glyph-name="Aring" unicode="&#xc5;" horiz-adv-x="1138" 
d="M567 1403l-305 -942h615l-306 942h-4zM543 1440h51l475 -1440h-43l-137 426h-639l-139 -426h-41zM569 1556q45 0 80 31t35 84t-35 83t-80 30t-79 -30t-34 -84t34 -84t79 -30zM569 1524q-67 0 -109 41t-42 105t43 106q43 41 109 41t110 -41q43 -42 43 -106t-44 -105
t-110 -41z" />
    <glyph glyph-name="AE" unicode="&#xc6;" horiz-adv-x="1607" 
d="M741 1397h-90l-370 -934h460v934zM1548 1434v-37h-766v-682h662v-37h-662v-641h799v-37h-840v426h-477l-168 -426h-45l576 1434h921z" />
    <glyph glyph-name="Ccedilla" unicode="&#xc7;" horiz-adv-x="1169" 
d="M725 1444q190 0 348 -96l-18 -31q-158 90 -326 90q-245 0 -409 -199q-164 -200 -164 -492t165 -491t408 -198q176 0 326 90l18 -31q-170 -92 -346 -96l-39 -140q67 11 112 -23q44 -35 44 -97t-45 -92t-105 -31q-60 0 -102 14l6 23q41 -10 82 -11q125 0 125 99
q0 42 -26 70q-25 28 -59 28t-44 -2l-19 20l48 144q-252 8 -424 215t-172 513t179 515t437 209z" />
    <glyph glyph-name="Egrave" unicode="&#xc8;" horiz-adv-x="1124" 
d="M195 1434h806v-37h-765v-682h661v-37h-661v-641h798v-37h-839v1434zM514 1772l41 20l96 -276h-33z" />
    <glyph glyph-name="Eacute" unicode="&#xc9;" horiz-adv-x="1124" 
d="M195 1434h806v-37h-765v-682h661v-37h-661v-641h798v-37h-839v1434zM655 1792l41 -20l-104 -256h-33z" />
    <glyph glyph-name="Ecircumflex" unicode="&#xca;" horiz-adv-x="1124" 
d="M195 1434h806v-37h-765v-682h661v-37h-661v-641h798v-37h-839v1434zM489 1524h-45l164 192h27l164 -192h-45l-131 155z" />
    <glyph glyph-name="Edieresis" unicode="&#xcb;" horiz-adv-x="1124" 
d="M195 1434h806v-37h-765v-682h661v-37h-661v-641h798v-37h-839v1434zM743 1567q-1 16 13 29q31 30 59 0q12 -13 12 -29q0 -15 -12 -29q-13 -14 -29 -14t-30 14t-13 29zM412 1567q0 16 13 29q31 31 60 1t-1 -60q-13 -13 -29 -13t-30 13q-13 14 -13 30z" />
    <glyph glyph-name="Igrave" unicode="&#xcc;" horiz-adv-x="432" 
d="M197 1434h41v-1434h-41v1434zM94 1772l41 20l96 -276h-32z" />
    <glyph glyph-name="Iacute" unicode="&#xcd;" horiz-adv-x="430" 
d="M195 1434h41v-1434h-41v1434zM299 1792l41 -20l-104 -256h-33z" />
    <glyph glyph-name="Icircumflex" unicode="&#xce;" horiz-adv-x="430" 
d="M197 1434h41v-1434h-41v1434zM84 1524h-45l164 192h26l164 -192h-45l-131 155z" />
    <glyph glyph-name="Idieresis" unicode="&#xcf;" horiz-adv-x="434" 
d="M197 1434h41v-1434h-41v1434zM342 1567q0 16 13 29q31 31 59 0q12 -13 12 -29q0 -15 -12 -29t-28 -14t-31 13q-13 14 -13 30zM10 1567q0 16 14 29q30 29 59 0q13 -13 13 -29q0 -15 -13 -29t-29 -14t-30 14t-14 29z" />
    <glyph glyph-name="Eth" unicode="&#xd0;" horiz-adv-x="1247" 
d="M244 1397v-662h327v-30h-327v-668h356q135 0 253 83q118 82 178 242t61 355q0 195 -60 355t-177 243q-116 82 -255 82h-356zM602 0h-401v705h-168v30h168v699h401q150 0 276 -88t191 -255q66 -167 66 -374q1 -207 -63 -374t-194 -255t-276 -88z" />
    <glyph glyph-name="Ntilde" unicode="&#xd1;" horiz-adv-x="1267" 
d="M195 1434h47l790 -1375v1375h41v-1434h-53l-784 1364v-1364h-41v1434zM541 1634q39 0 105 -40t116 -40q49 0 98 66l14 -12q-49 -92 -131 -92q-41 0 -107 40t-118 41q-51 0 -92 -61l-14 12q41 86 129 86z" />
    <glyph glyph-name="Ograve" unicode="&#xd2;" horiz-adv-x="1460" 
d="M729 1407q-255 1 -415 -197t-160 -495t160 -493t417 -196q256 0 417 196t161 490t-163 494t-417 201zM111 716q0 314 173 521t446 207q274 0 448 -207t174 -521t-173 -520t-449 -206t-447 206q-172 206 -172 520zM645 1772l41 20l96 -276h-32z" />
    <glyph glyph-name="Oacute" unicode="&#xd3;" horiz-adv-x="1460" 
d="M729 1407q-255 1 -415 -197t-160 -495t160 -493t417 -196q256 0 417 196t161 490t-163 494t-417 201zM111 716q0 314 173 521t446 207q274 0 448 -207t174 -521t-173 -520t-449 -206t-447 206q-172 206 -172 520zM784 1792l41 -20l-104 -256h-33z" />
    <glyph glyph-name="Ocircumflex" unicode="&#xd4;" horiz-adv-x="1460" 
d="M729 1407q-255 1 -415 -197t-160 -495t160 -493t417 -196q256 0 417 196t161 490t-163 494t-417 201zM111 716q0 314 173 521t446 207q274 0 448 -207t174 -521t-173 -520t-449 -206t-447 206q-172 206 -172 520zM600 1524h-45l164 192h26l164 -192h-45l-131 155z" />
    <glyph glyph-name="Otilde" unicode="&#xd5;" horiz-adv-x="1460" 
d="M729 1407q-255 1 -415 -197t-160 -495t160 -493t417 -196q256 0 417 196t161 490t-163 494t-417 201zM111 716q0 314 173 521t446 207q274 0 448 -207t174 -521t-173 -520t-449 -206t-447 206q-172 206 -172 520zM637 1634q39 0 105 -40t116 -40q49 0 98 66l15 -12
q-49 -92 -131 -92q-41 0 -108 40t-118 41q-51 0 -92 -61l-14 12q41 86 129 86z" />
    <glyph glyph-name="Odieresis" unicode="&#xd6;" horiz-adv-x="1460" 
d="M729 1407q-255 1 -415 -197t-160 -495t160 -493t417 -196q256 0 417 196t161 490t-163 494t-417 201zM111 716q0 314 173 521t446 207q274 0 448 -207t174 -521t-173 -520t-449 -206t-447 206q-172 206 -172 520zM856 1567q0 16 13 29q31 31 59 0q12 -13 12 -29
q0 -15 -12 -29t-28 -14t-31 13q-13 14 -13 30zM524 1567q0 16 14 29q30 29 59 0q13 -13 13 -29q0 -15 -13 -29t-29 -14t-30 14t-14 29z" />
    <glyph glyph-name="multiply" unicode="&#xd7;" horiz-adv-x="772" 
d="M180 932l207 -240l209 240l25 -25l-209 -243l211 -248l-27 -21l-209 242l-207 -242l-28 21l210 248l-206 243z" />
    <glyph glyph-name="Oslash" unicode="&#xd8;" horiz-adv-x="1460" 
d="M1309 713q0 177 -65 329t-179 246l-639 -1169q131 -92 303 -92q258 -1 419 195t161 491zM154 713q0 -182 63 -332t180 -242l637 1172q-135 96 -305 96q-255 1 -415 -197t-160 -497zM111 715q0 315 173 522t445 207q180 0 326 -96l80 145h43l-93 -168q125 -98 196 -258
t71 -352q0 -313 -173 -519t-450 -206q-184 0 -321 94l-78 -141h-41l88 161q-125 96 -196 256q-70 160 -70 355z" />
    <glyph glyph-name="Ugrave" unicode="&#xd9;" horiz-adv-x="1236" 
d="M182 1434h41v-1004q0 -174 112 -289q113 -115 285 -115t283 116q111 114 111 288v1004h41v-994q0 -202 -122 -326t-317 -124q-194 0 -314 125t-120 325v994zM549 1772l41 20l96 -276h-33z" />
    <glyph glyph-name="Uacute" unicode="&#xda;" horiz-adv-x="1236" 
d="M182 1434h41v-1004q0 -174 112 -289q113 -115 285 -115t283 116q111 114 111 288v1004h41v-994q0 -202 -122 -326t-317 -124q-194 0 -314 125t-120 325v994zM662 1792l40 -20l-104 -256h-33z" />
    <glyph glyph-name="Ucircumflex" unicode="&#xdb;" horiz-adv-x="1236" 
d="M182 1434h41v-1004q0 -174 112 -289q113 -115 285 -115t283 116q111 114 111 288v1004h41v-994q0 -202 -122 -326t-317 -124q-194 0 -314 125t-120 325v994zM485 1524h-45l164 192h27l164 -192h-45l-132 155z" />
    <glyph glyph-name="Udieresis" unicode="&#xdc;" horiz-adv-x="1236" 
d="M182 1434h41v-1004q0 -174 112 -289q113 -115 285 -115t283 116q111 114 111 288v1004h41v-994q0 -202 -122 -326t-317 -124q-194 0 -314 125t-120 325v994zM743 1567q-1 16 13 29q31 30 59 0q12 -13 12 -29q0 -15 -12 -29q-13 -14 -29 -14t-30 14t-13 29zM412 1567
q0 16 13 29q31 31 60 1t-1 -60q-13 -13 -29 -13t-30 13q-13 14 -13 30z" />
    <glyph glyph-name="Yacute" unicode="&#xdd;" horiz-adv-x="1028" 
d="M532 0h-43v590l-432 844h49l404 -799h2l406 799h47l-433 -844v-590zM561 1792l41 -20l-104 -256h-33z" />
    <glyph glyph-name="Thorn" unicode="&#xde;" horiz-adv-x="1101" 
d="M236 1098v-744h411q139 0 237 109q97 109 97 267t-96 262q-96 105 -238 106h-411zM195 1434h41v-299h417q158 0 266 -117q107 -117 105 -290t-108 -292t-263 -119h-417v-317h-41v1434z" />
    <glyph glyph-name="germandbls" unicode="&#xdf;" horiz-adv-x="966" 
d="M721 1102q0 306 -260 305q-107 1 -181 -85q-30 -36 -54 -111t-23 -177v-1034h-41v1032q0 111 25 192q26 81 59 122q33 42 89 70t122 28q141 0 223 -84t82 -240q0 -74 -58 -204t-59 -196q0 -106 88 -189q37 -35 74 -71q88 -87 88 -222q0 -289 -274 -289q-76 0 -152 20
t-102 37l10 31q90 -51 244 -51q109 0 171 66t62 166q0 102 -39 165t-86 98t-86 93t-39 138t58 204q58 126 59 186z" />
    <glyph glyph-name="agrave" unicode="&#xe0;" horiz-adv-x="980" 
d="M772 414v137q-147 37 -256 37t-167 -14t-111 -43q-117 -66 -117 -218q0 -151 84 -219t196 -67q156 0 264 117q107 118 107 270zM494 1075q162 0 240 -75q79 -75 79 -257v-649q0 -51 27 -58q10 -3 32 -3t54 6v-33q-37 -10 -72 -10q-82 0 -82 100v172q-39 -126 -141 -202
q-103 -76 -233 -76t-224 76t-94 242t114 241q114 76 266 76t312 -35v155q0 165 -73 229t-217 64t-300 -47l-10 33q160 51 322 51zM412 1452l41 21l96 -277h-33z" />
    <glyph glyph-name="aacute" unicode="&#xe1;" horiz-adv-x="980" 
d="M772 414v137q-147 37 -256 37t-167 -14t-111 -43q-117 -66 -117 -218q0 -151 84 -219t196 -67q156 0 264 117q107 118 107 270zM494 1075q162 0 240 -75q79 -75 79 -257v-649q0 -51 27 -58q10 -3 32 -3t54 6v-33q-37 -10 -72 -10q-82 0 -82 100v172q-39 -126 -141 -202
q-103 -76 -233 -76t-224 76t-94 242t114 241q114 76 266 76t312 -35v155q0 165 -73 229t-217 64t-300 -47l-10 33q160 51 322 51zM555 1473l41 -21l-104 -256h-33z" />
    <glyph glyph-name="acircumflex" unicode="&#xe2;" horiz-adv-x="980" 
d="M772 414v137q-147 37 -256 37t-167 -14t-111 -43q-117 -66 -117 -218q0 -151 84 -219t196 -67q156 0 264 117q107 118 107 270zM494 1075q162 0 240 -75q79 -75 79 -257v-649q0 -51 27 -58q10 -3 32 -3t54 6v-33q-37 -10 -72 -10q-82 0 -82 100v172q-39 -126 -141 -202
q-103 -76 -233 -76t-224 76t-94 242t114 241q114 76 266 76t312 -35v155q0 165 -73 229t-217 64t-300 -47l-10 33q160 51 322 51zM354 1196h-45l164 193h27l164 -193h-46l-131 156z" />
    <glyph glyph-name="atilde" unicode="&#xe3;" horiz-adv-x="980" 
d="M772 414v137q-147 37 -256 37t-167 -14t-111 -43q-117 -66 -117 -218q0 -151 84 -219t196 -67q156 0 264 117q107 118 107 270zM494 1075q162 0 240 -75q79 -75 79 -257v-649q0 -51 27 -58q10 -3 32 -3t54 6v-33q-37 -10 -72 -10q-82 0 -82 100v172q-39 -126 -141 -202
q-103 -76 -233 -76t-224 76t-94 242t114 241q114 76 266 76t312 -35v155q0 165 -73 229t-217 64t-300 -47l-10 33q160 51 322 51zM389 1307q39 0 106 -40t115 -40t99 65l14 -12q-49 -92 -131 -92q-41 0 -108 41t-118 41t-92 -62l-14 13q41 86 129 86z" />
    <glyph glyph-name="adieresis" unicode="&#xe4;" horiz-adv-x="980" 
d="M772 414v137q-147 37 -256 37t-167 -14t-111 -43q-117 -66 -117 -218q0 -151 84 -219t196 -67q156 0 264 117q107 118 107 270zM494 1075q162 0 240 -75q79 -75 79 -257v-649q0 -51 27 -58q10 -3 32 -3t54 6v-33q-37 -10 -72 -10q-82 0 -82 100v172q-39 -126 -141 -202
q-103 -76 -233 -76t-224 76t-94 242t114 241q114 76 266 76t312 -35v155q0 165 -73 229t-217 64t-300 -47l-10 33q160 51 322 51zM645 1243q0 15 13 29q14 14 30 14t28 -13t13 -29q0 -16 -12 -30q-13 -14 -29 -14t-30 13q-13 14 -13 30zM313 1243q-1 15 13 29t30 14t30 -13
t13 -29q0 -16 -13 -30q-14 -14 -30 -14t-30 14t-13 29z" />
    <glyph glyph-name="aring" unicode="&#xe5;" horiz-adv-x="980" 
d="M772 414v137q-147 37 -256 37t-167 -14t-111 -43q-117 -66 -117 -218q0 -151 84 -219t196 -67q156 0 264 117q107 118 107 270zM494 1075q162 0 240 -75q79 -75 79 -257v-649q0 -51 27 -58q10 -3 32 -3t54 6v-33q-37 -10 -72 -10q-82 0 -82 100v172q-39 -126 -141 -202
q-103 -76 -233 -76t-224 76t-94 242t114 241q114 76 266 76t312 -35v155q0 165 -73 229t-217 64t-300 -47l-10 33q160 51 322 51zM524 1227q45 1 80 31t35 83t-35 83t-80 30t-79 -30q-33 -30 -33 -84t33 -84q34 -29 79 -29zM524 1194q-66 0 -108 41t-43 105q0 64 43 106
q44 41 110 41t109 -41q43 -42 43 -106t-44 -105t-110 -41z" />
    <glyph glyph-name="ae" unicode="&#xe6;" horiz-adv-x="1681" 
d="M721 545v14q-129 29 -221 29q-380 0 -379 -285q0 -141 84 -209q85 -68 203 -68t210 78q92 76 144 203q-41 111 -41 238zM764 549h776q-4 271 -165 413q-87 77 -210 76q-173 0 -283 -142t-118 -347zM479 1075q147 0 225 -51t99 -170q59 102 152 162t210 59
q195 -1 305 -157t111 -369q0 -25 -2 -35h-815q4 -203 125 -345t309 -142q129 0 285 79l14 -30q-168 -86 -304 -86t-244 74t-167 198q-55 -125 -155 -199q-101 -73 -229 -73t-223 76t-95 242t113 241q113 76 282 76q104 0 248 -25q10 104 47 188q-10 138 -81 194t-211 56
t-296 -47l-10 33q160 51 307 51z" />
    <glyph glyph-name="ccedilla" unicode="&#xe7;" horiz-adv-x="907" 
d="M655 -270q0 -62 -45 -92t-104 -31q-59 0 -103 14l7 23q41 -10 82 -11q125 0 124 99q0 42 -26 70t-59 28q-34 0 -44 -2l-18 20l45 146q-182 24 -299 176t-117 372t138 376q138 158 342 157q121 0 241 -59l-14 -29q-100 51 -221 51q-190 0 -319 -149q-128 -150 -128 -357
q0 -206 128 -356t317 -149q111 0 223 51l14 -29q-125 -59 -244 -59l-36 2l-39 -142q66 11 111 -23q44 -35 44 -97z" />
    <glyph glyph-name="egrave" unicode="&#xe8;" 
d="M139 549h779q-4 271 -165 413q-87 77 -210 76q-174 0 -289 -145t-115 -344zM569 -10q-205 0 -338 159t-133 384t124 383t320 159t306 -155t110 -369q0 -27 -2 -37h-817q4 -203 126 -345t310 -142q129 0 285 79l14 -30q-168 -86 -305 -86zM479 1452l41 21l96 -277h-32z
" />
    <glyph glyph-name="eacute" unicode="&#xe9;" 
d="M139 549h779q-4 271 -165 413q-87 77 -210 76q-174 0 -289 -145t-115 -344zM569 -10q-205 0 -338 159t-133 384t124 383t320 159t306 -155t110 -369q0 -27 -2 -37h-817q4 -203 126 -345t310 -142q129 0 285 79l14 -30q-168 -86 -305 -86zM592 1473l41 -21l-105 -256h-32z
" />
    <glyph glyph-name="ecircumflex" unicode="&#xea;" 
d="M139 549h779q-4 271 -165 413q-87 77 -210 76q-174 0 -289 -145t-115 -344zM569 -10q-205 0 -338 159t-133 384t124 383t320 159t306 -155t110 -369q0 -27 -2 -37h-817q4 -203 126 -345t310 -142q129 0 285 79l14 -30q-168 -86 -305 -86zM414 1196h-45l163 193h27
l164 -193h-45l-131 156z" />
    <glyph glyph-name="edieresis" unicode="&#xeb;" 
d="M139 549h779q-4 271 -165 413q-87 77 -210 76q-174 0 -289 -145t-115 -344zM569 -10q-205 0 -338 159t-133 384t124 383t320 159t306 -155t110 -369q0 -27 -2 -37h-817q4 -203 126 -345t310 -142q129 0 285 79l14 -30q-168 -86 -305 -86zM670 1243q0 15 13 29t29 14
t29 -13q28 -30 0 -60q-12 -13 -28 -13t-30 13q-13 14 -13 30zM338 1243q0 15 13 29t29 14t30 -13t14 -29t-13 -30t-29 -14t-31 13q-13 14 -13 30z" />
    <glyph glyph-name="igrave" unicode="&#xec;" horiz-adv-x="368" 
d="M80 1065h127v-1065h-41v1026l-86 16v23zM43 1452l41 21l96 -277h-33z" />
    <glyph glyph-name="iacute" unicode="&#xed;" horiz-adv-x="372" 
d="M82 1065h127v-1065h-41v1026l-86 16v23zM248 1473l41 -21l-105 -256h-32z" />
    <glyph glyph-name="icircumflex" unicode="&#xee;" horiz-adv-x="372" 
d="M84 1065h127v-1065h-41v1026l-86 16v23zM27 1196h-45l163 193h27l164 -193h-45l-131 156z" />
    <glyph glyph-name="idieresis" unicode="&#xef;" horiz-adv-x="372" 
d="M82 1065h127v-1065h-41v1026l-86 16v23zM272 1243q0 15 14 29t29 14q17 0 29 -13t12 -29t-12 -30t-28 -14t-30 14t-14 29zM-59 1243q0 15 13 29q14 14 30 14t29 -13q30 -30 0 -60q-13 -13 -29 -13t-30 13q-13 14 -13 30z" />
    <glyph glyph-name="eth" unicode="&#xf0;" horiz-adv-x="952" 
d="M452 27q159 -1 254 121t95 342q1 220 -103 334q-104 112 -248 112t-237 -123q-94 -123 -94 -321t87 -331q87 -134 246 -134zM852 586q0 -300 -110 -448t-288 -148t-277 145t-99 359t108 347q109 132 271 132q125 0 227 -89t131 -247q-16 215 -92 415t-166 291l-162 -141
l-14 21l160 139q-39 45 -111 97t-125 77l14 25q129 -63 244 -179l154 136l16 -19l-153 -133q124 -141 198 -355t74 -425z" />
    <glyph glyph-name="ntilde" unicode="&#xf1;" horiz-adv-x="1056" 
d="M162 1065h31l10 -289q25 106 116 203q92 96 253 96t248 -124t87 -337v-614h-41v621q0 193 -80 305t-225 112q-115 0 -200 -72q-158 -135 -158 -372v-594h-41v1065zM426 1307q40 0 106 -40t115 -40t98 65l15 -12q-49 -92 -131 -92q-41 0 -108 41t-118 41t-92 -62l-14 13
q41 86 129 86z" />
    <glyph glyph-name="ograve" unicode="&#xf2;" horiz-adv-x="1112" 
d="M557 1038q-188 0 -304 -143t-116 -363t116 -363q116 -142 304 -142t304 142t116 362q0 219 -116 363t-304 144zM96 532q0 238 127 391t334 153t334 -154q127 -152 127 -390t-127 -390t-334 -152t-334 152t-127 390zM477 1452l41 21l96 -277h-32z" />
    <glyph glyph-name="oacute" unicode="&#xf3;" horiz-adv-x="1112" 
d="M557 1038q-188 0 -304 -143t-116 -363t116 -363q116 -142 304 -142t304 142t116 362q0 219 -116 363t-304 144zM96 532q0 238 127 391t334 153t334 -154q127 -152 127 -390t-127 -390t-334 -152t-334 152t-127 390zM588 1473l41 -21l-105 -256h-32z" />
    <glyph glyph-name="ocircumflex" unicode="&#xf4;" horiz-adv-x="1112" 
d="M557 1038q-188 0 -304 -143t-116 -363t116 -363q116 -142 304 -142t304 142t116 362q0 219 -116 363t-304 144zM96 532q0 238 127 391t334 153t334 -154q127 -152 127 -390t-127 -390t-334 -152t-334 152t-127 390zM424 1196h-45l164 193h26l164 -193h-45l-131 156z" />
    <glyph glyph-name="otilde" unicode="&#xf5;" horiz-adv-x="1112" 
d="M557 1038q-188 0 -304 -143t-116 -363t116 -363q116 -142 304 -142t304 142t116 362q0 219 -116 363t-304 144zM96 532q0 238 127 391t334 153t334 -154q127 -152 127 -390t-127 -390t-334 -152t-334 152t-127 390zM453 1307q39 0 105 -40t116 -40q49 0 98 65l14 -12
q-49 -92 -131 -92q-41 0 -107 41t-118 41q-51 0 -92 -62l-14 13q41 86 129 86z" />
    <glyph glyph-name="odieresis" unicode="&#xf6;" horiz-adv-x="1112" 
d="M557 1038q-188 0 -304 -143t-116 -363t116 -363q116 -142 304 -142t304 142t116 362q0 219 -116 363t-304 144zM96 532q0 238 127 391t334 153t334 -154q127 -152 127 -390t-127 -390t-334 -152t-334 152t-127 390zM680 1243q0 15 13 29t29 14t30 -13q12 -13 12 -29
t-12 -30t-28 -14t-31 13q-13 14 -13 30zM348 1243q0 15 13 29t29 14t30 -13t14 -29t-13 -30t-29 -14t-31 13q-13 14 -13 30z" />
    <glyph glyph-name="divide" unicode="&#xf7;" horiz-adv-x="997" 
d="M449 338q0 23 14 39q15 16 35 16t34 -16t14 -39t-14 -39t-34 -16t-35 16q-14 16 -14 39zM154 662h692v-39h-692v39zM500 1001q22 0 36 -16q15 -16 15 -39t-15 -39q-14 -16 -36 -16t-37 16q-14 16 -14 40t14 39q15 15 37 15z" />
    <glyph glyph-name="oslash" unicode="&#xf8;" horiz-adv-x="1112" 
d="M977 530q0 279 -172 422l-467 -860q98 -66 219 -65q188 0 304 142t116 361zM557 1038q-188 0 -304 -143t-116 -365q0 -279 170 -415l469 858q-98 65 -219 65zM1018 530q0 -236 -127 -388t-334 -152q-133 0 -240 67l-67 -125h-41l80 146q-193 147 -193 452q0 240 127 393
t334 152q131 0 238 -67l69 125h41l-80 -148q193 -151 193 -455z" />
    <glyph glyph-name="ugrave" unicode="&#xf9;" horiz-adv-x="1058" 
d="M152 1065h41v-639q0 -399 309 -399q172 1 263 121t91 280v637h41v-1065h-31l-8 254q-35 -123 -130 -194t-230 -70q-170 0 -258 112t-88 326v637zM440 1452l41 21l97 -277h-33z" />
    <glyph glyph-name="uacute" unicode="&#xfa;" horiz-adv-x="1058" 
d="M152 1065h41v-639q0 -399 309 -399q172 1 263 121t91 280v637h41v-1065h-31l-8 254q-35 -123 -130 -194t-230 -70q-170 0 -258 112t-88 326v637zM573 1473l41 -21l-104 -256h-33z" />
    <glyph glyph-name="ucircumflex" unicode="&#xfb;" horiz-adv-x="1058" 
d="M152 1065h41v-639q0 -399 309 -399q172 1 263 121t91 280v637h41v-1065h-31l-8 254q-35 -123 -130 -194t-230 -70q-170 0 -258 112t-88 326v637zM395 1196h-45l164 193h27l164 -193h-46l-131 156z" />
    <glyph glyph-name="udieresis" unicode="&#xfc;" horiz-adv-x="1058" 
d="M152 1065h41v-639q0 -399 309 -399q172 1 263 121t91 280v637h41v-1065h-31l-8 254q-35 -123 -130 -194t-230 -70q-170 0 -258 112t-88 326v637zM649 1243q-1 15 13 29t30 14t28 -13t13 -29q0 -16 -12 -30q-13 -14 -29 -14t-30 14t-13 29zM317 1243q-1 15 13 29t30 14
t30 -13t13 -29q0 -16 -13 -30q-14 -14 -30 -14t-30 14t-13 29z" />
    <glyph glyph-name="yacute" unicode="&#xfd;" horiz-adv-x="905" 
d="M82 1065h43l334 -1024l321 1024h43l-450 -1413h-43l106 338zM512 1473l41 -21l-104 -256h-33z" />
    <glyph glyph-name="thorn" unicode="&#xfe;" horiz-adv-x="1118" 
d="M585 27q165 0 279 144t113 353q1 210 -115 362t-282 152t-274 -148t-108 -364t112 -357q110 -142 275 -142zM586 1075q182 0 308 -160t126 -388t-122 -383t-310 -154q-133 0 -241 89t-144 240v-667h-41v1782h41v-684q43 156 149 240t234 85z" />
    <glyph glyph-name="ydieresis" unicode="&#xff;" horiz-adv-x="905" 
d="M82 1065h43l334 -1024l321 1024h43l-450 -1413h-43l106 338zM582 1243q0 15 13 29t29 14t29 -13q28 -30 0 -60q-12 -13 -28 -13t-30 13q-13 14 -13 30zM250 1243q0 15 13 29t29 14t30 -13t14 -29t-13 -30t-29 -14t-31 13q-13 14 -13 30z" />
    <glyph glyph-name="Amacron" unicode="&#x100;" horiz-adv-x="1138" 
d="M567 1403l-305 -942h615l-306 942h-4zM543 1440h51l475 -1440h-43l-137 426h-639l-139 -426h-41zM324 1597h493v-34h-493v34z" />
    <glyph glyph-name="amacron" unicode="&#x101;" horiz-adv-x="980" 
d="M772 414v137q-147 37 -256 37t-167 -14t-111 -43q-117 -66 -117 -218q0 -151 84 -219t196 -67q156 0 264 117q107 118 107 270zM494 1075q162 0 240 -75q79 -75 79 -257v-649q0 -51 27 -58q10 -3 32 -3t54 6v-33q-37 -10 -72 -10q-82 0 -82 100v172q-39 -126 -141 -202
q-103 -76 -233 -76t-224 76t-94 242t114 241q114 76 266 76t312 -35v155q0 165 -73 229t-217 64t-300 -47l-10 33q160 51 322 51zM248 1270h493v-35h-493v35z" />
    <glyph glyph-name="Abreve" unicode="&#x102;" horiz-adv-x="1138" 
d="M567 1403l-305 -942h615l-306 942h-4zM543 1440h51l475 -1440h-43l-137 426h-639l-139 -426h-41zM573 1516q-174 0 -200 182h33q16 -68 53 -106t115 -38t114 38q37 38 53 106h33q-27 -182 -201 -182z" />
    <glyph glyph-name="abreve" unicode="&#x103;" horiz-adv-x="980" 
d="M772 414v137q-147 37 -256 37t-167 -14t-111 -43q-117 -66 -117 -218q0 -151 84 -219t196 -67q156 0 264 117q107 118 107 270zM494 1075q162 0 240 -75q79 -75 79 -257v-649q0 -51 27 -58q10 -3 32 -3t54 6v-33q-37 -10 -72 -10q-82 0 -82 100v172q-39 -126 -141 -202
q-103 -76 -233 -76t-224 76t-94 242t114 241q114 76 266 76t312 -35v155q0 165 -73 229t-217 64t-300 -47l-10 33q160 51 322 51zM489 1188q-174 0 -200 182h33q16 -68 53 -106t115 -37q78 -1 114 37q37 38 53 106h33q-27 -182 -201 -182z" />
    <glyph glyph-name="Aogonek" unicode="&#x104;" horiz-adv-x="1138" 
d="M567 1403l-305 -942h615l-306 942h-4zM952 -212q0 -54 25 -83t57 -29t58 11l6 -25q-27 -16 -72 -16t-77 39q-31 39 -31 99t34 120t82 96h-8l-137 426h-639l-139 -426h-41l473 1440h51l475 -1440q-57 -37 -87 -97q-30 -61 -30 -115z" />
    <glyph glyph-name="aogonek" unicode="&#x105;" horiz-adv-x="980" 
d="M772 414v137q-147 37 -256 37t-167 -14t-111 -43q-117 -66 -117 -218q0 -151 84 -219t196 -67q156 0 264 117q107 118 107 270zM494 1075q162 0 240 -75q79 -75 79 -257v-649q0 -51 27 -58q10 -3 32 -3t54 6v-33q-31 -10 -62 -10q-113 -76 -112 -211q0 -109 94 -109
q29 0 45 7l6 -25q-23 -12 -71 -12t-78 38q-31 38 -31 98t35 120t84 94q-63 12 -64 100v172q-39 -126 -141 -202q-103 -76 -233 -76t-224 76t-94 242t114 241q114 76 266 76t312 -35v155q0 165 -73 229t-217 64t-300 -47l-10 33q160 51 322 51z" />
    <glyph glyph-name="Cacute" unicode="&#x106;" horiz-adv-x="1169" 
d="M725 1444q190 0 348 -96l-18 -31q-158 90 -326 90q-245 0 -409 -199q-164 -200 -164 -492t165 -491t408 -198q176 0 326 90l18 -31q-162 -96 -348 -96q-258 0 -437 209t-179 518t179 518t437 209zM760 1792l41 -20l-105 -256h-32z" />
    <glyph glyph-name="cacute" unicode="&#x107;" horiz-adv-x="907" 
d="M575 -10q-203 0 -339 156t-138 386q0 228 138 386t342 157q121 0 241 -59l-14 -29q-100 51 -221 51q-190 0 -319 -149q-128 -150 -128 -357q0 -206 128 -356t317 -149q111 0 223 51l14 -29q-125 -59 -244 -59zM621 1473l41 -21l-105 -256h-33z" />
    <glyph glyph-name="Ccircumflex" unicode="&#x108;" horiz-adv-x="1169" 
d="M725 1444q190 0 348 -96l-18 -31q-158 90 -326 90q-245 0 -409 -199q-164 -200 -164 -492t165 -491t408 -198q176 0 326 90l18 -31q-162 -96 -348 -96q-258 0 -437 209t-179 518t179 518t437 209zM586 1524h-45l164 192h26l164 -192h-45l-131 155z" />
    <glyph glyph-name="ccircumflex" unicode="&#x109;" horiz-adv-x="907" 
d="M575 -10q-203 0 -339 156t-138 386q0 228 138 386t342 157q121 0 241 -59l-14 -29q-100 51 -221 51q-190 0 -319 -149q-128 -150 -128 -357q0 -206 128 -356t317 -149q111 0 223 51l14 -29q-125 -59 -244 -59zM424 1196h-45l164 193h26l164 -193h-45l-131 156z" />
    <glyph glyph-name="Cdotaccent" unicode="&#x10a;" horiz-adv-x="1169" 
d="M725 1444q190 0 348 -96l-18 -31q-158 90 -326 90q-245 0 -409 -199q-164 -200 -164 -492t165 -491t408 -198q176 0 326 90l18 -31q-162 -96 -348 -96q-258 0 -437 209t-179 518t179 518t437 209zM678 1567q0 16 13 29q31 31 59 0q12 -13 12 -29q0 -15 -12 -29t-28 -14
t-31 13q-13 14 -13 30z" />
    <glyph glyph-name="cdotaccent" unicode="&#x10b;" horiz-adv-x="907" 
d="M575 -10q-203 0 -339 156t-138 386q0 228 138 386t342 157q121 0 241 -59l-14 -29q-100 51 -221 51q-190 0 -319 -149q-128 -150 -128 -357q0 -206 128 -356t317 -149q111 0 223 51l14 -29q-125 -59 -244 -59zM571 1206q-26 0 -26 32t26 32q11 0 21 -9t10 -23t-9 -22
q-9 -10 -22 -10z" />
    <glyph glyph-name="Ccaron" unicode="&#x10c;" horiz-adv-x="1169" 
d="M725 1444q190 0 348 -96l-18 -31q-158 90 -326 90q-245 0 -409 -199q-164 -200 -164 -492t165 -491t408 -198q176 0 326 90l18 -31q-162 -96 -348 -96q-258 0 -437 209t-179 518t179 518t437 209zM547 1716h45l133 -155l131 155h45l-164 -192h-26z" />
    <glyph glyph-name="ccaron" unicode="&#x10d;" horiz-adv-x="907" 
d="M575 -10q-203 0 -339 156t-138 386q0 228 138 386t342 157q121 0 241 -59l-14 -29q-100 51 -221 51q-190 0 -319 -149q-128 -150 -128 -357q0 -206 128 -356t317 -149q111 0 223 51l14 -29q-125 -59 -244 -59zM395 1389h45l133 -156l132 156h45l-164 -193h-27z" />
    <glyph glyph-name="Dcaron" unicode="&#x10e;" horiz-adv-x="1243" 
d="M238 1397v-1360h356q135 0 253 83q118 82 178 242t60 355t-60 355t-176 243q-116 82 -255 82h-356zM596 0h-401v1434h401q150 0 276 -88t191 -255t65 -374t-63 -374t-193 -255t-276 -88zM397 1716h45l133 -155l132 155h45l-164 -192h-27z" />
    <glyph glyph-name="dcaron" unicode="&#x10f;" horiz-adv-x="1204" 
d="M541 27q165 0 273 146q108 147 108 363t-108 359t-274 143q-165 0 -282 -148t-117 -358t117 -357q117 -148 283 -148zM920 1499h41v-1499h-31l-8 324q-38 -150 -144 -242t-246 -92q-188 0 -310 158t-122 385t126 385t306 157q130 0 236 -86t152 -244v754zM1223 1499h34
q0 -176 -61 -299l-14 8q41 129 41 291z" />
    <glyph glyph-name="Dcroat" unicode="&#x110;" horiz-adv-x="1249" 
d="M244 1397v-662h327v-30h-327v-668h356q135 0 253 83q118 82 178 242t61 355q0 195 -60 355t-177 243q-116 82 -255 82h-356zM602 0h-401v705h-168v30h168v699h401q150 0 276 -88t191 -255q66 -167 66 -374q1 -207 -63 -374t-194 -255t-276 -88z" />
    <glyph glyph-name="dcroat" unicode="&#x111;" horiz-adv-x="1124" 
d="M541 27q165 0 273 146q108 147 108 363t-108 359t-274 143q-165 0 -282 -148t-117 -358t117 -357q117 -148 283 -148zM920 1499h41v-211h157v-26h-157v-1262h-31l-8 324q-38 -150 -144 -242t-246 -92q-188 0 -310 158t-122 385t126 385t306 157q130 0 236 -86t152 -244
v517h-306v26h306v211z" />
    <glyph glyph-name="Emacron" unicode="&#x112;" horiz-adv-x="1124" 
d="M195 1434h806v-37h-765v-682h661v-37h-661v-641h798v-37h-839v1434zM362 1597h496v-34h-496v34z" />
    <glyph glyph-name="emacron" unicode="&#x113;" 
d="M139 549h779q-4 271 -165 413q-87 77 -210 76q-174 0 -289 -145t-115 -344zM569 -10q-205 0 -338 159t-133 384t124 383t320 159t306 -155t110 -369q0 -27 -2 -37h-817q4 -203 126 -345t310 -142q129 0 285 79l14 -30q-168 -86 -305 -86zM287 1270h493v-35h-493v35z" />
    <glyph glyph-name="Ebreve" unicode="&#x114;" horiz-adv-x="1124" 
d="M195 1434h806v-37h-765v-682h661v-37h-661v-641h798v-37h-839v1434zM606 1516q-174 0 -200 182h32q16 -68 54 -106t114 -38q78 0 115 38t53 106h33q-27 -182 -201 -182z" />
    <glyph glyph-name="ebreve" unicode="&#x115;" 
d="M139 549h779q-4 271 -165 413q-87 77 -210 76q-174 0 -289 -145t-115 -344zM569 -10q-205 0 -338 159t-133 384t124 383t320 159t306 -155t110 -369q0 -27 -2 -37h-817q4 -203 126 -345t310 -142q129 0 285 79l14 -30q-168 -86 -305 -86zM534 1188q-174 0 -200 182h33
q16 -68 53 -106t115 -37q79 -1 115 37t52 106h33q-27 -182 -201 -182z" />
    <glyph glyph-name="Edotaccent" unicode="&#x116;" horiz-adv-x="1124" 
d="M195 1434h806v-37h-765v-682h661v-37h-661v-641h798v-37h-839v1434zM555 1567q0 16 13 29q31 31 59 0q12 -13 12 -29q0 -15 -12 -29q-13 -14 -29 -14t-30 13q-13 14 -13 30z" />
    <glyph glyph-name="edotaccent" unicode="&#x117;" 
d="M139 549h779q-4 271 -165 413q-87 77 -210 76q-174 0 -289 -145t-115 -344zM569 -10q-205 0 -338 159t-133 384t124 383t320 159t306 -155t110 -369q0 -27 -2 -37h-817q4 -203 126 -345t310 -142q129 0 285 79l14 -30q-168 -86 -305 -86zM502 1243q0 15 13 29t29 14
t29 -13q28 -30 0 -60q-12 -13 -28 -13t-30 13q-13 14 -13 30z" />
    <glyph glyph-name="Eogonek" unicode="&#x118;" horiz-adv-x="1124" 
d="M195 1434h806v-37h-765v-682h661v-37h-661v-641h798v-37h-33q-57 -37 -87 -98t-29 -115q0 -111 92 -111q23 0 47 11l6 -21q-32 -20 -74 -20t-74 39t-32 95t34 120t85 100h-774v1434z" />
    <glyph glyph-name="eogonek" unicode="&#x119;" 
d="M141 549h777q-4 271 -165 413q-87 77 -210 76q-172 0 -283 -142t-119 -347zM569 -10q-205 0 -338 159t-133 384t124 383t320 159t306 -155t110 -369q0 -27 -2 -37h-815q4 -203 125 -345t309 -142q129 0 285 79l14 -30q-57 -31 -116 -51q-49 -41 -77 -113t-28 -125t26 -82
q25 -29 57 -29t57 11l6 -21q-31 -20 -73 -20t-75 36t-33 96t27 128t68 104q-76 -20 -144 -20z" />
    <glyph glyph-name="Ecaron" unicode="&#x11a;" horiz-adv-x="1124" 
d="M195 1434h806v-37h-765v-682h661v-37h-661v-641h798v-37h-839v1434zM424 1716h45l133 -155l131 155h45l-164 -192h-26z" />
    <glyph glyph-name="ecaron" unicode="&#x11b;" 
d="M139 549h779q-4 271 -165 413q-87 77 -210 76q-174 0 -289 -145t-115 -344zM569 -10q-205 0 -338 159t-133 384t124 383t320 159t306 -155t110 -369q0 -27 -2 -37h-817q4 -203 126 -345t310 -142q129 0 285 79l14 -30q-168 -86 -305 -86zM369 1389h45l133 -156l131 156
h45l-164 -193h-27z" />
    <glyph glyph-name="Gcircumflex" unicode="&#x11c;" horiz-adv-x="1306" 
d="M739 1444q195 0 371 -103l-18 -30q-164 96 -351 96q-249 0 -417 -202q-168 -201 -168 -491t166 -489t406 -199t425 197v408h-354v35h395v-453q-102 -115 -227 -169t-240 -54q-258 0 -437 208t-179 516t182 519t446 211zM598 1524h-45l164 192h26l164 -192h-45l-131 155z
" />
    <glyph glyph-name="gcircumflex" unicode="&#x11d;" horiz-adv-x="913" 
d="M131 -76q0 -233 330 -233t330 243q0 115 -71 158t-204 45t-169 5t-89 20q-127 -98 -127 -238zM750 752q0 134 -77 210t-207 76t-208 -74t-78 -211q0 -138 74 -215t211 -77t211 78t74 213zM827 1065v-27l-192 -8q156 -76 156 -278q0 -152 -85 -240t-241 -88
q-106 0 -197 51q-92 -78 -92 -166t99 -115q74 -20 180 -20h69q154 0 231 -56t76 -184q-1 -282 -371 -282t-370 268q0 145 131 256q-82 49 -82 142t103 178q-102 88 -102 249t88 245q89 84 237 85q47 0 104 -10h258zM322 1196h-46l164 193h27l164 -193h-45l-131 156z" />
    <glyph glyph-name="Gbreve" unicode="&#x11e;" horiz-adv-x="1306" 
d="M739 1444q195 0 371 -103l-18 -30q-164 96 -351 96q-249 0 -417 -202q-168 -201 -168 -491t166 -489t406 -199t425 197v408h-354v35h395v-453q-102 -115 -227 -169t-240 -54q-258 0 -437 208t-179 516t182 519t446 211zM733 1516q-174 0 -201 182h33q16 -68 53 -106
t115 -38t115 38t53 106h33q-27 -182 -201 -182z" />
    <glyph glyph-name="gbreve" unicode="&#x11f;" horiz-adv-x="913" 
d="M131 -76q0 -233 330 -233t330 243q0 115 -71 158t-204 45t-169 5t-89 20q-127 -98 -127 -238zM750 752q0 134 -77 210t-207 76t-208 -74t-78 -211q0 -138 74 -215t211 -77t211 78t74 213zM827 1065v-27l-192 -8q156 -76 156 -278q0 -152 -85 -240t-241 -88
q-106 0 -197 51q-92 -78 -92 -166t99 -115q74 -20 180 -20h69q154 0 231 -56t76 -184q-1 -282 -371 -282t-370 268q0 145 131 256q-82 49 -82 142t103 178q-102 88 -102 249t88 245q89 84 237 85q47 0 104 -10h258zM463 1188q-174 0 -201 182h33q16 -68 53 -106t115 -37
q78 -1 115 37t53 106h33q-27 -182 -201 -182z" />
    <glyph glyph-name="Gdotaccent" unicode="&#x120;" horiz-adv-x="1306" 
d="M739 1444q195 0 371 -103l-18 -30q-164 96 -351 96q-249 0 -417 -202q-168 -201 -168 -491t166 -489t406 -199t425 197v408h-354v35h395v-453q-102 -115 -227 -169t-240 -54q-258 0 -437 208t-179 516t182 519t446 211zM688 1567q0 16 13 29q31 31 59 0q12 -13 12 -29
q0 -15 -12 -29t-28 -14t-31 13q-13 14 -13 30z" />
    <glyph glyph-name="gdotaccent" unicode="&#x121;" horiz-adv-x="913" 
d="M131 -76q0 -233 330 -233t330 243q0 115 -71 158t-204 45t-169 5t-89 20q-127 -98 -127 -238zM750 752q0 134 -77 210t-207 76t-208 -74t-78 -211q0 -138 74 -215t211 -77t211 78t74 213zM827 1065v-27l-192 -8q156 -76 156 -278q0 -152 -85 -240t-241 -88
q-106 0 -197 51q-92 -78 -92 -166t99 -115q74 -20 180 -20h69q154 0 231 -56t76 -184q-1 -282 -371 -282t-370 268q0 145 131 256q-82 49 -82 142t103 178q-102 88 -102 249t88 245q89 84 237 85q47 0 104 -10h258zM414 1243q0 15 13 29t29 14t29 -13q28 -30 0 -60
q-12 -13 -28 -13t-30 13q-13 14 -13 30z" />
    <glyph glyph-name="Gcommaaccent" unicode="&#x122;" horiz-adv-x="1306" 
d="M739 1444q195 0 371 -103l-18 -30q-164 96 -351 96q-249 0 -417 -202q-168 -201 -168 -491t166 -489t406 -199t425 197v408h-354v35h395v-453q-102 -115 -227 -169t-240 -54q-258 0 -437 208t-179 516t182 519t446 211zM741 -160q53 0 54 -80q0 -109 -93 -159l-10 16
q68 39 68 119q0 16 -6 35q-10 -12 -23 -13q-35 0 -35 41t45 41z" />
    <glyph glyph-name="gcommaaccent" unicode="&#x123;" horiz-adv-x="913" 
d="M131 -76q0 -233 330 -233t330 243q0 115 -71 158t-204 45t-169 5t-89 20q-127 -98 -127 -238zM750 752q0 134 -77 210t-207 76t-208 -74t-78 -211q0 -138 74 -215t211 -77t211 78t74 213zM827 1065v-27l-192 -8q156 -76 156 -278q0 -152 -85 -240t-241 -88
q-106 0 -197 51q-92 -78 -92 -166t99 -115q74 -20 180 -20h69q154 0 231 -56t76 -184q-1 -282 -371 -282t-370 268q0 145 131 256q-82 49 -82 142t103 178q-102 88 -102 249t88 245q89 84 237 85q47 0 104 -10h258zM461 1204q-53 0 -53 80q0 109 92 160l10 -17
q-68 -39 -68 -118q0 -16 7 -35q10 12 22 12q35 0 35 -41t-45 -41z" />
    <glyph glyph-name="Hcircumflex" unicode="&#x124;" horiz-adv-x="1298" 
d="M195 1434h43v-697h825v697h41v-1434h-41v702h-825v-702h-43v1434zM522 1524h-45l164 192h27l163 -192h-45l-131 155z" />
    <glyph glyph-name="hcircumflex" unicode="&#x125;" horiz-adv-x="1060" 
d="M164 1499h41v-725q20 90 103 191q42 49 110 79t147 31q170 0 257 -123t87 -338v-614h-43v621q0 193 -79 305t-226 112q-111 0 -195 -70q-157 -131 -161 -360v-608h-41v1499zM47 1540h-45l164 193h27l163 -193h-45l-131 156z" />
    <glyph glyph-name="Hbar" unicode="&#x126;" horiz-adv-x="1300" 
d="M238 737h825v375h-825v-375zM195 1434h43v-291h825v291h41v-291h115v-31h-115v-1112h-41v702h-825v-702h-43v1112h-109v31h109v291z" />
    <glyph glyph-name="hbar" unicode="&#x127;" horiz-adv-x="1058" 
d="M162 1499h41v-215h301v-29h-301v-481q20 90 103 191q42 49 110 79t147 31q170 0 257 -123t87 -338v-614h-43v621q0 193 -79 305t-226 112q-111 0 -195 -70q-157 -131 -161 -360v-608h-41v1255h-162v29h162v215z" />
    <glyph glyph-name="Itilde" unicode="&#x128;" horiz-adv-x="432" 
d="M195 1434h41v-1434h-41v1434zM113 1634q39 0 105 -40t116 -40q49 0 98 66l14 -12q-49 -92 -131 -92q-41 0 -107 40t-118 41q-51 0 -92 -61l-14 12q41 86 129 86z" />
    <glyph glyph-name="itilde" unicode="&#x129;" horiz-adv-x="372" 
d="M82 1065h127v-1065h-41v1026l-86 16v23zM57 1307q39 0 106 -40t115 -40t99 65l14 -12q-49 -92 -131 -92q-42 0 -108 41t-117 41t-92 -62l-15 13q41 86 129 86z" />
    <glyph glyph-name="Imacron" unicode="&#x12a;" horiz-adv-x="430" 
d="M195 1434h41v-1434h-41v1434zM-31 1597h494v-34h-494v34z" />
    <glyph glyph-name="imacron" unicode="&#x12b;" horiz-adv-x="372" 
d="M82 1065h127v-1065h-41v1026l-86 16v23zM-86 1270h494v-35h-494v35z" />
    <glyph glyph-name="Ibreve" unicode="&#x12c;" horiz-adv-x="432" 
d="M197 1434h41v-1434h-41v1434zM221 1516q-174 0 -201 182h33q16 -68 53 -106t115 -38t115 38t53 106h33q-27 -182 -201 -182z" />
    <glyph glyph-name="ibreve" unicode="&#x12d;" horiz-adv-x="372" 
d="M82 1065h127v-1065h-41v1026l-86 16v23zM156 1188q-174 0 -201 182h33q16 -68 53 -106t115 -37q78 -1 115 37t53 106h32q-26 -182 -200 -182z" />
    <glyph glyph-name="Iogonek" unicode="&#x12e;" horiz-adv-x="430" 
d="M193 1434h40v-1434q-57 -37 -87 -98t-29 -115q0 -111 92 -111q23 0 47 11l6 -21q-32 -20 -74 -20t-74 39t-32 95t34 121t83 99h-6v1434z" />
    <glyph glyph-name="iogonek" unicode="&#x12f;" horiz-adv-x="372" 
d="M80 1065h127v-1065q-57 -37 -86 -97t-29 -116q0 -111 92 -111q29 0 47 9l7 -19q-33 -20 -75 -20t-74 39t-32 97t32 120t81 98h-4v1026l-86 16v23zM135 1329q0 41 36 41t36 -40t-37 -40q-14 0 -24 12t-11 27z" />
    <glyph glyph-name="Idotaccent" unicode="&#x130;" horiz-adv-x="434" 
d="M197 1434h41v-1434h-41v1434zM174 1567q0 16 13 29q31 31 59 0q12 -13 12 -29q0 -15 -12 -29t-28 -14t-31 13q-13 14 -13 30z" />
    <glyph glyph-name="dotlessi" unicode="&#x131;" horiz-adv-x="370" 
d="M82 1065h127v-1065h-41v1026l-86 16v23z" />
    <glyph glyph-name="Jcircumflex" unicode="&#x134;" horiz-adv-x="874" 
d="M367 -10q-209 0 -334 225l28 21q92 -151 193 -190q49 -19 108 -19q143 0 218 109q74 110 73 282v1016h41v-1002q0 -206 -86 -324t-241 -118zM539 1524h-45l163 192h27l164 -192h-45l-131 155z" />
    <glyph glyph-name="jcircumflex" unicode="&#x135;" horiz-adv-x="370" 
d="M18 1196h-45l164 193h27l164 -193h-45l-131 156zM66 -319q109 0 108 178v1167l-86 16v23h127v-1210q0 -211 -147 -211q-47 0 -88 18l12 33q37 -14 74 -14z" />
    <glyph glyph-name="Kcommaaccent" unicode="&#x136;" horiz-adv-x="1056" 
d="M195 0v1434h41v-521l-3 -448l687 969h49l-455 -641l524 -793h-53l-498 758l-251 -355v-403h-41zM571 -160q53 0 54 -80q0 -109 -93 -159l-10 16q68 39 68 119q0 16 -6 35q-10 -12 -23 -13q-35 0 -35 41t45 41z" />
    <glyph glyph-name="kcommaaccent" unicode="&#x137;" horiz-adv-x="811" 
d="M162 1499h41v-639l-2 -473l506 678h47l-365 -487l371 -578h-47l-346 549l-164 -217v-332h-41v1499zM440 -160q53 0 54 -80q0 -109 -93 -159l-10 16q68 39 68 119q0 16 -6 35q-10 -12 -23 -13q-35 0 -35 41t45 41z" />
    <glyph glyph-name="kgreenlandic" unicode="&#x138;" horiz-adv-x="811" 
d="M162 1065h41v-205l-2 -473l506 678h47l-365 -487l371 -578h-47l-346 549l-164 -217v-332h-41v1065z" />
    <glyph glyph-name="Lacute" unicode="&#x139;" horiz-adv-x="1017" 
d="M195 1434h41v-1397h749v-37h-790v1434zM299 1792l41 -20l-104 -256h-33z" />
    <glyph glyph-name="lacute" unicode="&#x13a;" horiz-adv-x="395" 
d="M172 1499h41v-1399q0 -74 59 -73l54 8v-35q-31 -10 -62 -10q-92 0 -92 100v1409zM276 1855l41 -20l-104 -256h-33z" />
    <glyph glyph-name="Lcommaaccent" unicode="&#x13b;" horiz-adv-x="1017" 
d="M195 1434h41v-1397h749v-37h-790v1434zM588 -160q53 0 53 -80q0 -109 -92 -159l-10 16q68 39 67 119q0 16 -6 35q-10 -12 -22 -13q-35 0 -35 41t45 41z" />
    <glyph glyph-name="lcommaaccent" unicode="&#x13c;" horiz-adv-x="397" 
d="M170 1499h41v-1399q0 -74 59 -73l54 8v-35q-31 -10 -62 -10q-92 0 -92 100v1409zM233 -160q53 0 54 -80q0 -109 -92 -159l-11 16q68 39 68 119q0 16 -6 35q-10 -12 -23 -13q-35 0 -35 41t45 41z" />
    <glyph glyph-name="Lcaron" unicode="&#x13d;" horiz-adv-x="1017" 
d="M195 1434h41v-1397h749v-37h-790v1434zM590 1434h35q0 -176 -62 -299l-14 8q41 129 41 291z" />
    <glyph glyph-name="lcaron" unicode="&#x13e;" horiz-adv-x="446" 
d="M168 1499h41v-1399q0 -74 59 -73l54 8v-35q-31 -10 -62 -10q-92 0 -92 100v1409zM434 1499h35q0 -176 -61 -299l-15 8q41 129 41 291z" />
    <glyph glyph-name="Lslash" unicode="&#x141;" horiz-adv-x="1005" 
d="M205 1434h41v-777l278 193v-31l-278 -196v-586h686v-37h-727v598l-185 -127v31l185 129v803z" />
    <glyph glyph-name="lslash" unicode="&#x142;" horiz-adv-x="489" 
d="M182 1499h41v-829l219 149v-41l-219 -151v-527q0 -74 60 -73l53 8v-35q-31 -10 -62 -10q-92 0 -92 100v508l-157 -106v43l157 106v858z" />
    <glyph glyph-name="Nacute" unicode="&#x143;" horiz-adv-x="1267" 
d="M195 1434h47l790 -1375v1375h41v-1434h-53l-784 1364v-1364h-41v1434zM711 1796l41 -20l-113 -240h-23z" />
    <glyph glyph-name="nacute" unicode="&#x144;" horiz-adv-x="1056" 
d="M162 1065h31l10 -289q25 106 116 203q92 96 253 96t248 -124t87 -337v-614h-41v621q0 193 -80 305t-225 112q-115 0 -200 -72q-158 -135 -158 -372v-594h-41v1065zM590 1473l41 -21l-105 -256h-32z" />
    <glyph glyph-name="Ncommaaccent" unicode="&#x145;" horiz-adv-x="1267" 
d="M195 1434h47l790 -1375v1375h41v-1434h-53l-784 1364v-1364h-41v1434zM623 -160q53 0 53 -80q0 -109 -92 -159l-11 16q68 39 68 119q0 16 -6 35q-10 -12 -23 -13q-35 0 -34 39q0 43 45 43z" />
    <glyph glyph-name="ncommaaccent" unicode="&#x146;" horiz-adv-x="1056" 
d="M162 1065h31l10 -289q25 106 116 203q92 96 253 96t248 -124t87 -337v-614h-41v621q0 193 -80 305t-225 112q-115 0 -200 -72q-158 -135 -158 -372v-594h-41v1065zM543 -160q53 0 53 -80q0 -109 -92 -159l-10 16q68 39 67 119q0 16 -6 35q-10 -12 -23 -13q-35 0 -34 39
q0 43 45 43z" />
    <glyph glyph-name="Ncaron" unicode="&#x147;" horiz-adv-x="1267" 
d="M195 1434h47l790 -1375v1375h41v-1434h-53l-784 1364v-1364h-41v1434zM479 1716h45l133 -155l131 155h46l-164 -192h-27z" />
    <glyph glyph-name="ncaron" unicode="&#x148;" horiz-adv-x="1056" 
d="M162 1065h31l10 -289q25 106 116 203q92 96 253 96t248 -124t87 -337v-614h-41v621q0 193 -80 305t-225 112q-115 0 -200 -72q-158 -135 -158 -372v-594h-41v1065zM352 1389h45l133 -156l132 156h45l-164 -193h-27z" />
    <glyph glyph-name="Eng" unicode="&#x14a;" horiz-adv-x="1277" 
d="M1087 1434v-1475q0 -55 -3 -82t-18 -63q-26 -62 -153 -105l-8 21q96 45 119 88t23 172l-809 1392v-1382h-41v1434h57l793 -1362v1362h40z" />
    <glyph glyph-name="eng" unicode="&#x14b;" horiz-adv-x="1056" 
d="M162 1065h31l12 -291q20 90 103 191q42 49 109 79t146 31q170 0 257 -123t87 -338v-655q0 -55 -3 -82t-18 -63q-26 -62 -153 -105l-8 21q96 45 118 88t21 172v631q0 193 -79 305t-226 112q-113 0 -197 -72q-157 -136 -157 -372v-594h-43v1065z" />
    <glyph glyph-name="Omacron" unicode="&#x14c;" horiz-adv-x="1460" 
d="M729 1407q-255 1 -415 -197t-160 -495t160 -493t417 -196q256 0 417 196t161 490t-163 494t-417 201zM111 716q0 314 173 521t446 207q274 0 448 -207t174 -521t-173 -520t-449 -206t-447 206q-172 206 -172 520zM485 1597h494v-34h-494v34z" />
    <glyph glyph-name="omacron" unicode="&#x14d;" horiz-adv-x="1112" 
d="M557 1038q-188 0 -304 -143t-116 -363t116 -363q116 -142 304 -142t304 142t116 362q0 219 -116 363t-304 144zM96 532q0 238 127 391t334 153t334 -154q127 -152 127 -390t-127 -390t-334 -152t-334 152t-127 390zM309 1270h496v-35h-496v35z" />
    <glyph glyph-name="Obreve" unicode="&#x14e;" horiz-adv-x="1460" 
d="M729 1407q-255 1 -415 -197t-160 -495t160 -493t417 -196q256 0 417 196t161 490t-163 494t-417 201zM111 716q0 314 173 521t446 207q274 0 448 -207t174 -521t-173 -520t-449 -206t-447 206q-172 206 -172 520zM735 1516q-174 0 -200 182h32q15 -68 53 -106t116 -38
t114 38q37 38 53 106h33q-27 -182 -201 -182z" />
    <glyph glyph-name="obreve" unicode="&#x14f;" horiz-adv-x="1112" 
d="M557 1038q-188 0 -304 -143t-116 -363t116 -363q116 -142 304 -142t304 142t116 362q0 219 -116 363t-304 144zM96 532q0 238 127 391t334 153t334 -154q127 -152 127 -390t-127 -390t-334 -152t-334 152t-127 390zM561 1188q-174 0 -201 182h33q16 -68 53 -106t115 -37
q78 -1 115 37t53 106h33q-27 -182 -201 -182z" />
    <glyph glyph-name="Ohungarumlaut" unicode="&#x150;" horiz-adv-x="1460" 
d="M729 1407q-255 1 -415 -197t-160 -495t160 -493t417 -196q256 0 417 196t161 490t-163 494t-417 201zM111 716q0 314 173 521t446 207q274 0 448 -207t174 -521t-173 -520t-449 -206t-447 206q-172 206 -172 520zM887 1792l41 -20l-105 -256h-32zM698 1792l41 -20
l-104 -256h-33z" />
    <glyph glyph-name="ohungarumlaut" unicode="&#x151;" horiz-adv-x="1112" 
d="M557 1038q-188 0 -304 -143t-116 -363t116 -363q116 -142 304 -142t304 142t116 362q0 219 -116 363t-304 144zM96 532q0 238 127 391t334 153t334 -154q127 -152 127 -390t-127 -390t-334 -152t-334 152t-127 390zM709 1473l41 -21l-105 -256h-33zM520 1473l41 -21
l-104 -256h-33z" />
    <glyph glyph-name="OE" unicode="&#x152;" horiz-adv-x="2240" 
d="M729 1407q-255 1 -415 -197t-160 -495t160 -493t417 -196q256 0 417 196t161 490t-163 494t-417 201zM111 716q0 314 173 521t445 207q209 0 362 -124t216 -333v447h809v-41h-766v-676h659v-41h-659v-635h798v-41h-841v444q-63 -206 -215 -330t-363 -124q-274 0 -446 206
t-172 520z" />
    <glyph glyph-name="oe" unicode="&#x153;" horiz-adv-x="1916" 
d="M1026 549h776q-4 271 -165 413q-87 77 -210 76q-173 0 -283 -142t-118 -347zM551 1038q-188 0 -304 -143t-116 -363t116 -363q116 -142 304 -142t304 142t116 362q0 219 -116 363t-304 144zM90 532q0 238 127 391t334 152q172 -1 291 -109t155 -290q37 174 152 287
t278 112q195 1 306 -155t110 -369q0 -27 -2 -37h-815q4 -203 125 -345t309 -142q129 0 285 79l14 -30q-169 -86 -323 -86t-278 113q-123 113 -161 290q-35 -182 -153 -293t-293 -110q-207 0 -334 152t-127 390z" />
    <glyph glyph-name="Racute" unicode="&#x154;" horiz-adv-x="1159" 
d="M236 1397v-697h438q143 0 232 98t89 246q0 150 -90 251t-231 102h-438zM195 1434h475q160 0 263 -112t103 -270t-78 -257q-78 -98 -206 -123l323 -672h-47l-317 664h-475v-664h-41v1434zM614 1792l41 -20l-104 -256h-33z" />
    <glyph glyph-name="racute" unicode="&#x155;" horiz-adv-x="536" 
d="M162 1065h31l6 -231q33 109 110 171q78 62 178 62v-37q-117 -2 -201 -96t-83 -248v-686h-41v1065zM358 1473l41 -21l-104 -256h-33z" />
    <glyph glyph-name="Rcommaaccent" unicode="&#x156;" horiz-adv-x="1159" 
d="M236 1397v-697h438q143 0 232 98t89 246q0 150 -90 251t-231 102h-438zM195 1434h475q160 0 263 -112t103 -270t-78 -257q-78 -98 -206 -123l323 -672h-47l-317 664h-475v-664h-41v1434zM602 -160q53 0 53 -80q0 -109 -92 -159l-10 16q68 39 68 119q0 16 -7 35
q-10 -12 -22 -13q-35 0 -35 41t45 41z" />
    <glyph glyph-name="rcommaaccent" unicode="&#x157;" horiz-adv-x="544" 
d="M170 1065h31l6 -231q33 109 110 171q78 62 179 62v-37q-117 -2 -201 -96t-84 -248v-686h-41v1065zM193 -160q53 0 53 -80q0 -109 -92 -159l-11 16q68 39 68 119q0 16 -6 35q-10 -12 -23 -13q-35 0 -35 39q1 43 46 43z" />
    <glyph glyph-name="Rcaron" unicode="&#x158;" horiz-adv-x="1159" 
d="M236 1397v-697h438q143 0 232 98t89 246q0 150 -90 251t-231 102h-438zM195 1434h475q160 0 263 -112t103 -270t-78 -257q-78 -98 -206 -123l323 -672h-47l-317 664h-475v-664h-41v1434zM369 1716h45l133 -155l131 155h45l-164 -192h-27z" />
    <glyph glyph-name="rcaron" unicode="&#x159;" horiz-adv-x="536" 
d="M162 1065h31l6 -231q33 109 110 171q78 62 178 62v-37q-117 -2 -201 -96t-83 -248v-686h-41v1065zM125 1389h45l133 -156l131 156h45l-164 -193h-26z" />
    <glyph glyph-name="Sacute" unicode="&#x15a;" horiz-adv-x="1015" 
d="M514 -10q-194 0 -405 106l14 33q225 -102 397 -102t266 85t94 252t-151 249q-69 38 -149 67q-80 28 -161 58t-149 70t-109 113q-42 73 -42 173q0 166 103 258q102 92 288 92t356 -82l-14 -33q-58 29 -160 53t-176 25q-158 0 -256 -81t-98 -220t79 -217t191 -115t222 -76
q112 -39 191 -124t79 -222q0 -176 -108 -269t-302 -93zM575 1792l41 -20l-104 -256h-33z" />
    <glyph glyph-name="sacute" unicode="&#x15b;" horiz-adv-x="811" 
d="M406 -10q-156 0 -304 80l15 32q152 -76 289 -76q138 0 208 61q70 60 70 173q0 141 -131 202q-54 26 -143 54q-90 28 -130 46t-85 52q-91 67 -91 193q0 127 80 198t222 71t276 -58l-14 -33q-115 53 -246 53t-204 -57t-73 -171t82 -169q60 -40 153 -70q228 -73 287 -139
q58 -67 58 -184q0 -118 -82 -188q-81 -70 -237 -70zM477 1473l41 -21l-104 -256h-33z" />
    <glyph glyph-name="Scircumflex" unicode="&#x15c;" horiz-adv-x="1015" 
d="M514 -10q-194 0 -405 106l14 33q225 -102 397 -102t266 85t94 252t-151 249q-69 38 -149 67q-80 28 -161 58t-149 70t-109 113q-42 73 -42 173q0 166 103 258q102 92 288 92t356 -82l-14 -33q-58 29 -160 53t-176 25q-158 0 -256 -81t-98 -220t79 -217t191 -115t222 -76
q112 -39 191 -124t79 -222q0 -176 -108 -269t-302 -93zM391 1524h-45l164 192h27l163 -192h-45l-131 155z" />
    <glyph glyph-name="scircumflex" unicode="&#x15d;" horiz-adv-x="811" 
d="M406 -10q-156 0 -304 80l15 32q152 -76 289 -76q138 0 208 61q70 60 70 173q0 141 -131 202q-54 26 -143 54q-90 28 -130 46t-85 52q-91 67 -91 193q0 127 80 198t222 71t276 -58l-14 -33q-115 53 -246 53t-204 -57t-73 -171t82 -169q60 -40 153 -70q228 -73 287 -139
q58 -67 58 -184q0 -118 -82 -188q-81 -70 -237 -70zM272 1196h-45l164 193h27l164 -193h-45l-131 156z" />
    <glyph glyph-name="Scedilla" unicode="&#x15e;" horiz-adv-x="1017" 
d="M520 27q172 0 266 85t94 252t-151 249q-69 38 -149 67q-80 28 -161 58t-149 70t-109 113q-42 73 -42 173q0 166 103 258q102 92 288 92t356 -82l-14 -33q-58 29 -160 53t-176 25q-158 0 -256 -81t-98 -220t79 -217t191 -115t222 -76q112 -39 191 -124t79 -222
q0 -174 -106 -267t-294 -95l-39 -140q67 11 112 -23q44 -35 44 -97t-45 -92q-44 -30 -104 -31q-60 0 -103 14l6 23q41 -10 82 -11q125 0 125 99q0 42 -26 70t-59 28q-34 0 -44 -2l-18 20l43 142q-197 6 -389 106l14 33q225 -102 397 -102z" />
    <glyph glyph-name="scedilla" unicode="&#x15f;" horiz-adv-x="811" 
d="M684 260q0 141 -131 202q-54 26 -143 54q-90 28 -130 46t-85 52q-91 67 -91 193q0 127 80 198t222 71t276 -58l-14 -33q-115 53 -246 53t-204 -57t-73 -171t82 -169q60 -40 153 -70q228 -73 287 -139q58 -67 58 -184t-82 -188t-229 -70l-39 -140q66 11 111 -23
q44 -34 44 -96t-45 -93t-104 -31t-102 14l6 23q41 -10 82 -11q125 0 125 101q0 44 -25 70t-60 26t-45 -2l-18 20l41 142q-150 8 -283 80l15 32q152 -76 289 -76q138 0 208 61q70 60 70 173z" />
    <glyph glyph-name="Scaron" unicode="&#x160;" horiz-adv-x="1015" 
d="M514 -10q-194 0 -405 106l14 33q225 -102 397 -102t266 85t94 252t-151 249q-69 38 -149 67q-80 28 -161 58t-149 70t-109 113q-42 73 -42 173q0 166 103 258q102 92 288 92t356 -82l-14 -33q-58 29 -160 53t-176 25q-158 0 -256 -81t-98 -220t79 -217t191 -115t222 -76
q112 -39 191 -124t79 -222q0 -176 -108 -269t-302 -93zM342 1716h45l133 -155l131 155h45l-164 -192h-26z" />
    <glyph glyph-name="scaron" unicode="&#x161;" horiz-adv-x="811" 
d="M406 -10q-156 0 -304 80l15 32q152 -76 289 -76q138 0 208 61q70 60 70 173q0 141 -131 202q-54 26 -143 54q-90 28 -130 46t-85 52q-91 67 -91 193q0 127 80 198t222 71t276 -58l-14 -33q-115 53 -246 53t-204 -57t-73 -171t82 -169q60 -40 153 -70q228 -73 287 -139
q58 -67 58 -184q0 -118 -82 -188q-81 -70 -237 -70zM229 1389h45l134 -156l131 156h45l-164 -193h-27z" />
    <glyph glyph-name="Tcommaaccent" unicode="&#x162;" horiz-adv-x="1005" 
d="M20 1434h965v-37h-461v-1397h-41v1397h-463v37zM506 -160q53 0 53 -80q0 -109 -92 -159l-10 16q68 39 67 119q0 16 -6 35q-10 -12 -22 -13q-35 0 -35 41t45 41z" />
    <glyph glyph-name="tcommaaccent" unicode="&#x163;" horiz-adv-x="565" 
d="M492 45l4 -33q-56 -22 -114 -22q-105 1 -154 54q-34 39 -41 144q-1 31 -1 95v747h-139v25l139 10l13 307h28v-307h267v-35h-267v-747q0 -182 33 -215q41 -41 103 -41q61 0 129 18zM322 -160q53 0 53 -80q0 -109 -92 -159l-11 16q68 39 68 119q0 16 -6 35q-10 -12 -23 -13
q-35 0 -35 39q1 43 46 43z" />
    <glyph glyph-name="Tcaron" unicode="&#x164;" horiz-adv-x="1005" 
d="M20 1434h965v-37h-461v-1397h-41v1397h-463v37zM326 1716h45l133 -155l131 155h45l-164 -192h-27z" />
    <glyph glyph-name="tcaron" unicode="&#x165;" horiz-adv-x="565" 
d="M492 45l4 -33q-56 -22 -114 -22q-105 1 -154 54q-34 39 -41 144q-1 31 -1 95v747h-139v25l139 10l13 307h28v-307h267v-35h-267v-747q0 -182 33 -215q41 -41 103 -41q61 0 129 18zM473 1499h35q0 -176 -62 -299l-14 8q41 129 41 291z" />
    <glyph glyph-name="Tbar" unicode="&#x166;" horiz-adv-x="1013" 
d="M25 1434h964v-37h-461v-635h344v-31h-344v-731h-41v731h-348v31h348v635h-462v37z" />
    <glyph glyph-name="tbar" unicode="&#x167;" horiz-adv-x="567" 
d="M494 45l4 -33q-56 -22 -114 -22q-105 1 -154 54q-34 39 -41 144q-1 31 -1 95v555h-139v30h139v162h-139v25l139 10l13 307h28v-307h267v-35h-267v-162h267v-30h-267v-555q0 -182 33 -215q41 -41 103 -41t129 18z" />
    <glyph glyph-name="Utilde" unicode="&#x168;" horiz-adv-x="1236" 
d="M182 1434h41v-1004q0 -174 112 -289q113 -115 285 -115t283 116q111 114 111 288v1004h41v-994q0 -202 -122 -326t-317 -124q-194 0 -314 125t-120 325v994zM516 1634q39 0 106 -40q68 -40 116 -40t98 66l14 -12q-49 -92 -131 -92q-41 0 -108 40t-118 41q-51 0 -92 -61
l-14 12q41 86 129 86z" />
    <glyph glyph-name="utilde" unicode="&#x169;" horiz-adv-x="1058" 
d="M152 1065h41v-639q0 -399 309 -399q172 1 263 121t91 280v637h41v-1065h-31l-8 254q-35 -123 -130 -194t-230 -70q-170 0 -258 112t-88 326v637zM424 1307q40 0 106 -40t115 -40t98 65l15 -12q-49 -92 -131 -92q-41 0 -108 41t-118 41t-92 -62l-14 13q41 86 129 86z" />
    <glyph glyph-name="Umacron" unicode="&#x16a;" horiz-adv-x="1236" 
d="M182 1434h41v-1004q0 -174 112 -289q113 -115 285 -115t283 116q111 114 111 288v1004h41v-994q0 -202 -122 -326t-317 -124q-194 0 -314 125t-120 325v994zM371 1597h493v-34h-493v34z" />
    <glyph glyph-name="umacron" unicode="&#x16b;" horiz-adv-x="1058" 
d="M152 1065h41v-639q0 -399 309 -399q172 1 263 121t91 280v637h41v-1065h-31l-8 254q-35 -123 -130 -194t-230 -70q-170 0 -258 112t-88 326v637zM274 1270h494v-35h-494v35z" />
    <glyph glyph-name="Ubreve" unicode="&#x16c;" horiz-adv-x="1236" 
d="M182 1434h41v-1004q0 -174 112 -289q113 -115 285 -115t283 116q111 114 111 288v1004h41v-994q0 -202 -122 -326t-317 -124q-194 0 -314 125t-120 325v994zM622 1516q-174 0 -200 182h33q16 -68 53 -106t115 -38t115 38t53 106h32q-27 -182 -201 -182z" />
    <glyph glyph-name="ubreve" unicode="&#x16d;" horiz-adv-x="1058" 
d="M152 1065h41v-639q0 -399 309 -399q172 1 263 121t91 280v637h41v-1065h-31l-8 254q-35 -123 -130 -194t-230 -70q-170 0 -258 112t-88 326v637zM530 1188q-174 0 -200 182h32q16 -68 54 -106t114 -37q78 -1 115 37t53 106h33q-27 -182 -201 -182z" />
    <glyph glyph-name="Uring" unicode="&#x16e;" horiz-adv-x="1236" 
d="M182 1434h41v-1004q0 -174 112 -289q113 -115 285 -115t283 116q111 114 111 288v1004h41v-994q0 -202 -122 -326t-317 -124q-194 0 -314 125t-120 325v994zM621 1556q45 0 79 31t35 84q0 53 -35 83q-36 30 -80 30t-78 -30t-34 -84t34 -84t79 -30zM621 1524
q-66 0 -109 41t-43 105t43 106q43 41 110 41q68 0 110 -41q42 -42 42 -106t-44 -105t-109 -41z" />
    <glyph glyph-name="uring" unicode="&#x16f;" horiz-adv-x="1058" 
d="M152 1065h41v-639q0 -399 309 -399q172 1 263 121t91 280v637h41v-1065h-31l-8 254q-35 -123 -130 -194t-230 -70q-170 0 -258 112t-88 326v637zM541 1227q45 1 80 31t35 83t-35 83t-80 30t-79 -30t-34 -84t34 -84t79 -29zM541 1194q-66 0 -109 41t-43 105t43 106
q43 41 110 41q68 0 110 -41q42 -42 42 -106t-44 -105t-109 -41z" />
    <glyph glyph-name="Uhungarumlaut" unicode="&#x170;" horiz-adv-x="1236" 
d="M182 1434h41v-1004q0 -174 112 -289q113 -115 285 -115t283 116q111 114 111 288v1004h41v-994q0 -202 -122 -326t-317 -124q-194 0 -314 125t-120 325v994zM756 1792l41 -20l-105 -256h-33zM567 1792l41 -20l-104 -256h-33z" />
    <glyph glyph-name="uhungarumlaut" unicode="&#x171;" horiz-adv-x="1058" 
d="M152 1065h41v-639q0 -399 309 -399q172 1 263 121t91 280v637h41v-1065h-31l-8 254q-35 -123 -130 -194t-230 -70q-170 0 -258 112t-88 326v637zM676 1473l41 -21l-105 -256h-32zM487 1473l41 -21l-104 -256h-33z" />
    <glyph glyph-name="Uogonek" unicode="&#x172;" horiz-adv-x="1232" 
d="M180 1434h41v-1004q0 -174 112 -289q113 -115 289 -115t283 114q106 114 107 290v1004h41v-994q0 -160 -80 -274t-215 -156q-51 -36 -81 -106t-30 -125t26 -84t57 -29t56 10l7 -20q-31 -20 -73 -20t-74 34q-32 35 -34 94q-2 60 29 130t74 106q-39 -10 -101 -10
q-194 0 -314 125t-120 325v994z" />
    <glyph glyph-name="uogonek" unicode="&#x173;" horiz-adv-x="1056" 
d="M152 1065h41v-639q0 -399 309 -399q172 1 263 121t91 280v637h41v-1065q-59 -39 -90 -99t-31 -114q0 -111 92 -111q29 0 47 9l9 -23q-27 -16 -73 -16t-78 39t-32 99t36 122q36 61 93 94h-4l-8 254q-35 -123 -130 -194t-230 -70q-170 0 -258 112t-88 326v637z" />
    <glyph glyph-name="Wcircumflex" unicode="&#x174;" horiz-adv-x="1665" 
d="M807 1434h47l340 -1373h2l338 1373h41l-352 -1434h-56l-336 1370h-2l-333 -1370h-56l-354 1434h41l340 -1373h2zM698 1524h-45l164 192h27l164 -192h-45l-132 155z" />
    <glyph glyph-name="wcircumflex" unicode="&#x175;" horiz-adv-x="1402" 
d="M674 1065h51l262 -1010l285 1010h45l-301 -1065h-58l-258 1006l-260 -1006h-57l-297 1065h43l283 -1010zM567 1196h-45l164 193h27l164 -193h-46l-131 156z" />
    <glyph glyph-name="Ycircumflex" unicode="&#x176;" horiz-adv-x="1028" 
d="M532 0h-43v590l-432 844h49l404 -799h2l406 799h47l-433 -844v-590zM379 1524h-45l164 192h26l164 -192h-45l-131 155z" />
    <glyph glyph-name="ycircumflex" unicode="&#x177;" horiz-adv-x="905" 
d="M82 1065h43l334 -1024l321 1024h43l-450 -1413h-43l106 338zM326 1196h-45l163 193h27l164 -193h-45l-131 156z" />
    <glyph glyph-name="Ydieresis" unicode="&#x178;" horiz-adv-x="1028" 
d="M532 0h-43v590l-432 844h49l404 -799h2l406 799h47l-433 -844v-590zM637 1567q0 16 13 29q31 31 59 0q12 -13 12 -29q0 -15 -12 -29q-13 -14 -29 -14t-30 13q-13 14 -13 30zM305 1567q0 16 13 29q30 30 60 0q13 -13 13 -29q0 -15 -13 -29q-14 -14 -30 -14t-30 13
q-13 14 -13 30z" />
    <glyph glyph-name="Zacute" unicode="&#x179;" 
d="M84 1434h891v-37l-862 -1362l2 -2l344 4h504v-37h-900v37l863 1362l-2 2l-443 -4h-397v37zM580 1792l41 -20l-105 -256h-33z" />
    <glyph glyph-name="zacute" unicode="&#x17a;" horiz-adv-x="872" 
d="M84 1065h713v-35l-686 -997l2 -2l311 4h373v-35h-734v33l687 999l-2 2l-328 -4h-336v35zM485 1473l41 -21l-104 -256h-33z" />
    <glyph glyph-name="Zdotaccent" unicode="&#x17b;" 
d="M84 1434h891v-37l-862 -1362l2 -2l344 4h504v-37h-900v37l863 1362l-2 2l-443 -4h-397v37zM471 1567q0 16 13 29q31 31 59 0q12 -13 12 -29q0 -15 -12 -29q-13 -14 -29 -14t-30 13q-13 14 -13 30z" />
    <glyph glyph-name="zdotaccent" unicode="&#x17c;" horiz-adv-x="872" 
d="M84 1065h713v-35l-686 -997l2 -2l311 4h373v-35h-734v33l687 999l-2 2l-328 -4h-336v35zM389 1243q0 15 13 29q14 14 30 14t28 -13t13 -29q0 -16 -12 -30q-13 -14 -29 -14t-30 13q-13 14 -13 30z" />
    <glyph glyph-name="Zcaron" unicode="&#x17d;" 
d="M84 1434h891v-37l-862 -1362l2 -2l344 4h504v-37h-900v37l863 1362l-2 2l-443 -4h-397v37zM358 1716h45l134 -155l131 155h45l-164 -192h-27z" />
    <glyph glyph-name="zcaron" unicode="&#x17e;" horiz-adv-x="872" 
d="M84 1065h713v-35l-686 -997l2 -2l311 4h373v-35h-734v33l687 999l-2 2l-328 -4h-336v35zM266 1389h45l133 -156l131 156h46l-164 -193h-27z" />
    <glyph glyph-name="AEacute" unicode="&#x1fc;" horiz-adv-x="1609" 
d="M1102 1792l41 -20l-105 -256h-32zM741 1397h-90l-370 -934h460v934zM1548 1434v-37h-766v-682h662v-37h-662v-641h799v-37h-840v426h-477l-168 -426h-45l576 1434h921z" />
    <glyph glyph-name="aeacute" unicode="&#x1fd;" horiz-adv-x="1681" 
d="M721 545v14q-129 29 -221 29q-380 0 -379 -285q0 -141 84 -209q85 -68 203 -68t210 78q92 76 144 203q-41 111 -41 238zM764 549h776q-4 271 -165 413q-87 77 -210 76q-173 0 -283 -142t-118 -347zM479 1075q147 0 225 -51t99 -170q59 102 152 162t210 59
q195 -1 305 -157t111 -369q0 -25 -2 -35h-815q4 -203 125 -345t309 -142q129 0 285 79l14 -30q-168 -86 -304 -86t-244 74t-167 198q-55 -125 -155 -199q-101 -73 -229 -73t-223 76t-95 242t113 241q113 76 282 76q104 0 248 -25q10 104 47 188q-10 138 -81 194t-211 56
t-296 -47l-10 33q160 51 307 51zM887 1473l41 -21l-105 -256h-32z" />
    <glyph glyph-name="Oslashacute" unicode="&#x1fe;" horiz-adv-x="1460" 
d="M778 1792l41 -20l-104 -256h-33zM1309 713q0 177 -65 329t-179 246l-639 -1169q131 -92 303 -92q258 -1 419 195t161 491zM154 713q0 -182 63 -332t180 -242l637 1172q-135 96 -305 96q-255 1 -415 -197t-160 -497zM111 715q0 315 173 522t445 207q180 0 326 -96l80 145
h43l-93 -168q125 -98 196 -258t71 -352q0 -313 -173 -519t-450 -206q-184 0 -321 94l-78 -141h-41l88 161q-125 96 -196 256q-70 160 -70 355z" />
    <glyph glyph-name="oslashacute" unicode="&#x1ff;" horiz-adv-x="1112" 
d="M590 1473l41 -21l-105 -256h-32zM977 530q0 279 -172 422l-467 -860q98 -66 219 -65q188 0 304 142t116 361zM557 1038q-188 0 -304 -143t-116 -365q0 -279 170 -415l469 858q-98 65 -219 65zM1018 530q0 -236 -127 -388t-334 -152q-133 0 -240 67l-67 -125h-41l80 146
q-193 147 -193 452q0 240 127 393t334 152q131 0 238 -67l69 125h41l-80 -148q193 -151 193 -455z" />
    <glyph glyph-name="Scommaaccent" unicode="&#x218;" horiz-adv-x="1015" 
d="M514 -10q-194 0 -405 106l14 33q225 -102 397 -102t266 85t94 252t-151 249q-69 38 -149 67q-80 28 -161 58t-149 70t-109 113q-42 73 -42 173q0 166 103 258q102 92 288 92t356 -82l-14 -33q-58 29 -160 53t-176 25q-158 0 -256 -81t-98 -220t79 -217t191 -115t222 -76
q112 -39 191 -124t79 -222q0 -176 -108 -269t-302 -93zM524 -160q53 0 54 -80q0 -109 -93 -159l-10 16q68 39 68 119q0 16 -6 35q-10 -12 -23 -13q-35 0 -35 41t45 41z" />
    <glyph glyph-name="scommaaccent" unicode="&#x219;" horiz-adv-x="811" 
d="M406 -10q-156 0 -304 80l15 32q152 -76 289 -76q138 0 208 61q70 60 70 173q0 141 -131 202q-54 26 -143 54q-90 28 -130 46t-85 52q-91 67 -91 193q0 127 80 198t222 71t276 -58l-14 -33q-115 53 -246 53t-204 -57t-73 -171t82 -169q60 -40 153 -70q228 -73 287 -139
q58 -67 58 -184q0 -118 -82 -188q-81 -70 -237 -70zM430 -160q53 0 53 -80q0 -109 -92 -159l-10 16q68 39 68 119q0 16 -7 35q-10 -12 -22 -13q-35 0 -35 41t45 41z" />
    <glyph glyph-name="circumflex" unicode="&#x2c6;" horiz-adv-x="645" 
d="M193 1321h-35l145 188h43l146 -188h-35l-131 152z" />
    <glyph glyph-name="caron" unicode="&#x2c7;" horiz-adv-x="645" 
d="M158 1509h35l133 -151l131 151h35l-146 -188h-43z" />
    <glyph glyph-name="breve" unicode="&#x2d8;" horiz-adv-x="667" 
d="M338 1364q125 0 166 139h20q-16 -92 -59 -134t-130 -42t-131 41t-57 135h21q16 -47 32 -73t50 -46q35 -20 88 -20z" />
    <glyph glyph-name="dotaccent" unicode="&#x2d9;" horiz-adv-x="403" 
d="M174 1428q0 32 27 32q12 0 21 -9t9 -23t-9 -22q-9 -9 -21 -9q-27 -1 -27 31z" />
    <glyph glyph-name="ring" unicode="&#x2da;" horiz-adv-x="555" 
d="M281 1227q45 1 79 31t35 83q0 53 -35 83q-36 30 -80 30t-78 -30t-34 -84t34 -84t79 -29zM281 1194q-66 0 -109 41t-43 105t43 106q43 41 110 41q68 0 110 -41q42 -42 42 -106t-44 -105t-109 -41z" />
    <glyph glyph-name="ogonek" unicode="&#x2db;" horiz-adv-x="475" 
d="M182 -213q0 -111 92 -111q29 0 48 9l6 -19q-33 -20 -75 -20t-74 39t-32 103t40 128q41 65 102 96l8 -16q-57 -37 -86 -96t-29 -113z" />
    <glyph glyph-name="tilde" unicode="&#x2dc;" horiz-adv-x="755" 
d="M502 1348q49 0 98 65l14 -12q-49 -92 -131 -92q-41 0 -107 42q-66 41 -118 41q-51 0 -92 -61l-14 12q41 86 129 87q39 0 105 -41t116 -41z" />
    <glyph glyph-name="hungarumlaut" unicode="&#x2dd;" horiz-adv-x="624" 
d="M430 1501l41 -18l-111 -240h-22zM242 1501l41 -18l-111 -240h-20z" />
    <glyph glyph-name="Wgrave" unicode="&#x1e80;" horiz-adv-x="1665" 
d="M807 1434h47l340 -1373h2l338 1373h41l-352 -1434h-56l-336 1370h-2l-333 -1370h-56l-354 1434h41l340 -1373h2zM707 1772l41 20l96 -276h-33z" />
    <glyph glyph-name="wgrave" unicode="&#x1e81;" horiz-adv-x="1402" 
d="M674 1065h51l262 -1010l285 1010h45l-301 -1065h-58l-258 1006l-260 -1006h-57l-297 1065h43l283 -1010zM573 1452l41 21l97 -277h-33z" />
    <glyph glyph-name="Wacute" unicode="&#x1e82;" horiz-adv-x="1665" 
d="M807 1434h47l340 -1373h2l338 1373h41l-352 -1434h-56l-336 1370h-2l-333 -1370h-56l-354 1434h41l340 -1373h2zM913 1792l41 -20l-104 -256h-33z" />
    <glyph glyph-name="wacute" unicode="&#x1e83;" horiz-adv-x="1402" 
d="M674 1065h51l262 -1010l285 1010h45l-301 -1065h-58l-258 1006l-260 -1006h-57l-297 1065h43l283 -1010zM788 1473l41 -21l-104 -256h-33z" />
    <glyph glyph-name="Wdieresis" unicode="&#x1e84;" horiz-adv-x="1665" 
d="M807 1434h47l340 -1373h2l338 1373h41l-352 -1434h-56l-336 1370h-2l-333 -1370h-56l-354 1434h41l340 -1373h2zM958 1567q0 16 14 29q31 30 58 0q12 -13 12 -29q0 -15 -12 -29t-28 -14t-30 14t-14 29zM627 1567q0 16 13 29q31 31 60 1t-1 -60q-13 -13 -29 -13t-30 13
q-13 14 -13 30z" />
    <glyph glyph-name="wdieresis" unicode="&#x1e85;" horiz-adv-x="1402" 
d="M674 1065h51l262 -1010l285 1010h45l-301 -1065h-58l-258 1006l-260 -1006h-57l-297 1065h43l283 -1010zM821 1243q-1 15 13 29t30 14t28 -13t13 -29q0 -16 -12 -30q-13 -14 -29 -14t-30 14t-13 29zM489 1243q-1 15 13 29t30 14t30 -13t13 -29q0 -16 -13 -30
q-14 -14 -30 -14t-30 14t-13 29z" />
    <glyph glyph-name="germandbls.case" unicode="&#x1e9e;" horiz-adv-x="1196" 
d="M182 942q0 218 98 360t310 142q210 0 350 -164l-244 -457q426 -68 426 -426q0 -188 -122 -311t-276 -123t-282 55l15 39q125 -55 261 -55t250 111t113 284q0 330 -407 391l-21 33l238 451q-47 59 -136 97t-180 38q-180 0 -266 -133t-86 -332v-942h-41v942z" />
    <glyph glyph-name="Ygrave" unicode="&#x1ef2;" horiz-adv-x="1028" 
d="M532 0h-43v590l-432 844h49l404 -799h2l406 799h47l-433 -844v-590zM414 1772l41 20l96 -276h-33z" />
    <glyph glyph-name="ygrave" unicode="&#x1ef3;" horiz-adv-x="905" 
d="M82 1065h43l334 -1024l321 1024h43l-450 -1413h-43l106 338zM350 1452l41 21l96 -277h-32z" />
    <glyph glyph-name="endash" unicode="&#x2013;" horiz-adv-x="1249" 
d="M145 664h959v-39h-959v39z" />
    <glyph glyph-name="emdash" unicode="&#x2014;" horiz-adv-x="1284" 
d="M145 664h994v-39h-994v39z" />
    <glyph glyph-name="quoteleft" unicode="&#x2018;" horiz-adv-x="417" 
d="M210 1114q-26 0 -44 36t-19 83q0 115 115 192l8 -14q-50 -39 -74 -105t5 -128q4 18 26 18q33 0 33 -39q0 -16 -11 -30q-13 -13 -39 -13z" />
    <glyph glyph-name="quoteright" unicode="&#x2019;" horiz-adv-x="419" 
d="M216 1425q26 1 44 -35t19 -83q0 -115 -115 -193l-8 14q51 39 74 105q24 66 -5 129q-4 -18 -26 -19q-33 0 -33 39q0 16 11 30q13 13 39 13z" />
    <glyph glyph-name="quotesinglbase" unicode="&#x201a;" horiz-adv-x="399" 
d="M200 82q26 0 44 -36t18 -83q0 -115 -115 -192l-8 14q51 39 75 105t-5 128q-4 -18 -27 -18q-33 0 -32 39q0 16 11 30q13 13 39 13z" />
    <glyph glyph-name="quotedblleft" unicode="&#x201c;" horiz-adv-x="673" 
d="M210 1114q-26 0 -44 36t-19 83q0 115 115 192l8 -14q-50 -39 -74 -105t5 -128q4 18 26 18q33 0 33 -39q0 -16 -11 -30q-13 -13 -39 -13zM466 1114q-26 0 -44 36t-19 83q0 115 115 192l8 -14q-50 -39 -74 -105t5 -128q4 18 26 18q33 0 33 -39q0 -16 -11 -30
q-13 -13 -39 -13z" />
    <glyph glyph-name="quotedblright" unicode="&#x201d;" horiz-adv-x="673" 
d="M470 1425q26 1 44 -35t18 -83q0 -115 -114 -193l-8 14q51 39 74 105q24 66 -5 129q-4 -18 -26 -19q-33 0 -33 39q0 16 11 30q13 13 39 13zM214 1425q26 1 44 -35t18 -83q0 -115 -114 -193l-8 14q51 39 74 105q24 66 -5 129q-4 -18 -26 -19q-33 0 -33 39q0 16 11 30
q13 13 39 13z" />
    <glyph glyph-name="quotedblbase" unicode="&#x201e;" horiz-adv-x="657" 
d="M456 82q26 0 44 -36t18 -83q0 -115 -115 -192l-8 14q51 39 75 105t-5 128q-4 -18 -27 -18q-33 0 -32 39q0 16 11 30q13 13 39 13zM200 82q26 0 44 -36t18 -83q0 -115 -115 -192l-8 14q51 39 75 105t-5 128q-4 -18 -27 -18q-33 0 -32 39q0 16 11 30q13 13 39 13z" />
    <glyph glyph-name="dagger" unicode="&#x2020;" horiz-adv-x="790" 
d="M694 1094v-66l-211 14v31zM96 1094l211 -21v-31l-211 -14v66zM371 1444h51l-10 -1227h-31z" />
    <glyph glyph-name="daggerdbl" unicode="&#x2021;" horiz-adv-x="864" 
d="M133 494l213 -19v-31l-213 -14v64zM731 494v-64l-211 14v31zM133 1094l213 -21v-31l-213 -14v66zM731 1094v-66l-211 14v31zM408 1444h51l-10 -1440h-31z" />
    <glyph glyph-name="bullet" unicode="&#x2022;" horiz-adv-x="600" 
d="M301 846q45 0 76 -36t31 -86t-31 -86t-76 -36t-77 36t-32 87t32 86t77 35z" />
    <glyph glyph-name="ellipsis" unicode="&#x2026;" horiz-adv-x="950" 
d="M705 39q0 17 11 29t26 12q14 0 26 -12t12 -30t-11 -28q-11 -12 -28 -12q-36 0 -36 41zM143 39q-1 17 11 29t27 12t27 -12t11 -30q0 -18 -11 -28q-11 -12 -28 -12q-37 0 -37 41zM424 39q0 41 37 41q16 0 27 -12q12 -12 12 -30t-12 -28q-12 -12 -29 -12q-35 0 -35 41z" />
    <glyph glyph-name="perthousand" unicode="&#x2030;" horiz-adv-x="2084" 
d="M1740 645q-102 0 -160 -88q-60 -88 -60 -222t60 -221t162 -87q101 0 161 86q59 86 59 220t-60 223t-162 89zM1741 -10q-119 0 -192 97t-73 247t73 248t192 98t191 -97t71 -248q1 -151 -71 -248t-191 -97zM1014 645q-102 0 -162 -88t-59 -222t61 -221t161 -87t161 86
q59 86 59 220t-60 223q-59 89 -161 89zM1014 -10q-119 0 -192 97q-72 97 -72 247t72 248q73 98 192 98q118 0 190 -97t72 -248t-72 -248t-190 -97zM350 1409q-102 0 -162 -88t-59 -222t61 -221t161 -87t161 86q59 86 59 220t-60 223q-59 89 -161 89zM1057 1440l-709 -1440
h-45l709 1440h45zM350 754q-120 0 -192 97t-72 247t73 248t191 98t191 -97q71 -97 71 -248t-72 -248t-190 -97z" />
    <glyph glyph-name="guilsinglleft" unicode="&#x2039;" horiz-adv-x="581" 
d="M432 987l25 -20l-310 -435l308 -432l-21 -20l-340 446v6z" />
    <glyph glyph-name="guilsinglright" unicode="&#x203a;" horiz-adv-x="581" 
d="M125 967l25 20l337 -455v-6l-340 -446l-20 20l307 432z" />
    <glyph glyph-name="fraction" unicode="&#x2044;" horiz-adv-x="698" 
d="M616 1440h39q-94 -240 -284 -720l-285 -720h-39q534 1354 569 1440z" />
    <glyph glyph-name="Euro" unicode="&#x20ac;" horiz-adv-x="1435" 
d="M913 1444q199 0 363 -94l-12 -31q-51 32 -154 60q-104 28 -197 28q-223 0 -379 -152t-192 -399h719l-12 -33h-711q-4 -35 -4 -107t4 -106h637l-10 -32h-623q37 -246 195 -399t381 -152q170 0 348 82v-39q-164 -80 -353 -80q-241 0 -409 162t-209 426h-125l10 32h113
q-6 52 -6 106t6 107h-154l13 33h143q41 264 210 426t408 162z" />
    <glyph glyph-name="trademark" unicode="&#x2122;" horiz-adv-x="1349" 
d="M696 1434h31l215 -424l203 424h37v-615h-33v559l-199 -411h-16l-207 411v-559h-31v615zM135 1434h400v-29h-183v-586h-30v586h-187v29z" />
    <glyph glyph-name="commaaccent" unicode="&#xf6c3;" horiz-adv-x="397" 
d="M190 -164q56 0 56 -93t-88 -153l-6 11q41 33 59 84t-6 102q0 -16 -19 -16q-29 0 -28 30q0 15 10 25t22 10z" />
    <glyph glyph-name="apple" unicode="&#xf8ff;" horiz-adv-x="2281" 
d="M2173 981v-63h61v-19h-61v-133q0 -51 39 -51q20 0 31 4l2 -17q-12 -6 -35 -6q-57 0 -58 72v131h-32v16l32 3l5 63h16zM1971 901q-39 -1 -65 -27t-26 -66t26 -68t64 -28t67 28q27 28 27 68t-26 66t-67 27zM1971 920q48 0 81 -32t33 -80t-34 -82t-80 -34t-79 34t-32 81
q0 47 31 80q32 33 80 33zM1618 807q0 -41 24 -68t62 -27q36 0 62 28t26 67t-26 67t-62 27t-62 -27q-24 -26 -24 -67zM1812 807q0 -47 -30 -81t-86 -34q-58 0 -76 53v-120h-23v293h17l4 -52q25 54 79 54q55 0 85 -33t30 -80zM1520 815q0 33 -22 59t-56 27q-34 0 -61 -25
q-25 -26 -27 -61h166zM1440 920q46 0 74 -33t28 -78l-2 -10h-186q2 -37 28 -62q47 -46 134 -8l8 -16q-100 -49 -160 13q-33 34 -33 81t32 80t77 33zM1079 807q0 -41 25 -69q24 -28 62 -28t63 28t25 68t-26 68t-63 27t-61 -27t-25 -67zM1251 1008h21v-312h-17l-2 52
q-27 -56 -81 -56t-85 34t-30 81q0 47 30 80q31 33 84 33t80 -52v140zM750 823h120q-4 57 -55 58q-55 -1 -65 -58zM811 922q47 0 75 -33t27 -80l-2 -21h-161q6 -57 69 -57q23 0 66 14l14 -32q-35 -21 -83 -21t-81 32t-33 82t31 83t78 33zM489 807q1 -33 19 -53t48 -20t48 20
t19 53q-1 33 -19 53t-47 20t-49 -20t-19 -53zM670 807q0 -49 -29 -82t-78 -33t-69 31v-98h-48v293h37l6 -33q23 37 72 37t79 -33t30 -82zM254 625q-20 0 -43 6l8 41q13 -4 29 -4t31 28l-86 222h47l63 -173l62 173h49l-92 -232q-27 -61 -68 -61zM74 883h-31v28l31 7l8 63h37
v-63h51v-35h-51v-115q0 -33 28 -33l27 2l8 -32q-25 -8 -41 -9q-68 0 -67 76v111zM997 1008v-394h-8v394h8z" />
    <glyph glyph-name="a.alt" horiz-adv-x="1120" 
d="M920 529q0 213 -108 361t-276 148q-169 0 -283 -147t-114 -363q1 -216 105 -359q104 -142 276 -142t286 144t114 358zM532 1075q134 0 240 -89t148 -251l10 330h28v-1065h-40v322q-37 -154 -149 -243t-253 -89q-194 0 -306 152t-112 388t124 390t310 155z" />
    <glyph glyph-name="g.alt" horiz-adv-x="1095" 
d="M524 121q172 0 273 130q100 130 100 329q0 198 -100 328q-101 130 -269 130t-274 -133t-106 -329t102 -325q102 -130 274 -130zM492 -311q175 -1 287 107t112 325v248q-35 -127 -138 -206t-245 -79q-174 0 -289 140t-115 352t118 356q118 143 276 143t258 -79
q98 -79 139 -214l6 283h31v-930q0 -247 -117 -365t-313 -118t-342 90l14 31q143 -84 318 -84z" />
    <glyph glyph-name="f_b" horiz-adv-x="1646" 
d="M1109 1038q-165 0 -273 -143t-109 -359q0 -216 108 -362q107 -146 273 -147q166 0 283 148t116 357q0 209 -116 358q-117 148 -282 148zM729 1149v-404q45 158 151 244t236 86q180 -1 306 -157t126 -384t-122 -387q-122 -158 -310 -157q-139 0 -245 92q-105 92 -144 242
l-8 -324h-31v1149q0 154 -60 240t-176 86t-176 -86t-59 -240v-84h254v-35h-254v-1030h-41v1030h-115v23l115 12v84q0 176 75 269t202 93t201 -93t75 -269z" />
    <glyph glyph-name="f_f_b" horiz-adv-x="2097" 
d="M1956 532q0 210 -117 358t-282 148t-273 -143t-108 -359t107 -363q107 -146 273 -146t283 148t117 357zM1178 1159v-414q45 158 151 244t236 86q180 -1 306 -157t126 -384t-122 -387q-122 -158 -310 -157q-139 0 -245 92q-105 92 -144 242l-9 -324h-30v1159
q-1 154 -61 240t-176 86t-175 -86t-59 -240v-94h254v-35h-254v-1030h-41v1030h-410v-1030h-41v1030h-113v23l113 12v149q0 146 50 222t169 75q61 0 115 -16l-10 -33q-43 12 -105 13q-100 0 -139 -66t-39 -192v-152h410v94q0 176 74 269q75 94 202 94t202 -94t75 -269z" />
    <glyph glyph-name="f_h" horiz-adv-x="1583" 
d="M729 1149v-375q20 91 104 191q41 49 109 79t148 31q170 0 257 -123t87 -338v-614h-43v621q0 193 -78 305t-235 110q-157 0 -251 -134t-98 -294v-608h-41v1149q0 154 -60 240t-176 86t-176 -86t-59 -240v-84h254v-35h-254v-1030h-41v1030h-115v23l115 12v84q0 176 75 269
t202 93t201 -93t75 -269z" />
    <glyph glyph-name="f_f_h" horiz-adv-x="2031" 
d="M1534 1038q-111 0 -195 -70q-156 -129 -161 -360v-608h-41v1159q-1 154 -61 240t-176 86t-175 -86t-59 -240v-94h254v-35h-254v-1030h-41v1030h-410v-1030h-41v1030h-113v23l113 12v149q0 146 50 222t169 75q61 0 115 -16l-10 -33q-43 12 -105 13q-100 0 -139 -66
t-39 -192v-152h410v94q0 176 74 269q75 94 202 94t202 -94t75 -269v-385q21 93 103 191q42 49 110 79t147 31q170 0 257 -123t87 -338v-614h-43v621q0 193 -79 305t-226 112z" />
    <glyph glyph-name="f_k" horiz-adv-x="1337" 
d="M729 1149v-289l-2 -473l506 678h47l-365 -487l371 -578h-47l-346 549l-164 -217v-332h-41v1149q0 154 -60 240t-176 86t-176 -86t-59 -240v-84h254v-35h-254v-1030h-41v1030h-115v23l115 12v84q0 176 75 269t202 93t201 -93t75 -269z" />
    <glyph glyph-name="f_f_k" horiz-adv-x="1785" 
d="M1180 0h-41v1159q-1 154 -61 240t-176 86t-175 -86t-59 -240v-94h254v-35h-254v-1030h-41v1030h-410v-1030h-41v1030h-113v23l113 12v149q0 146 50 222t169 75q61 0 115 -16l-10 -33q-43 12 -105 13q-100 0 -139 -66t-39 -192v-152h410v94q0 176 74 269q75 94 202 94
t202 -94t75 -269v-299l-2 -473l505 678h48l-365 -487l371 -578h-47l-347 549l-163 -217v-332z" />
    <glyph glyph-name="dollar.tnum" horiz-adv-x="1202" 
d="M627 -162h-37v152q-213 8 -393 106l16 35q205 -102 392 -102t284 84q96 84 96 222t-56 197q-32 35 -57 58q-50 46 -198 92t-218 77q-169 72 -222 183q-30 66 -29 154q0 160 100 251t285 97v166h37v-166q174 -6 344 -84l-15 -33q-60 30 -165 55t-183 25q-160 0 -260 -77
t-100 -232t108 -235q54 -41 106 -63t196 -70t212 -89q160 -99 160 -279t-108 -274t-295 -98v-152z" />
    <glyph glyph-name="percent.tnum" horiz-adv-x="1202" 
d="M918 649q-96 0 -154 -90t-59 -224t59 -223t157 -89t154 87t58 222t-59 226t-156 91zM919 -10q-114 0 -184 97t-69 247q0 150 69 248q70 98 184 98q113 0 183 -97t70 -247t-70 -248q-69 -98 -183 -98zM283 1413q-97 0 -155 -90t-58 -224q0 -133 60 -223t156 -90
q97 0 154 87q58 87 58 223t-60 226q-60 91 -155 91zM238 0l680 1440h40l-679 -1440h-41zM284 1444q114 0 184 -97t69 -247q1 -150 -69 -248t-184 -98t-184 97t-69 247q0 150 69 248q70 98 184 98z" />
    <glyph glyph-name="plus.tnum" horiz-adv-x="1198" 
d="M580 1030h36v-366h345v-41h-345v-365h-36v365h-342v41h342v366z" />
    <glyph glyph-name="hyphen.tnum" horiz-adv-x="1198" 
d="M264 664h670v-39h-670v39z" />
    <glyph glyph-name="zero.tnum" horiz-adv-x="1202" 
d="M601 27q200 1 318 201q117 200 117 489t-118 489t-317 201q-199 0 -317 -199q-118 -200 -118 -490t118 -490t317 -201zM602 -10q-147 0 -258 100t-166 264t-55 367q0 305 129 514t349 209t350 -208t130 -516t-129 -519t-350 -211z" />
    <glyph glyph-name="one.tnum" horiz-adv-x="1200" 
d="M274 0v39h312v1339l-262 -110l-15 28l281 138h37v-1395h329v-39h-682z" />
    <glyph glyph-name="two.tnum" horiz-adv-x="1198" 
d="M997 37v-37h-819v39l459 491q279 297 278 525q0 162 -97 257q-96 95 -246 95t-318 -96l-16 28q168 105 336 105t276 -104t108 -284q0 -181 -119 -348q-79 -111 -173 -208l-433 -463h764z" />
    <glyph glyph-name="three.tnum" horiz-adv-x="1200" 
d="M1001 377q0 -164 -130 -276q-130 -111 -309 -111t-341 90l12 26q55 -32 145 -56t169 -23q164 0 289 102t125 270q0 169 -125 265t-289 96h-96v31h124q121 0 225 87q103 87 103 231t-102 221t-230 77t-292 -53l-11 28q143 62 298 62t267 -88q111 -88 111 -230t-80 -236
q-80 -95 -194 -114q150 -33 240 -134t91 -265z" />
    <glyph glyph-name="four.tnum" horiz-adv-x="1200" 
d="M848 432v928l-664 -928h664zM889 1434v-1002h170v-37h-170v-395h-41v395h-711v37l719 1002h33z" />
    <glyph glyph-name="five.tnum" horiz-adv-x="1200" 
d="M946 1434v-37h-594l-67 -596q143 104 314 104t295 -120q124 -119 124 -331t-135 -338t-317 -126t-365 96l12 27q172 -86 344 -86t296 123t124 309t-117 299q-117 112 -277 112t-307 -116l-30 16l76 664h624z" />
    <glyph glyph-name="six.tnum" horiz-adv-x="1198" 
d="M623 879q-161 0 -264 -126t-103 -297t105 -300t263 -129t258 123q101 123 101 308t-99 303q-100 118 -261 118zM674 1407q-195 0 -321 -177t-126 -571q0 -37 6 -81q31 158 142 248t252 89q177 -1 287 -125t110 -327t-108 -338t-303 -135t-310 178t-115 472t88 523
q50 127 152 204t248 77t289 -76l-15 -31q-152 70 -276 70z" />
    <glyph glyph-name="seven.tnum" horiz-adv-x="1200" 
d="M203 1434h846v-39l-594 -1395h-43l596 1397h-805v37z" />
    <glyph glyph-name="eight.tnum" horiz-adv-x="1200" 
d="M596 1407q-127 0 -216 -84t-89 -218t81 -228q81 -95 224 -95t223 94t80 230q0 135 -88 218t-215 83zM596 739q-168 0 -268 -102t-99 -253t103 -253t264 -102t264 103t103 253t-99 252t-268 102zM596 1444q146 0 246 -93t100 -229t-62 -232q-62 -95 -178 -126
q138 -35 222 -134t84 -245q0 -183 -121 -289t-291 -106t-290 106t-120 289q0 147 84 247t222 132q-117 31 -180 126q-62 96 -62 232t100 229q101 93 246 93z" />
    <glyph glyph-name="nine.tnum" horiz-adv-x="1198" 
d="M576 1407q-158 0 -260 -122q-102 -121 -101 -313t95 -308t258 -115q164 0 269 125t105 301t-104 304t-262 128zM971 778q0 37 -6 70q-33 -158 -145 -248t-242 -90q-190 0 -297 125q-106 125 -107 354q0 183 108 319t303 136t310 -176t115 -494q0 -224 -44 -370t-94 -226
q-51 -80 -141 -134q-91 -54 -223 -54t-275 76l15 30q152 -70 276 -69q195 0 321 178t126 573z" />
    <glyph glyph-name="equal.tnum" horiz-adv-x="1198" 
d="M281 522h637v-39h-637v39zM281 836h637v-37h-637v37z" />
    <glyph glyph-name="cent.tnum" horiz-adv-x="1200" 
d="M651 -10h-26v172q-193 14 -318 168t-125 372t125 373q125 154 318 168v174h26v-172h4q125 0 248 -61l-8 -31q-106 55 -233 55q-193 0 -316 -146t-123 -360t123 -359q123 -146 316 -146q111 0 202 41l31 14l8 -31q-123 -61 -248 -61h-4v-170z" />
    <glyph glyph-name="sterling.tnum" horiz-adv-x="1198" 
d="M643 1407q-153 0 -231 -101t-78 -270v-338h495v-34h-495v-406q0 -154 -107 -221h760v-37h-807v39q12 6 31 21q18 16 49 72t31 126v406h-107v34h107v336q0 186 89 298t261 112t281 -154l-29 -22q-98 139 -250 139z" />
    <glyph glyph-name="yen.tnum" horiz-adv-x="1198" 
d="M623 512h251v-31h-251v-129h251v-33h-251v-319h-43v319h-252v33h252v129h-252v31h252v78l-437 844h50l407 -799l404 799h47l-428 -844v-78z" />
    <glyph glyph-name="multiply.tnum" horiz-adv-x="1202" 
d="M606 637l-252 -248l-26 27l250 248l-246 249l26 25l248 -248l236 246l26 -25l-237 -247l243 -246l-26 -27z" />
    <glyph glyph-name="divide.tnum" horiz-adv-x="1202" 
d="M551 338q0 23 14 39q13 16 33 16t34 -16t15 -39q0 -23 -14 -39q-13 -16 -33 -16t-35 16q-14 16 -14 39zM233 662h734v-39h-734v39zM549 947q0 24 15 39q16 15 36 15t36 -16t15 -39q0 -23 -15 -39q-16 -16 -36 -16t-36 16q-15 16 -15 40z" />
    <glyph glyph-name="Euro.tnum" horiz-adv-x="1198" 
d="M786 1444q199 0 363 -94l-12 -31q-51 32 -154 60q-104 28 -197 28q-224 0 -380 -152t-191 -399h719l-12 -33h-711q-4 -35 -4 -107t4 -106h637l-10 -32h-623q37 -246 195 -399t381 -152q170 0 348 82v-39q-164 -80 -353 -80q-240 0 -408 162t-210 426h-125l10 32h113
q-6 52 -6 106t6 107h-154l13 33h143q41 264 210 426t408 162z" />
    <glyph glyph-name="agrave.alt" horiz-adv-x="1120" 
d="M920 529q0 213 -108 361t-276 148q-169 0 -283 -147t-114 -363q1 -216 105 -359q104 -142 276 -142t286 144t114 358zM532 1075q134 0 240 -89t148 -251l10 330h28v-1065h-40v322q-37 -154 -149 -243t-253 -89q-194 0 -306 152t-112 388t124 390t310 155zM461 1452l41 21
l96 -277h-33z" />
    <glyph glyph-name="acircumflex.alt" horiz-adv-x="1120" 
d="M920 529q0 213 -108 361t-276 148q-169 0 -283 -147t-114 -363q1 -216 105 -359q104 -142 276 -142t286 144t114 358zM532 1075q134 0 240 -89t148 -251l10 330h28v-1065h-40v322q-37 -154 -149 -243t-253 -89q-194 0 -306 152t-112 388t124 390t310 155zM442 1196h-45
l164 193h27l164 -193h-45l-132 156z" />
    <glyph glyph-name="aacute.alt" horiz-adv-x="1120" 
d="M920 529q0 213 -108 361t-276 148q-169 0 -283 -147t-114 -363q1 -216 105 -359q104 -142 276 -142t286 144t114 358zM532 1075q134 0 240 -89t148 -251l10 330h28v-1065h-40v322q-37 -154 -149 -243t-253 -89q-194 0 -306 152t-112 388t124 390t310 155zM573 1473
l41 -21l-104 -256h-33z" />
    <glyph glyph-name="adieresis.alt" horiz-adv-x="1120" 
d="M920 529q0 213 -108 361t-276 148q-169 0 -283 -147t-114 -363q1 -216 105 -359q104 -142 276 -142t286 144t114 358zM532 1075q134 0 240 -89t148 -251l10 330h28v-1065h-40v322q-37 -154 -149 -243t-253 -89q-194 0 -306 152t-112 388t124 390t310 155zM682 1243
q0 15 13 29t29 14t30 -13q12 -13 12 -29t-12 -30t-28 -14t-31 13q-13 14 -13 30zM350 1243q0 15 14 29t29 14t29 -13t14 -29t-13 -30t-29 -14t-30 14t-14 29z" />
    <glyph glyph-name="aring.alt" horiz-adv-x="1120" 
d="M920 529q0 213 -108 361t-276 148q-169 0 -283 -147t-114 -363q1 -216 105 -359q104 -142 276 -142t286 144t114 358zM532 1075q134 0 240 -89t148 -251l10 330h28v-1065h-40v322q-37 -154 -149 -243t-253 -89q-194 0 -306 152t-112 388t124 390t310 155zM559 1227
q45 1 80 31t35 83t-35 83t-80 30t-79 -30t-34 -84t34 -84t79 -29zM559 1194q-67 0 -109 41t-42 105t43 106q43 41 109 41t110 -41q43 -42 43 -106t-44 -105t-110 -41z" />
    <glyph glyph-name="aogonek.alt" horiz-adv-x="1120" 
d="M920 529q0 213 -108 361t-276 148q-169 0 -283 -147t-114 -363q1 -216 105 -359q104 -142 276 -142t286 144t114 358zM532 1075q134 0 240 -89t148 -251l10 330h28v-1065q-57 -37 -89 -98t-31 -115q0 -111 92 -111q23 0 47 11l6 -21q-33 -20 -75 -20t-73 39
q-32 39 -32 98t34 121t81 96v322q-37 -154 -149 -243t-253 -89q-194 0 -306 152t-112 388t124 390t310 155z" />
    <glyph glyph-name="amacron.alt" horiz-adv-x="1120" 
d="M920 529q0 213 -108 361t-276 148q-169 0 -283 -147t-114 -363q1 -216 105 -359q104 -142 276 -142t286 144t114 358zM532 1075q134 0 240 -89t148 -251l10 330h28v-1065h-40v322q-37 -154 -149 -243t-253 -89q-194 0 -306 152t-112 388t124 390t310 155zM307 1270h496
v-35h-496v35z" />
    <glyph glyph-name="atilde.alt" horiz-adv-x="1120" 
d="M920 529q0 213 -108 361t-276 148q-169 0 -283 -147t-114 -363q1 -216 105 -359q104 -142 276 -142t286 144t114 358zM532 1075q134 0 240 -89t148 -251l10 330h28v-1065h-40v322q-37 -154 -149 -243t-253 -89q-194 0 -306 152t-112 388t124 390t310 155zM463 1307
q39 0 105 -40t116 -40q49 0 98 65l15 -12q-49 -92 -131 -92q-41 0 -108 41t-118 41t-92 -62l-14 13q41 86 129 86z" />
    <glyph glyph-name="abreve.alt" horiz-adv-x="1120" 
d="M920 529q0 213 -108 361t-276 148q-169 0 -283 -147t-114 -363q1 -216 105 -359q104 -142 276 -142t286 144t114 358zM532 1075q134 0 240 -89t148 -251l10 330h28v-1065h-40v322q-37 -154 -149 -243t-253 -89q-194 0 -306 152t-112 388t124 390t310 155zM557 1206
q-88 0 -131 42t-57 136h20q15 -46 31 -72q40 -65 152 -67q112 -1 155 139h21q-16 -92 -60 -135t-131 -43z" />
    <glyph glyph-name="gbreve.alt" horiz-adv-x="1095" 
d="M524 121q172 0 273 130q100 130 100 329q0 198 -100 328q-101 130 -269 130t-274 -133t-106 -329t102 -325q102 -130 274 -130zM492 -311q175 -1 287 107t112 325v248q-35 -127 -138 -206t-245 -79q-174 0 -289 140t-115 352t118 356q118 143 276 143t258 -79
q98 -79 139 -214l6 283h31v-930q0 -247 -117 -365t-313 -118t-342 90l14 31q143 -84 318 -84zM544 1188q-174 0 -200 182h33q16 -68 53 -106t115 -37q78 -1 115 37t53 106h32q-27 -182 -201 -182z" />
    <glyph glyph-name="gcircumflex.alt" horiz-adv-x="1095" 
d="M524 121q172 0 273 130q100 130 100 329q0 198 -100 328q-101 130 -269 130t-274 -133t-106 -329t102 -325q102 -130 274 -130zM492 -311q175 -1 287 107t112 325v248q-35 -127 -138 -206t-245 -79q-174 0 -289 140t-115 352t118 356q118 143 276 143t258 -79
q98 -79 139 -214l6 283h31v-930q0 -247 -117 -365t-313 -118t-342 90l14 31q143 -84 318 -84zM408 1196h-46l164 193h27l164 -193h-45l-131 156z" />
    <glyph glyph-name="gcommaaccent.alt" horiz-adv-x="1095" 
d="M524 121q172 0 273 130q100 130 100 329q0 198 -100 328q-101 130 -269 130t-274 -133t-106 -329t102 -325q102 -130 274 -130zM492 -311q175 -1 287 107t112 325v248q-35 -127 -138 -206t-245 -79q-174 0 -289 140t-115 352t118 356q118 143 276 143t258 -79
q98 -79 139 -214l6 283h31v-930q0 -247 -117 -365t-313 -118t-342 90l14 31q143 -84 318 -84zM516 1206q-53 0 -53 80q0 109 92 160l10 -16q-68 -41 -67 -119q0 -16 6 -35q10 12 22 12q35 0 35 -41t-45 -41z" />
    <glyph glyph-name="gdotaccent.alt" horiz-adv-x="1095" 
d="M524 121q172 0 273 130q100 130 100 329q0 198 -100 328q-101 130 -269 130t-274 -133t-106 -329t102 -325q102 -130 274 -130zM492 -311q175 -1 287 107t112 325v248q-35 -127 -138 -206t-245 -79q-174 0 -289 140t-115 352t118 356q118 143 276 143t258 -79
q98 -79 139 -214l6 283h31v-930q0 -247 -117 -365t-313 -118t-342 90l14 31q143 -84 318 -84zM496 1243q0 15 13 29t29 14t29 -13q28 -30 0 -60q-12 -13 -28 -13t-30 13q-13 14 -13 30z" />
    <glyph glyph-name="J.alt" horiz-adv-x="444" 
d="M209 33v1353l-107 23v25h148v-1299q0 -41 -4 -110q-8 -119 -72 -197t-147 -115l-13 25q63 34 129 110t66 185z" />
    <glyph glyph-name="Jcircumflex.alt" horiz-adv-x="442" 
d="M209 33v1353l-107 23v25h148v-1299q0 -41 -4 -110q-8 -119 -72 -197t-147 -115l-13 25q63 34 129 110t66 185zM59 1524h-45l164 192h27l164 -192h-45l-131 155z" />
    <glyph glyph-name="j.alt" horiz-adv-x="370" 
d="M121 1309q0 23 15 39t37 16t36 -16t14 -39t-14 -38q-13 -15 -35 -15t-38 14q-16 16 -15 39zM82 1065h127v-1071q0 -137 -26 -223t-109 -119l-13 24q106 55 107 261v1089l-86 16v23z" />
    <glyph glyph-name="jcircumflex.alt" horiz-adv-x="368" 
d="M18 1196h-45l164 193h27l164 -193h-45l-131 156zM82 1065h127v-1071q0 -137 -26 -223t-109 -119l-13 24q106 55 107 261v1089l-86 16v23z" />
    </font>
</defs>
</svg>
