<?xml version="1.0" standalone="no"?>
<!DOCTYPE svg PUBLIC "-//W3C//DTD SVG 1.1//EN" "http://www.w3.org/Graphics/SVG/1.1/DTD/svg11.dtd" >
<svg xmlns="http://www.w3.org/2000/svg">
<metadata>
Created by FontPrep 20130207 at Wed Nov 20 02:18:00 2013
 By MacMini
Copyright (c) 2011 by typedepot. All rights reserved.
</metadata>
<defs>
<font id="e1165f88416a600732f9d34befbddc06" horiz-adv-x='1024' >
  <font-face 
    font-family="CentraleSansLight-Italic"
    font-weight="350"
    font-style="italic"
    font-stretch="normal"
    units-per-em="2048"
    panose-1="0 0 0 0 0 0 0 0 0 0"
    ascent="1536"
    descent="-512"
    x-height="1065"
    cap-height="1434"
    bbox="-487 -399.026 2812 1882"
    underline-thickness="102"
    underline-position="-102"
    slope="-10"
    unicode-range="U+000D-FB04"
  />
<missing-glyph horiz-adv-x="1282" 
d="M377 1311l-242 -1372l479 690zM1182 1311l-482 -688l238 -684zM1163 1421h-739l246 -710zM893 -168l-248 709l-495 -709h743zM1288 1499l-307 -1745h-954l307 1745h954z" />
    <glyph glyph-name="f_f" unicode="ff" horiz-adv-x="1259" 
d="M1194 1524q96 0 195 -25l-23 -92q-63 23 -153 23q-174 0 -212 -216l-26 -149h315l-16 -88h-316l-206 -1202h-125l209 1202h-443l-209 -1202h-125l209 1202h-145l16 88h146l22 137q25 152 97 232q73 80 221 79q76 0 174 -24l-23 -92q-78 20 -135 20q-96 0 -143 -54
t-66 -161l-24 -137h444l27 149q27 147 99 229q73 81 216 81z" />
    <glyph glyph-name="f_f_i" unicode="ffi" horiz-adv-x="1695" 
d="M1290 1524q164 0 293 -99l-43 -71q-102 80 -236 80t-210 -64q-74 -64 -95 -174l-22 -131h629l-189 -1065h-125l172 977h-503l-209 -1202h-125l209 1202h-443l-213 -1202h-125l213 1202h-145l16 88h146l26 149q25 144 100 222t224 77q76 0 182 -26l-24 -92q-72 23 -154 22
q-170 0 -205 -203l-26 -149h444l22 129q31 160 141 245q111 85 275 85z" />
    <glyph glyph-name="f_f_l" unicode="ffl" horiz-adv-x="1748" 
d="M1495 1204q0 223 -225 223q-109 -1 -184 -73t-97 -205l-14 -84h276l-16 -88h-277l-210 -1202h-125l211 1202h-441l-213 -1202h-125l213 1202h-145l16 88h146l26 149q25 144 100 222t224 77q76 0 182 -26l-24 -92q-72 23 -154 22q-170 0 -205 -203l-26 -149h442l14 86
q27 160 130 266q102 107 268 107t263 -78t97 -232q0 -32 -16 -124l-160 -916q-10 -54 7 -72t70 -18t79 4l-15 -92q-55 -10 -137 -10t-116 40t-15 142l164 934q12 78 12 102z" />
    <glyph glyph-name=".notdef" horiz-adv-x="1282" 
d="M377 1311l-242 -1372l479 690zM1182 1311l-482 -688l238 -684zM1163 1421h-739l246 -710zM893 -168l-248 709l-495 -709h743zM1288 1499l-307 -1745h-954l307 1745h954z" />
    <glyph glyph-name=".null" horiz-adv-x="0" 
 />
    <glyph glyph-name=".null" horiz-adv-x="0" 
 />
    <glyph glyph-name="nonmarkingreturn" horiz-adv-x="681" 
 />
    <glyph glyph-name="CR" unicode="&#xd;" horiz-adv-x="591" 
 />
    <glyph glyph-name="space" unicode=" " horiz-adv-x="542" 
 />
    <glyph glyph-name="exclam" unicode="!" horiz-adv-x="536" 
d="M184 133q82 0 78 -74q-2 -33 -22 -55t-60 -22q-80 0 -78 73q2 33 24 55t58 23zM485 1440l-204 -1073h-105l176 1073h133z" />
    <glyph glyph-name="quotedbl" unicode="&#x22;" horiz-adv-x="808" 
d="M489 1434l-174 -506h-82l121 506h135zM797 1434l-174 -506h-82l123 506h133z" />
    <glyph glyph-name="numbersign" unicode="#" horiz-adv-x="1601" 
d="M682 969l-182 -518h458l183 518h-459zM1565 1077l-37 -108h-281l-182 -518h283l-37 -107h-283l-121 -344h-108l121 344h-457l-121 -344h-113l123 344h-284l38 107h283l184 518h-284l39 108h284l129 361h107l-127 -361h457l129 361h106l-127 -361h279z" />
    <glyph glyph-name="dollar" unicode="$" horiz-adv-x="1230" 
d="M371 1084q0 -108 71 -168q90 -75 332 -163q23 -9 77 -36q55 -27 75 -43q87 -68 106 -111q39 -86 39 -168q0 -178 -126 -295t-382 -118l-28 -164h-80l30 166q-225 18 -428 145l41 98q254 -145 477 -139q182 2 271 85q88 83 88 204q0 63 -21 108q-20 45 -77 83
q-91 61 -245 118t-256 136t-102 247t126 276t372 107h2l31 174h74l-31 -178q197 -16 391 -131l-45 -103q-225 132 -421 132t-278 -77q-83 -77 -83 -185z" />
    <glyph glyph-name="percent" unicode="%" horiz-adv-x="1679" 
d="M1454 1438l-1079 -1438h-105l1082 1438h102zM534 1372q-104 0 -176 -85t-72 -206t56 -178q55 -57 160 -57q104 0 174 84t69 217q-1 225 -211 225zM557 1454q133 0 208 -79t75 -239t-98 -266t-267 -106q-133 0 -210 79t-77 216q0 179 100 287t269 108zM993 304
q-1 -236 215 -236q104 0 174 83t70 204q0 239 -212 239q-104 0 -176 -85t-71 -205zM1264 676q130 0 206 -79t76 -239t-97 -266t-267 -106q-133 0 -210 78t-77 215q-1 181 99 289t270 108z" />
    <glyph glyph-name="ampersand" unicode="&#x26;" horiz-adv-x="1323" 
d="M440 1118q0 -60 26 -116t91 -150q164 86 240 159q75 73 75 161t-51 134t-141 46t-165 -60t-75 -174zM457 88q201 0 389 168l-332 475q-254 -130 -311 -256q-27 -59 -27 -133q0 -126 76 -190t205 -64zM681 1450q138 0 219 -68t81 -194t-91 -217q-91 -90 -282 -191
l316 -448q100 109 200 266l84 -47q-111 -178 -227 -299l178 -252h-133l-123 176q-223 -193 -471 -192q-168 0 -272 85t-104 261t135 297q69 59 124 94t148 82q-72 102 -102 169t-29 146q0 158 105 245q106 87 244 87z" />
    <glyph glyph-name="quotesingle" unicode="'" horiz-adv-x="501" 
d="M489 1434l-174 -506h-82l121 506h135z" />
    <glyph glyph-name="parenleft" unicode="(" horiz-adv-x="714" 
d="M213 383q0 -244 79 -448t175 -300h-135q-98 101 -174 307t-76 422q0 410 197 717q168 265 362 418h147q-148 -109 -304 -313q-157 -204 -230 -480q-41 -157 -41 -323z" />
    <glyph glyph-name="parenright" unicode=")" horiz-adv-x="598" 
d="M453 750q0 246 -79 450t-177 299h135q98 -102 174 -307t76 -421q0 -405 -197 -718q-168 -265 -362 -418h-148q150 111 306 312q156 202 231 481q41 158 41 322z" />
    <glyph glyph-name="asterisk" unicode="*" horiz-adv-x="813" 
d="M549 1542l84 -20l-72 -260l250 102l27 -84l-260 -72l210 -166l-63 -67l-190 194l-39 -268l-84 19l73 262l-256 -105l-26 86l262 72l-209 166l59 65l193 -192z" />
    <glyph glyph-name="plus" unicode="+" horiz-adv-x="1103" 
d="M700 1120l-69 -393h389l-16 -92h-390l-69 -383h-94l67 383h-383l17 92h385l69 393h94z" />
    <glyph glyph-name="comma" unicode="," horiz-adv-x="487" 
d="M159 131q39 0 65 -33q26 -32 26 -104t-62 -144t-153 -110l-27 37q66 31 114 86t48 125q0 10 -4 22q-16 -16 -41 -16q-55 0 -55 59q0 37 24 58q25 20 65 20z" />
    <glyph glyph-name="hyphen" unicode="-" horiz-adv-x="1046" 
d="M883 602l-21 -98h-725l21 98h725z" />
    <glyph glyph-name="period" unicode="." horiz-adv-x="458" 
d="M143 137q37 0 57 -18t19 -51q-4 -78 -82 -78q-33 0 -53 18t-18 53q3 76 77 76z" />
    <glyph glyph-name="slash" unicode="/" horiz-adv-x="1019" 
d="M1108 1503l-1184 -1851h-110l1181 1851h113z" />
    <glyph glyph-name="zero" unicode="0" horiz-adv-x="1425" 
d="M797 1343q-131 0 -233 -60q-102 -61 -164 -165q-120 -208 -132 -508q-8 -254 102 -387t298 -133q133 0 234 62q181 110 254 400q32 126 38 271q8 256 -100 388q-109 132 -297 132zM803 1450q246 0 391 -160t133 -459q-12 -350 -167 -587q-79 -121 -207 -191t-294 -69
q-242 0 -388 160t-135 481q11 322 166 565q77 120 206 190t295 70z" />
    <glyph glyph-name="one" unicode="1" horiz-adv-x="706" 
d="M639 1438l-252 -1438h-129l229 1311l-280 -131l-35 92l365 166h102z" />
    <glyph glyph-name="two" unicode="2" horiz-adv-x="1216" 
d="M702 1458q218 0 334 -98t117 -293q0 -153 -87 -277t-294 -274l-563 -412h790l-18 -104h-971l17 98l673 500q172 129 245 232q73 104 73 238t-89 208t-253 74t-385 -111l-25 102q218 117 436 117z" />
    <glyph glyph-name="three" unicode="3" horiz-adv-x="1130" 
d="M626 1458q192 0 307 -90q116 -90 116 -240q-1 -150 -95 -244q-94 -93 -260 -118q135 -31 212 -123t77 -233q0 -205 -147 -318q-148 -112 -408 -112t-444 108l36 96q178 -98 390 -98t326 89q112 89 112 247q0 221 -227 283q-55 14 -115 14h-156l19 96h153q213 0 329 118
q65 67 65 177t-87 174q-85 64 -233 64t-346 -82l-23 98q207 94 399 94z" />
    <glyph glyph-name="four" unicode="4" horiz-adv-x="1267" 
d="M979 1268l-774 -815h631zM1135 1438l-177 -985h189l-17 -99h-188l-61 -354h-125l61 354h-776l14 92l959 992h121z" />
    <glyph glyph-name="five" unicode="5" horiz-adv-x="1193" 
d="M666 881q190 0 305 -112t114 -310q0 -231 -157 -358q-158 -126 -416 -126t-475 127l51 88q193 -110 405 -110q211 0 335 96t124 268t-93 256q-93 86 -246 86t-328 -110l-78 53l174 705h776l-18 -105h-678l-131 -534q146 86 336 86z" />
    <glyph glyph-name="six" unicode="6" horiz-adv-x="1331" 
d="M694 795q-170 1 -280 -97t-127 -254q-16 -156 81 -260q97 -102 264 -102t288 85t134 265q14 180 -88 272t-272 91zM891 1450q207 0 387 -94l-49 -94q-162 84 -346 84q-256 0 -418 -201q-135 -168 -178 -434l-6 -33q154 213 460 213q211 0 337 -116q126 -117 113 -329
t-161 -337t-380 -125q-230 0 -356 116t-144 306q-25 203 38 432t201 387q195 225 502 225z" />
    <glyph glyph-name="seven" unicode="7" horiz-adv-x="1091" 
d="M1159 1434l-16 -97l-842 -1337h-156l848 1325h-807l19 109h954z" />
    <glyph glyph-name="eight" unicode="8" horiz-adv-x="1306" 
d="M758 1356q-160 0 -263 -80t-109 -205t84 -191q89 -66 254 -65q165 0 263 69q97 70 103 194t-83 201t-249 77zM664 700q-192 0 -313 -84q-120 -84 -126 -227t103 -229t296 -86t306 89t125 234q5 145 -97 224t-294 79zM761 1456q216 0 340 -102t118 -269q-7 -133 -95 -218
t-247 -113q155 -31 239 -128t74 -229q-8 -195 -164 -307t-406 -113q-250 0 -393 110t-137 294q6 150 114 255t296 134q-123 31 -186 113q-62 82 -56 194q6 172 146 276q141 103 357 103z" />
    <glyph glyph-name="nine" unicode="9" horiz-adv-x="1318" 
d="M676 639q170 0 280 93t126 250q17 158 -83 264t-261 106t-277 -74q-61 -39 -101 -112t-47 -173q-10 -174 91 -264q102 -90 272 -90zM714 1450q232 0 358 -116t145 -314q27 -199 -33 -427t-193 -384q-190 -225 -502 -225q-209 0 -387 94l48 94q164 -84 350 -84
q258 0 413 201q129 162 170 428q0 12 4 28q-139 -203 -458 -202q-209 1 -335 117t-117 329t157 337t380 124z" />
    <glyph glyph-name="colon" unicode=":" horiz-adv-x="468" 
d="M276 907q38 0 58 -19t18 -52q-4 -78 -82 -78q-33 0 -53 19t-18 52q3 78 77 78zM141 137q37 0 57 -18t19 -51q-4 -78 -82 -78q-33 0 -53 18t-19 53q4 76 78 76z" />
    <glyph glyph-name="semicolon" unicode=";" horiz-adv-x="516" 
d="M303 907q37 0 59 -20t17 -51q0 -78 -82 -78q-33 0 -53 19t-20 53t22 56q20 22 57 21zM171 131q40 0 66 -33t25 -88q0 -88 -61 -160t-154 -110l-27 37q63 29 113 84q49 55 49 127q0 10 -4 22q-16 -16 -41 -16q-55 0 -55 59q0 37 24 58q25 20 65 20z" />
    <glyph glyph-name="less" unicode="&#x3c;" horiz-adv-x="1189" 
d="M80 635l16 100l1108 365l-20 -113l-961 -305l852 -307l-18 -105z" />
    <glyph glyph-name="equal" unicode="=" horiz-adv-x="1075" 
d="M911 539l-14 -86h-741l14 86h741zM969 881l-15 -86h-741l14 86h742z" />
    <glyph glyph-name="greater" unicode="&#x3e;" horiz-adv-x="1187" 
d="M1165 737l-18 -102l-1106 -365l20 113l959 307l-850 305l18 105z" />
    <glyph glyph-name="question" unicode="?" horiz-adv-x="966" 
d="M352 133q38 0 58 -19q20 -20 19 -54t-21 -56t-62 -22q-78 0 -76 73q0 35 22 57t60 21zM582 1450q180 0 284 -75t105 -228q0 -100 -46 -175t-115 -122q-70 -47 -140 -91q-173 -108 -203 -251q-23 -115 -27 -152h-98q6 54 24 154t76 170q57 70 126 116q68 46 134 91
q154 105 154 250q0 213 -295 215q-141 0 -307 -90l-33 86q181 102 361 102z" />
    <glyph glyph-name="at" unicode="@" horiz-adv-x="1921" 
d="M924 260q145 0 218 110q72 110 72 257q-1 303 -260 303q-164 0 -240 -110t-79 -253q-2 -143 71 -225t218 -82zM1053 1417q335 0 560 -163q112 -81 175 -216t63 -311q-1 -243 -113 -395t-317 -152t-215 170q-96 -168 -315 -168q-166 0 -260 104t-91 284t105 308t297 128
q123 0 202 -58t107 -157l43 204h88l-98 -563q-31 -182 150 -182q116 0 192 72q142 133 139 405q0 164 -58 287q-57 122 -159 192q-202 139 -497 137q-393 0 -627 -221t-234 -594q0 -174 56 -308q104 -252 381 -339q129 -41 284 -41q272 0 504 99l12 -70q-256 -98 -518 -98
q-369 -1 -587 195t-218 558q0 403 260 648t689 245z" />
    <glyph glyph-name="A" unicode="A" horiz-adv-x="1439" 
d="M862 1327h-2l-485 -838h676zM965 1440l327 -1440h-135l-84 389h-749l-215 -389h-144l826 1440h174z" />
    <glyph glyph-name="B" unicode="B" horiz-adv-x="1413" 
d="M870 776q131 0 221 81q89 81 89 203t-78 198t-199 75h-440l-94 -557h501zM797 100q141 0 238 87t97 211t-69 202q-70 78 -184 78h-531l-100 -578h549zM944 1434q156 0 260 -98t104 -244t-83 -241q-84 -95 -211 -120q114 -27 184 -115t70 -215q0 -181 -131 -291t-340 -110
h-697l252 1434h592z" />
    <glyph glyph-name="C" unicode="C" horiz-adv-x="1374" 
d="M948 1450q250 0 451 -121l-45 -92q-186 109 -402 109q-319 0 -502 -199q-184 -199 -184 -477t154 -430t407 -152q176 0 396 88l24 -96q-219 -96 -436 -96q-305 0 -493 175q-187 175 -187 507t229 559q230 225 588 225z" />
    <glyph glyph-name="D" unicode="D" horiz-adv-x="1548" 
d="M776 1333h-309l-217 -1233h395q299 0 487 186t189 494q0 264 -143 409q-144 144 -402 144zM758 1434q318 0 508 -163t190 -501t-221 -554t-596 -216h-537l254 1434h402z" />
    <glyph glyph-name="E" unicode="E" horiz-adv-x="1329" 
d="M1343 1434l-18 -101h-860l-103 -583h742l-19 -101h-741l-96 -549h887l-19 -100h-1016l254 1434h989z" />
    <glyph glyph-name="F" unicode="F" horiz-adv-x="1257" 
d="M1343 1434l-18 -101h-858l-107 -596h742l-21 -100h-739l-113 -637h-129l254 1434h989z" />
    <glyph glyph-name="G" unicode="G" horiz-adv-x="1568" 
d="M952 1450q279 0 494 -111l-51 -94q-207 100 -439 101q-332 0 -508 -193t-178 -496q-4 -257 144 -413t426 -156q211 0 413 121l66 391h-391l14 98h504l-92 -546q-260 -168 -537 -168q-322 0 -504 179t-178 488q0 351 222 575t595 224z" />
    <glyph glyph-name="H" unicode="H" horiz-adv-x="1548" 
d="M225 0h-129l254 1434h129l-119 -668h877l119 668h129l-254 -1434h-129l117 666h-877z" />
    <glyph glyph-name="I" unicode="I" horiz-adv-x="548" 
d="M483 1434l-258 -1434h-129l258 1434h129z" />
    <glyph glyph-name="J" unicode="J" horiz-adv-x="1124" 
d="M414 88q126 0 219 88q92 88 125 268l176 990h129l-176 -994q-41 -221 -162 -339q-121 -117 -303 -117t-279 75q-96 76 -133 177l84 63q37 -91 115 -151q79 -60 205 -60z" />
    <glyph glyph-name="K" unicode="K" horiz-adv-x="1378" 
d="M1425 1434l-608 -545l397 -889h-145l-350 801l-410 -367l-78 -434h-129l254 1434h129l-147 -832l930 832h157z" />
    <glyph glyph-name="L" unicode="L" horiz-adv-x="1134" 
d="M481 1434l-233 -1334h778l-18 -100h-908l254 1434h127z" />
    <glyph glyph-name="M" unicode="M" horiz-adv-x="1875" 
d="M1812 1434l-253 -1434h-129l186 1049l47 227h-2l-741 -1104h-123l-351 1104h-4l-32 -227l-185 -1049h-129l254 1434h178l355 -1135l741 1135h188z" />
    <glyph glyph-name="N" unicode="N" horiz-adv-x="1517" 
d="M1454 1434l-254 -1434h-137l-619 1235l-219 -1235h-129l254 1434h139l619 -1229l217 1229h129z" />
    <glyph glyph-name="O" unicode="O" horiz-adv-x="1683" 
d="M924 1346q-202 0 -350 -100q-286 -191 -298 -593q-8 -272 140 -417t389 -146q299 0 468 201t178 482t-139 427t-388 146zM928 1450q301 -2 484 -178t175 -491t-194 -545q-92 -115 -245 -183t-347 -67q-301 0 -485 176q-183 176 -175 489t195 547q92 116 244 184t348 68z
" />
    <glyph glyph-name="P" unicode="P" horiz-adv-x="1394" 
d="M901 1333h-438l-123 -694h514q190 0 293 105q102 105 102 253t-87 242t-261 94zM936 1434q217 0 333 -124q115 -124 115 -308t-132 -324t-384 -139h-546l-97 -539h-129l256 1434h584z" />
    <glyph glyph-name="Q" unicode="Q" horiz-adv-x="1683" 
d="M924 1346q-154 0 -277 -56q-232 -107 -323 -375q-43 -123 -48 -262q-8 -272 140 -417t389 -146q299 0 468 201t178 482t-139 427t-388 146zM801 -14q-301 0 -485 176q-183 176 -175 489t195 547q92 116 244 184t348 68q301 -2 484 -177t175 -477t-164 -521
q-156 -220 -448 -275q248 -115 422 -156l-37 -104q-231 59 -545 246h-14z" />
    <glyph glyph-name="R" unicode="R" horiz-adv-x="1441" 
d="M891 721q166 0 270 88q105 88 105 225t-77 218t-216 81h-500l-108 -612h526zM1001 1434q190 0 295 -110t105 -274q-1 -165 -105 -277t-288 -140l196 -633h-135l-182 621q0 -2 -27 -1t-29 1h-483l-108 -621h-131l251 1434h641z" />
    <glyph glyph-name="S" unicode="S" horiz-adv-x="1232" 
d="M704 1450q222 0 492 -115l-43 -106q-243 117 -439 117t-280 -77t-84 -190q0 -57 20 -97t69 -75q51 -35 97 -55t158 -64t180 -76q175 -83 213 -182q23 -57 23 -141q0 -190 -128 -298t-374 -107q-317 0 -585 157l45 109q279 -162 546 -158q174 0 265 76q90 76 90 195
t-77 175t-306 142q-157 63 -219 101q-63 38 -89 73q-66 87 -65 205q0 190 134 291q135 100 357 100z" />
    <glyph glyph-name="T" unicode="T" horiz-adv-x="1189" 
d="M1313 1434l-19 -101h-508l-235 -1333h-129l235 1333h-507l18 101h1145z" />
    <glyph glyph-name="U" unicode="U" horiz-adv-x="1478" 
d="M682 -16q-246 0 -377 132t-131 314q0 45 6 88l160 916h131l-164 -924q-6 -35 -6 -68q0 -150 102 -252q103 -102 287 -102t296 103t138 258l176 985h130l-173 -975q-37 -209 -183 -342t-392 -133z" />
    <glyph glyph-name="V" unicode="V" horiz-adv-x="1345" 
d="M1425 1434l-782 -1434h-174l-272 1434h137l246 -1293l698 1293h147z" />
    <glyph glyph-name="W" unicode="W" horiz-adv-x="1982" 
d="M2048 1434l-666 -1434h-161l-127 1229l-562 -1229h-161l-164 1434h133l137 -1282l567 1261h156l123 -1251l578 1272h147z" />
    <glyph glyph-name="X" unicode="X" horiz-adv-x="1331" 
d="M1430 1434l-668 -717l412 -717h-154l-348 612l-576 -612h-170l670 705l-416 729h152l358 -627l582 627h158z" />
    <glyph glyph-name="Y" unicode="Y" horiz-adv-x="1292" 
d="M602 0h-129l100 578l-362 856h131l311 -750l576 750h141l-668 -863z" />
    <glyph glyph-name="Z" unicode="Z" horiz-adv-x="1255" 
d="M1313 1434l-15 -93l-1136 -1243l456 2h467l-18 -100h-1098l17 92l1140 1245l-446 -4h-449l21 101h1061z" />
    <glyph glyph-name="bracketleft" unicode="[" horiz-adv-x="600" 
d="M647 1450l-14 -98h-209l-289 -1631h209l-16 -96h-312l320 1825h311z" />
    <glyph glyph-name="backslash" unicode="\" horiz-adv-x="991" 
d="M244 1503h98l444 -1573h-102z" />
    <glyph glyph-name="bracketright" unicode="]" horiz-adv-x="600" 
d="M563 1450l-319 -1825h-312l17 96h207l288 1631h-206l14 98h311z" />
    <glyph glyph-name="underscore" unicode="_" horiz-adv-x="1157" 
d="M862 -182l-18 -90h-842l18 90h842z" />
    <glyph glyph-name="grave" unicode="`" horiz-adv-x="423" 
d="M264 1458h113l69 -301h-88z" />
    <glyph glyph-name="a" unicode="a" horiz-adv-x="1298" 
d="M639 985q-207 1 -319 -151t-111 -344q0 -192 99 -301q99 -108 272 -107q208 0 318 152t110 342q0 192 -98 300t-271 109zM610 1079q164 1 282 -71t163 -199l51 256h115l-136 -789l-36 -276h-121l20 166q-143 -180 -403 -180q-215 0 -336 132t-125 359q0 344 237 513
q125 89 289 89z" />
    <glyph glyph-name="b" unicode="b" horiz-adv-x="1304" 
d="M641 80q209 0 317 150t109 340q0 189 -97 301t-287 112q-191 0 -299 -152t-108 -338q0 -185 98 -299t267 -114zM737 1079q213 0 334 -136t121 -365q0 -337 -233 -503q-124 -89 -292 -89q-169 0 -283 80t-155 217l-55 -283h-115l265 1499h125l-107 -592q141 172 395 172z
" />
    <glyph glyph-name="c" unicode="c" horiz-adv-x="1112" 
d="M682 1079q195 0 352 -84l-43 -84q-143 74 -311 74q-215 0 -342 -138t-127 -347q0 -208 114 -314t289 -106t304 78l24 -88q-156 -84 -360 -84t-351 124q-145 124 -145 380t167 422q167 167 429 167z" />
    <glyph glyph-name="d" unicode="d" horiz-adv-x="1308" 
d="M641 985q-205 1 -317 -151t-111 -344q0 -192 99 -302q99 -109 272 -108q208 0 318 152t110 344t-100 300t-271 109zM549 -14q-215 0 -336 132t-125 359q0 248 139 425t396 177q161 0 275 -80t151 -217l127 717h124l-210 -1223l-37 -276h-111l27 203q-143 -217 -420 -217z
" />
    <glyph glyph-name="e" unicode="e" horiz-adv-x="1171" 
d="M700 983q-186 0 -317 -120t-166 -296q135 -16 242 -16q504 0 508 244q2 96 -71 142t-196 46zM709 1079q172 1 277 -67t104 -213q-2 -334 -619 -334q-135 0 -264 18v-20q-2 -191 100 -287t297 -96t344 82l25 -86q-157 -90 -395 -90t-369 122t-129 358t173 425
q171 188 456 188z" />
    <glyph glyph-name="f" unicode="f" horiz-adv-x="692" 
d="M57 -225l211 1202h-145l16 88h146l24 137q27 152 99 232t223 79q106 0 188 -28l-24 -90q-70 25 -156 25t-134 -55q-48 -54 -69 -163l-24 -137h309l-16 -88h-312l-211 -1202h-125z" />
    <glyph glyph-name="g" unicode="g" horiz-adv-x="1280" 
d="M624 983q-184 0 -294 -133q-110 -134 -115 -322q-4 -188 91 -294q94 -106 284 -107q190 0 296 137q105 136 109 326t-91 292q-96 102 -280 101zM618 1079q158 1 269 -69t155 -187l50 242h114l-174 -985q-72 -430 -551 -430q-262 0 -452 121l37 90q172 -115 409 -115
q373 0 430 330l19 110q-131 -154 -385 -153q-211 0 -331 127q-120 126 -117 364t145 396t382 159z" />
    <glyph glyph-name="h" unicode="h" horiz-adv-x="1234" 
d="M733 1079q193 0 279 -101t86 -259q0 -49 -13 -135l-104 -584h-125l102 584q12 76 13 116q0 129 -67 206q-66 77 -222 77t-259 -117t-140 -309l-99 -557h-125l265 1499h125l-105 -598q135 178 389 178z" />
    <glyph glyph-name="i" unicode="i" horiz-adv-x="487" 
d="M397 1065l-188 -1065h-125l172 977h-129l16 88h254zM354 1274q-80 0 -75 65q3 74 77 74q42 0 62 -17t16 -48q0 -74 -80 -74z" />
    <glyph glyph-name="j" unicode="j" horiz-adv-x="487" 
d="M381 1405q78 0 74 -74q-6 -70 -82 -69q-37 0 -58 18q-20 18 -18 51q1 33 25 53t59 21zM-35 -356h-84l19 102h47q69 0 93 27t36 98l196 1106h-139l17 88h262l-213 -1208q-19 -113 -71 -163t-163 -50z" />
    <glyph glyph-name="k" unicode="k" horiz-adv-x="1091" 
d="M455 1499l-181 -1012l682 578h144l-473 -403l303 -662h-131l-264 584l-287 -244l-60 -340h-125l267 1499h125z" />
    <glyph glyph-name="l" unicode="l" horiz-adv-x="512" 
d="M288 84q56 0 77 4l-15 -92q-55 -10 -136 -10t-116 40t-16 142l233 1331h125l-231 -1325q-10 -54 7 -72q16 -18 72 -18z" />
    <glyph glyph-name="m" unicode="m" horiz-adv-x="1853" 
d="M688 1079q248 0 307 -231q61 111 167 171t222 60t190 -42q74 -41 102 -107q65 -149 28 -301l-111 -629h-125l111 629q28 125 -18 240q-47 114 -231 114q-100 0 -191 -87q-92 -87 -133 -249l-113 -647h-125l113 641q8 43 8 92q-1 111 -59 181t-191 69q-133 0 -219 -96
t-115 -240l-6 -33v-6l-109 -608h-124l141 793l29 272h110l-18 -174q62 92 158 140t202 48z" />
    <glyph glyph-name="n" unicode="n" horiz-adv-x="1220" 
d="M741 1079q113 0 191 -41q78 -40 110 -106q74 -150 31 -314l-108 -618h-125l108 616q27 154 -27 260q-53 106 -229 107q-176 0 -286 -125t-140 -303l-98 -555h-125l133 756l35 309h115l-25 -213q155 227 440 227z" />
    <glyph glyph-name="o" unicode="o" horiz-adv-x="1280" 
d="M655 985q-203 0 -323 -142q-120 -143 -122 -349q-3 -206 101 -310t291 -104q186 0 306 142t124 348t-101 311q-106 104 -276 104zM664 1079q221 0 360 -129q139 -130 134 -380t-159 -417t-417 -167q-221 0 -361 129q-139 129 -137 368q6 264 160 430t420 166z" />
    <glyph glyph-name="p" unicode="p" horiz-adv-x="1302" 
d="M700 983q-208 0 -318 -153t-110 -343t98 -299t271 -108q207 0 317 152t111 342q1 192 -99 300t-270 109zM735 1079q215 0 337 -132q122 -131 122 -369t-138 -414t-394 -178q-156 0 -273 72t-162 198l-106 -604h-125l194 1106l35 307h111l-23 -184q71 92 181 145t241 53z
" />
    <glyph glyph-name="q" unicode="q" horiz-adv-x="1298" 
d="M568 80q156 0 255 78q189 147 189 430q0 180 -98 288t-269 107q-205 0 -317 -154t-113 -343q0 -189 98 -298q99 -108 255 -108zM566 -14q-230 0 -351 131t-125 358q0 342 238 512q125 90 289 91q163 2 281 -74t163 -207l51 268h115l-250 -1413h-125l90 508
q-146 -174 -376 -174z" />
    <glyph glyph-name="r" unicode="r" horiz-adv-x="679" 
d="M692 1065l-28 -121q-152 18 -247 -83t-130 -288l-103 -573h-125l144 809l33 256h110l-20 -184q59 99 156 153t210 31z" />
    <glyph glyph-name="s" unicode="s" horiz-adv-x="989" 
d="M538 1079q173 0 377 -90l-36 -82q-187 80 -325 80t-207 -50t-68 -138q1 -55 33 -93t73 -56t122 -46q233 -78 272 -125q64 -78 65 -178q0 -155 -109 -235t-313 -80t-408 129l39 82q199 -121 387 -119q129 2 202 54t73 146q1 94 -57 135q-58 40 -170 75t-153 51
q-40 16 -89 48q-94 61 -93 201q1 139 106 216q106 75 279 75z" />
    <glyph glyph-name="t" unicode="t" horiz-adv-x="718" 
d="M258 193q0 -166 283 -93l-9 -84q-74 -30 -188 -30t-164 47q-49 47 -49 137q0 31 12 121l121 686h-158l17 88h160l71 307h107l-53 -307h309l-19 -88h-307l-123 -684q-10 -92 -10 -100z" />
    <glyph glyph-name="u" unicode="u" horiz-adv-x="1249" 
d="M459 -14q-182 0 -264 94t-82 244q0 61 12 122l108 619h125l-108 -616q-12 -66 -12 -117q0 -110 62 -180t200 -70q182 0 292 125t140 303l98 555h125l-133 -756l-35 -309h-113l21 207q-149 -221 -436 -221z" />
    <glyph glyph-name="v" unicode="v" horiz-adv-x="1062" 
d="M1075 1065l-600 -1065h-147l-209 1063h125l182 -934l510 936h139z" />
    <glyph glyph-name="w" unicode="w" horiz-adv-x="1656" 
d="M1665 1065l-528 -1065h-146l-127 895l-440 -895h-145l-152 1065h119l131 -930l461 930h110l129 -930l455 930h133z" />
    <glyph glyph-name="x" unicode="x" horiz-adv-x="1052" 
d="M1096 1065l-496 -528l311 -537h-133l-264 455l-424 -455h-139l498 535l-308 530h135l263 -449l422 449h135z" />
    <glyph glyph-name="y" unicode="y" horiz-adv-x="1124" 
d="M129 -356q-90 0 -192 26l20 94q69 -20 145 -20t136 46q59 46 120 155l29 51l-260 1069h129l217 -944l520 944h135l-643 -1147q-96 -168 -181 -221t-175 -53z" />
    <glyph glyph-name="z" unicode="z" horiz-adv-x="1038" 
d="M1042 1065l-16 -100l-879 -881l330 4h402l-19 -88h-880l18 98l879 883l-316 -4h-393l18 88h856z" />
    <glyph glyph-name="braceleft" unicode="{" horiz-adv-x="669" 
d="M649 1356q-184 0 -215 -178l-84 -490q-23 -131 -157 -147q125 -18 98 -179l-80 -460q-15 -90 19 -134t132 -44h58l-17 -93h-63q-156 0 -206 68t-28 203l82 460q20 137 -94 138h-26l14 80h16q127 0 150 112l86 496q26 134 94 198t211 64h86l-16 -94h-60z" />
    <glyph glyph-name="bar" unicode="|" horiz-adv-x="616" 
d="M367 1634v-1943h-103v1943h103z" />
    <glyph glyph-name="braceright" unicode="}" horiz-adv-x="667" 
d="M307 1450q154 0 204 -69t28 -203l-80 -461q-20 -137 96 -137h25l-15 -80h-14q-57 0 -99 -28t-51 -85l-88 -496q-25 -133 -93 -196t-212 -64h-86l17 93h59q184 0 215 178l84 491q23 131 158 148q-125 18 -99 178l80 459q16 92 -18 135q-35 43 -133 43h-60l19 94h63z" />
    <glyph glyph-name="exclamdown" unicode="&#xa1;" horiz-adv-x="495" 
d="M315 1079q37 0 60 -18t21 -53t-24 -57q-22 -21 -60 -21q-80 1 -76 74q3 75 79 75zM319 696l-174 -1075h-135l205 1075h104z" />
    <glyph glyph-name="cent" unicode="&#xa2;" horiz-adv-x="1128" 
d="M748 1153q-226 0 -360 -146t-134 -344q0 -199 112 -305t286 -106t300 80l33 -82q-147 -94 -338 -94q-37 0 -53 2l-33 -191h-74l35 201q-178 33 -286 155t-109 326q0 250 162 420t426 180l30 181h74l-31 -183q162 -16 283 -80l-41 -86q-123 72 -282 72z" />
    <glyph glyph-name="sterling" unicode="&#xa3;" horiz-adv-x="1193" 
d="M436 528q0 -305 -209 -434h793l-16 -94h-984l15 90q35 7 88 40q53 34 89 77t66 126t30 163t-11 155h-158l13 66h135q-14 106 -15 221q0 252 138 382t366 130q227 0 400 -107l-52 -88q-168 95 -345 95t-277 -106t-101 -304q0 -117 15 -223h538l-12 -66h-516
q10 -68 10 -123z" />
    <glyph glyph-name="yen" unicode="&#xa5;" horiz-adv-x="1318" 
d="M1386 1434l-663 -850l-12 -72h270l-12 -61h-271l-20 -121h270l-12 -62h-268l-47 -268h-134l50 268h-271l10 62h271l20 121h-270l12 61h269l12 72l-361 850h131l312 -734l567 734h147z" />
    <glyph glyph-name="section" unicode="&#xa7;" horiz-adv-x="1239" 
d="M248 557q0 -90 68 -140q68 -51 149 -75q280 -86 328 -106q199 143 198 290q0 92 -72 144q-73 51 -246 104t-222 74q-203 -139 -203 -291zM738 1438q236 0 464 -101l-41 -96q-197 88 -388 88t-287 -60t-97 -167q0 -73 47 -114t112 -61q66 -20 130 -39q251 -74 340 -143
q90 -71 90 -189t-75 -210t-161 -149q119 -77 119 -223t-127 -236q-128 -90 -370 -90t-455 98l39 96q221 -88 401 -88q181 0 277 60t96 170q0 72 -45 112q-45 39 -112 60q-67 20 -172 50q-305 87 -366 209q-26 50 -26 117q0 113 77 207t163 148q-121 77 -121 223t126 237
t362 91z" />
    <glyph glyph-name="dieresis" unicode="&#xa8;" horiz-adv-x="686" 
d="M664 1350q74 0 73 -70q-4 -70 -73 -70q-36 0 -56 18t-18 52q0 70 74 70zM271 1350q75 0 75 -70q-4 -70 -78 -70q-35 0 -54 18t-17 52q-1 70 74 70z" />
    <glyph glyph-name="copyright" unicode="&#xa9;" horiz-adv-x="1718" 
d="M889 1384q-279 0 -473 -189t-193 -474q0 -285 193 -473q194 -188 474 -188t471 188t191 473t-192 474t-471 189zM928 1085q111 0 202 -41l-16 -63q-84 33 -174 33q-137 0 -214 -79t-77 -209t77 -209t216 -79q84 0 174 37l17 -65q-98 -43 -203 -43q-166 0 -270 96
q-103 96 -103 264t102 263q103 95 269 95zM888 1444q306 0 514 -205t208 -515t-209 -517t-513 -207t-513 207t-209 517t208 515t514 205z" />
    <glyph glyph-name="ordfeminine" unicode="&#xaa;" horiz-adv-x="1005" 
d="M842 547l-15 -76h-665l14 76h666zM322 938q0 -131 180 -131q86 0 164 57q76 57 92 148l18 96q-88 18 -174 18q-281 0 -280 -188zM456 741q-93 0 -155 46q-61 46 -61 139q0 135 99 196t263 62q86 0 186 -17l13 64q16 98 -17 141q-34 43 -162 43t-245 -39l-2 74
q135 43 283 43t204 -58q55 -58 33 -182l-68 -389q-8 -41 20 -41t48 4l-14 -73l-78 -9q-76 0 -70 78l6 31q-43 -51 -117 -82t-166 -31z" />
    <glyph glyph-name="guillemotleft" unicode="&#xab;" horiz-adv-x="1159" 
d="M590 1010l59 -68l-422 -418l271 -411l-78 -58l-328 463l6 29zM1034 1010l60 -68l-422 -420l270 -409l-78 -58l-327 463l6 29z" />
    <glyph glyph-name="registered" unicode="&#xae;" horiz-adv-x="1257" 
d="M764 1241h-160v-194h162q41 1 68 29q26 28 26 71t-26 69t-70 25zM553 1286h217q59 0 99 -42t40 -101q0 -102 -92 -133l86 -197h-57l-80 188h-162v-188h-51v473zM719 1460q-180 0 -298 -121t-118 -298t118 -298t298 -121t297 120t117 298t-117 299t-297 121zM717 1501
q199 0 331 -131t132 -329q0 -199 -132 -329t-330 -130t-330 131t-132 329t131 328q131 131 330 131z" />
    <glyph glyph-name="macron" unicode="&#xaf;" horiz-adv-x="704" 
d="M793 1333l-15 -76h-600l15 76h600z" />
    <glyph glyph-name="degree" unicode="&#xb0;" horiz-adv-x="677" 
d="M461 1391q-82 -1 -139 -57q-56 -56 -58 -152t52 -138t137 -43t137 55t57 152q2 96 -51 140q-53 43 -135 43zM447 936q-115 0 -191 61t-74 187t84 198q82 74 198 74t191 -60q76 -60 75 -186t-84 -200t-199 -74z" />
    <glyph glyph-name="plusminus" unicode="&#xb1;" horiz-adv-x="1167" 
d="M723 1114l-57 -330h391l-19 -92h-389l-59 -323h-94l57 323h-383l18 92h383l58 330h94zM961 254l-17 -82h-868l16 82h869z" />
    <glyph glyph-name="acute" unicode="&#xb4;" horiz-adv-x="524" 
d="M602 1466l-225 -303h-96l200 303h121z" />
    <glyph glyph-name="mu" unicode="&#xb5;" horiz-adv-x="1267" 
d="M569 -16q-121 0 -212 53t-121 143l-97 -528h-125l256 1413h125l-106 -600q-12 -80 -13 -111q0 -126 82 -200t241 -74t249 103t119 263l110 619h125l-143 -811l-29 -254h-104l12 174q-56 -88 -152 -139t-217 -51z" />
    <glyph glyph-name="paragraph" unicode="&#xb6;" horiz-adv-x="1130" 
d="M164 952q0 218 137 350t324 132h434l-285 -1612h-94l264 1517h-199l-266 -1517h-96l139 792h-65q-143 4 -218 98t-75 240z" />
    <glyph glyph-name="periodcentered" unicode="&#xb7;" horiz-adv-x="548" 
d="M297 713q43 0 70 -27t23 -74q-4 -46 -36 -72q-31 -26 -75 -26q-102 0 -95 100t113 99z" />
    <glyph glyph-name="cedilla" unicode="&#xb8;" horiz-adv-x="606" 
d="M332 -252q0 -72 -58 -110t-150 -37q-91 0 -161 28l14 66q65 -29 131 -29q132 0 132 80q0 52 -47 64t-84 0l-23 30l82 168h76l-66 -137q54 4 104 -23q50 -28 50 -100z" />
    <glyph glyph-name="ordmasculine" unicode="&#xba;" horiz-adv-x="1107" 
d="M672 1413q-137 0 -220 -85q-82 -86 -88 -228t65 -212t207 -69q136 0 219 86q83 85 92 227t-65 212t-210 69zM934 547l-14 -76h-760l14 76h760zM676 1493q180 0 278 -88t92 -262t-116 -288q-111 -114 -291 -114t-281 88q-100 88 -93 262t119 288t292 114z" />
    <glyph glyph-name="guillemotright" unicode="&#xbb;" horiz-adv-x="1169" 
d="M45 123l422 416l-268 413l77 58l326 -463l-4 -29l-492 -463zM489 123l422 416l-268 413l78 58l326 -463l-5 -29l-491 -463z" />
    <glyph glyph-name="questiondown" unicode="&#xbf;" horiz-adv-x="950" 
d="M594 928q-78 0 -76 76q0 32 20 54t60 21q82 0 78 -73q0 -34 -22 -56t-60 -22zM86 -74q0 -217 293 -217q137 0 313 92l31 -88q-185 -100 -363 -100t-282 75t-105 226q0 100 46 175t115 123q70 48 140 93q176 112 205 252l25 148h100l-26 -166q-16 -88 -74 -158t-128 -116
t-136 -91q-154 -105 -154 -248z" />
    <glyph glyph-name="Agrave" unicode="&#xc0;" horiz-adv-x="1439" 
d="M897 1749l59 -223h-84l-86 223h111zM862 1327h-2l-485 -838h676zM965 1440l327 -1440h-135l-84 389h-749l-215 -389h-144l826 1440h174z" />
    <glyph glyph-name="Aacute" unicode="&#xc1;" horiz-adv-x="1437" 
d="M1083 1751l-180 -225h-92l156 225h116zM862 1327h-2l-485 -838h676zM965 1440l327 -1440h-135l-84 389h-749l-215 -389h-144l826 1440h174z" />
    <glyph glyph-name="Acircumflex" unicode="&#xc2;" horiz-adv-x="1439" 
d="M614 1526l263 225h112l178 -225h-102l-135 172l-201 -172h-115zM862 1327h-2l-485 -838h676zM965 1440l327 -1440h-135l-84 389h-749l-215 -389h-144l826 1440h174z" />
    <glyph glyph-name="Atilde" unicode="&#xc3;" horiz-adv-x="1437" 
d="M1004 1583q-51 0 -123 41q-90 45 -125 45q-72 0 -121 -76l-43 25q70 135 186 135q45 0 127 -44t121 -44q70 0 121 76l43 -23q-66 -135 -186 -135zM862 1327h-2l-485 -838h676zM965 1440l327 -1440h-135l-84 389h-749l-215 -389h-144l826 1440h174z" />
    <glyph glyph-name="Adieresis" unicode="&#xc4;" horiz-adv-x="1439" 
d="M1088 1579q-74 0 -70 68q0 67 74 67t69 -67q1 -68 -73 -68zM697 1714q73 0 73 -68t-74 -67q-74 0 -71 68q-1 67 72 67zM862 1327h-2l-485 -838h676zM965 1440l327 -1440h-135l-84 389h-749l-215 -389h-144l826 1440h174z" />
    <glyph glyph-name="Aring" unicode="&#xc5;" horiz-adv-x="1439" 
d="M925 1823q-46 0 -80 -32t-36 -89t30 -85q31 -28 77 -28t80 32t36 89t-30 85t-77 28zM925 1882q83 0 134 -43t50 -130t-56 -133t-139 -46t-134 43q-51 43 -49 130t56 133q55 46 138 46zM862 1327h-2l-485 -838h676zM965 1440l327 -1440h-135l-84 389h-749l-215 -389h-144
l826 1440h174z" />
    <glyph glyph-name="AE" unicode="&#xc6;" horiz-adv-x="2095" 
d="M1053 1333l-607 -819h515l143 819h-51zM68 0h-152l1077 1434h1118l-20 -101h-854l-104 -585h739l-19 -101h-739l-94 -547h889l-21 -100h-1018l74 414h-571z" />
    <glyph glyph-name="Ccedilla" unicode="&#xc7;" horiz-adv-x="1370" 
d="M948 1450q250 0 451 -121l-45 -92q-186 109 -402 109q-319 0 -502 -199q-184 -199 -184 -477t154 -430t407 -152q176 0 396 88l24 -96q-219 -96 -436 -96q-25 0 -70 4l-55 -117q54 4 104 -23q50 -28 50 -100t-58 -110t-150 -37q-91 0 -161 28l14 66q65 -29 131 -29
q132 0 132 80q0 52 -48 64t-84 0l-22 30l74 154q-246 39 -392 210q-145 171 -145 455q0 340 229 566q230 225 588 225z" />
    <glyph glyph-name="Egrave" unicode="&#xc8;" horiz-adv-x="1329" 
d="M866 1749l60 -223h-84l-86 223h110zM1343 1434l-18 -101h-860l-103 -583h742l-19 -101h-741l-96 -549h887l-19 -100h-1016l254 1434h989z" />
    <glyph glyph-name="Eacute" unicode="&#xc9;" horiz-adv-x="1329" 
d="M1075 1751l-180 -225h-92l155 225h117zM1343 1434l-18 -101h-860l-103 -583h742l-19 -101h-741l-96 -549h887l-19 -100h-1016l254 1434h989z" />
    <glyph glyph-name="Ecircumflex" unicode="&#xca;" horiz-adv-x="1329" 
d="M598 1526l262 225h113l178 -225h-102l-136 172l-200 -172h-115zM1343 1434l-18 -101h-860l-103 -583h742l-19 -101h-741l-96 -549h887l-19 -100h-1016l254 1434h989z" />
    <glyph glyph-name="Edieresis" unicode="&#xcb;" horiz-adv-x="1329" 
d="M1076 1579q-74 0 -70 68q-1 67 73 67t70 -67q1 -68 -73 -68zM685 1714q73 0 73 -68t-74 -67q-74 0 -72 68q0 67 73 67zM1343 1434l-18 -101h-860l-103 -583h742l-19 -101h-741l-96 -549h887l-19 -100h-1016l254 1434h989z" />
    <glyph glyph-name="Igrave" unicode="&#xcc;" horiz-adv-x="548" 
d="M436 1749l60 -223h-84l-86 223h110zM483 1434l-258 -1434h-129l258 1434h129z" />
    <glyph glyph-name="Iacute" unicode="&#xcd;" horiz-adv-x="548" 
d="M645 1751l-180 -225h-92l155 225h117zM483 1434l-258 -1434h-129l258 1434h129z" />
    <glyph glyph-name="Icircumflex" unicode="&#xce;" horiz-adv-x="548" 
d="M154 1526l262 225h112l179 -225h-103l-135 172l-201 -172h-114zM483 1434l-258 -1434h-129l258 1434h129z" />
    <glyph glyph-name="Idieresis" unicode="&#xcf;" horiz-adv-x="548" 
d="M646 1579q-73 0 -71 68q0 67 73 67t71 -67q0 -68 -73 -68zM255 1714q73 0 73 -68t-74 -67q-74 0 -72 68q0 67 73 67zM483 1434l-258 -1434h-129l258 1434h129z" />
    <glyph glyph-name="Eth" unicode="&#xd0;" horiz-adv-x="1548" 
d="M776 1333h-309l-105 -592h353l-15 -82h-352l-98 -559h395q299 0 487 186t189 494q0 264 -143 409q-144 144 -402 144zM758 1434q318 0 508 -163t190 -501t-221 -554t-596 -216h-537l117 659h-178l14 82h178l123 693h402z" />
    <glyph glyph-name="Ntilde" unicode="&#xd1;" horiz-adv-x="1517" 
d="M1063 1583q-51 0 -123 41q-90 45 -125 45q-72 0 -121 -76l-43 25q70 135 187 135q45 0 127 -44t120 -44q70 0 121 76l43 -23q-66 -135 -186 -135zM1454 1434l-254 -1434h-137l-619 1235l-219 -1235h-129l254 1434h139l619 -1229l217 1229h129z" />
    <glyph glyph-name="Ograve" unicode="&#xd2;" horiz-adv-x="1683" 
d="M975 1749l59 -223h-84l-86 223h111zM924 1346q-202 0 -350 -100q-286 -191 -298 -593q-8 -272 140 -417t389 -146q299 0 468 201t178 482t-139 427t-388 146zM928 1450q301 -2 484 -178t175 -491t-194 -545q-92 -115 -245 -183t-347 -67q-301 0 -485 176
q-183 176 -175 489t195 547q92 116 244 184t348 68z" />
    <glyph glyph-name="Oacute" unicode="&#xd3;" horiz-adv-x="1683" 
d="M1126 1751l-180 -225h-92l156 225h116zM924 1346q-202 0 -350 -100q-286 -191 -298 -593q-8 -272 140 -417t389 -146q299 0 468 201t178 482t-139 427t-388 146zM928 1450q301 -2 484 -178t175 -491t-194 -545q-92 -115 -245 -183t-347 -67q-301 0 -485 176
q-183 176 -175 489t195 547q92 116 244 184t348 68z" />
    <glyph glyph-name="Ocircumflex" unicode="&#xd4;" horiz-adv-x="1683" 
d="M686 1526l262 225h113l178 -225h-102l-136 172l-200 -172h-115zM924 1346q-202 0 -350 -100q-286 -191 -298 -593q-8 -272 140 -417t389 -146q299 0 468 201t178 482t-139 427t-388 146zM928 1450q301 -2 484 -178t175 -491t-194 -545q-92 -115 -245 -183t-347 -67
q-301 0 -485 176q-183 176 -175 489t195 547q92 116 244 184t348 68z" />
    <glyph glyph-name="Otilde" unicode="&#xd5;" horiz-adv-x="1683" 
d="M1077 1583q-51 0 -123 41q-90 45 -125 45q-72 0 -120 -76l-43 25q70 135 186 135q45 0 127 -44t121 -44q70 0 121 76l43 -23q-66 -135 -187 -135zM924 1346q-202 0 -350 -100q-286 -191 -298 -593q-8 -272 140 -417t389 -146q299 0 468 201t178 482t-139 427t-388 146z
M928 1450q301 -2 484 -178t175 -491t-194 -545q-92 -115 -245 -183t-347 -67q-301 0 -485 176q-183 176 -175 489t195 547q92 116 244 184t348 68z" />
    <glyph glyph-name="Odieresis" unicode="&#xd6;" horiz-adv-x="1683" 
d="M1174 1579q-74 0 -70 68q0 67 74 67t69 -67q1 -68 -73 -68zM783 1714q73 0 73 -68t-74 -67q-74 0 -71 68q-1 67 72 67zM924 1346q-202 0 -350 -100q-286 -191 -298 -593q-8 -272 140 -417t389 -146q299 0 468 201t178 482t-139 427t-388 146zM928 1450q301 -2 484 -178
t175 -491t-194 -545q-92 -115 -245 -183t-347 -67q-301 0 -485 176q-183 176 -175 489t195 547q92 116 244 184t348 68z" />
    <glyph glyph-name="multiply" unicode="&#xd7;" horiz-adv-x="993" 
d="M250 1079l272 -334l393 336l56 -65l-393 -336l272 -332l-76 -65l-272 331l-391 -331l-54 65l389 334l-272 334z" />
    <glyph glyph-name="Oslash" unicode="&#xd8;" horiz-adv-x="1683" 
d="M921 1346q-199 0 -347 -100q-286 -191 -298 -593q-8 -270 142 -420l833 1016q-132 97 -330 97zM805 90q299 0 468 200t178 482q9 280 -146 434l-836 -1018q135 -98 336 -98zM928 1450q233 -4 399 -111l133 164h90l-168 -205q213 -180 205 -506t-194 -556
q-92 -115 -245 -183t-347 -67q-240 0 -408 112l-137 -168h-88l172 209q-207 182 -199 504t195 555q92 116 244 184t348 68z" />
    <glyph glyph-name="Ugrave" unicode="&#xd9;" horiz-adv-x="1478" 
d="M913 1749l60 -223h-84l-86 223h110zM682 -16q-246 0 -377 132t-131 314q0 45 6 88l160 916h131l-164 -924q-6 -35 -6 -68q0 -150 102 -252q103 -102 287 -102t296 103t138 258l176 985h130l-173 -975q-37 -209 -183 -342t-392 -133z" />
    <glyph glyph-name="Uacute" unicode="&#xda;" horiz-adv-x="1478" 
d="M1106 1751l-180 -225h-92l155 225h117zM682 -16q-246 0 -377 132t-131 314q0 45 6 88l160 916h131l-164 -924q-6 -35 -6 -68q0 -150 102 -252q103 -102 287 -102t296 103t138 258l176 985h130l-173 -975q-37 -209 -183 -342t-392 -133z" />
    <glyph glyph-name="Ucircumflex" unicode="&#xdb;" horiz-adv-x="1478" 
d="M631 1526l262 225h113l178 -225h-103l-135 172l-201 -172h-114zM682 -16q-246 0 -377 132t-131 314q0 45 6 88l160 916h131l-164 -924q-6 -35 -6 -68q0 -150 102 -252q103 -102 287 -102t296 103t138 258l176 985h130l-173 -975q-37 -209 -183 -342t-392 -133z" />
    <glyph glyph-name="Udieresis" unicode="&#xdc;" horiz-adv-x="1478" 
d="M1109 1579q-73 0 -71 68q0 67 73 67t71 -67q0 -68 -73 -68zM718 1714q73 0 73 -68t-74 -67q-74 0 -72 68q0 67 73 67zM682 -16q-246 0 -377 132t-131 314q0 45 6 88l160 916h131l-164 -924q-6 -35 -6 -68q0 -150 102 -252q103 -102 287 -102t296 103t138 258l176 985h130
l-173 -975q-37 -209 -183 -342t-392 -133z" />
    <glyph glyph-name="Yacute" unicode="&#xdd;" horiz-adv-x="1292" 
d="M985 1751l-180 -225h-92l155 225h117zM602 0h-129l100 578l-362 856h131l311 -750l576 750h141l-668 -863z" />
    <glyph glyph-name="Thorn" unicode="&#xde;" horiz-adv-x="1380" 
d="M793 412q193 0 295 97t102 239t-87 230q-87 87 -255 87h-434l-113 -653h492zM872 1165q221 1 337 -115t116 -297t-131 -311t-387 -131h-524l-58 -311h-129l254 1434h129l-47 -269h440z" />
    <glyph glyph-name="germandbls" unicode="&#xdf;" horiz-adv-x="1247" 
d="M706 -55q-174 0 -329 53l24 98q119 -53 269 -53t223 68q74 68 76 183t-83 193q-36 33 -72 65q-85 76 -85 181t73 180l60 62q72 76 72 163t-55 150t-185 64q-270 0 -325 -320l-183 -1032h-125l183 1040q40 233 176 327q119 83 279 83q161 0 254 -83t94 -204
q0 -78 -32 -138t-71 -92q-104 -85 -103 -182t91 -178q37 -33 75 -69q91 -85 87 -221q-2 -164 -108 -251t-280 -87z" />
    <glyph glyph-name="agrave" unicode="&#xe0;" horiz-adv-x="1294" 
d="M592 1495h113l69 -301h-88zM639 985q-207 1 -319 -151t-111 -344q0 -192 99 -301q99 -108 272 -107q208 0 318 152t110 342q0 192 -98 300t-271 109zM610 1079q164 1 282 -71t163 -199l51 256h115l-136 -789l-36 -276h-121l20 166q-143 -180 -403 -180q-215 0 -336 132
t-125 359q0 344 237 513q125 89 289 89z" />
    <glyph glyph-name="aacute" unicode="&#xe1;" horiz-adv-x="1298" 
d="M969 1497l-226 -303h-96l201 303h121zM639 985q-207 1 -319 -151t-111 -344q0 -192 99 -301q99 -108 272 -107q208 0 318 152t110 342q0 192 -98 300t-271 109zM610 1079q164 1 282 -71t163 -199l51 256h115l-136 -789l-36 -276h-121l20 166q-143 -180 -403 -180
q-215 0 -336 132t-125 359q0 344 237 513q125 89 289 89z" />
    <glyph glyph-name="acircumflex" unicode="&#xe2;" horiz-adv-x="1298" 
d="M451 1194l274 305h115l166 -305h-103l-125 246l-217 -246h-110zM639 985q-207 1 -319 -151t-111 -344q0 -192 99 -301q99 -108 272 -107q208 0 318 152t110 342q0 192 -98 300t-271 109zM610 1079q164 1 282 -71t163 -199l51 256h115l-136 -789l-36 -276h-121l20 166
q-143 -180 -403 -180q-215 0 -336 132t-125 359q0 344 237 513q125 89 289 89z" />
    <glyph glyph-name="atilde" unicode="&#xe3;" horiz-adv-x="1294" 
d="M866 1251q-51 0 -123 41q-90 45 -125 45q-72 0 -120 -75l-43 24q70 135 186 135q45 0 127 -44t121 -44q70 0 121 76l43 -23q-66 -135 -187 -135zM639 985q-207 1 -319 -151t-111 -344q0 -192 99 -301q99 -108 272 -107q208 0 318 152t110 342q0 192 -98 300t-271 109z
M610 1079q164 1 282 -71t163 -199l51 256h115l-136 -789l-36 -276h-121l20 166q-143 -180 -403 -180q-215 0 -336 132t-125 359q0 344 237 513q125 89 289 89z" />
    <glyph glyph-name="adieresis" unicode="&#xe4;" horiz-adv-x="1294" 
d="M932 1386q74 0 74 -69q-4 -70 -77 -70t-71 70q0 69 74 69zM540 1386q75 0 74 -69q-4 -70 -77 -70q-35 1 -55 19t-17 51q0 69 75 69zM639 985q-207 1 -319 -151t-111 -344q0 -192 99 -301q99 -108 272 -107q208 0 318 152t110 342q0 192 -98 300t-271 109zM610 1079
q164 1 282 -71t163 -199l51 256h115l-136 -789l-36 -276h-121l20 166q-143 -180 -403 -180q-215 0 -336 132t-125 359q0 344 237 513q125 89 289 89z" />
    <glyph glyph-name="aring" unicode="&#xe5;" horiz-adv-x="1298" 
d="M765 1491q-46 0 -80 -32t-36 -89t30 -85t78 -28t80 32q33 32 35 89t-29 85q-32 28 -78 28zM765 1550q83 0 134 -43t50 -130t-56 -133t-138 -46t-134 43t-49 130t56 133t137 46zM639 985q-207 1 -319 -151t-111 -344q0 -192 99 -301q99 -108 272 -107q208 0 318 152
t110 342q0 192 -98 300t-271 109zM610 1079q164 1 282 -71t163 -199l51 256h115l-136 -789l-36 -276h-121l20 166q-143 -180 -403 -180q-215 0 -336 132t-125 359q0 344 237 513q125 89 289 89z" />
    <glyph glyph-name="ae" unicode="&#xe6;" horiz-adv-x="1859" 
d="M414 80q117 0 217 51t160 150q-37 120 -19 254q-106 10 -256 10q-150 -1 -254 -61q-106 -60 -106 -191q0 -213 258 -213zM1389 983q-185 0 -317 -120t-167 -296q135 -16 242 -16q504 0 508 244q1 96 -71 142t-195 46zM1397 1079q172 1 277 -67t104 -213
q-2 -334 -619 -334q-135 0 -264 18v-20q-2 -191 100 -287t297 -96t344 82l25 -86q-158 -90 -399 -90q-311 0 -435 207q-65 -91 -181 -149t-272 -58t-249 76q-94 76 -94 212q1 136 71 214q129 142 441 141q129 0 248 -11q31 125 110 226q-31 139 -280 139q-199 0 -383 -51
l-2 92q205 55 421 55q272 0 342 -135q165 135 398 135z" />
    <glyph glyph-name="ccedilla" unicode="&#xe7;" horiz-adv-x="1112" 
d="M460 -399q-91 0 -161 28l14 66q65 -29 131 -29q133 0 131 80q0 52 -47 64t-84 0l-22 30l74 154q-184 26 -297 148t-113 337q0 266 167 433t429 167q195 0 352 -84l-43 -84q-143 74 -311 74q-215 0 -342 -138t-127 -347q0 -208 114 -314t289 -106t304 78l24 -88
q-156 -84 -342 -84l-31 2l-55 -117q55 4 104 -23q50 -28 50 -100t-58 -110t-150 -37z" />
    <glyph glyph-name="egrave" unicode="&#xe8;" horiz-adv-x="1171" 
d="M653 1495h113l70 -301h-88zM700 983q-186 0 -317 -120t-166 -296q135 -16 242 -16q504 0 508 244q2 96 -71 142t-196 46zM709 1079q172 1 277 -67t104 -213q-2 -334 -619 -334q-135 0 -264 18v-20q-2 -191 100 -287t297 -96t344 82l25 -86q-157 -90 -395 -90t-369 122
t-129 358t173 425q171 188 456 188z" />
    <glyph glyph-name="eacute" unicode="&#xe9;" horiz-adv-x="1171" 
d="M920 1497l-226 -303h-96l201 303h121zM700 983q-186 0 -317 -120t-166 -296q135 -16 242 -16q504 0 508 244q2 96 -71 142t-196 46zM709 1079q172 1 277 -67t104 -213q-2 -334 -619 -334q-135 0 -264 18v-20q-2 -191 100 -287t297 -96t344 82l25 -86q-157 -90 -395 -90
t-369 122t-129 358t173 425q171 188 456 188z" />
    <glyph glyph-name="ecircumflex" unicode="&#xea;" horiz-adv-x="1171" 
d="M377 1194l274 305h115l166 -305h-103l-124 246l-218 -246h-110zM700 983q-186 0 -317 -120t-166 -296q135 -16 242 -16q504 0 508 244q2 96 -71 142t-196 46zM709 1079q172 1 277 -67t104 -213q-2 -334 -619 -334q-135 0 -264 18v-20q-2 -191 100 -287t297 -96t344 82
l25 -86q-157 -90 -395 -90t-369 122t-129 358t173 425q171 188 456 188z" />
    <glyph glyph-name="edieresis" unicode="&#xeb;" horiz-adv-x="1171" 
d="M874 1386q74 0 74 -69q-4 -70 -74 -70q-37 1 -56 19t-17 51q-1 69 73 69zM482 1386q75 0 75 -69q-4 -70 -78 -70q-35 1 -54 19t-17 51q-1 69 74 69zM700 983q-186 0 -317 -120t-166 -296q135 -16 242 -16q504 0 508 244q2 96 -71 142t-196 46zM709 1079q172 1 277 -67
t104 -213q-2 -334 -619 -334q-135 0 -264 18v-20q-2 -191 100 -287t297 -96t344 82l25 -86q-157 -90 -395 -90t-369 122t-129 358t173 425q171 188 456 188z" />
    <glyph glyph-name="igrave" unicode="&#xec;" horiz-adv-x="487" 
d="M207 1489h112l70 -301h-88zM397 1065l-188 -1065h-125l172 977h-129l16 88h254z" />
    <glyph glyph-name="iacute" unicode="&#xed;" horiz-adv-x="487" 
d="M588 1497l-226 -303h-96l201 303h121zM397 1065l-188 -1065h-125l172 977h-129l16 88h254z" />
    <glyph glyph-name="icircumflex" unicode="&#xee;" horiz-adv-x="487" 
d="M47 1188l275 305h114l166 -305h-102l-125 246l-217 -246h-111zM397 1065l-188 -1065h-125l172 977h-129l16 88h254z" />
    <glyph glyph-name="idieresis" unicode="&#xef;" horiz-adv-x="487" 
d="M522 1380q74 0 74 -69q-4 -70 -74 -70q-37 1 -56 19t-17 51q-1 69 73 69zM130 1380q75 0 75 -69q-4 -70 -78 -70q-35 1 -54 19t-18 51q0 69 75 69zM397 1065l-188 -1065h-125l172 977h-129l16 88h254z" />
    <glyph glyph-name="eth" unicode="&#xf0;" horiz-adv-x="1167" 
d="M926 509q0 175 -94 277t-276 103q-182 0 -286 -128t-104 -303q0 -174 91 -276t270 -102t289 127t110 302zM1090 739q0 -346 -148 -550t-424 -203q-227 0 -352 123t-125 345t138 375q138 154 372 154q153 0 261 -67t155 -183q-4 61 -9 96q-20 264 -165 490l-211 -127
l-23 41l205 127q-63 88 -158 180l84 53q96 -82 166 -178l215 133l25 -45l-209 -127q203 -291 203 -637z" />
    <glyph glyph-name="ntilde" unicode="&#xf1;" horiz-adv-x="1220" 
d="M860 1251q-51 0 -123 41q-90 45 -125 45q-72 0 -120 -75l-43 24q70 135 186 135q45 0 127 -44t121 -44q70 0 121 76l43 -23q-66 -135 -187 -135zM741 1079q113 0 191 -41q78 -40 110 -106q74 -150 31 -314l-108 -618h-125l108 616q27 154 -27 260q-53 106 -229 107
q-176 0 -286 -125t-140 -303l-98 -555h-125l133 756l35 309h115l-25 -213q155 227 440 227z" />
    <glyph glyph-name="ograve" unicode="&#xf2;" horiz-adv-x="1280" 
d="M606 1489h113l69 -301h-88zM655 985q-203 0 -323 -142q-120 -143 -122 -349q-3 -206 101 -310t291 -104q186 0 306 142t124 348t-101 311q-106 104 -276 104zM664 1079q221 0 360 -129q139 -130 134 -380t-159 -417t-417 -167q-221 0 -361 129q-139 129 -137 368
q6 264 160 430t420 166z" />
    <glyph glyph-name="oacute" unicode="&#xf3;" horiz-adv-x="1280" 
d="M942 1497l-225 -303h-96l200 303h121zM655 985q-203 0 -323 -142q-120 -143 -122 -349q-3 -206 101 -310t291 -104q186 0 306 142t124 348t-101 311q-106 104 -276 104zM664 1079q221 0 360 -129q139 -130 134 -380t-159 -417t-417 -167q-221 0 -361 129
q-139 129 -137 368q6 264 160 430t420 166z" />
    <glyph glyph-name="ocircumflex" unicode="&#xf4;" horiz-adv-x="1280" 
d="M422 1188l274 305h115l166 -305h-103l-124 246l-218 -246h-110zM655 985q-203 0 -323 -142q-120 -143 -122 -349q-3 -206 101 -310t291 -104q186 0 306 142t124 348t-101 311q-106 104 -276 104zM664 1079q221 0 360 -129q139 -130 134 -380t-159 -417t-417 -167
q-221 0 -361 129q-139 129 -137 368q6 264 160 430t420 166z" />
    <glyph glyph-name="otilde" unicode="&#xf5;" horiz-adv-x="1280" 
d="M854 1245q-51 0 -123 41q-90 45 -125 45q-72 0 -121 -76l-43 25q70 135 187 135q45 0 127 -44t121 -44q69 0 120 76l43 -23q-66 -135 -186 -135zM655 985q-203 0 -323 -142q-120 -143 -122 -349q-3 -206 101 -310t291 -104q186 0 306 142t124 348t-101 311
q-106 104 -276 104zM664 1079q221 0 360 -129q139 -130 134 -380t-159 -417t-417 -167q-221 0 -361 129q-139 129 -137 368q6 264 160 430t420 166z" />
    <glyph glyph-name="odieresis" unicode="&#xf6;" horiz-adv-x="1280" 
d="M907 1380q74 0 74 -69q-4 -70 -74 -70q-37 1 -56 19t-17 51q-1 69 73 69zM515 1380q75 0 75 -69q-4 -70 -78 -70q-35 1 -54 19t-18 51q0 69 75 69zM655 985q-203 0 -323 -142q-120 -143 -122 -349q-3 -206 101 -310t291 -104q186 0 306 142t124 348t-101 311
q-106 104 -276 104zM664 1079q221 0 360 -129q139 -130 134 -380t-159 -417t-417 -167q-221 0 -361 129q-139 129 -137 368q6 264 160 430t420 166z" />
    <glyph glyph-name="divide" unicode="&#xf7;" horiz-adv-x="1183" 
d="M676 1087q35 0 54 -19t18 -50q-4 -74 -78 -74q-31 0 -50 18t-18 50q0 33 20 54t54 21zM553 393q74 0 72 -69q-4 -72 -78 -72q-31 0 -50 17t-19 49t20 54t55 21zM1061 705l-17 -84h-884l14 84h887z" />
    <glyph glyph-name="oslash" unicode="&#xf8;" horiz-adv-x="1280" 
d="M586 80q202 0 322 142t123 342t-89 302l-592 -716q94 -70 236 -70zM655 985q-203 0 -323 -142q-120 -141 -122 -349q-3 -208 103 -314l594 721q-100 84 -252 84zM664 1079q186 0 315 -92l119 143h63l-145 -174q147 -136 142 -386t-159 -417t-417 -167q-176 0 -301 80
l-109 -132h-63l133 160q-160 131 -156 392t158 427t420 166z" />
    <glyph glyph-name="ugrave" unicode="&#xf9;" horiz-adv-x="1245" 
d="M569 1495h113l70 -301h-88zM459 -14q-182 0 -264 94t-82 244q0 61 12 122l108 619h125l-108 -616q-12 -66 -12 -117q0 -110 62 -180t200 -70q182 0 292 125t140 303l98 555h125l-133 -756l-35 -309h-113l21 207q-149 -221 -436 -221z" />
    <glyph glyph-name="uacute" unicode="&#xfa;" horiz-adv-x="1249" 
d="M961 1497l-226 -303h-96l201 303h121zM459 -14q-182 0 -264 94t-82 244q0 61 12 122l108 619h125l-108 -616q-12 -66 -12 -117q0 -110 62 -180t200 -70q182 0 292 125t140 303l98 555h125l-133 -756l-35 -309h-113l21 207q-149 -221 -436 -221z" />
    <glyph glyph-name="ucircumflex" unicode="&#xfb;" horiz-adv-x="1249" 
d="M426 1194l274 305h115l166 -305h-102l-125 246l-217 -246h-111zM459 -14q-182 0 -264 94t-82 244q0 61 12 122l108 619h125l-108 -616q-12 -66 -12 -117q0 -110 62 -180t200 -70q182 0 292 125t140 303l98 555h125l-133 -756l-35 -309h-113l21 207q-149 -221 -436 -221z
" />
    <glyph glyph-name="udieresis" unicode="&#xfc;" horiz-adv-x="1249" 
d="M928 1386q74 0 73 -69q-4 -70 -73 -70q-36 1 -56 19t-18 51q0 69 74 69zM535 1386q75 0 75 -69q-4 -70 -78 -70q-35 1 -54 19t-17 51q-1 69 74 69zM459 -14q-182 0 -264 94t-82 244q0 61 12 122l108 619h125l-108 -616q-12 -66 -12 -117q0 -110 62 -180t200 -70
q182 0 292 125t140 303l98 555h125l-133 -756l-35 -309h-113l21 207q-149 -221 -436 -221z" />
    <glyph glyph-name="yacute" unicode="&#xfd;" horiz-adv-x="1124" 
d="M868 1497l-225 -303h-96l201 303h120zM129 -356q-90 0 -192 26l20 94q69 -20 145 -20t136 46q59 46 120 155l29 51l-260 1069h129l217 -944l520 944h135l-643 -1147q-96 -168 -181 -221t-175 -53z" />
    <glyph glyph-name="thorn" unicode="&#xfe;" horiz-adv-x="1302" 
d="M700 983q-208 0 -318 -153t-110 -343t98 -299t271 -108q207 0 317 152t111 342q1 192 -99 300t-270 109zM720 1079q230 0 352 -132q122 -131 122 -369t-138 -414t-394 -178q-156 0 -273 72t-162 198l-106 -604h-125l315 1782h125l-92 -519q146 164 376 164z" />
    <glyph glyph-name="ydieresis" unicode="&#xff;" horiz-adv-x="1124" 
d="M831 1350q74 0 74 -70q-4 -70 -74 -70q-37 0 -56 18t-17 52q-1 70 73 70zM439 1350q75 0 75 -70q-4 -70 -78 -70q-35 0 -54 18t-17 52q-1 70 74 70zM129 -356q-90 0 -192 26l20 94q69 -20 145 -20t136 46q59 46 120 155l29 51l-260 1069h129l217 -944l520 944h135
l-643 -1147q-96 -168 -181 -221t-175 -53z" />
    <glyph glyph-name="Amacron" unicode="&#x100;" horiz-adv-x="1437" 
d="M1200 1702l-14 -76h-600l14 76h600zM862 1327h-2l-485 -838h676zM965 1440l327 -1440h-135l-84 389h-749l-215 -389h-144l826 1440h174z" />
    <glyph glyph-name="amacron" unicode="&#x101;" horiz-adv-x="1294" 
d="M1055 1370l-15 -76h-600l15 76h600zM639 985q-207 1 -319 -151t-111 -344q0 -192 99 -301q99 -108 272 -107q208 0 318 152t110 342q0 192 -98 300t-271 109zM610 1079q164 1 282 -71t163 -199l51 256h115l-136 -789l-36 -276h-121l20 166q-143 -180 -403 -180
q-215 0 -336 132t-125 359q0 344 237 513q125 89 289 89z" />
    <glyph glyph-name="Abreve" unicode="&#x102;" horiz-adv-x="1439" 
d="M906 1554q-216 0 -222 203l84 6q6 -135 144 -135t192 135l82 -6q-64 -203 -280 -203zM862 1327h-2l-485 -838h676zM965 1440l327 -1440h-135l-84 389h-749l-215 -389h-144l826 1440h174z" />
    <glyph glyph-name="abreve" unicode="&#x103;" horiz-adv-x="1298" 
d="M738 1223q-220 0 -228 213l84 8q14 -147 154 -147t190 147l86 -8q-66 -213 -286 -213zM639 985q-207 1 -319 -151t-111 -344q0 -192 99 -301q99 -108 272 -107q208 0 318 152t110 342q0 192 -98 300t-271 109zM610 1079q164 1 282 -71t163 -199l51 256h115l-136 -789
l-36 -276h-121l20 166q-143 -180 -403 -180q-215 0 -336 132t-125 359q0 344 237 513q125 89 289 89z" />
    <glyph glyph-name="Aogonek" unicode="&#x104;" horiz-adv-x="1439" 
d="M862 1327h-2l-485 -838h676zM1178 -352q-133 0 -134 125q0 129 140 227h-27l-84 389h-749l-215 -389h-144l826 1440h174l327 -1440h-4q-154 -86 -153 -203q0 -74 73 -73q37 0 74 10l-2 -70q-43 -16 -102 -16z" />
    <glyph glyph-name="aogonek" unicode="&#x105;" horiz-adv-x="1298" 
d="M639 985q-207 1 -319 -151t-111 -344q0 -192 99 -301q99 -108 272 -107q208 0 318 152t110 342q0 192 -98 300t-271 109zM610 1079q164 1 282 -71t163 -199l51 256h115l-136 -789l-36 -276q-154 -86 -154 -203q0 -74 74 -73q37 0 73 10l-2 -70q-43 -16 -102 -16
q-133 0 -133 127t139 225h-16l20 166q-143 -180 -403 -180q-215 0 -336 132t-125 359q0 344 237 513q125 89 289 89z" />
    <glyph glyph-name="Cacute" unicode="&#x106;" horiz-adv-x="1374" 
d="M1104 1751l-180 -225h-93l156 225h117zM948 1450q250 0 451 -121l-45 -92q-186 109 -402 109q-319 0 -502 -199q-184 -199 -184 -477t154 -430t407 -152q176 0 396 88l24 -96q-219 -96 -436 -96q-305 0 -493 175q-187 175 -187 507t229 559q230 225 588 225z" />
    <glyph glyph-name="cacute" unicode="&#x107;" horiz-adv-x="1112" 
d="M911 1497l-225 -303h-96l201 303h120zM682 1079q195 0 352 -84l-43 -84q-143 74 -311 74q-215 0 -342 -138t-127 -347q0 -208 114 -314t289 -106t304 78l24 -88q-156 -84 -360 -84t-351 124q-145 124 -145 380t167 422q167 167 429 167z" />
    <glyph glyph-name="Ccircumflex" unicode="&#x108;" horiz-adv-x="1370" 
d="M686 1526l262 225h113l178 -225h-102l-136 172l-200 -172h-115zM948 1450q250 0 451 -121l-45 -92q-186 109 -402 109q-319 0 -502 -199q-184 -199 -184 -477t154 -430t407 -152q176 0 396 88l24 -96q-219 -96 -436 -96q-305 0 -493 175q-187 175 -187 507t229 559
q230 225 588 225z" />
    <glyph glyph-name="ccircumflex" unicode="&#x109;" horiz-adv-x="1112" 
d="M418 1194l274 305h115l166 -305h-103l-125 246l-217 -246h-110zM682 1079q195 0 352 -84l-43 -84q-143 74 -311 74q-215 0 -342 -138t-127 -347q0 -208 114 -314t289 -106t304 78l24 -88q-156 -84 -360 -84t-351 124q-145 124 -145 380t167 422q167 167 429 167z" />
    <glyph glyph-name="Cdotaccent" unicode="&#x10a;" horiz-adv-x="1374" 
d="M1006 1579q-74 0 -70 68q0 67 74 67t69 -67q1 -68 -73 -68zM948 1450q250 0 451 -121l-45 -92q-186 109 -402 109q-319 0 -502 -199q-184 -199 -184 -477t154 -430t407 -152q176 0 396 88l24 -96q-219 -96 -436 -96q-305 0 -493 175q-187 175 -187 507t229 559
q230 225 588 225z" />
    <glyph glyph-name="cdotaccent" unicode="&#x10b;" horiz-adv-x="1112" 
d="M678 1386q74 0 74 -69q-4 -70 -77 -70t-71 70q0 69 74 69zM682 1079q195 0 352 -84l-43 -84q-143 74 -311 74q-215 0 -342 -138t-127 -347q0 -208 114 -314t289 -106t304 78l24 -88q-156 -84 -360 -84t-351 124q-145 124 -145 380t167 422q167 167 429 167z" />
    <glyph glyph-name="Ccaron" unicode="&#x10c;" horiz-adv-x="1370" 
d="M1296 1751l-262 -225h-112l-179 225h103l135 -172l201 172h114zM948 1450q250 0 451 -121l-45 -92q-186 109 -402 109q-319 0 -502 -199q-184 -199 -184 -477t154 -430t407 -152q176 0 396 88l24 -96q-219 -96 -436 -96q-305 0 -493 175q-187 175 -187 507t229 559
q230 225 588 225z" />
    <glyph glyph-name="ccaron" unicode="&#x10d;" horiz-adv-x="1112" 
d="M1022 1499l-274 -305h-115l-166 305h102l125 -246l217 246h111zM682 1079q195 0 352 -84l-43 -84q-143 74 -311 74q-215 0 -342 -138t-127 -347q0 -208 114 -314t289 -106t304 78l24 -88q-156 -84 -360 -84t-351 124q-145 124 -145 380t167 422q167 167 429 167z" />
    <glyph glyph-name="Dcaron" unicode="&#x10e;" horiz-adv-x="1548" 
d="M1139 1751l-262 -225h-113l-178 225h102l135 -172l201 172h115zM776 1333h-309l-217 -1233h395q299 0 487 186t189 494q0 264 -143 409q-144 144 -402 144zM758 1434q318 0 508 -163t190 -501t-221 -554t-596 -216h-537l254 1434h402z" />
    <glyph glyph-name="dcaron" unicode="&#x10f;" horiz-adv-x="1300" 
d="M1462 1499h88q-29 -158 -92 -289h-63q42 156 67 289zM641 985q-205 1 -317 -151t-111 -344q0 -192 99 -302q99 -109 272 -108q208 0 318 152t110 344t-100 300t-271 109zM549 -14q-215 0 -336 132t-125 359q0 248 139 425t396 177q161 0 275 -80t151 -217l127 717h124
l-210 -1223l-37 -276h-111l27 203q-143 -217 -420 -217z" />
    <glyph glyph-name="Dcroat" unicode="&#x110;" horiz-adv-x="1548" 
d="M776 1333h-309l-105 -592h353l-15 -82h-352l-98 -559h395q299 0 487 186t189 494q0 264 -143 409q-144 144 -402 144zM758 1434q318 0 508 -163t190 -501t-221 -554t-596 -216h-537l117 659h-178l14 82h178l123 693h402z" />
    <glyph glyph-name="dcroat" unicode="&#x111;" horiz-adv-x="1300" 
d="M641 985q-205 1 -317 -151t-111 -344q0 -192 99 -302q99 -109 272 -108q208 0 318 152t110 344t-100 300t-271 109zM549 -14q-215 0 -336 132t-125 359q0 248 139 425t396 177q161 0 275 -80t151 -217l81 469h-327l8 45h328l37 203h124l-34 -203h164l-7 -45h-166
l-167 -975l-37 -276h-111l27 203q-143 -217 -420 -217z" />
    <glyph glyph-name="Emacron" unicode="&#x112;" horiz-adv-x="1329" 
d="M1188 1702l-14 -76h-601l15 76h600zM1343 1434l-18 -101h-860l-103 -583h742l-19 -101h-741l-96 -549h887l-19 -100h-1016l254 1434h989z" />
    <glyph glyph-name="emacron" unicode="&#x113;" horiz-adv-x="1171" 
d="M985 1370l-14 -76h-600l14 76h600zM700 983q-186 0 -317 -120t-166 -296q135 -16 242 -16q504 0 508 244q2 96 -71 142t-196 46zM709 1079q172 1 277 -67t104 -213q-2 -334 -619 -334q-135 0 -264 18v-20q-2 -191 100 -287t297 -96t344 82l25 -86q-157 -90 -395 -90
t-369 122t-129 358t173 425q171 188 456 188z" />
    <glyph glyph-name="Ebreve" unicode="&#x114;" horiz-adv-x="1329" 
d="M876 1554q-216 0 -223 203l84 6q7 -135 145 -135t191 135l82 -6q-63 -203 -279 -203zM1343 1434l-18 -101h-860l-103 -583h742l-19 -101h-741l-96 -549h887l-19 -100h-1016l254 1434h989z" />
    <glyph glyph-name="ebreve" unicode="&#x115;" horiz-adv-x="1171" 
d="M666 1223q-220 0 -228 213l84 8q14 -147 154 -147t190 147l86 -8q-66 -213 -286 -213zM700 983q-186 0 -317 -120t-166 -296q135 -16 242 -16q504 0 508 244q2 96 -71 142t-196 46zM709 1079q172 1 277 -67t104 -213q-2 -334 -619 -334q-135 0 -264 18v-20
q-2 -191 100 -287t297 -96t344 82l25 -86q-157 -90 -395 -90t-369 122t-129 358t173 425q171 188 456 188z" />
    <glyph glyph-name="Edotaccent" unicode="&#x116;" horiz-adv-x="1329" 
d="M886 1579q-72 0 -71 68q0 67 74 67t69 -67q0 -68 -72 -68zM1343 1434l-18 -101h-860l-103 -583h742l-19 -101h-741l-96 -549h887l-19 -100h-1016l254 1434h989z" />
    <glyph glyph-name="edotaccent" unicode="&#x117;" horiz-adv-x="1171" 
d="M741 1386q74 0 74 -69q-4 -70 -74 -70q-37 1 -56 19t-17 51q-1 69 73 69zM700 983q-186 0 -317 -120t-166 -296q135 -16 242 -16q504 0 508 244q2 96 -71 142t-196 46zM709 1079q172 1 277 -67t104 -213q-2 -334 -619 -334q-135 0 -264 18v-20q-2 -191 100 -287t297 -96
t344 82l25 -86q-157 -90 -395 -90t-369 122t-129 358t173 425q171 188 456 188z" />
    <glyph glyph-name="Eogonek" unicode="&#x118;" horiz-adv-x="1329" 
d="M971 -352q-133 0 -133 127t139 225h-877l254 1434h989l-18 -101h-860l-103 -583h742l-19 -101h-741l-96 -549h887l-19 -100h-35q-154 -86 -153 -203q0 -74 73 -73q37 0 74 10l-2 -70q-43 -16 -102 -16z" />
    <glyph glyph-name="eogonek" unicode="&#x119;" horiz-adv-x="1171" 
d="M700 983q-186 0 -317 -120t-166 -296q135 -16 242 -16q504 0 508 244q2 96 -71 142t-196 46zM709 1079q172 1 277 -67t104 -213q-2 -334 -619 -334q-135 0 -264 18v-20q-2 -191 100 -287t297 -96t344 82l25 -86q-78 -43 -176 -66q-63 -33 -103 -88t-41 -123q0 -76 74 -75
q37 0 74 10l-2 -70q-43 -16 -103 -16q-133 0 -133 124t115 220q-55 -6 -105 -6q-233 0 -364 122t-129 358t173 425q171 188 456 188z" />
    <glyph glyph-name="Ecaron" unicode="&#x11a;" horiz-adv-x="1329" 
d="M1194 1751l-262 -225h-113l-178 225h102l136 -172l200 172h115zM1343 1434l-18 -101h-860l-103 -583h742l-19 -101h-741l-96 -549h887l-19 -100h-1016l254 1434h989z" />
    <glyph glyph-name="ecaron" unicode="&#x11b;" horiz-adv-x="1171" 
d="M989 1499l-274 -305h-115l-166 305h103l125 -246l217 246h110zM700 983q-186 0 -317 -120t-166 -296q135 -16 242 -16q504 0 508 244q2 96 -71 142t-196 46zM709 1079q172 1 277 -67t104 -213q-2 -334 -619 -334q-135 0 -264 18v-20q-2 -191 100 -287t297 -96t344 82
l25 -86q-157 -90 -395 -90t-369 122t-129 358t173 425q171 188 456 188z" />
    <glyph glyph-name="Gcircumflex" unicode="&#x11c;" horiz-adv-x="1568" 
d="M696 1526l262 225h113l178 -225h-102l-135 172l-201 -172h-115zM952 1450q279 0 494 -111l-51 -94q-207 100 -439 101q-332 0 -508 -193t-178 -496q-4 -257 144 -413t426 -156q211 0 413 121l66 391h-391l14 98h504l-92 -546q-260 -168 -537 -168q-322 0 -504 179
t-178 488q0 351 222 575t595 224z" />
    <glyph glyph-name="gcircumflex" unicode="&#x11d;" horiz-adv-x="1280" 
d="M483 1194l275 305h114l166 -305h-102l-125 246l-217 -246h-111zM624 983q-184 0 -294 -133q-110 -134 -115 -322q-4 -188 91 -294q94 -106 284 -107q190 0 296 137q105 136 109 326t-91 292q-96 102 -280 101zM618 1079q158 1 269 -69t155 -187l50 242h114l-174 -985
q-72 -430 -551 -430q-262 0 -452 121l37 90q172 -115 409 -115q373 0 430 330l19 110q-131 -154 -385 -153q-211 0 -331 127q-120 126 -117 364t145 396t382 159z" />
    <glyph glyph-name="Gbreve" unicode="&#x11e;" horiz-adv-x="1568" 
d="M988 1554q-216 0 -222 203l84 6q6 -135 144 -135t192 135l82 -6q-64 -203 -280 -203zM952 1450q279 0 494 -111l-51 -94q-207 100 -439 101q-332 0 -508 -193t-178 -496q-4 -257 144 -413t426 -156q211 0 413 121l66 391h-391l14 98h504l-92 -546q-260 -168 -537 -168
q-322 0 -504 179t-178 488q0 351 222 575t595 224z" />
    <glyph glyph-name="gbreve" unicode="&#x11f;" horiz-adv-x="1280" 
d="M704 1223q-220 0 -229 213l84 8q13 -147 153 -147t191 147l86 -8q-65 -213 -285 -213zM624 983q-184 0 -294 -133q-110 -134 -115 -322q-4 -188 91 -294q94 -106 284 -107q190 0 296 137q105 136 109 326t-91 292q-96 102 -280 101zM618 1079q158 1 269 -69t155 -187
l50 242h114l-174 -985q-72 -430 -551 -430q-262 0 -452 121l37 90q172 -115 409 -115q373 0 430 330l19 110q-131 -154 -385 -153q-211 0 -331 127q-120 126 -117 364t145 396t382 159z" />
    <glyph glyph-name="Gdotaccent" unicode="&#x120;" horiz-adv-x="1568" 
d="M986 1579q-73 0 -71 68q0 67 73 67t71 -67q0 -68 -73 -68zM952 1450q279 0 494 -111l-51 -94q-207 100 -439 101q-332 0 -508 -193t-178 -496q-4 -257 144 -413t426 -156q211 0 413 121l66 391h-391l14 98h504l-92 -546q-260 -168 -537 -168q-322 0 -504 179t-178 488
q0 351 222 575t595 224z" />
    <glyph glyph-name="gdotaccent" unicode="&#x121;" horiz-adv-x="1280" 
d="M778 1386q74 0 74 -69q-4 -70 -74 -70q-37 1 -56 19t-17 51q-1 69 73 69zM624 983q-184 0 -294 -133q-110 -134 -115 -322q-4 -188 91 -294q94 -106 284 -107q190 0 296 137q105 136 109 326t-91 292q-96 102 -280 101zM618 1079q158 1 269 -69t155 -187l50 242h114
l-174 -985q-72 -430 -551 -430q-262 0 -452 121l37 90q172 -115 409 -115q373 0 430 330l19 110q-131 -154 -385 -153q-211 0 -331 127q-120 126 -117 364t145 396t382 159z" />
    <glyph glyph-name="Gcommaaccent" unicode="&#x122;" horiz-adv-x="1568" 
d="M733 -92h94q-18 -91 -43 -151q-26 -60 -39 -95h-77q47 148 65 246zM952 1450q279 0 494 -111l-51 -94q-207 100 -439 101q-332 0 -508 -193t-178 -496q-4 -257 144 -413t426 -156q211 0 413 121l66 391h-391l14 98h504l-92 -546q-260 -168 -537 -168q-322 0 -504 179
t-178 488q0 351 222 575t595 224z" />
    <glyph glyph-name="gcommaaccent" unicode="&#x123;" horiz-adv-x="1280" 
d="M739 1198h-94q16 84 43 147q26 64 39 99h78q-48 -148 -66 -246zM624 983q-184 0 -294 -133q-110 -134 -115 -322q-4 -188 91 -294q94 -106 284 -107q190 0 296 137q105 136 109 326t-91 292q-96 102 -280 101zM618 1079q158 1 269 -69t155 -187l50 242h114l-174 -985
q-72 -430 -551 -430q-262 0 -452 121l37 90q172 -115 409 -115q373 0 430 330l19 110q-131 -154 -385 -153q-211 0 -331 127q-120 126 -117 364t145 396t382 159z" />
    <glyph glyph-name="Hcircumflex" unicode="&#x124;" horiz-adv-x="1548" 
d="M653 1526l262 225h113l178 -225h-102l-135 172l-201 -172h-115zM225 0h-129l254 1434h129l-119 -668h877l119 668h129l-254 -1434h-129l117 666h-877z" />
    <glyph glyph-name="hcircumflex" unicode="&#x125;" horiz-adv-x="1234" 
d="M111 1571l262 225h112l179 -225h-103l-135 172l-201 -172h-114zM733 1079q193 0 279 -101t86 -259q0 -49 -13 -135l-104 -584h-125l102 584q12 76 13 116q0 129 -67 206q-66 77 -222 77t-259 -117t-140 -309l-99 -557h-125l265 1499h125l-105 -598q135 178 389 178z" />
    <glyph glyph-name="Hbar" unicode="&#x126;" horiz-adv-x="1544" 
d="M420 1106l-60 -340h877l59 340h-876zM1356 1434h129l-47 -267h121l-13 -61h-121l-194 -1106h-129l117 666h-877l-117 -666h-129l195 1106h-125l12 61h125l47 267h129l-47 -267h877z" />
    <glyph glyph-name="hbar" unicode="&#x127;" horiz-adv-x="1228" 
d="M733 1079q193 0 279 -101t86 -259q0 -49 -13 -135l-104 -584h-125l102 584q12 76 13 116q0 129 -67 206q-66 77 -222 77t-259 -117t-140 -309l-99 -557h-125l220 1251h-168l8 45h168l37 203h125l-35 -203h317l-6 -45h-319l-62 -350q135 178 389 178z" />
    <glyph glyph-name="Itilde" unicode="&#x128;" horiz-adv-x="548" 
d="M588 1583q-51 0 -123 41q-90 45 -125 45q-72 0 -121 -76l-43 25q70 135 186 135q46 0 128 -44t120 -44q70 0 121 76l43 -23q-66 -135 -186 -135zM483 1434l-258 -1434h-129l258 1434h129z" />
    <glyph glyph-name="itilde" unicode="&#x129;" horiz-adv-x="487" 
d="M473 1245q-51 0 -123 41q-90 45 -125 45q-72 0 -121 -76l-43 25q70 135 187 135q45 0 127 -44t121 -44q69 0 120 76l43 -23q-66 -135 -186 -135zM397 1065l-188 -1065h-125l172 977h-129l16 88h254z" />
    <glyph glyph-name="Imacron" unicode="&#x12a;" horiz-adv-x="548" 
d="M758 1702l-15 -76h-600l15 76h600zM483 1434l-258 -1434h-129l258 1434h129z" />
    <glyph glyph-name="imacron" unicode="&#x12b;" horiz-adv-x="487" 
d="M641 1364l-14 -76h-600l14 76h600zM397 1065l-188 -1065h-125l172 977h-129l16 88h254z" />
    <glyph glyph-name="Ibreve" unicode="&#x12c;" horiz-adv-x="548" 
d="M446 1554q-216 0 -223 203l84 6q7 -135 145 -135t191 135l82 -6q-63 -203 -279 -203zM483 1434l-258 -1434h-129l258 1434h129z" />
    <glyph glyph-name="ibreve" unicode="&#x12d;" horiz-adv-x="487" 
d="M337 1217q-220 0 -228 213l84 8q13 -147 153 -147t191 147l86 -8q-66 -213 -286 -213zM397 1065l-188 -1065h-125l172 977h-129l16 88h254z" />
    <glyph glyph-name="Iogonek" unicode="&#x12e;" horiz-adv-x="548" 
d="M113 -352q-133 0 -133 127t139 225h-23l258 1434h129l-258 -1434h-2q-154 -86 -153 -203q0 -74 73 -73q37 0 74 10l-2 -70q-43 -16 -102 -16z" />
    <glyph glyph-name="iogonek" unicode="&#x12f;" horiz-adv-x="487" 
d="M354 1274q-80 0 -75 65q3 74 77 74q42 0 62 -17t16 -48q0 -74 -80 -74zM51 -203q0 -74 74 -73q37 0 74 10l-2 -70q-43 -16 -103 -16q-133 0 -133 127t139 225h-16l172 977h-129l16 88h254l-188 -1065h-4q-154 -86 -154 -203z" />
    <glyph glyph-name="Idotaccent" unicode="&#x130;" horiz-adv-x="548" 
d="M454 1579q-74 0 -69 68q0 67 74 67t69 -67q0 -68 -74 -68zM483 1434l-258 -1434h-129l258 1434h129z" />
    <glyph glyph-name="dotlessi" unicode="&#x131;" horiz-adv-x="487" 
d="M397 1065l-188 -1065h-125l172 977h-129l16 88h254z" />
    <glyph glyph-name="Jcircumflex" unicode="&#x134;" horiz-adv-x="1124" 
d="M715 1526l262 225h113l178 -225h-103l-135 172l-201 -172h-114zM414 88q126 0 219 88q92 88 125 268l176 990h129l-176 -994q-41 -221 -162 -339q-121 -117 -303 -117t-279 75q-96 76 -133 177l84 63q37 -91 115 -151q79 -60 205 -60z" />
    <glyph glyph-name="jcircumflex" unicode="&#x135;" horiz-adv-x="487" 
d="M16 1157l275 305h115l165 -305h-102l-125 246l-217 -246h-111zM-35 -356h-84l19 102h47q69 0 93 27t36 98l196 1106h-139l17 88h262l-213 -1208q-19 -113 -71 -163t-163 -50z" />
    <glyph glyph-name="Kcommaaccent" unicode="&#x136;" horiz-adv-x="1378" 
d="M586 -92h94q-16 -84 -43 -147q-26 -64 -39 -99h-78q48 148 66 246zM1425 1434l-608 -545l397 -889h-145l-350 801l-410 -367l-78 -434h-129l254 1434h129l-147 -832l930 832h157z" />
    <glyph glyph-name="kcommaaccent" unicode="&#x137;" horiz-adv-x="1091" 
d="M428 -92h94q-18 -91 -43 -151q-26 -60 -39 -95h-78q48 148 66 246zM455 1499l-181 -1012l682 578h144l-473 -403l303 -662h-131l-264 584l-287 -244l-60 -340h-125l267 1499h125z" />
    <glyph glyph-name="kgreenlandic" unicode="&#x138;" horiz-adv-x="1093" 
d="M1100 1065l-473 -403l305 -662h-135l-265 582l-282 -242l-62 -340h-125l191 1065h125l-105 -578l682 578h144z" />
    <glyph glyph-name="Lacute" unicode="&#x139;" horiz-adv-x="1134" 
d="M651 1751l-180 -225h-92l156 225h116zM481 1434l-233 -1334h778l-18 -100h-908l254 1434h127z" />
    <glyph glyph-name="lacute" unicode="&#x13a;" horiz-adv-x="512" 
d="M610 1796l-180 -225h-92l156 225h116zM288 84q56 0 77 4l-15 -92q-55 -10 -136 -10t-116 40t-16 142l233 1331h125l-231 -1325q-10 -54 7 -72q16 -18 72 -18z" />
    <glyph glyph-name="Lcommaaccent" unicode="&#x13b;" horiz-adv-x="1134" 
d="M510 -92h94q-18 -91 -43 -151q-26 -60 -39 -95h-78q48 148 66 246zM481 1434l-233 -1334h778l-18 -100h-908l254 1434h127z" />
    <glyph glyph-name="lcommaaccent" unicode="&#x13c;" horiz-adv-x="512" 
d="M117 -92h94q-16 -84 -43 -147q-26 -64 -39 -99h-78q48 148 66 246zM288 84q56 0 77 4l-15 -92q-55 -10 -136 -10t-116 40t-16 142l233 1331h125l-231 -1325q-10 -54 7 -72q16 -18 72 -18z" />
    <glyph glyph-name="Lcaron" unicode="&#x13d;" horiz-adv-x="1134" 
d="M481 1434l-233 -1334h778l-18 -100h-908l254 1434h127zM893 1434h88q-29 -158 -92 -289h-64q43 156 68 289z" />
    <glyph glyph-name="lcaron" unicode="&#x13e;" horiz-adv-x="514" 
d="M288 84q56 0 77 4l-15 -92q-55 -10 -136 -10t-116 40t-16 142l233 1331h125l-231 -1325q-10 -54 7 -72q16 -18 72 -18zM621 1499h88q-29 -158 -93 -289h-63q43 156 68 289z" />
    <glyph glyph-name="Lslash" unicode="&#x141;" horiz-adv-x="1134" 
d="M481 1434l-127 -721l373 200l-14 -67l-369 -199l-96 -547h778l-18 -100h-908l101 571l-197 -106l12 67l197 105l141 797h127z" />
    <glyph glyph-name="lslash" unicode="&#x142;" horiz-adv-x="544" 
d="M301 84q56 0 76 4l-15 -92q-57 -10 -137 -10q-81 0 -115 40t-16 142l70 405l-152 -81l15 73l151 80l150 854h125l-136 -778l242 131l-10 -74l-246 -131l-82 -473q-10 -54 7 -72t73 -18z" />
    <glyph glyph-name="Nacute" unicode="&#x143;" horiz-adv-x="1517" 
d="M1141 1751l-180 -225h-93l156 225h117zM1454 1434l-254 -1434h-137l-619 1235l-219 -1235h-129l254 1434h139l619 -1229l217 1229h129z" />
    <glyph glyph-name="nacute" unicode="&#x144;" horiz-adv-x="1220" 
d="M965 1497l-226 -303h-96l201 303h121zM741 1079q113 0 191 -41q78 -40 110 -106q74 -150 31 -314l-108 -618h-125l108 616q27 154 -27 260q-53 106 -229 107q-176 0 -286 -125t-140 -303l-98 -555h-125l133 756l35 309h115l-25 -213q155 227 440 227z" />
    <glyph glyph-name="Ncommaaccent" unicode="&#x145;" horiz-adv-x="1517" 
d="M606 -92h94q-18 -91 -43 -151q-26 -60 -39 -95h-77q47 148 65 246zM1454 1434l-254 -1434h-137l-619 1235l-219 -1235h-129l254 1434h139l619 -1229l217 1229h129z" />
    <glyph glyph-name="ncommaaccent" unicode="&#x146;" horiz-adv-x="1220" 
d="M457 -92h94q-16 -84 -43 -147q-26 -64 -39 -99h-78q48 148 66 246zM741 1079q113 0 191 -41q78 -40 110 -106q74 -150 31 -314l-108 -618h-125l108 616q27 154 -27 260q-53 106 -229 107q-176 0 -286 -125t-140 -303l-98 -555h-125l133 756l35 309h115l-25 -213
q155 227 440 227z" />
    <glyph glyph-name="Ncaron" unicode="&#x147;" horiz-adv-x="1517" 
d="M1245 1751l-262 -225h-113l-178 225h103l135 -172l200 172h115zM1454 1434l-254 -1434h-137l-619 1235l-219 -1235h-129l254 1434h139l619 -1229l217 1229h129z" />
    <glyph glyph-name="ncaron" unicode="&#x148;" horiz-adv-x="1220" 
d="M1034 1499l-274 -305h-115l-166 305h103l125 -246l217 246h110zM741 1079q113 0 191 -41q78 -40 110 -106q74 -150 31 -314l-108 -618h-125l108 616q27 154 -27 260q-53 106 -229 107q-176 0 -286 -125t-140 -303l-98 -555h-125l133 756l35 309h115l-25 -213
q155 227 440 227z" />
    <glyph glyph-name="Eng" unicode="&#x14a;" horiz-adv-x="1517" 
d="M1452 1434l-250 -1424q-27 -147 -115 -218t-231 -109l-16 90q53 18 85 31q31 14 77 60t61 109l6 27l-625 1245l-219 -1245h-129l252 1434h137l621 -1235l215 1235h131z" />
    <glyph glyph-name="eng" unicode="&#x14b;" horiz-adv-x="1214" 
d="M741 1079q180 0 259 -93t79 -243q0 -63 -12 -125l-115 -641q-20 -129 -106 -193t-232 -101l-12 81q121 42 166 90t57 115l117 647q10 61 10 117q0 250 -250 250q-188 0 -296 -125t-140 -303l-98 -555h-125l133 756l35 309h115l-23 -213q153 227 438 227z" />
    <glyph glyph-name="Omacron" unicode="&#x14c;" horiz-adv-x="1683" 
d="M1280 1702l-14 -76h-600l14 76h600zM924 1346q-202 0 -350 -100q-286 -191 -298 -593q-8 -272 140 -417t389 -146q299 0 468 201t178 482t-139 427t-388 146zM928 1450q301 -2 484 -178t175 -491t-194 -545q-92 -115 -245 -183t-347 -67q-301 0 -485 176
q-183 176 -175 489t195 547q92 116 244 184t348 68z" />
    <glyph glyph-name="omacron" unicode="&#x14d;" horiz-adv-x="1280" 
d="M1024 1364l-14 -76h-600l14 76h600zM655 985q-203 0 -323 -142q-120 -143 -122 -349q-3 -206 101 -310t291 -104q186 0 306 142t124 348t-101 311q-106 104 -276 104zM664 1079q221 0 360 -129q139 -130 134 -380t-159 -417t-417 -167q-221 0 -361 129q-139 129 -137 368
q6 264 160 430t420 166z" />
    <glyph glyph-name="Obreve" unicode="&#x14e;" horiz-adv-x="1683" 
d="M966 1554q-216 0 -223 203l84 6q7 -135 145 -135t191 135l82 -6q-63 -203 -279 -203zM924 1346q-202 0 -350 -100q-286 -191 -298 -593q-8 -272 140 -417t389 -146q299 0 468 201t178 482t-139 427t-388 146zM928 1450q301 -2 484 -178t175 -491t-194 -545
q-92 -115 -245 -183t-347 -67q-301 0 -485 176q-183 176 -175 489t195 547q92 116 244 184t348 68z" />
    <glyph glyph-name="obreve" unicode="&#x14f;" horiz-adv-x="1280" 
d="M734 1217q-220 0 -228 213l84 8q14 -147 154 -147t190 147l86 -8q-66 -213 -286 -213zM655 985q-203 0 -323 -142q-120 -143 -122 -349q-3 -206 101 -310t291 -104q186 0 306 142t124 348t-101 311q-106 104 -276 104zM664 1079q221 0 360 -129q139 -130 134 -380
t-159 -417t-417 -167q-221 0 -361 129q-139 129 -137 368q6 264 160 430t420 166z" />
    <glyph glyph-name="Ohungarumlaut" unicode="&#x150;" horiz-adv-x="1683" 
d="M1012 1751l-191 -225h-92l162 225h121zM1284 1751l-190 -225h-93l162 225h121zM924 1346q-202 0 -350 -100q-286 -191 -298 -593q-8 -272 140 -417t389 -146q299 0 468 201t178 482t-139 427t-388 146zM928 1450q301 -2 484 -178t175 -491t-194 -545q-92 -115 -245 -183
t-347 -67q-301 0 -485 176q-183 176 -175 489t195 547q92 116 244 184t348 68z" />
    <glyph glyph-name="ohungarumlaut" unicode="&#x151;" horiz-adv-x="1280" 
d="M807 1491l-229 -303h-95l199 303h125zM1079 1491l-229 -303h-94l198 303h125zM655 985q-203 0 -323 -142q-120 -143 -122 -349q-3 -206 101 -310t291 -104q186 0 306 142t124 348t-101 311q-106 104 -276 104zM664 1079q221 0 360 -129q139 -130 134 -380t-159 -417
t-417 -167q-221 0 -361 129q-139 129 -137 368q6 264 160 430t420 166z" />
    <glyph glyph-name="OE" unicode="&#x152;" horiz-adv-x="2609" 
d="M924 1346q-202 0 -350 -100q-286 -191 -298 -593q-8 -272 140 -417t389 -146q299 0 468 201t178 482t-139 427t-388 146zM801 -14q-301 0 -485 176q-183 176 -175 489t195 547q92 116 245 184t371 67t384 -118t220 -332l78 435h989l-18 -101h-860l-103 -583h742l-19 -101
h-741l-96 -549h887l-19 -100h-1016l52 295q-209 -309 -631 -309z" />
    <glyph glyph-name="oe" unicode="&#x153;" horiz-adv-x="2129" 
d="M1659 983q-185 0 -317 -120t-166 -296q135 -16 241 -16q504 0 508 244q1 96 -71 142t-195 46zM655 985q-203 0 -323 -142q-120 -143 -122 -349q-3 -206 101 -310t291 -104q186 0 306 142t124 348t-101 311q-106 104 -276 104zM664 1079q166 0 290 -77t174 -222
q82 135 220 217t315 82q176 0 282 -67q105 -68 103 -213q-2 -334 -618 -334q-135 0 -265 18v-20q-1 -191 101 -287t296 -96t345 82l24 -86q-158 -90 -399 -90q-356 0 -461 262q-152 -262 -489 -262q-221 0 -361 129q-139 129 -137 368q6 264 160 430t420 166z" />
    <glyph glyph-name="Racute" unicode="&#x154;" horiz-adv-x="1441" 
d="M1001 1751l-180 -225h-92l156 225h116zM891 721q166 0 270 88q105 88 105 225t-77 218t-216 81h-500l-108 -612h526zM1001 1434q190 0 295 -110t105 -274q-1 -165 -105 -277t-288 -140l196 -633h-135l-182 621q0 -2 -27 -1t-29 1h-483l-108 -621h-131l251 1434h641z" />
    <glyph glyph-name="racute" unicode="&#x155;" horiz-adv-x="679" 
d="M696 1466l-225 -303h-96l200 303h121zM692 1065l-28 -121q-152 18 -247 -83t-130 -288l-103 -573h-125l144 809l33 256h110l-20 -184q59 99 156 153t210 31z" />
    <glyph glyph-name="Rcommaaccent" unicode="&#x156;" horiz-adv-x="1441" 
d="M582 -92h94q-16 -84 -43 -147q-26 -64 -39 -99h-78q48 148 66 246zM891 721q166 0 270 88q105 88 105 225t-77 218t-216 81h-500l-108 -612h526zM1001 1434q190 0 295 -110t105 -274q-1 -165 -105 -277t-288 -140l196 -633h-135l-182 621q0 -2 -27 -1t-29 1h-483
l-108 -621h-131l251 1434h641z" />
    <glyph glyph-name="rcommaaccent" unicode="&#x157;" horiz-adv-x="679" 
d="M68 -92h94q-16 -84 -43 -147q-26 -64 -39 -99h-78q48 148 66 246zM692 1065l-28 -121q-152 18 -247 -83t-130 -288l-103 -573h-125l144 809l33 256h110l-20 -184q59 99 156 153t210 31z" />
    <glyph glyph-name="Rcaron" unicode="&#x158;" horiz-adv-x="1441" 
d="M1198 1749l-262 -225h-113l-178 225h103l135 -172l200 172h115zM891 721q166 0 270 88q105 88 105 225t-77 218t-216 81h-500l-108 -612h526zM1001 1434q190 0 295 -110t105 -274q-1 -165 -105 -277t-288 -140l196 -633h-135l-182 621q0 -2 -27 -1t-29 1h-483l-108 -621
h-131l251 1434h641z" />
    <glyph glyph-name="rcaron" unicode="&#x159;" horiz-adv-x="679" 
d="M766 1468l-274 -305h-115l-166 305h102l125 -245l217 245h111zM692 1065l-28 -121q-152 18 -247 -83t-130 -288l-103 -573h-125l144 809l33 256h110l-20 -184q59 99 156 153t210 31z" />
    <glyph glyph-name="Sacute" unicode="&#x15a;" horiz-adv-x="1232" 
d="M967 1749l-181 -225h-92l156 225h117zM704 1450q222 0 492 -115l-43 -106q-243 117 -439 117t-280 -77t-84 -190q0 -57 20 -97t69 -75q51 -35 97 -55t158 -64t180 -76q175 -83 213 -182q23 -57 23 -141q0 -190 -128 -298t-374 -107q-317 0 -585 157l45 109
q279 -162 546 -158q174 0 265 76q90 76 90 195t-77 175t-306 142q-157 63 -219 101q-63 38 -89 73q-66 87 -65 205q0 190 134 291q135 100 357 100z" />
    <glyph glyph-name="sacute" unicode="&#x15b;" horiz-adv-x="989" 
d="M842 1493l-226 -303h-96l201 303h121zM538 1079q173 0 377 -90l-36 -82q-187 80 -325 80t-207 -50t-68 -138q1 -55 33 -93t73 -56t122 -46q233 -78 272 -125q64 -78 65 -178q0 -155 -109 -235t-313 -80t-408 129l39 82q199 -121 387 -119q129 2 202 54t73 146
q1 94 -57 135q-58 40 -170 75t-153 51q-40 16 -89 48q-94 61 -93 201q1 139 106 216q106 75 279 75z" />
    <glyph glyph-name="Scircumflex" unicode="&#x15c;" horiz-adv-x="1232" 
d="M475 1524l262 225h113l178 -225h-102l-135 172l-201 -172h-115zM704 1450q222 0 492 -115l-43 -106q-243 117 -439 117t-280 -77t-84 -190q0 -57 20 -97t69 -75q51 -35 97 -55t158 -64t180 -76q175 -83 213 -182q23 -57 23 -141q0 -190 -128 -298t-374 -107
q-317 0 -585 157l45 109q279 -162 546 -158q174 0 265 76q90 76 90 195t-77 175t-306 142q-157 63 -219 101q-63 38 -89 73q-66 87 -65 205q0 190 134 291q135 100 357 100z" />
    <glyph glyph-name="scircumflex" unicode="&#x15d;" horiz-adv-x="989" 
d="M301 1190l274 305h115l166 -305h-102l-125 246l-217 -246h-111zM538 1079q173 0 377 -90l-36 -82q-187 80 -325 80t-207 -50t-68 -138q1 -55 33 -93t73 -56t122 -46q233 -78 272 -125q64 -78 65 -178q0 -155 -109 -235t-313 -80t-408 129l39 82q199 -121 387 -119
q129 2 202 54t73 146q1 94 -57 135q-58 40 -170 75t-153 51q-40 16 -89 48q-94 61 -93 201q1 139 106 216q106 75 279 75z" />
    <glyph glyph-name="Scedilla" unicode="&#x15e;" horiz-adv-x="1232" 
d="M704 1450q222 0 492 -115l-43 -106q-243 117 -439 117t-280 -77t-84 -190q0 -57 20 -97t69 -75q51 -35 97 -55t158 -64t180 -76q175 -83 213 -182q23 -57 23 -141q0 -190 -128 -298t-374 -107h-26l-52 -109q55 4 105 -22q49 -27 49 -100t-58 -111t-150 -37q-92 0 -161 28
l15 66q66 -29 131 -29q131 0 131 80q0 52 -47 64t-84 0l-23 30l70 144q-270 25 -485 153l45 109q279 -162 546 -158q174 0 265 76q90 76 90 195t-77 175t-306 142q-157 63 -219 101q-63 38 -89 73q-66 87 -65 205q0 190 134 291q135 100 357 100z" />
    <glyph glyph-name="scedilla" unicode="&#x15f;" horiz-adv-x="989" 
d="M538 1079q173 0 377 -90l-36 -82q-187 80 -325 80t-207 -50t-68 -138q1 -55 33 -93t73 -56t122 -46q233 -78 272 -125q64 -78 65 -178q0 -155 -109 -235t-295 -80h-4l-53 -113q55 4 104 -23q49 -28 49 -100t-58 -110t-149 -37q-91 0 -161 28l14 66q66 -29 132 -29
q133 0 130 80q0 52 -47 64t-84 0l-22 30l71 148q-180 16 -348 125l39 82q199 -121 387 -119q129 2 202 54t73 146q1 94 -57 135q-58 40 -170 75t-153 51q-40 16 -89 48q-94 61 -93 201q1 139 106 216q106 75 279 75z" />
    <glyph glyph-name="Scaron" unicode="&#x160;" horiz-adv-x="1232" 
d="M1071 1749l-262 -225h-113l-178 225h103l135 -172l200 172h115zM704 1450q222 0 492 -115l-43 -106q-243 117 -439 117t-280 -77t-84 -190q0 -57 20 -97t69 -75q51 -35 97 -55t158 -64t180 -76q175 -83 213 -182q23 -57 23 -141q0 -190 -128 -298t-374 -107
q-317 0 -585 157l45 109q279 -162 546 -158q174 0 265 76q90 76 90 195t-77 175t-306 142q-157 63 -219 101q-63 38 -89 73q-66 87 -65 205q0 190 134 291q135 100 357 100z" />
    <glyph glyph-name="scaron" unicode="&#x161;" horiz-adv-x="989" 
d="M913 1495l-274 -305h-115l-166 305h103l125 -246l217 246h110zM538 1079q173 0 377 -90l-36 -82q-187 80 -325 80t-207 -50t-68 -138q1 -55 33 -93t73 -56t122 -46q233 -78 272 -125q64 -78 65 -178q0 -155 -109 -235t-313 -80t-408 129l39 82q199 -121 387 -119
q129 2 202 54t73 146q1 94 -57 135q-58 40 -170 75t-153 51q-40 16 -89 48q-94 61 -93 201q1 139 106 216q106 75 279 75z" />
    <glyph glyph-name="Tcommaaccent" unicode="&#x162;" horiz-adv-x="1189" 
d="M436 -92h94q-18 -91 -43 -151q-26 -60 -38 -95h-78q47 148 65 246zM1313 1434l-19 -101h-508l-235 -1333h-129l235 1333h-507l18 101h1145z" />
    <glyph glyph-name="tcommaaccent" unicode="&#x163;" horiz-adv-x="718" 
d="M262 -92h94q-18 -91 -43 -151q-26 -60 -39 -95h-77q47 148 65 246zM258 193q0 -166 283 -93l-9 -84q-74 -30 -188 -30t-164 47q-49 47 -49 137q0 31 12 121l121 686h-158l17 88h160l71 307h107l-53 -307h309l-19 -88h-307l-123 -684q-10 -92 -10 -100z" />
    <glyph glyph-name="Tcaron" unicode="&#x164;" horiz-adv-x="1189" 
d="M1073 1751l-262 -225h-113l-178 225h103l135 -172l200 172h115zM1313 1434l-19 -101h-508l-235 -1333h-129l235 1333h-507l18 101h1145z" />
    <glyph glyph-name="tcaron" unicode="&#x165;" horiz-adv-x="718" 
d="M258 193q0 -166 283 -93l-9 -84q-74 -30 -188 -30t-164 47q-49 47 -49 137q0 31 12 121l121 686h-158l17 88h160l71 307h107l-53 -307h309l-19 -88h-307l-123 -684q-10 -92 -10 -100zM657 1499h88q-29 -158 -92 -289h-63q42 156 67 289z" />
    <glyph glyph-name="Tbar" unicode="&#x166;" horiz-adv-x="1189" 
d="M1313 1434l-19 -101h-508l-100 -565h371l-13 -61h-368l-125 -707h-129l125 707h-367l13 61h364l100 565h-507l18 101h1145z" />
    <glyph glyph-name="tbar" unicode="&#x167;" horiz-adv-x="718" 
d="M258 193q0 -166 283 -93l-9 -84q-74 -30 -188 -30t-164 47q-49 47 -49 137q0 31 12 121l80 457h-155l8 45h155l33 184h-158l17 88h160l71 307h107l-53 -307h309l-19 -88h-307l-33 -184h301l-10 -45h-299l-82 -455q-10 -92 -10 -100z" />
    <glyph glyph-name="Utilde" unicode="&#x168;" horiz-adv-x="1478" 
d="M1051 1583q-51 0 -123 41q-90 45 -125 45q-72 0 -121 -76l-43 25q70 135 186 135q45 0 127 -44t121 -44q70 0 121 76l43 -23q-66 -135 -186 -135zM682 -16q-246 0 -377 132t-131 314q0 45 6 88l160 916h131l-164 -924q-6 -35 -6 -68q0 -150 102 -252q103 -102 287 -102
t296 103t138 258l176 985h130l-173 -975q-37 -209 -183 -342t-392 -133z" />
    <glyph glyph-name="utilde" unicode="&#x169;" horiz-adv-x="1249" 
d="M852 1251q-51 0 -123 41q-90 45 -125 45q-72 0 -121 -75l-43 24q70 135 187 135q45 0 127 -44t120 -44q70 0 121 76l43 -23q-66 -135 -186 -135zM459 -14q-182 0 -264 94t-82 244q0 61 12 122l108 619h125l-108 -616q-12 -66 -12 -117q0 -110 62 -180t200 -70
q182 0 292 125t140 303l98 555h125l-133 -756l-35 -309h-113l21 207q-149 -221 -436 -221z" />
    <glyph glyph-name="Umacron" unicode="&#x16a;" horiz-adv-x="1470" 
d="M1210 1702l-14 -76h-600l14 76h600zM682 -16q-246 0 -377 132t-131 314q0 45 6 88l160 916h131l-164 -924q-6 -35 -6 -68q0 -150 102 -252q103 -102 287 -102t296 103t138 258l176 985h130l-173 -975q-37 -209 -183 -342t-392 -133z" />
    <glyph glyph-name="umacron" unicode="&#x16b;" horiz-adv-x="1249" 
d="M1044 1370l-14 -76h-600l14 76h600zM459 -14q-182 0 -264 94t-82 244q0 61 12 122l108 619h125l-108 -616q-12 -66 -12 -117q0 -110 62 -180t200 -70q182 0 292 125t140 303l98 555h125l-133 -756l-35 -309h-113l21 207q-149 -221 -436 -221z" />
    <glyph glyph-name="Ubreve" unicode="&#x16c;" horiz-adv-x="1478" 
d="M906 1554q-216 0 -222 203l84 6q6 -135 144 -135t192 135l82 -6q-64 -203 -280 -203zM682 -16q-246 0 -377 132t-131 314q0 45 6 88l160 916h131l-164 -924q-6 -35 -6 -68q0 -150 102 -252q103 -102 287 -102t296 103t138 258l176 985h130l-173 -975q-37 -209 -183 -342
t-392 -133z" />
    <glyph glyph-name="ubreve" unicode="&#x16d;" horiz-adv-x="1249" 
d="M716 1223q-220 0 -229 213l84 8q13 -147 153 -147t191 147l86 -8q-65 -213 -285 -213zM459 -14q-182 0 -264 94t-82 244q0 61 12 122l108 619h125l-108 -616q-12 -66 -12 -117q0 -110 62 -180t200 -70q182 0 292 125t140 303l98 555h125l-133 -756l-35 -309h-113l21 207
q-149 -221 -436 -221z" />
    <glyph glyph-name="Uring" unicode="&#x16e;" horiz-adv-x="1478" 
d="M941 1823q-46 0 -80 -32t-36 -89t30 -85t78 -28t80 32t36 89t-30 85t-78 28zM941 1882q83 0 134 -43t50 -130t-56 -133t-138 -46t-134 43t-49 130t56 133t137 46zM682 -16q-246 0 -377 132t-131 314q0 45 6 88l160 916h131l-164 -924q-6 -35 -6 -68q0 -150 102 -252
q103 -102 287 -102t296 103t138 258l176 985h130l-173 -975q-37 -209 -183 -342t-392 -133z" />
    <glyph glyph-name="uring" unicode="&#x16f;" horiz-adv-x="1249" 
d="M740 1491q-46 0 -80 -32t-36 -89t30 -85t78 -28t80 32t36 89t-30 85t-78 28zM740 1550q83 0 134 -43q50 -43 50 -130t-56 -133t-138 -46q-83 0 -134 43t-49 130t56 133t137 46zM459 -14q-182 0 -264 94t-82 244q0 61 12 122l108 619h125l-108 -616q-12 -66 -12 -117
q0 -110 62 -180t200 -70q182 0 292 125t140 303l98 555h125l-133 -756l-35 -309h-113l21 207q-149 -221 -436 -221z" />
    <glyph glyph-name="Uhungarumlaut" unicode="&#x170;" horiz-adv-x="1470" 
d="M979 1751l-191 -225h-92l162 225h121zM1251 1751l-190 -225h-92l161 225h121zM682 -16q-246 0 -377 132t-131 314q0 45 6 88l160 916h131l-164 -924q-6 -35 -6 -68q0 -150 102 -252q103 -102 287 -102t296 103t138 258l176 985h130l-173 -975q-37 -209 -183 -342
t-392 -133z" />
    <glyph glyph-name="uhungarumlaut" unicode="&#x171;" horiz-adv-x="1245" 
d="M1104 1497l-230 -303h-94l199 303h125zM831 1497l-229 -303h-94l199 303h124zM459 -14q-182 0 -264 94t-82 244q0 61 12 122l108 619h125l-108 -616q-12 -66 -12 -117q0 -110 62 -180t200 -70q182 0 292 125t140 303l98 555h125l-133 -756l-35 -309h-113l21 207
q-149 -221 -436 -221z" />
    <glyph glyph-name="Uogonek" unicode="&#x172;" horiz-adv-x="1478" 
d="M700 -352q-133 0 -133 125q0 119 117 211q-248 0 -379 132t-131 314q0 45 6 88l160 916h131l-164 -924q-6 -35 -6 -68q0 -150 102 -252q103 -102 287 -102t296 103t138 258l176 985h130l-173 -975q-33 -182 -150 -311q-118 -128 -312 -156q-137 -78 -138 -195
q0 -74 72 -73q43 0 76 10l-2 -70q-45 -16 -103 -16z" />
    <glyph glyph-name="uogonek" unicode="&#x173;" horiz-adv-x="1249" 
d="M459 -14q-182 0 -264 94t-82 244q0 61 12 122l108 619h125l-108 -616q-12 -66 -12 -117q0 -110 62 -180t200 -70q182 0 292 125t140 303l98 555h125l-133 -756l-35 -309q-154 -86 -153 -203q0 -74 73 -73q37 0 74 10l-2 -70q-43 -16 -102 -16q-133 0 -134 125
q0 129 140 227h-9l21 207q-149 -221 -436 -221z" />
    <glyph glyph-name="Wcircumflex" unicode="&#x174;" horiz-adv-x="1982" 
d="M858 1526l262 225h113l178 -225h-102l-135 172l-201 -172h-115zM2048 1434l-666 -1434h-161l-127 1229l-562 -1229h-161l-164 1434h133l137 -1282l567 1261h156l123 -1251l578 1272h147z" />
    <glyph glyph-name="wcircumflex" unicode="&#x175;" horiz-adv-x="1656" 
d="M631 1188l274 305h115l166 -305h-103l-125 246l-217 -246h-110zM1665 1065l-528 -1065h-146l-127 895l-440 -895h-145l-152 1065h119l131 -930l461 930h110l129 -930l455 930h133z" />
    <glyph glyph-name="Ycircumflex" unicode="&#x176;" horiz-adv-x="1292" 
d="M494 1526l262 225h112l179 -225h-103l-135 172l-201 -172h-114zM602 0h-129l100 578l-362 856h131l311 -750l576 750h141l-668 -863z" />
    <glyph glyph-name="ycircumflex" unicode="&#x177;" horiz-adv-x="1124" 
d="M340 1188l274 305h115l166 -305h-102l-125 246l-217 -246h-111zM129 -356q-90 0 -192 26l20 94q69 -20 145 -20t136 46q59 46 120 155l29 51l-260 1069h129l217 -944l520 944h135l-643 -1147q-96 -168 -181 -221t-175 -53z" />
    <glyph glyph-name="Ydieresis" unicode="&#x178;" horiz-adv-x="1292" 
d="M1004 1579q-74 0 -70 68q0 67 74 67t69 -67q1 -68 -73 -68zM613 1714q73 0 73 -68t-74 -67q-74 0 -71 68q-1 67 72 67zM602 0h-129l100 578l-362 856h131l311 -750l576 750h141l-668 -863z" />
    <glyph glyph-name="Zacute" unicode="&#x179;" horiz-adv-x="1255" 
d="M983 1751l-180 -225h-92l155 225h117zM1313 1434l-15 -93l-1136 -1243l456 2h467l-18 -100h-1098l17 92l1140 1245l-446 -4h-449l21 101h1061z" />
    <glyph glyph-name="zacute" unicode="&#x17a;" horiz-adv-x="1038" 
d="M856 1497l-225 -303h-96l200 303h121zM1042 1065l-16 -100l-879 -881l330 4h402l-19 -88h-880l18 98l879 883l-316 -4h-393l18 88h856z" />
    <glyph glyph-name="Zdotaccent" unicode="&#x17b;" horiz-adv-x="1255" 
d="M802 1579q-72 0 -71 68q0 67 74 67t69 -67q0 -68 -72 -68zM1313 1434l-15 -93l-1136 -1243l456 2h467l-18 -100h-1098l17 92l1140 1245l-446 -4h-449l21 101h1061z" />
    <glyph glyph-name="zdotaccent" unicode="&#x17c;" horiz-adv-x="1038" 
d="M612 1380q74 0 74 -69q-4 -70 -74 -70q-37 1 -56 19t-17 51q-1 69 73 69zM1042 1065l-16 -100l-879 -881l330 4h402l-19 -88h-880l18 98l879 883l-316 -4h-393l18 88h856z" />
    <glyph glyph-name="Zcaron" unicode="&#x17d;" horiz-adv-x="1255" 
d="M1087 1751l-262 -225h-112l-178 225h102l135 -172l201 172h114zM1313 1434l-15 -93l-1136 -1243l456 2h467l-18 -100h-1098l17 92l1140 1245l-446 -4h-449l21 101h1061z" />
    <glyph glyph-name="zcaron" unicode="&#x17e;" horiz-adv-x="1038" 
d="M954 1499l-274 -305h-115l-166 305h103l125 -246l217 246h110zM1042 1065l-16 -100l-879 -881l330 4h402l-19 -88h-880l18 98l879 883l-316 -4h-393l18 88h856z" />
    <glyph glyph-name="AEacute" unicode="&#x1fc;" horiz-adv-x="2095" 
d="M1692 1751l-181 -225h-92l156 225h117zM1053 1333l-607 -819h515l143 819h-51zM68 0h-152l1077 1434h1118l-20 -101h-854l-104 -585h739l-19 -101h-739l-94 -547h889l-21 -100h-1018l74 414h-571z" />
    <glyph glyph-name="aeacute" unicode="&#x1fd;" horiz-adv-x="1859" 
d="M1264 1497l-226 -303h-96l201 303h121zM414 80q117 0 217 51t160 150q-37 120 -19 254q-106 10 -256 10q-150 -1 -254 -61q-106 -60 -106 -191q0 -213 258 -213zM1389 983q-185 0 -317 -120t-167 -296q135 -16 242 -16q504 0 508 244q1 96 -71 142t-195 46zM1397 1079
q172 1 277 -67t104 -213q-2 -334 -619 -334q-135 0 -264 18v-20q-2 -191 100 -287t297 -96t344 82l25 -86q-158 -90 -399 -90q-311 0 -435 207q-65 -91 -181 -149t-272 -58t-249 76q-94 76 -94 212q1 136 71 214q129 142 441 141q129 0 248 -11q31 125 110 226
q-31 139 -280 139q-199 0 -383 -51l-2 92q205 55 421 55q272 0 342 -135q165 135 398 135z" />
    <glyph glyph-name="Oslashacute" unicode="&#x1fe;" horiz-adv-x="1683" 
d="M1128 1751l-180 -225h-92l156 225h116zM921 1346q-199 0 -347 -100q-286 -191 -298 -593q-8 -270 142 -420l833 1016q-132 97 -330 97zM805 90q299 0 468 200t178 482q9 280 -146 434l-836 -1018q135 -98 336 -98zM928 1450q233 -4 399 -111l133 164h90l-168 -205
q213 -180 205 -506t-194 -556q-92 -115 -245 -183t-347 -67q-240 0 -408 112l-137 -168h-88l172 209q-207 182 -199 504t195 555q92 116 244 184t348 68z" />
    <glyph glyph-name="oslashacute" unicode="&#x1ff;" horiz-adv-x="1280" 
d="M936 1497l-225 -303h-97l201 303h121zM586 80q202 0 322 142t123 342t-89 302l-592 -716q94 -70 236 -70zM655 985q-203 0 -323 -142q-120 -141 -122 -349q-3 -208 103 -314l594 721q-100 84 -252 84zM664 1079q186 0 315 -92l117 141l65 2l-145 -174q147 -136 142 -386
t-159 -417t-417 -167q-176 0 -301 80l-107 -129l-65 -3l133 160q-160 131 -156 392t158 427t420 166z" />
    <glyph glyph-name="Scommaaccent" unicode="&#x218;" horiz-adv-x="1232" 
d="M506 -88h94q-18 -91 -43 -151q-26 -60 -39 -95h-78q48 148 66 246zM704 1450q222 0 492 -115l-43 -106q-243 117 -439 117t-280 -77t-84 -190q0 -57 20 -97t69 -75q51 -35 97 -55t158 -64t180 -76q175 -83 213 -182q23 -57 23 -141q0 -190 -128 -298t-374 -107
q-317 0 -585 157l45 109q279 -162 546 -158q174 0 265 76q90 76 90 195t-77 175t-306 142q-157 63 -219 101q-63 38 -89 73q-66 87 -65 205q0 190 134 291q135 100 357 100z" />
    <glyph glyph-name="scommaaccent" unicode="&#x219;" horiz-adv-x="989" 
d="M367 -90h94q-16 -84 -43 -147q-26 -64 -39 -99h-78q48 148 66 246zM538 1079q173 0 377 -90l-36 -82q-187 80 -325 80t-207 -50t-68 -138q1 -55 33 -93t73 -56t122 -46q233 -78 272 -125q64 -78 65 -178q0 -155 -109 -235t-313 -80t-408 129l39 82q199 -121 387 -119
q129 2 202 54t73 146q1 94 -57 135q-58 40 -170 75t-153 51q-40 16 -89 48q-94 61 -93 201q1 139 106 216q106 75 279 75z" />
    <glyph glyph-name="circumflex" unicode="&#x2c6;" horiz-adv-x="641" 
d="M150 1157l274 305h115l166 -305h-103l-125 246l-217 -246h-110z" />
    <glyph glyph-name="caron" unicode="&#x2c7;" horiz-adv-x="620" 
d="M752 1462l-275 -305h-115l-165 305h102l125 -245l217 245h111z" />
    <glyph glyph-name="breve" unicode="&#x2d8;" horiz-adv-x="628" 
d="M433 1186q-220 0 -228 213l84 8q13 -147 153 -147t191 147l86 -8q-66 -213 -286 -213z" />
    <glyph glyph-name="dotaccent" unicode="&#x2d9;" horiz-adv-x="497" 
d="M369 1350q74 0 73 -70q-4 -70 -73 -70q-37 0 -57 18t-17 52q0 70 74 70z" />
    <glyph glyph-name="ring" unicode="&#x2da;" horiz-adv-x="501" 
d="M403 1454q-46 0 -80 -32t-36 -89q-3 -57 29 -85t78 -28t80 32t36 90t-30 84q-32 28 -77 28zM402 1513q82 0 134 -43q52 -44 51 -130t-57 -132t-138 -47q-83 0 -134 43t-49 130t56 133t137 46z" />
    <glyph glyph-name="ogonek" unicode="&#x2db;" horiz-adv-x="557" 
d="M127 -203q0 -74 74 -73q37 0 73 10l-2 -70q-43 -16 -102 -16q-133 0 -133 125q-1 87 65 159t158 117l21 -49q-154 -86 -154 -203z" />
    <glyph glyph-name="tilde" unicode="&#x2dc;" horiz-adv-x="694" 
d="M346 1300q-72 0 -121 -75l-43 24q70 135 187 135q45 0 127 -44t120 -44q70 0 121 76l43 -22q-66 -135 -186 -136q-51 0 -123 41q-90 45 -125 45z" />
    <glyph glyph-name="hungarumlaut" unicode="&#x2dd;" horiz-adv-x="661" 
d="M492 1460l-230 -303h-94l199 303h125zM764 1460l-229 -303h-95l199 303h125z" />
    <glyph glyph-name="Wgrave" unicode="&#x1e80;" horiz-adv-x="1982" 
d="M1141 1749l59 -223h-84l-86 223h111zM2048 1434l-666 -1434h-161l-127 1229l-562 -1229h-161l-164 1434h133l137 -1282l567 1261h156l123 -1251l578 1272h147z" />
    <glyph glyph-name="wgrave" unicode="&#x1e81;" horiz-adv-x="1656" 
d="M776 1489h113l69 -301h-88zM1665 1065l-528 -1065h-146l-127 895l-440 -895h-145l-152 1065h119l131 -930l461 930h110l129 -930l455 930h133z" />
    <glyph glyph-name="Wacute" unicode="&#x1e82;" horiz-adv-x="1982" 
d="M1350 1751l-181 -225h-92l156 225h117zM2048 1434l-666 -1434h-161l-127 1229l-562 -1229h-161l-164 1434h133l137 -1282l567 1261h156l123 -1251l578 1272h147z" />
    <glyph glyph-name="wacute" unicode="&#x1e83;" horiz-adv-x="1656" 
d="M1171 1497l-225 -303h-96l201 303h120zM1665 1065l-528 -1065h-146l-127 895l-440 -895h-145l-152 1065h119l131 -930l461 930h110l129 -930l455 930h133z" />
    <glyph glyph-name="Wdieresis" unicode="&#x1e84;" horiz-adv-x="1982" 
d="M1350 1579q-74 0 -70 68q0 67 74 67t69 -67q1 -68 -73 -68zM959 1714q73 0 73 -68t-74 -67q-74 0 -71 68q-1 67 72 67zM2048 1434l-666 -1434h-161l-127 1229l-562 -1229h-161l-164 1434h133l137 -1282l567 1261h156l123 -1251l578 1272h147z" />
    <glyph glyph-name="wdieresis" unicode="&#x1e85;" horiz-adv-x="1656" 
d="M1116 1380q74 0 74 -69q-4 -70 -77 -70t-71 70q0 69 74 69zM724 1380q75 0 75 -69q-4 -70 -78 -70q-35 1 -54 19t-18 51q0 69 75 69zM1665 1065l-528 -1065h-146l-127 895l-440 -895h-145l-152 1065h119l131 -930l461 930h110l129 -930l455 930h133z" />
    <glyph glyph-name="germandbls.case" unicode="&#x1e9e;" horiz-adv-x="1478" 
d="M1135 791q1 -55 33 -111t70 -92t71 -100t32 -144q-2 -186 -135 -284t-356 -99q-158 0 -387 74l24 100q191 -74 357 -74t267 73t101 212q0 60 -30 116t-69 93q-38 37 -69 96q-30 59 -30 111t6 96q6 43 32 97q27 55 57 98t52 74t88 112q-166 111 -384 111t-333 -116
t-147 -304l-164 -930h-129l164 928q42 242 194 382t396 142q145 0 296 -48t261 -132q-23 -31 -93 -119t-123 -172q-52 -84 -52 -190z" />
    <glyph glyph-name="Ygrave" unicode="&#x1ef2;" horiz-adv-x="1292" 
d="M776 1749l60 -223h-84l-86 223h110zM602 0h-129l100 578l-362 856h131l311 -750l576 750h141l-668 -863z" />
    <glyph glyph-name="ygrave" unicode="&#x1ef3;" horiz-adv-x="1124" 
d="M483 1489h113l70 -301h-88zM129 -356q-90 0 -192 26l20 94q69 -20 145 -20t136 46q59 46 120 155l29 51l-260 1069h129l217 -944l520 944h135l-643 -1147q-96 -168 -181 -221t-175 -53z" />
    <glyph glyph-name="endash" unicode="&#x2013;" horiz-adv-x="1466" 
d="M1303 602l-19 -96l-1147 -2l21 98h1145z" />
    <glyph glyph-name="emdash" unicode="&#x2014;" horiz-adv-x="1691" 
d="M1528 602l-21 -98h-1370l21 98h1370z" />
    <glyph glyph-name="quoteleft" unicode="&#x2018;" horiz-adv-x="493" 
d="M438 1106q0 -36 -24 -58t-64 -22t-66 34t-26 106t62 143q62 72 153 110l27 -37q-66 -31 -114 -86t-48 -125q0 -16 2 -24q18 18 43 18q55 0 55 -59z" />
    <glyph glyph-name="quoteright" unicode="&#x2019;" horiz-adv-x="491" 
d="M297 1333q1 37 25 57t64 21q40 0 66 -33t25 -88q0 -88 -62 -160t-153 -108l-26 35q66 31 114 86t47 125q0 18 -2 24q-16 -16 -43 -16q-55 0 -55 57z" />
    <glyph glyph-name="quotesinglbase" unicode="&#x201a;" horiz-adv-x="493" 
d="M162 143q40 1 66 -33t26 -106t-62 -144t-153 -108l-27 35q162 84 162 213q0 6 -4 23q-14 -18 -41 -19q-55 0 -55 59q0 37 23 59q24 21 65 21z" />
    <glyph glyph-name="quotedblleft" unicode="&#x201c;" horiz-adv-x="837" 
d="M438 1106q0 -36 -24 -58t-64 -22t-66 34t-26 106t62 143q62 72 153 110l27 -37q-66 -31 -114 -86t-48 -125q0 -16 2 -24q18 18 43 18q55 0 55 -59zM782 1106q0 -36 -24 -58t-64 -22t-66 34t-26 106t62 143q62 72 153 110l27 -37q-66 -31 -114 -86t-48 -125q0 -16 2 -24
q18 18 43 18q55 0 55 -59z" />
    <glyph glyph-name="quotedblright" unicode="&#x201d;" horiz-adv-x="837" 
d="M299 1333q1 37 25 57t64 21q40 0 66 -33t25 -88q0 -88 -62 -160t-153 -108l-26 35q66 31 114 86t47 125q0 18 -2 24q-16 -16 -43 -16q-55 0 -55 57zM643 1333q1 37 25 57t64 21q40 0 66 -33t25 -88q0 -88 -62 -160t-153 -108l-26 35q66 31 114 86t47 125q0 18 -2 24
q-16 -16 -43 -16q-55 0 -55 57z" />
    <glyph glyph-name="quotedblbase" unicode="&#x201e;" horiz-adv-x="835" 
d="M162 143q40 1 66 -33t26 -106t-62 -144t-153 -108l-27 35q63 31 113 87q49 56 49 126q0 6 -4 23q-14 -18 -41 -19q-55 0 -55 59q0 37 23 59q24 21 65 21zM504 143q40 1 66 -33t26 -106t-62 -144t-153 -108l-27 35q63 31 113 87q49 56 49 126q0 6 -4 23q-16 -18 -41 -19
q-55 0 -55 59q0 37 23 59q24 21 65 21z" />
    <glyph glyph-name="dagger" unicode="&#x2020;" horiz-adv-x="1038" 
d="M1026 1094l-16 -90l-281 16l12 57zM190 1094l281 -17l-12 -57l-285 -16zM725 1438l-266 -1438h-78l237 1438h107z" />
    <glyph glyph-name="daggerdbl" unicode="&#x2021;" horiz-adv-x="1038" 
d="M1028 1094l-16 -90l-281 16l10 57zM193 1094l278 -17l-10 -57l-285 -16zM926 528l-17 -92l-278 19l10 57zM92 528l281 -16l-11 -57l-286 -19zM725 1438l-266 -1438h-78l237 1438h107z" />
    <glyph glyph-name="bullet" unicode="&#x2022;" horiz-adv-x="757" 
d="M389 567q-69 0 -109 39t-37 108q3 68 47 106t111 38q68 0 109 -38t37 -108t-47 -107q-43 -38 -111 -38z" />
    <glyph glyph-name="ellipsis" unicode="&#x2026;" horiz-adv-x="1243" 
d="M926 137q36 0 58 -19t17 -50q-6 -78 -79 -78q-35 0 -56 18q-20 18 -18 53q6 76 78 76zM530 137q37 0 59 -19t17 -50q-6 -78 -80 -78q-35 0 -55 18t-18 53q5 76 77 76zM143 137q37 0 59 -19t17 -50q-6 -78 -80 -78q-35 0 -55 18t-18 53q5 76 77 76z" />
    <glyph glyph-name="perthousand" unicode="&#x2030;" horiz-adv-x="2463" 
d="M534 1372q-104 0 -176 -85t-72 -206t56 -178q55 -57 160 -57q104 0 174 84t69 217q-1 225 -211 225zM557 1454q133 0 208 -79t75 -239t-98 -266t-267 -106q-133 0 -210 79t-77 216q0 179 100 287t269 108zM2050 676q131 0 207 -79t76 -239q1 -160 -97 -266t-268 -106
q-133 0 -210 78t-77 215q-1 181 99 289t270 108zM2024 594q-104 0 -177 -85q-71 -85 -71 -205t55 -178t159 -58t175 83q69 83 69 204t-53 180t-157 59zM1264 676q130 0 206 -79t76 -239t-97 -266t-267 -106q-133 0 -210 78t-77 215q-1 181 99 289t270 108zM993 304
q-1 -236 215 -236q104 0 174 83t70 204q0 239 -212 239q-104 0 -176 -85t-71 -205zM1454 1438l-1079 -1438h-105l1082 1438h102z" />
    <glyph glyph-name="guilsinglleft" unicode="&#x2039;" horiz-adv-x="714" 
d="M649 942l-422 -418l271 -411l-78 -58l-328 463l6 29l492 463z" />
    <glyph glyph-name="guilsinglright" unicode="&#x203a;" horiz-adv-x="712" 
d="M31 123l422 416l-269 413l78 58l326 -463l-4 -29l-492 -463z" />
    <glyph glyph-name="fraction" unicode="&#x2044;" horiz-adv-x="862" 
d="M963 1438l-918 -1438h-104l911 1438h111z" />
    <glyph glyph-name="Euro" unicode="&#x20ac;" horiz-adv-x="1644" 
d="M990 92q214 0 362 70l-6 -109q-170 -68 -375 -67q-274 0 -447 157q-172 158 -202 412h-158l26 61h125v41q0 80 13 154h-158l33 61h139q66 256 272 417q207 161 506 161q244 0 418 -100l-43 -90q-176 86 -367 86q-246 0 -416 -132t-229 -342h731l-28 -61h-717
q-12 -70 -12 -147v-48h639l-27 -61h-604q31 -211 171 -337t354 -126z" />
    <glyph glyph-name="trademark" unicode="&#x2122;" horiz-adv-x="1568" 
d="M791 1434l-13 -68h-219l-100 -557h-70l100 557h-219l13 68h508zM1554 1434l-110 -625h-70l86 489l-266 -368h-49l-150 368l-88 -489h-69l110 625h68l166 -422l303 422h69z" />
    <glyph glyph-name="commaaccentcomb" unicode="&#xf6c3;" horiz-adv-x="0" 
d="M-422 -92h94q-18 -91 -43 -151q-26 -60 -39 -95h-77q47 148 65 246z" />
    <glyph glyph-name="apple" unicode="&#xf8ff;" horiz-adv-x="2897" 
d="M1183 670q-30 0 -30 -41h51q9 41 -21 41zM1803 672q-30 0 -29 -41h51q8 41 -22 41zM2422 668q-20 0 -20 -54t20 -53q20 -1 19 53q0 54 -19 54zM2116 655q-14 0 -29 -14v-76q14 -10 24 -10q31 0 31 50t-26 50zM870 655q-14 0 -28 -14v-76q14 -10 24 -10q31 0 31 50t-27 50
zM1483 659q-35 0 -35 -52t25 -52q16 0 30 14v84q-12 6 -20 6zM297 819v-90h59v-76h-59v-39q0 -47 63 -30l2 -76q-36 -16 -88 -16t-78 24t-26 82v55h-47v76h47l16 90h111zM2748 819v-90h58v-76h-58v-39q0 -47 62 -30l2 -76q-37 -16 -89 -16t-78 24t-26 82v55h-45v76h45l17 90
h112zM1802 739q125 0 125 -94q0 -35 -2 -53h-149q6 -35 55 -35t86 10v-59q-55 -20 -109 -21q-150 0 -149 125q0 127 143 127zM1173 737q134 0 134 -94q0 -35 -2 -53h-150q6 -35 57 -35t84 10v-59q-51 -20 -108 -21q-150 0 -150 125q1 127 135 127zM2421 737h2
q139 0 139 -126t-137 -126h-4q-72 0 -105 31q-32 30 -32 96t32 96q33 29 105 29zM2161 737q98 0 98 -126t-102 -126q-41 0 -68 23v-123h-131v344h108l9 -27q39 35 86 35zM916 737q98 0 98 -126t-103 -126q-41 0 -67 23v-123h-131v344h108l8 -27q40 35 87 35zM1632 838v-344
h-119l-6 22q-37 -31 -75 -31q-100 0 -100 126t104 126q33 0 65 -20v121h131zM678 729v-221q0 -70 -34 -102t-114 -31q-80 0 -122 24l12 66q41 -14 86 -14t45 32v21q-31 -18 -66 -19q-92 0 -92 101v143h129v-164q0 -25 29 -12v176h127z" />
    <glyph glyph-name="f_i" unicode="&#xfb01;" horiz-adv-x="1124" 
d="M707 1513q170 0 303 -94l-43 -78q-31 25 -101 53t-155 27q-238 0 -285 -258l-18 -98h626l-188 -1065h-125l172 977h-500l-211 -1202h-125l211 1202h-145l16 88h146l16 92q29 162 132 259q104 97 274 97z" />
    <glyph glyph-name="f_l" unicode="&#xfb02;" horiz-adv-x="1157" 
d="M956 84q56 0 76 4l-14 -92q-57 -10 -137 -10t-115 40t-16 142l163 922q10 57 11 104q0 115 -60 169t-164 54q-229 0 -278 -282l-12 -70h286l-16 -88h-287l-213 -1202h-125l213 1202h-141l16 88h142l10 61q31 174 133 280t268 107q166 -1 258 -81t93 -240q-1 -49 -15 -135
l-155 -883q-10 -54 7 -72q16 -18 72 -18z" />
    <glyph glyph-name="J.alt" horiz-adv-x="638" 
d="M590 1434l-234 -1334q-29 -160 -134 -248t-257 -141l-33 90q137 55 199 119q80 78 98 193l213 1220h-125l17 101h256z" />
    <glyph glyph-name="Jcircumflex.alt" horiz-adv-x="638" 
d="M213 1526l262 225h113l178 -225h-102l-136 172l-200 -172h-115zM590 1434l-234 -1334q-29 -160 -134 -248t-257 -141l-33 90q137 55 199 119q80 78 98 193l213 1220h-125l17 101h256z" />
    <glyph glyph-name="a.alt" horiz-adv-x="1185" 
d="M408 80q160 0 284 87t150 222l24 135q-143 20 -305 21q-406 0 -405 -256q0 -109 70 -159t182 -50zM662 1079q217 0 307 -85t53 -292l-96 -542q-11 -54 22 -65q12 -3 36 -3t60 6l-12 -86q-56 -18 -118 -18t-96 36t-23 93l8 45q-156 -182 -426 -182q-164 0 -255 74t-91 223
q0 346 536 346q123 0 314 -19l18 101q29 156 -39 215t-253 59t-369 -51l-2 90q209 55 426 55z" />
    <glyph glyph-name="aacute.alt" horiz-adv-x="1185" 
d="M897 1497l-225 -303h-97l201 303h121zM408 80q160 0 284 87t150 222l24 135q-143 20 -305 21q-406 0 -405 -256q0 -109 70 -159t182 -50zM662 1079q217 0 307 -85t53 -292l-96 -542q-11 -54 22 -65q12 -3 36 -3t60 6l-12 -86q-56 -18 -118 -18t-96 36t-23 93l8 45
q-156 -182 -426 -182q-164 0 -255 74t-91 223q0 346 536 346q123 0 314 -19l18 101q29 156 -39 215t-253 59t-369 -51l-2 90q209 55 426 55z" />
    <glyph glyph-name="abreve.alt" horiz-adv-x="1185" 
d="M716 1217q-220 0 -229 213l84 8q13 -147 153 -147t191 147l86 -8q-65 -213 -285 -213zM408 80q160 0 284 87t150 222l24 135q-143 20 -305 21q-406 0 -405 -256q0 -109 70 -159t182 -50zM662 1079q217 0 307 -85t53 -292l-96 -542q-11 -54 22 -65q12 -3 36 -3t60 6
l-12 -86q-56 -18 -118 -18t-96 36t-23 93l8 45q-156 -182 -426 -182q-164 0 -255 74t-91 223q0 346 536 346q123 0 314 -19l18 101q29 156 -39 215t-253 59t-369 -51l-2 90q209 55 426 55z" />
    <glyph glyph-name="acircumflex.alt" horiz-adv-x="1185" 
d="M401 1188l275 305h115l165 -305h-102l-125 246l-217 -246h-111zM408 80q160 0 284 87t150 222l24 135q-143 20 -305 21q-406 0 -405 -256q0 -109 70 -159t182 -50zM662 1079q217 0 307 -85t53 -292l-96 -542q-11 -54 22 -65q12 -3 36 -3t60 6l-12 -86q-56 -18 -118 -18
t-96 36t-23 93l8 45q-156 -182 -426 -182q-164 0 -255 74t-91 223q0 346 536 346q123 0 314 -19l18 101q29 156 -39 215t-253 59t-369 -51l-2 90q209 55 426 55z" />
    <glyph glyph-name="adieresis.alt" horiz-adv-x="1185" 
d="M854 1380q74 0 74 -69q-4 -70 -77 -70t-71 70q0 69 74 69zM462 1380q75 0 75 -69q-4 -70 -78 -70q-35 1 -55 19t-17 51q0 69 75 69zM408 80q160 0 284 87t150 222l24 135q-143 20 -305 21q-406 0 -405 -256q0 -109 70 -159t182 -50zM662 1079q217 0 307 -85t53 -292
l-96 -542q-11 -54 22 -65q12 -3 36 -3t60 6l-12 -86q-56 -18 -118 -18t-96 36t-23 93l8 45q-156 -182 -426 -182q-164 0 -255 74t-91 223q0 346 536 346q123 0 314 -19l18 101q29 156 -39 215t-253 59t-369 -51l-2 90q209 55 426 55z" />
    <glyph glyph-name="agrave.alt" horiz-adv-x="1185" 
d="M520 1489h113l69 -301h-88zM408 80q160 0 284 87t150 222l24 135q-143 20 -305 21q-406 0 -405 -256q0 -109 70 -159t182 -50zM662 1079q217 0 307 -85t53 -292l-96 -542q-11 -54 22 -65q12 -3 36 -3t60 6l-12 -86q-56 -18 -118 -18t-96 36t-23 93l8 45
q-156 -182 -426 -182q-164 0 -255 74t-91 223q0 346 536 346q123 0 314 -19l18 101q29 156 -39 215t-253 59t-369 -51l-2 90q209 55 426 55z" />
    <glyph glyph-name="amacron.alt" horiz-adv-x="1185" 
d="M1040 1364l-14 -76h-600l14 76h600zM408 80q160 0 284 87t150 222l24 135q-143 20 -305 21q-406 0 -405 -256q0 -109 70 -159t182 -50zM662 1079q217 0 307 -85t53 -292l-96 -542q-11 -54 22 -65q12 -3 36 -3t60 6l-12 -86q-56 -18 -118 -18t-96 36t-23 93l8 45
q-156 -182 -426 -182q-164 0 -255 74t-91 223q0 346 536 346q123 0 314 -19l18 101q29 156 -39 215t-253 59t-369 -51l-2 90q209 55 426 55z" />
    <glyph glyph-name="aogonek.alt" horiz-adv-x="1185" 
d="M408 80q160 0 284 87t150 222l24 135q-143 20 -305 21q-406 0 -405 -256q0 -109 70 -159t182 -50zM377 -14q-164 0 -255 74t-91 223q0 346 536 346q123 0 314 -19l18 101q29 156 -39 215t-253 59t-369 -51l-2 90q209 55 426 55t307 -85t53 -292l-96 -542q-11 -54 22 -65
q12 -3 36 -3t60 6l-12 -86q-36 -12 -74 -16q-147 -85 -147 -199q0 -74 74 -73q37 0 73 10l-2 -70q-43 -16 -102 -16q-133 0 -133 125q0 131 143 229q-86 27 -69 121l8 45q-156 -182 -426 -182z" />
    <glyph glyph-name="aring.alt" horiz-adv-x="1185" 
d="M751 1485q-46 0 -80 -32t-36 -89t30 -85q31 -28 77 -28t80 32t36 89t-30 85t-77 28zM751 1544q83 0 134 -43t50 -130t-56 -133t-139 -46t-134 43q-51 43 -49 130t56 133q55 46 138 46zM408 80q160 0 284 87t150 222l24 135q-143 20 -305 21q-406 0 -405 -256
q0 -109 70 -159t182 -50zM662 1079q217 0 307 -85t53 -292l-96 -542q-11 -54 22 -65q12 -3 36 -3t60 6l-12 -86q-56 -18 -118 -18t-96 36t-23 93l8 45q-156 -182 -426 -182q-164 0 -255 74t-91 223q0 346 536 346q123 0 314 -19l18 101q29 156 -39 215t-253 59t-369 -51
l-2 90q209 55 426 55z" />
    <glyph glyph-name="atilde.alt" horiz-adv-x="1185" 
d="M844 1245q-51 0 -123 41q-90 45 -125 45q-72 0 -121 -76l-43 25q70 135 186 135q46 0 128 -44t120 -44q70 0 121 76l43 -23q-66 -135 -186 -135zM408 80q160 0 284 87t150 222l24 135q-143 20 -305 21q-406 0 -405 -256q0 -109 70 -159t182 -50zM662 1079q217 0 307 -85
t53 -292l-96 -542q-11 -54 22 -65q12 -3 36 -3t60 6l-12 -86q-56 -18 -118 -18t-96 36t-23 93l8 45q-156 -182 -426 -182q-164 0 -255 74t-91 223q0 346 536 346q123 0 314 -19l18 101q29 156 -39 215t-253 59t-369 -51l-2 90q209 55 426 55z" />
    <glyph glyph-name="e.alt" horiz-adv-x="1220" 
d="M989 643q-1 156 -83 249t-247 93t-287 -113t-151 -297h762q6 33 6 68zM655 1079q219 0 333 -123t114 -329q0 -88 -19 -140h-868q-2 -181 96 -293t299 -113t377 103l14 -90q-175 -108 -407 -108t-371 132t-132 392t175 415q169 154 389 154z" />
    <glyph glyph-name="eacute.alt" horiz-adv-x="1220" 
d="M926 1497l-226 -303h-96l201 303h121zM989 643q-1 156 -83 249t-247 93t-287 -113t-151 -297h762q6 33 6 68zM655 1079q219 0 333 -123t114 -329q0 -88 -19 -140h-868q-2 -181 96 -293t299 -113t377 103l14 -90q-175 -108 -407 -108t-371 132t-132 392t175 415
q169 154 389 154z" />
    <glyph glyph-name="ebreve.alt" horiz-adv-x="1220" 
d="M716 1217q-220 0 -229 213l84 8q13 -147 153 -147t191 147l86 -8q-65 -213 -285 -213zM989 643q-1 156 -83 249t-247 93t-287 -113t-151 -297h762q6 33 6 68zM655 1079q219 0 333 -123t114 -329q0 -88 -19 -140h-868q-2 -181 96 -293t299 -113t377 103l14 -90
q-175 -108 -407 -108t-371 132t-132 392t175 415q169 154 389 154z" />
    <glyph glyph-name="ecaron.alt" horiz-adv-x="1220" 
d="M1026 1493l-274 -305h-115l-166 305h102l125 -246l217 246h111zM989 643q-1 156 -83 249t-247 93t-287 -113t-151 -297h762q6 33 6 68zM655 1079q219 0 333 -123t114 -329q0 -88 -19 -140h-868q-2 -181 96 -293t299 -113t377 103l14 -90q-175 -108 -407 -108t-371 132
t-132 392t175 415q169 154 389 154z" />
    <glyph glyph-name="ecircumflex.alt" horiz-adv-x="1220" 
d="M416 1188l274 305h115l166 -305h-103l-125 246l-217 -246h-110zM989 643q-1 156 -83 249t-247 93t-287 -113t-151 -297h762q6 33 6 68zM655 1079q219 0 333 -123t114 -329q0 -88 -19 -140h-868q-2 -181 96 -293t299 -113t377 103l14 -90q-175 -108 -407 -108t-371 132
t-132 392t175 415q169 154 389 154z" />
    <glyph glyph-name="edieresis.alt" horiz-adv-x="1220" 
d="M887 1380q74 0 74 -69q-4 -70 -74 -70q-37 1 -57 19t-17 51q0 69 74 69zM495 1380q75 0 74 -69q-4 -70 -77 -70q-34 1 -54 19t-18 51q0 69 75 69zM989 643q-1 156 -83 249t-247 93t-287 -113t-151 -297h762q6 33 6 68zM655 1079q219 0 333 -123t114 -329q0 -88 -19 -140
h-868q-2 -181 96 -293t299 -113t377 103l14 -90q-175 -108 -407 -108t-371 132t-132 392t175 415q169 154 389 154z" />
    <glyph glyph-name="edotaccent.alt" horiz-adv-x="1220" 
d="M711 1380q74 0 73 -69q-4 -70 -73 -70q-37 1 -57 19t-17 51q0 69 74 69zM989 643q-1 156 -83 249t-247 93t-287 -113t-151 -297h762q6 33 6 68zM655 1079q219 0 333 -123t114 -329q0 -88 -19 -140h-868q-2 -181 96 -293t299 -113t377 103l14 -90q-175 -108 -407 -108
t-371 132t-132 392t175 415q169 154 389 154z" />
    <glyph glyph-name="egrave.alt" horiz-adv-x="1220" 
d="M549 1489h113l69 -301h-88zM989 643q-1 156 -83 249t-247 93t-287 -113t-151 -297h762q6 33 6 68zM655 1079q219 0 333 -123t114 -329q0 -88 -19 -140h-868q-2 -181 96 -293t299 -113t377 103l14 -90q-175 -108 -407 -108t-371 132t-132 392t175 415q169 154 389 154z
" />
    <glyph glyph-name="emacron.alt" horiz-adv-x="1220" 
d="M1018 1364l-14 -76h-601l15 76h600zM989 643q-1 156 -83 249t-247 93t-287 -113t-151 -297h762q6 33 6 68zM655 1079q219 0 333 -123t114 -329q0 -88 -19 -140h-868q-2 -181 96 -293t299 -113t377 103l14 -90q-175 -108 -407 -108t-371 132t-132 392t175 415
q169 154 389 154z" />
    <glyph glyph-name="eogonek.alt" horiz-adv-x="1220" 
d="M989 643q-1 156 -83 249t-247 93t-287 -113t-151 -297h762q6 33 6 68zM655 1079q219 0 333 -123t114 -329q0 -88 -19 -140h-868q-2 -181 96 -293t299 -113t377 103l14 -90q-63 -41 -170 -74q-150 -86 -149 -223q0 -74 74 -73q37 0 73 10l-2 -70q-43 -16 -102 -16
q-133 0 -133 125q0 119 113 221q-66 -8 -99 -8q-244 0 -383 132t-132 392t175 415q169 154 389 154z" />
    <glyph glyph-name="j.alt" horiz-adv-x="477" 
d="M395 1405q39 -1 61 -21t17 -51q0 -72 -78 -71q-39 0 -59 19t-19 50q4 74 78 74zM428 1065l-188 -1071q-27 -144 -147 -238q-53 -42 -112 -73q-59 -32 -61 -31l-29 84q193 84 220 241l178 1000h-139l16 88h262z" />
    <glyph glyph-name="jcircumflex.alt" horiz-adv-x="477" 
d="M41 1157l274 305h115l166 -305h-102l-125 246l-217 -246h-111zM428 1065l-188 -1071q-27 -144 -147 -238q-53 -42 -112 -73q-59 -32 -61 -31l-29 84q193 84 220 241l178 1000h-139l16 88h262z" />
    <glyph glyph-name="f_b" horiz-adv-x="1961" 
d="M1298 80q209 0 318 150q108 150 108 340q0 189 -97 301t-271 112q-205 0 -314 -152q-108 -152 -108 -338q0 -185 98 -299t266 -114zM1395 1079q213 0 334 -136t120 -365q0 -336 -232 -503q-124 -89 -292 -89t-283 80t-155 217l-56 -283h-114l192 1090q14 78 15 106
q0 113 -60 167t-164 54q-231 0 -280 -280l-17 -72h277l-16 -88h-275l-211 -1202h-125l211 1202h-141l16 88h142l12 65q68 383 414 383q151 1 245 -79t95 -238q0 -55 -17 -131l-29 -156q140 170 394 170z" />
    <glyph glyph-name="f_f_b" horiz-adv-x="2537" 
d="M1874 80q210 0 318 150t108 340q0 189 -97 301t-287 112t-298 -152t-109 -338q1 -185 99 -299t266 -114zM1970 1079q213 0 334 -136t121 -365q0 -337 -233 -503q-124 -89 -292 -89t-282 80t-156 217l-55 -283h-115l195 1104q12 63 12 102q0 222 -226 224q-109 0 -181 -74
t-99 -207l-16 -84h274l-16 -88h-274l-209 -1202h-125l209 1202h-443l-213 -1202h-125l213 1202h-145l16 88h146l26 149q25 144 99 222t225 77q70 0 182 -26l-24 -92q-72 23 -158 23t-134 -48q-48 -47 -67 -156l-26 -149h444l16 86q31 166 131 269q99 104 265 104t263 -78
t97 -232q0 -41 -14 -122l-33 -183q139 170 393 170z" />
    <glyph glyph-name="f_f_h" horiz-adv-x="2469" 
d="M1968 1079q195 0 281 -101t86 -255q0 -53 -13 -139l-104 -584h-125l102 584q12 76 13 131q0 125 -66 197t-203 71q-174 0 -278 -115t-141 -311l-99 -557h-125l195 1104q12 63 12 102q0 113 -59 168t-160 56q-236 0 -289 -281l-16 -84h276l-16 -88h-274l-211 -1202h-125
l211 1202h-443l-213 -1202h-125l213 1202h-145l16 88h146l26 149q25 144 100 222t224 77q76 0 182 -26l-24 -92q-72 23 -154 22q-170 0 -205 -203l-26 -149h444l16 86q32 168 132 270q100 103 265 103t262 -78t97 -232q0 -41 -14 -122l-33 -191q135 178 387 178z" />
    <glyph glyph-name="f_f_k" horiz-adv-x="2287" 
d="M1501 1204q0 223 -226 223q-107 1 -183 -73t-99 -205l-14 -84h276l-16 -88h-276l-211 -1202h-127l213 1202h-441l-213 -1202h-125l213 1202h-145l16 88h146l26 149q25 144 100 222t224 77q76 0 182 -26l-24 -92q-72 23 -154 22q-170 0 -205 -203l-26 -149h442l14 86
q29 166 130 269q100 104 268 104t265 -78t97 -232q0 -45 -16 -124l-107 -603l682 578h144l-473 -401l303 -664h-131l-265 584l-286 -244l-60 -340h-125l197 1102q10 66 10 102z" />
    <glyph glyph-name="f_h" horiz-adv-x="1890" 
d="M1389 1079q193 0 279 -101t85 -259q0 -49 -12 -135l-105 -584h-125l103 584q12 76 12 116q0 129 -66 206t-222 77t-260 -117t-140 -309l-98 -557h-125l194 1090q14 80 15 104q0 115 -62 169t-172 54q-108 0 -180 -74t-94 -206l-13 -72h289l-16 -88h-287l-207 -1202h-125
l207 1202h-141l16 88h142l10 65q31 172 133 278t268 105t260 -81q92 -80 92 -240q0 -37 -16 -135l-29 -154q138 176 390 176z" />
    <glyph glyph-name="f_k" horiz-adv-x="1716" 
d="M700 1417q-233 0 -280 -280l-12 -72h286l-16 -88h-287l-211 -1202h-125l211 1202h-143l16 88h144l12 65q31 170 130 276t265 107q166 -1 260 -81t94 -242q0 -49 -16 -133l-98 -570l682 578h143l-473 -401l303 -664h-131l-264 584l-287 -244l-59 -340h-125l192 1090
q12 68 13 104q0 115 -62 169t-162 54z" />
    <glyph glyph-name="zero.tnum" 
d="M823 1343q-131 0 -232 -61q-101 -62 -161 -168q-120 -212 -133 -504q-9 -240 99 -380t296 -140q365 0 487 463q32 125 40 270q10 233 -98 377t-298 143zM827 1450q243 0 389 -159t135 -481t-165 -563q-78 -122 -206 -193t-294 -70q-242 0 -387 158t-134 479
q11 322 163 566q76 123 204 193t295 70z" />
    <glyph glyph-name="one.tnum" 
d="M942 1438l-235 -1344h403l-16 -94h-951l19 94h416l213 1217l-385 -125l-35 90l469 162h102z" />
    <glyph glyph-name="two.tnum" 
d="M834 1458q188 0 303 -99t114 -288q0 -153 -88 -281t-291 -274l-575 -412h809l-19 -104h-991l17 98l688 500q167 127 241 230q74 104 74 238t-86 209t-229 75q-193 0 -424 -111l-25 102q222 117 482 117z" />
    <glyph glyph-name="three.tnum" 
d="M817 1458q180 0 297 -89t117 -241t-95 -245q-95 -94 -262 -119q140 -33 216 -127t75 -234q1 -199 -149 -311t-412 -112t-450 108l36 96q178 -98 396 -98t330 89q114 89 114 250t-110 230q-110 68 -240 68h-160l19 90h159q160 0 281 71t121 218q0 119 -87 182
q-87 64 -241 64t-352 -78l-23 94q86 42 204 68t216 26z" />
    <glyph glyph-name="four.tnum" 
d="M1073 1268l-813 -815h672zM1229 1438l-172 -985h194l-16 -99h-195l-65 -354h-125l63 354h-815l15 92l993 992h123z" />
    <glyph glyph-name="five.tnum" 
d="M779 881q193 0 307 -112t114 -310q0 -233 -158 -359t-416 -125q-258 0 -474 127l51 88q193 -110 405 -110t336 96t123 268q0 172 -93 256q-93 86 -250 86t-325 -104l-77 53l172 699h778l-19 -105h-682l-129 -532q145 84 337 84z" />
    <glyph glyph-name="six.tnum" 
d="M762 795q-111 0 -198 -37q-152 -65 -209 -217q-24 -63 -23 -125q2 -150 104 -242t260 -92t278 73q66 37 108 111t51 174q9 174 -95 264t-276 91zM958 1450q215 0 400 -94l-49 -94q-162 84 -361 84q-254 0 -422 -197q-154 -178 -196 -449l-6 -34q66 106 192 165t289 60
q213 0 344 -116q131 -117 119 -329t-164 -337t-392 -125t-366 116q-127 116 -145 314q-27 205 42 434t210 383q204 219 505 219z" />
    <glyph glyph-name="seven.tnum" 
d="M1409 1434l-18 -97l-922 -1337h-154l926 1325h-924l19 109h1073z" />
    <glyph glyph-name="eight.tnum" 
d="M819 1356q-160 0 -263 -80q-102 -80 -108 -205t83 -191t254 -65q165 0 264 69q98 70 103 194t-84 201t-249 77zM724 700q-192 0 -312 -84t-125 -227t103 -229t295 -86t306 89t125 234t-96 225q-104 78 -296 78zM822 1456q216 0 340 -102t118 -252q-12 -290 -342 -348
q154 -31 239 -128t74 -229q-8 -195 -164 -307q-155 -112 -405 -113q-250 0 -393 110t-137 294q6 150 113 255q108 105 296 134q-123 31 -185 113t-57 194q7 171 147 275t356 104z" />
    <glyph glyph-name="nine.tnum" 
d="M737 639q215 0 324 120q109 121 107 265t-105 236q-102 92 -259 92t-279 -73q-65 -38 -107 -112t-51 -174q-10 -174 94 -264t276 -90zM543 -16q-215 0 -400 94l47 94q164 -84 361 -84q264 0 426 197q145 166 194 448q0 8 5 25q-139 -215 -484 -215q-211 -1 -342 115
t-119 329t164 338t393 125q242 0 368 -117t144 -313q28 -205 -40 -435t-211 -382q-193 -219 -506 -219z" />
    <glyph glyph-name="exclamdown.case" horiz-adv-x="495" 
d="M385 1456q84 0 80 -74q-2 -34 -24 -56q-21 -22 -59 -22t-58 21q-20 20 -19 53q1 34 21 56t59 22zM389 1071l-174 -1075h-135l205 1075h104z" />
    <glyph glyph-name="questiondown.case" horiz-adv-x="950" 
d="M657 1305q-79 0 -75 75q0 33 20 55t60 21q83 0 77 -74q-1 -35 -23 -56t-59 -21zM150 301q0 -215 296 -215q140 0 310 92l30 -88q-180 -102 -360 -102t-285 75q-104 76 -104 228q0 100 46 175t115 123q70 48 140 92q176 110 205 251q6 31 14 87t10 62h101
q-16 -111 -30 -183t-72 -140q-58 -70 -127 -116t-135 -91q-154 -104 -154 -250z" />
    <glyph glyph-name="braceleft.case" horiz-adv-x="669" 
d="M674 1483q-184 0 -215 -178l-84 -490q-23 -131 -158 -147q125 -18 98 -179l-79 -460q-16 -92 18 -134t133 -42h57l-16 -95h-63q-156 0 -206 69t-28 204l82 461q20 137 -94 137h-27l14 80h17q127 0 149 112l86 496q25 133 94 196t212 64h86l-17 -94h-59z" />
    <glyph glyph-name="braceright.case" horiz-adv-x="667" 
d="M330 1577q156 0 205 -68t26 -204l-80 -461q-20 -139 97 -139h24l-14 -78h-15q-133 0 -149 -113l-88 -496q-26 -133 -94 -196t-211 -64h-86l16 95h59q184 0 216 176l83 491q23 131 158 148q-125 18 -98 178l80 461q16 90 -19 133t-133 43h-59l18 94h64z" />
    <glyph glyph-name="bracketleft.case" horiz-adv-x="600" 
d="M668 1577l-15 -96h-209l-288 -1631h209l-17 -98h-311l319 1825h312z" />
    <glyph glyph-name="bracketright.case" horiz-adv-x="600" 
d="M586 1577l-320 -1825h-311l16 96h207l289 1631h-207l14 98h312z" />
    <glyph glyph-name="parenleft.case" horiz-adv-x="714" 
d="M688 1661h135q-580 -471 -579 -1141q0 -242 72 -426t180 -297h-131q-100 100 -177 298q-76 198 -76 417q0 220 57 406q91 303 332 570q91 101 187 173z" />
    <glyph glyph-name="parenright.case" horiz-adv-x="706" 
d="M225 1661h133q100 -102 176 -300t74 -417q-1 -419 -204 -733q-172 -266 -369 -414h-137q582 465 581 1141q0 240 -73 424q-75 184 -181 299z" />
    <glyph glyph-name="emdash.case" horiz-adv-x="1683" 
d="M1556 764l-20 -98h-1370l20 98h1370z" />
    <glyph glyph-name="endash.case" horiz-adv-x="1474" 
d="M1343 764l-18 -98h-1147l21 98h1144z" />
    <glyph glyph-name="hyphen.case" horiz-adv-x="1040" 
d="M911 764l-20 -98h-725l20 98h725z" />
    <glyph glyph-name="hyphen.tnum" 
d="M1163 756l-20 -99h-807l20 99h807z" />
    <glyph glyph-name="guillemotleft.case" horiz-adv-x="1169" 
d="M612 1135l60 -68l-422 -418l270 -411l-78 -58l-327 463l6 31zM1055 1135l59 -68l-422 -420l271 -409l-78 -58l-328 463l6 31z" />
    <glyph glyph-name="guillemotright.case" horiz-adv-x="1177" 
d="M68 248l421 416l-268 415l78 56l326 -463l-4 -29l-492 -463zM510 248l422 416l-268 415l77 56l326 -463l-4 -29l-492 -463z" />
    <glyph glyph-name="guilsinglleft.case" horiz-adv-x="724" 
d="M670 1067l-422 -418l270 -411l-78 -58l-327 463l6 31l491 461z" />
    <glyph glyph-name="guilsinglright.case" horiz-adv-x="692" 
d="M53 248l422 416l-268 415l78 56l325 -463l-4 -29l-491 -463z" />
    <glyph glyph-name="cent.tnum" 
d="M918 1153q-228 0 -362 -146t-134 -344q0 -199 112 -305t288 -106t304 80l31 -82q-147 -94 -342 -94q-33 0 -49 2l-33 -191h-76l37 201q-178 33 -288 155t-111 326q0 250 162 420t428 180l30 181h76l-30 -183q156 -10 282 -80l-39 -86q-127 72 -286 72z" />
    <glyph glyph-name="dollar.tnum" 
d="M465 1084q0 -108 81 -175q81 -68 322 -156q23 -9 77 -36q55 -27 75 -43q87 -68 106 -111q39 -86 39 -168q0 -176 -126 -294t-380 -119l-28 -164h-80l31 166q-227 18 -430 145l41 98q254 -145 477 -139q182 2 270 85t88 204q0 63 -20 108q-31 71 -148 126q-116 55 -220 92
t-209 118t-104 248q1 168 127 276t371 107h4l31 174h74l-31 -178q197 -16 389 -131l-45 -103q-225 132 -421 132t-278 -77q-83 -77 -83 -185z" />
    <glyph glyph-name="Euro.tnum" 
d="M900 92q214 0 362 70l-7 -109q-170 -68 -374 -67q-274 0 -447 157q-172 158 -203 412h-157l26 61h125v41q0 80 13 154h-158l33 61h139q66 256 272 417q207 161 506 161q244 0 418 -100l-43 -90q-176 86 -367 86q-246 0 -416 -132t-229 -342h731l-28 -61h-717
q-12 -72 -12 -147v-48h639l-27 -61h-604q31 -211 171 -337t354 -126z" />
    <glyph glyph-name="sterling.tnum" 
d="M557 528q0 -305 -209 -434h793l-17 -94h-983l15 90q35 7 88 40q53 34 89 77t65 126q30 83 30 163t-10 155h-158l12 66h136q-14 106 -15 221q0 252 138 382q137 130 365 130t400 -107l-51 -88q-168 95 -345 95t-277 -106t-101 -304q0 -117 15 -223h538l-12 -66h-516
q10 -68 10 -123z" />
    <glyph glyph-name="yen.tnum" 
d="M1440 1434l-664 -850l-12 -72h270l-12 -61h-270l-21 -121h270l-12 -62h-268l-47 -268h-133l49 268h-271l11 62h270l21 121h-271l12 61h269l12 72l-360 850h131l311 -734l567 734h148z" />
    <glyph glyph-name="divide.tnum" 
d="M786 940q-72 0 -69 66q0 33 19 55q20 22 55 22t54 -19t17 -50q-4 -74 -76 -74zM668 389q75 0 71 -72t-77 -71q-31 0 -51 17q-19 17 -17 50q0 33 19 55q20 21 55 21zM1176 700l-17 -84h-885l15 84h887z" />
    <glyph glyph-name="equal.tnum" horiz-adv-x="1423" 
d="M1081 541l-16 -88h-764l16 88h764zM1139 881l-17 -88h-762l17 88h762z" />
    <glyph glyph-name="multiply.tnum" 
d="M481 1079l273 -334l393 336l55 -65l-393 -336l272 -332l-75 -65l-273 331l-391 -331l-53 65l389 334l-272 334z" />
    <glyph glyph-name="percent.tnum" horiz-adv-x="1429" 
d="M408 846q102 0 169 83t67 205q-2 238 -210 238q-102 0 -170 -85t-68 -206t55 -178t157 -57zM461 1454q125 0 199 -80t75 -236q0 -156 -95 -266q-95 -109 -257 -108q-125 0 -200 80t-74 215q0 175 95 285t257 110zM1280 352q0 240 -208 240q-102 0 -170 -85t-68 -205
t54 -178t156 -58t170 82q66 82 66 204zM1096 674q126 0 200 -80t74 -238t-95 -265q-95 -108 -257 -107q-125 0 -200 78t-75 214q-1 178 95 288t258 110zM1305 1436l-1037 -1436h-104l1040 1436h101z" />
    <glyph glyph-name="plus.tnum" 
d="M846 1120l-68 -393h404l-17 -92h-403l-68 -383h-96l68 383h-398l17 92h397l70 393h94z" />
    <glyph glyph-name="acute.case" horiz-adv-x="524" 
d="M557 1382l-180 -225h-92l155 225h117z" />
    <glyph glyph-name="breve.case" horiz-adv-x="628" 
d="M440 1186q-216 0 -223 203l84 6q7 -135 145 -135t191 135l82 -6q-63 -203 -279 -203z" />
    <glyph glyph-name="caron.case" horiz-adv-x="620" 
d="M739 1382l-262 -225h-112l-179 225h103l135 -172l201 172h114z" />
    <glyph glyph-name="circumflex.case" horiz-adv-x="641" 
d="M154 1157l262 225h112l179 -225h-103l-135 172l-201 -172h-114z" />
    <glyph glyph-name="dieresis.case" horiz-adv-x="686" 
d="M661 1210q-74 0 -69 68q0 68 74 68t69 -68q0 -68 -74 -68zM344 1278q0 -68 -75 -68t-70 68q-1 68 72 68t73 -68z" />
    <glyph glyph-name="dotaccent.case" horiz-adv-x="497" 
d="M366 1210q-74 0 -69 68q0 68 74 68t69 -68q0 -68 -74 -68z" />
    <glyph glyph-name="grave.case" horiz-adv-x="423" 
d="M387 1380l59 -223h-84l-86 223h111z" />
    <glyph glyph-name="hungarumlaut.case" horiz-adv-x="661" 
d="M453 1382l-191 -225h-92l162 225h121zM725 1382l-190 -225h-93l162 225h121z" />
    </font>
</defs>
</svg>
