<?xml version="1.0" standalone="no"?>
<!DOCTYPE svg PUBLIC "-//W3C//DTD SVG 1.1//EN" "http://www.w3.org/Graphics/SVG/1.1/DTD/svg11.dtd" >
<svg xmlns="http://www.w3.org/2000/svg">
<metadata>
Created by FontPrep 20130207 at Tue Nov 19 21:03:09 2013
 By MacMini
Copyright (c) 2011 by typedepot. All rights reserved.
</metadata>
<defs>
<font id="6249393d0e2fa98463a1576bfb5a98dc" horiz-adv-x='1024' >
  <font-face 
    font-family="CentraleSansXThin"
    font-weight="250"
    font-stretch="normal"
    units-per-em="2048"
    panose-1="2 0 0 0 0 0 0 0 0 0"
    ascent="1536"
    descent="-512"
    x-height="1065"
    cap-height="1434"
    bbox="-260 -385 2791 1839"
    underline-thickness="102"
    underline-position="-102"
    unicode-range="U+000D-FB04"
  />
<missing-glyph horiz-adv-x="1286" 
d="M1059 1464h-836l418 -798zM1059 -211l-418 797l-418 -797h836zM203 1425v-1597l418 799zM1081 1425l-419 -798l419 -799v1597zM1116 1499v-1745h-946v1745h946z" />
    <glyph glyph-name="f_f" unicode="ff" horiz-adv-x="1155" 
d="M987 1509q59 0 137 -16l-4 -31q-61 14 -129 15q-123 0 -171 -68t-48 -195v-149h332v-33h-332v-1032h-39v1032h-489v-1032h-41v1032h-127v33h127v149q0 148 57 222t197 73q66 0 133 -14l-6 -33q-63 14 -123 15q-121 0 -169 -67t-48 -193v-152h489v147q-1 150 57 224
t197 73z" />
    <glyph glyph-name="f_i" unicode="fi" horiz-adv-x="1044" 
d="M205 1167q-1 147 83 245t230 97q146 0 309 -92l-14 -24q-143 84 -285 84q-142 1 -212 -93q-71 -94 -70 -219v-100h608v-1065h-43v1032h-565v-1032h-41v1032h-129v33h129v102z" />
    <glyph glyph-name="f_l" unicode="fl" horiz-adv-x="1097" 
d="M842 121q0 -98 68 -98h40l58 4h6v-33l-15 -2l-81 -2q-59 0 -89 27q-29 28 -28 108v1030q0 154 -77 238t-206 84t-201 -85t-71 -235v-92h301v-33h-301v-1032h-41v1032h-129v33h129v90q0 172 85 263t227 91q141 0 233 -90t92 -262v-1036z" />
    <glyph glyph-name="f_f_i" unicode="ffi" horiz-adv-x="1523" 
d="M735 1182q1 154 71 246t229 92t298 -78l-12 -27q-143 72 -293 72t-208 -106q-48 -89 -48 -199v-117h561v-1065h-41v1032h-520v-1032h-37v1032h-491v-1032h-41v1032h-127v33h127v149q0 148 57 222t199 73q66 0 133 -14l-6 -33q-66 14 -123 15q-121 0 -170 -68t-49 -195
v-149h491v117z" />
    <glyph glyph-name="f_f_l" unicode="ffl" horiz-adv-x="1626" 
d="M1368 121q0 -98 68 -98h41l57 4h6v-33l-16 -2l-80 -2q-59 0 -88 28t-29 107v1042q0 154 -77 237t-207 83q-129 0 -201 -85t-72 -235v-102h303v-33h-303v-1032h-39v1032h-489v-1032h-41v1032h-125v33h125v149q0 148 57 222t197 73q66 0 133 -14l-6 -33q-66 14 -123 15
q-121 0 -169 -68t-48 -192v-152h489v102q0 173 85 263t227 90q141 0 233 -90t92 -263v-1046z" />
    <glyph glyph-name=".notdef" horiz-adv-x="1286" 
d="M1059 1464h-836l418 -798zM1059 -211l-418 797l-418 -797h836zM203 1425v-1597l418 799zM1081 1425l-419 -798l419 -799v1597zM1116 1499v-1745h-946v1745h946z" />
    <glyph glyph-name=".null" horiz-adv-x="1161" 
 />
    <glyph glyph-name=".null" horiz-adv-x="1161" 
 />
    <glyph glyph-name="nonmarkingreturn" horiz-adv-x="681" 
 />
    <glyph glyph-name="CR" unicode="&#xd;" horiz-adv-x="577" 
 />
    <glyph glyph-name="space" unicode=" " horiz-adv-x="542" 
 />
    <glyph glyph-name="exclam" unicode="!" horiz-adv-x="499" 
d="M233 0v182h33v-182h-33zM270 1444l-2 -1122h-37l-2 1122h41z" />
    <glyph glyph-name="quotedbl" unicode="&#x22;" horiz-adv-x="665" 
d="M274 1434l-65 -453h-33l53 453h45zM504 1434l-66 -453h-32l53 453h45z" />
    <glyph glyph-name="numbersign" unicode="#" horiz-adv-x="1568" 
d="M586 1022l-109 -623h516l111 623h-518zM1337 399l-6 -37h-305l-63 -362h-39l63 362h-516l-63 -362h-41l63 362h-307l6 37h307l111 623h-309l6 37h309l68 381h38l-67 -381h518l68 381h36l-67 -381h299l-6 -37h-299l-109 -623h305z" />
    <glyph glyph-name="dollar" unicode="$" horiz-adv-x="1183" 
d="M614 1597v-151q138 0 339 -67q36 -11 40 -13l-12 -37q-45 25 -168 53t-213 27q-176 0 -289 -80t-112 -233q0 -83 45 -160q23 -42 101 -89q78 -48 144 -69q66 -20 185 -56q224 -69 305 -152q82 -83 82 -218q0 -172 -119 -266t-328 -98v-152h-30v154q-254 10 -437 104
l11 33q205 -102 425 -102q221 0 329 85t108 240q0 119 -65 177q-36 34 -79 68t-126 60q-84 25 -162 49t-124 40t-115 50t-103 70t-63 94q-28 59 -27 134q0 162 112 256q113 94 316 98v151h30z" />
    <glyph glyph-name="percent" unicode="%" horiz-adv-x="1603" 
d="M1192 680q137 0 223 -99t86 -247t-85 -246t-222 -98t-225 97t-88 246t87 248t224 99zM1191 649q-120 0 -198 -92t-78 -224t79 -222q79 -91 199 -91t196 90q75 90 75 223q0 134 -76 225q-77 91 -197 91zM415 1450q138 0 223 -98t85 -248t-84 -246q-84 -98 -222 -98
t-226 97q-87 97 -87 247t86 248q87 98 225 98zM416 1419q-121 0 -199 -91t-78 -224t79 -222t200 -89q122 0 196 89t74 222t-76 224t-196 91zM1231 1440l-828 -1440h-43l830 1440h41z" />
    <glyph glyph-name="ampersand" unicode="&#x26;" horiz-adv-x="1314" 
d="M291 1161q0 -71 42 -143t150 -193q244 152 289 249q23 50 23 110q0 102 -69 164q-68 62 -174 63q-106 -1 -184 -71t-77 -179zM152 355q0 -145 108 -237t268 -93q238 0 424 223l-477 534h-2q-145 -88 -233 -185t-88 -242zM551 1444q123 0 202 -72t79 -199t-113 -224
q-61 -51 -95 -73t-120 -73l471 -527q72 96 151 250l29 -16q-78 -162 -158 -260l226 -250h-47l-201 221q-195 -231 -449 -231q-174 0 -294 99t-120 263t104 269q103 105 237 186q-106 119 -153 197q-46 78 -46 161q0 123 87 201t210 78z" />
    <glyph glyph-name="quotesingle" unicode="'" horiz-adv-x="450" 
d="M274 1434l-65 -453h-33l53 453h45z" />
    <glyph glyph-name="parenleft" unicode="(" horiz-adv-x="671" 
d="M172 592q0 -302 125 -536t301 -373h-49q-166 131 -294 375t-128 533t128 533t294 375h49q-174 -137 -300 -371t-126 -536z" />
    <glyph glyph-name="parenright" unicode=")" horiz-adv-x="671" 
d="M545 590q0 -290 -128 -534q-128 -245 -296 -373h-47q176 139 301 373t125 536t-126 536t-300 371h47q168 -129 296 -374t128 -535z" />
    <glyph glyph-name="asterisk" unicode="*" horiz-adv-x="897" 
d="M471 1538l-6 -283l242 150l20 -37l-248 -135l250 -135l-22 -41l-242 151l6 -282h-41l8 282l-245 -151l-23 41l252 135l-250 135l21 37l245 -150l-8 283h41z" />
    <glyph glyph-name="plus" unicode="+" horiz-adv-x="1134" 
d="M584 1085v-391h393v-32h-393v-392h-33v392h-391v32h391v391h33z" />
    <glyph glyph-name="comma" unicode="," horiz-adv-x="458" 
d="M229 25v178h37v-183q-2 -81 -59 -155l-27 14q49 72 49 146z" />
    <glyph glyph-name="hyphen" unicode="-" horiz-adv-x="1056" 
d="M887 578v-37h-715v37h715z" />
    <glyph glyph-name="period" unicode="." horiz-adv-x="421" 
d="M193 0v203h36v-203h-36z" />
    <glyph glyph-name="slash" unicode="/" horiz-adv-x="950" 
d="M866 1505l-870 -1853h-37l868 1853h39z" />
    <glyph glyph-name="zero" unicode="0" horiz-adv-x="1372" 
d="M686 25q246 -1 373 193t127 501t-128 499t-373 191q-245 0 -373 -191t-128 -497q0 -422 220 -602q116 -94 282 -94zM686 -10q-266 0 -404 202t-138 527t136 525q138 200 406 200t406 -200t137 -526q0 -326 -138 -527q-139 -201 -405 -201z" />
    <glyph glyph-name="one" unicode="1" horiz-adv-x="694" 
d="M463 1440v-1440h-41v1401l-264 -131l-15 28l283 142h37z" />
    <glyph glyph-name="two" unicode="2" horiz-adv-x="1124" 
d="M556 1444q202 0 326 -102t124 -300q0 -150 -83 -282t-274 -297l-481 -426h838v-37h-897v31l516 458q168 147 254 273t86 294t-114 260q-113 92 -299 93q-186 0 -368 -98l-12 28q182 105 384 105z" />
    <glyph glyph-name="three" unicode="3" horiz-adv-x="1124" 
d="M528 1444q188 0 310 -84t120 -232q0 -148 -86 -238q-86 -89 -223 -116q165 -31 269 -133t104 -250q0 -197 -140 -299t-370 -102q-98 0 -210 26t-181 62l12 35q66 -33 172 -61t205 -27q205 0 338 93t133 264t-135 274t-301 104h-158v33h158q204 0 312 137q60 76 61 184
q0 147 -113 221t-286 74t-355 -86l-10 29q80 40 187 66t187 26z" />
    <glyph glyph-name="four" unicode="4" horiz-adv-x="1187" 
d="M893 410v966l-748 -966h748zM934 1440v-1030h192v-33h-192v-377h-39v377h-795v33l799 1030h35z" />
    <glyph glyph-name="five" unicode="5" horiz-adv-x="1146" 
d="M963 1434v-35h-693l-39 -656q165 111 359 111t323 -113t129 -317t-142 -320q-142 -114 -362 -114t-403 94l12 33q184 -92 390 -92q206 -1 334 107t128 294t-118 290q-119 103 -303 103t-357 -121l-31 21l48 715h725z" />
    <glyph glyph-name="six" unicode="6" horiz-adv-x="1263" 
d="M1112 434q0 192 -122 296t-318 104q-197 0 -324 -124t-127 -297t129 -281t325 -108q197 0 317 110q120 108 120 300zM713 1444q178 0 368 -74l-10 -33q-188 72 -354 72q-291 0 -430 -242q-113 -193 -113 -497q0 -111 19 -191q20 164 154 277q134 112 338 112t337 -114
t133 -319t-132 -325t-349 -120q-362 0 -477 303q-66 172 -66 385q0 311 127 516q150 250 455 250z" />
    <glyph glyph-name="seven" unicode="7" horiz-adv-x="1005" 
d="M942 1434v-35l-623 -1399h-45l623 1397h-854v37h899z" />
    <glyph glyph-name="eight" unicode="8" horiz-adv-x="1212" 
d="M606 1411q-180 0 -289 -82t-109 -227q0 -144 106 -232q104 -88 292 -88t294 87t106 233t-110 228t-290 81zM135 382q0 -165 125 -262t346 -97t346 97t125 261t-125 262t-346 100t-346 -97t-125 -264zM606 1444q201 0 320 -92t118 -258q0 -113 -76 -207t-241 -125
q187 -23 289 -127t102 -258q0 -187 -141 -287t-371 -100t-370 100q-141 100 -142 289q0 152 100 256t287 129q-165 31 -239 124t-74 206q0 166 118 258t320 92z" />
    <glyph glyph-name="nine" unicode="9" horiz-adv-x="1269" 
d="M584 1409q-199 0 -320 -110q-121 -111 -121 -303t123 -294q122 -102 318 -102t323 123t127 296t-126 281t-324 109zM582 1444q365 0 479 -307q63 -164 63 -381q0 -334 -112 -520q-152 -246 -475 -246q-180 0 -371 73l12 33q184 -72 354 -71q311 0 449 237q98 168 98 502
q0 100 -16 186q-25 -164 -160 -274t-337 -111q-202 0 -334 113q-132 112 -132 318t132 327q133 121 350 121z" />
    <glyph glyph-name="colon" unicode=":" horiz-adv-x="421" 
d="M193 0v203h36v-203h-36zM193 860v205h36v-205h-36z" />
    <glyph glyph-name="semicolon" unicode=";" horiz-adv-x="528" 
d="M264 25v178h37v-183q-2 -81 -59 -155l-27 14q49 72 49 146zM264 862v203h37v-203h-37z" />
    <glyph glyph-name="less" unicode="&#x3c;" horiz-adv-x="1165" 
d="M43 696l1030 359v-37l-977 -336l977 -336v-35l-1030 357v28z" />
    <glyph glyph-name="equal" unicode="=" horiz-adv-x="1048" 
d="M870 514v-33h-690v33h690zM870 834v-33h-690v33h690z" />
    <glyph glyph-name="greater" unicode="&#x3e;" horiz-adv-x="1165" 
d="M1122 696v-28l-1030 -357v35l977 336l-977 336v37z" />
    <glyph glyph-name="question" unicode="?" horiz-adv-x="950" 
d="M399 0v182h33v-182h-33zM438 1444q178 0 292 -80t114 -242t-145 -271l-120 -92q-61 -46 -103 -114t-42 -153v-170h-39v172q0 88 42 158q41 70 101 118q60 47 120 93q145 111 145 259q1 147 -103 217t-264 70t-301 -90l-14 31q138 94 317 94z" />
    <glyph glyph-name="at" unicode="@" horiz-adv-x="1986" 
d="M1270 633q0 172 -76 262t-247 90t-259 -119q-88 -120 -92 -286t83 -264t253 -97q166 0 252 121t86 293zM1067 1413q320 0 547 -150q114 -77 180 -213t66 -319q0 -237 -106 -391t-304 -154q-109 0 -161 47t-50 132q-106 -176 -324 -177q-168 0 -264 106t-92 288
q5 182 105 308t294 126q142 0 230 -76t106 -207l54 275h28l-102 -584q-35 -207 176 -207q131 0 219 79q158 142 158 437q0 174 -64 304q-112 232 -413 313q-131 35 -283 34q-409 0 -659 -232t-250 -626q0 -242 103 -410q195 -318 657 -317q274 0 522 107l8 -29
q-266 -106 -514 -106q-248 -1 -421 77t-281 251t-107 425q0 406 259 648t683 241z" />
    <glyph glyph-name="A" unicode="A" horiz-adv-x="1341" 
d="M670 1405l-396 -952h795l-397 952h-2zM696 1444l604 -1444h-43l-174 418h-823l-174 -418h-45l604 1444h51z" />
    <glyph glyph-name="B" unicode="B" horiz-adv-x="1359" 
d="M805 1399h-535v-656h539q154 0 242 88t88 237q-1 149 -99 240t-235 91zM270 711v-676h578q143 0 243 93q99 92 99 238t-92 246t-277 99h-551zM229 1434h576q157 0 267 -98t110 -267q0 -123 -65 -216t-193 -126q133 -13 221 -109t88 -256t-108 -260q-108 -102 -273 -102
h-623v1434z" />
    <glyph glyph-name="C" unicode="C" horiz-adv-x="1378" 
d="M870 1444q227 0 394 -72l-11 -33q-53 23 -157 47t-215 23q-315 -1 -512 -193t-197 -500t197 -500t512 -191q102 -1 211 21t163 44l11 -35q-174 -66 -389 -65q-330 0 -539 200t-209 527q-1 327 207 527t534 200z" />
    <glyph glyph-name="D" unicode="D" horiz-adv-x="1533" 
d="M768 1399h-498v-1364h496q92 0 202 43q110 42 196 118t140 218q52 142 52 318q0 175 -73 331t-208 242q-153 94 -307 94zM229 1434h545q160 0 314 -92t231 -256q78 -166 79 -372t-78 -371t-237 -253q-150 -90 -309 -90h-545v1434z" />
    <glyph glyph-name="E" unicode="E" horiz-adv-x="1331" 
d="M1184 1434v-35h-914v-684h787v-35h-787v-645h953v-35h-994v1434h955z" />
    <glyph glyph-name="F" unicode="F" horiz-adv-x="1251" 
d="M1182 1434v-35h-912v-694h785v-35h-785v-670h-41v1434h953z" />
    <glyph glyph-name="G" unicode="G" horiz-adv-x="1542" 
d="M866 1444q236 0 437 -101l-13 -32q-182 98 -418 98q-306 -1 -502 -193t-196 -498t196 -500t494 -194t502 199v408h-422v35h459v-457q-215 -219 -535 -219t-529 202q-208 202 -208 525q1 323 207 525t528 202z" />
    <glyph glyph-name="H" unicode="H" horiz-adv-x="1525" 
d="M1296 1434v-1434h-41v702h-985v-702h-41v1434h41v-697h985v697h41z" />
    <glyph glyph-name="I" unicode="I" horiz-adv-x="499" 
d="M270 1434v-1434h-41v1434h41z" />
    <glyph glyph-name="J" unicode="J" horiz-adv-x="1064" 
d="M854 1434v-1000q0 -213 -119 -329t-301 -115q-139 0 -241 70t-146 176l29 18q39 -96 136 -163t220 -66q160 0 270 106t111 303v1000h41z" />
    <glyph glyph-name="K" unicode="K" horiz-adv-x="1333" 
d="M270 0h-41v1434h41v-916l883 916h53l-514 -535l572 -899h-52l-548 870l-394 -407v-463z" />
    <glyph glyph-name="L" unicode="L" horiz-adv-x="1128" 
d="M270 1434v-1397h817v-37h-858v1434h41z" />
    <glyph glyph-name="M" unicode="M" horiz-adv-x="1839" 
d="M1610 1434v-1434h-41v1237l4 135h-2l-629 -1175h-45l-627 1175h-2l2 -135v-1237h-41v1434h56l637 -1194l634 1194h54z" />
    <glyph glyph-name="N" unicode="N" horiz-adv-x="1490" 
d="M1262 1434v-1434h-45l-947 1370v-1370h-41v1434h47l945 -1368v1368h41z" />
    <glyph glyph-name="O" unicode="O" horiz-adv-x="1619" 
d="M1464 712q0 318 -180 508t-471 189q-291 0 -474 -188q-183 -187 -183 -505t182 -504t474 -187q292 0 472 185q180 184 180 502zM813 1444q311 0 503 -197t191 -533q0 -336 -191 -530q-192 -194 -504 -194t-506 196t-194 529t196 531q194 198 505 198z" />
    <glyph glyph-name="P" unicode="P" horiz-adv-x="1368" 
d="M842 1399h-572v-789h572q174 0 286 117t111 278q1 161 -111 277t-286 117zM229 1434h619q190 0 312 -128t122 -302t-123 -302t-311 -129h-578v-573h-41v1434z" />
    <glyph glyph-name="Q" unicode="Q" horiz-adv-x="1619" 
d="M1464 712q0 318 -180 508t-471 189q-291 0 -474 -188q-183 -187 -183 -505t182 -504t474 -187q292 0 472 185q180 184 180 502zM811 -10q-311 0 -505 196t-194 529t196 531q194 198 505 198t503 -197t191 -534q0 -291 -148 -479t-401 -232q186 -104 484 -201l-15 -39
q-68 14 -246 95t-270 139q-49 -6 -100 -6z" />
    <glyph glyph-name="R" unicode="R" horiz-adv-x="1392" 
d="M881 1399h-611v-703h611q149 0 249 104t100 250q0 148 -99 248q-100 100 -250 101zM229 1434h654q171 0 281 -110t110 -266t-94 -264t-242 -128l324 -666h-48l-317 662h-627v-662h-41v1434z" />
    <glyph glyph-name="S" unicode="S" horiz-adv-x="1216" 
d="M599 1444q212 0 439 -90l-10 -35q-4 4 -55 24t-157 43t-206 23q-190 0 -312 -80t-122 -233q0 -121 70 -184q39 -36 84 -69t220 -82t226 -64t125 -49t113 -70q38 -36 68 -94t30 -132q0 -174 -131 -268t-375 -94t-483 116l10 33q283 -115 492 -115t327 87q118 86 117 239
q0 118 -79 190q-79 71 -209 111q-130 41 -196 58q-65 18 -115 33q-50 14 -125 50t-114 72t-68 95q-30 60 -30 135q0 164 127 257t339 93z" />
    <glyph glyph-name="T" unicode="T" horiz-adv-x="1155" 
d="M1128 1434v-35h-530v-1399h-41v1399h-530v35h1101z" />
    <glyph glyph-name="U" unicode="U" horiz-adv-x="1454" 
d="M1247 1434v-971q0 -219 -148 -346q-147 -127 -371 -127t-373 127q-148 127 -148 346v971h41v-977q0 -193 139 -313t340 -120t340 120t139 313v977h41z" />
    <glyph glyph-name="V" unicode="V" horiz-adv-x="1316" 
d="M1249 1434l-565 -1434h-53l-563 1434h45l544 -1389l545 1389h47z" />
    <glyph glyph-name="W" unicode="W" horiz-adv-x="1947" 
d="M1849 1434l-424 -1434h-49l-401 1339l-400 -1339h-53l-424 1434h47l404 -1377h2l399 1348h47l402 -1348h2q36 120 153 535l248 842h47z" />
    <glyph glyph-name="X" unicode="X" horiz-adv-x="1273" 
d="M1217 1434l-549 -723l549 -711h-58l-520 678l-526 -678h-56l551 705l-551 729h56l524 -697l522 697h58z" />
    <glyph glyph-name="Y" unicode="Y" horiz-adv-x="1214" 
d="M629 0h-41v588l-514 846h45l487 -807l490 807h45l-512 -844v-590z" />
    <glyph glyph-name="Z" unicode="Z" horiz-adv-x="1228" 
d="M1137 1434v-37l-1012 -1364l502 4h510v-37h-1059v37l1012 1364l-484 -2h-504v35h1035z" />
    <glyph glyph-name="bracketleft" unicode="[" horiz-adv-x="571" 
d="M465 1444v-33h-219v-1753h219v-37h-256v1823h256z" />
    <glyph glyph-name="backslash" unicode="\" horiz-adv-x="954" 
d="M88 1505h39l739 -1573h-39z" />
    <glyph glyph-name="bracketright" unicode="]" horiz-adv-x="571" 
d="M362 1444v-1823h-256v37h220v1753h-220v33h256z" />
    <glyph glyph-name="underscore" unicode="_" horiz-adv-x="1107" 
d="M938 -221v-35h-766v35h766z" />
    <glyph glyph-name="grave" unicode="`" horiz-adv-x="509" 
d="M215 1452h39l84 -301h-31z" />
    <glyph glyph-name="a" unicode="a" horiz-adv-x="1165" 
d="M498 23q169 0 301 107q131 108 131 265v168q-213 27 -398 27q-397 0 -397 -287q0 -150 97 -215t266 -65zM585 1075q202 1 294 -71t92 -248v-658q0 -66 73 -65q20 0 58 4l2 -33q-31 -6 -72 -6q-102 0 -102 92l2 172q-45 -125 -171 -199q-126 -73 -291 -73t-270 77
t-106 234q0 322 436 322q160 0 400 -29v168q0 162 -87 221t-274 59t-366 -51l-6 35q186 49 388 49z" />
    <glyph glyph-name="b" unicode="b" horiz-adv-x="1306" 
d="M1141 532q0 230 -124 370t-336 140t-331 -143t-119 -369t124 -366q124 -141 332 -141t331 139t123 370zM233 1499v-741q49 150 168 234t287 83q229 0 363 -151q133 -152 133 -392t-132 -392t-360 -150q-162 0 -284 81t-179 240l-2 -311h-34v1499h40z" />
    <glyph glyph-name="c" unicode="c" horiz-adv-x="1073" 
d="M676 1075q166 0 295 -51l-8 -31q-133 49 -285 49q-234 0 -374 -136t-140 -374t141 -374t379 -135q127 0 279 61l8 -33q-154 -61 -291 -61q-250 0 -404 145t-153 397q0 252 153 398q154 145 400 145z" />
    <glyph glyph-name="d" unicode="d" horiz-adv-x="1296" 
d="M1065 530q0 224 -119 368t-331 144q-211 0 -335 -139t-124 -371t123 -370q123 -139 331 -139t331 141q124 141 124 366zM1063 1499h41v-1499h-35l-4 311q-57 -161 -179 -241t-282 -80q-227 0 -359 152t-132 390q0 240 133 392t362 151q168 0 286 -84t169 -233v741z" />
    <glyph glyph-name="e" unicode="e" horiz-adv-x="1218" 
d="M642 1042q-212 0 -343 -137t-135 -358h909q0 219 -109 357q-110 138 -322 138zM682 23q176 0 352 88l10 -35q-190 -86 -364 -86q-262 0 -410 148q-147 148 -147 391t143 395q142 152 374 152t352 -150t120 -371q0 -21 -4 -41h-944q2 -227 143 -359t375 -132z" />
    <glyph glyph-name="f" unicode="f" horiz-adv-x="626" 
d="M459 1509q63 0 137 -16l-4 -31q-61 14 -129 15q-123 0 -170 -67t-47 -196v-149h332v-33h-332v-1032h-41v1032h-129v33h129v147q0 150 57 224q58 73 197 73z" />
    <glyph glyph-name="g" unicode="g" horiz-adv-x="1146" 
d="M584 137q-186 0 -273 25q-155 -94 -155 -242t138 -198q114 -41 322 -41q207 0 311 66q40 26 65 74q26 48 26 111q0 117 -84 161t-268 44h-82zM589 1042q-376 0 -376 -292t376 -291q376 -1 376 291t-376 292zM594 1075q94 0 151 -10h304v-31l-234 -2q190 -72 191 -282
q0 -324 -418 -324q-172 0 -273 53q-52 -26 -86 -83q-23 -36 -23 -81t31 -77q65 -68 345 -68h98q190 0 284 -52t93 -184q0 -175 -150 -235q-127 -51 -334 -51q-208 0 -331 61t-123 209t157 256q-104 42 -104 148t117 174q-117 82 -117 252q0 327 422 327z" />
    <glyph glyph-name="h" unicode="h" horiz-adv-x="1249" 
d="M684 1075q184 1 286 -111q101 -112 101 -307v-657h-41v662q0 180 -93 280t-265 100q-215 0 -327 -142t-112 -312v-588h-40v1499h40v-727q45 129 156 216t295 87z" />
    <glyph glyph-name="i" unicode="i" horiz-adv-x="430" 
d="M240 1065v-1065h-41v1032h-129v33h170zM201 1272v227h37v-227h-37z" />
    <glyph glyph-name="j" unicode="j" horiz-adv-x="432" 
d="M203 1272v227h37v-227h-37zM242 1065v-1255q0 -74 -16 -105q-29 -55 -126 -55h-49v35h41q72 1 90 29t19 98v1220h-131v33h172z" />
    <glyph glyph-name="k" unicode="k" horiz-adv-x="995" 
d="M233 1499v-1081l672 647h47l-413 -401l438 -664h-47l-420 637l-277 -268v-369h-40v1499h40z" />
    <glyph glyph-name="l" unicode="l" horiz-adv-x="495" 
d="M238 121q0 -98 68 -98h40l57 4h7v-33l-17 -2l-80 -2q-59 0 -88 28t-28 105v1376h41v-1378z" />
    <glyph glyph-name="m" unicode="m" horiz-adv-x="1861" 
d="M1329 1075q174 0 263 -106t89 -303v-666h-41v670q0 373 -321 372q-172 0 -266 -116t-95 -295v-631h-38v690q0 172 -98 262t-248 90t-245 -106t-96 -287v-649h-40v1065h34l2 -242q41 127 139 189t225 63q128 0 226 -73t125 -216q86 289 385 289z" />
    <glyph glyph-name="n" unicode="n" horiz-adv-x="1245" 
d="M680 1075q186 1 286 -111q101 -112 101 -307v-657h-41v662q0 180 -93 280t-265 100q-215 0 -327 -142t-112 -312v-588h-41v1065h35l4 -295q47 129 157 217t296 88z" />
    <glyph glyph-name="o" unicode="o" horiz-adv-x="1304" 
d="M652 1042q-212 0 -350 -139t-138 -373t138 -372q138 -140 350 -140t350 140t139 372q-1 232 -139 372t-350 140zM652 1075q228 0 379 -148q151 -149 151 -397t-151 -396t-379 -148t-379 150t-151 396t151 395q151 148 379 148z" />
    <glyph glyph-name="p" unicode="p" horiz-adv-x="1302" 
d="M677 23q212 0 336 139t124 370q0 230 -123 370t-331 140t-332 -141t-124 -367t119 -368q119 -143 331 -143zM229 -348h-41v1413h35l2 -311q57 160 179 240t284 81q227 0 360 -151q132 -152 132 -392t-133 -392t-363 -150q-168 0 -287 83t-168 234v-655z" />
    <glyph glyph-name="q" unicode="q" horiz-adv-x="1302" 
d="M626 23q212 0 330 143t119 368q0 224 -124 366t-332 142q-209 0 -331 -139t-122 -371t124 -370q124 -139 336 -139zM1073 -348v655q-51 -153 -169 -235t-286 -82q-229 0 -362 152t-133 390q0 240 132 392t359 151q160 0 282 -81t179 -240l4 311h35v-1413h-41z" />
    <glyph glyph-name="r" unicode="r" horiz-adv-x="628" 
d="M233 0h-40v1065h32l4 -256q31 123 121 197t213 59l-4 -39q-153 16 -239 -94t-87 -289v-643z" />
    <glyph glyph-name="s" unicode="s" horiz-adv-x="958" 
d="M115 807q0 127 96 197t271 71q175 0 333 -57l-6 -33q-139 57 -309 57t-256 -60q-88 -60 -88 -175t93 -167q72 -40 155 -62q221 -56 296 -88q74 -32 100 -58q70 -68 68 -168q0 -131 -99 -203q-99 -71 -281 -71t-379 80l8 30q176 -78 354 -78t267 63q89 62 89 177
q0 78 -50 128t-101 70q-50 20 -120 38l-77 22q-199 51 -262 92q-102 68 -102 195z" />
    <glyph glyph-name="t" unicode="t" horiz-adv-x="630" 
d="M266 1372v-307h320v-33h-320v-758q0 -141 40 -196t157 -55q63 0 123 18l2 -33q-63 -18 -135 -18q-135 0 -182 65q-46 66 -46 221v756h-166v33h166l6 307h35z" />
    <glyph glyph-name="u" unicode="u" horiz-adv-x="1245" 
d="M564 -10q-184 0 -284 112t-102 306v657h41v-662q0 -180 93 -280t266 -100q214 0 326 142t112 312v588h41v-1065h-35l-6 295q-43 -129 -155 -217q-113 -88 -297 -88z" />
    <glyph glyph-name="v" unicode="v" horiz-adv-x="1048" 
d="M981 1065l-432 -1065h-49l-432 1065h43l413 -1028l414 1028h43z" />
    <glyph glyph-name="w" unicode="w" horiz-adv-x="1632" 
d="M1550 1065l-358 -1065h-51l-326 971l-323 -971h-50l-360 1065h41l344 -1014l330 975h39l329 -979l344 1018h41z" />
    <glyph glyph-name="x" unicode="x" horiz-adv-x="1028" 
d="M954 1065l-413 -528l422 -537h-48l-401 508l-401 -508h-47l421 530l-415 535h45l397 -504l393 504h47z" />
    <glyph glyph-name="y" unicode="y" horiz-adv-x="1132" 
d="M259 -352q-50 0 -116 14l2 37q72 -16 125 -16q92 0 150 61q57 61 110 195l23 55l-457 1071h43l434 -1024l418 1024h43l-467 -1145q-74 -181 -155 -232q-41 -26 -72 -33t-81 -7z" />
    <glyph glyph-name="z" unicode="z" horiz-adv-x="1007" 
d="M924 1065v-37l-799 -999l299 4h500v-33h-842v37l797 997l-283 -2h-500v33h828z" />
    <glyph glyph-name="braceleft" unicode="{" horiz-adv-x="653" 
d="M551 1444v-33h-31q-121 0 -175 -47t-54 -160v-473q0 -174 -139 -196q139 -25 139 -197v-473q0 -113 54 -161t175 -48h31v-33h-33q-140 1 -202 59t-62 187v473q0 162 -162 174v35q162 12 162 176v473q0 129 61 186t203 58h33z" />
    <glyph glyph-name="bar" unicode="|" horiz-adv-x="450" 
d="M244 1647v-1946h-37v1946h37z" />
    <glyph glyph-name="braceright" unicode="}" horiz-adv-x="653" 
d="M102 1444h33q141 0 203 -58t61 -186v-473q0 -164 162 -176v-35q-162 -12 -162 -174v-473q0 -129 -61 -187t-203 -59h-33v33h33q121 0 174 48t53 161v473q0 172 142 197q-141 23 -142 196v473q0 113 -53 160t-174 47h-33v33z" />
    <glyph glyph-name="exclamdown" unicode="&#xa1;" horiz-adv-x="499" 
d="M233 1065h33v-182h-33v182zM270 -379h-41l2 1122h37z" />
    <glyph glyph-name="cent" unicode="&#xa2;" horiz-adv-x="1185" 
d="M657 1403v-164h7q164 0 292 -51l-6 -31q-141 49 -284 49q-234 0 -374 -136t-140 -374t141 -374t379 -136q125 0 276 62l10 -33q-156 -61 -290 -61h-11v-164h-32v164q-233 14 -374 157q-140 143 -140 385t141 386t373 155v166h32z" />
    <glyph glyph-name="sterling" unicode="&#xa3;" horiz-adv-x="1226" 
d="M893 694v-28h-571q57 -238 21 -416q-24 -122 -136 -215h866v-35h-950v31q57 23 102 73q92 102 90 302q0 109 -34 260h-150v28h141q-43 193 -43 295q0 223 119 339q120 116 316 116t333 -90l-16 -31q-129 86 -311 86t-291 -109t-109 -317q0 -104 45 -289h578z" />
    <glyph glyph-name="yen" unicode="&#xa5;" horiz-adv-x="1218" 
d="M633 510h297v-27h-297v-139h297v-27h-297v-317h-41v317h-297v27h297v139h-297v27h297v82l-514 846h49l483 -803l484 803h49l-510 -846v-82z" />
    <glyph glyph-name="section" unicode="&#xa7;" horiz-adv-x="1226" 
d="M1047 493q0 133 -108 205t-291 121t-275 86q-91 -69 -143 -153t-52 -163q0 -155 164 -237q108 -53 279 -100q170 -48 231 -72q90 72 142 156q53 84 53 157zM629 1438q197 0 411 -88l-12 -33q-197 84 -403 84q-422 0 -422 -258q0 -85 60 -133t137 -76q76 -28 218 -69
q141 -40 214 -69q72 -30 132 -70q120 -81 119 -226q-1 -98 -67 -190t-133 -144q180 -80 180 -221q0 -295 -467 -295q-195 0 -414 88l15 33q203 -86 403 -86q422 0 422 260q0 158 -271 235q-189 54 -241 70q-174 53 -271 128t-98 210q0 98 68 191t131 141q-178 80 -178 223
q0 295 467 295z" />
    <glyph glyph-name="dieresis" unicode="&#xa8;" horiz-adv-x="753" 
d="M520 1186v233h33v-233h-33zM201 1186v233h32v-233h-32z" />
    <glyph glyph-name="copyright" unicode="&#xa9;" horiz-adv-x="1720" 
d="M862 1419q-290 -1 -492 -201t-202 -494t201 -495t493 -201t494 202q200 200 200 494t-201 495q-202 200 -493 200zM903 1071q106 0 187 -33l-7 -26q-82 33 -176 32q-145 0 -232 -85t-87 -230t87 -229t234 -84q84 0 174 37l9 -27q-92 -39 -187 -39q-156 0 -253 92t-97 251
t97 250t251 91zM862 1450q305 0 513 -208t208 -516t-208 -517t-513 -209t-513 209t-208 517t208 516t513 208z" />
    <glyph glyph-name="ordfeminine" unicode="&#xaa;" horiz-adv-x="1005" 
d="M506 1165q-293 0 -293 -186q0 -96 65 -143q65 -48 173 -48t186 69t78 169v117q-109 22 -209 22zM819 532v-30h-633v30h633zM717 928q-71 -166 -287 -166q-104 0 -176 52q-74 52 -74 163q0 215 322 215q92 0 213 -18v75q0 113 -46 166q-47 53 -173 53t-252 -41l-6 29
q133 43 262 43t189 -54t61 -175v-430q0 -33 18 -39q6 -2 24 -2t33 4v-29q-30 -6 -53 -6q-55 0 -55 72v88z" />
    <glyph glyph-name="guillemotleft" unicode="&#xab;" horiz-adv-x="1056" 
d="M522 985l25 -24l-363 -429l363 -428l-27 -24l-395 448v9zM893 985l25 -24l-363 -429l363 -428l-27 -24l-395 448v9z" />
    <glyph glyph-name="registered" unicode="&#xae;" horiz-adv-x="1267" 
d="M690 1257h-184v-219h184q43 0 73 32t30 80t-29 78t-74 29zM479 1280h211q53 0 91 -38t38 -90q1 -52 -27 -88t-71 -46l92 -203h-31l-86 201h-190v-201h-27v465zM633 1475q-182 0 -307 -126q-125 -127 -125 -309t124 -308t308 -126t308 126t124 308t-125 308t-307 127z
M634 1499q196 0 327 -131t131 -327q0 -195 -131 -327t-327 -132t-328 132t-132 328t132 326q132 131 328 131z" />
    <glyph glyph-name="macron" unicode="&#xaf;" horiz-adv-x="927" 
d="M754 1305v-29h-580v29h580z" />
    <glyph glyph-name="degree" unicode="&#xb0;" horiz-adv-x="618" 
d="M308 965q103 1 170 65t67 167t-66 167t-170 63q-104 0 -170 -62q-65 -61 -65 -167t65 -170q66 -63 169 -63zM578 1196q0 -116 -76 -188t-192 -72t-192 73t-77 189q1 116 77 186q76 72 192 72t192 -72t76 -188z" />
    <glyph glyph-name="plusminus" unicode="&#xb1;" horiz-adv-x="983" 
d="M506 1087v-331h393v-31h-393v-332h-33v332h-391v31h391v331h33zM899 264v-31h-817v31h817z" />
    <glyph glyph-name="acute" unicode="&#xb4;" horiz-adv-x="468" 
d="M315 1454l-125 -303h-30l116 303h39z" />
    <glyph glyph-name="mu" unicode="&#xb5;" horiz-adv-x="1257" 
d="M1069 1065v-1065h-33l-8 283q-41 -137 -155 -215t-255 -78t-245 68t-144 194v-604h-41v1417h41v-621q1 -194 101 -308t301 -113q163 1 279 119t116 270v653h43z" />
    <glyph glyph-name="paragraph" unicode="&#xb6;" horiz-adv-x="1011" 
d="M743 -178v1581h-194v-1581h-37v846h-80q-158 8 -247 122t-89 274t98 266q98 108 252 108h336v-1616h-39z" />
    <glyph glyph-name="periodcentered" unicode="&#xb7;" horiz-adv-x="454" 
d="M207 508v203h37v-203h-37z" />
    <glyph glyph-name="cedilla" unicode="&#xb8;" horiz-adv-x="628" 
d="M467 -258q0 -127 -170 -127q-66 0 -137 27l6 28q61 -27 125 -26q139 0 139 94q0 115 -166 88l-14 16l49 154h29l-43 -139q182 12 182 -115z" />
    <glyph glyph-name="ordmasculine" unicode="&#xba;" horiz-adv-x="1116" 
d="M557 1466q-158 0 -249 -94t-91 -244t91 -244t249 -93q158 0 250 94q92 93 92 243t-92 244t-250 94zM932 532v-30h-746v30h746zM558 1499q170 0 274 -103q104 -104 104 -268t-103 -267t-275 -103t-274 103q-103 103 -104 267q0 164 104 268t274 103z" />
    <glyph glyph-name="guillemotright" unicode="&#xbb;" horiz-adv-x="1056" 
d="M166 985l397 -448v-9l-395 -448l-27 24l363 428l-363 429zM537 985l397 -448v-9l-395 -448l-27 24l362 428l-362 429z" />
    <glyph glyph-name="questiondown" unicode="&#xbf;" horiz-adv-x="950" 
d="M551 1065v-182h-33v182h33zM513 -379q-179 0 -293 80t-114 242t145 271q60 46 121 92q60 46 102 114t42 153v170h37v-172q0 -148 -106 -240q-46 -40 -98 -83t-98 -82q-106 -90 -106 -230q1 -140 105 -210t264 -70t301 90l14 -31q-137 -94 -316 -94z" />
    <glyph glyph-name="Agrave" unicode="&#xc0;" horiz-adv-x="1341" 
d="M621 1735l84 -215h-31l-92 215h39zM670 1405l-396 -952h795l-397 952h-2zM696 1444l604 -1444h-43l-174 418h-823l-174 -418h-45l604 1444h51z" />
    <glyph glyph-name="Aacute" unicode="&#xc1;" horiz-adv-x="1341" 
d="M817 1739l-125 -219h-30l116 219h39zM670 1405l-396 -952h795l-397 952h-2zM696 1444l604 -1444h-43l-174 418h-823l-174 -418h-45l604 1444h51z" />
    <glyph glyph-name="Acircumflex" unicode="&#xc2;" horiz-adv-x="1341" 
d="M694 1739l211 -219h-41l-190 198l-193 -198h-41l213 219h41zM670 1405l-396 -952h795l-397 952h-2zM696 1444l604 -1444h-43l-174 418h-823l-174 -418h-45l604 1444h51z" />
    <glyph glyph-name="Atilde" unicode="&#xc3;" horiz-adv-x="1341" 
d="M797 1610q-39 0 -126 39t-134 39q-80 0 -111 -72l-20 8q39 94 137 94q45 0 129 -39t131 -39q81 0 112 72l19 -8q-37 -94 -137 -94zM670 1405l-396 -952h795l-397 952h-2zM696 1444l604 -1444h-43l-174 418h-823l-174 -418h-45l604 1444h51z" />
    <glyph glyph-name="Adieresis" unicode="&#xc4;" horiz-adv-x="1341" 
d="M803 1536v233h33v-233h-33zM481 1536v233h33v-233h-33zM670 1405l-396 -952h795l-397 952h-2zM696 1444l604 -1444h-43l-174 418h-823l-174 -418h-45l604 1444h51z" />
    <glyph glyph-name="Aring" unicode="&#xc5;" horiz-adv-x="1341" 
d="M672 1812q-57 0 -94 -34t-37 -91q0 -59 37 -93t94 -34t94 34t37 92t-37 92t-94 34zM672 1839q72 0 116 -41q44 -42 46 -112q0 -70 -46 -111t-116 -41t-116 41t-46 112t45 111t117 41zM670 1405l-396 -952h795l-397 952h-2zM696 1444l604 -1444h-43l-174 418h-823
l-174 -418h-45l604 1444h51z" />
    <glyph glyph-name="AE" unicode="&#xc6;" horiz-adv-x="2056" 
d="M958 475v924h-6l-587 -924h593zM1913 1434v-35h-912v-684h785v-35h-785v-645h951v-35h-994v440h-616l-281 -440h-43l908 1434h987z" />
    <glyph glyph-name="Ccedilla" unicode="&#xc7;" horiz-adv-x="1378" 
d="M870 1444q227 0 394 -72l-11 -33q-53 23 -157 47t-215 23q-315 -1 -512 -193t-197 -500t197 -500t512 -191q102 -1 211 21t163 44l11 -35q-174 -66 -389 -65q-31 0 -46 2l-40 -135q182 12 182 -115t-170 -127q-66 0 -137 27l6 28q61 -27 125 -26q139 0 139 94
q0 115 -166 88l-14 16l47 152q-301 23 -488 219q-186 197 -186 513q-1 316 207 518q208 200 534 200z" />
    <glyph glyph-name="Egrave" unicode="&#xc8;" horiz-adv-x="1331" 
d="M676 1735l84 -215h-31l-92 215h39zM1184 1434v-35h-914v-684h787v-35h-787v-645h953v-35h-994v1434h955z" />
    <glyph glyph-name="Eacute" unicode="&#xc9;" horiz-adv-x="1331" 
d="M872 1739l-124 -219h-31l117 219h38zM1184 1434v-35h-914v-684h787v-35h-787v-645h953v-35h-994v1434h955z" />
    <glyph glyph-name="Ecircumflex" unicode="&#xca;" horiz-adv-x="1331" 
d="M750 1739l211 -219h-41l-191 198l-192 -198h-41l213 219h41zM1184 1434v-35h-914v-684h787v-35h-787v-645h953v-35h-994v1434h955z" />
    <glyph glyph-name="Edieresis" unicode="&#xcb;" horiz-adv-x="1331" 
d="M858 1536v233h33v-233h-33zM537 1536v233h32v-233h-32zM1184 1434v-35h-914v-684h787v-35h-787v-645h953v-35h-994v1434h955z" />
    <glyph glyph-name="Igrave" unicode="&#xcc;" horiz-adv-x="499" 
d="M199 1735l84 -215h-31l-92 215h39zM270 1434v-1434h-41v1434h41z" />
    <glyph glyph-name="Iacute" unicode="&#xcd;" horiz-adv-x="499" 
d="M395 1739l-125 -219h-30l116 219h39zM270 1434v-1434h-41v1434h41z" />
    <glyph glyph-name="Icircumflex" unicode="&#xce;" horiz-adv-x="499" 
d="M272 1739l211 -219h-41l-190 198l-193 -198h-41l213 219h41zM270 1434v-1434h-41v1434h41z" />
    <glyph glyph-name="Idieresis" unicode="&#xcf;" horiz-adv-x="499" 
d="M381 1536v233h33v-233h-33zM59 1536v233h33v-233h-33zM270 1434v-1434h-41v1434h41z" />
    <glyph glyph-name="Eth" unicode="&#xd0;" horiz-adv-x="1533" 
d="M768 1399h-498v-686h396v-29h-396v-649h496q92 0 202 43q110 42 196 118t140 218q52 142 52 318q0 175 -73 331t-208 242q-153 94 -307 94zM229 1434h545q160 0 314 -92t231 -256q78 -166 79 -372t-78 -371t-237 -253q-150 -90 -309 -90h-545v684h-194v29h194v721z" />
    <glyph glyph-name="Ntilde" unicode="&#xd1;" horiz-adv-x="1490" 
d="M899 1610q-39 0 -126 39t-134 39q-80 0 -111 -72l-20 8q39 94 137 94q45 0 129 -39t131 -39q82 0 113 72l18 -8q-37 -94 -137 -94zM1262 1434v-1434h-45l-947 1370v-1370h-41v1434h47l945 -1368v1368h41z" />
    <glyph glyph-name="Ograve" unicode="&#xd2;" horiz-adv-x="1619" 
d="M797 1735l84 -215h-31l-92 215h39zM1464 712q0 318 -180 508t-471 189q-291 0 -474 -188q-183 -187 -183 -505t182 -504t474 -187q292 0 472 185q180 184 180 502zM813 1444q311 0 503 -197t191 -533q0 -336 -191 -530q-192 -194 -504 -194t-506 196t-194 529t196 531
q194 198 505 198z" />
    <glyph glyph-name="Oacute" unicode="&#xd3;" horiz-adv-x="1619" 
d="M913 1739l-125 -219h-30l116 219h39zM1464 712q0 318 -180 508t-471 189q-291 0 -474 -188q-183 -187 -183 -505t182 -504t474 -187q292 0 472 185q180 184 180 502zM813 1444q311 0 503 -197t191 -533q0 -336 -191 -530q-192 -194 -504 -194t-506 196t-194 529t196 531
q194 198 505 198z" />
    <glyph glyph-name="Ocircumflex" unicode="&#xd4;" horiz-adv-x="1619" 
d="M834 1739l210 -219h-40l-191 198l-192 -198h-41l213 219h41zM1464 712q0 318 -180 508t-471 189q-291 0 -474 -188q-183 -187 -183 -505t182 -504t474 -187q292 0 472 185q180 184 180 502zM813 1444q311 0 503 -197t191 -533q0 -336 -191 -530q-192 -194 -504 -194
t-506 196t-194 529t196 531q194 198 505 198z" />
    <glyph glyph-name="Otilde" unicode="&#xd5;" horiz-adv-x="1619" 
d="M938 1610q-39 0 -126 39t-134 39q-80 0 -111 -72l-20 8q39 94 137 94q45 0 129 -39t131 -39q82 0 113 72l18 -8q-37 -94 -137 -94zM1464 712q0 318 -180 508t-471 189q-291 0 -474 -188q-183 -187 -183 -505t182 -504t474 -187q292 0 472 185q180 184 180 502zM813 1444
q311 0 503 -197t191 -533q0 -336 -191 -530q-192 -194 -504 -194t-506 196t-194 529t196 531q194 198 505 198z" />
    <glyph glyph-name="Odieresis" unicode="&#xd6;" horiz-adv-x="1619" 
d="M942 1536v233h33v-233h-33zM621 1536v233h32v-233h-32zM1464 712q0 318 -180 508t-471 189q-291 0 -474 -188q-183 -187 -183 -505t182 -504t474 -187q292 0 472 185q180 184 180 502zM813 1444q311 0 503 -197t191 -533q0 -336 -191 -530q-192 -194 -504 -194t-506 196
t-194 529t196 531q194 198 505 198z" />
    <glyph glyph-name="multiply" unicode="&#xd7;" horiz-adv-x="954" 
d="M121 1014l22 24l334 -336l334 336l25 -24l-334 -336l334 -336l-25 -25l-334 336l-334 -336l-22 25l332 336z" />
    <glyph glyph-name="Oslash" unicode="&#xd8;" horiz-adv-x="1619" 
d="M811 1409q-289 0 -472 -188t-183 -508q0 -385 262 -572l751 1172q-157 96 -358 96zM1464 713q0 395 -270 583l-752 -1171q158 -100 369 -100q293 -1 473 185t180 503zM811 1444q213 0 379 -98l92 143h37l-102 -160q137 -94 214 -252t76 -364q0 -334 -191 -529t-505 -194
q-225 0 -389 102l-96 -149h-37l106 166q-283 197 -282 604q1 335 195 533t503 198z" />
    <glyph glyph-name="Ugrave" unicode="&#xd9;" horiz-adv-x="1454" 
d="M676 1735l84 -215h-31l-92 215h39zM1247 1434v-971q0 -219 -148 -346q-147 -127 -371 -127t-373 127q-148 127 -148 346v971h41v-977q0 -193 139 -313t340 -120t340 120t139 313v977h41z" />
    <glyph glyph-name="Uacute" unicode="&#xda;" horiz-adv-x="1454" 
d="M872 1739l-124 -219h-31l117 219h38zM1247 1434v-971q0 -219 -148 -346q-147 -127 -371 -127t-373 127q-148 127 -148 346v971h41v-977q0 -193 139 -313t340 -120t340 120t139 313v977h41z" />
    <glyph glyph-name="Ucircumflex" unicode="&#xdb;" horiz-adv-x="1454" 
d="M750 1739l211 -219h-41l-191 198l-192 -198h-41l213 219h41zM1247 1434v-971q0 -219 -148 -346q-147 -127 -371 -127t-373 127q-148 127 -148 346v971h41v-977q0 -193 139 -313t340 -120t340 120t139 313v977h41z" />
    <glyph glyph-name="Udieresis" unicode="&#xdc;" horiz-adv-x="1454" 
d="M858 1536v233h33v-233h-33zM537 1536v233h32v-233h-32zM1247 1434v-971q0 -219 -148 -346q-147 -127 -371 -127t-373 127q-148 127 -148 346v971h41v-977q0 -193 139 -313t340 -120t340 120t139 313v977h41z" />
    <glyph glyph-name="Yacute" unicode="&#xdd;" horiz-adv-x="1214" 
d="M754 1739l-125 -219h-31l117 219h39zM629 0h-41v588l-514 846h45l487 -807l490 807h45l-512 -844v-590z" />
    <glyph glyph-name="Thorn" unicode="&#xde;" horiz-adv-x="1349" 
d="M270 352h609q155 0 247 109t92 267t-92 266q-94 108 -247 108h-609v-750zM270 1137h613q170 0 275 -118q106 -118 106 -291t-106 -292t-275 -119h-613v-317h-41v1434h41v-297z" />
    <glyph glyph-name="germandbls" unicode="&#xdf;" horiz-adv-x="1171" 
d="M907 1155q-1 -66 -27 -121t-59 -88q-86 -86 -86 -194t126 -193q53 -35 105 -74t89 -103t37 -151q0 -135 -85 -211t-253 -76t-310 52l7 37q31 -13 119 -33t175 -20q152 0 229 66t77 194q0 127 -92 201q-59 47 -160 123t-101 180t85 212t85 202q0 93 -68 172
q-69 79 -245 79q-66 1 -127 -23t-99 -58t-67 -104t-29 -165v-1059h-40v1053q0 104 30 181q31 77 73 116q42 38 110 66t151 28q168 0 259 -81t91 -208z" />
    <glyph glyph-name="agrave" unicode="&#xe0;" horiz-adv-x="1165" 
d="M532 1495h39l84 -301h-30zM498 23q169 0 301 107q131 108 131 265v168q-213 27 -398 27q-397 0 -397 -287q0 -150 97 -215t266 -65zM585 1075q202 1 294 -71t92 -248v-658q0 -66 73 -65q20 0 58 4l2 -33q-31 -6 -72 -6q-102 0 -102 92l2 172q-45 -125 -171 -199
q-126 -73 -291 -73t-270 77t-106 234q0 322 436 322q160 0 400 -29v168q0 162 -87 221t-274 59t-366 -51l-6 35q186 49 388 49z" />
    <glyph glyph-name="aacute" unicode="&#xe1;" horiz-adv-x="1165" 
d="M735 1497l-125 -303h-30l116 303h39zM498 23q169 0 301 107q131 108 131 265v168q-213 27 -398 27q-397 0 -397 -287q0 -150 97 -215t266 -65zM585 1075q202 1 294 -71t92 -248v-658q0 -66 73 -65q20 0 58 4l2 -33q-31 -6 -72 -6q-102 0 -102 92l2 172
q-45 -125 -171 -199q-126 -73 -291 -73t-270 77t-106 234q0 322 436 322q160 0 400 -29v168q0 162 -87 221t-274 59t-366 -51l-6 35q186 49 388 49z" />
    <glyph glyph-name="acircumflex" unicode="&#xe2;" horiz-adv-x="1165" 
d="M842 1194h-39l-193 281l-194 -281h-39l213 305h41zM498 23q169 0 301 107q131 108 131 265v168q-213 27 -398 27q-397 0 -397 -287q0 -150 97 -215t266 -65zM585 1075q202 1 294 -71t92 -248v-658q0 -66 73 -65q20 0 58 4l2 -33q-31 -6 -72 -6q-102 0 -102 92l2 172
q-45 -125 -171 -199q-126 -73 -291 -73t-270 77t-106 234q0 322 436 322q160 0 400 -29v168q0 162 -87 221t-274 59t-366 -51l-6 35q186 49 388 49z" />
    <glyph glyph-name="atilde" unicode="&#xe3;" horiz-adv-x="1165" 
d="M729 1284q-39 0 -126 39t-134 39q-80 0 -111 -72l-20 8q39 94 137 95q45 0 129 -39t131 -39q82 -1 113 71l18 -8q-37 -94 -137 -94zM498 23q169 0 301 107q131 108 131 265v168q-213 27 -398 27q-397 0 -397 -287q0 -150 97 -215t266 -65zM585 1075q202 1 294 -71
t92 -248v-658q0 -66 73 -65q20 0 58 4l2 -33q-31 -6 -72 -6q-102 0 -102 92l2 172q-45 -125 -171 -199q-126 -73 -291 -73t-270 77t-106 234q0 322 436 322q160 0 400 -29v168q0 162 -87 221t-274 59t-366 -51l-6 35q186 49 388 49z" />
    <glyph glyph-name="adieresis" unicode="&#xe4;" horiz-adv-x="1165" 
d="M750 1229v233h32v-233h-32zM430 1229v233h33v-233h-33zM498 23q169 0 301 107q131 108 131 265v168q-213 27 -398 27q-397 0 -397 -287q0 -150 97 -215t266 -65zM585 1075q202 1 294 -71t92 -248v-658q0 -66 73 -65q20 0 58 4l2 -33q-31 -6 -72 -6q-102 0 -102 92l2 172
q-45 -125 -171 -199q-126 -73 -291 -73t-270 77t-106 234q0 322 436 322q160 0 400 -29v168q0 162 -87 221t-274 59t-366 -51l-6 35q186 49 388 49z" />
    <glyph glyph-name="aring" unicode="&#xe5;" horiz-adv-x="1165" 
d="M623 1487q-57 0 -95 -34t-36 -92q0 -58 36 -92t94 -34t95 34t37 92t-37 92t-94 34zM623 1513q73 -1 117 -41t44 -111t-46 -112t-116 -41t-115 41q-46 41 -46 112t45 111t117 41zM498 23q169 0 301 107q131 108 131 265v168q-213 27 -398 27q-397 0 -397 -287
q0 -150 97 -215t266 -65zM585 1075q202 1 294 -71t92 -248v-658q0 -66 73 -65q20 0 58 4l2 -33q-31 -6 -72 -6q-102 0 -102 92l2 172q-45 -125 -171 -199q-126 -73 -291 -73t-270 77t-106 234q0 322 436 322q160 0 400 -29v168q0 162 -87 221t-274 59t-366 -51l-6 35
q186 49 388 49z" />
    <glyph glyph-name="ae" unicode="&#xe6;" horiz-adv-x="1941" 
d="M542 590q-406 0 -407 -282q0 -152 96 -220q96 -66 249 -66q152 0 262 66t161 178q-59 137 -51 303q-126 21 -310 21zM1365 1042q-212 0 -342 -138t-134 -357h905q0 219 -108 357q-109 138 -321 138zM1366 1075q229 1 349 -149t120 -371q0 -20 -4 -41h-942
q-3 -166 67 -274q143 -217 441 -217q180 0 360 88l10 -35q-195 -86 -368 -86q-332 0 -475 237q-129 -238 -455 -237q-166 0 -270 78t-105 237q0 317 461 318q145 0 297 -21q18 127 74 234q-18 118 -104 162t-262 44q-175 0 -357 -51l-6 35q185 49 369 49t271 -45t115 -151
q144 196 414 196z" />
    <glyph glyph-name="ccedilla" unicode="&#xe7;" horiz-adv-x="1073" 
d="M676 1075q166 0 295 -51l-8 -31q-133 49 -285 49q-234 0 -374 -136t-140 -374t141 -374t379 -135q127 0 279 61l8 -33q-154 -61 -291 -61h-29l-41 -133q182 12 183 -117q0 -125 -170 -125q-66 0 -138 27l7 28q61 -27 124 -26q139 0 140 94q0 115 -166 88l-15 16l48 150
q-225 16 -363 160t-137 388q0 244 153 390q154 145 400 145z" />
    <glyph glyph-name="egrave" unicode="&#xe8;" horiz-adv-x="1189" 
d="M575 1495h39l84 -301h-30zM642 1042q-212 0 -343 -137t-135 -358h909q0 219 -109 357q-110 138 -322 138zM682 23q176 0 352 88l10 -35q-190 -86 -364 -86q-262 0 -410 148q-147 148 -147 391t143 395q142 152 374 152t352 -150t120 -371q0 -21 -4 -41h-944
q2 -227 143 -359t375 -132z" />
    <glyph glyph-name="eacute" unicode="&#xe9;" horiz-adv-x="1189" 
d="M713 1497l-125 -303h-31l117 303h39zM642 1042q-212 0 -343 -137t-135 -358h909q0 219 -109 357q-110 138 -322 138zM682 23q176 0 352 88l10 -35q-190 -86 -364 -86q-262 0 -410 148q-147 148 -147 391t143 395q142 152 374 152t352 -150t120 -371q0 -21 -4 -41h-944
q2 -227 143 -359t375 -132z" />
    <glyph glyph-name="ecircumflex" unicode="&#xea;" horiz-adv-x="1189" 
d="M856 1194h-39l-192 281l-195 -281h-39l213 305h41zM642 1042q-212 0 -343 -137t-135 -358h909q0 219 -109 357q-110 138 -322 138zM682 23q176 0 352 88l10 -35q-190 -86 -364 -86q-262 0 -410 148q-147 148 -147 391t143 395q142 152 374 152t352 -150t120 -371
q0 -21 -4 -41h-944q2 -227 143 -359t375 -132z" />
    <glyph glyph-name="edieresis" unicode="&#xeb;" horiz-adv-x="1189" 
d="M782 1229v233h33v-233h-33zM463 1229v233h33v-233h-33zM642 1042q-212 0 -343 -137t-135 -358h909q0 219 -109 357q-110 138 -322 138zM682 23q176 0 352 88l10 -35q-190 -86 -364 -86q-262 0 -410 148q-147 148 -147 391t143 395q142 152 374 152t352 -150t120 -371
q0 -21 -4 -41h-944q2 -227 143 -359t375 -132z" />
    <glyph glyph-name="igrave" unicode="&#xec;" horiz-adv-x="430" 
d="M111 1495h39l83 -301h-30zM240 1065v-1065h-41v1032h-129v33h170z" />
    <glyph glyph-name="iacute" unicode="&#xed;" horiz-adv-x="430" 
d="M348 1497l-125 -303h-30l116 303h39zM240 1065v-1065h-41v1032h-129v33h170z" />
    <glyph glyph-name="icircumflex" unicode="&#xee;" horiz-adv-x="430" 
d="M430 1194h-39l-192 281l-195 -281h-39l213 305h41zM240 1065v-1065h-41v1032h-129v33h170z" />
    <glyph glyph-name="idieresis" unicode="&#xef;" horiz-adv-x="430" 
d="M332 1229v233h33v-233h-33zM12 1229v233h33v-233h-33zM240 1065v-1065h-41v1032h-129v33h170z" />
    <glyph glyph-name="eth" unicode="&#xf0;" horiz-adv-x="1228" 
d="M614 940q-196 0 -316 -124t-120 -331t116 -335t316 -127q200 -1 319 125q118 126 118 338t-119 333q-118 121 -314 121zM1100 580q0 -302 -130 -446t-358 -144t-351 137q-124 137 -124 361t133 354t336 131q291 0 413 -239q30 -58 42 -120q-9 453 -336 744l-219 -146
l-12 19l215 143q-119 102 -283 182l31 15q150 -68 276 -180l193 129l14 -19l-188 -125q348 -319 348 -796z" />
    <glyph glyph-name="ntilde" unicode="&#xf1;" horiz-adv-x="1245" 
d="M758 1284q-39 0 -126 39t-134 39q-80 0 -111 -72l-20 8q39 94 137 95q45 0 129 -39t131 -39q82 -1 113 71l18 -8q-37 -94 -137 -94zM680 1075q186 1 286 -111q101 -112 101 -307v-657h-41v662q0 180 -93 280t-265 100q-215 0 -327 -142t-112 -312v-588h-41v1065h35
l4 -295q47 129 157 217t296 88z" />
    <glyph glyph-name="ograve" unicode="&#xf2;" horiz-adv-x="1304" 
d="M569 1495h39l84 -301h-30zM652 1042q-212 0 -350 -139t-138 -373t138 -372q138 -140 350 -140t350 140t139 372q-1 232 -139 372t-350 140zM652 1075q228 0 379 -148q151 -149 151 -397t-151 -396t-379 -148t-379 150t-151 396t151 395q151 148 379 148z" />
    <glyph glyph-name="oacute" unicode="&#xf3;" horiz-adv-x="1304" 
d="M719 1497l-125 -303h-31l117 303h39zM652 1042q-212 0 -350 -139t-138 -373t138 -372q138 -140 350 -140t350 140t139 372q-1 232 -139 372t-350 140zM652 1075q228 0 379 -148q151 -149 151 -397t-151 -396t-379 -148t-379 150t-151 396t151 395q151 148 379 148z" />
    <glyph glyph-name="ocircumflex" unicode="&#xf4;" horiz-adv-x="1304" 
d="M885 1194h-39l-193 281l-194 -281h-39l213 305h41zM652 1042q-212 0 -350 -139t-138 -373t138 -372q138 -140 350 -140t350 140t139 372q-1 232 -139 372t-350 140zM652 1075q228 0 379 -148q151 -149 151 -397t-151 -396t-379 -148t-379 150t-151 396t151 395
q151 148 379 148z" />
    <glyph glyph-name="otilde" unicode="&#xf5;" horiz-adv-x="1304" 
d="M784 1284q-39 0 -126 39t-134 39q-80 0 -110 -72l-21 8q39 94 137 95q46 0 130 -39t131 -39q81 -1 112 71l19 -8q-37 -94 -138 -94zM652 1042q-212 0 -350 -139t-138 -373t138 -372q138 -140 350 -140t350 140t139 372q-1 232 -139 372t-350 140zM652 1075
q228 0 379 -148q151 -149 151 -397t-151 -396t-379 -148t-379 150t-151 396t151 395q151 148 379 148z" />
    <glyph glyph-name="odieresis" unicode="&#xf6;" horiz-adv-x="1304" 
d="M795 1229v233h32v-233h-32zM475 1229v233h33v-233h-33zM652 1042q-212 0 -350 -139t-138 -373t138 -372q138 -140 350 -140t350 140t139 372q-1 232 -139 372t-350 140zM652 1075q228 0 379 -148q151 -149 151 -397t-151 -396t-379 -148t-379 150t-151 396t151 395
q151 148 379 148z" />
    <glyph glyph-name="divide" unicode="&#xf7;" horiz-adv-x="1204" 
d="M586 152v233h30v-233h-30zM586 907v234h30v-234h-30zM1026 666v-35h-848v35h848z" />
    <glyph glyph-name="oslash" unicode="&#xf8;" horiz-adv-x="1304" 
d="M651 1042q-211 0 -349 -139t-138 -373q0 -281 192 -419l555 864q-110 67 -260 67zM1141 530q0 291 -207 428l-555 -864q121 -76 272 -76q213 0 351 140t139 372zM651 1075q158 0 279 -71l84 129h33l-93 -144q227 -154 228 -459q0 -248 -151 -396t-380 -148
q-164 0 -291 77l-84 -131h-34l94 148q-213 150 -213 450q0 248 150 397q151 148 378 148z" />
    <glyph glyph-name="ugrave" unicode="&#xf9;" horiz-adv-x="1245" 
d="M553 1495h39l84 -301h-31zM564 -10q-184 0 -284 112t-102 306v657h41v-662q0 -180 93 -280t266 -100q214 0 326 142t112 312v588h41v-1065h-35l-6 295q-43 -129 -155 -217q-113 -88 -297 -88z" />
    <glyph glyph-name="uacute" unicode="&#xfa;" horiz-adv-x="1245" 
d="M715 1497l-125 -303h-31l117 303h39zM564 -10q-184 0 -284 112t-102 306v657h41v-662q0 -180 93 -280t266 -100q214 0 326 142t112 312v588h41v-1065h-35l-6 295q-43 -129 -155 -217q-113 -88 -297 -88z" />
    <glyph glyph-name="ucircumflex" unicode="&#xfb;" horiz-adv-x="1245" 
d="M858 1194h-39l-192 281l-195 -281h-39l213 305h41zM564 -10q-184 0 -284 112t-102 306v657h41v-662q0 -180 93 -280t266 -100q214 0 326 142t112 312v588h41v-1065h-35l-6 295q-43 -129 -155 -217q-113 -88 -297 -88z" />
    <glyph glyph-name="udieresis" unicode="&#xfc;" horiz-adv-x="1245" 
d="M774 1229v233h33v-233h-33zM455 1229v233h32v-233h-32zM564 -10q-184 0 -284 112t-102 306v657h41v-662q0 -180 93 -280t266 -100q214 0 326 142t112 312v588h41v-1065h-35l-6 295q-43 -129 -155 -217q-113 -88 -297 -88z" />
    <glyph glyph-name="yacute" unicode="&#xfd;" horiz-adv-x="1132" 
d="M719 1497l-125 -303h-31l117 303h39zM259 -352q-50 0 -116 14l2 37q72 -16 125 -16q92 0 150 61q57 61 110 195l23 55l-457 1071h43l434 -1024l418 1024h43l-467 -1145q-74 -181 -155 -232q-41 -26 -72 -33t-81 -7z" />
    <glyph glyph-name="thorn" unicode="&#xfe;" horiz-adv-x="1306" 
d="M681 23q212 0 336 139t124 370q0 230 -123 370t-331 140t-332 -141t-124 -367t119 -368q119 -143 331 -143zM692 1075q227 0 360 -151q132 -152 132 -392t-133 -392t-363 -150q-168 0 -286 84t-169 233v-655h-40v1782h40v-672q57 156 179 234t280 79z" />
    <glyph glyph-name="ydieresis" unicode="&#xff;" horiz-adv-x="1132" 
d="M700 1229v233h33v-233h-33zM381 1229v233h33v-233h-33zM259 -352q-50 0 -116 14l2 37q72 -16 125 -16q92 0 150 61q57 61 110 195l23 55l-457 1071h43l434 -1024l418 1024h43l-467 -1145q-74 -181 -155 -232q-41 -26 -72 -33t-81 -7z" />
    <glyph glyph-name="Amacron" unicode="&#x100;" horiz-adv-x="1341" 
d="M961 1673v-28h-580v28h580zM670 1405l-396 -952h795l-397 952h-2zM696 1444l604 -1444h-43l-174 418h-823l-174 -418h-45l604 1444h51z" />
    <glyph glyph-name="amacron" unicode="&#x101;" horiz-adv-x="1165" 
d="M874 1348v-29h-579v29h579zM498 23q169 0 301 107q131 108 131 265v168q-213 27 -398 27q-397 0 -397 -287q0 -150 97 -215t266 -65zM585 1075q202 1 294 -71t92 -248v-658q0 -66 73 -65q20 0 58 4l2 -33q-31 -6 -72 -6q-102 0 -102 92l2 172q-45 -125 -171 -199
q-126 -73 -291 -73t-270 77t-106 234q0 322 436 322q160 0 400 -29v168q0 162 -87 221t-274 59t-366 -51l-6 35q186 49 388 49z" />
    <glyph glyph-name="Abreve" unicode="&#x102;" horiz-adv-x="1341" 
d="M672 1559q-188 0 -232 186l31 4q47 -162 201 -162t198 162l33 -4q-43 -186 -231 -186zM670 1405l-396 -952h795l-397 952h-2zM696 1444l604 -1444h-43l-174 418h-823l-174 -418h-45l604 1444h51z" />
    <glyph glyph-name="abreve" unicode="&#x103;" horiz-adv-x="1165" 
d="M584 1233q-188 0 -232 188l31 4q47 -164 199 -164t200 164l33 -4q-43 -188 -231 -188zM498 23q169 0 301 107q131 108 131 265v168q-213 27 -398 27q-397 0 -397 -287q0 -150 97 -215t266 -65zM585 1075q202 1 294 -71t92 -248v-658q0 -66 73 -65q20 0 58 4l2 -33
q-31 -6 -72 -6q-102 0 -102 92l2 172q-45 -125 -171 -199q-126 -73 -291 -73t-270 77t-106 234q0 322 436 322q160 0 400 -29v168q0 162 -87 221t-274 59t-366 -51l-6 35q186 49 388 49z" />
    <glyph glyph-name="Aogonek" unicode="&#x104;" horiz-adv-x="1341" 
d="M670 1405l-396 -952h795l-397 952h-2zM1159 -198q0 -114 101 -113q37 0 67 10l4 -27q-33 -12 -85 -12t-86 34t-34 97q0 121 134 209h-3l-174 418h-823l-174 -418h-45l604 1444h51l604 -1444h-2q-139 -84 -139 -198z" />
    <glyph glyph-name="aogonek" unicode="&#x105;" horiz-adv-x="1165" 
d="M498 23q169 0 301 107q131 108 131 265v168q-213 27 -398 27q-397 0 -397 -287q0 -150 97 -215t266 -65zM585 1075q202 1 294 -71t92 -248v-658q0 -66 73 -65q20 0 58 4l2 -33q-31 -6 -72 -6h-6q-135 -80 -135 -194t100 -115q37 0 68 10l4 -27q-33 -12 -85 -12t-86 34
t-34 97q0 123 135 211q-63 14 -63 88l2 172q-45 -125 -171 -199q-126 -73 -291 -73t-270 77t-106 234q0 322 436 322q160 0 400 -29v168q0 162 -87 221t-274 59t-366 -51l-6 35q186 49 388 49z" />
    <glyph glyph-name="Cacute" unicode="&#x106;" horiz-adv-x="1378" 
d="M981 1739l-125 -219h-31l117 219h39zM870 1444q227 0 394 -72l-11 -33q-53 23 -157 47t-215 23q-315 -1 -512 -193t-197 -500t197 -500t512 -191q102 -1 211 21t163 44l11 -35q-174 -66 -389 -65q-330 0 -539 200t-209 527q-1 327 207 527t534 200z" />
    <glyph glyph-name="cacute" unicode="&#x107;" horiz-adv-x="1073" 
d="M762 1497l-125 -303h-31l117 303h39zM676 1075q166 0 295 -51l-8 -31q-133 49 -285 49q-234 0 -374 -136t-140 -374t141 -374t379 -135q127 0 279 61l8 -33q-154 -61 -291 -61q-250 0 -404 145t-153 397q0 252 153 398q154 145 400 145z" />
    <glyph glyph-name="Ccircumflex" unicode="&#x108;" horiz-adv-x="1378" 
d="M858 1739l211 -219h-41l-190 198l-193 -198h-41l213 219h41zM870 1444q227 0 394 -72l-11 -33q-53 23 -157 47t-215 23q-315 -1 -512 -193t-197 -500t197 -500t512 -191q102 -1 211 21t163 44l11 -35q-174 -66 -389 -65q-330 0 -539 200t-209 527q-1 327 207 527t534 200
z" />
    <glyph glyph-name="ccircumflex" unicode="&#x109;" horiz-adv-x="1073" 
d="M881 1194h-39l-193 281l-194 -281h-39l213 305h41zM676 1075q166 0 295 -51l-8 -31q-133 49 -285 49q-234 0 -374 -136t-140 -374t141 -374t379 -135q127 0 279 61l8 -33q-154 -61 -291 -61q-250 0 -404 145t-153 397q0 252 153 398q154 145 400 145z" />
    <glyph glyph-name="Cdotaccent" unicode="&#x10a;" horiz-adv-x="1378" 
d="M872 1536v233h31v-233h-31zM870 1444q227 0 394 -72l-11 -33q-53 23 -157 47t-215 23q-315 -1 -512 -193t-197 -500t197 -500t512 -191q102 -1 211 21t163 44l11 -35q-174 -66 -389 -65q-330 0 -539 200t-209 527q-1 327 207 527t534 200z" />
    <glyph glyph-name="cdotaccent" unicode="&#x10b;" horiz-adv-x="1073" 
d="M635 1229v233h33v-233h-33zM676 1075q166 0 295 -51l-8 -31q-133 49 -285 49q-234 0 -374 -136t-140 -374t141 -374t379 -135q127 0 279 61l8 -33q-154 -61 -291 -61q-250 0 -404 145t-153 397q0 252 153 398q154 145 400 145z" />
    <glyph glyph-name="Ccaron" unicode="&#x10c;" horiz-adv-x="1378" 
d="M856 1520h-41l-213 219h41l193 -199l190 199h41zM870 1444q227 0 394 -72l-11 -33q-53 23 -157 47t-215 23q-315 -1 -512 -193t-197 -500t197 -500t512 -191q102 -1 211 21t163 44l11 -35q-174 -66 -389 -65q-330 0 -539 200t-209 527q-1 327 207 527t534 200z" />
    <glyph glyph-name="ccaron" unicode="&#x10d;" horiz-adv-x="1073" 
d="M872 1499l-210 -305h-41l-213 305h38l195 -280l193 280h38zM676 1075q166 0 295 -51l-8 -31q-133 49 -285 49q-234 0 -374 -136t-140 -374t141 -374t379 -135q127 0 279 61l8 -33q-154 -61 -291 -61q-250 0 -404 145t-153 397q0 252 153 398q154 145 400 145z" />
    <glyph glyph-name="Dcaron" unicode="&#x10e;" horiz-adv-x="1533" 
d="M756 1520h-41l-213 219h41l192 -199l191 199h41zM768 1399h-498v-1364h496q92 0 202 43q110 42 196 118t140 218q52 142 52 318q0 175 -73 331t-208 242q-153 94 -307 94zM229 1434h545q160 0 314 -92t231 -256q78 -166 79 -372t-78 -371t-237 -253q-150 -90 -309 -90
h-545v1434z" />
    <glyph glyph-name="dcaron" unicode="&#x10f;" horiz-adv-x="1294" 
d="M1065 530q0 224 -119 368t-331 144q-211 0 -335 -139t-124 -371t123 -370q123 -139 331 -139t331 141q124 141 124 366zM1063 1499h41v-1499h-35l-4 311q-57 -161 -179 -241t-282 -80q-227 0 -359 152t-132 390q0 240 133 392t362 151q168 0 286 -84t169 -233v741z
M1257 1499q0 -121 -16 -285h-22q10 142 6 285h32z" />
    <glyph glyph-name="Dcroat" unicode="&#x110;" horiz-adv-x="1533" 
d="M768 1399h-498v-686h396v-29h-396v-649h496q92 0 202 43q110 42 196 118t140 218q52 142 52 318q0 175 -73 331t-208 242q-153 94 -307 94zM229 1434h545q160 0 314 -92t231 -256q78 -166 79 -372t-78 -371t-237 -253q-150 -90 -309 -90h-545v684h-194v29h194v721z" />
    <glyph glyph-name="dcroat" unicode="&#x111;" horiz-adv-x="1294" 
d="M1065 530q0 224 -119 368t-331 144q-211 0 -335 -139t-124 -371t123 -370q123 -139 331 -139t331 141q124 141 124 366zM1063 1499h41v-213h186v-20h-186v-1266h-35l-4 311q-57 -161 -179 -241t-282 -80q-227 0 -359 152t-132 390q0 240 133 392t362 151q168 0 286 -84
t169 -233v508h-371v20h371v213z" />
    <glyph glyph-name="Emacron" unicode="&#x112;" horiz-adv-x="1331" 
d="M1016 1673v-28h-580v28h580zM1184 1434v-35h-914v-684h787v-35h-787v-645h953v-35h-994v1434h955z" />
    <glyph glyph-name="emacron" unicode="&#x113;" horiz-adv-x="1218" 
d="M926 1348v-29h-580v29h580zM642 1042q-212 0 -343 -137t-135 -358h909q0 219 -109 357q-110 138 -322 138zM682 23q176 0 352 88l10 -35q-190 -86 -364 -86q-262 0 -410 148q-147 148 -147 391t143 395q142 152 374 152t352 -150t120 -371q0 -21 -4 -41h-944
q2 -227 143 -359t375 -132z" />
    <glyph glyph-name="Ebreve" unicode="&#x114;" horiz-adv-x="1331" 
d="M727 1559q-188 0 -231 186l30 4q47 -162 202 -162t198 162l32 -4q-43 -186 -231 -186zM1184 1434v-35h-914v-684h787v-35h-787v-645h953v-35h-994v1434h955z" />
    <glyph glyph-name="ebreve" unicode="&#x115;" horiz-adv-x="1218" 
d="M637 1233q-188 0 -231 188l30 4q47 -164 200 -164t200 164l32 -4q-43 -188 -231 -188zM642 1042q-212 0 -343 -137t-135 -358h909q0 219 -109 357q-110 138 -322 138zM682 23q176 0 352 88l10 -35q-190 -86 -364 -86q-262 0 -410 148q-147 148 -147 391t143 395
q142 152 374 152t352 -150t120 -371q0 -21 -4 -41h-944q2 -227 143 -359t375 -132z" />
    <glyph glyph-name="Edotaccent" unicode="&#x116;" horiz-adv-x="1331" 
d="M713 1536v233h30v-233h-30zM1184 1434v-35h-914v-684h787v-35h-787v-645h953v-35h-994v1434h955z" />
    <glyph glyph-name="edotaccent" unicode="&#x117;" horiz-adv-x="1218" 
d="M621 1229v233h32v-233h-32zM642 1042q-212 0 -343 -137t-135 -358h909q0 219 -109 357q-110 138 -322 138zM682 23q176 0 352 88l10 -35q-190 -86 -364 -86q-262 0 -410 148q-147 148 -147 391t143 395q142 152 374 152t352 -150t120 -371q0 -21 -4 -41h-944
q2 -227 143 -359t375 -132z" />
    <glyph glyph-name="Eogonek" unicode="&#x118;" horiz-adv-x="1331" 
d="M1184 1434v-35h-914v-684h787v-35h-787v-645h953v-35h-11q-139 -84 -139 -198t101 -113q37 0 67 10l4 -27q-33 -12 -85 -12t-86 34t-34 97q0 121 134 209h-945v1434h955z" />
    <glyph glyph-name="eogonek" unicode="&#x119;" horiz-adv-x="1189" 
d="M642 1042q-212 0 -343 -137t-135 -358h909q0 219 -109 357q-110 138 -322 138zM682 23q176 0 352 88l10 -35q-90 -41 -151 -58q-141 -76 -141 -217q0 -113 114 -112q35 0 68 12l2 -29q-31 -12 -84 -12t-91 34t-38 103q0 125 113 209q-78 -16 -156 -16q-262 0 -410 148
q-147 148 -147 391t143 395q142 152 374 152t352 -150t120 -371q0 -21 -4 -41h-944q2 -227 143 -359t375 -132z" />
    <glyph glyph-name="Ecaron" unicode="&#x11a;" horiz-adv-x="1331" 
d="M748 1520h-41l-213 219h41l192 -199l191 199h40zM1184 1434v-35h-914v-684h787v-35h-787v-645h953v-35h-994v1434h955z" />
    <glyph glyph-name="ecaron" unicode="&#x11b;" horiz-adv-x="1218" 
d="M868 1499l-211 -305h-41l-213 305h39l195 -280l192 280h39zM642 1042q-212 0 -343 -137t-135 -358h909q0 219 -109 357q-110 138 -322 138zM682 23q176 0 352 88l10 -35q-190 -86 -364 -86q-262 0 -410 148q-147 148 -147 391t143 395q142 152 374 152t352 -150t120 -371
q0 -21 -4 -41h-944q2 -227 143 -359t375 -132z" />
    <glyph glyph-name="Gcircumflex" unicode="&#x11c;" horiz-adv-x="1542" 
d="M872 1739l211 -219h-41l-190 198l-193 -198h-41l213 219h41zM866 1444q236 0 437 -101l-13 -32q-182 98 -418 98q-306 -1 -502 -193t-196 -498t196 -500t494 -194t502 199v408h-422v35h459v-457q-215 -219 -535 -219t-529 202q-208 202 -208 525q1 323 207 525t528 202z
" />
    <glyph glyph-name="gcircumflex" unicode="&#x11d;" horiz-adv-x="1107" 
d="M813 1194h-39l-192 281l-195 -281h-39l213 305h41zM584 137q-186 0 -273 25q-155 -94 -155 -242t138 -198q114 -41 322 -41q207 0 311 66q40 26 65 74q26 48 26 111q0 117 -84 161t-268 44h-82zM589 1042q-376 0 -376 -292t376 -291q376 -1 376 291t-376 292zM594 1075
q94 0 151 -10h304v-31l-234 -2q190 -72 191 -282q0 -324 -418 -324q-172 0 -273 53q-52 -26 -86 -83q-23 -36 -23 -81t31 -77q65 -68 345 -68h98q190 0 284 -52t93 -184q0 -175 -150 -235q-127 -51 -334 -51q-208 0 -331 61t-123 209t157 256q-104 42 -104 148t117 174
q-117 82 -117 252q0 327 422 327z" />
    <glyph glyph-name="Gbreve" unicode="&#x11e;" horiz-adv-x="1542" 
d="M852 1559q-188 0 -231 186l30 4q47 -162 202 -162t198 162l32 -4q-43 -186 -231 -186zM866 1444q236 0 437 -101l-13 -32q-182 98 -418 98q-306 -1 -502 -193t-196 -498t196 -500t494 -194t502 199v408h-422v35h459v-457q-215 -219 -535 -219t-529 202q-208 202 -208 525
q1 323 207 525t528 202z" />
    <glyph glyph-name="gbreve" unicode="&#x11f;" horiz-adv-x="1146" 
d="M584 137q-186 0 -273 25q-155 -94 -155 -242t138 -198q114 -41 322 -41q207 0 311 66q40 26 65 74q26 48 26 111q0 117 -84 161t-268 44h-82zM589 1042q-376 0 -376 -292t376 -291q376 -1 376 291t-376 292zM594 1075q94 0 151 -10h304v-31l-234 -2q190 -72 191 -282
q0 -324 -418 -324q-172 0 -273 53q-52 -26 -86 -83q-23 -36 -23 -81t31 -77q65 -68 345 -68h98q190 0 284 -52t93 -184q0 -175 -150 -235q-127 -51 -334 -51q-208 0 -331 61t-123 209t157 256q-104 42 -104 148t117 174q-117 82 -117 252q0 327 422 327zM580 1233
q-188 0 -232 188l31 4q47 -164 199 -164t200 164l33 -4q-43 -188 -231 -188z" />
    <glyph glyph-name="Gdotaccent" unicode="&#x120;" horiz-adv-x="1542" 
d="M838 1536v233h30v-233h-30zM866 1444q236 0 437 -101l-13 -32q-182 98 -418 98q-306 -1 -502 -193t-196 -498t196 -500t494 -194t502 199v408h-422v35h459v-457q-215 -219 -535 -219t-529 202q-208 202 -208 525q1 323 207 525t528 202z" />
    <glyph glyph-name="gdotaccent" unicode="&#x121;" horiz-adv-x="1107" 
d="M553 1229v233h33v-233h-33zM584 137q-186 0 -273 25q-155 -94 -155 -242t138 -198q114 -41 322 -41q207 0 311 66q40 26 65 74q26 48 26 111q0 117 -84 161t-268 44h-82zM589 1042q-376 0 -376 -292t376 -291q376 -1 376 291t-376 292zM594 1075q94 0 151 -10h304v-31
l-234 -2q190 -72 191 -282q0 -324 -418 -324q-172 0 -273 53q-52 -26 -86 -83q-23 -36 -23 -81t31 -77q65 -68 345 -68h98q190 0 284 -52t93 -184q0 -175 -150 -235q-127 -51 -334 -51q-208 0 -331 61t-123 209t157 256q-104 42 -104 148t117 174q-117 82 -117 252
q0 327 422 327z" />
    <glyph glyph-name="Gcommaaccent" unicode="&#x122;" horiz-adv-x="1542" 
d="M895 -102q0 -86 -16 -228h-33q10 119 8 228h41zM866 1444q236 0 437 -101l-13 -32q-182 98 -418 98q-306 -1 -502 -193t-196 -498t196 -500t494 -194t502 199v408h-422v35h459v-457q-215 -219 -535 -219t-529 202q-208 202 -208 525q1 323 207 525t528 202z" />
    <glyph glyph-name="gcommaaccent" unicode="&#x123;" horiz-adv-x="1146" 
d="M584 137q-186 0 -273 25q-155 -94 -155 -242t138 -198q114 -41 322 -41q207 0 311 66q40 26 65 74q26 48 26 111q0 117 -84 161t-268 44h-82zM589 1042q-376 0 -376 -292t376 -291q376 -1 376 291t-376 292zM594 1075q94 0 151 -10h304v-31l-234 -2q190 -72 191 -282
q0 -324 -418 -324q-172 0 -273 53q-52 -26 -86 -83q-23 -36 -23 -81t31 -77q65 -68 345 -68h98q190 0 284 -52t93 -184q0 -175 -150 -235q-127 -51 -334 -51q-208 0 -331 61t-123 209t157 256q-104 42 -104 148t117 174q-117 82 -117 252q0 327 422 327zM571 1202
q0 86 17 228h33q-11 -119 -9 -228h-41z" />
    <glyph glyph-name="Hcircumflex" unicode="&#x124;" horiz-adv-x="1525" 
d="M911 1739l211 -219h-41l-190 198l-193 -198h-41l213 219h41zM1296 1434v-1434h-41v702h-985v-702h-41v1434h41v-697h985v697h41z" />
    <glyph glyph-name="hcircumflex" unicode="&#x125;" horiz-adv-x="1249" 
d="M231 1800l211 -219h-41l-190 199l-193 -199h-41l213 219h41zM684 1075q184 1 286 -111q101 -112 101 -307v-657h-41v662q0 180 -93 280t-265 100q-215 0 -327 -142t-112 -312v-588h-40v1499h40v-727q45 129 156 216t295 87z" />
    <glyph glyph-name="Hbar" unicode="&#x126;" horiz-adv-x="1527" 
d="M272 737h985v385h-985v-385zM1298 1434v-283h132v-29h-132v-1122h-41v702h-985v-702h-41v1122h-133v29h133v283h41v-283h985v283h41z" />
    <glyph glyph-name="hbar" unicode="&#x127;" horiz-adv-x="1247" 
d="M684 1075q184 1 286 -111q101 -112 101 -307v-657h-41v662q0 180 -93 280t-265 100q-215 0 -327 -142t-112 -312v-588h-40v1266h-195v20h195v213h40v-213h365v-20h-365v-494q45 129 156 216t295 87z" />
    <glyph glyph-name="Itilde" unicode="&#x128;" horiz-adv-x="499" 
d="M375 1610q-39 0 -126 39t-134 39q-80 0 -111 -72l-20 8q39 94 137 94q45 0 129 -39t131 -39q82 0 113 72l18 -8q-37 -94 -137 -94zM270 1434v-1434h-41v1434h41z" />
    <glyph glyph-name="itilde" unicode="&#x129;" horiz-adv-x="430" 
d="M326 1284q-39 0 -136 41q-78 37 -124 37q-80 0 -111 -72l-21 8q39 94 138 95q45 0 129 -39t131 -39q81 -1 112 71l19 -8q-37 -94 -137 -94zM240 1065v-1065h-41v1032h-129v33h170z" />
    <glyph glyph-name="Imacron" unicode="&#x12a;" horiz-adv-x="499" 
d="M539 1673v-28h-580v28h580zM270 1434v-1434h-41v1434h41z" />
    <glyph glyph-name="imacron" unicode="&#x12b;" horiz-adv-x="430" 
d="M489 1348v-29h-579v29h579zM240 1065v-1065h-41v1032h-129v33h170z" />
    <glyph glyph-name="Ibreve" unicode="&#x12c;" horiz-adv-x="499" 
d="M250 1559q-188 0 -232 186l31 4q47 -162 202 -162t198 162l32 -4q-43 -186 -231 -186zM270 1434v-1434h-41v1434h41z" />
    <glyph glyph-name="ibreve" unicode="&#x12d;" horiz-adv-x="430" 
d="M201 1233q-188 0 -232 188l31 4q48 -164 200 -164t199 164l33 -4q-43 -188 -231 -188zM240 1065v-1065h-41v1032h-129v33h170z" />
    <glyph glyph-name="Iogonek" unicode="&#x12e;" horiz-adv-x="499" 
d="M270 1434v-1434q-139 -84 -139 -198t100 -113q37 0 68 10l4 -27q-33 -12 -85 -12t-86 34t-34 97q0 121 133 209h-2v1434h41z" />
    <glyph glyph-name="iogonek" unicode="&#x12f;" horiz-adv-x="432" 
d="M203 1272v227h37v-227h-37zM240 1065v-1065h-4q-140 -84 -140 -198t101 -113q37 0 67 10l4 -27q-33 -12 -85 -12t-86 34t-34 97q0 125 136 209v1032h-129v33h170z" />
    <glyph glyph-name="Idotaccent" unicode="&#x130;" horiz-adv-x="499" 
d="M236 1536v233h30v-233h-30zM270 1434v-1434h-41v1434h41z" />
    <glyph glyph-name="dotlessi" unicode="&#x131;" horiz-adv-x="430" 
d="M240 1065v-1065h-41v1032h-129v33h170z" />
    <glyph glyph-name="Jcircumflex" unicode="&#x134;" horiz-adv-x="1064" 
d="M854 1739l211 -219h-41l-190 198l-193 -198h-41l213 219h41zM854 1434v-1000q0 -213 -119 -329t-301 -115q-139 0 -241 70t-146 176l29 18q39 -96 136 -163t220 -66q160 0 270 106t111 303v1000h41z" />
    <glyph glyph-name="jcircumflex" unicode="&#x135;" horiz-adv-x="432" 
d="M432 1194h-39l-192 281l-195 -281h-39l213 305h41zM242 1065v-1255q0 -74 -16 -105q-29 -55 -126 -55h-49v35h41q72 1 90 29t19 98v1220h-131v33h172z" />
    <glyph glyph-name="Kcommaaccent" unicode="&#x136;" horiz-adv-x="1333" 
d="M696 -92q0 -86 -16 -227h-33q10 118 8 227h41zM270 0h-41v1434h41v-916l883 916h53l-514 -535l572 -899h-52l-548 870l-394 -407v-463z" />
    <glyph glyph-name="kcommaaccent" unicode="&#x137;" horiz-adv-x="995" 
d="M549 -92q0 -86 -17 -227h-32q10 118 8 227h41zM233 1499v-1081l672 647h47l-413 -401l438 -664h-47l-420 637l-277 -268v-369h-40v1499h40z" />
    <glyph glyph-name="kgreenlandic" unicode="&#x138;" horiz-adv-x="995" 
d="M233 0h-40v1065h40v-647l672 647h47l-415 -401l438 -664h-47l-418 637l-277 -268v-369z" />
    <glyph glyph-name="Lacute" unicode="&#x139;" horiz-adv-x="1128" 
d="M397 1739l-125 -219h-30l116 219h39zM270 1434v-1397h817v-37h-858v1434h41z" />
    <glyph glyph-name="lacute" unicode="&#x13a;" horiz-adv-x="495" 
d="M362 1767l-124 -219h-31l117 219h38zM238 121q0 -98 68 -98h40l57 4h7v-33l-17 -2l-80 -2q-59 0 -88 28t-28 105v1376h41v-1378z" />
    <glyph glyph-name="Lcommaaccent" unicode="&#x13b;" horiz-adv-x="1128" 
d="M680 -92q0 -86 -16 -227h-33q10 118 8 227h41zM270 1434v-1397h817v-37h-858v1434h41z" />
    <glyph glyph-name="lcommaaccent" unicode="&#x13c;" horiz-adv-x="495" 
d="M324 -92q0 -86 -17 -227h-33q11 118 9 227h41zM238 121q0 -98 68 -98h40l57 4h7v-33l-17 -2l-80 -2q-59 0 -88 28t-28 105v1376h41v-1378z" />
    <glyph glyph-name="Lcaron" unicode="&#x13d;" horiz-adv-x="1128" 
d="M270 1434v-1397h817v-37h-858v1434h41zM694 1434h35q0 -162 -14 -285h-21v285z" />
    <glyph glyph-name="lcaron" unicode="&#x13e;" horiz-adv-x="497" 
d="M238 121q0 -98 68 -98h40l57 4h7v-33l-17 -2l-80 -2q-59 0 -88 28t-28 105v1376h41v-1378zM406 1499q0 -121 -17 -285h-22q10 142 6 285h33z" />
    <glyph glyph-name="Lslash" unicode="&#x141;" horiz-adv-x="1130" 
d="M276 1434v-781l338 203v-33l-338 -200v-586h818v-37h-858v598l-173 -102v30l173 103v805h40z" />
    <glyph glyph-name="lslash" unicode="&#x142;" horiz-adv-x="495" 
d="M248 121q0 -98 68 -98h40l58 4h6v-33l-14 -2l-82 -2q-59 0 -88 28t-29 105v475l-127 -76v33l127 76v868h41v-844l205 121v-33l-205 -120v-502z" />
    <glyph glyph-name="Nacute" unicode="&#x143;" horiz-adv-x="1490" 
d="M911 1739l-125 -219h-30l116 219h39zM1262 1434v-1434h-45l-947 1370v-1370h-41v1434h47l945 -1368v1368h41z" />
    <glyph glyph-name="nacute" unicode="&#x144;" horiz-adv-x="1245" 
d="M680 1075q186 1 286 -111q101 -112 101 -307v-657h-41v662q0 180 -93 280t-265 100q-215 0 -327 -142t-112 -312v-588h-41v1065h35l4 -295q47 129 157 217t296 88zM748 1497l-125 -303h-31l117 303h39z" />
    <glyph glyph-name="Ncommaaccent" unicode="&#x145;" horiz-adv-x="1490" 
d="M768 -92q0 -86 -16 -227h-33q10 118 8 227h41zM1262 1434v-1434h-45l-947 1370v-1370h-41v1434h47l945 -1368v1368h41z" />
    <glyph glyph-name="ncommaaccent" unicode="&#x146;" horiz-adv-x="1245" 
d="M641 -92q0 -86 -16 -227h-33q10 118 8 227h41zM680 1075q186 1 286 -111q101 -112 101 -307v-657h-41v662q0 180 -93 280t-265 100q-215 0 -327 -142t-112 -312v-588h-41v1065h35l4 -295q47 129 157 217t296 88z" />
    <glyph glyph-name="Ncaron" unicode="&#x147;" horiz-adv-x="1490" 
d="M786 1520h-41l-213 219h41l193 -199l190 199h41zM1262 1434v-1434h-45l-947 1370v-1370h-41v1434h47l945 -1368v1368h41z" />
    <glyph glyph-name="ncaron" unicode="&#x148;" horiz-adv-x="1245" 
d="M848 1499l-211 -305h-41l-213 305h39l194 -280l193 280h39zM680 1075q186 1 286 -111q101 -112 101 -307v-657h-41v662q0 180 -93 280t-265 100q-215 0 -327 -142t-112 -312v-588h-41v1065h35l4 -295q47 129 157 217t296 88z" />
    <glyph glyph-name="Eng" unicode="&#x14a;" horiz-adv-x="1492" 
d="M1264 1434v-1461q0 -104 -52 -161t-161 -105l-13 31q2 2 20 9q87 35 127 96q36 60 36 128v29l-951 1372v-1372h-41v1434h47l945 -1366v1366h43z" />
    <glyph glyph-name="eng" unicode="&#x14b;" horiz-adv-x="1247" 
d="M678 1075q190 0 290 -121q101 -121 101 -329v-656q0 -102 -52 -158t-159 -106l-10 29q2 0 26 12t32 18l33 22q24 15 49 51q40 56 40 132v660q0 199 -94 307t-270 106q-109 0 -196 -44t-136 -112q-101 -141 -101 -298v-588h-41v1065h35l6 -311q43 131 150 226t297 95z" />
    <glyph glyph-name="Omacron" unicode="&#x14c;" horiz-adv-x="1619" 
d="M1100 1673v-28h-580v28h580zM1464 712q0 318 -180 508t-471 189q-291 0 -474 -188q-183 -187 -183 -505t182 -504t474 -187q292 0 472 185q180 184 180 502zM813 1444q311 0 503 -197t191 -533q0 -336 -191 -530q-192 -194 -504 -194t-506 196t-194 529t196 531
q194 198 505 198z" />
    <glyph glyph-name="omacron" unicode="&#x14d;" horiz-adv-x="1304" 
d="M940 1348v-29h-580v29h580zM652 1042q-212 0 -350 -139t-138 -373t138 -372q138 -140 350 -140t350 140t139 372q-1 232 -139 372t-350 140zM652 1075q228 0 379 -148q151 -149 151 -397t-151 -396t-379 -148t-379 150t-151 396t151 395q151 148 379 148z" />
    <glyph glyph-name="Obreve" unicode="&#x14e;" horiz-adv-x="1619" 
d="M811 1559q-188 0 -231 186l30 4q47 -162 202 -162t198 162l32 -4q-43 -186 -231 -186zM1464 712q0 318 -180 508t-471 189q-291 0 -474 -188q-183 -187 -183 -505t182 -504t474 -187q292 0 472 185q180 184 180 502zM813 1444q311 0 503 -197t191 -533q0 -336 -191 -530
q-192 -194 -504 -194t-506 196t-194 529t196 531q194 198 505 198z" />
    <glyph glyph-name="obreve" unicode="&#x14f;" horiz-adv-x="1304" 
d="M652 1233q-188 0 -232 188l31 4q47 -164 199 -164t200 164l33 -4q-43 -188 -231 -188zM652 1042q-212 0 -350 -139t-138 -373t138 -372q138 -140 350 -140t350 140t139 372q-1 232 -139 372t-350 140zM652 1075q228 0 379 -148q151 -149 151 -397t-151 -396t-379 -148
t-379 150t-151 396t151 395q151 148 379 148z" />
    <glyph glyph-name="Ohungarumlaut" unicode="&#x150;" horiz-adv-x="1619" 
d="M795 1739l-93 -219h-32l84 219h41zM1008 1739l-93 -219h-32l84 219h41zM1464 712q0 318 -180 508t-471 189q-291 0 -474 -188q-183 -187 -183 -505t182 -504t474 -187q292 0 472 185q180 184 180 502zM813 1444q311 0 503 -197t191 -533q0 -336 -191 -530
q-192 -194 -504 -194t-506 196t-194 529t196 531q194 198 505 198z" />
    <glyph glyph-name="ohungarumlaut" unicode="&#x151;" horiz-adv-x="1304" 
d="M848 1499l-92 -305h-33l84 305h41zM635 1499l-92 -305h-33l84 305h41zM652 1042q-212 0 -350 -139t-138 -373t138 -372q138 -140 350 -140t350 140t139 372q-1 232 -139 372t-350 140zM652 1075q228 0 379 -148q151 -149 151 -397t-151 -396t-379 -148t-379 150t-151 396
t151 395q151 148 379 148z" />
    <glyph glyph-name="OE" unicode="&#x152;" horiz-adv-x="2570" 
d="M1464 714q0 318 -179 506t-470 189q-291 0 -473 -188q-182 -187 -182 -505t181 -504t473 -187q292 0 471 185q179 186 179 504zM2423 1434v-35h-914v-684h787v-35h-787v-645h953v-35h-994v446q-68 -216 -240 -336t-415 -120q-311 0 -506 196t-195 529t196 531t505 198
q242 0 414 -122t241 -341v453h955z" />
    <glyph glyph-name="oe" unicode="&#x153;" horiz-adv-x="2248" 
d="M1672 1042q-212 0 -343 -137t-135 -358h909q0 219 -109 357q-110 138 -322 138zM652 1042q-212 0 -350 -139t-138 -373t138 -372q138 -140 350 -140t350 140t139 372q-1 232 -139 372t-350 140zM1712 23q176 0 352 88l11 -35q-190 -86 -388 -86t-339 106t-181 295
q-41 -188 -182 -297t-334 -108q-227 0 -378 150t-151 396t151 395q151 148 361 148q210 -1 351 -109t182 -296q39 186 174 296t348 110t333 -150t120 -371q0 -21 -4 -41h-944q2 -227 143 -359t375 -132z" />
    <glyph glyph-name="Racute" unicode="&#x154;" horiz-adv-x="1392" 
d="M778 1739l-125 -219h-30l116 219h39zM881 1399h-611v-703h611q149 0 249 104t100 250q0 148 -99 248q-100 100 -250 101zM229 1434h654q171 0 281 -110t110 -266t-94 -264t-242 -128l324 -666h-48l-317 662h-627v-662h-41v1434z" />
    <glyph glyph-name="racute" unicode="&#x155;" horiz-adv-x="628" 
d="M428 1497l-125 -303h-31l117 303h39zM233 0h-40v1065h32l4 -256q31 123 121 197t213 59l-4 -39q-153 16 -239 -94t-87 -289v-643z" />
    <glyph glyph-name="Rcommaaccent" unicode="&#x156;" horiz-adv-x="1392" 
d="M756 -92q0 -86 -17 -227h-32q10 118 8 227h41zM881 1399h-611v-703h611q149 0 249 104t100 250q0 148 -99 248q-100 100 -250 101zM229 1434h654q171 0 281 -110t110 -266t-94 -264t-242 -128l324 -666h-48l-317 662h-627v-662h-41v1434z" />
    <glyph glyph-name="rcommaaccent" unicode="&#x157;" horiz-adv-x="628" 
d="M233 -92q0 -86 -16 -227h-33q11 118 9 227h40zM233 0h-40v1065h32l4 -256q31 123 121 197t213 59l-4 -39q-153 16 -239 -94t-87 -289v-643z" />
    <glyph glyph-name="Rcaron" unicode="&#x158;" horiz-adv-x="1392" 
d="M715 1520h-41l-213 219h41l192 -199l191 199h41zM881 1399h-611v-703h611q149 0 249 104t100 250q0 148 -99 248q-100 100 -250 101zM229 1434h654q171 0 281 -110t110 -266t-94 -264t-242 -128l324 -666h-48l-317 662h-627v-662h-41v1434z" />
    <glyph glyph-name="rcaron" unicode="&#x159;" horiz-adv-x="628" 
d="M567 1499l-211 -305h-41l-213 305h39l195 -280l192 280h39zM233 0h-40v1065h32l4 -256q31 123 121 197t213 59l-4 -39q-153 16 -239 -94t-87 -289v-643z" />
    <glyph glyph-name="Sacute" unicode="&#x15a;" horiz-adv-x="1216" 
d="M735 1739l-125 -219h-30l116 219h39zM599 1444q212 0 439 -90l-10 -35q-4 4 -55 24t-157 43t-206 23q-190 0 -312 -80t-122 -233q0 -121 70 -184q39 -36 84 -69t220 -82t226 -64t125 -49t113 -70q38 -36 68 -94t30 -132q0 -174 -131 -268t-375 -94t-483 116l10 33
q283 -115 492 -115t327 87q118 86 117 239q0 118 -79 190q-79 71 -209 111q-130 41 -196 58q-65 18 -115 33q-50 14 -125 50t-114 72t-68 95q-30 60 -30 135q0 164 127 257t339 93z" />
    <glyph glyph-name="sacute" unicode="&#x15b;" horiz-adv-x="958" 
d="M580 1497l-125 -303h-31l117 303h39zM115 807q0 127 96 197t271 71q175 0 333 -57l-6 -33q-139 57 -309 57t-256 -60q-88 -60 -88 -175t93 -167q72 -40 155 -62q221 -56 296 -88q74 -32 100 -58q70 -68 68 -168q0 -131 -99 -203q-99 -71 -281 -71t-379 80l8 30
q176 -78 354 -78t267 63q89 62 89 177q0 78 -50 128t-101 70q-50 20 -120 38l-77 22q-199 51 -262 92q-102 68 -102 195z" />
    <glyph glyph-name="Scircumflex" unicode="&#x15c;" horiz-adv-x="1216" 
d="M645 1739l211 -219h-41l-190 198l-193 -198h-41l213 219h41zM599 1444q212 0 439 -90l-10 -35q-4 4 -55 24t-157 43t-206 23q-190 0 -312 -80t-122 -233q0 -121 70 -184q39 -36 84 -69t220 -82t226 -64t125 -49t113 -70q38 -36 68 -94t30 -132q0 -174 -131 -268t-375 -94
t-483 116l10 33q283 -115 492 -115t327 87q118 86 117 239q0 118 -79 190q-79 71 -209 111q-130 41 -196 58q-65 18 -115 33q-50 14 -125 50t-114 72t-68 95q-30 60 -30 135q0 164 127 257t339 93z" />
    <glyph glyph-name="scircumflex" unicode="&#x15d;" horiz-adv-x="958" 
d="M723 1194h-39l-192 281l-195 -281h-39l213 305h41zM115 807q0 127 96 197t271 71q175 0 333 -57l-6 -33q-139 57 -309 57t-256 -60q-88 -60 -88 -175t93 -167q72 -40 155 -62q221 -56 296 -88q74 -32 100 -58q70 -68 68 -168q0 -131 -99 -203q-99 -71 -281 -71t-379 80
l8 30q176 -78 354 -78t267 63q89 62 89 177q0 78 -50 128t-101 70q-50 20 -120 38l-77 22q-199 51 -262 92q-102 68 -102 195z" />
    <glyph glyph-name="Scedilla" unicode="&#x15e;" horiz-adv-x="1216" 
d="M599 1444q212 0 439 -90l-10 -35q-4 4 -55 24t-157 43t-206 23q-190 0 -312 -80t-122 -233q0 -121 70 -184q39 -36 84 -69t220 -82t226 -64t125 -49t113 -70q38 -36 68 -94t30 -132q0 -170 -125 -264t-346 -98l-41 -133q182 12 182 -115t-170 -127q-66 0 -137 27l6 28
q61 -27 125 -26q139 0 139 94q0 115 -165 88l-15 16l47 148q-260 2 -489 116l10 33q283 -115 492 -115t327 87q118 86 117 239q0 118 -79 190q-79 71 -209 111q-130 41 -196 58q-65 18 -115 33q-50 14 -125 50t-114 72t-68 95q-30 60 -30 135q0 164 127 257t339 93z" />
    <glyph glyph-name="scedilla" unicode="&#x15f;" horiz-adv-x="958" 
d="M115 807q0 127 96 197t271 71q175 0 333 -57l-6 -33q-139 57 -309 57t-256 -60q-88 -60 -88 -175t93 -167q72 -40 155 -62q221 -56 296 -88q74 -32 100 -58q70 -68 68 -168q0 -129 -98 -201t-268 -73l-41 -133q182 12 182 -115t-170 -127q-66 0 -137 27l6 28
q61 -27 125 -26q139 0 139 94q0 115 -166 88l-14 16l47 148q-190 4 -364 80l8 30q176 -78 354 -78t267 63q89 62 89 177q0 78 -50 128t-101 70q-50 20 -120 38l-77 22q-199 51 -262 92q-102 68 -102 195z" />
    <glyph glyph-name="Scaron" unicode="&#x160;" horiz-adv-x="1216" 
d="M645 1520h-41l-213 219h41l193 -199l190 199h41zM599 1444q212 0 439 -90l-10 -35q-4 4 -55 24t-157 43t-206 23q-190 0 -312 -80t-122 -233q0 -121 70 -184q39 -36 84 -69t220 -82t226 -64t125 -49t113 -70q38 -36 68 -94t30 -132q0 -174 -131 -268t-375 -94t-483 116
l10 33q283 -115 492 -115t327 87q118 86 117 239q0 118 -79 190q-79 71 -209 111q-130 41 -196 58q-65 18 -115 33q-50 14 -125 50t-114 72t-68 95q-30 60 -30 135q0 164 127 257t339 93z" />
    <glyph glyph-name="scaron" unicode="&#x161;" horiz-adv-x="958" 
d="M711 1499l-211 -305h-41l-213 305h39l194 -280l193 280h39zM115 807q0 127 96 197t271 71q175 0 333 -57l-6 -33q-139 57 -309 57t-256 -60q-88 -60 -88 -175t93 -167q72 -40 155 -62q221 -56 296 -88q74 -32 100 -58q70 -68 68 -168q0 -131 -99 -203q-99 -71 -281 -71
t-379 80l8 30q176 -78 354 -78t267 63q89 62 89 177q0 78 -50 128t-101 70q-50 20 -120 38l-77 22q-199 51 -262 92q-102 68 -102 195z" />
    <glyph glyph-name="Tcommaaccent" unicode="&#x162;" horiz-adv-x="1155" 
d="M598 -92q0 -86 -16 -227h-33q10 118 8 227h41zM1128 1434v-35h-530v-1399h-41v1399h-530v35h1101z" />
    <glyph glyph-name="tcommaaccent" unicode="&#x163;" horiz-adv-x="630" 
d="M426 -92q0 -86 -16 -227h-33q10 118 8 227h41zM266 1372v-307h320v-33h-320v-758q0 -141 40 -196t157 -55q63 0 123 18l2 -33q-63 -18 -135 -18q-135 0 -182 65q-46 66 -46 221v756h-166v33h166l6 307h35z" />
    <glyph glyph-name="Tcaron" unicode="&#x164;" horiz-adv-x="1155" 
d="M598 1520h-41l-213 219h41l193 -199l190 199h41zM1128 1434v-35h-530v-1399h-41v1399h-530v35h1101z" />
    <glyph glyph-name="tcaron" unicode="&#x165;" horiz-adv-x="630" 
d="M266 1372v-307h320v-33h-320v-758q0 -141 40 -196t157 -55q63 0 123 18l2 -33q-63 -18 -135 -18q-135 0 -182 65q-46 66 -46 221v756h-166v33h166l6 307h35zM461 1497q0 -119 -17 -285h-22q10 142 6 285h33z" />
    <glyph glyph-name="Tbar" unicode="&#x166;" horiz-adv-x="1155" 
d="M1128 1434v-35h-530v-637h403v-29h-403v-733h-41v733h-407v29h407v637h-530v35h1101z" />
    <glyph glyph-name="tbar" unicode="&#x167;" horiz-adv-x="641" 
d="M276 1372v-307h320v-33h-320v-180h320v-21h-320v-557q0 -141 40 -196t157 -55q63 0 123 18l2 -33q-66 -18 -135 -18q-135 0 -181 66t-46 220v555h-166v21h166v180h-166v33h166l6 307h34z" />
    <glyph glyph-name="Utilde" unicode="&#x168;" horiz-adv-x="1454" 
d="M866 1610q-39 0 -126 39t-134 39q-80 0 -110 -72l-21 8q39 94 137 94q46 0 130 -39t130 -39q82 0 113 72l19 -8q-37 -94 -138 -94zM1247 1434v-971q0 -219 -148 -346q-147 -127 -371 -127t-373 127q-148 127 -148 346v971h41v-977q0 -193 139 -313t340 -120t340 120
t139 313v977h41z" />
    <glyph glyph-name="utilde" unicode="&#x169;" horiz-adv-x="1245" 
d="M750 1284q-39 0 -136 41q-78 37 -125 37q-80 0 -110 -72l-21 8q39 94 138 95q45 0 129 -39t131 -39q81 -1 112 71l19 -8q-37 -94 -137 -94zM564 -10q-184 0 -284 112t-102 306v657h41v-662q0 -180 93 -280t266 -100q214 0 326 142t112 312v588h41v-1065h-35l-6 295
q-43 -129 -155 -217q-113 -88 -297 -88z" />
    <glyph glyph-name="Umacron" unicode="&#x16a;" horiz-adv-x="1454" 
d="M1016 1673v-28h-580v28h580zM1247 1434v-971q0 -219 -148 -346q-147 -127 -371 -127t-373 127q-148 127 -148 346v971h41v-977q0 -193 139 -313t340 -120t340 120t139 313v977h41z" />
    <glyph glyph-name="umacron" unicode="&#x16b;" horiz-adv-x="1245" 
d="M913 1348v-29h-579v29h579zM564 -10q-184 0 -284 112t-102 306v657h41v-662q0 -180 93 -280t266 -100q214 0 326 142t112 312v588h41v-1065h-35l-6 295q-43 -129 -155 -217q-113 -88 -297 -88z" />
    <glyph glyph-name="Ubreve" unicode="&#x16c;" horiz-adv-x="1454" 
d="M727 1559q-188 0 -231 186l30 4q47 -162 202 -162t198 162l32 -4q-43 -186 -231 -186zM1247 1434v-971q0 -219 -148 -346q-147 -127 -371 -127t-373 127q-148 127 -148 346v971h41v-977q0 -193 139 -313t340 -120t340 120t139 313v977h41z" />
    <glyph glyph-name="ubreve" unicode="&#x16d;" horiz-adv-x="1245" 
d="M625 1233q-188 0 -232 188l31 4q48 -164 200 -164t199 164l33 -4q-43 -188 -231 -188zM564 -10q-184 0 -284 112t-102 306v657h41v-662q0 -180 93 -280t266 -100q214 0 326 142t112 312v588h41v-1065h-35l-6 295q-43 -129 -155 -217q-113 -88 -297 -88z" />
    <glyph glyph-name="Uring" unicode="&#x16e;" horiz-adv-x="1454" 
d="M727 1812q-57 0 -94 -34t-37 -91q0 -59 37 -93t94 -34t94 34t37 92t-37 92t-94 34zM727 1839q72 0 117 -41q45 -42 45 -112t-46 -111t-116 -41t-116 41t-46 112t45 111t117 41zM1247 1434v-971q0 -219 -148 -346q-147 -127 -371 -127t-373 127q-148 127 -148 346v971h41
v-977q0 -193 139 -313t340 -120t340 120t139 313v977h41z" />
    <glyph glyph-name="uring" unicode="&#x16f;" horiz-adv-x="1245" 
d="M625 1487q-57 0 -95 -34t-36 -92q0 -58 36 -92t94 -34t95 34t37 92t-37 92t-94 34zM625 1513q73 -1 117 -41t44 -111t-46 -112t-116 -41t-115 41q-46 41 -46 112t45 111t117 41zM564 -10q-184 0 -284 112t-102 306v657h41v-662q0 -180 93 -280t266 -100q214 0 326 142
t112 312v588h41v-1065h-35l-6 295q-43 -129 -155 -217q-113 -88 -297 -88z" />
    <glyph glyph-name="Uhungarumlaut" unicode="&#x170;" horiz-adv-x="1454" 
d="M711 1739l-93 -219h-32l84 219h41zM924 1739l-93 -219h-32l84 219h41zM1247 1434v-971q0 -219 -148 -346q-147 -127 -371 -127t-373 127q-148 127 -148 346v971h41v-977q0 -193 139 -313t340 -120t340 120t139 313v977h41z" />
    <glyph glyph-name="uhungarumlaut" unicode="&#x171;" horiz-adv-x="1245" 
d="M801 1499l-92 -305h-33l84 305h41zM588 1499l-92 -305h-33l84 305h41zM564 -10q-184 0 -284 112t-102 306v657h41v-662q0 -180 93 -280t266 -100q214 0 326 142t112 312v588h41v-1065h-35l-6 295q-43 -129 -155 -217q-113 -88 -297 -88z" />
    <glyph glyph-name="Uogonek" unicode="&#x172;" horiz-adv-x="1454" 
d="M1247 1434v-971q1 -186 -109 -307t-284 -154q-145 -86 -145 -207q-1 -51 27 -79q47 -48 143 -17l4 -27q-33 -12 -85 -12t-86 34t-34 97q0 117 127 203q-53 -4 -78 -4q-223 0 -372 127q-148 127 -148 346v971h41v-977q0 -193 139 -313t340 -120t340 120t139 313v977h41z
" />
    <glyph glyph-name="uogonek" unicode="&#x173;" horiz-adv-x="1245" 
d="M564 -10q-184 0 -284 112t-102 306v657h41v-662q0 -180 93 -280t266 -100q214 0 326 142t112 312v588h41v-1065q-139 -84 -139 -198t100 -113q37 0 67 10l5 -27q-33 -12 -85 -12t-86 34t-34 97q0 125 137 211l-6 293q-43 -129 -155 -217q-113 -88 -297 -88z" />
    <glyph glyph-name="Wcircumflex" unicode="&#x174;" horiz-adv-x="1947" 
d="M995 1739l211 -219h-41l-190 198l-193 -198h-41l213 219h41zM1849 1434l-424 -1434h-49l-401 1339l-400 -1339h-53l-424 1434h47l404 -1377h2l399 1348h47l402 -1348h2q36 120 153 535l248 842h47z" />
    <glyph glyph-name="wcircumflex" unicode="&#x175;" horiz-adv-x="1632" 
d="M1051 1194h-39l-193 281l-194 -281h-39l213 305h41zM1550 1065l-358 -1065h-51l-326 971l-323 -971h-50l-360 1065h41l344 -1014l330 975h39l329 -979l344 1018h41z" />
    <glyph glyph-name="Ycircumflex" unicode="&#x176;" horiz-adv-x="1214" 
d="M631 1739l211 -219h-41l-191 198l-192 -198h-41l213 219h41zM629 0h-41v588l-514 846h45l487 -807l490 807h45l-512 -844v-590z" />
    <glyph glyph-name="ycircumflex" unicode="&#x177;" horiz-adv-x="1132" 
d="M805 1194h-39l-193 281l-194 -281h-39l213 305h41zM259 -352q-50 0 -116 14l2 37q72 -16 125 -16q92 0 150 61q57 61 110 195l23 55l-457 1071h43l434 -1024l418 1024h43l-467 -1145q-74 -181 -155 -232q-41 -26 -72 -33t-81 -7z" />
    <glyph glyph-name="Ydieresis" unicode="&#x178;" horiz-adv-x="1214" 
d="M739 1536v233h33v-233h-33zM418 1536v233h33v-233h-33zM629 0h-41v588l-514 846h45l487 -807l490 807h45l-512 -844v-590z" />
    <glyph glyph-name="Zacute" unicode="&#x179;" horiz-adv-x="1228" 
d="M760 1739l-125 -219h-31l117 219h39zM1137 1434v-37l-1012 -1364l502 4h510v-37h-1059v37l1012 1364l-484 -2h-504v35h1035z" />
    <glyph glyph-name="zacute" unicode="&#x17a;" horiz-adv-x="1007" 
d="M604 1497l-125 -303h-30l116 303h39zM924 1065v-37l-799 -999l299 4h500v-33h-842v37l797 997l-283 -2h-500v33h828z" />
    <glyph glyph-name="Zdotaccent" unicode="&#x17b;" horiz-adv-x="1228" 
d="M600 1536v233h31v-233h-31zM1137 1434v-37l-1012 -1364l502 4h510v-37h-1059v37l1012 1364l-484 -2h-504v35h1035z" />
    <glyph glyph-name="zdotaccent" unicode="&#x17c;" horiz-adv-x="1007" 
d="M506 1229v233h33v-233h-33zM924 1065v-37l-799 -999l299 4h500v-33h-842v37l797 997l-283 -2h-500v33h828z" />
    <glyph glyph-name="Zcaron" unicode="&#x17d;" horiz-adv-x="1228" 
d="M635 1520h-41l-213 219h41l192 -199l191 199h41zM1137 1434v-37l-1012 -1364l502 4h510v-37h-1059v37l1012 1364l-484 -2h-504v35h1035z" />
    <glyph glyph-name="zcaron" unicode="&#x17e;" horiz-adv-x="1007" 
d="M756 1499l-211 -305h-41l-213 305h39l194 -280l193 280h39zM924 1065v-37l-799 -999l299 4h500v-33h-842v37l797 997l-283 -2h-500v33h828z" />
    <glyph glyph-name="AEacute" unicode="&#x1fc;" horiz-adv-x="2056" 
d="M1462 1739l-125 -219h-30l116 219h39zM958 475v924h-6l-587 -924h593zM1913 1434v-35h-912v-684h785v-35h-785v-645h951v-35h-994v440h-616l-281 -440h-43l908 1434h987z" />
    <glyph glyph-name="aeacute" unicode="&#x1fd;" horiz-adv-x="1941" 
d="M1137 1497l-125 -303h-31l117 303h39zM542 590q-406 0 -407 -282q0 -152 96 -220q96 -66 249 -66q152 0 262 66t161 178q-59 137 -51 303q-126 21 -310 21zM1365 1042q-212 0 -342 -138t-134 -357h905q0 219 -108 357q-109 138 -321 138zM1366 1075q229 1 349 -149
t120 -371q0 -20 -4 -41h-942q-3 -166 67 -274q143 -217 441 -217q180 0 360 88l10 -35q-195 -86 -368 -86q-332 0 -475 237q-129 -238 -455 -237q-166 0 -270 78t-105 237q0 317 461 318q145 0 297 -21q18 127 74 234q-18 118 -104 162t-262 44q-175 0 -357 -51l-6 35
q185 49 369 49t271 -45t115 -151q144 196 414 196z" />
    <glyph glyph-name="Oslashacute" unicode="&#x1fe;" horiz-adv-x="1619" 
d="M956 1739l-125 -219h-30l117 219h38zM811 1409q-289 0 -472 -188t-183 -508q0 -385 262 -572l751 1172q-157 96 -358 96zM1464 713q0 395 -270 583l-752 -1171q158 -100 369 -100q293 -1 473 185t180 503zM811 1444q213 0 379 -98l92 143h37l-102 -160q137 -94 214 -252
t76 -364q0 -334 -191 -529t-505 -194q-225 0 -389 102l-96 -149h-37l106 166q-283 197 -282 604q1 335 195 533t503 198z" />
    <glyph glyph-name="oslashacute" unicode="&#x1ff;" horiz-adv-x="1304" 
d="M760 1497l-125 -303h-31l117 303h39zM651 1042q-211 0 -349 -139t-138 -373q0 -281 192 -419l555 864q-110 67 -260 67zM1141 530q0 291 -207 428l-555 -864q121 -76 272 -76q213 0 351 140t139 372zM651 1075q158 0 279 -71l84 129h33l-93 -144q227 -154 228 -459
q0 -248 -151 -396t-380 -148q-164 0 -291 77l-84 -131h-34l94 148q-213 150 -213 450q0 248 150 397q151 148 378 148z" />
    <glyph glyph-name="Scommaaccent" unicode="&#x218;" horiz-adv-x="1216" 
d="M662 -92q0 -86 -17 -227h-33q11 118 9 227h41zM599 1444q212 0 439 -90l-10 -35q-4 4 -55 24t-157 43t-206 23q-190 0 -312 -80t-122 -233q0 -121 70 -184q39 -36 84 -69t220 -82t226 -64t125 -49t113 -70q38 -36 68 -94t30 -132q0 -174 -131 -268t-375 -94t-483 116
l10 33q283 -115 492 -115t327 87q118 86 117 239q0 118 -79 190q-79 71 -209 111q-130 41 -196 58q-65 18 -115 33q-50 14 -125 50t-114 72t-68 95q-30 60 -30 135q0 164 127 257t339 93z" />
    <glyph glyph-name="scommaaccent" unicode="&#x219;" horiz-adv-x="958" 
d="M510 -92q0 -86 -16 -227h-33q10 118 8 227h41zM115 807q0 127 96 197t271 71q175 0 333 -57l-6 -33q-139 57 -309 57t-256 -60q-88 -60 -88 -175t93 -167q72 -40 155 -62q221 -56 296 -88q74 -32 100 -58q70 -68 68 -168q0 -131 -99 -203q-99 -71 -281 -71t-379 80l8 30
q176 -78 354 -78t267 63q89 62 89 177q0 78 -50 128t-101 70q-50 20 -120 38l-77 22q-199 51 -262 92q-102 68 -102 195z" />
    <glyph glyph-name="circumflex" unicode="&#x2c6;" horiz-adv-x="735" 
d="M600 1151h-39l-192 281l-195 -281h-39l213 305h41z" />
    <glyph glyph-name="caron" unicode="&#x2c7;" horiz-adv-x="735" 
d="M600 1456l-211 -305h-41l-213 305h39l195 -280l192 280h39z" />
    <glyph glyph-name="breve" unicode="&#x2d8;" horiz-adv-x="788" 
d="M396 1190q-188 0 -232 188l31 4q47 -164 199 -164t200 164l33 -4q-43 -188 -231 -188z" />
    <glyph glyph-name="dotaccent" unicode="&#x2d9;" horiz-adv-x="382" 
d="M176 1186v233h33v-233h-33z" />
    <glyph glyph-name="ring" unicode="&#x2da;" horiz-adv-x="649" 
d="M326 1444q-56 0 -94 -34t-38 -92t38 -92q36 -34 94 -34t94 34q37 34 37 92t-37 92t-94 34zM326 1470q72 0 116 -40t45 -112q0 -71 -46 -112q-45 -41 -115 -41t-116 41t-46 112q0 72 45 112t117 40z" />
    <glyph glyph-name="ogonek" unicode="&#x2db;" horiz-adv-x="552" 
d="M215 -198q0 -114 100 -113q37 0 68 10l4 -27q-33 -12 -85 -12t-86 34t-34 97q0 133 164 227l8 -18q-139 -84 -139 -198z" />
    <glyph glyph-name="tilde" unicode="&#x2dc;" horiz-adv-x="837" 
d="M545 1241q-39 0 -126 39t-134 39q-80 0 -111 -72l-20 8q39 94 137 95q45 0 129 -39t131 -39q82 -1 113 71l18 -8q-37 -94 -137 -94z" />
    <glyph glyph-name="hungarumlaut" unicode="&#x2dd;" horiz-adv-x="733" 
d="M551 1456l-92 -305h-33l84 305h41zM338 1456l-92 -305h-33l84 305h41z" />
    <glyph glyph-name="Wgrave" unicode="&#x1e80;" horiz-adv-x="1947" 
d="M922 1735l84 -215h-31l-92 215h39zM1849 1434l-424 -1434h-49l-401 1339l-400 -1339h-53l-424 1434h47l404 -1377h2l399 1348h47l402 -1348h2q36 120 153 535l248 842h47z" />
    <glyph glyph-name="wgrave" unicode="&#x1e81;" horiz-adv-x="1632" 
d="M727 1495h39l84 -301h-31zM1550 1065l-358 -1065h-51l-326 971l-323 -971h-50l-360 1065h41l344 -1014l330 975h39l329 -979l344 1018h41z" />
    <glyph glyph-name="Wacute" unicode="&#x1e82;" horiz-adv-x="1947" 
d="M1118 1739l-125 -219h-30l116 219h39zM1849 1434l-424 -1434h-49l-401 1339l-400 -1339h-53l-424 1434h47l404 -1377h2l399 1348h47l402 -1348h2q36 120 153 535l248 842h47z" />
    <glyph glyph-name="wacute" unicode="&#x1e83;" horiz-adv-x="1632" 
d="M965 1497l-125 -303h-31l117 303h39zM1550 1065l-358 -1065h-51l-326 971l-323 -971h-50l-360 1065h41l344 -1014l330 975h39l329 -979l344 1018h41z" />
    <glyph glyph-name="Wdieresis" unicode="&#x1e84;" horiz-adv-x="1947" 
d="M1104 1536v233h33v-233h-33zM782 1536v233h33v-233h-33zM1849 1434l-424 -1434h-49l-401 1339l-400 -1339h-53l-424 1434h47l404 -1377h2l399 1348h47l402 -1348h2q36 120 153 535l248 842h47z" />
    <glyph glyph-name="wdieresis" unicode="&#x1e85;" horiz-adv-x="1632" 
d="M961 1229v233h32v-233h-32zM641 1229v233h33v-233h-33zM1550 1065l-358 -1065h-51l-326 971l-323 -971h-50l-360 1065h41l344 -1014l330 975h39l329 -979l344 1018h41z" />
    <glyph glyph-name="germandbls.case" unicode="&#x1e9e;" horiz-adv-x="1454" 
d="M700 1446q137 0 290 -44t270 -116q-136 -190 -153 -235q-17 -44 -37 -92t-19 -121q0 -133 96 -225q41 -39 81 -77q95 -91 95 -245t-111 -241t-301 -87t-413 76l8 35q207 -78 387 -78t286 76q105 76 105 218t-96 233q-41 38 -81 76q-97 92 -95 235q0 107 35 177
q75 151 157 265q-242 135 -493 135q-127 0 -221 -39q-94 -40 -142 -108q-96 -134 -94 -320v-944h-41v944q1 222 121 362t366 140z" />
    <glyph glyph-name="Ygrave" unicode="&#x1ef2;" horiz-adv-x="1214" 
d="M557 1735l84 -215h-31l-92 215h39zM629 0h-41v588l-514 846h45l487 -807l490 807h45l-512 -844v-590z" />
    <glyph glyph-name="ygrave" unicode="&#x1ef3;" horiz-adv-x="1132" 
d="M475 1495h39l84 -301h-31zM259 -352q-50 0 -116 14l2 37q72 -16 125 -16q92 0 150 61q57 61 110 195l23 55l-457 1071h43l434 -1024l418 1024h43l-467 -1145q-74 -181 -155 -232q-41 -26 -72 -33t-81 -7z" />
    <glyph glyph-name="endash" unicode="&#x2013;" horiz-adv-x="1470" 
d="M1298 575v-34h-1126v34h1126z" />
    <glyph glyph-name="emdash" unicode="&#x2014;" horiz-adv-x="1990" 
d="M1821 578v-37h-1649v37h1649z" />
    <glyph glyph-name="quoteleft" unicode="&#x2018;" horiz-adv-x="452" 
d="M223 1251v-198h-37v202q3 82 60 156l26 -14q-49 -72 -49 -146z" />
    <glyph glyph-name="quoteright" unicode="&#x2019;" horiz-adv-x="452" 
d="M229 1212v199h37v-203q-2 -81 -59 -155l-27 14q49 72 49 145z" />
    <glyph glyph-name="quotesinglbase" unicode="&#x201a;" horiz-adv-x="452" 
d="M229 4v199h37v-203q-2 -82 -59 -156l-27 15q49 72 49 145z" />
    <glyph glyph-name="quotedblleft" unicode="&#x201c;" horiz-adv-x="688" 
d="M223 1251v-198h-37v202q3 82 60 156l26 -14q-49 -72 -49 -146zM459 1251v-198h-37v202q2 82 59 156l27 -14q-49 -72 -49 -146z" />
    <glyph glyph-name="quotedblright" unicode="&#x201d;" horiz-adv-x="688" 
d="M465 1212v199h37v-203q-3 -81 -60 -155l-26 14q49 72 49 145zM229 1212v199h37v-203q-2 -81 -59 -155l-27 14q49 72 49 145z" />
    <glyph glyph-name="quotedblbase" unicode="&#x201e;" horiz-adv-x="688" 
d="M465 4v199h37v-203q-3 -82 -60 -156l-26 15q49 72 49 145zM229 4v199h37v-203q-2 -82 -59 -156l-27 15q49 72 49 145z" />
    <glyph glyph-name="dagger" unicode="&#x2020;" horiz-adv-x="927" 
d="M811 1075v-39l-248 8v25zM117 1075l248 -6v-25l-248 -8v39zM485 1440l-6 -1440h-28l-7 1440h41z" />
    <glyph glyph-name="daggerdbl" unicode="&#x2021;" horiz-adv-x="1011" 
d="M854 1075v-39l-248 8v25zM160 1075l248 -6v-25l-248 -8v39zM854 485v-39l-248 9v24zM160 485l248 -6v-24l-248 -9v39zM528 1440l-6 -1440h-28l-7 1440h41z" />
    <glyph glyph-name="bullet" unicode="&#x2022;" horiz-adv-x="628" 
d="M250 719q0 -62 66 -63q66 0 65 62q0 62 -66 62q-29 0 -47 -16t-18 -45zM315 809q41 0 69 -24q28 -23 28 -67t-28 -68t-69 -24t-69 26q-28 24 -27 66q-1 42 27 66t69 25z" />
    <glyph glyph-name="ellipsis" unicode="&#x2026;" horiz-adv-x="1017" 
d="M815 0v203h37v-203h-37zM504 0v203h37v-203h-37zM193 0v203h36v-203h-36z" />
    <glyph glyph-name="perthousand" unicode="&#x2030;" horiz-adv-x="2424" 
d="M416 1419q-121 0 -199 -91t-78 -224t79 -222t200 -89q122 0 196 89t74 222t-76 224t-196 91zM415 1450q138 0 223 -98t85 -248t-84 -246q-84 -98 -222 -98t-226 97q-87 97 -87 247t86 248q87 98 225 98zM2018 649q-120 0 -198 -92t-77 -224q0 -132 79 -222
q78 -91 198 -91t196 90t76 223q0 134 -77 225t-197 91zM2017 680q137 0 223 -99t87 -247q0 -148 -85 -246q-84 -98 -222 -98t-226 97t-88 246t87 248t224 99zM1191 649q-120 0 -198 -92t-78 -224t79 -222q79 -91 199 -91t196 90q75 90 75 223q0 134 -76 225q-77 91 -197 91z
M1192 680q137 0 223 -99t86 -247t-85 -246t-222 -98t-225 97t-88 246t87 248t224 99zM1233 1440l-830 -1440h-43l832 1440h41z" />
    <glyph glyph-name="guilsinglleft" unicode="&#x2039;" horiz-adv-x="686" 
d="M547 961l-363 -429l363 -428l-27 -26l-395 450v9l397 448z" />
    <glyph glyph-name="guilsinglright" unicode="&#x203a;" horiz-adv-x="686" 
d="M166 985l397 -448v-9l-395 -450l-27 26l363 428l-363 429z" />
    <glyph glyph-name="fraction" unicode="&#x2044;" horiz-adv-x="821" 
d="M766 1440l-674 -1440h-37l674 1440h37z" />
    <glyph glyph-name="Euro" unicode="&#x20ac;" horiz-adv-x="1554" 
d="M983 1444q211 0 385 -84l-8 -33q-170 82 -367 82q-258 0 -431 -152t-212 -405h766l-10 -27h-760q-6 -55 -6 -110t6 -109h682l-10 -26h-668q39 -254 213 -405t432 -150q93 -1 195 21t153 44l5 -35q-160 -66 -357 -65q-274 0 -461 160q-186 160 -225 430h-139l10 26h127
q-6 52 -6 108t6 111h-172l10 27h166q39 270 224 431q186 161 452 161z" />
    <glyph glyph-name="trademark" unicode="&#x2122;" horiz-adv-x="1579" 
d="M621 1434v-31h-215v-584h-31v584h-219v31h465zM1380 1434v-615h-30v555l-234 -407h-22l-248 407v-555h-31v615h29l260 -426l244 426h32z" />
    <glyph glyph-name="commaaccent" unicode="&#xf6c3;" horiz-adv-x="0" 
d="M-211 -92q0 -86 -16 -227h-33q10 118 8 227h41z" />
    <glyph glyph-name="apple" unicode="&#xf8ff;" horiz-adv-x="2893" 
d="M1162 670q-30 0 -29 -41h51q8 41 -22 41zM1783 672q-30 0 -30 -41h51q9 41 -21 41zM2401 668q-19 0 -19 -54t19 -53q19 -1 19 53t-19 54zM2095 655q-14 0 -29 -14v-76q14 -10 25 -10q31 0 31 50t-27 50zM850 655q-14 0 -29 -14v-76q14 -10 25 -10q31 0 31 50t-27 50z
M1462 659q-35 0 -35 -52t25 -52q16 0 31 14v84q-13 6 -21 6zM276 819v-90h60v-76h-60v-39q0 -47 64 -30l2 -76q-37 -16 -89 -16t-78 24t-25 82v55h-48v76h48l16 90h110zM2728 819v-90h57v-76h-57v-39q0 -47 61 -30l2 -76q-37 -16 -89 -16t-77 24q-26 24 -26 82v55h-45v76h45
l16 90h113zM1773 739q134 0 134 -94q0 -35 -2 -53h-150q5 -35 55 -35t86 10v-59q-55 -20 -108 -21q-150 0 -150 125q1 127 135 127zM1161 737q125 0 125 -94q0 -35 -2 -53h-149q6 -35 57 -35t84 10v-59q-51 -20 -109 -21q-150 0 -149 125q0 127 143 127zM2400 737h2
q139 0 140 -125q0 -127 -138 -127h-4q-72 0 -104 31q-32 30 -33 96q1 66 33 96t104 29zM2140 737q47 1 73 -31t25 -92q0 -129 -102 -129q-41 0 -68 23v-123h-131v344h109l8 -27q39 35 86 35zM895 737q47 1 73 -31t25 -92q0 -129 -102 -129q-41 0 -68 23v-123h-131v344h109
l8 -27q39 35 86 35zM1612 838v-344h-119l-6 22q-37 -31 -76 -31q-100 0 -100 126t104 126q33 0 66 -20v121h131zM657 729v-221q1 -70 -33 -102t-115 -31q-81 0 -122 24l12 66q41 -14 86 -14t45 32v21q-31 -18 -65 -19q-92 0 -92 101v143h129v-164q0 -25 28 -12v176h127z" />
    <glyph glyph-name="J.alt" horiz-adv-x="499" 
d="M285 1434v-1397q0 -209 -248 -326l-17 31q223 115 224 289v1368h-113v35h154z" />
    <glyph glyph-name="Jcircumflex.alt" horiz-adv-x="499" 
d="M272 1739l211 -219h-41l-190 198l-193 -198h-41l213 219h41zM285 1434v-1397q0 -209 -248 -326l-17 31q223 115 224 289v1368h-113v35h154z" />
    <glyph glyph-name="a.alt" horiz-adv-x="1302" 
d="M626 23q212 0 330 143t119 368q0 224 -124 366t-332 142q-209 0 -331 -139t-122 -371t124 -370q124 -139 336 -139zM1073 0v307q-51 -153 -169 -235t-286 -82q-229 0 -362 152t-133 390q0 240 132 392t359 151q160 0 282 -81t179 -240l4 311h35v-1065h-41z" />
    <glyph glyph-name="aacute.alt" horiz-adv-x="1302" 
d="M713 1497l-125 -303h-31l117 303h39zM626 23q212 0 330 143t119 368q0 224 -124 366t-332 142q-209 0 -331 -139t-122 -371t124 -370q124 -139 336 -139zM1073 0v307q-51 -153 -169 -235t-286 -82q-229 0 -362 152t-133 390q0 240 132 392t359 151q160 0 282 -81
t179 -240l4 311h35v-1065h-41z" />
    <glyph glyph-name="abreve.alt" horiz-adv-x="1302" 
d="M662 1233q-188 0 -232 188l31 4q47 -164 199 -164t200 164l33 -4q-43 -188 -231 -188zM626 23q212 0 330 143t119 368q0 224 -124 366t-332 142q-209 0 -331 -139t-122 -371t124 -370q124 -139 336 -139zM1073 0v307q-51 -153 -169 -235t-286 -82q-229 0 -362 152
t-133 390q0 240 132 392t359 151q160 0 282 -81t179 -240l4 311h35v-1065h-41z" />
    <glyph glyph-name="acircumflex.alt" horiz-adv-x="1302" 
d="M895 1194h-39l-192 281l-195 -281h-39l213 305h41zM626 23q212 0 330 143t119 368q0 224 -124 366t-332 142q-209 0 -331 -139t-122 -371t124 -370q124 -139 336 -139zM1073 0v307q-51 -153 -169 -235t-286 -82q-229 0 -362 152t-133 390q0 240 132 392t359 151
q160 0 282 -81t179 -240l4 311h35v-1065h-41z" />
    <glyph glyph-name="adieresis.alt" horiz-adv-x="1302" 
d="M805 1229v233h33v-233h-33zM485 1229v233h33v-233h-33zM626 23q212 0 330 143t119 368q0 224 -124 366t-332 142q-209 0 -331 -139t-122 -371t124 -370q124 -139 336 -139zM1073 0v307q-51 -153 -169 -235t-286 -82q-229 0 -362 152t-133 390q0 240 132 392t359 151
q160 0 282 -81t179 -240l4 311h35v-1065h-41z" />
    <glyph glyph-name="agrave.alt" horiz-adv-x="1302" 
d="M578 1495h38l84 -301h-30zM626 23q212 0 330 143t119 368q0 224 -124 366t-332 142q-209 0 -331 -139t-122 -371t124 -370q124 -139 336 -139zM1073 0v307q-51 -153 -169 -235t-286 -82q-229 0 -362 152t-133 390q0 240 132 392t359 151q160 0 282 -81t179 -240l4 311h35
v-1065h-41z" />
    <glyph glyph-name="amacron.alt" horiz-adv-x="1302" 
d="M950 1348v-29h-579v29h579zM626 23q212 0 330 143t119 368q0 224 -124 366t-332 142q-209 0 -331 -139t-122 -371t124 -370q124 -139 336 -139zM1073 0v307q-51 -153 -169 -235t-286 -82q-229 0 -362 152t-133 390q0 240 132 392t359 151q160 0 282 -81t179 -240l4 311
h35v-1065h-41z" />
    <glyph glyph-name="aogonek.alt" horiz-adv-x="1302" 
d="M626 23q212 0 330 143t119 368q0 224 -124 366t-332 142q-209 0 -331 -139t-122 -371t124 -370q124 -139 336 -139zM1114 0h-14q-139 -84 -139 -198t100 -113q37 0 67 10l5 -27q-33 -12 -85 -12t-86 34t-34 97q0 129 145 217v299q-51 -153 -169 -235t-286 -82
q-229 0 -362 152t-133 390q0 240 132 392t359 151q160 0 282 -81t179 -240l4 311h35v-1065z" />
    <glyph glyph-name="aring.alt" horiz-adv-x="1302" 
d="M662 1487q-56 0 -94 -34t-38 -92t37 -92t95 -34t94 34q37 34 37 92t-37 92t-94 34zM662 1513q72 -1 116 -41t45 -111q0 -71 -46 -112q-45 -41 -115 -41t-116 41t-46 112t45 111t117 41zM626 23q212 0 330 143t119 368q0 224 -124 366t-332 142q-209 0 -331 -139
t-122 -371t124 -370q124 -139 336 -139zM1073 0v307q-51 -153 -169 -235t-286 -82q-229 0 -362 152t-133 390q0 240 132 392t359 151q160 0 282 -81t179 -240l4 311h35v-1065h-41z" />
    <glyph glyph-name="atilde.alt" horiz-adv-x="1302" 
d="M786 1284q-39 0 -126 39t-134 39q-80 0 -110 -72l-21 8q39 94 137 95q46 0 130 -39t131 -39q81 -1 112 71l19 -8q-37 -94 -138 -94zM626 23q212 0 330 143t119 368q0 224 -124 366t-332 142q-209 0 -331 -139t-122 -371t124 -370q124 -139 336 -139zM1073 0v307
q-51 -153 -169 -235t-286 -82q-229 0 -362 152t-133 390q0 240 132 392t359 151q160 0 282 -81t179 -240l4 311h35v-1065h-41z" />
    <glyph glyph-name="g.alt" horiz-adv-x="1286" 
d="M164 551q0 -227 115 -359t334 -133t333 133t113 358q1 224 -113 358t-333 134t-334 -132t-115 -359zM621 1075q159 0 275 -78t163 -225l4 293h33l2 -938q0 -247 -134 -361t-374 -114t-416 86l8 31q180 -84 402 -84t348 103q127 103 127 333v209q-47 -148 -165 -226
t-273 -77q-248 0 -373 140t-125 384t125 384t373 140z" />
    <glyph glyph-name="gbreve.alt" horiz-adv-x="1286" 
d="M668 1233q-188 0 -232 188l31 4q47 -164 199 -164t200 164l33 -4q-43 -188 -231 -188zM164 551q0 -227 115 -359t334 -133t333 133t113 358q1 224 -113 358t-333 134t-334 -132t-115 -359zM621 1075q159 0 275 -78t163 -225l4 293h33l2 -938q0 -247 -134 -361t-374 -114
t-416 86l8 31q180 -84 402 -84t348 103q127 103 127 333v209q-47 -148 -165 -226t-273 -77q-248 0 -373 140t-125 384t125 384t373 140z" />
    <glyph glyph-name="gcircumflex.alt" horiz-adv-x="1286" 
d="M891 1194h-39l-193 281l-194 -281h-39l213 305h41zM164 551q0 -227 115 -359t334 -133t333 133t113 358q1 224 -113 358t-333 134t-334 -132t-115 -359zM621 1075q159 0 275 -78t163 -225l4 293h33l2 -938q0 -247 -134 -361t-374 -114t-416 86l8 31q180 -84 402 -84
t348 103q127 103 127 333v209q-47 -148 -165 -226t-273 -77q-248 0 -373 140t-125 384t125 384t373 140z" />
    <glyph glyph-name="gcommaaccent.alt" horiz-adv-x="1286" 
d="M606 1200q0 86 17 227h32q-10 -118 -8 -227h-41zM164 551q0 -227 115 -359t334 -133t333 133t113 358q1 224 -113 358t-333 134t-334 -132t-115 -359zM621 1075q159 0 275 -78t163 -225l4 293h33l2 -938q0 -247 -134 -361t-374 -114t-416 86l8 31q180 -84 402 -84
t348 103q127 103 127 333v209q-47 -148 -165 -226t-273 -77q-248 0 -373 140t-125 384t125 384t373 140z" />
    <glyph glyph-name="gdotaccent.alt" horiz-adv-x="1286" 
d="M633 1229v233h33v-233h-33zM164 551q0 -227 115 -359t334 -133t333 133t113 358q1 224 -113 358t-333 134t-334 -132t-115 -359zM621 1075q159 0 275 -78t163 -225l4 293h33l2 -938q0 -247 -134 -361t-374 -114t-416 86l8 31q180 -84 402 -84t348 103q127 103 127 333
v209q-47 -148 -165 -226t-273 -77q-248 0 -373 140t-125 384t125 384t373 140z" />
    <glyph glyph-name="j.alt" horiz-adv-x="419" 
d="M193 1272v227h36v-227h-36zM231 1065v-1133q0 -98 -48 -161t-142 -119l-16 33q166 90 165 231v1116h-131v33h172z" />
    <glyph glyph-name="jcircumflex.alt" horiz-adv-x="419" 
d="M426 1194h-39l-192 281l-195 -281h-39l213 305h41zM231 1065v-1133q0 -98 -48 -161t-142 -119l-16 33q166 90 165 231v1116h-131v33h172z" />
    <glyph glyph-name="f_b" horiz-adv-x="1914" 
d="M1292 1042q-214 0 -332 -144t-118 -368t124 -365q124 -142 332 -142t330 139q123 139 123 370q0 230 -123 370t-336 140zM517 1509q141 0 233 -90t92 -262v-434q43 164 164 258t292 94q229 0 362 -150q132 -151 132 -392t-132 -393t-362 -150q-162 0 -284 89t-174 263
l-2 -342h-37v1155q0 154 -77 238t-206 84t-201 -85t-71 -235v-92h301v-33h-301v-1032h-41v1032h-129v33h129v90q0 172 85 263t227 91z" />
    <glyph glyph-name="f_f_b" horiz-adv-x="2441" 
d="M1822 23q208 0 330 139t123 370q0 230 -123 370q-124 140 -336 140t-331 -144t-119 -368t124 -365q124 -142 332 -142zM1825 1075q229 1 361 -151t132 -392t-132 -392t-361 -150q-162 0 -285 90t-174 264l-4 -344h-35v1167q0 154 -77 237t-207 83q-129 0 -201 -85
t-72 -235v-102h303v-33h-303v-1032h-39v1032h-489v-1032h-41v1032h-125v33h125v149q0 148 57 222t197 73q66 0 133 -14l-6 -33q-66 14 -127 15q-119 0 -166 -67t-47 -193v-152h489v102q0 173 85 263t227 90q141 0 233 -90t92 -263v-444q43 164 163 258t294 94z" />
    <glyph glyph-name="f_f_h" horiz-adv-x="2383" 
d="M731 1167q0 173 85 263t228 90q144 0 234 -90t90 -263v-415q43 135 153 229t277 94q205 0 306 -122t102 -335v-618h-41v623q0 195 -94 307t-275 112q-139 0 -241 -75q-187 -141 -187 -379v-588h-41v1167q0 154 -77 237t-207 83q-129 0 -201 -85t-72 -235v-102h303v-33
h-303v-1032h-39v1032h-489v-1032h-41v1032h-125v33h125v149q0 148 57 222t195 73q68 0 135 -14l-6 -33q-66 14 -131 15q-119 0 -164 -65t-45 -195v-152h489v102z" />
    <glyph glyph-name="f_f_k" horiz-adv-x="2088" 
d="M731 1167q0 173 85 263t227 90q143 0 233 -90t90 -263v-784l633 682h49l-375 -403l398 -662h-48l-378 629l-279 -299v-330h-41v1167q0 152 -77 236t-206 84q-128 0 -200 -85t-72 -235v-102h303v-33h-303v-1032h-39v1032h-489v-1032h-41v1032h-125v33h125v149
q0 148 56 222t196 73q68 0 135 -14l-6 -33q-66 14 -125 15q-119 0 -167 -67t-48 -193v-152h489v102z" />
    <glyph glyph-name="f_h" horiz-adv-x="1857" 
d="M1292 1075q186 0 286 -122q101 -122 101 -335v-618h-41v623q0 195 -94 307t-274 112q-139 0 -241 -75q-187 -141 -187 -379v-588h-41v1157q0 154 -76 237t-207 83t-202 -85t-70 -235v-92h301v-33h-301v-1032h-41v1032h-129v33h129v90q0 172 85 263t228 91q144 0 234 -90
t90 -262v-405q43 135 153 229q111 94 297 94z" />
    <glyph glyph-name="f_k" horiz-adv-x="1523" 
d="M517 1509q143 0 233 -90t90 -262v-776l614 684h47l-352 -395l356 -670h-47l-336 639l-282 -309v-330h-41v1157q0 154 -76 237t-206 83t-201 -85t-70 -235v-92h301v-33h-301v-1032h-41v1032h-129v33h129v90q0 172 85 263t227 91z" />
    <glyph glyph-name="zero.tnum" 
d="M709 25q245 1 377 195t132 498t-132 498q-134 194 -378 193q-244 0 -376 -194q-133 -195 -133 -497t133 -498t377 -195zM709 -10q-264 0 -409 204q-144 204 -144 525t143 523t409 202t408 -202q144 -202 144 -524t-144 -524q-144 -204 -407 -204z" />
    <glyph glyph-name="one.tnum" 
d="M776 1440v-1405h430v-35h-901v35h430v1366l-383 -125l-14 29l401 135h37z" />
    <glyph glyph-name="two.tnum" 
d="M1174 37v-37h-959v31l541 497q154 141 205 205q129 160 129 322t-116 258t-286 96t-387 -104l-12 32q207 107 397 107t319 -102q128 -102 128 -282q0 -179 -123 -327q-64 -76 -106 -118t-124 -113l-508 -465h902z" />
    <glyph glyph-name="three.tnum" 
d="M674 1444q188 0 310 -84t122 -232t-87 -239q-87 -90 -226 -115q170 -31 273 -133t103 -250q0 -197 -141 -299t-371 -102q-100 0 -212 26t-181 62l12 35q66 -33 174 -61t205 -27q205 0 338 93t133 264t-135 274t-301 104h-158v31h156q143 -1 259 81t116 236t-113 227
q-112 74 -286 74t-357 -86l-10 29q81 40 189 66t188 26z" />
    <glyph glyph-name="four.tnum" 
d="M1004 410v968l-791 -968h791zM1044 1440v-1030h205v-33h-205v-377h-38v377h-842v29l844 1034h36z" />
    <glyph glyph-name="five.tnum" 
d="M1118 1434v-35h-739l-39 -656q168 111 378 111t344 -111q136 -111 136 -315t-147 -322q-147 -116 -385 -116t-422 94l12 33q184 -92 407 -92t358 106q134 107 134 297t-125 290q-124 100 -324 101q-200 0 -376 -121l-31 21l47 715h772z" />
    <glyph glyph-name="six.tnum" 
d="M1198 428q0 198 -122 302t-312 104t-316 -124q-124 -124 -124 -297t126 -281t318 -108t312 104q118 103 118 300zM805 1444q178 0 364 -74l-12 -33q-180 72 -348 72q-281 0 -420 -242q-111 -195 -110 -497q0 -117 16 -191q23 164 156 277q133 112 329 112t327 -116
q132 -116 132 -320q0 -206 -126 -324t-345 -118q-352 0 -467 301q-66 178 -65 387q0 309 124 516q146 250 445 250z" />
    <glyph glyph-name="seven.tnum" 
d="M1268 1434v-35l-738 -1399h-47l740 1397h-985v37h1030z" />
    <glyph glyph-name="eight.tnum" 
d="M709 1411q-175 0 -281 -82t-106 -227q0 -144 102 -232t284 -88t285 87t103 233t-106 228t-281 81zM252 382q0 -165 122 -262t336 -97t337 97t123 261t-122 262t-337 100t-337 -97t-122 -264zM710 1444q196 0 312 -92t115 -258q0 -111 -74 -205t-232 -125
q183 -27 281 -132t98 -255q0 -187 -138 -287t-362 -100t-363 100q-138 100 -138 287q0 150 98 255t279 132q-158 31 -231 125t-72 205q0 166 115 258q116 92 312 92z" />
    <glyph glyph-name="nine.tnum" 
d="M1126 1020q0 174 -124 282t-321 107q-197 0 -317 -105t-120 -298t123 -299q123 -107 317 -107t318 123t124 297zM678 1444q356 0 471 -299q68 -168 68 -389q0 -334 -113 -520q-152 -246 -465 -246q-176 0 -367 73l13 33q184 -72 350 -71q305 0 438 237q96 166 101 502
q0 109 -19 190q-23 -164 -156 -276t-333 -113q-200 0 -332 117q-133 117 -133 320q0 202 129 322t348 120z" />
    <glyph glyph-name="exclamdown.case" horiz-adv-x="499" 
d="M233 1444h33v-182h-33v182zM270 0h-41l2 1122h37z" />
    <glyph glyph-name="questiondown.case" horiz-adv-x="950" 
d="M551 1444v-182h-33v182h33zM513 0q-179 0 -293 80t-114 237q0 90 42 160t102 116t122 92q60 46 102 114t42 153v170h37v-172q0 -148 -106 -240q-46 -40 -98 -83t-98 -82q-106 -90 -106 -230q1 -141 105 -211t264 -70t301 91l14 -31q-137 -94 -316 -94z" />
    <glyph glyph-name="braceleft.case" horiz-adv-x="655" 
d="M551 1628v-33h-31q-121 0 -175 -48t-54 -161v-473q0 -172 -148 -196q147 -25 148 -197v-473q0 -113 54 -160t175 -47h31v-35h-33q-140 1 -202 59t-62 187v473q0 164 -162 176v35q162 8 162 174v473q0 130 61 188t203 58h33z" />
    <glyph glyph-name="braceright.case" horiz-adv-x="655" 
d="M104 1628h33q141 0 203 -58t61 -188v-473q0 -166 162 -174v-35q-162 -12 -162 -176v-473q0 -129 -61 -187t-203 -59h-33v35h33q121 0 174 47t54 160v473q0 172 147 197q-147 25 -147 196v473q1 113 -53 161t-175 48h-33v33z" />
    <glyph glyph-name="bracketleft.case" horiz-adv-x="571" 
d="M465 1593h-219v-1753h219v-35h-256v1823h256v-35z" />
    <glyph glyph-name="bracketright.case" horiz-adv-x="571" 
d="M106 1628h256v-1823h-256v35h220v1753h-220v35z" />
    <glyph glyph-name="parenleft.case" horiz-adv-x="671" 
d="M172 726q0 -302 126 -536t300 -372h-47q-168 130 -296 374t-128 534t128 534t296 374h47q-176 -139 -301 -373q-125 -233 -125 -535z" />
    <glyph glyph-name="parenright.case" horiz-adv-x="671" 
d="M545 726q0 -290 -129 -534t-295 -374h-47q174 137 300 371q126 233 126 535t-125 536t-301 374h47q166 -130 295 -374t129 -534z" />
    <glyph glyph-name="emdash.case" horiz-adv-x="1990" 
d="M1821 733v-37h-1649v37h1649z" />
    <glyph glyph-name="endash.case" horiz-adv-x="1470" 
d="M1298 733v-37h-1126v37h1126z" />
    <glyph glyph-name="hyphen.case" horiz-adv-x="1056" 
d="M887 733v-37h-715v37h715z" />
    <glyph glyph-name="hyphen.tnum" 
d="M1104 694v-32h-791v32h791z" />
    <glyph glyph-name="guillemotleft.case" horiz-adv-x="1056" 
d="M522 1163l25 -24l-363 -428l363 -428l-27 -25l-395 449v8zM893 1163l25 -24l-363 -428l363 -428l-27 -25l-395 449v8z" />
    <glyph glyph-name="guillemotright.case" horiz-adv-x="1056" 
d="M166 1163l397 -450v-8l-395 -449l-27 25l363 428l-363 428zM537 1163l397 -450v-8l-395 -449l-27 25l362 428l-362 428z" />
    <glyph glyph-name="guilsinglleft.case" horiz-adv-x="686" 
d="M522 1163l25 -24l-363 -428l363 -428l-27 -25l-395 449v8z" />
    <glyph glyph-name="guilsinglright.case" horiz-adv-x="686" 
d="M166 1165l397 -448v-8l-395 -451l-27 27l363 428l-363 428z" />
    <glyph glyph-name="cent.tnum" 
d="M805 1403v-164h6q164 0 293 -51l-6 -31q-141 49 -285 49q-233 0 -373 -136t-141 -374q0 -238 141 -374t379 -136q125 0 277 62l10 -33q-156 -61 -291 -61h-10v-164h-33v164q-233 14 -374 157q-140 143 -140 385t141 386t373 155v166h33z" />
    <glyph glyph-name="dollar.tnum" 
d="M723 1597v-151q172 -2 405 -80l-12 -33q-4 3 -58 21t-154 36t-195 19q-189 0 -309 -80t-119 -233q0 -192 195 -278q80 -35 221 -71q142 -37 210 -59q198 -65 256 -176q37 -68 37 -160q0 -172 -128 -266t-349 -98v-152h-31v152q-262 12 -463 106l13 33q220 -102 452 -102
t348 86t115 239q0 183 -195 272q-67 30 -119 44t-136 34q-85 20 -141 36t-124 50q-68 33 -108 71q-97 91 -97 244q1 153 120 247q120 94 335 98v151h31z" />
    <glyph glyph-name="Euro.tnum" 
d="M918 1444q211 0 385 -84l-9 -33q-170 82 -366 82q-258 0 -431 -152t-212 -405h766l-11 -27h-759q-13 -119 0 -219h680l-11 -26h-665q39 -254 213 -405t432 -150q94 -1 195 21t153 44l4 -35q-160 -66 -356 -65q-274 0 -461 160q-186 160 -225 430h-142l11 26h129
q-13 114 0 219h-172l10 27h166q39 270 224 431q186 161 452 161z" />
    <glyph glyph-name="sterling.tnum" 
d="M1014 694v-28h-580q35 -147 35 -249q0 -101 -13 -167t-42 -109t-44 -60t-51 -46h875v-35h-958v31q57 23 102 73q92 102 90 302q0 109 -35 260h-149v28h141q-43 193 -43 295q0 223 119 339t319 116t338 -90l-16 -31q-128 86 -316 86t-296 -106t-107 -320q0 -104 45 -289
h586z" />
    <glyph glyph-name="yen.tnum" 
d="M731 512h309v-27h-309v-139h309v-27h-309v-319h-41v319h-311v27h311v139h-311v27h311v82l-514 844h49l484 -801l483 801h49l-510 -844v-82z" />
    <glyph glyph-name="divide.tnum" 
d="M694 152v233h31v-233h-31zM694 907v234h31v-234h-31zM1133 666v-35h-850v35h850z" />
    <glyph glyph-name="equal.tnum" 
d="M1085 516v-35h-753v35h753zM1085 838v-35h-753v35h753z" />
    <glyph glyph-name="multiply.tnum" 
d="M350 1014l23 24l334 -336l333 336l25 -24l-334 -336l334 -336l-25 -25l-333 336l-334 -336l-23 25l332 336z" />
    <glyph glyph-name="percent.tnum" 
d="M1082 678q136 0 216 -97t80 -249t-79 -248t-216 -96t-219 96t-82 247t82 249t218 98zM1082 645q-120 0 -194 -90t-73 -224q0 -134 75 -223q76 -90 194 -90t189 88t71 224t-71 225q-71 90 -191 90zM339 1450q136 0 216 -97t80 -249t-79 -248t-216 -96t-219 96t-82 247
t82 249t218 98zM340 793q120 0 190 88t70 223t-70 225t-191 90q-120 0 -194 -90q-73 -90 -73 -225t74 -223t194 -88zM1120 1436l-792 -1436h-41l794 1436h39z" />
    <glyph glyph-name="plus.tnum" 
d="M723 1085v-391h412v-32h-412v-392h-31v392h-411v32h411v391h31z" />
    <glyph glyph-name="acute.case" horiz-adv-x="468" 
d="M313 1370l-125 -219h-30l116 219h39z" />
    <glyph glyph-name="breve.case" horiz-adv-x="788" 
d="M396 1190q-188 0 -232 186l31 4q47 -162 201 -162t198 162l33 -4q-43 -186 -231 -186z" />
    <glyph glyph-name="caron.case" horiz-adv-x="735" 
d="M389 1151h-41l-213 219h41l193 -199l190 199h41z" />
    <glyph glyph-name="circumflex.case" horiz-adv-x="735" 
d="M389 1370l211 -219h-41l-190 199l-193 -199h-41l213 219h41z" />
    <glyph glyph-name="dieresis.case" horiz-adv-x="751" 
d="M508 1167v234h33v-234h-33zM186 1167v234h33v-234h-33z" />
    <glyph glyph-name="dotaccent.case" horiz-adv-x="382" 
d="M178 1167v234h31v-234h-31z" />
    <glyph glyph-name="grave.case" horiz-adv-x="509" 
d="M254 1366l84 -215h-31l-92 215h39z" />
    <glyph glyph-name="hungarumlaut.case" horiz-adv-x="733" 
d="M338 1370l-92 -219h-33l84 219h41zM551 1370l-92 -219h-33l84 219h41z" />
    </font>
</defs>
</svg>
