<?xml version="1.0" standalone="no"?>
<!DOCTYPE svg PUBLIC "-//W3C//DTD SVG 1.1//EN" "http://www.w3.org/Graphics/SVG/1.1/DTD/svg11.dtd" >
<svg xmlns="http://www.w3.org/2000/svg">
<metadata>
Created by FontPrep 20130207 at Wed Nov 20 11:16:36 2013
 By MacMini
Copyright (c) 2012 by typedepot. All rights reserved.
</metadata>
<defs>
<font id="bdb970c1bc80ee13718b71e28626c210" horiz-adv-x='1024' >
  <font-face 
    font-family="CentraleSansCndXLight"
    font-weight="325"
    font-stretch="normal"
    units-per-em="2048"
    panose-1="2 0 0 0 0 0 0 0 0 0"
    ascent="1536"
    descent="-512"
    x-height="1065"
    cap-height="1434"
    bbox="-72 -455 2249 1866"
    underline-thickness="102"
    underline-position="-102"
    unicode-range="U+000D-FB04"
  />
<missing-glyph horiz-adv-x="1099" 
d="M205 1329v-1403l309 692zM901 1350l-321 -732l321 -718v1450zM217 1434l330 -744l327 744h-657zM145 1499h816v-1745h-816v1745zM877 -184l-328 733l-330 -733h658z" />
    <glyph glyph-name="f_f" unicode="ff" horiz-adv-x="1026" 
d="M262 1204v-139h373v154q0 313 235 313q68 0 131 -19l-20 -73q-45 10 -90 10q-92 0 -125 -56t-33 -171v-158h254v-76h-254v-989h-98v989h-373v-989h-98v989h-111v60l111 16v137q0 313 229 314q72 -1 131 -19l-20 -74q-45 10 -76 11q-94 0 -130 -56t-36 -174z" />
    <glyph glyph-name="f_i" unicode="fi" horiz-adv-x="923" 
d="M471 1440q-115 0 -163 -84t-48 -203v-88h516v-1065h-96v989h-420v-989h-96v989h-111v60l111 16v102q0 152 80 250t220 98t269 -90l-41 -55q-106 70 -221 70z" />
    <glyph glyph-name="f_l" unicode="fl" horiz-adv-x="956" 
d="M680 1143q0 141 -56 216t-152 75t-154 -75q-56 -75 -56 -216v-78h227v-76h-227v-989h-98v989h-111v60l111 16v78q0 176 86 274q86 99 221 99t220 -98t85 -275v-1002q0 -45 14 -58t50 -13l51 6v-78q-43 -14 -90 -14q-121 0 -121 147v1012z" />
    <glyph glyph-name="f_f_i" unicode="ffi" horiz-adv-x="1400" 
d="M944 1450q-115 0 -163 -85t-48 -204v-96h518v-1065h-98v989h-420v-989h-98v989h-373v-989h-98v989h-111v60l111 16v137q0 313 233 314q68 0 127 -19l-20 -74q-45 10 -80 11q-90 0 -126 -58t-36 -172v-139h373v119q0 152 81 250t221 98t269 -90l-41 -62q-106 70 -221 70z
" />
    <glyph glyph-name="f_f_l" unicode="ffl" horiz-adv-x="1431" 
d="M1155 1159q0 141 -56 216q-57 75 -153 75t-152 -75t-57 -216v-94h228v-76h-228v-989h-98v989h-375v-989h-98v989h-111v60l111 16v137q0 313 233 314q68 0 127 -19l-20 -74q-45 10 -80 11q-90 0 -126 -58t-36 -172v-139h375v94q0 177 86 275t221 98t220 -98t85 -275v-1018
q1 -45 15 -58t49 -13l51 6v-78q-43 -14 -90 -14q-121 0 -121 147v1028z" />
    <glyph glyph-name=".notdef" horiz-adv-x="1099" 
d="M205 1329v-1403l309 692zM901 1350l-321 -732l321 -718v1450zM217 1434l330 -744l327 744h-657zM145 1499h816v-1745h-816v1745zM877 -184l-328 733l-330 -733h658z" />
    <glyph glyph-name=".null" horiz-adv-x="0" 
 />
    <glyph glyph-name=".null" horiz-adv-x="0" 
 />
    <glyph glyph-name="nonmarkingreturn" horiz-adv-x="681" 
 />
    <glyph glyph-name="CR" unicode="&#xd;" horiz-adv-x="501" 
 />
    <glyph glyph-name="space" unicode=" " horiz-adv-x="460" 
 />
    <glyph glyph-name="exclam" unicode="!" horiz-adv-x="460" 
d="M160 56q0 34 20 56t52 21q32 0 52 -21q19 -22 19 -55t-19 -53q-18 -20 -52 -20t-53 19t-19 53zM168 1434h127l-27 -1082h-73z" />
    <glyph glyph-name="quotedbl" unicode="&#x22;" horiz-adv-x="612" 
d="M383 1438h113l-76 -482h-58zM170 1438h111l-76 -482h-58z" />
    <glyph glyph-name="numbersign" unicode="#" horiz-adv-x="1345" 
d="M520 985l-84 -551h400l82 551h-398zM502 1434h86l-56 -363h398l55 363h86l-55 -363h235l-12 -86h-235l-82 -551h235l-14 -88h-236l-51 -346h-86l51 346h-397l-51 -346h-86l51 346h-246l14 88h242l86 551h-246l13 86h245z" />
    <glyph glyph-name="dollar" unicode="$" horiz-adv-x="1013" 
d="M547 -180h-68v162q-178 10 -364 104l37 80q193 -92 347 -92t233 74t79 204q0 194 -212 281q-125 51 -161 65q-37 14 -90 39t-76 42q-84 62 -110 117q-43 91 -43 183q0 169 100 265t260 106v176h68v-178q158 -8 319 -86l-32 -80q-156 78 -302 78t-228 -70
q-81 -70 -81 -213t128 -223q46 -29 78 -42q33 -13 103 -41t106 -43t100 -53t96 -76q83 -101 82 -255t-98 -253t-271 -107v-164z" />
    <glyph glyph-name="percent" unicode="%" horiz-adv-x="1388" 
d="M1040 61q78 0 129 77t51 189q0 113 -52 191t-129 78t-129 -79t-52 -189t52 -189q52 -78 130 -78zM1038 -16q-120 0 -194 96t-74 247t75 249t195 98t195 -98q74 -98 74 -247t-75 -247t-196 -98zM352 838q78 0 129 76t51 189t-52 191t-129 78t-129 -79t-52 -189t52 -188
t130 -78zM291 0l706 1434h97l-707 -1434h-96zM350 760q-120 0 -194 96t-74 247t75 249t195 98t195 -98q74 -98 74 -246t-75 -248q-75 -98 -196 -98z" />
    <glyph glyph-name="ampersand" unicode="&#x26;" horiz-adv-x="1138" 
d="M480 1374q-87 0 -139 -58t-52 -153q0 -74 44 -143q13 -20 18 -28t21 -32q16 -22 22 -30q4 -8 24 -34l26 -34q108 75 155 122q46 46 63 88q16 42 16 91q0 92 -55 152q-56 59 -143 59zM170 397q0 -143 94 -233t225 -90q181 0 306 176l-375 504q-250 -154 -250 -357z
M288 1370q78 80 194 80t195 -79t79 -206q0 -195 -269 -362l361 -484q61 123 61 263h82q0 -88 -24 -191t-62 -143l182 -248h-108l-127 176q-143 -193 -365 -192q-169 0 -289 110t-120 291q0 137 76 239t217 193q-2 2 -35 47q-33 44 -39 56t-31 52q-55 88 -55 203
q-1 115 77 195z" />
    <glyph glyph-name="quotesingle" unicode="'" horiz-adv-x="397" 
d="M168 1438h113l-74 -482h-57z" />
    <glyph glyph-name="parenleft" unicode="(" horiz-adv-x="598" 
d="M96 594q0 270 118 492t267 364l47 -59q-328 -342 -328 -793t330 -801l-49 -59q-152 143 -268 365q-117 221 -117 491z" />
    <glyph glyph-name="parenright" unicode=")" horiz-adv-x="598" 
d="M502 595q0 -269 -116 -491t-269 -366l-47 59q330 354 328 801t-326 793l45 59q149 -142 267 -364t118 -491z" />
    <glyph glyph-name="asterisk" unicode="*" horiz-adv-x="753" 
d="M129 1110l211 127l-211 123l37 59l194 -151l-18 278h70l-17 -278l195 151l35 -59l-211 -123l211 -127l-35 -61l-195 153l17 -276h-70l18 276l-194 -153z" />
    <glyph glyph-name="plus" unicode="+" horiz-adv-x="905" 
d="M418 1047h71v-353h297v-76h-297v-352h-71v352h-297v76h297v353z" />
    <glyph glyph-name="comma" unicode="," horiz-adv-x="423" 
d="M213 117q35 0 59 -42t23 -100q0 -137 -139 -223l-19 33q49 37 78 103t6 122q-4 -18 -28 -18q-53 0 -54 59q-1 29 19 47t55 19z" />
    <glyph glyph-name="hyphen" unicode="-" horiz-adv-x="888" 
d="M137 694h615v-73h-615v73z" />
    <glyph glyph-name="period" unicode="." horiz-adv-x="389" 
d="M195 -8q-25 0 -43 17t-19 45q1 28 19 47t43 19t42 -18q17 -20 17 -47t-17 -45t-42 -18z" />
    <glyph glyph-name="slash" unicode="/" horiz-adv-x="831" 
d="M70 -68l608 1573h84l-608 -1573h-84z" />
    <glyph glyph-name="zero" unicode="0" horiz-adv-x="1212" 
d="M606 76q180 0 285 182q104 182 104 458t-104 460q-105 182 -285 182t-284 -180t-104 -459t104 -461t284 -182zM606 1450q222 0 358 -208t136 -522t-134 -525t-359 -211q-224 0 -359 209t-135 524t135 524t358 209z" />
    <glyph glyph-name="one" unicode="1" horiz-adv-x="559" 
d="M375 1434v-1434h-96v1321l-181 -107l-35 66l236 154h76z" />
    <glyph glyph-name="two" unicode="2" horiz-adv-x="987" 
d="M467 1450q159 0 267 -111t108 -295t-145 -379q-65 -89 -134 -167l-354 -410h672v-88h-789v86l420 479q236 266 236 471q0 148 -88 234t-216 86q-129 0 -276 -86l-39 71q180 109 338 109z" />
    <glyph glyph-name="three" unicode="3" horiz-adv-x="976" 
d="M458 1450q154 0 257 -93q104 -93 104 -233q-1 -140 -69 -234q-68 -93 -172 -118q135 -37 215 -132t79 -243q0 -193 -118 -303t-304 -110t-337 96l30 70q143 -74 288 -74t244 88t99 246t-105 242t-247 83h-90v78h102q117 0 203 77t86 204q0 128 -84 196t-209 68t-254 -51
l-24 73q152 70 306 70z" />
    <glyph glyph-name="four" unicode="4" horiz-adv-x="1046" 
d="M713 455v811l-547 -811h547zM809 1434v-979h156v-80h-156v-375h-96v375h-641v80l655 979h82z" />
    <glyph glyph-name="five" unicode="5" horiz-adv-x="999" 
d="M850 1434v-88h-555l-55 -525q113 90 256 90q178 0 292 -127q114 -126 113 -330q0 -204 -128 -337t-309 -133t-355 102l34 74q159 -84 309 -84t251 112t101 272q0 161 -94 265t-232 104t-253 -100q-59 33 -69 37l71 668h623z" />
    <glyph glyph-name="six" unicode="6" 
d="M874 457q0 165 -92 273t-227 108t-228 -110t-93 -268t92 -275q92 -115 231 -115t228 110t89 277zM606 1362q-172 0 -282 -156t-115 -495l2 -43q39 126 136 192t224 66q164 0 279 -127t115 -334t-111 -344t-293 -137q-215 0 -330 184t-114 500q0 225 45 370q45 144 97 225
t141 134t204 53q166 0 307 -84l-34 -76q-147 72 -271 72z" />
    <glyph glyph-name="seven" unicode="7" horiz-adv-x="917" 
d="M88 1434h778v-84l-520 -1350h-96l516 1346h-678v88z" />
    <glyph glyph-name="eight" unicode="8" horiz-adv-x="1019" 
d="M508 1366q-113 0 -189 -74q-75 -74 -75 -201t72 -209t193 -83q121 0 193 82q72 81 72 209t-76 202t-190 74zM193 384q0 -138 89 -226t226 -88t227 88t90 226t-89 231t-228 93t-227 -92q-88 -94 -88 -232zM508 1450q150 0 252 -95t102 -263q0 -123 -60 -212t-167 -122
q129 -37 207 -131t78 -259t-122 -275q-122 -109 -288 -109t-288 110t-122 293q0 147 79 243t204 128q-109 33 -167 121t-58 213q0 168 100 263t250 95z" />
    <glyph glyph-name="nine" unicode="9" 
d="M199 974q0 -166 86 -272t228 -106t233 110q92 110 92 267t-92 274t-232 117q-139 0 -227 -112t-88 -278zM494 510q-172 0 -283 126t-111 334t113 344t299 136q215 0 326 -183t110 -501q0 -228 -43 -372t-94 -224t-141 -133t-230 -53t-286 84l34 79q152 -72 271 -71
q175 0 285 152t114 491q0 6 -2 17t-2 22q-35 -112 -133 -180t-227 -68z" />
    <glyph glyph-name="colon" unicode=":" horiz-adv-x="393" 
d="M197 -8q-25 0 -43 17t-17 45q-1 28 17 46t43 18t42 -18t17 -45t-17 -45t-42 -18zM137 838q-1 27 17 45t43 18t42 -18t17 -45t-17 -44q-17 -18 -42 -18t-43 18t-17 44z" />
    <glyph glyph-name="semicolon" unicode=";" horiz-adv-x="454" 
d="M152 53q0 29 18 49t54 19q36 0 61 -42t24 -99q0 -137 -139 -224l-18 31q48 39 76 103t8 124q-4 -20 -29 -20q-55 0 -55 59zM158 838q0 27 17 45t43 18t42 -17t16 -45t-16 -45q-16 -18 -42 -18t-43 18t-17 44z" />
    <glyph glyph-name="less" unicode="&#x3c;" horiz-adv-x="759" 
d="M190 688q83 -47 416 -246v-86l-500 299v68q92 55 261 155t237 140v-84z" />
    <glyph glyph-name="equal" unicode="=" horiz-adv-x="878" 
d="M145 545h588v-74h-588v74zM145 864h588v-73h-588v73z" />
    <glyph glyph-name="greater" unicode="&#x3e;" horiz-adv-x="761" 
d="M565 688q-312 185 -409 246v84l497 -295v-68l-499 -299v86z" />
    <glyph glyph-name="question" unicode="?" horiz-adv-x="823" 
d="M362 133q32 1 51 -21t19 -55t-18 -53t-51 -20t-54 19q-20 19 -20 53t20 56q21 21 53 21zM381 1448q150 0 250 -87t106 -215t-47 -213t-184 -204q-41 -37 -73 -96t-32 -127v-154h-82v113q1 100 17 153q16 54 55 104t81 88t82 78q93 93 92 215q-1 123 -81 189
q-79 66 -203 66t-233 -84l-39 69q53 47 134 76t157 29z" />
    <glyph glyph-name="at" unicode="@" horiz-adv-x="1624" 
d="M820 643q-86 0 -154 -44t-68 -140q0 -97 53 -151t144 -54t162 75t71 179v110q-121 25 -208 25zM1247 197q-98 0 -148 55t-50 149q-25 -88 -99 -146t-174 -58q-100 1 -171 67t-71 191t84 183t190 58t191 -18l29 -6v94q0 123 -50 170t-148 47t-212 -33l-14 51
q123 41 248 41t184 -66t60 -210v-356q0 -156 151 -156q223 0 223 387q0 189 -52 333t-141 231q-177 173 -433 173q-298 0 -484 -222t-186 -550t171 -546t464 -218q133 0 242 47l24 -55q-135 -61 -276 -61q-309 -1 -502 237t-193 596t207 602q207 242 517 242t510 -209
t200 -588q0 -209 -70 -333t-221 -123z" />
    <glyph glyph-name="A" unicode="A" horiz-adv-x="1146" 
d="M317 494h508l-254 829zM637 1442l450 -1442h-110l-127 408h-557l-127 -408h-107l451 1442h127z" />
    <glyph glyph-name="B" unicode="B" horiz-adv-x="1157" 
d="M285 1346v-578h362q100 0 173 76t73 202t-75 214q-75 86 -185 86h-348zM285 88h420q100 0 177 84q76 84 76 210t-80 214q-81 88 -200 88h-393v-596zM182 1434h463q147 0 247 -106t101 -271q0 -119 -52 -205t-144 -119q115 -27 189 -123t73 -248q0 -152 -98 -258
q-98 -104 -242 -104h-537v1434z" />
    <glyph glyph-name="C" unicode="C" horiz-adv-x="1167" 
d="M735 1450q195 0 348 -102l-36 -78q-154 88 -308 88q-229 0 -382 -186t-153 -454q0 -269 153 -456q153 -186 378 -186q164 0 312 86l36 -78q-170 -100 -356 -100q-262 0 -445 210t-184 523q0 313 184 523t453 210z" />
    <glyph glyph-name="D" unicode="D" horiz-adv-x="1243" 
d="M285 1346v-1258h297q131 0 235 74q219 158 219 555q0 185 -55 331t-161 222t-238 76h-297zM598 0h-416v1434h416q152 0 279 -86q131 -96 197 -262t65 -372q0 -204 -66 -370q-65 -166 -193 -255t-282 -89z" />
    <glyph glyph-name="E" unicode="E" horiz-adv-x="1126" 
d="M182 1434h826v-88h-723v-605h624v-88h-624v-565h751v-88h-854v1434z" />
    <glyph glyph-name="F" unicode="F" horiz-adv-x="1062" 
d="M182 1434h826v-88h-723v-615h624v-88h-624v-643h-103v1434z" />
    <glyph glyph-name="G" unicode="G" horiz-adv-x="1302" 
d="M743 1450q205 0 377 -109l-39 -79q-53 36 -145 66t-191 30q-237 0 -389 -188t-152 -454q0 -267 153 -454q153 -186 371 -186t374 170v362h-338v90h432v-491q-193 -223 -462 -223t-451 211q-183 211 -183 523t184 522t459 210z" />
    <glyph glyph-name="H" unicode="H" horiz-adv-x="1310" 
d="M182 1434h103v-666h741v666h102v-1434h-102v682h-741v-682h-103v1434z" />
    <glyph glyph-name="I" unicode="I" horiz-adv-x="466" 
d="M182 1434h103v-1434h-103v1434z" />
    <glyph glyph-name="J" unicode="J" horiz-adv-x="894" 
d="M362 -16q-76 0 -142 30t-104 73q-76 85 -91 130l67 47q98 -188 270 -188q129 0 195 98t66 246v1014h102v-990q1 -208 -91 -334t-272 -126z" />
    <glyph glyph-name="K" unicode="K" horiz-adv-x="1093" 
d="M182 0v1434h103v-570l-2 -301h4l620 871h117l-455 -641l508 -793h-119l-456 713l-217 -301v-412h-103z" />
    <glyph glyph-name="L" unicode="L" horiz-adv-x="1011" 
d="M186 1434h103v-1346h696v-88h-799v1434z" />
    <glyph glyph-name="M" unicode="M" horiz-adv-x="1593" 
d="M1411 1434v-1434h-102v614l4 682h-6l-461 -1212h-103l-458 1212h-6l6 -684v-612h-103v1434h148l463 -1233h2l469 1233h147z" />
    <glyph glyph-name="N" unicode="N" horiz-adv-x="1280" 
d="M182 1434h107l553 -988l157 -290l-4 645v633h103v-1434h-113l-549 985l-155 289l4 -639v-635h-103v1434z" />
    <glyph glyph-name="O" unicode="O" horiz-adv-x="1449" 
d="M205 716q0 -272 145 -456q146 -184 374 -184t375 182q146 182 146 454t-148 459q-149 187 -373 187t-372 -184q-147 -185 -147 -458zM100 717q0 313 175 523t449 210t450 -209t176 -523t-175 -524t-451 -210t-451 210q-173 210 -173 523z" />
    <glyph glyph-name="P" unicode="P" horiz-adv-x="1110" 
d="M285 1346v-666h374q135 0 213 92t78 238t-78 241q-78 94 -213 95h-374zM182 1434h475q176 0 284 -120t108 -302t-108 -301t-284 -119h-372v-592h-103v1434z" />
    <glyph glyph-name="Q" unicode="Q" horiz-adv-x="1441" 
d="M199 716q0 -272 145 -456q146 -184 374 -184t375 182q146 182 146 454t-148 459q-149 187 -373 187t-372 -184q-147 -185 -147 -458zM94 717q0 313 175 523t449 210t449 -209q176 -209 176 -524q1 -258 -121 -451t-327 -256v-2q92 -66 216 -117t173 -61l-24 -88
q-86 24 -224 94t-252 152q-45 -4 -67 -4q-276 0 -450 210q-173 210 -173 523z" />
    <glyph glyph-name="R" unicode="R" horiz-adv-x="1171" 
d="M287 1346v-623h409q113 0 189 88t76 220t-80 223t-203 92h-391zM184 1434h506q160 0 264 -115t104 -276t-72 -262q-73 -101 -200 -138l314 -643h-107l-315 635h-391v-635h-103v1434z" />
    <glyph glyph-name="S" unicode="S" horiz-adv-x="1028" 
d="M512 -16q-200 0 -414 106l29 76q229 -92 385 -92t242 76t86 208t-94 198q-94 65 -257 120q-71 27 -111 44t-98 53q-174 108 -171 312q0 174 110 270q111 95 303 95t365 -86l-33 -80l-25 10l-25 10t-45 17q-30 10 -64 17q-34 6 -69 14t-96 8q-143 0 -231 -73t-88 -199
t76 -185q31 -25 54 -42t150 -66q127 -48 165 -63t106 -54t98 -77q82 -102 82 -241q0 -184 -115 -280t-315 -96z" />
    <glyph glyph-name="T" unicode="T" horiz-adv-x="1015" 
d="M20 1434h973v-88h-434v-1346h-102v1346h-437v88z" />
    <glyph glyph-name="U" unicode="U" horiz-adv-x="1245" 
d="M170 1434h100v-990q0 -162 98 -265t256 -103q157 0 254 103t97 265v990h100v-983q0 -209 -124 -338q-123 -129 -329 -129t-329 130t-123 337v983z" />
    <glyph glyph-name="V" unicode="V" horiz-adv-x="1122" 
d="M51 1434h115l401 -1303h2l398 1303h112l-444 -1434h-135z" />
    <glyph glyph-name="W" unicode="W" horiz-adv-x="1695" 
d="M799 1434h125l303 -1289h4l309 1289h109l-351 -1436h-137l-299 1274h-4l-301 -1274h-137l-352 1436h114l305 -1289h5z" />
    <glyph glyph-name="X" unicode="X" horiz-adv-x="1118" 
d="M1081 0h-120l-402 629l-403 -629h-119l461 707l-463 727h121l403 -639l404 639h116l-458 -721z" />
    <glyph glyph-name="Y" unicode="Y" horiz-adv-x="1050" 
d="M575 0h-104v588l-430 846h111l372 -752h2l373 752h107l-431 -846v-588z" />
    <glyph glyph-name="Z" unicode="Z" horiz-adv-x="1054" 
d="M86 1434h901v-74l-799 -1270l2 -4l256 2h541v-88h-926v74l799 1269l-2 5l-258 -2h-514v88z" />
    <glyph glyph-name="bracketleft" unicode="[" horiz-adv-x="512" 
d="M426 1450v-80h-178v-1667h178v-80h-260v1827h260z" />
    <glyph glyph-name="backslash" unicode="\" horiz-adv-x="833" 
d="M680 -68l-610 1573h84q406 -1049 610 -1573h-84z" />
    <glyph glyph-name="bracketright" unicode="]" horiz-adv-x="512" 
d="M86 1370v80h260v-1827h-260v80h178v1667h-178z" />
    <glyph glyph-name="underscore" unicode="_" horiz-adv-x="972" 
d="M135 -195h701v-71h-701v71z" />
    <glyph glyph-name="grave" unicode="`" horiz-adv-x="489" 
d="M156 1468l77 48l109 -285h-51z" />
    <glyph glyph-name="a" unicode="a" horiz-adv-x="989" 
d="M733 395v133q-135 29 -235 29t-166 -20q-64 -19 -114 -79t-50 -165t71 -164t189 -59t211 94q94 94 94 231zM829 131q-1 -55 49 -55q20 0 58 4v-70q-33 -16 -84 -16t-85 31t-34 90v84q-41 -103 -130 -159t-216 -56t-222 82t-95 244t111 245q112 82 290 82q127 0 262 -27
v127q0 147 -64 202q-65 54 -205 54t-280 -45l-20 78q176 55 338 55t244 -79q83 -79 83 -259v-612z" />
    <glyph glyph-name="b" unicode="b" horiz-adv-x="1124" 
d="M586 995q-150 0 -244 -132t-94 -331q0 -198 98 -330t244 -132t244 134t98 328t-98 329q-98 134 -248 134zM150 1499h98v-659q49 121 146 181t212 60q188 -1 308 -157t120 -390t-120 -393q-120 -158 -308 -157q-137 0 -230 72t-132 177l-15 -233h-79v1499z" />
    <glyph glyph-name="c" unicode="c" horiz-adv-x="901" 
d="M588 995q-176 0 -289 -138q-113 -139 -113 -325t113 -324t291 -138q102 0 205 51l28 -70q-113 -67 -250 -67q-211 0 -348 158t-137 390q0 234 136 392t349 157q137 0 250 -65l-28 -72q-111 51 -207 51z" />
    <glyph glyph-name="d" unicode="d" horiz-adv-x="1126" 
d="M540 995q-150 0 -248 -134t-99 -329q0 -194 98 -328q97 -134 243 -134t244 132t98 332t-93 331q-93 130 -243 130zM877 1499h98v-1499h-80l-14 233q-39 -106 -132 -178t-231 -71q-188 0 -308 158t-120 392t120 391t308 156q115 0 212 -60t147 -181v659z" />
    <glyph glyph-name="e" unicode="e" horiz-adv-x="1021" 
d="M193 571h649q-4 237 -129 358q-70 67 -172 66q-150 0 -245 -121t-103 -303zM563 -16q-209 0 -342 160t-133 389t124 389t320 160t304 -154q108 -152 108 -367l-4 -67h-747q10 -186 115 -306t270 -118q115 0 268 73l33 -71q-156 -88 -316 -88z" />
    <glyph glyph-name="f" unicode="f" horiz-adv-x="561" 
d="M264 1192v-127h256v-76h-256v-989h-96v989h-111v60l111 16v123q0 328 248 328q70 -1 125 -17l-21 -76q-39 10 -92 11q-94 0 -129 -62t-35 -180z" />
    <glyph glyph-name="g" unicode="g" horiz-adv-x="927" 
d="M754 -57q0 96 -54 134t-196 38t-223 22q-98 -74 -99 -196q0 -207 286 -207t286 209zM468 1001q-110 -1 -176 -69t-65 -190q0 -122 65 -190q66 -68 176 -69q110 0 176 68q66 69 65 189q1 120 -65 190t-176 71zM852 1065v-66l-158 -12q113 -68 113 -230q0 -161 -96 -257
q-97 -96 -227 -96t-195 45q-74 -59 -74 -136t90 -99q67 -16 162 -19h78q305 0 305 -254q0 -289 -382 -289t-382 278q0 135 129 238q-86 51 -86 145t107 176q-106 92 -106 249t95 250q96 93 244 93q20 0 127 -16h256z" />
    <glyph glyph-name="h" unicode="h" horiz-adv-x="1058" 
d="M150 1499h96v-653q29 90 113 163q85 73 234 73t237 -118t90 -335v-629h-97v639q0 166 -70 261q-71 95 -205 95q-134 1 -218 -115t-84 -257v-623h-96v1499z" />
    <glyph glyph-name="i" unicode="i" horiz-adv-x="411" 
d="M76 1065h184v-1065h-96v981l-88 20v64zM197 1257q-37 0 -60 25q-23 26 -23 62t23 61t60 25t59 -25t23 -62q-1 -37 -23 -61t-59 -25z" />
    <glyph glyph-name="j" unicode="j" horiz-adv-x="417" 
d="M205 1257q-37 0 -60 25q-23 26 -23 62t23 61t60 25t59 -25t23 -62q-1 -37 -23 -61t-59 -25zM74 -270q98 0 98 170v1081l-88 20v64h184v-1206q0 -82 -47 -148t-135 -65q-55 0 -111 22l21 72q27 -10 78 -10z" />
    <glyph glyph-name="k" unicode="k" horiz-adv-x="849" 
d="M150 1499h98v-676l-2 -360l450 602h109l-363 -479l363 -586h-107l-313 502l-137 -180v-322h-98v1499z" />
    <glyph glyph-name="l" unicode="l" horiz-adv-x="434" 
d="M160 1499h96v-1358q0 -45 14 -58t49 -13l52 6v-78q-43 -14 -90 -14q-121 0 -121 147v1368z" />
    <glyph glyph-name="m" unicode="m" horiz-adv-x="1579" 
d="M150 1065h73l15 -182q35 88 116 143q82 55 186 55t181 -57q76 -57 96 -158q33 94 115 154t192 61q154 0 235 -100t81 -283v-698h-97v702q0 138 -62 216t-176 78t-189 -92q-75 -91 -74 -224v-680h-97v715q0 137 -63 209q-64 72 -172 72t-186 -94q-78 -93 -78 -222v-680
h-96v1065z" />
    <glyph glyph-name="n" unicode="n" horiz-adv-x="1056" 
d="M150 1065h73l17 -221q28 74 84 131q105 108 261 107q157 0 245 -118t90 -335v-629h-97v639q0 166 -70 261q-71 95 -206 95q-135 1 -218 -119t-83 -266v-610h-96v1065z" />
    <glyph glyph-name="o" unicode="o" horiz-adv-x="1105" 
d="M552 995q-163 0 -263 -132q-101 -132 -101 -331q0 -198 100 -330t264 -132q163 0 264 132q102 132 102 330t-102 331q-102 132 -264 132zM86 532q0 236 131 393t336 157t336 -158q131 -156 131 -392t-132 -392t-336 -156t-335 156t-131 392z" />
    <glyph glyph-name="p" unicode="p" horiz-adv-x="1122" 
d="M586 995q-148 0 -244 -131t-96 -333q0 -203 96 -333t242 -130t246 135t100 329t-98 329q-98 134 -246 134zM604 1081q188 -1 308 -157t120 -390t-120 -393q-120 -158 -308 -157q-123 0 -220 66t-138 171v-569h-96v1413h73l17 -240q47 127 142 191t222 65z" />
    <glyph glyph-name="q" unicode="q" horiz-adv-x="1122" 
d="M534 995q-148 0 -245 -134q-99 -134 -99 -329q0 -194 100 -328t246 -134t242 131t96 331t-96 332q-96 131 -244 131zM516 1081q127 -1 222 -65t143 -191l16 240h74v-1413h-97v569q-41 -106 -138 -172t-220 -65q-188 0 -308 158t-120 392t120 390t308 157z" />
    <glyph glyph-name="r" unicode="r" horiz-adv-x="573" 
d="M150 1065h71l17 -211q25 90 101 155q77 65 187 64v-96q-128 0 -204 -84t-76 -242v-651h-96v1065z" />
    <glyph glyph-name="s" unicode="s" horiz-adv-x="819" 
d="M741 269q0 -137 -88 -211q-89 -74 -241 -74t-316 82l27 75q164 -73 283 -73t180 53t61 135t-32 118q-13 15 -20 25q-7 11 -29 23t-30 17t-36 17q-29 12 -38 15q-9 4 -43 15q-251 81 -302 197q-23 50 -23 118q0 133 89 207t235 74t284 -62l-28 -76q-117 53 -237 53
t-183 -49q-64 -49 -64 -143t70 -142q52 -37 189 -86q137 -50 192 -92q100 -80 100 -216z" />
    <glyph glyph-name="t" unicode="t" horiz-adv-x="591" 
d="M274 1372v-307h248v-76h-248v-721q0 -120 28 -160t90 -40t128 18l6 -78q-55 -25 -133 -24q-119 0 -167 68t-48 216v721h-135v64l135 12l19 307h77z" />
    <glyph glyph-name="u" unicode="u" 
d="M240 424q0 -354 278 -354q142 0 220 104t77 248v643h98v-1065h-75l-15 195q-35 -87 -124 -149t-233 -62t-235 106q-90 106 -90 322v653h99v-641z" />
    <glyph glyph-name="v" unicode="v" horiz-adv-x="935" 
d="M72 1065h104l295 -959l291 959h102l-334 -1065h-122z" />
    <glyph glyph-name="w" unicode="w" horiz-adv-x="1443" 
d="M672 1065h102l240 -942l260 942h94l-293 -1065h-121l-233 915l-232 -915h-120l-293 1065h98l256 -942h2z" />
    <glyph glyph-name="x" unicode="x" horiz-adv-x="892" 
d="M49 0l340 530l-336 535h109l289 -461l288 461h103l-336 -530l342 -535h-109l-293 463l-294 -463h-103z" />
    <glyph glyph-name="y" unicode="y" horiz-adv-x="942" 
d="M72 1065h104l303 -942l289 942h102l-446 -1413h-98l106 332z" />
    <glyph glyph-name="z" unicode="z" horiz-adv-x="880" 
d="M84 1065h721v-78l-625 -903l2 -4l277 2h346v-82h-744v76l627 905l-2 4l-307 -2h-295v82z" />
    <glyph glyph-name="braceleft" unicode="{" horiz-adv-x="571" 
d="M199 725v416q0 169 50 239t204 70h32v-78h-39q-100 0 -132 -50t-31 -187v-412q0 -154 -101 -186q100 -33 101 -187v-411q0 -137 31 -188q32 -50 132 -50h39v-78h-32q-154 0 -204 70t-50 239v416q0 150 -123 154v69q123 4 123 154z" />
    <glyph glyph-name="bar" unicode="|" horiz-adv-x="411" 
d="M166 1636h80v-1941h-80v1941z" />
    <glyph glyph-name="braceright" unicode="}" horiz-adv-x="571" 
d="M373 348v-416q0 -170 -50 -240t-204 -69h-33v78h39q100 0 132 50t32 188v411q0 154 100 187q-100 33 -100 186v412q0 137 -32 187t-132 50h-39v78h33q154 0 204 -70t50 -239v-416q0 -150 123 -154v-69q-123 -4 -123 -154z" />
    <glyph glyph-name="exclamdown" unicode="&#xa1;" horiz-adv-x="423" 
d="M212 932q-32 0 -51 22t-19 54q0 33 18 53q20 20 53 20t52 -19t19 -53q0 -33 -20 -55t-52 -22zM276 -369h-126l26 1082h74z" />
    <glyph glyph-name="cent" unicode="&#xa2;" horiz-adv-x="983" 
d="M569 -16h-53v170q-194 14 -314 170t-120 376t121 376q121 155 313 171v170h53v-168q137 -6 252 -67l-28 -72q-12 7 -59 23q-88 30 -173 30q-174 0 -275 -137q-102 -138 -102 -326t102 -325t275 -137q102 0 198 39q29 12 34 14l28 -72q-121 -66 -252 -67v-168z" />
    <glyph glyph-name="sterling" unicode="&#xa3;" horiz-adv-x="1015" 
d="M566 1348q-122 0 -190 -88t-67 -236v-307h445v-66h-445v-344q1 -88 -31 -143t-67 -76h684v-88h-795v88q12 6 30 20t49 69q30 54 30 124v350h-96v66h96v311q0 186 91 304t260 118t286 -158l-68 -55q-90 111 -212 111z" />
    <glyph glyph-name="yen" unicode="&#xa5;" horiz-adv-x="1083" 
d="M592 514h231v-53h-231v-125h231v-53h-231v-283h-96v283h-232v53h232v125h-232v53h232v74l-437 846h109l375 -752l370 752h109l-430 -846v-74z" />
    <glyph glyph-name="section" unicode="&#xa7;" horiz-adv-x="1046" 
d="M195 582q0 -129 130 -201q89 -50 217 -93t169 -59q135 135 135 270t-127 204q-94 52 -218 94q-124 41 -169 59q-137 -113 -137 -274zM813 -37q0 86 -73 143q-73 56 -176 92q-104 36 -206 74t-175 117q-73 78 -72 195q0 168 157 311q-145 92 -145 229q0 309 407 310
q174 0 363 -95l-31 -75q-180 84 -325 84q-305 0 -306 -226q0 -155 248 -238q101 -34 205 -73t177 -115t73 -192q0 -70 -42 -160t-116 -154q144 -86 144 -232t-106 -226t-292 -80q-188 0 -372 90l30 74q158 -72 303 -74q330 -8 330 221z" />
    <glyph glyph-name="dieresis" unicode="&#xa8;" horiz-adv-x="768" 
d="M494 1298q0 28 18 48t46 20t46 -19t18 -49t-18 -47q-18 -18 -47 -18t-46 18t-17 47zM152 1298q0 28 18 48t46 20t46 -19t18 -49t-18 -47q-18 -18 -47 -18t-46 18t-17 47z" />
    <glyph glyph-name="copyright" unicode="&#xa9;" horiz-adv-x="1456" 
d="M732 373q-120 0 -211 102t-91 251t91 251t215 102t200 -80l-43 -49q-67 56 -155 56t-156 -82t-68 -198t68 -198t158 -82t155 58l41 -51q-84 -80 -204 -80zM154 725q0 -276 168 -478t404 -202q234 0 404 201q170 202 170 480t-168 478t-405 201q-237 0 -405 -202
t-168 -478zM728 1450q255 0 436 -214q182 -214 182 -511t-182 -511t-437 -214q-254 0 -436 213t-182 512t182 512t437 213z" />
    <glyph glyph-name="ordfeminine" unicode="&#xaa;" horiz-adv-x="851" 
d="M113 635h620v-66h-620v66zM573 1059v57q-78 23 -163 23q-205 0 -205 -162q0 -154 164 -154q96 0 150 70t54 166zM418 1509q117 0 172 -54t55 -179v-414q0 -45 62 -33v-55q-19 -10 -51 -10t-58 19t-25 59v53q-63 -135 -211 -135q-98 0 -164 54t-65 161q0 107 74 164
t186 57q64 0 156 -16l24 -6v88q0 106 -39 145q-40 39 -150 39t-191 -29l-15 53q123 39 240 39z" />
    <glyph glyph-name="guillemotleft" unicode="&#xab;" horiz-adv-x="966" 
d="M850 113l-49 -50l-346 461v17l346 463l51 -52l-287 -420zM432 1004l51 -52l-288 -420l286 -419l-49 -50l-348 461v17z" />
    <glyph glyph-name="registered" unicode="&#xae;" horiz-adv-x="1056" 
d="M434 1180v-195h125q35 0 59 28q24 27 25 69q0 42 -26 70t-60 28h-123zM399 1212h162q49 0 82 -38t33 -88q0 -52 -26 -87t-64 -43l104 -211h-41l-100 207h-115v-207h-35v467zM528 1393q-156 0 -252 -120t-96 -297t95 -297t251 -120t253 119t97 297t-96 298t-252 120z
M526 1434q172 0 282 -131t110 -325t-110 -327t-282 -133t-280 133t-107 327q-1 194 107 325t280 131z" />
    <glyph glyph-name="macron" unicode="&#xaf;" horiz-adv-x="792" 
d="M145 1319h508v-68h-508v68z" />
    <glyph glyph-name="degree" unicode="&#xb0;" horiz-adv-x="579" 
d="M172 1279q0 -54 37 -94t83 -40t82 38t36 95t-36 95t-83 38t-83 -39t-36 -93zM127 1278q0 78 49 131t116 53t114 -51t47 -131t-47 -133t-114 -53t-116 53t-49 131z" />
    <glyph glyph-name="plusminus" unicode="&#xb1;" horiz-adv-x="864" 
d="M141 274h580v-69h-580v69zM397 1073h68v-276h256v-68h-256v-276h-68v276h-256v68h256v276z" />
    <glyph glyph-name="acute" unicode="&#xb4;" horiz-adv-x="489" 
d="M252 1520l76 -41l-127 -248h-51z" />
    <glyph glyph-name="mu" unicode="&#xb5;" 
d="M252 -352h-88v1417h96v-641q0 -168 73 -261t215 -93t218 104t76 248v643h94v-1065h-70l-16 195q-86 -211 -326 -211q-92 0 -167 48t-105 136v-520z" />
    <glyph glyph-name="paragraph" unicode="&#xb6;" horiz-adv-x="888" 
d="M705 -182h-74v1536h-121v-1536h-76v813h-57q-143 4 -222 121q-79 118 -79 290t92 282t227 110h310v-1616z" />
    <glyph glyph-name="periodcentered" unicode="&#xb7;" horiz-adv-x="464" 
d="M332 613q0 -45 -30 -77t-71 -32t-69 32t-29 76q1 44 29 78q28 33 69 33t71 -32t30 -78z" />
    <glyph glyph-name="cedilla" unicode="&#xb8;" horiz-adv-x="559" 
d="M293 -123q53 0 93 -34q40 -35 40 -103t-46 -105q-81 -66 -245 -16l19 53q61 -12 86 -12q109 0 108 84q0 76 -90 76l-33 -4l-30 37l43 135h55l-29 -113q16 2 29 2z" />
    <glyph glyph-name="ordmasculine" unicode="&#xba;" horiz-adv-x="956" 
d="M160 631h620v-66h-620v66zM474 1446q-110 0 -178 -91t-67 -216t67 -211t176 -86t180 85t69 209q0 124 -69 217q-68 93 -178 93zM474 764q-146 0 -237 108t-91 264q0 158 90 266t237 108t241 -108q93 -108 93 -264t-93 -265q-94 -109 -240 -109z" />
    <glyph glyph-name="guillemotright" unicode="&#xbb;" horiz-adv-x="968" 
d="M166 63l-49 50l284 419l-286 420l51 52l346 -463v-17zM483 952l52 52l348 -463v-17l-348 -461l-50 50l287 419z" />
    <glyph glyph-name="questiondown" unicode="&#xbf;" horiz-adv-x="808" 
d="M528 1009q0 -33 -20 -55t-52 -22t-52 21q-19 22 -19 55t18 53q17 20 51 20t54 -19t20 -53zM436 -383q-150 0 -250 87t-106 215t47 213t184 204q41 37 73 96t32 127v154h82v-113q0 -100 -16 -153t-56 -103q-39 -50 -81 -89q-42 -38 -82 -78q-91 -91 -91 -214t80 -189
t204 -67q124 0 232 84l39 -70q-53 -47 -134 -75t-157 -29z" />
    <glyph glyph-name="Agrave" unicode="&#xc0;" horiz-adv-x="1146" 
d="M317 494h508l-254 829zM637 1442l450 -1442h-110l-127 408h-557l-127 -408h-107l451 1442h127zM416 1780l80 41l106 -303h-61z" />
    <glyph glyph-name="Aacute" unicode="&#xc1;" horiz-adv-x="1146" 
d="M317 494h508l-254 829zM637 1442l450 -1442h-110l-127 408h-557l-127 -408h-107l451 1442h127zM653 1821l72 -35l-117 -268h-61z" />
    <glyph glyph-name="Acircumflex" unicode="&#xc2;" horiz-adv-x="1146" 
d="M317 494h508l-254 829zM637 1442l450 -1442h-110l-127 408h-557l-127 -408h-107l451 1442h127zM455 1518h-84l164 219h75l164 -219h-84l-117 165h-2z" />
    <glyph glyph-name="Atilde" unicode="&#xc3;" horiz-adv-x="1146" 
d="M317 494h508l-254 829zM637 1442l450 -1442h-110l-127 408h-557l-127 -408h-107l451 1442h127zM698 1599q48 0 95 60l28 -23q-61 -113 -149 -112q-45 0 -113 40t-118 40t-89 -60l-28 23q53 113 147 112q43 0 111 -40t116 -40z" />
    <glyph glyph-name="Adieresis" unicode="&#xc4;" horiz-adv-x="1148" 
d="M317 494h508l-254 829zM637 1442l450 -1442h-110l-127 408h-557l-127 -408h-107l451 1442h127zM678 1597q0 29 18 49t46 19q28 0 46 -19q18 -18 18 -48t-18 -48t-47 -18t-46 18t-17 47zM336 1597q0 29 18 49t46 19q28 0 46 -19q18 -18 18 -48t-18 -48t-47 -18t-46 18
t-17 47z" />
    <glyph glyph-name="Aring" unicode="&#xc5;" horiz-adv-x="1146" 
d="M317 494h508l-254 829zM637 1442l450 -1442h-110l-127 408h-557l-127 -408h-107l451 1442h127zM571 1581q49 0 74 30t25 75q0 44 -25 74t-74 30t-73 -30t-25 -74q1 -44 25 -75q24 -30 73 -30zM571 1528q-71 0 -117 44t-46 114t46 114t118 43q72 0 117 -44q46 -43 46 -113
t-46 -114t-118 -44z" />
    <glyph glyph-name="AE" unicode="&#xc6;" horiz-adv-x="1624" 
d="M748 1346h-78l-334 -852h412v852zM1573 1434v-88h-723v-605h625v-88h-625v-565h752v-88h-854v408h-447l-160 -408h-106l577 1434h961z" />
    <glyph glyph-name="Ccedilla" unicode="&#xc7;" horiz-adv-x="1167" 
d="M98 724q0 306 184 516t447 210q199 0 354 -102l-36 -78q-162 88 -316 88q-221 0 -374 -186t-153 -455q0 -268 153 -455q153 -186 374 -186q168 0 316 86l36 -78q-166 -98 -348 -100l-26 -109q16 2 28 2q53 0 93 -34q40 -35 40 -103t-46 -105q-81 -65 -244 -16l18 53
q61 -12 86 -12q109 0 109 84q0 76 -91 76l-32 -4l-31 37l41 133q-246 20 -414 226t-168 512z" />
    <glyph glyph-name="Egrave" unicode="&#xc8;" horiz-adv-x="1124" 
d="M182 1434h826v-88h-723v-605h624v-88h-624v-565h751v-88h-854v1434zM481 1780l80 41l107 -303h-62z" />
    <glyph glyph-name="Eacute" unicode="&#xc9;" horiz-adv-x="1124" 
d="M182 1434h826v-88h-723v-605h624v-88h-624v-565h751v-88h-854v1434zM641 1821l72 -35l-117 -268h-61z" />
    <glyph glyph-name="Ecircumflex" unicode="&#xca;" horiz-adv-x="1124" 
d="M182 1434h826v-88h-723v-605h624v-88h-624v-565h751v-88h-854v1434zM502 1518h-84l164 219h75l164 -219h-84l-116 165h-3z" />
    <glyph glyph-name="Edieresis" unicode="&#xcb;" horiz-adv-x="1124" 
d="M182 1434h826v-88h-723v-605h624v-88h-624v-565h751v-88h-854v1434zM727 1597q0 29 18 49q19 20 47 19q28 0 46 -19q18 -18 18 -48t-18 -48t-47 -18t-47 18q-17 18 -17 47zM385 1597q0 29 18 49q19 20 47 19q28 0 46 -19q18 -18 18 -48t-18 -48t-47 -18t-47 18
q-17 18 -17 47z" />
    <glyph glyph-name="Igrave" unicode="&#xcc;" horiz-adv-x="466" 
d="M182 1434h103v-1434h-103v1434zM76 1780l80 41l106 -303h-61z" />
    <glyph glyph-name="Iacute" unicode="&#xcd;" horiz-adv-x="462" 
d="M182 1434h103v-1434h-103v1434zM313 1821l72 -35l-117 -268h-61z" />
    <glyph glyph-name="Icircumflex" unicode="&#xce;" horiz-adv-x="466" 
d="M182 1434h103v-1434h-103v1434zM123 1518h-84l164 219h76l163 -219h-84l-116 165h-2z" />
    <glyph glyph-name="Idieresis" unicode="&#xcf;" horiz-adv-x="466" 
d="M182 1434h103v-1434h-103v1434zM342 1597q0 29 18 49t46 19q28 0 47 -19q18 -18 18 -48t-18 -48t-47 -18t-47 18q-17 18 -17 47zM0 1597q0 29 18 49t46 19q28 0 47 -19q18 -18 18 -48t-18 -48q-17 -18 -47 -18t-47 18t-17 47z" />
    <glyph glyph-name="Eth" unicode="&#xd0;" horiz-adv-x="1251" 
d="M289 1346v-598h295v-54h-295v-606h297q131 0 235 74q219 158 219 555q0 185 -55 331t-161 222t-238 76h-297zM602 0h-416v694h-159v54h159v686h416q152 0 279 -86q131 -96 197 -262t65 -372q0 -204 -66 -370q-65 -166 -193 -255t-282 -89z" />
    <glyph glyph-name="Ntilde" unicode="&#xd1;" horiz-adv-x="1280" 
d="M774 1599q49 0 94 60l29 -23q-61 -113 -149 -112q-45 0 -113 40t-118 40t-89 -60l-29 23q53 113 148 112q43 0 111 -40t116 -40zM182 1434h107l710 -1270l-4 637v633h103v-1434h-113l-704 1266l4 -631v-635h-103v1434z" />
    <glyph glyph-name="Ograve" unicode="&#xd2;" horiz-adv-x="1449" 
d="M205 716q0 -272 145 -456q146 -184 374 -184t375 182q146 182 146 454t-148 459q-149 187 -373 187t-372 -184q-147 -185 -147 -458zM100 717q0 313 175 523t449 210t450 -209t176 -523t-175 -524t-451 -210t-451 210q-173 210 -173 523zM610 1780l80 41l107 -303h-62z
" />
    <glyph glyph-name="Oacute" unicode="&#xd3;" horiz-adv-x="1449" 
d="M205 716q0 -272 145 -456q146 -184 374 -184t375 182q146 182 146 454t-148 459q-149 187 -373 187t-372 -184q-147 -185 -147 -458zM100 717q0 313 175 523t449 210t450 -209t176 -523t-175 -524t-451 -210t-451 210q-173 210 -173 523zM772 1821l72 -35l-117 -268h-61z
" />
    <glyph glyph-name="Ocircumflex" unicode="&#xd4;" horiz-adv-x="1449" 
d="M205 716q0 -272 145 -456q146 -184 374 -184t375 182q146 182 146 454t-148 459q-149 187 -373 187t-372 -184q-147 -185 -147 -458zM100 717q0 313 175 523t449 210t450 -209t176 -523t-175 -524t-451 -210t-451 210q-173 210 -173 523zM610 1518h-84l164 219h76
l164 -219h-84l-117 165h-2z" />
    <glyph glyph-name="Otilde" unicode="&#xd5;" horiz-adv-x="1449" 
d="M205 716q0 -272 145 -456q146 -184 374 -184t375 182q146 182 146 454t-148 459q-149 187 -373 187t-372 -184q-147 -185 -147 -458zM100 717q0 313 175 523t449 210t450 -209t176 -523t-175 -524t-451 -210t-451 210q-173 210 -173 523zM856 1599q49 0 94 60l29 -23
q-61 -113 -150 -112q-45 0 -113 40t-117 40q-50 0 -89 -60l-29 23q53 113 148 112q43 0 111 -40t116 -40z" />
    <glyph glyph-name="Odieresis" unicode="&#xd6;" horiz-adv-x="1449" 
d="M205 716q0 -272 145 -456q146 -184 374 -184t375 182q146 182 146 454t-148 459q-149 187 -373 187t-372 -184q-147 -185 -147 -458zM100 717q0 313 175 523t449 210t450 -209t176 -523t-175 -524t-451 -210t-451 210q-173 210 -173 523zM831 1597q1 29 19 49t46 19
q28 0 46 -19q18 -18 18 -48t-18 -48t-47 -18t-47 18t-17 47zM489 1597q1 29 19 49t46 19q28 0 46 -19q18 -18 18 -48t-18 -48t-47 -18t-47 18t-17 47z" />
    <glyph glyph-name="multiply" unicode="&#xd7;" horiz-adv-x="782" 
d="M190 942l201 -233l201 233l49 -41l-209 -242l209 -239l-49 -41l-201 233l-201 -233l-49 41l207 239l-205 242z" />
    <glyph glyph-name="Oslash" unicode="&#xd8;" horiz-adv-x="1449" 
d="M1245 715q0 155 -52 287t-144 221l-586 -1069q117 -78 260 -78q229 0 376 182q146 183 146 457zM205 715q0 -326 194 -510l586 1071q-121 82 -262 82q-223 0 -371 -184q-147 -185 -147 -459zM100 717q0 313 175 523t448 210q170 0 309 -88l74 133h92l-98 -180
q118 -98 184 -255t66 -343q0 -313 -175 -523t-452 -210q-170 0 -307 86l-72 -131h-90l96 178q-119 98 -184 255q-66 157 -66 345z" />
    <glyph glyph-name="Ugrave" unicode="&#xd9;" horiz-adv-x="1245" 
d="M170 1434h100v-990q0 -162 98 -265t256 -103q157 0 254 103t97 265v990h100v-983q0 -209 -124 -338q-123 -129 -329 -129t-329 130t-123 337v983zM506 1780l80 41l106 -303h-61z" />
    <glyph glyph-name="Uacute" unicode="&#xda;" horiz-adv-x="1245" 
d="M170 1434h100v-990q0 -162 98 -265t256 -103q157 0 254 103t97 265v990h100v-983q0 -209 -124 -338q-123 -129 -329 -129t-329 130t-123 337v983zM662 1821l71 -35l-117 -268h-61z" />
    <glyph glyph-name="Ucircumflex" unicode="&#xdb;" horiz-adv-x="1245" 
d="M170 1434h100v-990q0 -162 98 -265t256 -103q157 0 254 103t97 265v990h100v-983q0 -209 -124 -338q-123 -129 -329 -129t-329 130t-123 337v983zM510 1518h-84l164 219h76l163 -219h-84l-116 165h-2z" />
    <glyph glyph-name="Udieresis" unicode="&#xdc;" horiz-adv-x="1245" 
d="M170 1434h100v-990q0 -162 98 -265t256 -103q157 0 254 103t97 265v990h100v-983q0 -209 -124 -338q-123 -129 -329 -129t-329 130t-123 337v983zM733 1597q1 29 19 49t46 19q28 0 46 -19q18 -18 18 -48t-18 -48t-47 -18t-47 18t-17 47zM391 1597q1 29 19 49t46 19
q28 0 46 -19q18 -18 18 -48t-18 -48t-47 -18t-47 18t-17 47z" />
    <glyph glyph-name="Yacute" unicode="&#xdd;" horiz-adv-x="1050" 
d="M575 0h-104v588l-430 846h111l372 -752h2l373 752h107l-431 -846v-588zM565 1821l72 -35l-117 -268h-61z" />
    <glyph glyph-name="Thorn" unicode="&#xde;" horiz-adv-x="1118" 
d="M285 1057v-658h374q135 0 213 91q78 92 78 236t-78 238t-213 93h-374zM182 1434h103v-285h372q176 0 284 -120t108 -302t-108 -301t-284 -119h-372v-307h-103v1434z" />
    <glyph glyph-name="germandbls" unicode="&#xdf;" horiz-adv-x="999" 
d="M811 1114q0 -98 -59 -215q-60 -117 -60 -175q-1 -97 85 -173q36 -31 72 -65q85 -80 85 -226t-80 -230t-220 -83q-140 0 -239 55l29 76q90 -45 198 -45q218 0 220 227q0 121 -85 194l-72 60q-85 70 -85 193q0 89 62 207t61 204q0 86 -51 163t-156 77q-272 0 -268 -350
v-1008h-98v1010q0 133 34 226q35 93 92 136q103 78 236 78t216 -98t83 -238z" />
    <glyph glyph-name="agrave" unicode="&#xe0;" horiz-adv-x="989" 
d="M733 395v133q-135 29 -235 29t-166 -20q-64 -19 -114 -79t-50 -165t71 -164t189 -59t211 94q94 94 94 231zM829 131q-1 -55 49 -55q20 0 58 4v-70q-33 -16 -84 -16t-85 31t-34 90v84q-41 -103 -130 -159t-216 -56t-222 82t-95 244t111 245q112 82 290 82q127 0 262 -27
v127q0 147 -64 202q-65 54 -205 54t-280 -45l-20 78q176 55 338 55t244 -79q83 -79 83 -259v-612zM358 1460l91 41l120 -301h-69z" />
    <glyph glyph-name="aacute" unicode="&#xe1;" horiz-adv-x="989" 
d="M733 395v133q-135 29 -235 29t-166 -20q-64 -19 -114 -79t-50 -165t71 -164t189 -59t211 94q94 94 94 231zM829 131q-1 -55 49 -55q20 0 58 4v-70q-33 -16 -84 -16t-85 31t-34 90v84q-41 -103 -130 -159t-216 -56t-222 82t-95 244t111 245q112 82 290 82q127 0 262 -27
v127q0 147 -64 202q-65 54 -205 54t-280 -45l-20 78q176 55 338 55t244 -79q83 -79 83 -259v-612zM555 1503l72 -35l-117 -268h-61z" />
    <glyph glyph-name="acircumflex" unicode="&#xe2;" horiz-adv-x="989" 
d="M733 395v133q-135 29 -235 29t-166 -20q-64 -19 -114 -79t-50 -165t71 -164t189 -59t211 94q94 94 94 231zM829 131q-1 -55 49 -55q20 0 58 4v-70q-33 -16 -84 -16t-85 31t-34 90v84q-41 -103 -130 -159t-216 -56t-222 82t-95 244t111 245q112 82 290 82q127 0 262 -27
v127q0 147 -64 202q-65 54 -205 54t-280 -45l-20 78q176 55 338 55t244 -79q83 -79 83 -259v-612zM379 1200h-84l164 219h76l163 -219h-84l-116 166h-2z" />
    <glyph glyph-name="atilde" unicode="&#xe3;" horiz-adv-x="989" 
d="M733 395v133q-135 29 -235 29t-166 -20q-64 -19 -114 -79t-50 -165t71 -164t189 -59t211 94q94 94 94 231zM829 131q-1 -55 49 -55q20 0 58 4v-70q-33 -16 -84 -16t-85 31t-34 90v84q-41 -103 -130 -159t-216 -56t-222 82t-95 244t111 245q112 82 290 82q127 0 262 -27
v127q0 147 -64 202q-65 54 -205 54t-280 -45l-20 78q176 55 338 55t244 -79q83 -79 83 -259v-612zM416 1352q42 0 110 -40t117 -40t94 59l29 -22q-61 -113 -150 -113q-44 0 -112 40t-118 40t-89 -59l-29 22q53 113 148 113z" />
    <glyph glyph-name="adieresis" unicode="&#xe4;" horiz-adv-x="989" 
d="M733 395v133q-135 29 -235 29t-166 -20q-64 -19 -114 -79t-50 -165t71 -164t189 -59t211 94q94 94 94 231zM829 131q-1 -55 49 -55q20 0 58 4v-70q-33 -16 -84 -16t-85 31t-34 90v84q-41 -103 -130 -159t-216 -56t-222 82t-95 244t111 245q112 82 290 82q127 0 262 -27
v127q0 147 -64 202q-65 54 -205 54t-280 -45l-20 78q176 55 338 55t244 -79q83 -79 83 -259v-612zM627 1268q0 29 18 48t46 19t46 -19q19 -19 19 -48t-18 -47q-18 -19 -48 -19q-29 0 -46 18t-17 48zM285 1268q0 29 18 48t46 19t46 -19q19 -19 19 -48t-18 -47
q-18 -19 -48 -19q-29 0 -46 18t-17 48z" />
    <glyph glyph-name="aring" unicode="&#xe5;" horiz-adv-x="989" 
d="M733 395v133q-135 29 -235 29t-166 -20q-64 -19 -114 -79t-50 -165t71 -164t189 -59t211 94q94 94 94 231zM829 131q-1 -55 49 -55q20 0 58 4v-70q-33 -16 -84 -16t-85 31t-34 90v84q-41 -103 -130 -159t-216 -56t-222 82t-95 244t111 245q112 82 290 82q127 0 262 -27
v127q0 147 -64 202q-65 54 -205 54t-280 -45l-20 78q176 55 338 55t244 -79q83 -79 83 -259v-612zM535 1262q49 0 73 30t25 74q0 45 -25 75q-26 29 -74 29t-73 -30t-25 -74t25 -74t74 -30zM535 1208q-72 0 -118 44t-46 114t46 114t118 44q71 0 117 -44t46 -114t-46 -114
t-117 -44z" />
    <glyph glyph-name="ae" unicode="&#xe6;" horiz-adv-x="1636" 
d="M1180 993q-150 0 -246 -120t-103 -302h650q-2 170 -77 296q-74 126 -224 126zM401 70q168 0 257 105q77 89 100 155q-31 96 -31 198q-150 29 -240 29q-91 0 -155 -20q-64 -19 -114 -79t-50 -165t72 -164t161 -59zM489 1081q262 0 320 -186l6 -23q129 209 359 209
q192 -1 300 -153t109 -367l-4 -67h-748q11 -184 117 -304t269 -120q115 0 268 73l33 -71q-156 -88 -302 -88t-252 68q-105 68 -167 184q-32 -59 -97 -125q-127 -129 -282 -128t-252 82q-96 81 -96 245t111 245q112 82 282 82q98 0 266 -33l4 23v110q0 147 -64 202
q-65 54 -205 54t-280 -45l-20 78q176 55 325 55z" />
    <glyph glyph-name="ccedilla" unicode="&#xe7;" horiz-adv-x="901" 
d="M588 995q-176 0 -289 -138q-113 -139 -113 -325t113 -324t291 -138q102 0 205 51l28 -70q-113 -67 -250 -67h-20l-27 -109q16 2 29 2q53 0 93 -34q40 -35 40 -103t-46 -105q-81 -66 -245 -16l19 53q61 -12 86 -12q109 0 108 84q0 76 -90 76l-33 -4l-30 37l43 137
q-184 28 -298 180t-114 374t136 380t349 157q137 0 250 -65l-28 -72q-111 51 -207 51z" />
    <glyph glyph-name="egrave" unicode="&#xe8;" horiz-adv-x="1021" 
d="M193 571h649q-4 237 -129 358q-70 67 -172 66q-150 0 -245 -121t-103 -303zM563 -16q-209 0 -342 160t-133 389t124 389t320 160t304 -154q108 -152 108 -367l-4 -67h-747q10 -186 115 -306t270 -118q115 0 268 73l33 -71q-156 -88 -316 -88zM418 1460l90 41l121 -301
h-70z" />
    <glyph glyph-name="eacute" unicode="&#xe9;" horiz-adv-x="1021" 
d="M193 571h649q-4 237 -129 358q-70 67 -172 66q-150 0 -245 -121t-103 -303zM563 -16q-209 0 -342 160t-133 389t124 389t320 160t304 -154q108 -152 108 -367l-4 -67h-747q10 -186 115 -306t270 -118q115 0 268 73l33 -71q-156 -88 -316 -88zM561 1503l72 -35l-117 -268
h-61z" />
    <glyph glyph-name="ecircumflex" unicode="&#xea;" horiz-adv-x="1021" 
d="M193 571h649q-4 237 -129 358q-70 67 -172 66q-150 0 -245 -121t-103 -303zM563 -16q-209 0 -342 160t-133 389t124 389t320 160t304 -154q108 -152 108 -367l-4 -67h-747q10 -186 115 -306t270 -118q115 0 268 73l33 -71q-156 -88 -316 -88zM426 1200h-84l164 219h76
l163 -219h-83l-117 166h-2z" />
    <glyph glyph-name="edieresis" unicode="&#xeb;" horiz-adv-x="1021" 
d="M193 571h649q-4 237 -129 358q-70 67 -172 66q-150 0 -245 -121t-103 -303zM563 -16q-209 0 -342 160t-133 389t124 389t320 160t304 -154q108 -152 108 -367l-4 -67h-747q10 -186 115 -306t270 -118q115 0 268 73l33 -71q-156 -88 -316 -88zM649 1266q1 29 19 48t46 19
t46 -19t18 -48t-18 -47q-18 -19 -47 -19t-47 18t-17 48zM307 1266q1 29 19 48t46 19t46 -19t18 -48t-18 -47q-18 -19 -47 -19t-47 18t-17 48z" />
    <glyph glyph-name="igrave" unicode="&#xec;" horiz-adv-x="411" 
d="M78 1065h184v-1065h-96v981l-88 20v64zM20 1460l91 41l120 -301h-69z" />
    <glyph glyph-name="iacute" unicode="&#xed;" horiz-adv-x="409" 
d="M76 1065h184v-1065h-96v981l-88 20v64zM260 1503l72 -35l-117 -268h-61z" />
    <glyph glyph-name="icircumflex" unicode="&#xee;" horiz-adv-x="413" 
d="M80 1065h184v-1065h-96v981l-88 20v64zM63 1200h-83l161 219h76l166 -219h-84l-119 166z" />
    <glyph glyph-name="idieresis" unicode="&#xef;" horiz-adv-x="411" 
d="M78 1065h184v-1065h-96v981l-88 20v64zM299 1266q0 29 18 48q19 19 47 19t46 -19t18 -48t-18 -47q-18 -19 -48 -19t-46 18q-17 18 -17 48zM-43 1266q0 29 18 48q19 19 47 19t46 -19t18 -48t-18 -47q-18 -19 -48 -19t-46 18q-17 18 -17 48z" />
    <glyph glyph-name="eth" unicode="&#xf0;" horiz-adv-x="964" 
d="M758 496q0 176 -83 284t-216 109q-133 0 -208 -115t-75 -288q0 -174 76 -292t211 -118t215 122t80 298zM78 491q0 223 107 357q108 133 274 133q102 0 188 -65t123 -171h2q-20 182 -83 340q-62 158 -138 242l-156 -133l-33 41l154 133q-88 94 -221 162l24 53
q147 -66 248 -170l154 131l35 -43l-152 -129q133 -154 198 -372t64 -414q0 -274 -109 -439q-110 -163 -291 -163t-285 142q-103 142 -103 365z" />
    <glyph glyph-name="ntilde" unicode="&#xf1;" horiz-adv-x="1056" 
d="M150 1065h73l17 -221q28 74 84 131q105 108 261 107q157 0 245 -118t90 -335v-629h-97v639q0 166 -70 261q-71 95 -206 95q-135 1 -218 -119t-83 -266v-610h-96v1065zM428 1352q43 0 111 -40q69 -40 117 -40t94 59l28 -22q-61 -113 -149 -113q-45 0 -113 40t-118 40
t-89 -59l-28 22q53 113 147 113z" />
    <glyph glyph-name="ograve" unicode="&#xf2;" horiz-adv-x="1105" 
d="M552 995q-163 0 -263 -132q-101 -132 -101 -331q0 -198 100 -330t264 -132q163 0 264 132q102 132 102 330t-102 331q-102 132 -264 132zM86 532q0 236 131 393t336 157t336 -158q131 -156 131 -392t-132 -392t-336 -156t-335 156t-131 392zM438 1460l90 41l121 -301h-69
z" />
    <glyph glyph-name="oacute" unicode="&#xf3;" horiz-adv-x="1105" 
d="M552 995q-163 0 -263 -132q-101 -132 -101 -331q0 -198 100 -330t264 -132q163 0 264 132q102 132 102 330t-102 331q-102 132 -264 132zM86 532q0 236 131 393t336 157t336 -158q131 -156 131 -392t-132 -392t-336 -156t-335 156t-131 392zM573 1503l72 -35l-117 -268
h-61z" />
    <glyph glyph-name="ocircumflex" unicode="&#xf4;" horiz-adv-x="1105" 
d="M552 995q-163 0 -263 -132q-101 -132 -101 -331q0 -198 100 -330t264 -132q163 0 264 132q102 132 102 330t-102 331q-102 132 -264 132zM86 532q0 236 131 393t336 157t336 -158q131 -156 131 -392t-132 -392t-336 -156t-335 156t-131 392zM436 1200h-84l164 219h76
l164 -219h-84l-117 166h-2z" />
    <glyph glyph-name="otilde" unicode="&#xf5;" horiz-adv-x="1105" 
d="M552 995q-163 0 -263 -132q-101 -132 -101 -331q0 -198 100 -330t264 -132q163 0 264 132q102 132 102 330t-102 331q-102 132 -264 132zM86 532q0 236 131 393t336 157t336 -158q131 -156 131 -392t-132 -392t-336 -156t-335 156t-131 392zM455 1352q43 0 111 -40
t116 -40q49 0 94 59l29 -22q-61 -113 -150 -113q-45 0 -113 40t-117 40q-50 0 -89 -59l-29 22q53 113 148 113z" />
    <glyph glyph-name="odieresis" unicode="&#xf6;" horiz-adv-x="1105" 
d="M552 995q-163 0 -263 -132q-101 -132 -101 -331q0 -198 100 -330t264 -132q163 0 264 132q102 132 102 330t-102 331q-102 132 -264 132zM86 532q0 236 131 393t336 157t336 -158q131 -156 131 -392t-132 -392t-336 -156t-335 156t-131 392zM659 1266q1 29 19 48t46 19
t46 -19t18 -48t-18 -47q-18 -19 -47 -19t-47 18t-17 48zM317 1266q1 29 19 48t46 19t46 -19t18 -48t-18 -47q-18 -19 -47 -19t-47 18t-17 48z" />
    <glyph glyph-name="divide" unicode="&#xf7;" horiz-adv-x="1001" 
d="M569 332q0 -30 -20 -52t-48 -22q-27 0 -47 22t-20 53t20 53t48 22q27 0 47 -23t20 -53zM139 686h725v-74h-725v74zM503 1042q28 0 48 -22t20 -52t-20 -52t-49 -22t-49 21q-21 19 -21 53t22 54t49 20z" />
    <glyph glyph-name="oslash" unicode="&#xf8;" horiz-adv-x="1105" 
d="M553 995q-164 0 -264 -132q-101 -132 -101 -344t123 -345l424 766q-84 55 -182 55zM553 70q161 0 263 132t102 345q0 214 -130 348l-421 -768q82 -57 186 -57zM86 530q0 238 131 395t336 156q121 0 225 -61l68 121h78l-90 -162q186 -158 186 -449q0 -233 -132 -390
t-335 -156q-127 0 -231 63l-68 -123h-80l92 166q-180 157 -180 440z" />
    <glyph glyph-name="ugrave" unicode="&#xf9;" 
d="M240 424q0 -354 278 -354q142 0 220 104t77 248v643h98v-1065h-75l-15 195q-35 -87 -124 -149t-233 -62t-235 106q-90 106 -90 322v653h99v-641zM403 1460l91 41l120 -301h-69z" />
    <glyph glyph-name="uacute" unicode="&#xfa;" 
d="M240 424q0 -354 278 -354q142 0 220 104t77 248v643h98v-1065h-75l-15 195q-35 -87 -124 -149t-233 -62t-235 106q-90 106 -90 322v653h99v-641zM575 1503l72 -35l-117 -268h-61z" />
    <glyph glyph-name="ucircumflex" unicode="&#xfb;" 
d="M240 424q0 -354 278 -354q142 0 220 104t77 248v643h98v-1065h-75l-15 195q-35 -87 -124 -149t-233 -62t-235 106q-90 106 -90 322v653h99v-641zM418 1200h-84l164 219h75l164 -219h-84l-116 166h-2z" />
    <glyph glyph-name="udieresis" unicode="&#xfc;" 
d="M240 424q0 -354 278 -354q142 0 220 104t77 248v643h98v-1065h-75l-15 195q-35 -87 -124 -149t-233 -62t-235 106q-90 106 -90 322v653h99v-641zM639 1266q0 29 18 48q19 19 47 19t46 -19t18 -48t-18 -47q-18 -19 -48 -19t-46 18q-17 18 -17 48zM297 1266q0 29 18 48
t46 19q29 0 47 -19t18 -48t-18 -47q-18 -19 -48 -19t-46 18q-17 18 -17 48z" />
    <glyph glyph-name="yacute" unicode="&#xfd;" horiz-adv-x="942" 
d="M72 1065h104l303 -942l289 942h102l-446 -1413h-98l106 332zM528 1503l72 -35l-117 -268h-61z" />
    <glyph glyph-name="thorn" unicode="&#xfe;" horiz-adv-x="1114" 
d="M582 995q-146 0 -242 -133q-96 -134 -96 -332t96 -330t242 -132t247 132t101 326t-101 331q-101 138 -247 138zM598 1081q184 -1 306 -163t122 -392t-118 -386q-118 -157 -308 -156q-123 0 -219 68t-137 175v-575h-94v1782h94v-607q47 115 142 185t212 69z" />
    <glyph glyph-name="ydieresis" unicode="&#xff;" horiz-adv-x="942" 
d="M72 1065h104l303 -942l289 942h102l-446 -1413h-98l106 332zM571 1266q1 29 19 48t46 19t46 -19t18 -48t-18 -47q-18 -19 -47 -19t-47 18t-17 48zM229 1266q1 29 19 48t46 19t46 -19t18 -48t-18 -47q-18 -19 -47 -19t-47 18t-17 48z" />
    <glyph glyph-name="Amacron" unicode="&#x100;" horiz-adv-x="1146" 
d="M317 494h508l-254 829zM637 1442l450 -1442h-110l-127 408h-557l-127 -408h-107l451 1442h127zM317 1624h508v-68h-508v68z" />
    <glyph glyph-name="amacron" unicode="&#x101;" horiz-adv-x="989" 
d="M733 395v133q-135 29 -235 29t-166 -20q-64 -19 -114 -79t-50 -165t71 -164t189 -59t211 94q94 94 94 231zM829 131q-1 -55 49 -55q20 0 58 4v-70q-33 -16 -84 -16t-85 31t-34 90v84q-41 -103 -130 -159t-216 -56t-222 82t-95 244t111 245q112 82 290 82q127 0 262 -27
v127q0 147 -64 202q-65 54 -205 54t-280 -45l-20 78q176 55 338 55t244 -79q83 -79 83 -259v-612zM244 1296h508v-67h-508v67z" />
    <glyph glyph-name="Abreve" unicode="&#x102;" horiz-adv-x="1146" 
d="M317 494h508l-254 829zM637 1442l450 -1442h-110l-127 408h-557l-127 -408h-107l451 1442h127zM574 1540q-100 0 -149 48q-48 48 -60 153h55q14 -66 47 -100q33 -33 107 -33t106 34q33 34 47 99h55q-12 -105 -60 -153t-148 -48z" />
    <glyph glyph-name="abreve" unicode="&#x103;" horiz-adv-x="989" 
d="M733 395v133q-135 29 -235 29t-166 -20q-64 -19 -114 -79t-50 -165t71 -164t189 -59t211 94q94 94 94 231zM829 131q-1 -55 49 -55q20 0 58 4v-70q-33 -16 -84 -16t-85 31t-34 90v84q-41 -103 -130 -159t-216 -56t-222 82t-95 244t111 245q112 82 290 82q127 0 262 -27
v127q0 147 -64 202q-65 54 -205 54t-280 -45l-20 78q176 55 338 55t244 -79q83 -79 83 -259v-612zM541 1192q-100 0 -149 48q-48 48 -60 153h55q14 -66 47 -100q33 -33 107 -33q75 0 107 34t46 99h56q-12 -105 -60 -153t-149 -48z" />
    <glyph glyph-name="Aogonek" unicode="&#x104;" horiz-adv-x="1165" 
d="M317 494h508l-254 829zM981 -200q0 -52 23 -78q22 -26 56 -26t52 9l14 -41q-37 -22 -88 -22t-87 38t-36 105q0 137 103 215h-41l-127 408h-557l-127 -408h-107l451 1442h127l450 -1442q-53 -33 -79 -91q-26 -57 -27 -109z" />
    <glyph glyph-name="aogonek" unicode="&#x105;" horiz-adv-x="989" 
d="M733 395v133q-135 29 -235 29t-166 -20q-64 -19 -114 -79t-50 -165t71 -164t189 -59t211 94q94 94 94 231zM829 131q-1 -55 49 -55q20 0 58 4v-70q-23 -12 -74 -16q-49 -31 -74 -87t-24 -110q0 -100 84 -100q29 0 47 8l14 -41q-37 -22 -85 -22t-89 41q-39 41 -39 104
q0 139 113 213q-76 25 -76 115v84q-41 -103 -130 -159t-216 -56t-222 82t-95 244t111 245q112 82 290 82q127 0 262 -27v127q0 147 -64 202q-65 54 -205 54t-280 -45l-20 78q176 55 338 55t244 -79q83 -79 83 -259v-612z" />
    <glyph glyph-name="Cacute" unicode="&#x106;" horiz-adv-x="1167" 
d="M735 1450q195 0 348 -102l-36 -78q-154 88 -308 88q-229 0 -382 -186t-153 -454q0 -269 153 -456q153 -186 378 -186q164 0 312 86l36 -78q-170 -100 -356 -100q-262 0 -445 210t-184 523q0 313 184 523t453 210zM756 1821l71 -35l-116 -268h-62z" />
    <glyph glyph-name="cacute" unicode="&#x107;" horiz-adv-x="901" 
d="M588 995q-176 0 -289 -138q-113 -139 -113 -325t113 -324t291 -138q102 0 205 51l28 -70q-113 -67 -250 -67q-211 0 -348 158t-137 390q0 234 136 392t349 157q137 0 250 -65l-28 -72q-111 51 -207 51zM584 1503l71 -35l-116 -268h-62z" />
    <glyph glyph-name="Ccircumflex" unicode="&#x108;" horiz-adv-x="1167" 
d="M735 1450q195 0 348 -102l-36 -78q-154 88 -308 88q-229 0 -382 -186t-153 -454q0 -269 153 -456q153 -186 378 -186q164 0 312 86l36 -78q-170 -100 -356 -100q-262 0 -445 210t-184 523q0 313 184 523t453 210zM598 1518h-84l164 219h76l164 -219h-84l-117 165h-2z" />
    <glyph glyph-name="ccircumflex" unicode="&#x109;" horiz-adv-x="901" 
d="M588 995q-176 0 -289 -138q-113 -139 -113 -325t113 -324t291 -138q102 0 205 51l28 -70q-113 -67 -250 -67q-211 0 -348 158t-137 390q0 234 136 392t349 157q137 0 250 -65l-28 -72q-111 51 -207 51zM436 1200h-84l164 219h76l164 -219h-84l-117 166h-2z" />
    <glyph glyph-name="Cdotaccent" unicode="&#x10a;" horiz-adv-x="1167" 
d="M735 1450q195 0 348 -102l-36 -78q-154 88 -308 88q-229 0 -382 -186t-153 -454q0 -269 153 -456q153 -186 378 -186q164 0 312 86l36 -78q-170 -100 -356 -100q-262 0 -445 210t-184 523q0 313 184 523t453 210zM655 1597q1 29 19 49t46 19q28 0 46 -19q18 -18 18 -48
t-18 -48t-47 -18t-47 18t-17 47z" />
    <glyph glyph-name="cdotaccent" unicode="&#x10b;" horiz-adv-x="901" 
d="M588 995q-176 0 -289 -138q-113 -139 -113 -325t113 -324t291 -138q102 0 205 51l28 -70q-113 -67 -250 -67q-211 0 -348 158t-137 390q0 234 136 392t349 157q137 0 250 -65l-28 -72q-111 51 -207 51zM502 1266q0 29 18 48t46 19t46 -19t18 -48t-18 -47q-18 -19 -47 -19
t-46 18t-17 48z" />
    <glyph glyph-name="Ccaron" unicode="&#x10c;" horiz-adv-x="1167" 
d="M735 1450q195 0 348 -102l-36 -78q-154 88 -308 88q-229 0 -382 -186t-153 -454q0 -269 153 -456q153 -186 378 -186q164 0 312 86l36 -78q-170 -100 -356 -100q-262 0 -445 210t-184 523q0 313 184 523t453 210zM524 1737h84l117 -166h2l117 166h84l-164 -219h-76z" />
    <glyph glyph-name="ccaron" unicode="&#x10d;" horiz-adv-x="901" 
d="M588 995q-176 0 -289 -138q-113 -139 -113 -325t113 -324t291 -138q102 0 205 51l28 -70q-113 -67 -250 -67q-211 0 -348 158t-137 390q0 234 136 392t349 157q137 0 250 -65l-28 -72q-111 51 -207 51zM362 1419h84l117 -166h2l117 166h84l-164 -219h-76z" />
    <glyph glyph-name="Dcaron" unicode="&#x10e;" horiz-adv-x="1243" 
d="M285 1346v-1258h297q131 0 235 74q219 158 219 555q0 185 -55 331t-161 222t-238 76h-297zM598 0h-416v1434h416q152 0 279 -86q131 -96 197 -262t65 -372q0 -204 -66 -370q-65 -166 -193 -255t-282 -89zM373 1737h84l116 -166h2l117 166h84l-164 -219h-75z" />
    <glyph glyph-name="dcaron" unicode="&#x10f;" horiz-adv-x="1206" 
d="M540 995q-150 0 -248 -134t-99 -329q0 -194 98 -328q97 -134 243 -134t244 132t98 332t-93 331q-93 130 -243 130zM877 1499h98v-1499h-80l-14 233q-39 -106 -132 -178t-231 -71q-188 0 -308 158t-120 392t120 391t308 156q115 0 212 -60t147 -181v659zM1210 1499h78
q0 -193 -71 -309l-50 14q43 111 43 295z" />
    <glyph glyph-name="Dcroat" unicode="&#x110;" horiz-adv-x="1247" 
d="M287 1346v-598h295v-54h-295v-606h297q131 0 235 74q219 158 219 555q0 185 -55 331t-161 222t-238 76h-297zM600 0h-416v694h-159v54h159v686h416q152 0 279 -86q131 -96 197 -262t65 -372q0 -204 -66 -370q-65 -166 -193 -255t-282 -89z" />
    <glyph glyph-name="dcroat" unicode="&#x111;" horiz-adv-x="1126" 
d="M540 995q-150 0 -248 -134t-99 -329q0 -194 98 -328q97 -134 243 -134t244 132t98 332t-93 331q-93 130 -243 130zM877 1499h98v-207h145v-47h-145v-1245h-80l-14 233q-39 -106 -132 -178t-231 -71q-188 0 -308 158t-120 392t120 391t308 156q115 0 212 -60t147 -181v405
h-281v47h281v207z" />
    <glyph glyph-name="Emacron" unicode="&#x112;" horiz-adv-x="1124" 
d="M182 1434h826v-88h-723v-605h624v-88h-624v-565h751v-88h-854v1434zM352 1624h508v-68h-508v68z" />
    <glyph glyph-name="emacron" unicode="&#x113;" horiz-adv-x="1021" 
d="M193 571h649q-4 237 -129 358q-70 67 -172 66q-150 0 -245 -121t-103 -303zM563 -16q-209 0 -342 160t-133 389t124 389t320 160t304 -154q108 -152 108 -367l-4 -67h-747q10 -186 115 -306t270 -118q115 0 268 73l33 -71q-156 -88 -316 -88zM274 1296h508v-67h-508v67z
" />
    <glyph glyph-name="Ebreve" unicode="&#x114;" horiz-adv-x="1124" 
d="M182 1434h826v-88h-723v-605h624v-88h-624v-565h751v-88h-854v1434zM602 1540q-100 0 -148 48t-61 153h56q14 -66 47 -100q32 -33 106 -33t107 34t47 99h55q-12 -105 -60 -153q-49 -48 -149 -48z" />
    <glyph glyph-name="ebreve" unicode="&#x115;" horiz-adv-x="1021" 
d="M193 571h649q-4 237 -129 358q-70 67 -172 66q-150 0 -245 -121t-103 -303zM563 -16q-209 0 -342 160t-133 389t124 389t320 160t304 -154q108 -152 108 -367l-4 -67h-747q10 -186 115 -306t270 -118q115 0 268 73l33 -71q-156 -88 -316 -88zM530 1208q-100 0 -148 48
t-60 153h55q14 -65 47 -99q32 -34 106 -34t107 34t47 99h55q-12 -105 -60 -153q-49 -48 -149 -48z" />
    <glyph glyph-name="Edotaccent" unicode="&#x116;" horiz-adv-x="1124" 
d="M182 1434h826v-88h-723v-605h624v-88h-624v-565h751v-88h-854v1434zM528 1597q0 29 18 49t47 19q28 0 46 -19q18 -18 18 -48t-18 -48t-47 -18q-28 0 -46 18t-18 47z" />
    <glyph glyph-name="edotaccent" unicode="&#x117;" horiz-adv-x="1021" 
d="M193 571h649q-4 237 -129 358q-70 67 -172 66q-150 0 -245 -121t-103 -303zM563 -16q-209 0 -342 160t-133 389t124 389t320 160t304 -154q108 -152 108 -367l-4 -67h-747q10 -186 115 -306t270 -118q115 0 268 73l33 -71q-156 -88 -316 -88zM475 1266q1 29 19 48t46 19
t46 -19t18 -48t-18 -47q-18 -19 -47 -19t-47 18t-17 48z" />
    <glyph glyph-name="Eogonek" unicode="&#x118;" horiz-adv-x="1124" 
d="M182 1434h826v-88h-723v-605h624v-88h-624v-565h751v-88h-39q-53 -33 -79 -91t-27 -112q0 -100 84 -100q29 0 47 8l14 -41q-38 -22 -86 -22t-88 41q-39 41 -39 104q0 123 111 213h-752v1434z" />
    <glyph glyph-name="eogonek" unicode="&#x119;" horiz-adv-x="1019" 
d="M193 571h649q-4 237 -129 358q-70 67 -172 66q-150 0 -245 -121t-103 -303zM563 -16q-209 0 -342 160t-133 389t124 389t320 160t304 -154q108 -152 108 -367l-4 -67h-747q10 -186 115 -306t270 -118q115 0 268 73l33 -71q-57 -33 -121 -56q-51 -30 -75 -96t-24 -123
q0 -100 84 -100q29 0 48 8l14 -41q-37 -22 -86 -22t-88 41t-39 99t24 118t60 96q-74 -12 -113 -12z" />
    <glyph glyph-name="Ecaron" unicode="&#x11a;" horiz-adv-x="1124" 
d="M182 1434h826v-88h-723v-605h624v-88h-624v-565h751v-88h-854v1434zM399 1737h84l117 -166h2l117 166h84l-164 -219h-76z" />
    <glyph glyph-name="ecaron" unicode="&#x11b;" horiz-adv-x="1021" 
d="M193 571h649q-4 237 -129 358q-70 67 -172 66q-150 0 -245 -121t-103 -303zM563 -16q-209 0 -342 160t-133 389t124 389t320 160t304 -154q108 -152 108 -367l-4 -67h-747q10 -186 115 -306t270 -118q115 0 268 73l33 -71q-156 -88 -316 -88zM338 1419h84l117 -166h2
l116 166h84l-163 -219h-76z" />
    <glyph glyph-name="Gcircumflex" unicode="&#x11c;" horiz-adv-x="1304" 
d="M743 1450q205 0 377 -109l-39 -79q-53 36 -145 66t-191 30q-237 0 -389 -188t-152 -454q0 -267 153 -454q153 -186 371 -186t374 170v362h-338v90h432v-491q-193 -223 -462 -223t-451 211q-183 211 -183 523t184 522t459 210zM614 1518h-84l162 219h76l166 -219h-84
l-119 165z" />
    <glyph glyph-name="gcircumflex" unicode="&#x11d;" horiz-adv-x="927" 
d="M754 -57q0 96 -54 134t-196 38t-223 22q-98 -74 -99 -196q0 -207 286 -207t286 209zM468 1001q-110 -1 -176 -69t-65 -190q0 -122 65 -190q66 -68 176 -69q110 0 176 68q66 69 65 189q1 120 -65 190t-176 71zM852 1065v-66l-158 -12q113 -68 113 -230q0 -161 -96 -257
q-97 -96 -227 -96t-195 45q-74 -59 -74 -136t90 -99q67 -16 162 -19h78q305 0 305 -254q0 -289 -382 -289t-382 278q0 135 129 238q-86 51 -86 145t107 176q-106 92 -106 249t95 250q96 93 244 93q20 0 127 -16h256zM348 1200h-84l164 219h76l164 -219h-84l-117 166h-2z" />
    <glyph glyph-name="Gbreve" unicode="&#x11e;" horiz-adv-x="1304" 
d="M743 1450q205 0 377 -109l-39 -79q-53 36 -145 66t-191 30q-237 0 -389 -188t-152 -454q0 -267 153 -454q153 -186 371 -186t374 170v362h-338v90h432v-491q-193 -223 -462 -223t-451 211q-183 211 -183 523t184 522t459 210zM734 1540q-100 0 -149 48q-48 48 -61 153h56
q14 -66 47 -100q33 -33 107 -33t106 34q33 34 47 99h55q-12 -105 -60 -153t-148 -48z" />
    <glyph glyph-name="gbreve" unicode="&#x11f;" horiz-adv-x="927" 
d="M754 -57q0 96 -54 134t-196 38t-223 22q-98 -74 -99 -196q0 -207 286 -207t286 209zM468 1001q-110 -1 -176 -69t-65 -190q0 -122 65 -190q66 -68 176 -69q110 0 176 68q66 69 65 189q1 120 -65 190t-176 71zM852 1065v-66l-158 -12q113 -68 113 -230q0 -161 -96 -257
q-97 -96 -227 -96t-195 45q-74 -59 -74 -136t90 -99q67 -16 162 -19h78q305 0 305 -254q0 -289 -382 -289t-382 278q0 135 129 238q-86 51 -86 145t107 176q-106 92 -106 249t95 250q96 93 244 93q20 0 127 -16h256zM480 1208q-100 0 -149 48q-48 48 -61 153h56
q14 -65 47 -99t107 -34t106 34q33 34 47 99h55q-12 -105 -60 -153t-148 -48z" />
    <glyph glyph-name="Gdotaccent" unicode="&#x120;" horiz-adv-x="1304" 
d="M743 1450q205 0 377 -109l-39 -79q-53 36 -145 66t-191 30q-237 0 -389 -188t-152 -454q0 -267 153 -454q153 -186 371 -186t374 170v362h-338v90h432v-491q-193 -223 -462 -223t-451 211q-183 211 -183 523t184 522t459 210zM664 1597q0 29 18 49t46 19q28 0 46 -19
q18 -18 18 -48t-18 -48t-47 -18t-46 18t-17 47z" />
    <glyph glyph-name="gdotaccent" unicode="&#x121;" horiz-adv-x="927" 
d="M754 -57q0 96 -54 134t-196 38t-223 22q-98 -74 -99 -196q0 -207 286 -207t286 209zM468 1001q-110 -1 -176 -69t-65 -190q0 -122 65 -190q66 -68 176 -69q110 0 176 68q66 69 65 189q1 120 -65 190t-176 71zM852 1065v-66l-158 -12q113 -68 113 -230q0 -161 -96 -257
q-97 -96 -227 -96t-195 45q-74 -59 -74 -136t90 -99q67 -16 162 -19h78q305 0 305 -254q0 -289 -382 -289t-382 278q0 135 129 238q-86 51 -86 145t107 176q-106 92 -106 249t95 250q96 93 244 93q20 0 127 -16h256zM397 1266q1 29 19 48t46 19t46 -19t18 -48t-18 -47
q-18 -19 -47 -19t-47 18t-17 48z" />
    <glyph glyph-name="Gcommaaccent" unicode="&#x122;" horiz-adv-x="1304" 
d="M743 1450q205 0 377 -109l-39 -79q-53 36 -145 66t-191 30q-237 0 -389 -188t-152 -454q0 -267 153 -454q153 -186 371 -186t374 170v362h-338v90h432v-491q-193 -223 -462 -223t-451 211q-183 211 -183 523t184 522t459 210zM662 -209q0 59 61 59q39 0 59 -34t21 -82
q0 -100 -115 -178l-16 26q104 80 65 172q-4 -16 -26 -16q-49 0 -49 53z" />
    <glyph glyph-name="gcommaaccent" unicode="&#x123;" horiz-adv-x="927" 
d="M754 -57q0 96 -54 134t-196 38t-223 22q-98 -74 -99 -196q0 -207 286 -207t286 209zM468 1001q-110 -1 -176 -69t-65 -190q0 -122 65 -190q66 -68 176 -69q110 0 176 68q66 69 65 189q1 120 -65 190t-176 71zM852 1065v-66l-158 -12q113 -68 113 -230q0 -161 -96 -257
q-97 -96 -227 -96t-195 45q-74 -59 -74 -136t90 -99q67 -16 162 -19h78q305 0 305 -254q0 -289 -382 -289t-382 278q0 135 129 238q-86 51 -86 145t107 176q-106 92 -106 249t95 250q96 93 244 93q20 0 127 -16h256zM472 1200q-32 0 -52 35t-21 82q0 100 115 178l16 -27
q-104 -80 -65 -172q9 16 29 16t33 -14t14 -38q0 -60 -69 -60z" />
    <glyph glyph-name="Hcircumflex" unicode="&#x124;" horiz-adv-x="1310" 
d="M182 1434h103v-666h741v666h102v-1434h-102v682h-741v-682h-103v1434zM545 1518h-84l164 219h75l164 -219h-84l-116 165h-2z" />
    <glyph glyph-name="hcircumflex" unicode="&#x125;" horiz-adv-x="1058" 
d="M150 1499h96v-653q29 90 113 163q85 73 234 73t237 -118t90 -335v-629h-97v639q0 166 -70 261q-71 95 -205 95q-134 1 -218 -115t-84 -257v-623h-96v1499zM78 1544h-84l164 219h75l164 -219h-84l-116 166h-2z" />
    <glyph glyph-name="Hbar" unicode="&#x126;" horiz-adv-x="1310" 
d="M283 768h745v330h-745v-330zM182 1434h101v-279h745v279h100v-279h109v-57h-109v-1098h-100v682h-745v-682h-101v1098h-106v57h106v279z" />
    <glyph glyph-name="hbar" unicode="&#x127;" horiz-adv-x="1058" 
d="M150 1499h96v-207h278v-47h-278v-399q29 90 113 163q85 73 234 73t237 -118t90 -335v-629h-97v639q0 166 -70 261q-71 95 -205 95q-134 1 -218 -115t-84 -257v-623h-96v1245h-148v47h148v207z" />
    <glyph glyph-name="Itilde" unicode="&#x128;" horiz-adv-x="464" 
d="M182 1434h103v-1434h-103v1434zM360 1599q48 0 95 60l28 -23q-61 -113 -149 -112q-45 0 -113 40t-118 40t-89 -60l-28 23q53 113 147 112q43 0 111 -40t116 -40z" />
    <glyph glyph-name="itilde" unicode="&#x129;" horiz-adv-x="411" 
d="M78 1065h184v-1065h-96v981l-88 20v64zM78 1352q42 0 110 -40t117 -40t94 59l29 -22q-61 -113 -149 -113q-45 0 -113 40t-118 40t-89 -59l-29 22q53 113 148 113z" />
    <glyph glyph-name="Imacron" unicode="&#x12a;" horiz-adv-x="464" 
d="M182 1434h103v-1434h-103v1434zM-20 1624h507v-68h-507v68z" />
    <glyph glyph-name="imacron" unicode="&#x12b;" horiz-adv-x="411" 
d="M78 1065h184v-1065h-96v981l-88 20v64zM-72 1296h508v-67h-508v67z" />
    <glyph glyph-name="Ibreve" unicode="&#x12c;" horiz-adv-x="466" 
d="M180 1434h103v-1434h-103v1434zM236 1540q-100 0 -149 48q-48 48 -60 153h55q14 -66 47 -100q33 -33 107 -33t106 34t47 99h55q-12 -105 -60 -153t-148 -48z" />
    <glyph glyph-name="ibreve" unicode="&#x12d;" horiz-adv-x="411" 
d="M78 1065h184v-1065h-96v981l-88 20v64zM180 1208q-100 0 -148 48t-61 153h56q14 -65 47 -99q32 -34 106 -34t107 34t47 99h55q-12 -105 -60 -153q-49 -48 -149 -48z" />
    <glyph glyph-name="Iogonek" unicode="&#x12e;" horiz-adv-x="468" 
d="M168 1434h102v-1434q-53 -33 -80 -91t-26 -114q0 -98 82 -98q31 0 49 8l14 -41q-37 -22 -87 -22t-88 40t-38 109q0 131 103 209h-31v1434z" />
    <glyph glyph-name="iogonek" unicode="&#x12f;" horiz-adv-x="423" 
d="M199 1257q-37 0 -60 25q-23 26 -23 62t23 61t60 25t59 -25t23 -62q-1 -37 -23 -61t-59 -25zM76 1065h184v-1065q-53 -33 -80 -91t-26 -114q0 -98 82 -98q31 0 49 8l14 -41q-37 -22 -86 -22t-88 38t-39 111q0 131 102 209h-24v981l-88 20v64z" />
    <glyph glyph-name="Idotaccent" unicode="&#x130;" horiz-adv-x="466" 
d="M184 1434h103v-1434h-103v1434zM170 1597q0 29 18 49t46 19q28 0 47 -19q18 -18 18 -48t-18 -48q-17 -18 -47 -18t-47 18t-17 47z" />
    <glyph glyph-name="dotlessi" unicode="&#x131;" horiz-adv-x="411" 
d="M76 1065h184v-1065h-96v981l-88 20v64z" />
    <glyph glyph-name="Jcircumflex" unicode="&#x134;" horiz-adv-x="888" 
d="M362 -16q-76 0 -142 30t-104 73q-76 85 -91 130l67 47q98 -188 270 -188q129 0 195 98t66 246v1014h102v-990q1 -208 -91 -334t-272 -126zM555 1518h-84l164 219h76l163 -219h-83l-117 165h-2z" />
    <glyph glyph-name="jcircumflex" unicode="&#x135;" horiz-adv-x="415" 
d="M61 1200h-84l162 219h76l166 -219h-84l-119 166zM70 -270q98 0 98 170v1081l-88 20v64h184v-1206q0 -82 -47 -148t-135 -65q-55 0 -111 22l21 72q27 -10 78 -10z" />
    <glyph glyph-name="Kcommaaccent" unicode="&#x136;" horiz-adv-x="1091" 
d="M182 0v1434h103v-570l-2 -301h4l620 871h117l-455 -641l508 -793h-119l-456 713l-217 -301v-412h-103zM512 -209q0 59 61 59q39 0 60 -34q20 -35 20 -82q0 -100 -114 -178l-17 26q104 80 66 172q-4 -16 -26 -16q-50 0 -50 53z" />
    <glyph glyph-name="kcommaaccent" unicode="&#x137;" horiz-adv-x="849" 
d="M150 1499h98v-676l-2 -360l450 602h109l-363 -479l363 -586h-107l-313 502l-137 -180v-322h-98v1499zM389 -209q0 59 69 59q32 0 52 -34t20 -82q0 -100 -114 -178l-17 26q104 80 66 172q-5 -16 -27 -16q-50 0 -49 53z" />
    <glyph glyph-name="kgreenlandic" unicode="&#x138;" horiz-adv-x="849" 
d="M150 1065h98v-242l-2 -360l450 602h109l-363 -479l363 -586h-107l-313 502l-137 -180v-322h-98v1065z" />
    <glyph glyph-name="Lacute" unicode="&#x139;" horiz-adv-x="1011" 
d="M186 1434h103v-1346h696v-88h-799v1434zM319 1821l72 -35l-117 -268h-61z" />
    <glyph glyph-name="lacute" unicode="&#x13a;" horiz-adv-x="434" 
d="M160 1499h96v-1358q0 -45 14 -58t49 -13l52 6v-78q-43 -14 -90 -14q-121 0 -121 147v1368zM291 1866l76 -41l-127 -248h-52z" />
    <glyph glyph-name="Lcommaaccent" unicode="&#x13b;" horiz-adv-x="1011" 
d="M186 1434h103v-1346h696v-88h-799v1434zM593 -150q32 0 52 -34t21 -82q0 -100 -115 -178l-16 26q104 80 65 172q-4 -16 -26 -16q-47 0 -50 53q0 59 69 59z" />
    <glyph glyph-name="lcommaaccent" unicode="&#x13c;" horiz-adv-x="434" 
d="M158 1499h96v-1358q0 -45 14 -58t49 -13l52 6v-78q-43 -14 -90 -14q-121 0 -121 147v1368zM253 -150q32 0 52 -34t21 -82q0 -100 -115 -178l-16 26q104 80 65 172q-4 -16 -26 -16q-47 0 -50 53q0 59 69 59z" />
    <glyph glyph-name="Lcaron" unicode="&#x13d;" horiz-adv-x="1013" 
d="M186 1434h103v-1346h696v-88h-799v1434zM606 1434h78q0 -193 -72 -310l-49 15q43 111 43 295z" />
    <glyph glyph-name="lcaron" unicode="&#x13e;" horiz-adv-x="497" 
d="M158 1499h96v-1358q0 -45 14 -58t49 -13l52 6v-78q-43 -14 -90 -14q-121 0 -121 147v1368zM479 1499h78q0 -193 -72 -309l-49 14q43 111 43 295z" />
    <glyph glyph-name="Lslash" unicode="&#x141;" horiz-adv-x="1009" 
d="M199 1434h102v-732l274 191v-57l-274 -193v-555h645v-88h-747v578l-183 -125v57l183 125v799z" />
    <glyph glyph-name="lslash" unicode="&#x142;" horiz-adv-x="526" 
d="M176 1499h96v-764l220 152v-88l-220 -152v-506q0 -45 14 -58t50 -13l51 6v-78q-43 -14 -90 -14q-121 0 -121 147v451l-156 -107v88l156 107v829z" />
    <glyph glyph-name="Nacute" unicode="&#x143;" horiz-adv-x="1280" 
d="M680 1821l72 -35l-117 -268h-62zM182 1434h107l710 -1270l-4 637v633h103v-1434h-113l-704 1266l4 -631v-635h-103v1434z" />
    <glyph glyph-name="nacute" unicode="&#x144;" horiz-adv-x="1056" 
d="M150 1065h73l17 -221q28 74 84 131q105 108 261 107q157 0 245 -118t90 -335v-629h-97v639q0 166 -70 261q-71 95 -206 95q-135 1 -218 -119t-83 -266v-610h-96v1065zM575 1503l72 -35l-117 -268h-61z" />
    <glyph glyph-name="Ncommaaccent" unicode="&#x145;" horiz-adv-x="1280" 
d="M578 -209q0 59 61 59q39 0 59 -34t21 -82q0 -100 -115 -178l-16 26q104 80 65 172q-4 -16 -26 -16q-49 0 -49 53zM182 1434h107l710 -1270l-4 637v633h103v-1434h-113l-704 1266l4 -631v-635h-103v1434z" />
    <glyph glyph-name="ncommaaccent" unicode="&#x146;" horiz-adv-x="1056" 
d="M150 1065h73l17 -221q28 74 84 131q105 108 261 107q157 0 245 -118t90 -335v-629h-97v639q0 166 -70 261q-71 95 -206 95q-135 1 -218 -119t-83 -266v-610h-96v1065zM475 -209q0 59 69 59q32 0 52 -34t20 -82q0 -100 -114 -178l-17 26q104 80 66 172q-5 -16 -27 -16
q-50 0 -49 53z" />
    <glyph glyph-name="Ncaron" unicode="&#x147;" horiz-adv-x="1280" 
d="M459 1737h84l116 -166h3l116 166h84l-164 -219h-75zM182 1434h107l710 -1270l-4 637v633h103v-1434h-113l-704 1266l4 -631v-635h-103v1434z" />
    <glyph glyph-name="ncaron" unicode="&#x148;" horiz-adv-x="1056" 
d="M150 1065h73l17 -221q28 74 84 131q105 108 261 107q157 0 245 -118t90 -335v-629h-97v639q0 166 -70 261q-71 95 -206 95q-135 1 -218 -119t-83 -266v-610h-96v1065zM332 1419h84l116 -166h3l116 166h84l-164 -219h-75z" />
    <glyph glyph-name="Eng" unicode="&#x14a;" horiz-adv-x="1280" 
d="M182 1434h107l553 -988l157 -290l-4 645v633h103v-1467q0 -115 -42 -177t-190 -95l-16 59q98 39 123 76t22 166l-559 989l-155 289l4 -639v-635h-103v1434z" />
    <glyph glyph-name="eng" unicode="&#x14b;" horiz-adv-x="1056" 
d="M150 1065h73l19 -221q35 88 117 163q83 75 233 75t238 -118q88 -116 90 -335v-654q0 -121 -52 -187t-180 -99l-16 59q76 29 114 67t37 107v717q0 166 -70 261q-71 95 -206 95q-135 1 -217 -119t-82 -266v-610h-98v1065z" />
    <glyph glyph-name="Omacron" unicode="&#x14c;" horiz-adv-x="1449" 
d="M205 716q0 -272 145 -456q146 -184 374 -184t375 182q146 182 146 454t-148 459q-149 187 -373 187t-372 -184q-147 -185 -147 -458zM100 717q0 313 175 523t449 210t450 -209t176 -523t-175 -524t-451 -210t-451 210q-173 210 -173 523zM469 1624h508v-68h-508v68z" />
    <glyph glyph-name="omacron" unicode="&#x14d;" horiz-adv-x="1105" 
d="M552 995q-163 0 -263 -132q-101 -132 -101 -331q0 -198 100 -330t264 -132q163 0 264 132q102 132 102 330t-102 331q-102 132 -264 132zM86 532q0 236 131 393t336 157t336 -158q131 -156 131 -392t-132 -392t-336 -156t-335 156t-131 392zM299 1296h508v-67h-508v67z
" />
    <glyph glyph-name="Obreve" unicode="&#x14e;" horiz-adv-x="1449" 
d="M205 716q0 -272 145 -456q146 -184 374 -184t375 182q146 182 146 454t-148 459q-149 187 -373 187t-372 -184q-147 -185 -147 -458zM100 717q0 313 175 523t449 210t450 -209t176 -523t-175 -524t-451 -210t-451 210q-173 210 -173 523zM725 1540q-100 0 -148 48
t-61 153h55q14 -66 47 -100q33 -33 107 -33t107 34t47 99h55q-12 -105 -60 -153t-149 -48z" />
    <glyph glyph-name="obreve" unicode="&#x14f;" horiz-adv-x="1105" 
d="M552 995q-163 0 -263 -132q-101 -132 -101 -331q0 -198 100 -330t264 -132q163 0 264 132q102 132 102 330t-102 331q-102 132 -264 132zM86 532q0 236 131 393t336 157t336 -158q131 -156 131 -392t-132 -392t-336 -156t-335 156t-131 392zM558 1208q-100 0 -149 48
q-48 48 -61 153h55q13 -65 47 -99t108 -34t106 34q33 34 47 99h55q-12 -105 -60 -153t-148 -48z" />
    <glyph glyph-name="Ohungarumlaut" unicode="&#x150;" horiz-adv-x="1449" 
d="M205 716q0 -272 145 -456q146 -184 374 -184t375 182q146 182 146 454t-148 459q-149 187 -373 187t-372 -184q-147 -185 -147 -458zM100 717q0 313 175 523t449 210t450 -209t176 -523t-175 -524t-451 -210t-451 210q-173 210 -173 523zM897 1821l72 -35l-117 -268h-61z
M682 1821l72 -35l-117 -268h-62z" />
    <glyph glyph-name="ohungarumlaut" unicode="&#x151;" horiz-adv-x="1105" 
d="M552 995q-163 0 -263 -132q-101 -132 -101 -331q0 -198 100 -330t264 -132q163 0 264 132q102 132 102 330t-102 331q-102 132 -264 132zM86 532q0 236 131 393t336 157t336 -158q131 -156 131 -392t-132 -392t-336 -156t-335 156t-131 392zM727 1503l72 -35l-117 -268
h-61zM512 1503l72 -35l-117 -268h-61z" />
    <glyph glyph-name="OE" unicode="&#x152;" horiz-adv-x="2191" 
d="M205 716q0 -272 145 -456q144 -184 370 -184t372 174q145 174 153 438v27q0 270 -148 456q-149 187 -373 187t-372 -184q-147 -185 -147 -458zM1245 1434h826v-88h-723v-605h624v-88h-624v-565h751v-88h-854v307q-82 -151 -217 -237t-305 -86q-276 0 -450 210
q-173 210 -173 523t175 523t448 210q168 0 304 -88t218 -240v312z" />
    <glyph glyph-name="oe" unicode="&#x153;" horiz-adv-x="1851" 
d="M1085 571h650q-4 237 -129 358q-70 67 -172 66q-150 0 -246 -121t-103 -303zM550 995q-163 0 -263 -132q-101 -132 -101 -331q0 -198 100 -330t264 -132q163 0 264 132t101 330t-101 331q-101 132 -264 132zM551 -16q-205 0 -336 156t-131 392t131 393t336 156
q166 0 286 -106t160 -281q39 172 154 280t276 107q193 -1 301 -153t109 -367l-4 -67h-748q9 -186 115 -306t270 -118q115 0 269 73l33 -71q-156 -88 -321 -88t-287 108t-165 279q-41 -174 -162 -281q-122 -106 -286 -106z" />
    <glyph glyph-name="Racute" unicode="&#x154;" horiz-adv-x="1171" 
d="M287 1346v-623h409q113 0 189 88t76 220t-80 223t-203 92h-391zM184 1434h506q160 0 264 -115t104 -276t-72 -262q-73 -101 -200 -138l314 -643h-107l-315 635h-391v-635h-103v1434zM569 1821l72 -35l-117 -268h-61z" />
    <glyph glyph-name="racute" unicode="&#x155;" horiz-adv-x="573" 
d="M150 1065h71l17 -211q25 90 101 155q77 65 187 64v-96q-128 0 -204 -84t-76 -242v-651h-96v1065zM367 1503l71 -35l-116 -268h-62z" />
    <glyph glyph-name="Rcommaaccent" unicode="&#x156;" horiz-adv-x="1171" 
d="M287 1346v-623h409q113 0 189 88t76 220t-80 223t-203 92h-391zM184 1434h506q160 0 264 -115t104 -276t-72 -262q-73 -101 -200 -138l314 -643h-107l-315 635h-391v-635h-103v1434zM535 -209q0 59 61 59q39 0 59 -34t21 -82q0 -100 -115 -178l-16 26q104 80 65 172
q-4 -16 -26 -16q-49 0 -49 53z" />
    <glyph glyph-name="rcommaaccent" unicode="&#x157;" horiz-adv-x="575" 
d="M152 1065h71l17 -211q25 90 101 155q77 65 187 64v-96q-128 0 -204 -84t-76 -242v-651h-96v1065zM121 -209q0 59 61 59q39 0 60 -34q20 -35 20 -82q0 -100 -115 -178l-16 26q104 80 66 172q-5 -16 -27 -16q-50 0 -49 53z" />
    <glyph glyph-name="Rcaron" unicode="&#x158;" horiz-adv-x="1171" 
d="M287 1346v-623h409q113 0 189 88t76 220t-80 223t-203 92h-391zM184 1434h506q160 0 264 -115t104 -276t-72 -262q-73 -101 -200 -138l314 -643h-107l-315 635h-391v-635h-103v1434zM346 1737h84l117 -166h2l117 166h84l-164 -219h-76z" />
    <glyph glyph-name="rcaron" unicode="&#x159;" horiz-adv-x="575" 
d="M150 1065h71l17 -211q25 90 101 155q77 65 187 64v-96q-128 0 -204 -84t-76 -242v-651h-96v1065zM127 1419h84l117 -166h2l116 166h84l-163 -219h-76z" />
    <glyph glyph-name="Sacute" unicode="&#x15a;" horiz-adv-x="1028" 
d="M512 -16q-200 0 -414 106l29 76q229 -92 385 -92t242 76t86 208t-94 198q-94 65 -257 120q-71 27 -111 44t-98 53q-174 108 -171 312q0 174 110 270q111 95 303 95t365 -86l-33 -80l-25 10l-25 10t-45 17q-30 10 -64 17q-34 6 -69 14t-96 8q-143 0 -231 -73t-88 -199
t76 -185q31 -25 54 -42t150 -66q127 -48 165 -63t106 -54t98 -77q82 -102 82 -241q0 -184 -115 -280t-315 -96zM561 1821l72 -35l-117 -268h-61z" />
    <glyph glyph-name="sacute" unicode="&#x15b;" horiz-adv-x="819" 
d="M741 269q0 -137 -88 -211q-89 -74 -241 -74t-316 82l27 75q164 -73 283 -73t180 53t61 135t-32 118q-13 15 -20 25q-7 11 -29 23t-30 17t-36 17q-29 12 -38 15q-9 4 -43 15q-251 81 -302 197q-23 50 -23 118q0 133 89 207t235 74t284 -62l-28 -76q-117 53 -237 53
t-183 -49q-64 -49 -64 -143t70 -142q52 -37 189 -86q137 -50 192 -92q100 -80 100 -216zM451 1503l71 -35l-116 -268h-62z" />
    <glyph glyph-name="Scircumflex" unicode="&#x15c;" horiz-adv-x="1028" 
d="M512 -16q-200 0 -414 106l29 76q229 -92 385 -92t242 76t86 208t-94 198q-94 65 -257 120q-71 27 -111 44t-98 53q-174 108 -171 312q0 174 110 270q111 95 303 95t365 -86l-33 -80l-25 10l-25 10t-45 17q-30 10 -64 17q-34 6 -69 14t-96 8q-143 0 -231 -73t-88 -199
t76 -185q31 -25 54 -42t150 -66q127 -48 165 -63t106 -54t98 -77q82 -102 82 -241q0 -184 -115 -280t-315 -96zM406 1518h-84l163 219h76l164 -219h-84l-117 165h-2z" />
    <glyph glyph-name="scircumflex" unicode="&#x15d;" horiz-adv-x="819" 
d="M741 269q0 -137 -88 -211q-89 -74 -241 -74t-316 82l27 75q164 -73 283 -73t180 53t61 135t-32 118q-13 15 -20 25q-7 11 -29 23t-30 17t-36 17q-29 12 -38 15q-9 4 -43 15q-251 81 -302 197q-23 50 -23 118q0 133 89 207t235 74t284 -62l-28 -76q-117 53 -237 53
t-183 -49q-64 -49 -64 -143t70 -142q52 -37 189 -86q137 -50 192 -92q100 -80 100 -216zM295 1200h-84l164 219h76l163 -219h-84l-116 166h-2z" />
    <glyph glyph-name="Scedilla" unicode="&#x15e;" horiz-adv-x="1028" 
d="M512 74q156 0 242 76t86 208t-94 198q-94 65 -257 120q-71 27 -111 44t-98 53q-174 108 -171 312q0 174 110 270q111 95 303 95t365 -86l-33 -80l-25 10l-25 10t-45 17q-30 10 -64 17q-34 6 -69 14t-96 8q-143 0 -231 -73t-88 -199t76 -185q31 -25 54 -42t150 -66
q127 -48 165 -63t106 -54t98 -77q82 -102 82 -241q0 -182 -112 -277t-300 -99l-26 -109q16 2 28 2q54 0 94 -34q40 -35 40 -103t-46 -105q-80 -64 -245 -16l18 53q61 -12 86 -12q109 0 109 84q0 76 -90 76l-33 -4l-31 37l41 133q-199 12 -377 104l29 76q229 -92 385 -92z
" />
    <glyph glyph-name="scedilla" unicode="&#x15f;" horiz-adv-x="821" 
d="M94 801q0 133 89 207t235 74t284 -62l-28 -76q-117 53 -237 53t-183 -49q-64 -49 -64 -143t70 -142q52 -37 189 -86q137 -50 192 -92q100 -80 100 -216t-87 -210t-232 -75l-27 -109q16 2 29 2q53 0 93 -34q40 -35 40 -103t-46 -105q-81 -66 -245 -16l19 53q61 -12 86 -12
q109 0 108 84q0 76 -90 76l-33 -4l-30 37l39 133q-131 12 -269 80l27 75q164 -73 283 -73t180 53t61 135t-32 118q-13 15 -20 25q-7 11 -29 23t-30 17t-36 17q-29 12 -38 15q-9 4 -43 15q-251 81 -302 197q-23 50 -23 118z" />
    <glyph glyph-name="Scaron" unicode="&#x160;" horiz-adv-x="1028" 
d="M512 -16q-200 0 -414 106l29 76q229 -92 385 -92t242 76t86 208t-94 198q-94 65 -257 120q-71 27 -111 44t-98 53q-174 108 -171 312q0 174 110 270q111 95 303 95t365 -86l-33 -80l-25 10l-25 10t-45 17q-30 10 -64 17q-34 6 -69 14t-96 8q-143 0 -231 -73t-88 -199
t76 -185q31 -25 54 -42t150 -66q127 -48 165 -63t106 -54t98 -77q82 -102 82 -241q0 -184 -115 -280t-315 -96zM324 1737h84l116 -166h2l117 166h84l-164 -219h-76z" />
    <glyph glyph-name="scaron" unicode="&#x161;" horiz-adv-x="819" 
d="M741 269q0 -137 -88 -211q-89 -74 -241 -74t-316 82l27 75q164 -73 283 -73t180 53t61 135t-32 118q-13 15 -20 25q-7 11 -29 23t-30 17t-36 17q-29 12 -38 15q-9 4 -43 15q-251 81 -302 197q-23 50 -23 118q0 133 89 207t235 74t284 -62l-28 -76q-117 53 -237 53
t-183 -49q-64 -49 -64 -143t70 -142q52 -37 189 -86q137 -50 192 -92q100 -80 100 -216zM213 1419h84l117 -166h2l116 166h84l-163 -219h-76z" />
    <glyph glyph-name="Tcommaaccent" unicode="&#x162;" horiz-adv-x="1015" 
d="M20 1434h973v-88h-434v-1346h-102v1346h-437v88zM507 -150q32 0 52 -34t21 -82q0 -100 -115 -178l-16 26q104 80 65 172q-4 -16 -26 -16q-47 0 -50 53q0 59 69 59z" />
    <glyph glyph-name="tcommaaccent" unicode="&#x163;" horiz-adv-x="591" 
d="M266 1372v-307h248v-76h-248v-721q0 -120 28 -160t91 -40t127 18l6 -78q-55 -25 -133 -24q-119 0 -167 68t-48 216v721h-135v64l135 12l18 307h78zM333 -150q32 0 52 -34t21 -82q0 -100 -115 -178l-17 26q104 80 66 172q-4 -16 -26 -16q-47 0 -50 53q0 59 69 59z" />
    <glyph glyph-name="Tcaron" unicode="&#x164;" horiz-adv-x="1015" 
d="M20 1434h973v-88h-434v-1346h-102v1346h-437v88zM309 1737h84l117 -166h2l117 166h84l-164 -219h-76z" />
    <glyph glyph-name="tcaron" unicode="&#x165;" horiz-adv-x="591" 
d="M266 1372v-307h248v-76h-248v-721q0 -120 28 -160t91 -40t127 18l6 -78q-55 -25 -133 -24q-119 0 -167 68t-48 216v721h-135v64l135 12l18 307h78zM510 1520h78q0 -193 -72 -310l-49 15q43 111 43 295z" />
    <glyph glyph-name="Tbar" unicode="&#x166;" horiz-adv-x="1021" 
d="M25 1434h972v-88h-434v-576h316v-61h-316v-709h-102v709h-318v61h318v576h-436v88z" />
    <glyph glyph-name="tbar" unicode="&#x167;" horiz-adv-x="598" 
d="M279 1372v-307h247v-76h-247v-178h247v-47h-247v-496q-1 -120 27 -160t90 -40t128 18l6 -78q-55 -25 -133 -24q-119 0 -167 68t-48 216v496h-133v47h133v178h-135v64l135 12l19 307h78z" />
    <glyph glyph-name="Utilde" unicode="&#x168;" horiz-adv-x="1245" 
d="M170 1434h100v-990q0 -162 98 -265t256 -103q157 0 254 103t97 265v990h100v-983q0 -209 -124 -338q-123 -129 -329 -129t-329 130t-123 337v983zM752 1599q48 0 94 60l28 -23q-61 -113 -149 -112q-45 0 -113 40t-118 40t-88 -60l-29 23q53 113 147 112q43 0 111 -40
q69 -40 117 -40z" />
    <glyph glyph-name="utilde" unicode="&#x169;" 
d="M240 424q0 -354 278 -354q142 0 220 104t77 248v643h98v-1065h-75l-15 195q-35 -87 -124 -149t-233 -62t-235 106q-90 106 -90 322v653h99v-641zM432 1352q43 0 111 -40q69 -40 117 -40t94 59l28 -22q-61 -113 -149 -113q-45 0 -113 40t-118 40t-89 -59l-28 22
q53 113 147 113z" />
    <glyph glyph-name="Umacron" unicode="&#x16a;" horiz-adv-x="1245" 
d="M170 1434h100v-990q0 -162 98 -265t256 -103q157 0 254 103t97 265v990h100v-983q0 -209 -124 -338q-123 -129 -329 -129t-329 130t-123 337v983zM369 1624h508v-68h-508v68z" />
    <glyph glyph-name="umacron" unicode="&#x16b;" 
d="M240 424q0 -354 278 -354q142 0 220 104t77 248v643h98v-1065h-75l-15 195q-35 -87 -124 -149t-233 -62t-235 106q-90 106 -90 322v653h99v-641zM272 1296h508v-67h-508v67z" />
    <glyph glyph-name="Ubreve" unicode="&#x16c;" horiz-adv-x="1245" 
d="M170 1434h100v-990q0 -162 98 -265t256 -103q157 0 254 103t97 265v990h100v-983q0 -209 -124 -338q-123 -129 -329 -129t-329 130t-123 337v983zM629 1540q-100 0 -149 48q-48 48 -60 153h55q14 -66 47 -100q33 -33 107 -33q75 0 107 34t46 99h56q-12 -105 -60 -153
t-149 -48z" />
    <glyph glyph-name="ubreve" unicode="&#x16d;" 
d="M240 424q0 -354 278 -354q142 0 220 104t77 248v643h98v-1065h-75l-15 195q-35 -87 -124 -149t-233 -62t-235 106q-90 106 -90 322v653h99v-641zM532 1208q-100 0 -148 48t-60 153h55q14 -65 47 -99q32 -34 106 -34t107 34t47 99h55q-12 -105 -60 -153q-49 -48 -149 -48z
" />
    <glyph glyph-name="Uring" unicode="&#x16e;" horiz-adv-x="1245" 
d="M170 1434h100v-990q0 -162 98 -265t256 -103q157 0 254 103t97 265v990h100v-983q0 -209 -124 -338q-123 -129 -329 -129t-329 130t-123 337v983zM625 1581q49 0 73 30t25 75q0 44 -25 74q-26 30 -74 30t-73 -30t-25 -74t25 -75q25 -30 74 -30zM625 1528q-72 0 -118 44
t-46 114t46 114t118 43q71 0 117 -44q46 -43 46 -113t-46 -114t-117 -44z" />
    <glyph glyph-name="uring" unicode="&#x16f;" 
d="M240 424q0 -354 278 -354q142 0 220 104t77 248v643h98v-1065h-75l-15 195q-35 -87 -124 -149t-233 -62t-235 106q-90 106 -90 322v653h99v-641zM530 1262q49 0 74 30t25 74q0 45 -25 75q-25 29 -74 29q-50 0 -74 -30t-24 -74t24 -74t74 -30zM530 1208q-72 0 -118 44
t-45 114q0 70 46 114q45 44 117 44t118 -44t46 -114t-46 -114t-118 -44z" />
    <glyph glyph-name="Uhungarumlaut" unicode="&#x170;" horiz-adv-x="1245" 
d="M170 1434h100v-990q0 -162 98 -265t256 -103q157 0 254 103t97 265v990h100v-983q0 -209 -124 -338q-123 -129 -329 -129t-329 130t-123 337v983zM768 1821l72 -35l-117 -268h-61zM553 1821l72 -35l-117 -268h-62z" />
    <glyph glyph-name="uhungarumlaut" unicode="&#x171;" 
d="M240 424q0 -354 278 -354q142 0 220 104t77 248v643h98v-1065h-75l-15 195q-35 -87 -124 -149t-233 -62t-235 106q-90 106 -90 322v653h99v-641zM702 1503l72 -35l-117 -268h-61zM487 1503l72 -35l-117 -268h-61z" />
    <glyph glyph-name="Uogonek" unicode="&#x172;" horiz-adv-x="1241" 
d="M168 1434h100v-990q0 -162 98 -265t256 -103q157 0 254 103t97 265v990h100v-983q0 -160 -75 -276t-205 -163q-53 -32 -83 -98t-30 -121t24 -84q37 -46 109 -20l14 -41q-37 -23 -87 -23t-89 41t-39 107q0 123 95 217q-37 -6 -89 -6q-206 0 -328 131t-122 336v983z" />
    <glyph glyph-name="uogonek" unicode="&#x173;" horiz-adv-x="1077" 
d="M240 424q0 -354 278 -354q142 0 220 104t77 248v643h98v-1065q-53 -33 -79 -91t-27 -114q0 -98 80 -98q27 0 51 10l14 -43q-33 -22 -88 -22t-90 39t-35 102q0 127 109 217h-10l-15 195q-35 -87 -124 -149t-233 -62t-235 106q-90 106 -90 322v653h99v-641z" />
    <glyph glyph-name="Wcircumflex" unicode="&#x174;" horiz-adv-x="1695" 
d="M801 1434h125l303 -1289h4l309 1289h109l-351 -1436h-137l-299 1274h-4l-301 -1274h-137l-352 1436h114l305 -1289h5zM733 1518h-84l162 219h76l166 -219h-84l-119 165z" />
    <glyph glyph-name="wcircumflex" unicode="&#x175;" horiz-adv-x="1443" 
d="M672 1065h102l240 -942l260 942h94l-293 -1065h-121l-233 915l-232 -915h-120l-293 1065h98l256 -942h2zM604 1200h-84l162 219h76l166 -219h-84l-119 166z" />
    <glyph glyph-name="Ycircumflex" unicode="&#x176;" horiz-adv-x="1050" 
d="M575 0h-104v588l-430 846h111l372 -752h2l373 752h107l-431 -846v-588zM410 1518h-84l161 219h76l166 -219h-84l-119 165z" />
    <glyph glyph-name="ycircumflex" unicode="&#x177;" horiz-adv-x="942" 
d="M72 1065h104l303 -942l289 942h102l-446 -1413h-98l106 332zM360 1200h-84l164 219h76l164 -219h-84l-117 166h-2z" />
    <glyph glyph-name="Ydieresis" unicode="&#x178;" horiz-adv-x="1050" 
d="M575 0h-104v588l-430 846h111l372 -752h2l373 752h107l-431 -846v-588zM631 1597q0 29 18 49t46 19q28 0 46 -19q19 -18 19 -48t-18 -48t-48 -18q-29 0 -46 18t-17 47zM289 1597q0 29 18 49t46 19q28 0 46 -19q19 -18 19 -48t-18 -48t-48 -18q-29 0 -46 18t-17 47z" />
    <glyph glyph-name="Zacute" unicode="&#x179;" horiz-adv-x="1054" 
d="M86 1434h901v-74l-799 -1270l2 -4l256 2h541v-88h-926v74l799 1269l-2 5l-258 -2h-514v88zM561 1821l72 -35l-117 -268h-61z" />
    <glyph glyph-name="zacute" unicode="&#x17a;" horiz-adv-x="880" 
d="M84 1065h721v-78l-625 -903l2 -4l277 2h346v-82h-744v76l627 905l-2 4l-307 -2h-295v82zM496 1503l71 -35l-116 -268h-62z" />
    <glyph glyph-name="Zdotaccent" unicode="&#x17b;" horiz-adv-x="1054" 
d="M86 1434h901v-74l-799 -1270l2 -4l256 2h541v-88h-926v74l799 1269l-2 5l-258 -2h-514v88zM457 1597q0 29 18 49t46 19q28 0 46 -19q19 -18 19 -48t-18 -48t-48 -18q-29 0 -46 18t-17 47z" />
    <glyph glyph-name="zdotaccent" unicode="&#x17c;" horiz-adv-x="880" 
d="M84 1065h721v-78l-625 -903l2 -4l277 2h346v-82h-744v76l627 905l-2 4l-307 -2h-295v82zM375 1266q0 29 18 48t46 19t46 -19q19 -19 19 -48t-18 -47q-18 -19 -48 -19q-29 0 -46 18t-17 48z" />
    <glyph glyph-name="Zcaron" unicode="&#x17d;" horiz-adv-x="1054" 
d="M86 1434h901v-74l-799 -1270l2 -4l256 2h541v-88h-926v74l799 1269l-2 5l-258 -2h-514v88zM342 1737h84l117 -166h2l117 166h83l-163 -219h-76z" />
    <glyph glyph-name="zcaron" unicode="&#x17e;" horiz-adv-x="880" 
d="M84 1065h721v-78l-625 -903l2 -4l277 2h346v-82h-744v76l627 905l-2 4l-307 -2h-295v82zM246 1419h84l116 -166h3l116 166h84l-164 -219h-75z" />
    <glyph glyph-name="AEacute" unicode="&#x1fc;" horiz-adv-x="1624" 
d="M1092 1821l71 -35l-116 -268h-62zM748 1346h-78l-334 -852h412v852zM1573 1434v-88h-723v-605h625v-88h-625v-565h752v-88h-854v408h-447l-160 -408h-106l577 1434h961z" />
    <glyph glyph-name="aeacute" unicode="&#x1fd;" horiz-adv-x="1636" 
d="M1180 993q-150 0 -246 -120t-103 -302h650q-2 170 -77 296q-74 126 -224 126zM401 70q168 0 257 105q77 89 100 155q-31 96 -31 198q-150 29 -240 29q-91 0 -155 -20q-64 -19 -114 -79t-50 -165t72 -164t161 -59zM489 1081q262 0 320 -186l6 -23q129 209 359 209
q192 -1 300 -153t109 -367l-4 -67h-748q11 -184 117 -304t269 -120q115 0 268 73l33 -71q-156 -88 -302 -88t-252 68q-105 68 -167 184q-32 -59 -97 -125q-127 -129 -282 -128t-252 82q-96 81 -96 245t111 245q112 82 282 82q98 0 266 -33l4 23v110q0 147 -64 202
q-65 54 -205 54t-280 -45l-20 78q176 55 325 55zM860 1503l72 -35l-117 -268h-61z" />
    <glyph glyph-name="Oslashacute" unicode="&#x1fe;" horiz-adv-x="1449" 
d="M1245 715q0 155 -52 287t-144 221l-586 -1069q117 -78 260 -78q229 0 376 182q146 183 146 457zM205 715q0 -326 194 -510l586 1071q-121 82 -262 82q-223 0 -371 -184q-147 -185 -147 -459zM100 717q0 313 175 523t448 210q170 0 309 -88l74 133h92l-98 -180
q118 -98 184 -255t66 -343q0 -313 -175 -523t-452 -210q-170 0 -307 86l-72 -131h-90l96 178q-119 98 -184 255q-66 157 -66 345zM770 1821l72 -35l-117 -268h-61z" />
    <glyph glyph-name="oslashacute" unicode="&#x1ff;" horiz-adv-x="1105" 
d="M573 1503l72 -35l-117 -268h-61zM553 995q-164 0 -264 -132q-101 -132 -101 -344t123 -345l424 766q-84 55 -182 55zM553 70q161 0 263 132t102 345q0 214 -130 348l-421 -768q82 -57 186 -57zM86 530q0 238 131 395t336 156q121 0 225 -61l68 121h78l-90 -162
q186 -158 186 -449q0 -233 -132 -390t-335 -156q-127 0 -231 63l-68 -123h-80l92 166q-180 157 -180 440z" />
    <glyph glyph-name="Scommaaccent" unicode="&#x218;" horiz-adv-x="1028" 
d="M512 -16q-200 0 -414 106l29 76q229 -92 385 -92t242 76t86 208t-94 198q-94 65 -257 120q-71 27 -111 44t-98 53q-174 108 -171 312q0 174 110 270q111 95 303 95t365 -86l-33 -80l-25 10l-25 10t-45 17q-30 10 -64 17q-34 6 -69 14t-96 8q-143 0 -231 -73t-88 -199
t76 -185q31 -25 54 -42t150 -66q127 -48 165 -63t106 -54t98 -77q82 -102 82 -241q0 -184 -115 -280t-315 -96zM459 -209q0 59 61 59q39 0 60 -34q20 -35 20 -82q0 -100 -115 -178l-16 26q104 80 66 172q-5 -16 -27 -16q-50 0 -49 53z" />
    <glyph glyph-name="scommaaccent" unicode="&#x219;" horiz-adv-x="819" 
d="M741 269q0 -137 -88 -211q-89 -74 -241 -74t-316 82l27 75q164 -73 283 -73t180 53t61 135t-32 118q-13 15 -20 25q-7 11 -29 23t-30 17t-36 17q-29 12 -38 15q-9 4 -43 15q-251 81 -302 197q-23 50 -23 118q0 133 89 207t235 74t284 -62l-28 -76q-117 53 -237 53
t-183 -49q-64 -49 -64 -143t70 -142q52 -37 189 -86q137 -50 192 -92q100 -80 100 -216zM425 -150q32 0 52 -34t21 -82q0 -100 -115 -178l-16 26q104 80 65 172q-4 -16 -26 -16q-47 0 -50 53q0 59 69 59z" />
    <glyph glyph-name="circumflex" unicode="&#x2c6;" horiz-adv-x="724" 
d="M236 1300h-74l164 216h77l164 -216h-73l-127 152z" />
    <glyph glyph-name="caron" unicode="&#x2c7;" horiz-adv-x="727" 
d="M162 1516h71l132 -154l129 154h71l-164 -216h-77z" />
    <glyph glyph-name="breve" unicode="&#x2d8;" horiz-adv-x="702" 
d="M350 1354q70 0 107 34t57 103h45q-14 -101 -62 -151q-47 -50 -145 -50t-146 48t-61 153h45q25 -69 58 -103q32 -34 102 -34z" />
    <glyph glyph-name="dotaccent" unicode="&#x2d9;" horiz-adv-x="434" 
d="M164 1447q0 24 15 41t38 17t39 -17t16 -41t-16 -40t-39 -16t-38 16t-15 40z" />
    <glyph glyph-name="ring" unicode="&#x2da;" horiz-adv-x="577" 
d="M289 1262q49 0 73 30t25 74q0 45 -25 75q-26 29 -74 29t-73 -30t-25 -74t25 -74t74 -30zM289 1208q-72 0 -118 44t-46 114t46 114t118 44t118 -44t46 -114t-46 -114t-118 -44z" />
    <glyph glyph-name="ogonek" unicode="&#x2db;" horiz-adv-x="503" 
d="M213 -203q0 -100 84 -100q29 0 47 8l14 -41q-38 -22 -86 -22t-88 41q-39 41 -39 113t41 136q41 66 119 101l14 -33q-53 -33 -79 -91t-27 -112z" />
    <glyph glyph-name="tilde" unicode="&#x2dc;" horiz-adv-x="786" 
d="M297 1434q43 0 112 -42t113 -42t96 65l29 -22q-61 -113 -149 -113q-45 0 -113 41t-118 41t-89 -59l-28 20q51 111 147 111z" />
    <glyph glyph-name="hungarumlaut" unicode="&#x2dd;" horiz-adv-x="684" 
d="M453 1503l71 -35l-116 -268h-62zM238 1503l71 -35l-116 -268h-62z" />
    <glyph glyph-name="Wgrave" unicode="&#x1e80;" horiz-adv-x="1695" 
d="M801 1434h125l303 -1289h4l309 1289h109l-351 -1436h-137l-299 1274h-4l-301 -1274h-137l-352 1436h114l305 -1289h5zM705 1780l79 41l107 -303h-62z" />
    <glyph glyph-name="wgrave" unicode="&#x1e81;" horiz-adv-x="1443" 
d="M672 1065h102l240 -942l260 942h94l-293 -1065h-121l-233 915l-232 -915h-120l-293 1065h98l256 -942h2zM537 1460l90 41l121 -301h-70z" />
    <glyph glyph-name="Wacute" unicode="&#x1e82;" horiz-adv-x="1695" 
d="M801 1434h125l303 -1289h4l309 1289h109l-351 -1436h-137l-299 1274h-4l-301 -1274h-137l-352 1436h114l305 -1289h5zM950 1821l72 -35l-117 -268h-61z" />
    <glyph glyph-name="wacute" unicode="&#x1e83;" horiz-adv-x="1443" 
d="M672 1065h102l240 -942l260 942h94l-293 -1065h-121l-233 915l-232 -915h-120l-293 1065h98l256 -942h2zM811 1503l72 -35l-117 -268h-61z" />
    <glyph glyph-name="Wdieresis" unicode="&#x1e84;" horiz-adv-x="1695" 
d="M801 1434h125l303 -1289h4l309 1289h109l-351 -1436h-137l-299 1274h-4l-301 -1274h-137l-352 1436h114l305 -1289h5zM958 1597q0 29 18 49t47 19q28 0 46 -19q18 -18 18 -48t-18 -48t-47 -18q-28 0 -46 18t-18 47zM616 1597q0 29 18 49t47 19q28 0 46 -19q18 -18 18 -48
t-18 -48t-47 -18q-28 0 -46 18t-18 47z" />
    <glyph glyph-name="wdieresis" unicode="&#x1e85;" horiz-adv-x="1443" 
d="M672 1065h102l240 -942l260 942h94l-293 -1065h-121l-233 915l-232 -915h-120l-293 1065h98l256 -942h2zM825 1266q1 29 19 48t46 19t46 -19t18 -48t-18 -47q-18 -19 -47 -19t-47 18t-17 48zM483 1266q1 29 19 48t46 19t46 -19t18 -48t-18 -47q-18 -19 -47 -19t-47 18
t-17 48z" />
    <glyph glyph-name="germandbls.case" unicode="&#x1e9e;" horiz-adv-x="1202" 
d="M170 944q0 226 102 366t308 140q100 0 203 -45t182 -145l-230 -437q399 -76 400 -422q0 -193 -119 -317t-295 -123q-139 0 -262 55l16 80q107 -43 241 -43q134 1 230 97t96 256q0 299 -370 350l-31 55l223 426q-37 51 -122 87t-160 36q-164 0 -240 -115t-76 -299v-946
h-96v944z" />
    <glyph glyph-name="Ygrave" unicode="&#x1ef2;" horiz-adv-x="1050" 
d="M575 0h-104v588l-430 846h111l372 -752h2l373 752h107l-431 -846v-588zM393 1780l80 41l107 -303h-62z" />
    <glyph glyph-name="ygrave" unicode="&#x1ef3;" horiz-adv-x="942" 
d="M72 1065h104l303 -942l289 942h102l-446 -1413h-98l106 332zM332 1460l90 41l121 -301h-70z" />
    <glyph glyph-name="endash" unicode="&#x2013;" horiz-adv-x="1247" 
d="M137 694h973v-73h-973v73z" />
    <glyph glyph-name="emdash" unicode="&#x2014;" horiz-adv-x="1376" 
d="M137 694h1102v-73h-1102v73z" />
    <glyph glyph-name="quoteleft" unicode="&#x2018;" horiz-adv-x="434" 
d="M291 1128q-1 -29 -19 -48t-54 -19t-60 43t-25 100q0 139 141 221l19 -30q-51 -41 -79 -106t-5 -122q4 20 29 21q53 0 53 -60z" />
    <glyph glyph-name="quoteright" unicode="&#x2019;" horiz-adv-x="434" 
d="M220 1425q36 0 61 -42t24 -99q0 -137 -139 -223l-19 33q49 40 77 104t5 121q0 -18 -28 -19q-53 0 -54 60q1 29 19 47t54 18z" />
    <glyph glyph-name="quotesinglbase" unicode="&#x201a;" horiz-adv-x="425" 
d="M212 125q36 0 60 -42t25 -99q0 -137 -141 -224l-19 33q49 39 78 104t6 121q0 -6 -8 -12t-20 -6q-53 0 -54 59q1 29 19 47t54 19z" />
    <glyph glyph-name="quotedblleft" unicode="&#x201c;" horiz-adv-x="722" 
d="M218 1061q-36 0 -60 43q-24 42 -25 108q0 66 41 123t98 90l21 -30q-51 -39 -79 -104t-5 -124q4 21 29 21q24 0 38 -18t15 -42q0 -67 -73 -67zM509 1061q-37 0 -61 43t-24 100q0 139 141 221l19 -30q-51 -39 -79 -104t-5 -124q4 21 28 21t39 -18q14 -18 15 -42
q0 -67 -73 -67z" />
    <glyph glyph-name="quotedblright" unicode="&#x201d;" horiz-adv-x="720" 
d="M509 1425q37 0 61 -42t24 -99q0 -137 -139 -223l-19 33q49 40 77 104t5 121q-4 -19 -28 -19t-38 18t-16 44q0 27 18 45t55 18zM218 1425q36 0 61 -42t24 -99q0 -137 -139 -223l-19 33q49 40 77 104t5 121q-3 -19 -27 -19t-39 18t-16 42q0 65 73 65z" />
    <glyph glyph-name="quotedblbase" unicode="&#x201e;" horiz-adv-x="714" 
d="M428 59q0 29 18 47t55 19q37 0 61 -42t24 -99q0 -137 -140 -224l-18 33q49 39 77 104t5 121q-4 -18 -29 -18q-53 0 -53 59zM210 125q36 0 60 -42t25 -99q0 -137 -139 -224l-19 33q49 37 77 102t5 123q-3 -18 -27 -18t-39 17t-15 44t18 45t54 19z" />
    <glyph glyph-name="dagger" unicode="&#x2020;" horiz-adv-x="876" 
d="M786 1100v-99l-237 21v51zM90 1100l236 -27v-51l-236 -21v99zM391 1438h94l-16 -1227h-63z" />
    <glyph glyph-name="daggerdbl" unicode="&#x2021;" horiz-adv-x="944" 
d="M125 520l235 -24v-52l-235 -22v98zM819 520v-98l-235 22v52zM125 1100l235 -27v-51l-235 -21v99zM819 1100v-99l-235 21v51zM426 1438h94l-16 -1438h-64z" />
    <glyph glyph-name="bullet" unicode="&#x2022;" horiz-adv-x="641" 
d="M178 722q0 64 42 110t100 45t100 -47t41 -110q0 -64 -42 -110q-43 -46 -101 -45q-58 0 -99 46q-41 47 -41 111z" />
    <glyph glyph-name="ellipsis" unicode="&#x2026;" horiz-adv-x="1042" 
d="M678 54q0 28 18 47t43 19t42 -18t17 -46t-16 -46q-18 -18 -44 -18t-43 17t-17 45zM133 55q1 29 17 47t40 18t44 -18q20 -20 20 -47t-20 -45t-44 -18q-25 0 -41 17t-16 46zM406 55q0 29 17 47t43 18t43 -18q17 -20 17 -47t-18 -45t-43 -18t-42 17t-17 46z" />
    <glyph glyph-name="perthousand" unicode="&#x2030;" horiz-adv-x="2105" 
d="M1761 61q78 0 129 77q52 77 52 189q0 113 -52 191t-130 78q-77 0 -129 -79t-52 -189t52 -189q52 -78 130 -78zM1759 -16q-121 0 -195 96t-73 247q0 151 75 249q76 98 196 98t194 -98t74 -247t-75 -247t-196 -98zM1040 61q78 0 129 77t51 189q0 113 -52 191t-129 78
t-129 -79t-52 -189t52 -189q52 -78 130 -78zM1038 -16q-120 0 -194 96t-74 247t75 249t195 98t195 -98q74 -98 74 -247t-75 -247t-196 -98zM352 838q78 0 129 76t51 189t-52 191t-129 78t-129 -79t-52 -189t52 -188t130 -78zM291 0l706 1434h97l-707 -1434h-96zM350 760
q-120 0 -194 96t-74 247t75 249t195 98t195 -98q74 -98 74 -246t-75 -248q-75 -98 -196 -98z" />
    <glyph glyph-name="guilsinglleft" unicode="&#x2039;" horiz-adv-x="598" 
d="M434 1004l51 -52l-288 -420l286 -419l-49 -50l-348 461v17z" />
    <glyph glyph-name="guilsinglright" unicode="&#x203a;" horiz-adv-x="602" 
d="M115 952l51 52l348 -463v-17l-348 -461l-49 50l286 419z" />
    <glyph glyph-name="fraction" unicode="&#x2044;" horiz-adv-x="704" 
d="M37 0l551 1438h82q-408 -1063 -551 -1438h-82z" />
    <glyph glyph-name="Euro" unicode="&#x20ac;" horiz-adv-x="1417" 
d="M874 1450q222 0 386 -96l-31 -76q-41 29 -144 57q-102 27 -194 27q-195 0 -334 -136t-178 -356h659l-20 -57h-647q-4 -33 -4 -99t4 -98h579l-18 -57h-553q41 -219 180 -353t327 -134t353 82v-93q-156 -78 -348 -77q-240 0 -411 158t-214 417h-155l20 57h129q-6 48 -6 90
t4 107h-158l19 57h147q41 260 213 420q173 160 395 160z" />
    <glyph glyph-name="trademark" unicode="&#x2122;" horiz-adv-x="1363" 
d="M698 1434h58l198 -426l189 426h61v-623h-57v512l-172 -385h-39l-180 385v-512h-58v623zM131 1434h428v-58h-180v-565h-64v565h-184v58z" />
    <glyph glyph-name="commaaccent" unicode="&#xf6c3;" horiz-adv-x="421" 
d="M201 -166q73 0 73 -110t-108 -179l-16 25q43 35 64 85q22 50 3 97q-5 -18 -25 -18q-42 0 -42 45q0 23 15 39q16 16 36 16z" />
    <glyph glyph-name="apple" unicode="&#xf8ff;" horiz-adv-x="2287" 
d="M2177 981v-63h61v-19h-61v-133q0 -51 39 -51q20 0 31 4l2 -17q-12 -6 -35 -6q-57 0 -57 72v131h-33v16l33 3l4 63h16zM1975 901q-39 -1 -65 -27t-26 -66t26 -68t64 -28t67 28q27 28 27 68t-26 66t-67 27zM1975 920q48 0 81 -32t33 -80t-34 -82t-80 -34t-79 34t-32 81
q0 47 31 80q32 33 80 33zM1622 807q0 -41 25 -68t61 -27t62 28t26 67t-26 67t-62 27t-62 -27q-24 -26 -24 -67zM1817 807q0 -47 -30 -81q-29 -34 -87 -34t-76 53v-120h-22v293h16l4 -52q25 54 79 54t85 -33t31 -80zM1524 815q0 33 -22 59t-56 27q-34 0 -61 -25
q-25 -26 -27 -61h166zM1444 920q45 0 77 -37t23 -84h-186q2 -37 28 -62q47 -46 134 -8l8 -16q-100 -49 -160 13q-33 34 -33 81t32 80t77 33zM1083 807q0 -41 25 -69q24 -28 62 -28t63 28t25 68t-26 68t-63 27t-61 -27t-25 -67zM1255 1008h21v-312h-16l-3 52q-27 -56 -81 -56
t-84 34t-31 81q0 47 31 80q32 33 84 33t79 -52v140zM754 823h120q-4 57 -55 58q-55 -1 -65 -58zM815 922q47 0 75 -33t28 -80l-3 -21h-161q6 -57 69 -57q23 0 66 14l14 -32q-35 -21 -83 -21t-81 32t-33 82t31 83t78 33zM494 807q0 -33 18 -53t48 -20t48 20t19 53
q-1 33 -19 53t-47 20t-48 -20t-19 -53zM674 807q0 -49 -29 -82t-78 -33t-69 31v-98h-47v293h36l7 -33q24 37 72 37t78 -33t30 -82zM258 625q-20 0 -43 6l8 41q13 -4 29 -4t31 28l-86 222h47l63 -173l62 173h49l-92 -232q-27 -61 -68 -61zM78 883h-31v28l31 7l8 63h37v-63h51
v-35h-51v-115q0 -33 29 -33l26 2l8 -32q-25 -8 -41 -9q-68 0 -67 76v111zM1001 1008v-394h-8v394h8z" />
    <glyph glyph-name="a.alt" horiz-adv-x="1120" 
d="M534 995q-148 0 -245 -133q-99 -134 -99 -328t100 -329t246 -135t242 131t96 331t-96 332q-96 131 -244 131zM520 1081q266 0 361 -254l16 238h74v-1065h-97v219q-41 -106 -137 -171t-217 -64q-190 0 -311 158t-121 392t122 390t310 157z" />
    <glyph glyph-name="g.alt" horiz-adv-x="1095" 
d="M526 995q-150 -1 -242 -119t-94 -297q0 -179 91 -296t244 -117t243 118t90 294t-91 296t-241 121zM490 -258q158 0 258 94t100 285v160q-39 -81 -133 -141t-207 -60q-176 0 -295 139t-119 361t119 361q119 140 295 140q117 0 213 -61t133 -160l18 205h74v-918
q0 -247 -120 -371t-319 -124t-357 96l30 74q152 -80 310 -80z" />
    <glyph glyph-name="f_b" horiz-adv-x="1654" 
d="M1116 995q-150 0 -244 -132t-94 -331q0 -198 98 -330t244 -132q145 0 244 134q98 134 98 328t-98 329q-98 134 -248 134zM680 1143q0 141 -56 216t-152 75t-154 -75q-56 -75 -56 -216v-78h227v-76h-227v-989h-98v989h-111v60l111 16v78q0 176 86 274q86 99 221 99
t221 -98t86 -275v-303q48 121 146 181t213 60q188 -1 308 -157t120 -390t-120 -393q-120 -158 -308 -157q-137 0 -231 71q-93 72 -132 178l-14 -233h-80v1143z" />
    <glyph glyph-name="f_f_b" horiz-adv-x="2127" 
d="M1588 995q-150 0 -242 -132q-94 -132 -94 -331q0 -198 98 -330t243 -132t244 134q98 134 98 328t-98 329q-99 134 -249 134zM1153 1159q0 141 -56 216q-57 75 -153 75t-152 -75t-57 -216v-94h228v-76h-228v-989h-98v989h-375v-989h-98v989h-111v60l111 16v137
q0 313 233 314q68 0 127 -19l-20 -74q-45 10 -80 11q-90 0 -126 -58t-36 -172v-139h375v94q0 177 86 275t221 98t221 -98t86 -275v-319q49 121 147 181t212 60q188 -1 308 -157t120 -390t-120 -393q-120 -158 -308 -157q-137 0 -231 71q-93 72 -132 178l-14 -233h-80v1159z
" />
    <glyph glyph-name="f_h" horiz-adv-x="1589" 
d="M680 1143q0 141 -56 216t-152 75t-154 -75q-56 -75 -56 -216v-78h227v-76h-227v-989h-98v989h-111v60l111 16v78q0 176 86 274q86 99 221 99t220 -98t85 -275v-297q29 90 114 163q86 73 234 73t237 -118t89 -335v-629h-96v639q0 166 -71 261t-205 95q-134 1 -218 -115
t-84 -257v-623h-96v1143z" />
    <glyph glyph-name="f_f_h" horiz-adv-x="2060" 
d="M1153 1159q0 141 -56 216q-57 75 -153 75t-152 -75t-57 -216v-94h228v-76h-228v-989h-98v989h-375v-989h-98v989h-111v60l111 16v137q0 313 233 314q68 0 127 -19l-20 -74q-45 10 -80 11q-90 0 -126 -58t-36 -172v-139h375v94q0 177 86 275t221 98t220 -98t85 -275v-313
q29 90 114 163t233 73t238 -118q89 -118 89 -335v-629h-96v639q0 166 -71 261q-70 95 -204 95t-219 -115q-84 -116 -84 -257v-623h-96v1159z" />
    <glyph glyph-name="f_k" horiz-adv-x="1376" 
d="M680 1143q0 141 -56 216t-152 75t-154 -75q-56 -75 -56 -216v-78h227v-76h-227v-989h-98v989h-111v60l111 16v78q0 176 86 274q86 99 221 99t220 -98t85 -275v-486l-2 -194l451 602h108l-362 -479l362 -586h-106l-314 502l-137 -180v-322h-96v1143z" />
    <glyph glyph-name="f_f_k" horiz-adv-x="1851" 
d="M1153 1159q0 141 -56 216q-57 75 -153 75t-152 -75t-57 -216v-94h228v-76h-228v-989h-98v989h-375v-989h-98v989h-111v60l111 16v137q0 313 233 314q68 0 127 -19l-20 -74q-45 10 -80 11q-90 0 -126 -58t-36 -172v-139h375v94q0 177 86 275t221 98t220 -98t85 -275v-502
l-2 -194l451 602h108l-362 -479l362 -586h-106l-314 502l-137 -180v-322h-96v1159z" />
    <glyph glyph-name="dollar.tnum" horiz-adv-x="1202" 
d="M647 -180h-72v162q-188 10 -387 104l39 80q207 -92 371 -92t247 74t83 210q0 135 -104 207q-98 67 -215 107q-118 40 -173 65t-80 42q-93 63 -118 117q-45 96 -45 183q0 168 106 264t276 107v176h72v-178q168 -8 340 -86l-35 -80q-172 78 -324 78t-239 -70
q-86 -70 -86 -205t101 -206q54 -37 103 -59t196 -77q147 -54 190 -92q43 -39 79 -80q66 -75 66 -228t-103 -252t-288 -107v-164z" />
    <glyph glyph-name="percent.tnum" horiz-adv-x="1200" 
d="M928 47q84 0 136 79t52 201q0 123 -52 203t-137 80t-135 -79t-50 -201t50 -203q52 -80 136 -80zM273 823q85 0 137 78q51 78 51 201t-53 204q-54 80 -138 80t-135 -80t-51 -201q0 -122 52 -202t137 -80zM927 676q115 0 187 -99t72 -247t-72 -246q-72 -100 -187 -100
q-116 0 -187 97t-70 247q0 150 70 249q71 99 187 99zM217 0l676 1434h84l-674 -1434h-86zM270 760q-116 0 -186 97t-70 247t70 248t186 98t187 -98t71 -247t-70 -247t-188 -98z" />
    <glyph glyph-name="plus.tnum" horiz-adv-x="1202" 
d="M563 1047h74v-353h332v-76h-332v-352h-74v352h-330v76h330v353z" />
    <glyph glyph-name="hyphen.tnum" horiz-adv-x="1202" 
d="M260 694h682v-73h-682v73z" />
    <glyph glyph-name="zero.tnum" horiz-adv-x="1200" 
d="M600 76q180 0 285 182q104 182 104 458t-104 460q-105 182 -285 182t-284 -180t-105 -459q1 -279 105 -461t284 -182zM601 -16q-224 0 -359 209q-136 209 -136 524t136 524t358 209q223 0 358 -208q136 -208 136 -522t-134 -525t-359 -211z" />
    <glyph glyph-name="one.tnum" horiz-adv-x="1200" 
d="M270 0v82h295v1233l-248 -101l-34 66l303 154h76v-1352h311v-82h-703z" />
    <glyph glyph-name="two.tnum" horiz-adv-x="1200" 
d="M973 1042q0 -266 -291 -544l-385 -410h721v-88h-846v86l455 479q250 260 250 471q-1 144 -93 232t-228 88t-306 -88l-39 75q182 107 355 107t290 -113t117 -295z" />
    <glyph glyph-name="three.tnum" horiz-adv-x="1202" 
d="M568 1450q164 0 275 -93q112 -93 111 -249q0 -123 -72 -215t-186 -121q144 -35 230 -135t86 -244q0 -182 -131 -296q-131 -113 -326 -113t-350 96l31 72q147 -76 302 -76q154 0 264 90t110 242t-114 240q-112 88 -270 87h-92v78h123q115 0 208 77t93 206q0 128 -90 196
t-209 68t-289 -55l-24 75q156 70 320 70z" />
    <glyph glyph-name="four.tnum" horiz-adv-x="1202" 
d="M807 455v813l-574 -813h574zM903 1434v-979h166v-80h-166v-375h-96v375h-680v80l694 979h82z" />
    <glyph glyph-name="five.tnum" horiz-adv-x="1200" 
d="M303 731l-70 35l74 668h651v-88h-581l-60 -527q125 94 294 94q169 1 292 -121t123 -336t-137 -343t-333 -129t-370 102l37 78q162 -88 324 -88q163 0 273 108t110 278q0 171 -104 270t-252 99t-271 -100z" />
    <glyph glyph-name="six.tnum" horiz-adv-x="1202" 
d="M950 457q0 165 -94 273t-232 108t-234 -110t-95 -268q0 -158 94 -275q93 -115 237 -115t234 110t90 277zM676 1362q-176 0 -289 -156t-117 -495l2 -43q42 126 140 192t229 66q168 0 285 -127q116 -127 116 -334t-112 -344t-299 -137q-219 0 -337 184t-118 476t94 526
q50 126 154 203t263 77t300 -84l-35 -76q-152 72 -276 72z" />
    <glyph glyph-name="seven.tnum" horiz-adv-x="1200" 
d="M197 1434h852v-88l-572 -1346h-100l571 1346h-751v88z" />
    <glyph glyph-name="eight.tnum" horiz-adv-x="1200" 
d="M598 1366q-117 0 -197 -74q-79 -74 -79 -201t74 -209t201 -83q128 0 203 82q74 81 74 209t-79 202q-80 74 -197 74zM268 384q0 -138 93 -226t235 -88t238 88q94 88 94 225t-93 230t-239 93t-236 -92q-92 -92 -92 -230zM597 1450q157 0 263 -95t107 -263q1 -123 -63 -212
t-175 -122q133 -37 215 -131t82 -242q0 -182 -127 -292q-127 -109 -301 -109t-300 110t-126 293q0 147 82 243t213 128q-113 33 -174 121t-62 213q1 168 105 263t261 95z" />
    <glyph glyph-name="nine.tnum" horiz-adv-x="1202" 
d="M582 1364q-140 0 -230 -112t-90 -278t87 -272t231 -106t236 110q93 110 93 267t-93 274t-234 117zM561 510q-174 0 -287 126q-112 126 -112 334t113 344q114 136 318 136q205 0 317 -183t112 -501q0 -166 -26 -298t-64 -208q-37 -76 -89 -140q-111 -138 -315 -136
q-166 0 -313 84l37 79q152 -72 274 -71q176 0 288 152t116 491l-2 39q-35 -112 -135 -180t-232 -68z" />
    <glyph glyph-name="equal.tnum" horiz-adv-x="1200" 
d="M274 545h652v-74h-652v74zM274 864h652v-73h-652v73z" />
    <glyph glyph-name="cent.tnum" horiz-adv-x="1200" 
d="M664 -16h-54v170q-194 14 -314 170t-120 376t121 376q121 155 313 171v170h54v-168q137 -6 251 -67l-28 -72l-6 4q-21 7 -41 14q-20 8 -60 22q-40 13 -125 13q-174 0 -275 -137q-101 -138 -101 -326t101 -325t275 -137q108 0 202 40q28 12 30 13l28 -72
q-121 -66 -251 -67v-168z" />
    <glyph glyph-name="sterling.tnum" horiz-adv-x="1200" 
d="M660 1348q-127 0 -201 -87t-74 -237v-307h465v-66h-465v-344q0 -84 -34 -140t-66 -79h714v-88h-815v92q39 31 70 92t31 123v344h-99v66h99v311q0 190 97 306t275 116q80 0 159 -43t136 -113l-67 -59q-98 113 -225 113z" />
    <glyph glyph-name="yen.tnum" horiz-adv-x="1200" 
d="M649 514h236v-53h-236v-125h236v-53h-236v-283h-96v283h-236v53h236v125h-236v53h236v74l-436 846h106l377 -752l377 752h106l-434 -846v-74z" />
    <glyph glyph-name="multiply.tnum" horiz-adv-x="1200" 
d="M600 618l-235 -241l-48 45l238 242l-233 239l47 45l231 -237l231 237l48 -45l-234 -237l238 -244l-47 -45z" />
    <glyph glyph-name="divide.tnum" horiz-adv-x="1200" 
d="M598 258q-28 0 -48 22t-20 53t20 53t49 22q28 0 48 -23q21 -23 21 -53t-20 -52t-50 -22zM217 686h764v-74h-764v74zM528 969q0 33 22 53t50 20t49 -22t21 -52t-20 -52t-51 -22t-51 22q-20 20 -20 53z" />
    <glyph glyph-name="Euro.tnum" horiz-adv-x="1206" 
d="M790 1450q222 0 386 -96l-29 -76q-41 30 -145 57q-103 27 -195 27q-195 0 -334 -136t-178 -356h659l-20 -57h-647q-4 -33 -4 -99t4 -98h579l-18 -57h-553q41 -219 180 -353t327 -134t353 82v-93q-156 -78 -348 -77q-240 0 -411 158t-214 417h-155l20 57h129q-6 48 -6 90
t4 107h-158l19 57h147q41 260 213 420q173 160 395 160z" />
    <glyph glyph-name="agrave.alt" horiz-adv-x="1120" 
d="M534 995q-148 0 -245 -133q-99 -134 -99 -328t100 -329t246 -135t242 131t96 331t-96 332q-96 131 -244 131zM520 1081q266 0 361 -254l16 238h74v-1065h-97v219q-41 -106 -137 -171t-217 -64q-190 0 -311 158t-121 392t122 390t310 157zM420 1460l90 41l121 -301h-70z
" />
    <glyph glyph-name="acircumflex.alt" horiz-adv-x="1120" 
d="M534 995q-148 0 -245 -133q-99 -134 -99 -328t100 -329t246 -135t242 131t96 331t-96 332q-96 131 -244 131zM520 1081q266 0 361 -254l16 238h74v-1065h-97v219q-41 -106 -137 -171t-217 -64q-190 0 -311 158t-121 392t122 390t310 157zM786 1200h-84l-116 166h-2
l-117 -166h-84l164 219h76z" />
    <glyph glyph-name="aacute.alt" horiz-adv-x="1120" 
d="M534 995q-148 0 -245 -133q-99 -134 -99 -328t100 -329t246 -135t242 131t96 331t-96 332q-96 131 -244 131zM520 1081q266 0 361 -254l16 238h74v-1065h-97v219q-41 -106 -137 -171t-217 -64q-190 0 -311 158t-121 392t122 390t310 157zM567 1503l72 -35l-117 -268h-61z
" />
    <glyph glyph-name="adieresis.alt" horiz-adv-x="1120" 
d="M534 995q-148 0 -245 -133q-99 -134 -99 -328t100 -329t246 -135t242 131t96 331t-96 332q-96 131 -244 131zM520 1081q266 0 361 -254l16 238h74v-1065h-97v219q-41 -106 -137 -171t-217 -64q-190 0 -311 158t-121 392t122 390t310 157zM666 1266q0 29 18 48t46 19
t46 -19t18 -48t-18 -47q-18 -19 -47 -19t-46 18t-17 48zM324 1266q0 29 18 48t46 19t46 -19t18 -48t-18 -47q-18 -19 -47 -19t-46 18t-17 48z" />
    <glyph glyph-name="aring.alt" horiz-adv-x="1120" 
d="M534 995q-148 0 -245 -133q-99 -134 -99 -328t100 -329t246 -135t242 131t96 331t-96 332q-96 131 -244 131zM520 1081q266 0 361 -254l16 238h74v-1065h-97v219q-41 -106 -137 -171t-217 -64q-190 0 -311 158t-121 392t122 390t310 157zM571 1262q49 0 74 30t25 74
q0 45 -25 75q-25 29 -74 29t-73 -30t-25 -74q1 -44 25 -74t73 -30zM571 1208q-71 0 -117 44t-46 114t46 114t118 44t117 -44q46 -44 46 -114t-46 -114t-118 -44z" />
    <glyph glyph-name="aogonek.alt" horiz-adv-x="1134" 
d="M534 995q-148 0 -245 -133q-99 -134 -99 -328t100 -329t246 -135t242 131t96 331t-96 332q-96 131 -244 131zM520 1081q266 0 361 -254l16 238h74v-1065q-96 -72 -97 -203q0 -100 82 -100q27 0 50 8l14 -43q-39 -20 -90 -20t-87 41t-36 108q0 127 102 209h-35v219
q-41 -106 -137 -171t-217 -64q-190 0 -311 158t-121 392t122 390t310 157z" />
    <glyph glyph-name="amacron.alt" horiz-adv-x="1120" 
d="M534 995q-148 0 -245 -133q-99 -134 -99 -328t100 -329t246 -135t242 131t96 331t-96 332q-96 131 -244 131zM520 1081q266 0 361 -254l16 238h74v-1065h-97v219q-41 -106 -137 -171t-217 -64q-190 0 -311 158t-121 392t122 390t310 157zM303 1296h508v-67h-508v67z" />
    <glyph glyph-name="atilde.alt" horiz-adv-x="1120" 
d="M534 995q-148 0 -245 -133q-99 -134 -99 -328t100 -329t246 -135t242 131t96 331t-96 332q-96 131 -244 131zM520 1081q266 0 361 -254l16 238h74v-1065h-97v219q-41 -106 -137 -171t-217 -64q-190 0 -311 158t-121 392t122 390t310 157zM463 1352q43 0 111 -40t116 -40
q49 0 94 59l29 -22q-61 -113 -149 -113q-45 0 -113 40t-118 40t-89 -59l-29 22q53 113 148 113z" />
    <glyph glyph-name="abreve.alt" horiz-adv-x="1120" 
d="M534 995q-148 0 -245 -133q-99 -134 -99 -328t100 -329t246 -135t242 131t96 331t-96 332q-96 131 -244 131zM520 1081q266 0 361 -254l16 238h74v-1065h-97v219q-41 -106 -137 -171t-217 -64q-190 0 -311 158t-121 392t122 390t310 157zM560 1208q-100 0 -149 48
q-48 48 -61 153h56q14 -65 47 -99t107 -34t106 34q33 34 47 99h55q-12 -105 -60 -153t-148 -48z" />
    <glyph glyph-name="gbreve.alt" horiz-adv-x="1095" 
d="M526 995q-150 -1 -242 -119t-94 -297q0 -179 91 -296t244 -117t243 118t90 294t-91 296t-241 121zM490 -258q158 0 258 94t100 285v160q-39 -81 -133 -141t-207 -60q-176 0 -295 139t-119 361t119 361q119 140 295 140q117 0 213 -61t133 -160l18 205h74v-918
q0 -247 -120 -371t-319 -124t-357 96l30 74q152 -80 310 -80zM543 1208q-100 0 -149 48q-48 48 -60 153h55q14 -65 47 -99t107 -34q75 0 107 34t46 99h56q-12 -105 -60 -153t-149 -48z" />
    <glyph glyph-name="gcircumflex.alt" horiz-adv-x="1095" 
d="M526 995q-150 -1 -242 -119t-94 -297q0 -179 91 -296t244 -117t243 118t90 294t-91 296t-241 121zM490 -258q158 0 258 94t100 285v160q-39 -81 -133 -141t-207 -60q-176 0 -295 139t-119 361t119 361q119 140 295 140q117 0 213 -61t133 -160l18 205h74v-918
q0 -247 -120 -371t-319 -124t-357 96l30 74q152 -80 310 -80zM424 1200h-84l164 219h76l163 -219h-84l-116 166h-2z" />
    <glyph glyph-name="gcommaaccent.alt" horiz-adv-x="1095" 
d="M526 995q-150 -1 -242 -119t-94 -297q0 -179 91 -296t244 -117t243 118t90 294t-91 296t-241 121zM490 -258q158 0 258 94t100 285v160q-39 -81 -133 -141t-207 -60q-176 0 -295 139t-119 361t119 361q119 140 295 140q117 0 213 -61t133 -160l18 205h74v-918
q0 -247 -120 -371t-319 -124t-357 96l30 74q152 -80 310 -80zM535 1206q-74 0 -74 110t108 179l17 -25q-43 -35 -65 -85t-3 -97q4 18 24 18q41 1 44 -44q0 -24 -16 -40t-35 -16z" />
    <glyph glyph-name="gdotaccent.alt" horiz-adv-x="1095" 
d="M526 995q-150 -1 -242 -119t-94 -297q0 -179 91 -296t244 -117t243 118t90 294t-91 296t-241 121zM490 -258q158 0 258 94t100 285v160q-39 -81 -133 -141t-207 -60q-176 0 -295 139t-119 361t119 361q119 140 295 140q117 0 213 -61t133 -160l18 205h74v-918
q0 -247 -120 -371t-319 -124t-357 96l30 74q152 -80 310 -80zM473 1266q1 29 19 48t46 19t46 -19t18 -48t-18 -47q-18 -19 -47 -19t-47 18t-17 48z" />
    <glyph glyph-name="J.alt" horiz-adv-x="497" 
d="M213 86v1251l-117 23v74h219v-1266q0 -162 -57 -268t-215 -187l-33 68q37 20 76 52q39 33 83 103t44 150z" />
    <glyph glyph-name="Jcircumflex.alt" horiz-adv-x="497" 
d="M213 86v1251l-117 23v74h219v-1266q0 -162 -57 -268t-215 -187l-33 68q37 20 76 52q39 33 83 103t44 150zM111 1518h-84l161 219h76l166 -219h-84l-119 165z" />
    <glyph glyph-name="j.alt" horiz-adv-x="411" 
d="M193 1257q-37 0 -60 25q-23 26 -23 62t23 61t60 25t59 -25t22 -62t-22 -61t-59 -25zM76 1065h184v-1040q0 -283 -184 -373l-33 61q121 70 121 260v1008l-88 20v64z" />
    <glyph glyph-name="jcircumflex.alt" horiz-adv-x="415" 
d="M61 1200h-84l164 219h76l164 -219h-84l-117 166h-2zM80 1065h184v-1040q0 -283 -184 -373l-33 61q121 70 121 260v1008l-88 20v64z" />
    </font>
</defs>
</svg>
