<?xml version="1.0" standalone="no"?>
<!DOCTYPE svg PUBLIC "-//W3C//DTD SVG 1.1//EN" "http://www.w3.org/Graphics/SVG/1.1/DTD/svg11.dtd" >
<svg xmlns="http://www.w3.org/2000/svg">
<metadata>
Created by FontPrep 20130207 at Wed Nov 20 11:16:27 2013
 By MacMini
Copyright (c) 2012 by typedepot. All rights reserved.
</metadata>
<defs>
<font id="e18fd08495e828c3596caed55368e131" horiz-adv-x='1024' >
  <font-face 
    font-family="CentraleSansCndMedium"
    font-weight="500"
    font-stretch="normal"
    units-per-em="2048"
    panose-1="2 0 0 0 0 0 0 0 0 0"
    ascent="1536"
    descent="-512"
    x-height="1065"
    cap-height="1434"
    bbox="-86 -551 2253 1915"
    underline-thickness="102"
    underline-position="-102"
    unicode-range="U+000D-FB04"
  />
<missing-glyph horiz-adv-x="1122" 
d="M262 1159v-1075l225 532zM858 1180l-235 -564l235 -563v1127zM293 1370l260 -612l260 612h-520zM143 1499h840v-1747h-840v1747zM813 -121l-254 598l-262 -598h516z" />
    <glyph glyph-name="f_f" unicode="ff" horiz-adv-x="1116" 
d="M473 1341q-106 0 -106 -165v-111h297v129q0 172 64 259q65 87 220 87q84 0 150 -20l-25 -170q-53 8 -90 8q-109 0 -109 -166v-127h209v-156h-209v-909h-210v909h-297v-909h-211v909h-121v133l121 23v109q0 174 63 260t219 86q65 -1 131 -19l-30 -168q-37 8 -66 8z" />
    <glyph glyph-name="f_i" unicode="fi" horiz-adv-x="1021" 
d="M553 1341q-184 0 -184 -208v-68h528v-1065h-211v909h-317v-909h-211v909h-121v133l121 23v90q0 170 105 267q105 98 263 98t293 -90l-84 -144q-82 55 -182 55z" />
    <glyph glyph-name="f_l" unicode="fl" horiz-adv-x="1060" 
d="M686 1120q0 113 -44 167t-116 54t-116 -54t-43 -167v-55h176v-156h-176v-909h-211v909h-121v133l121 23v55q0 190 102 294t268 106q166 0 268 -104t103 -296v-887q0 -72 55 -71l62 8v-168q-86 -23 -152 -22q-176 0 -176 231v909z" />
    <glyph glyph-name="f_f_i" unicode="ffi" horiz-adv-x="1515" 
d="M475 1341q-106 0 -106 -165v-111h297v115q0 166 103 263t262 97t290 -84l-68 -147q-86 49 -190 49t-145 -60t-41 -145v-88h514v-1065h-211v909h-303v-909h-211v909h-297v-909h-211v909h-121v133l121 23v109q0 174 63 260t219 86q65 -1 131 -19l-30 -168q-37 8 -66 8z" />
    <glyph glyph-name="f_f_l" unicode="ffl" horiz-adv-x="1574" 
d="M1196 1145q0 213 -160 213t-159 -213v-80h176v-156h-176v-909h-211v909h-297v-909h-211v909h-121v133l121 23v109q0 174 63 260t219 86q66 0 131 -19l-30 -168q-37 8 -66 8q-106 0 -106 -165v-111h297v72q0 191 102 295t268 104t268 -103t103 -296v-904q0 -72 55 -71
l62 8v-168q-86 -23 -152 -22q-176 0 -176 231v934z" />
    <glyph glyph-name=".notdef" horiz-adv-x="1122" 
d="M262 1159v-1075l225 532zM858 1180l-235 -564l235 -563v1127zM293 1370l260 -612l260 612h-520zM143 1499h840v-1747h-840v1747zM813 -121l-254 598l-262 -598h516z" />
    <glyph glyph-name=".null" horiz-adv-x="0" 
 />
    <glyph glyph-name=".null" horiz-adv-x="0" 
 />
    <glyph glyph-name="nonmarkingreturn" horiz-adv-x="681" 
 />
    <glyph glyph-name="CR" unicode="&#xd;" horiz-adv-x="524" 
 />
    <glyph glyph-name="space" unicode=" " horiz-adv-x="460" 
 />
    <glyph glyph-name="exclam" unicode="!" horiz-adv-x="516" 
d="M137 109q0 51 36 87t85 36t84 -36t35 -88t-35 -90t-84 -36q-49 0 -85 38t-36 89zM129 1434h258l-43 -1010h-172z" />
    <glyph glyph-name="quotedbl" unicode="&#x22;" horiz-adv-x="770" 
d="M135 1434h227l-94 -560h-133v560zM453 1434h229l-98 -560h-133z" />
    <glyph glyph-name="numbersign" unicode="#" horiz-adv-x="1376" 
d="M561 913l-59 -407h313l59 407h-313zM459 1434h182l-51 -338h313l51 338h183l-52 -338h211l-26 -183h-211l-62 -407h211l-26 -182h-213l-47 -324h-183l49 324h-313l-49 -324h-182l49 324h-215l26 182h215l60 407h-213l27 183h215z" />
    <glyph glyph-name="dollar" unicode="$" horiz-adv-x="1028" 
d="M590 -201h-139v183q-193 14 -351 90l70 178q174 -76 303 -76t193 52q63 52 63 134t-35 128q-35 48 -91 78t-123 57q-174 70 -258 136q-126 99 -126 285t96 287q96 100 259 119v188h139v-188q182 -14 317 -84l-65 -176q-51 29 -139 49q-87 20 -148 21q-119 0 -180 -54
t-61 -136q0 -83 46 -137q47 -54 117 -82q180 -72 305 -148q70 -43 117 -127t47 -201q0 -166 -91 -266t-265 -127v-183z" />
    <glyph glyph-name="percent" unicode="%" horiz-adv-x="1445" 
d="M1108 141q45 0 74 49q28 48 28 134t-28 135q-29 49 -75 49t-74 -48t-27 -134q0 -185 102 -185zM342 924q47 0 75 49t27 135q0 86 -28 134q-29 48 -74 48t-74 -49q-28 -49 -28 -136t28 -134t74 -47zM817 322q0 152 83 250t210 100q127 0 208 -98t81 -248t-83 -248
t-210 -98t-208 95t-81 247zM1182 1434l-695 -1434h-223l701 1434h217zM340 764q-129 0 -209 96t-80 247t82 249t211 98t209 -96t80 -248t-82 -249t-211 -97z" />
    <glyph glyph-name="ampersand" unicode="&#x26;" horiz-adv-x="1171" 
d="M504 1284q-61 0 -96 -39t-35 -103t49 -142q18 -30 61 -87q150 104 150 228q0 67 -34 105t-95 38zM260 416q0 -115 72 -182t182 -66q151 0 227 92l-309 418q-172 -102 -172 -262zM494 1454q135 0 225 -85t90 -222q0 -205 -229 -367l274 -374q12 14 31 86q18 72 18 151h172
q0 -248 -106 -401l178 -242h-223l-82 113q-132 -133 -328 -133t-320 110t-124 303q0 139 67 240q68 100 193 186q-8 14 -63 92t-65 129q-9 50 -9 86q0 131 82 230q84 98 219 98z" />
    <glyph glyph-name="quotesingle" unicode="'" horiz-adv-x="458" 
d="M135 1434h232l-97 -557h-131z" />
    <glyph glyph-name="parenleft" unicode="(" horiz-adv-x="647" 
d="M78 597q0 404 284 727q66 75 134 130l96 -129q-211 -218 -264 -464q-27 -120 -27 -264q0 -293 101 -481q50 -92 92 -146t98 -115l-96 -129q-145 117 -267 316q-68 110 -109 255q-42 145 -42 300z" />
    <glyph glyph-name="parenright" unicode=")" horiz-adv-x="647" 
d="M567 597q0 -415 -282 -740q-65 -76 -133 -131l-97 129q59 61 100 115q198 268 191 628q0 284 -103 473q-50 90 -89 141t-99 113l97 129q143 -116 266 -312q149 -237 149 -545z" />
    <glyph glyph-name="asterisk" unicode="*" horiz-adv-x="765" 
d="M104 1104l197 106l-197 105l68 119l170 -154l-25 260h129l-24 -258l170 152l70 -119l-199 -105l199 -106l-70 -119l-170 154l24 -256h-129l25 256l-170 -154z" />
    <glyph glyph-name="plus" unicode="+" horiz-adv-x="878" 
d="M367 1083h145v-325h270v-150h-270v-327h-145v327h-271v150h271v325z" />
    <glyph glyph-name="comma" unicode="," horiz-adv-x="475" 
d="M202 -20q-34 0 -60 28t-26 75q0 48 34 81q32 33 87 33q55 1 93 -55t37 -130q0 -184 -193 -291l-41 70q117 92 115 209q-12 -20 -46 -20z" />
    <glyph glyph-name="hyphen" unicode="-" horiz-adv-x="880" 
d="M121 762h639v-148h-639v148z" />
    <glyph glyph-name="period" unicode="." horiz-adv-x="438" 
d="M113 89q0 48 30 81q31 33 75 33t76 -33t32 -81t-32 -79q-32 -30 -77 -30t-75 30q-29 31 -29 79z" />
    <glyph glyph-name="slash" unicode="/" horiz-adv-x="866" 
d="M633 1503h176l-578 -1577h-174z" />
    <glyph glyph-name="zero" unicode="0" horiz-adv-x="1234" 
d="M317 716q0 -254 80 -400t220 -146t220 145q79 145 79 399t-81 402t-219 148t-219 -146q-80 -146 -80 -402zM616 -20q-233 0 -377 204q-145 204 -145 532q0 330 146 534t377 204q233 0 377 -204t144 -532t-144 -532q-145 -206 -378 -206z" />
    <glyph glyph-name="one" unicode="1" horiz-adv-x="659" 
d="M498 1434v-1434h-209v1188l-185 -90l-65 147l299 189h160z" />
    <glyph glyph-name="two" unicode="2" horiz-adv-x="1024" 
d="M480 1454q181 0 299 -120t118 -314q0 -150 -71 -272t-210 -269l-286 -301h608v-178h-844v180l414 445q188 213 188 383q0 112 -70 184t-178 72t-278 -70l-78 147q207 113 388 113z" />
    <glyph glyph-name="three" unicode="3" horiz-adv-x="989" 
d="M463 1454q174 0 280 -105t107 -268q0 -229 -217 -325q266 -90 266 -353q0 -190 -126 -307q-126 -116 -328 -116t-363 108l68 154q143 -72 266 -72q124 0 200 69t76 195t-88 188q-88 60 -209 60h-84v160h97q102 0 173 52t71 152t-64 159q-63 58 -175 58t-245 -51l-53 158
q174 84 348 84z" />
    <glyph glyph-name="four" unicode="4" horiz-adv-x="1071" 
d="M643 494v612l-391 -612h391zM854 1434v-940h141v-158h-141v-336h-211v336h-588v151l613 947h186z" />
    <glyph glyph-name="five" unicode="5" horiz-adv-x="1011" 
d="M885 1434v-189h-537l-39 -381q88 70 217 70q176 0 289 -128t113 -342t-134 -349t-340 -135t-372 108l68 154q135 -72 276 -72t218 84t77 216t-66 218t-176 86t-205 -86l-141 76l70 670h682z" />
    <glyph glyph-name="six" unicode="6" horiz-adv-x="1085" 
d="M559 760q-113 0 -179 -88t-67 -214q0 -126 69 -216q70 -90 180 -90t178 88t67 216q1 128 -67 216t-181 88zM621 1274q-167 0 -259 -154t-81 -399q37 101 128 157t197 56q162 0 279 -126t117 -339t-122 -351q-120 -138 -315 -138q-229 0 -349 194t-120 498q0 219 63 408
q36 108 91 189t147 133t209 52q205 0 348 -106l-73 -150q-139 76 -260 76z" />
    <glyph glyph-name="seven" unicode="7" horiz-adv-x="931" 
d="M74 1434h813v-191l-490 -1243h-215l490 1245h-598v189z" />
    <glyph glyph-name="eight" unicode="8" horiz-adv-x="1046" 
d="M522 1278q-88 0 -144 -60t-56 -160t53 -162q53 -64 147 -64t148 62q54 64 53 164q0 100 -56 160q-57 60 -145 60zM281 398q1 -116 71 -182t170 -64q100 0 171 66t71 180q0 116 -67 184t-177 68t-174 -68q-65 -68 -65 -184zM522 1454q166 0 282 -102t116 -275
q0 -121 -62 -205t-156 -114q113 -33 192 -125t79 -238q0 -188 -132 -302q-133 -113 -317 -113t-318 112t-134 305q0 141 79 235t191 126q-92 31 -155 113q-62 83 -62 204q-1 175 115 277t282 102z" />
    <glyph glyph-name="nine" unicode="9" horiz-adv-x="1089" 
d="M522 1282q-112 0 -178 -87q-68 -87 -68 -219t66 -217t181 -85t181 86t66 215t-68 218t-180 89zM463 160q168 0 259 150t81 395q-37 -101 -128 -155t-198 -54q-159 0 -277 128t-118 341t121 351t315 138q229 0 349 -194t120 -498q0 -223 -62 -409q-36 -109 -91 -189
q-56 -80 -148 -132t-209 -52q-205 0 -348 106l74 150q139 -76 260 -76z" />
    <glyph glyph-name="colon" unicode=":" horiz-adv-x="454" 
d="M121 99q0 48 31 81q30 33 74 33t76 -33t32 -81t-31 -79q-31 -30 -77 -30t-76 30t-29 79zM121 821q0 49 31 81q32 32 76 32t75 -32t31 -80t-31 -80t-77 -32t-76 32q-30 30 -29 79z" />
    <glyph glyph-name="semicolon" unicode=";" horiz-adv-x="501" 
d="M246 205q56 0 94 -54t37 -131q0 -182 -191 -288l-41 67q113 82 113 209q-6 -18 -43 -18t-61 26t-25 75q0 48 31 81q30 33 86 33zM141 821q0 49 31 81t75 32t75 -32q30 -32 30 -80t-30 -80t-76 -32q-45 0 -75 32q-30 30 -30 79z" />
    <glyph glyph-name="less" unicode="&#x3c;" horiz-adv-x="745" 
d="M608 1059v-162l-329 -203q246 -154 333 -207v-165l-526 313v119z" />
    <glyph glyph-name="equal" unicode="=" horiz-adv-x="868" 
d="M127 594h612v-150h-612v150zM127 924h612v-150h-612v150z" />
    <glyph glyph-name="greater" unicode="&#x3e;" horiz-adv-x="743" 
d="M137 897v162l520 -305v-119l-524 -313v165l332 207z" />
    <glyph glyph-name="question" unicode="?" horiz-adv-x="862" 
d="M508 106q0 -51 -36 -89q-36 -37 -85 -37t-84 36t-35 89t35 89t84 36t85 -37q36 -36 36 -87zM395 1454q169 0 279 -94t110 -256q0 -84 -32 -155t-79 -118q-46 -47 -92 -90q-112 -105 -112 -198v-121h-176v106q0 196 180 336q115 89 115 224q0 78 -60 128t-139 50
q-121 0 -237 -84l-78 151q152 121 321 121z" />
    <glyph glyph-name="at" unicode="@" horiz-adv-x="1589" 
d="M629 464q1 -74 41 -117q40 -42 113 -42t127 55t55 146v88q-72 14 -150 14t-132 -35t-54 -109zM1217 182q-92 0 -153 42q-60 42 -71 110q-14 -64 -75 -108t-167 -44t-180 71q-73 71 -73 197t83 191q83 66 216 66q80 0 168 -17v72q0 98 -41 134t-130 36t-198 -33l-29 111
q127 45 267 45t202 -70q63 -70 64 -213v-362q0 -57 32 -86t82 -29q164 -1 164 333t-153 508q-154 173 -415 173t-422 -202t-161 -500q-1 -297 147 -493t417 -196q133 0 249 53l50 -114q-150 -78 -308 -78q-317 -1 -504 235q-188 236 -188 596t201 602t521 242t510 -222
t191 -591q0 -217 -72 -338t-224 -121z" />
    <glyph glyph-name="A" unicode="A" horiz-adv-x="1165" 
d="M580 1221l-179 -662h359l-178 662h-2zM446 1444h281l414 -1444h-232l-104 371h-451l-102 -371h-221z" />
    <glyph glyph-name="B" unicode="B" horiz-adv-x="1171" 
d="M373 1235v-420h243q92 0 148 59q55 58 55 150t-48 152t-153 59h-245zM373 199h295q94 0 150 60q56 61 56 157t-57 154t-180 59h-264v-430zM156 1434h485q172 0 282 -108t109 -277q0 -129 -61 -209t-135 -105q98 -23 178 -111t80 -247q0 -161 -106 -269t-261 -108h-571
v1434z" />
    <glyph glyph-name="C" unicode="C" horiz-adv-x="1171" 
d="M743 1454q211 0 365 -113l-80 -167q-137 82 -278 81q-193 1 -318 -153t-125 -385t125 -385t316 -154q66 0 156 26t124 56l80 -172q-154 -109 -367 -108q-285 0 -473 202t-188 534q0 334 188 536t475 202z" />
    <glyph glyph-name="D" unicode="D" horiz-adv-x="1245" 
d="M373 1235v-1036h182q121 0 209 61q174 121 174 457t-174 459q-84 59 -209 59h-182zM596 0h-440v1434h440q166 0 296 -91t199 -263t69 -370t-72 -366q-70 -168 -198 -256t-294 -88z" />
    <glyph glyph-name="E" unicode="E" horiz-adv-x="1122" 
d="M156 1434h864v-199h-647v-440h559v-191h-559v-405h663v-199h-880v1434z" />
    <glyph glyph-name="F" unicode="F" horiz-adv-x="1069" 
d="M156 1434h864v-199h-647v-453h559v-192h-559v-590h-217v1434z" />
    <glyph glyph-name="G" unicode="G" horiz-adv-x="1294" 
d="M743 1454q223 0 402 -119l-82 -170q-43 29 -130 60t-181 30q-205 1 -325 -155t-120 -384t124 -383t319 -155q139 0 241 105v301h-301v176h510v-551q-184 -229 -464 -229t-469 205q-187 206 -187 532q0 325 189 531t474 206z" />
    <glyph glyph-name="H" unicode="H" horiz-adv-x="1320" 
d="M156 1434h217v-617h573v617h217v-1434h-217v600h-573v-600h-217v1434z" />
    <glyph glyph-name="I" unicode="I" horiz-adv-x="530" 
d="M156 1434h219v-1434h-219v1434z" />
    <glyph glyph-name="J" unicode="J" horiz-adv-x="921" 
d="M377 178q94 0 139 62t45 161v1033h217v-979q0 -225 -99 -351q-100 -124 -275 -124t-273 82q-72 61 -125 139l137 123q33 -43 56 -67q23 -23 71 -51t107 -28z" />
    <glyph glyph-name="K" unicode="K" horiz-adv-x="1161" 
d="M156 0v1434h219l-4 -717l4 -2l502 719h249l-450 -643l473 -791h-254l-367 633l-153 -207v-426h-219z" />
    <glyph glyph-name="L" unicode="L" horiz-adv-x="995" 
d="M156 1434h217v-1235h594v-199h-811v1434z" />
    <glyph glyph-name="M" unicode="M" horiz-adv-x="1636" 
d="M1481 1434v-1434h-217v565l18 580h-4l-348 -1053h-221l-349 1053h-4l17 -580v-565h-217v1434h299l362 -1088h4l363 1088h297z" />
    <glyph glyph-name="N" unicode="N" horiz-adv-x="1296" 
d="M156 1434h229l547 -1061h4l-12 600v461h217v-1434h-230l-546 1073h-5l13 -504v-569h-217v1434z" />
    <glyph glyph-name="O" unicode="O" horiz-adv-x="1423" 
d="M307 714q0 -236 109 -386t298 -150t297 150q107 150 107 386t-110 389q-111 153 -294 153t-295 -154q-112 -152 -112 -388zM713 1454q287 0 459 -206t171 -528q1 -322 -167 -532q-168 -208 -463 -208t-463 208t-168 532q0 322 172 528t459 206z" />
    <glyph glyph-name="P" unicode="P" horiz-adv-x="1132" 
d="M373 1235v-496h252q115 0 181 69t66 177t-66 179q-67 71 -177 71h-256zM156 1434h510q182 0 301 -128t119 -318t-118 -318q-118 -127 -298 -127h-297v-543h-217v1434z" />
    <glyph glyph-name="Q" unicode="Q" horiz-adv-x="1423" 
d="M305 717q0 -235 111 -387t298 -152t295 152q107 152 107 388t-110 386q-110 152 -293 152q-184 0 -296 -152q-112 -151 -112 -387zM702 -20q-282 0 -452 210t-170 532q0 320 173 526t460 206t457 -205t171 -524q0 -244 -100 -426t-268 -260v-6q133 -84 354 -129l-49 -183
q-152 37 -290 112t-228 149q-27 -2 -58 -2z" />
    <glyph glyph-name="R" unicode="R" horiz-adv-x="1189" 
d="M377 1235v-457h276q100 0 166 64t66 164t-65 164t-167 65h-276zM160 1434h514q190 0 307 -118t117 -308q0 -293 -256 -396l299 -612h-238l-274 582h-252v-582h-217v1434z" />
    <glyph glyph-name="S" unicode="S" horiz-adv-x="1034" 
d="M500 -20q-207 0 -420 106l70 174q5 -5 36 -17q31 -13 61 -25t97 -28q68 -16 135 -16q137 0 205 57t68 131t-36 119q-56 70 -226 137t-264 141q-58 46 -94 124t-36 178q0 193 123 293t318 100t391 -94l-66 -172q-2 0 -48 20q-112 48 -243 50t-197 -52t-65 -126
q0 -72 36 -117t94 -74t128 -57q169 -67 268 -146q130 -105 130 -309q0 -203 -129 -300t-336 -97z" />
    <glyph glyph-name="T" unicode="T" horiz-adv-x="1032" 
d="M23 1434h989v-193h-383v-1241h-219v1241h-387v193z" />
    <glyph glyph-name="U" unicode="U" horiz-adv-x="1257" 
d="M143 1434h217v-957q0 -135 74 -217t197 -82t195 82t73 217v957h217v-949q0 -225 -130 -365t-359 -140t-357 143q-127 143 -127 362v949z" />
    <glyph glyph-name="V" unicode="V" horiz-adv-x="1165" 
d="M27 1434h231l328 -1168h2l325 1168h226l-422 -1434h-266z" />
    <glyph glyph-name="W" unicode="W" horiz-adv-x="1785" 
d="M770 1434h256l246 -1145l250 1145h223l-336 -1440h-274l-240 1110l-236 -1110h-276l-342 1440h233l250 -1145z" />
    <glyph glyph-name="X" unicode="X" horiz-adv-x="1191" 
d="M1174 0h-254l-326 547h-2l-322 -547h-235l438 717l-455 717h248l338 -543h2l318 543h233l-436 -715z" />
    <glyph glyph-name="Y" unicode="Y" horiz-adv-x="1089" 
d="M647 0h-211v580l-430 854h232l309 -643h2l309 643h219l-430 -854v-580z" />
    <glyph glyph-name="Z" unicode="Z" horiz-adv-x="1081" 
d="M88 1434h924v-150l-662 -1087l2 -4l264 6h390v-199h-947v152l660 1083l-2 4l-258 -4h-371v199z" />
    <glyph glyph-name="bracketleft" unicode="[" horiz-adv-x="561" 
d="M481 1454v-166h-164v-1493h164v-164h-338v1823h338z" />
    <glyph glyph-name="backslash" unicode="\" horiz-adv-x="868" 
d="M637 -74l-578 1577h174l578 -1577h-174z" />
    <glyph glyph-name="bracketright" unicode="]" horiz-adv-x="563" 
d="M80 1288v166h338v-1823h-338v164h164v1493h-164z" />
    <glyph glyph-name="underscore" unicode="_" horiz-adv-x="1034" 
d="M121 -139h794v-152h-794v152z" />
    <glyph glyph-name="grave" unicode="`" horiz-adv-x="581" 
d="M162 1462l147 74l125 -358h-135z" />
    <glyph glyph-name="a" unicode="a" horiz-adv-x="1011" 
d="M655 403v82q-80 14 -161 15q-233 0 -234 -172q0 -84 48 -128t136 -44t150 66q61 66 61 181zM496 1085q371 0 370 -348v-520q0 -49 49 -49q14 0 43 4v-154q-52 -26 -122 -26t-116 33t-46 110q-24 -57 -92 -106t-206 -49t-232 86q-93 86 -93 250t112 252q112 87 290 87
q82 0 202 -14v64q0 119 -48 159t-168 39q-120 0 -259 -45l-39 166q193 61 355 61z" />
    <glyph glyph-name="b" unicode="b" horiz-adv-x="1128" 
d="M594 899q-114 0 -182 -104q-68 -103 -68 -263t68 -262t182 -102t180 102t66 260t-66 264t-180 105zM127 1499h211v-606q47 98 129 145t176 47q186 1 300 -163t114 -394t-117 -389q-117 -160 -307 -159q-111 0 -191 55t-114 149l-21 -184h-180v1499z" />
    <glyph glyph-name="c" unicode="c" horiz-adv-x="899" 
d="M561 -20q-215 0 -353 156t-138 396q0 238 139 396t352 157q160 0 281 -77l-66 -158q-80 47 -174 47q-152 0 -234 -106q-82 -105 -81 -257q0 -152 83 -260t232 -106q102 0 174 47l66 -158q-129 -77 -281 -77z" />
    <glyph glyph-name="d" unicode="d" horiz-adv-x="1124" 
d="M533 897q-113 0 -179 -103q-66 -102 -66 -262t66 -262t180 -102t182 102t68 261t-69 263t-182 103zM788 1499h211v-1499h-180l-20 186q-35 -94 -115 -150t-190 -56q-190 0 -307 158q-115 159 -115 391t112 395q113 162 310 161q84 0 168 -49t126 -143v606z" />
    <glyph glyph-name="e" unicode="e" horiz-adv-x="1005" 
d="M530 905q-102 0 -168 -81t-73 -214h452q4 113 -53 204q-56 91 -158 91zM555 -20q-217 0 -351 156t-134 396q0 242 125 398t321 156t310 -144q114 -143 114 -358q0 -78 -8 -125h-641q8 -135 90 -213t205 -78t254 63l55 -165q-156 -86 -340 -86z" />
    <glyph glyph-name="f" unicode="f" horiz-adv-x="612" 
d="M498 1341q-123 0 -123 -172v-104h207v-156h-207v-909h-211v909h-121v133l121 23v78q0 188 60 282t222 95q92 -1 162 -17l-33 -168q-18 6 -77 6z" />
    <glyph glyph-name="g" unicode="g" horiz-adv-x="952" 
d="M555 59h-86q-102 0 -158 17q-51 -43 -51 -127t79 -105q61 -16 136 -16q221 0 221 125q0 106 -141 106zM471 920q-76 0 -123 -52t-47 -143v-2q0 -99 45 -155t125 -56t125 55t45 156v2q0 91 -47 143t-123 52zM100 726q0 153 100 256t271 103q39 0 156 -20h270v-150
l-129 -12q74 -63 74 -203t-104 -241q-104 -100 -267 -101q-94 0 -166 41q-47 -35 -47 -78t21 -69q25 -31 161 -31h119q174 0 247 -77t73 -195q0 -297 -394 -297q-193 0 -303 70q-43 28 -73 81q-31 53 -31 123q0 121 106 205q-90 51 -90 167t99 179q-93 96 -93 249z" />
    <glyph glyph-name="h" unicode="h" horiz-adv-x="1060" 
d="M338 0h-211v1499h211v-588q25 59 96 117q72 57 201 57q129 1 220 -107t91 -333v-645h-211v655q0 117 -50 179t-142 63q-93 0 -149 -76t-56 -188v-633z" />
    <glyph glyph-name="i" unicode="i" horiz-adv-x="493" 
d="M66 1065h303v-1065h-211v893l-92 22v150zM246 1223q-55 0 -91 39t-36 94t36 94t91 39t91 -39t36 -94t-36 -94t-91 -39z" />
    <glyph glyph-name="j" unicode="j" horiz-adv-x="499" 
d="M253 1477q50 0 86 -37t36 -88t-36 -88t-86 -37t-85 36t-35 88t35 89t85 37zM80 -172q86 0 86 145v920l-92 22v150h303v-1053q0 -360 -264 -360q-80 0 -148 29l33 157q41 -10 82 -10z" />
    <glyph glyph-name="k" unicode="k" horiz-adv-x="929" 
d="M127 1499h211v-919l348 485h221l-352 -485l342 -580h-217l-244 424l-98 -127v-297h-211v1499z" />
    <glyph glyph-name="l" unicode="l" horiz-adv-x="514" 
d="M135 1499h211v-1266q0 -72 55 -71l62 8v-168q-86 -23 -152 -22q-176 0 -176 231v1288z" />
    <glyph glyph-name="m" unicode="m" horiz-adv-x="1591" 
d="M127 1065h168l33 -164q31 78 100 131q70 53 163 53t162 -52t95 -150q31 80 108 141q78 61 191 61q147 0 237 -102t91 -307v-676h-211v684q0 94 -44 154t-131 59q-87 0 -133 -68t-47 -170v-659h-211v690q0 90 -46 148t-132 59q-86 0 -134 -69t-48 -169v-659h-211v1065z
" />
    <glyph glyph-name="n" unicode="n" horiz-adv-x="1062" 
d="M127 1065h168l37 -170q16 55 91 123t208 68t224 -108t91 -333v-645h-211v655q0 117 -49 179t-142 63q-94 0 -150 -81t-56 -193v-623h-211v1065z" />
    <glyph glyph-name="o" unicode="o" horiz-adv-x="1085" 
d="M543 897q-125 0 -192 -102q-67 -103 -67 -263t68 -262t191 -102t191 102t67 262t-67 262t-191 103zM543 1085q213 -1 344 -155t131 -398t-131 -398t-344 -154t-344 154t-131 398t131 398t344 155z" />
    <glyph glyph-name="p" unicode="p" horiz-adv-x="1120" 
d="M583 897q-112 0 -180 -103q-67 -102 -67 -262t68 -262t180 -102t180 104t67 260q0 156 -68 260t-180 105zM625 1085q186 -1 305 -163t119 -386t-109 -390q-109 -167 -307 -166q-113 0 -192 52t-109 136v-516h-205v1413h162l30 -180q41 92 121 146q81 54 185 54z" />
    <glyph glyph-name="q" unicode="q" horiz-adv-x="1116" 
d="M535 168q111 0 179 102t68 261t-67 263t-179 103q-112 0 -181 -104q-69 -105 -69 -261t70 -260q68 -104 179 -104zM494 1085q104 0 184 -54t121 -146l30 180h162v-1413h-205v516q-32 -84 -110 -136t-191 -52q-199 0 -307 166t-108 390q0 223 118 387q120 162 306 162z
" />
    <glyph glyph-name="r" unicode="r" horiz-adv-x="651" 
d="M127 1065h166l29 -209q18 78 86 146t198 69v-194q-268 0 -268 -310v-567h-211v1065z" />
    <glyph glyph-name="s" unicode="s" horiz-adv-x="835" 
d="M414 -20q-162 0 -338 86l55 159q154 -70 266 -69q170 0 170 131q0 70 -64 107q-38 23 -136 65q-293 113 -293 321q0 152 101 229t251 77t309 -76l-55 -158q-115 57 -231 57q-166 0 -166 -125q0 -66 56 -98t127 -58q123 -44 216 -118q94 -74 93 -225q-1 -149 -100 -227
t-261 -78z" />
    <glyph glyph-name="t" unicode="t" horiz-adv-x="655" 
d="M160 297v612h-123v135l123 17l35 311h176v-307h217v-156h-217v-610q1 -80 25 -112t81 -31q14 0 109 20l8 -160q-96 -37 -186 -36q-137 0 -193 75q-55 76 -55 242z" />
    <glyph glyph-name="u" unicode="u" horiz-adv-x="1064" 
d="M119 1065h211v-649q0 -248 184 -248q109 0 160 76t51 190v631h213v-1065h-168l-35 156q-82 -176 -299 -176q-133 0 -225 94t-92 313v678z" />
    <glyph glyph-name="v" unicode="v" horiz-adv-x="985" 
d="M47 1065h213l240 -834l231 834h207l-326 -1065h-237z" />
    <glyph glyph-name="w" unicode="w" horiz-adv-x="1501" 
d="M645 1065h207l192 -782l205 782h201l-281 -1065h-245l-174 727l-170 -727h-248l-281 1065h205l205 -784z" />
    <glyph glyph-name="x" unicode="x" horiz-adv-x="948" 
d="M604 528l318 -528h-234l-219 389l-221 -389h-215l313 526l-317 539h227l225 -391l221 391h213z" />
    <glyph glyph-name="y" unicode="y" horiz-adv-x="997" 
d="M47 1065h221l238 -803l223 803h221l-436 -1413h-225l100 328z" />
    <glyph glyph-name="z" unicode="z" horiz-adv-x="894" 
d="M86 1065h735v-150l-497 -735v-6l245 4h252v-178h-762v154l500 731v6l-260 -4h-213v178z" />
    <glyph glyph-name="braceleft" unicode="{" horiz-adv-x="598" 
d="M340 -63q0 -86 24 -115t87 -29h69v-162h-49q-105 0 -167 22t-91 74t-37 107t-8 156v377q0 109 -100 108v135q100 0 100 111v371q0 206 57 284t246 78h49v-162h-69q-71 0 -91 -34t-20 -136v-420q-1 -132 -107 -161q106 -20 107 -160v-444z" />
    <glyph glyph-name="bar" unicode="|" horiz-adv-x="458" 
d="M143 1622h172v-1941h-172v1941z" />
    <glyph glyph-name="braceright" unicode="}" horiz-adv-x="598" 
d="M258 1122q0 102 -20 136t-91 34h-69v162h49q187 0 245 -79t58 -283v-371q0 -111 100 -111v-135q-100 0 -100 -108v-377q0 -100 -8 -156t-37 -107q-29 -52 -91 -74t-167 -22h-49v162h69q63 0 87 29t24 115v444q1 140 107 160q-106 29 -107 161v420z" />
    <glyph glyph-name="exclamdown" unicode="&#xa1;" horiz-adv-x="489" 
d="M362 958q0 -51 -36 -87q-36 -35 -84 -35q-49 0 -84 36t-35 87t35 89t84 38t85 -38q35 -39 35 -90zM371 -367h-258l43 1010h172z" />
    <glyph glyph-name="cent" unicode="&#xa2;" horiz-adv-x="964" 
d="M598 -20h-96v174q-190 24 -305 174t-115 374t115 374q115 151 305 173v168h96v-164q127 -6 252 -73l-57 -156q-98 49 -201 49q-141 -1 -213 -109t-72 -266t75 -262t214 -104q100 0 207 53l51 -158q-133 -74 -256 -80v-167z" />
    <glyph glyph-name="sterling" unicode="&#xa3;" horiz-adv-x="1021" 
d="M590 1257q-86 1 -131 -67t-45 -178v-264h385v-125h-385v-222q0 -162 -95 -217h599v-184h-834v182q4 2 12 5t28 19q71 60 73 181v236h-84v125h84v251q0 197 100 326q99 129 287 129t307 -164l-139 -127q-76 94 -162 94z" />
    <glyph glyph-name="yen" unicode="&#xa5;" horiz-adv-x="1179" 
d="M694 518h201v-100h-201v-103h201v-100h-201v-215h-211v215h-200v100h200v103h-200v100h200v62l-430 854h226l309 -652h2l309 652h225l-430 -854v-62z" />
    <glyph glyph-name="section" unicode="&#xa7;" horiz-adv-x="1052" 
d="M274 594q0 -64 48 -110t106 -68q59 -22 141 -52t125 -59q84 89 84 179t-67 138q-68 48 -187 88t-166 70q-84 -88 -84 -186zM715 -8q0 78 -65 127q-66 49 -156 79t-182 64t-156 110q-64 75 -64 189q0 176 135 297q-127 88 -127 245t115 244t313 87t385 -99l-59 -155
q-154 63 -307 63q-209 0 -209 -149q0 -78 64 -127t156 -79q91 -30 182 -65t156 -109t65 -182q-1 -108 -45 -188t-91 -117q127 -89 127 -245t-114 -243t-313 -87q-200 0 -386 98l60 156q150 -63 307 -64q209 0 209 150z" />
    <glyph glyph-name="dieresis" unicode="&#xa8;" horiz-adv-x="913" 
d="M551 1331q0 45 32 77q31 32 75 32t75 -31t31 -77t-31 -76t-77 -30t-76 30t-29 75zM152 1331q0 45 30 77q31 32 76 32t75 -31q29 -31 29 -77t-30 -76t-75 -30q-46 0 -76 30q-29 30 -29 75z" />
    <glyph glyph-name="copyright" unicode="&#xa9;" horiz-adv-x="1398" 
d="M699 1339q-213 0 -365 -182t-152 -439t152 -439q152 -183 366 -183t365 182q152 182 152 440q0 257 -153 439t-365 182zM700 1434q252 0 429 -209t177 -505t-178 -508q-180 -212 -430 -212t-428 212t-178 508t178 505t430 209zM539 721q0 -102 52 -174t127 -72t132 55
l80 -92q-88 -98 -223 -98t-232 110q-96 110 -96 272t97 272q96 110 230 110t224 -100l-80 -89q-59 51 -133 51t-126 -71q-52 -72 -52 -174z" />
    <glyph glyph-name="ordfeminine" unicode="&#xaa;" horiz-adv-x="856" 
d="M373 829q67 -1 109 49t42 119v80q-53 12 -108 13q-182 0 -183 -127q0 -59 37 -97t103 -37zM106 610h639v-121h-639v121zM413 1499q119 0 187 -58t68 -198v-360q0 -39 30 -39q6 0 31 4v-113q-29 -18 -82 -18q-109 0 -108 112q-13 -41 -59 -77t-142 -35q-96 -1 -164 65
t-68 180t84 167q84 54 213 55q61 0 121 -13v35q0 90 -34 127t-112 37t-183 -35l-33 117q131 47 251 47z" />
    <glyph glyph-name="guillemotleft" unicode="&#xab;" horiz-adv-x="1095" 
d="M426 1036l106 -112l-243 -392l243 -393l-106 -110l-360 479v49zM1001 139l-110 -110l-350 477v53l350 477l113 -112l-242 -392z" />
    <glyph glyph-name="registered" unicode="&#xae;" horiz-adv-x="1024" 
d="M434 1155v-154h105q27 0 45 22q18 23 18 57t-20 54t-47 21h-101zM365 1219h176q57 0 93 -40t36 -102q0 -104 -82 -131l98 -203h-78l-92 195h-82v-195h-69v476zM512 1356q-141 0 -226 -111t-85 -273t85 -269t226 -107t228 109t87 269t-87 272q-87 110 -228 110zM512 1434
q174 0 283 -131t109 -326t-110 -328t-282 -133t-281 132t-109 328t108 327t282 131z" />
    <glyph glyph-name="macron" unicode="&#xaf;" horiz-adv-x="819" 
d="M143 1356h537v-131h-537v131z" />
    <glyph glyph-name="degree" unicode="&#xb0;" horiz-adv-x="573" 
d="M186 1260q0 -49 31 -81t70 -32t69 32t29 82q0 49 -30 81q-31 32 -69 32t-69 -32t-31 -82zM287 1053q-75 1 -129 59t-54 149t54 148t130 57q75 0 127 -56t52 -148t-52 -150t-128 -59z" />
    <glyph glyph-name="plusminus" unicode="&#xb1;" horiz-adv-x="915" 
d="M123 225h674v-145h-674v145zM389 1083h141v-286h267v-138h-267v-286h-141v286h-268v138h268v286z" />
    <glyph glyph-name="acute" unicode="&#xb4;" horiz-adv-x="579" 
d="M266 1550l148 -73l-138 -285h-135z" />
    <glyph glyph-name="mu" unicode="&#xb5;" horiz-adv-x="1085" 
d="M350 -348h-209v1413h209v-621q0 -276 208 -276t208 276v621h207v-1065h-156l-33 123q-66 -143 -226 -143t-208 122v-450z" />
    <glyph glyph-name="paragraph" unicode="&#xb6;" horiz-adv-x="1071" 
d="M905 -176h-153v1448h-158v-1448h-158v739h-39q-157 2 -243 125q-86 122 -86 320t108 312q109 114 252 114h477v-1610z" />
    <glyph glyph-name="periodcentered" unicode="&#xb7;" horiz-adv-x="516" 
d="M111 617q0 65 43 113t103 48t104 -47q45 -47 45 -113t-44 -114t-105 -47q-60 0 -103 48t-43 112z" />
    <glyph glyph-name="cedilla" unicode="&#xb8;" horiz-adv-x="557" 
d="M299 -125q57 0 100 -34q43 -33 43 -109t-55 -113t-131 -37t-143 23l18 80q57 -14 92 -15q82 0 82 66t-69 65l-46 -4l-34 41l43 139h100l-23 -104q14 2 23 2z" />
    <glyph glyph-name="ordmasculine" unicode="&#xba;" horiz-adv-x="940" 
d="M156 610h622v-121h-622v121zM668 1110q0 116 -54 188t-148 72t-148 -73t-54 -187t53 -188q53 -72 149 -72t148 72q54 72 54 188zM113 1110q0 166 96 278t256 112t257 -112t97 -278t-97 -278t-257 -111q-160 -1 -256 111t-96 278z" />
    <glyph glyph-name="guillemotright" unicode="&#xbb;" horiz-adv-x="1099" 
d="M563 924l107 112l360 -479v-49l-360 -479l-107 110l244 393zM205 29l-111 110l240 393l-242 392l113 112l350 -477v-53z" />
    <glyph glyph-name="questiondown" unicode="&#xbf;" horiz-adv-x="854" 
d="M352 936q0 51 36 89t85 38t84 -37t35 -89t-35 -88t-84 -36t-85 36t-36 87zM466 -412q-169 0 -280 94t-110 257q0 85 33 155t78 117q46 47 93 90q111 104 111 199v121h176v-107q0 -196 -180 -336q-115 -89 -115 -224q0 -79 60 -128t139 -49q121 0 238 84l77 -152
q-151 -121 -320 -121z" />
    <glyph glyph-name="Agrave" unicode="&#xc0;" horiz-adv-x="1165" 
d="M580 1221l-179 -662h359l-178 662h-2zM446 1444h281l414 -1444h-232l-104 371h-451l-102 -371h-221zM381 1815l147 73l125 -358h-135z" />
    <glyph glyph-name="Aacute" unicode="&#xc1;" horiz-adv-x="1165" 
d="M580 1221l-179 -662h359l-178 662h-2zM446 1444h281l414 -1444h-232l-104 371h-451l-102 -371h-221zM662 1888l147 -73l-137 -285h-135z" />
    <glyph glyph-name="Acircumflex" unicode="&#xc2;" horiz-adv-x="1165" 
d="M580 1221l-179 -662h359l-178 662h-2zM446 1444h281l414 -1444h-232l-104 371h-451l-102 -371h-221zM455 1540h-144l199 272h160l198 -272h-143l-135 186z" />
    <glyph glyph-name="Atilde" unicode="&#xc3;" horiz-adv-x="1165" 
d="M580 1221l-179 -662h359l-178 662h-2zM446 1444h281l414 -1444h-232l-104 371h-451l-102 -371h-221zM720 1679q44 0 91 70l55 -45q-76 -160 -188 -160q-53 0 -120 43t-113 43t-91 -67l-57 49q80 156 190 155q49 0 119 -44t114 -44z" />
    <glyph glyph-name="Adieresis" unicode="&#xc4;" horiz-adv-x="1167" 
d="M580 1221l-179 -662h359l-178 662h-2zM446 1444h281l414 -1444h-232l-104 371h-451l-102 -371h-221zM281 1649q1 45 31 77t75 31q45 0 75 -31q30 -30 30 -76t-30 -76t-76 -30t-76 30q-29 30 -29 75zM680 1649q0 45 32 77t76 31q44 0 74 -31q31 -30 31 -76t-31 -76
t-77 -30q-45 0 -75 30t-30 75z" />
    <glyph glyph-name="Aring" unicode="&#xc5;" horiz-adv-x="1165" 
d="M580 1221l-179 -662h359l-178 662h-2zM446 1444h281l414 -1444h-232l-104 371h-451l-102 -371h-221zM487 1720q0 -48 28 -76t71 -28q42 0 70 28t28 76t-28 77q-28 28 -70 28t-71 -28q-28 -28 -28 -77zM401 1720q1 82 55 133t130 51t130 -50q54 -52 54 -134t-54 -133
t-130 -51t-130 51t-55 133z" />
    <glyph glyph-name="AE" unicode="&#xc6;" horiz-adv-x="1726" 
d="M764 1235h-66l-249 -676h315v676zM1628 1434v-199h-647v-440h559v-191h-559v-405h664v-199h-881v371h-387l-144 -371h-231l580 1434h1046z" />
    <glyph glyph-name="Ccedilla" unicode="&#xc7;" horiz-adv-x="1169" 
d="M743 1454q211 0 365 -113l-80 -167q-137 82 -278 81q-193 1 -318 -153t-125 -385t125 -385t316 -154q66 0 156 26t124 56l80 -172q-139 -100 -340 -108l-25 -107q14 2 23 2q57 0 100 -34q43 -33 43 -109t-55 -113t-131 -37t-143 23l18 80q57 -14 92 -15q82 0 82 66
t-70 65l-45 -4l-34 41l43 146q-258 28 -422 226t-164 518t188 524q188 202 475 202z" />
    <glyph glyph-name="Egrave" unicode="&#xc8;" horiz-adv-x="1120" 
d="M156 1434h864v-199h-647v-440h559v-191h-559v-405h663v-199h-880v1434zM412 1815l147 73l125 -358h-135z" />
    <glyph glyph-name="Eacute" unicode="&#xc9;" horiz-adv-x="1120" 
d="M156 1434h864v-199h-647v-440h559v-191h-559v-405h663v-199h-880v1434zM616 1886l148 -74l-137 -284h-135z" />
    <glyph glyph-name="Ecircumflex" unicode="&#xca;" horiz-adv-x="1120" 
d="M156 1434h864v-199h-647v-440h559v-191h-559v-405h663v-199h-880v1434zM463 1530h-144l199 272h160l199 -272h-144l-135 186z" />
    <glyph glyph-name="Edieresis" unicode="&#xcb;" horiz-adv-x="1120" 
d="M156 1434h864v-199h-647v-440h559v-191h-559v-405h663v-199h-880v1434zM287 1649q1 45 31 77t75 31q45 0 75 -31q30 -30 30 -76t-30 -76t-76 -30t-76 30q-29 30 -29 75zM686 1649q0 45 32 77t76 31q44 0 74 -31q30 -30 31 -76q0 -46 -31 -76q-30 -30 -76 -30t-76 30
t-30 75z" />
    <glyph glyph-name="Igrave" unicode="&#xcc;" horiz-adv-x="552" 
d="M178 1434h219v-1434h-219v1434zM84 1815l147 73l125 -358h-135z" />
    <glyph glyph-name="Iacute" unicode="&#xcd;" horiz-adv-x="550" 
d="M156 1434h219v-1434h-219v1434zM328 1888l147 -73l-137 -285h-135z" />
    <glyph glyph-name="Icircumflex" unicode="&#xce;" horiz-adv-x="532" 
d="M156 1434h219v-1434h-219v1434zM131 1530h-143l198 272h160l199 -272h-144l-135 186z" />
    <glyph glyph-name="Idieresis" unicode="&#xcf;" horiz-adv-x="536" 
d="M160 1434h219v-1434h-219v1434zM362 1649q0 45 32 77t75 31q43 0 75 -31q32 -30 32 -76t-32 -76t-77 -30t-75 30t-30 75zM-37 1649q0 45 31 77t76 31q44 0 74 -31q30 -30 30 -76t-31 -76t-75 -30t-75 30q-30 30 -30 75z" />
    <glyph glyph-name="Eth" unicode="&#xd0;" horiz-adv-x="1253" 
d="M383 1235v-457h229v-110h-229v-469h182q121 0 209 61q174 121 174 457t-174 459q-84 59 -209 59h-182zM606 0h-440v668h-152v110h152v656h440q166 0 296 -91t199 -263t69 -370t-72 -366q-70 -168 -198 -256t-294 -88z" />
    <glyph glyph-name="Ntilde" unicode="&#xd1;" horiz-adv-x="1296" 
d="M156 1434h229l547 -1061h4l-12 600v461h217v-1434h-230l-546 1073h-5l13 -504v-569h-217v1434zM790 1679q44 0 91 70l55 -45q-76 -160 -188 -160q-53 0 -120 43t-113 43t-91 -67l-57 49q80 156 190 155q49 0 119 -44t114 -44z" />
    <glyph glyph-name="Ograve" unicode="&#xd2;" horiz-adv-x="1423" 
d="M307 714q0 -236 109 -386t298 -150t297 150q107 150 107 386t-110 389q-111 153 -294 153t-295 -154q-112 -152 -112 -388zM713 1454q287 0 459 -206t171 -528q1 -322 -167 -532q-168 -208 -463 -208t-463 208t-168 532q0 322 172 528t459 206zM584 1815l147 73l125 -358
h-135z" />
    <glyph glyph-name="Oacute" unicode="&#xd3;" horiz-adv-x="1423" 
d="M307 714q0 -236 109 -386t298 -150t297 150q107 150 107 386t-110 389q-111 153 -294 153t-295 -154q-112 -152 -112 -388zM713 1454q287 0 459 -206t171 -528q1 -322 -167 -532q-168 -208 -463 -208t-463 208t-168 532q0 322 172 528t459 206zM717 1888l147 -73
l-137 -285h-135z" />
    <glyph glyph-name="Ocircumflex" unicode="&#xd4;" horiz-adv-x="1423" 
d="M307 714q0 -236 109 -386t298 -150t297 150q107 150 107 386t-110 389q-111 153 -294 153t-295 -154q-112 -152 -112 -388zM713 1454q287 0 459 -206t171 -528q1 -322 -167 -532q-168 -208 -463 -208t-463 208t-168 532q0 322 172 528t459 206zM575 1530h-143l199 272
h160l198 -272h-143l-135 186z" />
    <glyph glyph-name="Otilde" unicode="&#xd5;" horiz-adv-x="1423" 
d="M307 714q0 -236 109 -386t298 -150t297 150q107 150 107 386t-110 389q-111 153 -294 153t-295 -154q-112 -152 -112 -388zM713 1454q287 0 459 -206t171 -528q1 -322 -167 -532q-168 -208 -463 -208t-463 208t-168 532q0 322 172 528t459 206zM866 1679q44 0 90 70
l56 -45q-76 -160 -189 -160q-53 0 -120 43t-113 43t-90 -67l-58 49q80 156 191 155q49 0 119 -44t114 -44z" />
    <glyph glyph-name="Odieresis" unicode="&#xd6;" horiz-adv-x="1423" 
d="M307 714q0 -236 109 -386t298 -150t297 150q107 150 107 386t-110 389q-111 153 -294 153t-295 -154q-112 -152 -112 -388zM713 1454q287 0 459 -206t171 -528q1 -322 -167 -532q-168 -208 -463 -208t-463 208t-168 532q0 322 172 528t459 206zM809 1649q0 45 32 77
q33 32 75 31q42 0 74 -31q32 -30 32 -76t-32 -76t-77 -30t-75 30t-29 75zM410 1649q0 45 30 77t75 31q44 0 75 -31q31 -30 31 -76t-31 -76t-76 -30t-75 30q-29 30 -29 75z" />
    <glyph glyph-name="multiply" unicode="&#xd7;" horiz-adv-x="798" 
d="M209 967l192 -222l193 222l88 -80l-201 -234l199 -229l-92 -78l-187 215l-188 -215l-90 78l199 229l-203 234z" />
    <glyph glyph-name="Oslash" unicode="&#xd8;" horiz-adv-x="1423" 
d="M713 178q189 0 297 150t108 378q0 230 -100 381l-481 -868q78 -41 176 -41zM713 1255q-182 -1 -294 -153t-112 -390t111 -388l485 876q-88 55 -190 55zM82 719q0 323 172 529t459 206q162 0 291 -70l63 113h178l-115 -205q213 -207 213 -573q1 -322 -167 -531t-463 -208
q-154 0 -277 59l-61 -111h-176l108 199q-225 203 -225 592z" />
    <glyph glyph-name="Ugrave" unicode="&#xd9;" horiz-adv-x="1257" 
d="M143 1434h217v-957q0 -135 74 -217t197 -82t195 82t73 217v957h217v-949q0 -225 -130 -365t-359 -140t-357 143q-127 143 -127 362v949zM489 1815l148 73l125 -358h-135z" />
    <glyph glyph-name="Uacute" unicode="&#xda;" horiz-adv-x="1257" 
d="M143 1434h217v-957q0 -135 74 -217t197 -82t195 82t73 217v957h217v-949q0 -225 -130 -365t-359 -140t-357 143q-127 143 -127 362v949zM666 1888l147 -73l-137 -285h-135z" />
    <glyph glyph-name="Ucircumflex" unicode="&#xdb;" horiz-adv-x="1257" 
d="M143 1434h217v-957q0 -135 74 -217t197 -82t195 82t73 217v957h217v-949q0 -225 -130 -365t-359 -140t-357 143q-127 143 -127 362v949zM494 1530h-144l199 272h160l198 -272h-143l-135 186z" />
    <glyph glyph-name="Udieresis" unicode="&#xdc;" horiz-adv-x="1257" 
d="M143 1434h217v-957q0 -135 74 -217t197 -82t195 82t73 217v957h217v-949q0 -225 -130 -365t-359 -140t-357 143q-127 143 -127 362v949zM727 1649q0 45 32 77q33 32 75 31q42 0 74 -31q32 -30 32 -76t-32 -76t-77 -30t-75 30t-29 75zM328 1649q0 45 30 77t75 31
q44 0 74 -31q30 -32 30 -78t-30 -75t-75 -29t-75 30q-29 30 -29 75z" />
    <glyph glyph-name="Yacute" unicode="&#xdd;" horiz-adv-x="1089" 
d="M647 0h-211v580l-430 854h232l309 -643h2l309 643h219l-430 -854v-580zM586 1888l147 -73l-137 -285h-135z" />
    <glyph glyph-name="Thorn" unicode="&#xde;" horiz-adv-x="1134" 
d="M373 965v-486h282q104 0 161 68q56 69 56 179t-54 174t-159 65h-286zM156 1434h217v-258h334q174 0 276 -127t102 -321t-101 -322t-273 -130h-338v-276h-217v1434z" />
    <glyph glyph-name="germandbls" unicode="&#xdf;" horiz-adv-x="1083" 
d="M514 1454q194 0 286 -103t93 -259q0 -94 -46 -203t-46 -156q1 -47 25 -86t59 -72t69 -69q85 -90 85 -240q-1 -150 -104 -232t-241 -81q-138 0 -241 43l36 164q84 -31 159 -31t127 43t52 118q0 126 -116 210q-43 31 -80 85t-37 121t50 173t50 183t-38 139q-38 63 -126 63
t-140 -69t-52 -206v-989h-211v981q0 207 96 340q97 133 291 133z" />
    <glyph glyph-name="agrave" unicode="&#xe0;" horiz-adv-x="1011" 
d="M655 403v82q-80 14 -161 15q-233 0 -234 -172q0 -84 48 -128t136 -44t150 66q61 66 61 181zM496 1085q371 0 370 -348v-520q0 -49 49 -49q14 0 43 4v-154q-52 -26 -122 -26t-116 33t-46 110q-24 -57 -92 -106t-206 -49t-232 86q-93 86 -93 250t112 252q112 87 290 87
q82 0 202 -14v64q0 119 -48 159t-168 39q-120 0 -259 -45l-39 166q193 61 355 61zM354 1491l148 74l125 -359h-135z" />
    <glyph glyph-name="aacute" unicode="&#xe1;" horiz-adv-x="1011" 
d="M655 403v82q-80 14 -161 15q-233 0 -234 -172q0 -84 48 -128t136 -44t150 66q61 66 61 181zM496 1085q371 0 370 -348v-520q0 -49 49 -49q14 0 43 4v-154q-52 -26 -122 -26t-116 33t-46 110q-24 -57 -92 -106t-206 -49t-232 86q-93 86 -93 250t112 252q112 87 290 87
q82 0 202 -14v64q0 119 -48 159t-168 39q-120 0 -259 -45l-39 166q193 61 355 61zM539 1565l147 -74l-137 -285h-135z" />
    <glyph glyph-name="acircumflex" unicode="&#xe2;" horiz-adv-x="1011" 
d="M655 403v82q-80 14 -161 15q-233 0 -234 -172q0 -84 48 -128t136 -44t150 66q61 66 61 181zM496 1085q371 0 370 -348v-520q0 -49 49 -49q14 0 43 4v-154q-52 -26 -122 -26t-116 33t-46 110q-24 -57 -92 -106t-206 -49t-232 86q-93 86 -93 250t112 252q112 87 290 87
q82 0 202 -14v64q0 119 -48 159t-168 39q-120 0 -259 -45l-39 166q193 61 355 61zM373 1206h-144l199 273h160l198 -273h-143l-135 187z" />
    <glyph glyph-name="atilde" unicode="&#xe3;" horiz-adv-x="1011" 
d="M655 403v82q-80 14 -161 15q-233 0 -234 -172q0 -84 48 -128t136 -44t150 66q61 66 61 181zM496 1085q371 0 370 -348v-520q0 -49 49 -49q14 0 43 4v-154q-52 -26 -122 -26t-116 33t-46 110q-24 -57 -92 -106t-206 -49t-232 86q-93 86 -93 250t112 252q112 87 290 87
q82 0 202 -14v64q0 119 -48 159t-168 39q-120 0 -259 -45l-39 166q193 61 355 61zM416 1444q49 0 119 -44q69 -44 113 -44t91 69l56 -45q-76 -160 -189 -159q-53 0 -120 43q-66 43 -112 43t-91 -68l-58 49q80 156 191 156z" />
    <glyph glyph-name="adieresis" unicode="&#xe4;" horiz-adv-x="1011" 
d="M655 403v82q-80 14 -161 15q-233 0 -234 -172q0 -84 48 -128t136 -44t150 66q61 66 61 181zM496 1085q371 0 370 -348v-520q0 -49 49 -49q14 0 43 4v-154q-52 -26 -122 -26t-116 33t-46 110q-24 -57 -92 -106t-206 -49t-232 86q-93 86 -93 250t112 252q112 87 290 87
q82 0 202 -14v64q0 119 -48 159t-168 39q-120 0 -259 -45l-39 166q193 61 355 61zM314 1212q-46 0 -76 30t-29 76q0 46 31 77q32 31 76 31t74 -30t30 -77t-30 -77t-76 -30zM608 1318q0 46 32 77t76 31t75 -30t31 -77t-32 -77q-30 -30 -76 -30t-76 30t-30 76z" />
    <glyph glyph-name="aring" unicode="&#xe5;" horiz-adv-x="1011" 
d="M655 403v82q-80 14 -161 15q-233 0 -234 -172q0 -84 48 -128t136 -44t150 66q61 66 61 181zM496 1085q371 0 370 -348v-520q0 -49 49 -49q14 0 43 4v-154q-52 -26 -122 -26t-116 33t-46 110q-24 -57 -92 -106t-206 -49t-232 86q-93 86 -93 250t112 252q112 87 290 87
q82 0 202 -14v64q0 119 -48 159t-168 39q-120 0 -259 -45l-39 166q193 61 355 61zM446 1391q0 -49 28 -77t71 -28t71 28t27 77q0 49 -28 77q-29 28 -71 27q-42 1 -70 -27t-28 -77zM360 1391q0 82 54 133t131 51q76 0 130 -51t54 -133q0 -81 -54 -133t-130 -52q-77 0 -131 52
t-54 133z" />
    <glyph glyph-name="ae" unicode="&#xe6;" horiz-adv-x="1570" 
d="M1163 903q-109 0 -181 -79t-81 -214h481q4 113 -53 203t-166 90zM434 156q195 0 273 170q-29 76 -29 161q-86 12 -186 13q-231 0 -232 -178q0 -82 48 -124t126 -42zM494 1085q254 0 350 -139q134 139 322 139t302 -143t113 -358q0 -78 -8 -125h-670q8 -137 96 -214
q87 -77 217 -77t265 65l55 -167q-156 -86 -348 -86q-279 0 -414 210q-125 -211 -381 -210q-156 0 -249 85t-93 251t112 252q112 87 288 87q121 0 229 -14q4 31 16 70v2q0 115 -55 153t-189 37q-134 0 -272 -45l-39 166q193 61 353 61z" />
    <glyph glyph-name="ccedilla" unicode="&#xe7;" horiz-adv-x="901" 
d="M561 -20h-8l-23 -107q14 2 23 2q57 0 100 -34q43 -33 43 -109t-55 -113t-131 -37t-143 23l18 80q57 -14 92 -15q82 0 82 66t-70 65l-45 -4l-34 41l45 154q-174 37 -280 185q-105 148 -105 371q0 222 139 380t352 157q160 0 281 -77l-66 -158q-80 47 -174 47
q-152 0 -234 -106q-82 -105 -81 -257q0 -152 83 -260t232 -106q102 0 174 47l66 -158q-129 -77 -281 -77z" />
    <glyph glyph-name="egrave" unicode="&#xe8;" horiz-adv-x="1005" 
d="M530 905q-102 0 -168 -81t-73 -214h452q4 113 -53 204q-56 91 -158 91zM555 -20q-217 0 -351 156t-134 396q0 242 125 398t321 156t310 -144q114 -143 114 -358q0 -78 -8 -125h-641q8 -135 90 -213t205 -78t254 63l55 -165q-156 -86 -340 -86zM381 1491l147 74l125 -359
h-135z" />
    <glyph glyph-name="eacute" unicode="&#xe9;" horiz-adv-x="1005" 
d="M530 905q-102 0 -168 -81t-73 -214h452q4 113 -53 204q-56 91 -158 91zM555 -20q-217 0 -351 156t-134 396q0 242 125 398t321 156t310 -144q114 -143 114 -358q0 -78 -8 -125h-641q8 -135 90 -213t205 -78t254 63l55 -165q-156 -86 -340 -86zM530 1565l148 -74
l-137 -285h-135z" />
    <glyph glyph-name="ecircumflex" unicode="&#xea;" horiz-adv-x="1005" 
d="M530 905q-102 0 -168 -81t-73 -214h452q4 113 -53 204q-56 91 -158 91zM555 -20q-217 0 -351 156t-134 396q0 242 125 398t321 156t310 -144q114 -143 114 -358q0 -78 -8 -125h-641q8 -135 90 -213t205 -78t254 63l55 -165q-156 -86 -340 -86zM397 1206h-143l199 273h159
l199 -273h-143l-136 187z" />
    <glyph glyph-name="edieresis" unicode="&#xeb;" horiz-adv-x="1005" 
d="M530 905q-102 0 -168 -81t-73 -214h452q4 113 -53 204q-56 91 -158 91zM555 -20q-217 0 -351 156t-134 396q0 242 125 398t321 156t310 -144q114 -143 114 -358q0 -78 -8 -125h-641q8 -135 90 -213t205 -78t254 63l55 -165q-156 -86 -340 -86zM231 1318q0 46 31 77t76 31
t75 -30q29 -30 29 -77t-30 -77t-76 -30q-45 0 -75 30t-30 76zM631 1318q0 46 32 77q31 31 75 31t75 -30t31 -77t-31 -77t-77 -30t-76 30q-29 30 -29 76z" />
    <glyph glyph-name="igrave" unicode="&#xec;" horiz-adv-x="491" 
d="M63 1065h304v-1065h-211v893l-93 22v150zM43 1491l147 74l125 -359h-135z" />
    <glyph glyph-name="iacute" unicode="&#xed;" horiz-adv-x="493" 
d="M66 1065h303v-1065h-211v893l-92 22v150zM301 1565l148 -74l-138 -285h-135z" />
    <glyph glyph-name="icircumflex" unicode="&#xee;" horiz-adv-x="491" 
d="M63 1065h304v-1065h-211v893l-93 22v150zM94 1206h-143l199 273h159l199 -273h-143l-136 187z" />
    <glyph glyph-name="idieresis" unicode="&#xef;" horiz-adv-x="489" 
d="M61 1065h304v-1065h-211v893l-93 22v150zM313 1318q0 46 31 77t75 31t75 -30q30 -30 30 -77t-30 -77t-77 -30q-46 0 -75 30t-29 76zM17 1212q-47 0 -75 30t-28 76t30 77t74 31t75 -30q30 -30 30 -77t-30 -77t-76 -30z" />
    <glyph glyph-name="eth" unicode="&#xf0;" horiz-adv-x="993" 
d="M480 801q-102 0 -158 -91q-56 -92 -56 -222t56 -225t160 -95q103 0 166 95q62 95 62 229t-63 221q-65 88 -167 88zM924 586q0 -279 -125 -441q-125 -161 -319 -161t-303 142t-109 366t113 357q114 132 290 132q98 0 171 -54t103 -122q-23 151 -75 271t-113 186l-147 -125
l-64 73l141 123q-66 72 -204 144l57 106q150 -63 254 -160l151 133l66 -75l-145 -127q258 -272 258 -768z" />
    <glyph glyph-name="ntilde" unicode="&#xf1;" horiz-adv-x="1062" 
d="M127 1065h168l37 -170q16 55 91 123t208 68t224 -108t91 -333v-645h-211v655q0 117 -49 179t-142 63q-94 0 -150 -81t-56 -193v-623h-211v1065zM442 1444q49 0 119 -44t114 -44t91 69l55 -45q-76 -160 -188 -159q-53 0 -120 43t-113 43t-91 -68l-57 49q80 156 190 156z
" />
    <glyph glyph-name="ograve" unicode="&#xf2;" horiz-adv-x="1085" 
d="M543 897q-125 0 -192 -102q-67 -103 -67 -263t68 -262t191 -102t191 102t67 262t-67 262t-191 103zM543 1085q213 -1 344 -155t131 -398t-131 -398t-344 -154t-344 154t-131 398t131 398t344 155zM397 1491l148 74l125 -359h-135z" />
    <glyph glyph-name="oacute" unicode="&#xf3;" horiz-adv-x="1085" 
d="M543 897q-125 0 -192 -102q-67 -103 -67 -263t68 -262t191 -102t191 102t67 262t-67 262t-191 103zM543 1085q213 -1 344 -155t131 -398t-131 -398t-344 -154t-344 154t-131 398t131 398t344 155zM535 1565l147 -74l-137 -285h-135z" />
    <glyph glyph-name="ocircumflex" unicode="&#xf4;" horiz-adv-x="1085" 
d="M543 897q-125 0 -192 -102q-67 -103 -67 -263t68 -262t191 -102t191 102t67 262t-67 262t-191 103zM543 1085q213 -1 344 -155t131 -398t-131 -398t-344 -154t-344 154t-131 398t131 398t344 155zM410 1204h-144l199 273h160l198 -273h-143l-135 187z" />
    <glyph glyph-name="otilde" unicode="&#xf5;" horiz-adv-x="1085" 
d="M543 897q-125 0 -192 -102q-67 -103 -67 -263t68 -262t191 -102t191 102t67 262t-67 262t-191 103zM543 1085q213 -1 344 -155t131 -398t-131 -398t-344 -154t-344 154t-131 398t131 398t344 155zM449 1444q49 0 119 -44t113 -44q44 0 91 69l55 -45q-76 -160 -188 -159
q-53 0 -120 43t-113 43t-91 -68l-57 49q80 156 191 156z" />
    <glyph glyph-name="odieresis" unicode="&#xf6;" horiz-adv-x="1085" 
d="M543 897q-125 0 -192 -102q-67 -103 -67 -263t68 -262t191 -102t191 102t67 262t-67 262t-191 103zM543 1085q213 -1 344 -155t131 -398t-131 -398t-344 -154t-344 154t-131 398t131 398t344 155zM240 1318q0 46 30 77q31 31 76 31t75 -30t30 -77t-31 -77t-76 -30t-75 30
q-29 30 -29 76zM743 1212q-45 0 -75 30t-29 76q0 46 32 77q33 31 75 31t74 -30t32 -77t-32 -77t-77 -30z" />
    <glyph glyph-name="divide" unicode="&#xf7;" horiz-adv-x="1009" 
d="M401 322q0 48 31 80t74 32t75 -34q31 -34 31 -78t-32 -79q-32 -34 -75 -34q-44 0 -74 33t-30 80zM111 737h790v-143h-790v143zM506 1126q43 0 76 -32q32 -32 32 -81q0 -48 -32 -81t-77 -33q-44 0 -74 34t-30 82q0 47 31 79t74 32z" />
    <glyph glyph-name="oslash" unicode="&#xf8;" horiz-adv-x="1085" 
d="M543 897q-125 0 -192 -102t-67 -253t52 -245l317 571q-47 29 -110 29zM543 168q123 0 191 102t67 252q0 150 -53 248l-320 -573q51 -29 115 -29zM543 1085q115 0 205 -47l59 107h149l-100 -180q162 -157 162 -417t-131 -414t-344 -154q-115 0 -209 47l-60 -107h-147
l100 182q-159 154 -159 414t131 414t344 155z" />
    <glyph glyph-name="ugrave" unicode="&#xf9;" horiz-adv-x="1064" 
d="M119 1065h211v-649q0 -248 184 -248q109 0 160 76t51 190v631h213v-1065h-168l-35 156q-82 -176 -299 -176q-133 0 -225 94t-92 313v678zM362 1491l148 74l125 -359h-135z" />
    <glyph glyph-name="uacute" unicode="&#xfa;" horiz-adv-x="1064" 
d="M119 1065h211v-649q0 -248 184 -248q109 0 160 76t51 190v631h213v-1065h-168l-35 156q-82 -176 -299 -176q-133 0 -225 94t-92 313v678zM561 1565l148 -74l-138 -285h-135z" />
    <glyph glyph-name="ucircumflex" unicode="&#xfb;" horiz-adv-x="1064" 
d="M119 1065h211v-649q0 -248 184 -248q109 0 160 76t51 190v631h213v-1065h-168l-35 156q-82 -176 -299 -176q-133 0 -225 94t-92 313v678zM412 1206h-144l199 273h160l198 -273h-143l-135 187z" />
    <glyph glyph-name="udieresis" unicode="&#xfc;" horiz-adv-x="1064" 
d="M119 1065h211v-649q0 -248 184 -248q109 0 160 76t51 190v631h213v-1065h-168l-35 156q-82 -176 -299 -176q-133 0 -225 94t-92 313v678zM623 1318q0 46 31 77q32 31 75 31t75 -30t32 -77t-32 -77t-77 -30t-75 30q-29 30 -29 76zM223 1318q0 46 30 77t75 31q46 0 76 -30
t30 -77t-31 -77t-75 -30t-75 30q-30 30 -30 76z" />
    <glyph glyph-name="yacute" unicode="&#xfd;" horiz-adv-x="997" 
d="M47 1065h221l238 -803l223 803h221l-436 -1413h-225l100 328zM535 1565l147 -74l-137 -285h-135z" />
    <glyph glyph-name="thorn" unicode="&#xfe;" horiz-adv-x="1120" 
d="M584 897q-111 0 -180 -106q-68 -107 -68 -265t68 -258t180 -100t180 102t68 259t-69 263q-68 106 -179 105zM618 1085q196 -1 313 -165q118 -164 118 -394t-112 -389q-112 -158 -308 -157q-111 0 -189 51t-108 135v-514h-205v1782h205v-523q90 174 286 174z" />
    <glyph glyph-name="ydieresis" unicode="&#xff;" horiz-adv-x="997" 
d="M47 1065h221l238 -803l223 803h221l-436 -1413h-225l100 328zM190 1318q0 46 31 77t76 31t75 -30t30 -77t-32 -77q-30 -30 -75 -30t-75 30t-30 76zM694 1212q-44 0 -74 30t-30 76t32 77t74 31t75 -30q32 -30 32 -77t-32 -77t-77 -30z" />
    <glyph glyph-name="Amacron" unicode="&#x100;" horiz-adv-x="1165" 
d="M580 1221l-179 -662h359l-178 662h-2zM446 1444h281l414 -1444h-232l-104 371h-451l-102 -371h-221zM315 1698h537v-131h-537v131z" />
    <glyph glyph-name="amacron" unicode="&#x101;" horiz-adv-x="1011" 
d="M655 403v82q-80 14 -161 15q-233 0 -234 -172q0 -84 48 -128t136 -44t150 66q61 66 61 181zM496 1085q371 0 370 -348v-520q0 -49 49 -49q14 0 43 4v-154q-52 -26 -122 -26t-116 33t-46 110q-24 -57 -92 -106t-206 -49t-232 86q-93 86 -93 250t112 252q112 87 290 87
q82 0 202 -14v64q0 119 -48 159t-168 39q-120 0 -259 -45l-39 166q193 61 355 61zM236 1370h536v-131h-536v131z" />
    <glyph glyph-name="Abreve" unicode="&#x102;" horiz-adv-x="1165" 
d="M580 1221l-179 -662h359l-178 662h-2zM446 1444h281l414 -1444h-232l-104 371h-451l-102 -371h-221zM582 1540q-225 0 -242 250h102q10 -133 140 -133t139 133h102q-16 -250 -241 -250z" />
    <glyph glyph-name="abreve" unicode="&#x103;" horiz-adv-x="1011" 
d="M655 403v82q-80 14 -161 15q-233 0 -234 -172q0 -84 48 -128t136 -44t150 66q61 66 61 181zM496 1085q371 0 370 -348v-520q0 -49 49 -49q14 0 43 4v-154q-52 -26 -122 -26t-116 33t-46 110q-24 -57 -92 -106t-206 -49t-232 86q-93 86 -93 250t112 252q112 87 290 87
q82 0 202 -14v64q0 119 -48 159t-168 39q-120 0 -259 -45l-39 166q193 61 355 61zM512 1313q129 0 139 133h103q-16 -250 -242 -250t-242 250h103q10 -133 139 -133z" />
    <glyph glyph-name="Aogonek" unicode="&#x104;" horiz-adv-x="1153" 
d="M578 1221l-179 -662h359l-178 662h-2zM1087 -272q29 0 52 8l18 -74q-45 -29 -113 -29q-68 -1 -110 49q-41 50 -41 121q0 121 94 197h-80l-104 371h-451l-102 -371h-221l415 1444h281l414 -1444q-61 -23 -95 -76t-34 -108q0 -88 77 -88z" />
    <glyph glyph-name="aogonek" unicode="&#x105;" horiz-adv-x="1011" 
d="M655 403v82q-80 14 -161 15q-233 0 -234 -172q0 -84 48 -128t136 -44t150 66q61 66 61 181zM496 1085q371 0 370 -348v-520q0 -49 49 -49q14 0 43 4v-154q-37 -18 -102 -26q-86 -49 -86 -172q0 -92 78 -92q29 0 51 8l19 -74q-45 -29 -114 -29q-69 1 -110 51t-41 123
q0 119 101 199q-80 33 -80 129q-24 -57 -92 -106t-206 -49t-232 86q-93 86 -93 250t112 252q112 87 290 87q82 0 202 -14v64q0 119 -48 159t-168 39q-120 0 -259 -45l-39 166q193 61 355 61z" />
    <glyph glyph-name="Cacute" unicode="&#x106;" horiz-adv-x="1171" 
d="M743 1454q211 0 365 -113l-80 -167q-137 82 -278 81q-193 1 -318 -153t-125 -385t125 -385t316 -154q66 0 156 26t124 56l80 -172q-154 -109 -367 -108q-285 0 -473 202t-188 534q0 334 188 536t475 202zM750 1888l147 -73l-137 -285h-135z" />
    <glyph glyph-name="cacute" unicode="&#x107;" horiz-adv-x="899" 
d="M561 -20q-215 0 -353 156t-138 396q0 238 139 396t352 157q160 0 281 -77l-66 -158q-80 47 -174 47q-152 0 -234 -106q-82 -105 -81 -257q0 -152 83 -260t232 -106q102 0 174 47l66 -158q-129 -77 -281 -77zM586 1565l147 -74l-137 -285h-135z" />
    <glyph glyph-name="Ccircumflex" unicode="&#x108;" horiz-adv-x="1171" 
d="M743 1454q211 0 365 -113l-80 -167q-137 82 -278 81q-193 1 -318 -153t-125 -385t125 -385t316 -154q66 0 156 26t124 56l80 -172q-154 -109 -367 -108q-285 0 -473 202t-188 534q0 334 188 536t475 202zM606 1530h-143l199 272h159l199 -272h-143l-136 186z" />
    <glyph glyph-name="ccircumflex" unicode="&#x109;" horiz-adv-x="899" 
d="M561 -20q-215 0 -353 156t-138 396q0 238 139 396t352 157q160 0 281 -77l-66 -158q-80 47 -174 47q-152 0 -234 -106q-82 -105 -81 -257q0 -152 83 -260t232 -106q102 0 174 47l66 -158q-129 -77 -281 -77zM424 1206h-143l198 273h160l199 -273h-144l-135 187z" />
    <glyph glyph-name="Cdotaccent" unicode="&#x10a;" horiz-adv-x="1171" 
d="M743 1454q211 0 365 -113l-80 -167q-137 82 -278 81q-193 1 -318 -153t-125 -385t125 -385t316 -154q66 0 156 26t124 56l80 -172q-154 -109 -367 -108q-285 0 -473 202t-188 534q0 334 188 536t475 202zM616 1647q0 45 31 77t75 31q44 0 74 -31q30 -30 30 -76t-30 -77
t-75 -31t-75 31t-30 76z" />
    <glyph glyph-name="cdotaccent" unicode="&#x10b;" horiz-adv-x="899" 
d="M561 -20q-215 0 -353 156t-138 396q0 238 139 396t352 157q160 0 281 -77l-66 -158q-80 47 -174 47q-152 0 -234 -106q-82 -105 -81 -257q0 -152 83 -260t232 -106q102 0 174 47l66 -158q-129 -77 -281 -77zM455 1319q0 45 30 77q31 32 75 32t74 -32q30 -30 30 -76
t-30 -78t-75 -32t-75 32q-29 32 -29 77z" />
    <glyph glyph-name="Ccaron" unicode="&#x10c;" horiz-adv-x="1171" 
d="M743 1454q211 0 365 -113l-80 -167q-137 82 -278 81q-193 1 -318 -153t-125 -385t125 -385t316 -154q66 0 156 26t124 56l80 -172q-154 -109 -367 -108q-285 0 -473 202t-188 534q0 334 188 536t475 202zM467 1802h143l135 -186l129 186h146l-207 -272h-147z" />
    <glyph glyph-name="ccaron" unicode="&#x10d;" horiz-adv-x="899" 
d="M561 -20q-215 0 -353 156t-138 396q0 238 139 396t352 157q160 0 281 -77l-66 -158q-80 47 -174 47q-152 0 -234 -106q-82 -105 -81 -257q0 -152 83 -260t232 -106q102 0 174 47l66 -158q-129 -77 -281 -77zM276 1479h144l135 -187l129 187h145l-206 -273h-148z" />
    <glyph glyph-name="Dcaron" unicode="&#x10e;" horiz-adv-x="1245" 
d="M373 1235v-1036h182q121 0 209 61q174 121 174 457t-174 459q-84 59 -209 59h-182zM596 0h-440v1434h440q166 0 296 -91t199 -263t69 -370t-72 -366q-70 -168 -198 -256t-294 -88zM311 1802h144l135 -186l129 186h145l-207 -272h-147z" />
    <glyph glyph-name="dcaron" unicode="&#x10f;" horiz-adv-x="1216" 
d="M533 897q-113 0 -179 -103q-66 -102 -66 -262t66 -262t180 -102t182 102t68 261t-69 263t-182 103zM788 1499h211v-1499h-180l-20 186q-35 -94 -115 -150t-190 -56q-190 0 -307 158q-115 159 -115 391t112 395q113 162 310 161q84 0 168 -49t126 -143v606zM1204 1499h164
q0 -102 -38 -216t-83 -171l-98 41q55 131 55 346z" />
    <glyph glyph-name="Dcroat" unicode="&#x110;" horiz-adv-x="1251" 
d="M379 1235v-453h229v-118h-229v-465h182q123 0 209 61q174 121 174 457t-174 459q-84 59 -209 59h-182zM602 0h-440v664h-152v118h152v652h440q166 0 296 -91t199 -263t69 -370t-72 -366q-70 -168 -198 -256t-294 -88z" />
    <glyph glyph-name="dcroat" unicode="&#x111;" horiz-adv-x="1120" 
d="M533 897q-113 0 -179 -103q-66 -102 -66 -262t66 -262t180 -102t182 102t68 261t-69 263t-182 103zM788 1499h211v-186h113v-78h-113v-1235h-180l-20 186q-35 -94 -115 -150t-190 -56q-190 0 -307 158q-115 159 -115 391t112 395q113 162 310 161q84 0 168 -49t126 -143
v342h-235v78h235v186z" />
    <glyph glyph-name="Emacron" unicode="&#x112;" horiz-adv-x="1120" 
d="M156 1434h864v-199h-647v-440h559v-191h-559v-405h663v-199h-880v1434zM326 1698h536v-131h-536v131z" />
    <glyph glyph-name="emacron" unicode="&#x113;" horiz-adv-x="1005" 
d="M530 905q-102 0 -168 -81t-73 -214h452q4 113 -53 204q-56 91 -158 91zM555 -20q-217 0 -351 156t-134 396q0 242 125 398t321 156t310 -144q114 -143 114 -358q0 -78 -8 -125h-641q8 -135 90 -213t205 -78t254 63l55 -165q-156 -86 -340 -86zM260 1370h537v-131h-537
v131z" />
    <glyph glyph-name="Ebreve" unicode="&#x114;" horiz-adv-x="1120" 
d="M156 1434h864v-199h-647v-440h559v-191h-559v-405h663v-199h-880v1434zM588 1540q-225 0 -242 250h103q10 -133 139 -133t139 133h102q-16 -250 -241 -250z" />
    <glyph glyph-name="ebreve" unicode="&#x115;" horiz-adv-x="1005" 
d="M530 905q-102 0 -168 -81t-73 -214h452q4 113 -53 204q-56 91 -158 91zM555 -20q-217 0 -351 156t-134 396q0 242 125 398t321 156t310 -144q114 -143 114 -358q0 -78 -8 -125h-641q8 -135 90 -213t205 -78t254 63l55 -165q-156 -86 -340 -86zM522 1313q129 0 140 133
h102q-16 -250 -242 -250t-241 250h102q10 -133 139 -133z" />
    <glyph glyph-name="Edotaccent" unicode="&#x116;" horiz-adv-x="1120" 
d="M156 1434h864v-199h-647v-440h559v-191h-559v-405h663v-199h-880v1434zM479 1647q0 45 30 77t74 31q45 0 75 -32q30 -33 30 -77t-31 -75t-75 -31t-73 31q-30 31 -30 76z" />
    <glyph glyph-name="edotaccent" unicode="&#x117;" horiz-adv-x="1005" 
d="M530 905q-102 0 -168 -81t-73 -214h452q4 113 -53 204q-56 91 -158 91zM555 -20q-217 0 -351 156t-134 396q0 242 125 398t321 156t310 -144q114 -143 114 -358q0 -78 -8 -125h-641q8 -135 90 -213t205 -78t254 63l55 -165q-156 -86 -340 -86zM432 1319q0 45 31 77t75 32
t74 -32t31 -77q0 -45 -31 -77q-32 -32 -76 -32t-74 32t-30 77z" />
    <glyph glyph-name="Eogonek" unicode="&#x118;" horiz-adv-x="1120" 
d="M156 1434h864v-199h-647v-440h559v-191h-559v-405h663v-199h-43q-61 -18 -91 -72t-30 -106q0 -94 80 -94q27 0 49 8l19 -74q-45 -29 -116 -29q-70 -1 -110 49t-40 123q0 111 92 195h-690v1434z" />
    <glyph glyph-name="eogonek" unicode="&#x119;" horiz-adv-x="1009" 
d="M532 905q-102 0 -168 -81t-73 -214h452q4 113 -53 204q-56 91 -158 91zM557 -20q-217 0 -351 156t-134 396q0 242 125 398t321 156t310 -144q114 -143 114 -358q0 -78 -8 -125h-641q8 -135 90 -213t205 -78t254 63l55 -165q-59 -33 -137 -56q-45 -29 -68 -83t-22 -105
q0 -94 80 -94q27 0 49 8l18 -76q-49 -25 -111 -25t-108 44q-45 44 -45 133t63 172q-41 -4 -59 -4z" />
    <glyph glyph-name="Ecaron" unicode="&#x11a;" horiz-adv-x="1120" 
d="M156 1434h864v-199h-647v-440h559v-191h-559v-405h663v-199h-880v1434zM326 1802h143l135 -186l129 186h146l-207 -272h-148z" />
    <glyph glyph-name="ecaron" unicode="&#x11b;" horiz-adv-x="1005" 
d="M530 905q-102 0 -168 -81t-73 -214h452q4 113 -53 204q-56 91 -158 91zM555 -20q-217 0 -351 156t-134 396q0 242 125 398t321 156t310 -144q114 -143 114 -358q0 -78 -8 -125h-641q8 -135 90 -213t205 -78t254 63l55 -165q-156 -86 -340 -86zM258 1477h143l136 -187
l129 187h145l-207 -273h-147z" />
    <glyph glyph-name="Gcircumflex" unicode="&#x11c;" horiz-adv-x="1292" 
d="M743 1454q223 0 402 -119l-82 -170q-43 29 -130 60t-181 30q-205 1 -325 -155t-120 -384t124 -383t319 -155q139 0 241 105v301h-301v176h510v-551q-184 -229 -464 -229t-469 205q-187 206 -187 532q0 325 189 531t474 206zM604 1530h-143l198 272h160l199 -272h-144
l-135 186z" />
    <glyph glyph-name="gcircumflex" unicode="&#x11d;" horiz-adv-x="952" 
d="M555 59h-86q-102 0 -158 17q-51 -43 -51 -127t79 -105q61 -16 136 -16q221 0 221 125q0 106 -141 106zM471 920q-76 0 -123 -52t-47 -143v-2q0 -99 45 -155t125 -56t125 55t45 156v2q0 91 -47 143t-123 52zM100 726q0 153 100 256t271 103q39 0 156 -20h270v-150
l-129 -12q74 -63 74 -203t-104 -241q-104 -100 -267 -101q-94 0 -166 41q-47 -35 -47 -78t21 -69q25 -31 161 -31h119q174 0 247 -77t73 -195q0 -297 -394 -297q-193 0 -303 70q-43 28 -73 81q-31 53 -31 123q0 121 106 205q-90 51 -90 167t99 179q-93 96 -93 249zM352 1206
h-143l199 273h159l199 -273h-143l-136 187z" />
    <glyph glyph-name="Gbreve" unicode="&#x11e;" horiz-adv-x="1292" 
d="M743 1454q223 0 402 -119l-82 -170q-43 29 -130 60t-181 30q-205 1 -325 -155t-120 -384t124 -383t319 -155q139 0 241 105v301h-301v176h510v-551q-184 -229 -464 -229t-469 205q-187 206 -187 532q0 325 189 531t474 206zM734 1540q-226 0 -242 250h102
q10 -133 139 -133t139 133h103q-15 -250 -241 -250z" />
    <glyph glyph-name="gbreve" unicode="&#x11f;" horiz-adv-x="952" 
d="M555 59h-86q-102 0 -158 17q-51 -43 -51 -127t79 -105q61 -16 136 -16q221 0 221 125q0 106 -141 106zM471 920q-76 0 -123 -52t-47 -143v-2q0 -99 45 -155t125 -56t125 55t45 156v2q0 91 -47 143t-123 52zM100 726q0 153 100 256t271 103q39 0 156 -20h270v-150
l-129 -12q74 -63 74 -203t-104 -241q-104 -100 -267 -101q-94 0 -166 41q-47 -35 -47 -78t21 -69q25 -31 161 -31h119q174 0 247 -77t73 -195q0 -297 -394 -297q-193 0 -303 70q-43 28 -73 81q-31 53 -31 123q0 121 106 205q-90 51 -90 167t99 179q-93 96 -93 249zM489 1313
q129 0 140 133h102q-15 -250 -241 -250t-242 250h102q10 -133 139 -133z" />
    <glyph glyph-name="Gdotaccent" unicode="&#x120;" horiz-adv-x="1292" 
d="M743 1454q223 0 402 -119l-82 -170q-43 29 -130 60t-181 30q-205 1 -325 -155t-120 -384t124 -383t319 -155q139 0 241 105v301h-301v176h510v-551q-184 -229 -464 -229t-469 205q-187 206 -187 532q0 325 189 531t474 206zM623 1647q-1 45 29 77t74 31q44 0 75 -32
q31 -33 31 -77t-32 -75q-30 -31 -74 -31t-74 31q-29 31 -29 76z" />
    <glyph glyph-name="gdotaccent" unicode="&#x121;" horiz-adv-x="952" 
d="M555 59h-86q-102 0 -158 17q-51 -43 -51 -127t79 -105q61 -16 136 -16q221 0 221 125q0 106 -141 106zM471 920q-76 0 -123 -52t-47 -143v-2q0 -99 45 -155t125 -56t125 55t45 156v2q0 91 -47 143t-123 52zM100 726q0 153 100 256t271 103q39 0 156 -20h270v-150
l-129 -12q74 -63 74 -203t-104 -241q-104 -100 -267 -101q-94 0 -166 41q-47 -35 -47 -78t21 -69q25 -31 161 -31h119q174 0 247 -77t73 -195q0 -297 -394 -297q-193 0 -303 70q-43 28 -73 81q-31 53 -31 123q0 121 106 205q-90 51 -90 167t99 179q-93 96 -93 249zM360 1319
q0 45 31 77t75 32t75 -32t31 -77t-32 -77q-30 -32 -74 -32t-75 32t-31 77z" />
    <glyph glyph-name="Gcommaaccent" unicode="&#x122;" horiz-adv-x="1292" 
d="M743 1454q223 0 402 -119l-82 -170q-43 29 -130 60t-181 30q-205 1 -325 -155t-120 -384t124 -383t319 -155q139 0 241 105v301h-301v176h510v-551q-184 -229 -464 -229t-469 205q-187 206 -187 532q0 325 189 531t474 206zM627 -264q-1 34 25 62t73 28t76 -41t28 -104
q0 -143 -149 -232l-33 59q90 74 88 170q-8 -24 -39 -24t-50 24t-19 58z" />
    <glyph glyph-name="gcommaaccent" unicode="&#x123;" horiz-adv-x="952" 
d="M555 59h-86q-102 0 -158 17q-51 -43 -51 -127t79 -105q61 -16 136 -16q221 0 221 125q0 106 -141 106zM471 920q-76 0 -123 -52t-47 -143v-2q0 -99 45 -155t125 -56t125 55t45 156v2q0 91 -47 143t-123 52zM100 726q0 153 100 256t271 103q39 0 156 -20h270v-150
l-129 -12q74 -63 74 -203t-104 -241q-104 -100 -267 -101q-94 0 -166 41q-47 -35 -47 -78t21 -69q25 -31 161 -31h119q174 0 247 -77t73 -195q0 -297 -394 -297q-193 0 -303 70q-43 28 -73 81q-31 53 -31 123q0 121 106 205q-90 51 -90 167t99 179q-93 96 -93 249zM479 1208
q-47 0 -76 41t-28 105q0 143 149 231l33 -59q-90 -74 -88 -170q8 24 39 24t50 -24q20 -24 20 -58t-26 -62t-73 -28z" />
    <glyph glyph-name="Hcircumflex" unicode="&#x124;" horiz-adv-x="1320" 
d="M156 1434h217v-617h573v617h217v-1434h-217v600h-573v-600h-217v1434zM537 1530h-144l199 272h160l198 -272h-143l-135 186z" />
    <glyph glyph-name="hcircumflex" unicode="&#x125;" horiz-adv-x="1054" 
d="M332 0h-211v1499h211v-588q25 59 96 117q72 57 200 57t221 -107q91 -108 91 -333v-645h-211v655q0 117 -50 179t-142 63q-93 0 -149 -76t-56 -188v-633zM96 1536h-143l199 272h159l199 -272h-143l-136 186z" />
    <glyph glyph-name="Hbar" unicode="&#x126;" horiz-adv-x="1333" 
d="M385 817h573v254h-573v-254zM168 1434h217v-254h573v254h218v-254h106v-109h-106v-1071h-218v600h-573v-600h-217v1071h-102v109h102v254z" />
    <glyph glyph-name="hbar" unicode="&#x127;" horiz-adv-x="1058" 
d="M336 0h-211v1235h-121v78h121v186h211v-186h233v-78h-233v-324q25 59 96 117q72 57 201 57q129 1 220 -107t91 -333v-645h-211v655q0 117 -50 179t-142 63q-93 0 -149 -76t-56 -188v-633z" />
    <glyph glyph-name="Itilde" unicode="&#x128;" horiz-adv-x="534" 
d="M158 1434h219v-1434h-219v1434zM406 1679q44 0 92 70l55 -45q-76 -160 -188 -160q-53 0 -120 43t-113 43t-91 -67l-57 49q80 156 190 155q49 0 119 -44q69 -44 113 -44z" />
    <glyph glyph-name="itilde" unicode="&#x129;" horiz-adv-x="491" 
d="M63 1065h304v-1065h-211v893l-93 22v150zM131 1444q49 0 119 -44t114 -44t91 69l55 -45q-76 -160 -188 -159q-53 0 -120 43t-113 43t-91 -68l-57 49q80 156 190 156z" />
    <glyph glyph-name="Imacron" unicode="&#x12a;" horiz-adv-x="532" 
d="M158 1434h219v-1434h-219v1434zM-2 1698h537v-131h-537v131z" />
    <glyph glyph-name="imacron" unicode="&#x12b;" horiz-adv-x="491" 
d="M61 1065h304v-1065h-211v893l-93 22v150zM-45 1370h539v-131h-539v131z" />
    <glyph glyph-name="Ibreve" unicode="&#x12c;" horiz-adv-x="534" 
d="M158 1434h219v-1434h-219v1434zM266 1657q129 0 140 133h102q-16 -250 -242 -250t-241 250h102q10 -133 139 -133z" />
    <glyph glyph-name="ibreve" unicode="&#x12d;" horiz-adv-x="493" 
d="M63 1065h304v-1065h-211v893l-93 22v150zM229 1313q129 0 140 133h102q-15 -250 -241 -250t-242 250h102q10 -133 139 -133z" />
    <glyph glyph-name="Iogonek" unicode="&#x12e;" horiz-adv-x="530" 
d="M152 1434h219v-1434q-63 -18 -97 -72t-34 -106q0 -94 79 -94q27 0 50 8l18 -74q-45 -29 -114 -29q-69 1 -109 51t-41 121q0 106 92 195h-63v1434z" />
    <glyph glyph-name="iogonek" unicode="&#x12f;" horiz-adv-x="497" 
d="M246 1223q-55 0 -91 39t-36 94t36 94t91 39t91 -39t36 -94t-36 -94t-91 -39zM66 1065h303v-1065q-123 -41 -123 -178q0 -94 80 -94q27 0 49 8l18 -74q-45 -29 -113 -29q-68 1 -110 51q-41 50 -41 121q0 115 84 195h-55v893l-92 22v150z" />
    <glyph glyph-name="Idotaccent" unicode="&#x130;" horiz-adv-x="530" 
d="M156 1434h219v-1434h-219v1434zM162 1647q0 45 30 77t73 31q44 0 75 -32q31 -33 31 -77t-31 -75t-75 -31t-74 31q-29 31 -29 76z" />
    <glyph glyph-name="dotlessi" unicode="&#x131;" horiz-adv-x="493" 
d="M63 1065h304v-1065h-211v893l-93 22v150z" />
    <glyph glyph-name="Jcircumflex" unicode="&#x134;" horiz-adv-x="899" 
d="M377 178q94 0 139 62t45 161v1033h217v-979q0 -225 -99 -351q-100 -124 -275 -124t-273 82q-72 61 -125 139l137 123q33 -43 56 -67q23 -23 71 -51t107 -28zM537 1530h-144l199 272h160l198 -272h-143l-135 186z" />
    <glyph glyph-name="jcircumflex" unicode="&#x135;" horiz-adv-x="501" 
d="M104 1206h-143l199 273h159l199 -273h-143l-135 187zM78 -172q86 0 86 145v920l-92 22v150h303v-1053q0 -360 -264 -360q-80 0 -148 29l33 157q41 -10 82 -10z" />
    <glyph glyph-name="Kcommaaccent" unicode="&#x136;" horiz-adv-x="1155" 
d="M156 0v1434h219l-4 -717l4 -2l502 719h249l-450 -643l473 -791h-254l-367 633l-153 -207v-426h-219zM498 -264q0 34 26 62t72 28q47 0 76 -41t28 -104q0 -143 -149 -232l-33 59q90 74 88 170q-8 -24 -39 -24t-50 24t-19 58z" />
    <glyph glyph-name="kcommaaccent" unicode="&#x137;" horiz-adv-x="929" 
d="M127 1499h211v-919l348 485h221l-352 -485l342 -580h-217l-244 424l-98 -127v-297h-211v1499zM381 -264q-1 34 25 62t73 28t76 -41t29 -104q0 -143 -150 -232l-33 59q90 74 88 170q-9 -24 -39 -24t-50 23q-19 24 -19 59z" />
    <glyph glyph-name="kgreenlandic" unicode="&#x138;" horiz-adv-x="929" 
d="M127 1065h211v-485l348 485h221l-352 -485l342 -580h-217l-244 424l-98 -127v-297h-211v1065z" />
    <glyph glyph-name="Lacute" unicode="&#x139;" horiz-adv-x="995" 
d="M156 1434h217v-1235h594v-199h-811v1434zM328 1888l147 -73l-137 -285h-135z" />
    <glyph glyph-name="lacute" unicode="&#x13a;" horiz-adv-x="514" 
d="M135 1499h211v-1266q0 -72 55 -71l62 8v-168q-86 -23 -152 -22q-176 0 -176 231v1288zM311 1915l148 -74l-137 -285h-136z" />
    <glyph glyph-name="Lcommaaccent" unicode="&#x13b;" horiz-adv-x="995" 
d="M156 1434h217v-1235h594v-199h-811v1434zM573 -174q47 0 76 -41t29 -104q0 -143 -150 -232l-32 59q90 74 88 170q-8 -24 -39 -24t-50 24t-19 58t24 62q26 28 73 28z" />
    <glyph glyph-name="lcommaaccent" unicode="&#x13c;" horiz-adv-x="516" 
d="M135 1499h211v-1266q0 -72 55 -71l62 8v-168q-86 -23 -152 -22q-176 0 -176 231v1288zM285 -174q47 0 75 -41t29 -104q0 -143 -149 -232l-33 59q90 74 88 170q-8 -24 -39 -24t-50 24q-20 24 -20 58t26 62t73 28z" />
    <glyph glyph-name="Lcaron" unicode="&#x13d;" horiz-adv-x="999" 
d="M156 1434h217v-1235h594v-199h-811v1434zM666 1434h163q1 -102 -37 -216t-83 -171l-99 40q56 132 56 347z" />
    <glyph glyph-name="lcaron" unicode="&#x13e;" horiz-adv-x="591" 
d="M133 1499h211v-1266q0 -72 55 -71l62 8v-168q-86 -23 -152 -22q-176 0 -176 231v1288zM569 1499h164q0 -102 -38 -216t-83 -171l-98 41q55 131 55 346z" />
    <glyph glyph-name="Lslash" unicode="&#x141;" horiz-adv-x="1034" 
d="M184 1434h217v-641l275 188v-109l-275 -188v-485h594v-199h-811v535l-174 -119v108l174 119v791z" />
    <glyph glyph-name="lslash" unicode="&#x142;" horiz-adv-x="606" 
d="M162 1499h211v-665l219 149v-156l-219 -147v-447q0 -72 55 -71l61 8v-168q-86 -23 -151 -22q-176 0 -176 231v330l-152 -101v148l152 102v809z" />
    <glyph glyph-name="Nacute" unicode="&#x143;" horiz-adv-x="1296" 
d="M156 1434h229l547 -1061h4l-12 600v461h217v-1434h-230l-546 1073h-5l13 -504v-569h-217v1434zM692 1888l148 -73l-138 -285h-135z" />
    <glyph glyph-name="nacute" unicode="&#x144;" horiz-adv-x="1062" 
d="M127 1065h168l37 -170q16 55 91 123t208 68t224 -108t91 -333v-645h-211v655q0 117 -49 179t-142 63q-94 0 -150 -81t-56 -193v-623h-211v1065zM571 1565l148 -74l-137 -285h-136z" />
    <glyph glyph-name="Ncommaaccent" unicode="&#x145;" horiz-adv-x="1296" 
d="M156 1434h229l547 -1061h4l-12 600v461h217v-1434h-230l-546 1073h-5l13 -504v-569h-217v1434zM547 -264q-1 34 25 62t73 28t76 -41t29 -104q0 -143 -150 -232l-33 59q90 74 88 170q-8 -24 -39 -24t-50 24t-19 58z" />
    <glyph glyph-name="ncommaaccent" unicode="&#x146;" horiz-adv-x="1062" 
d="M127 1065h168l37 -170q16 55 91 123t208 68t224 -108t91 -333v-645h-211v655q0 117 -49 179t-142 63q-94 0 -150 -81t-56 -193v-623h-211v1065zM451 -264q-1 34 25 62t73 28t76 -41t28 -104q0 -143 -149 -232l-33 59q90 74 88 170q-8 -24 -39 -24t-50 24t-19 58z" />
    <glyph glyph-name="Ncaron" unicode="&#x147;" horiz-adv-x="1296" 
d="M156 1434h229l547 -1061h4l-12 600v461h217v-1434h-230l-546 1073h-5l13 -504v-569h-217v1434zM397 1802h144l135 -186l129 186h145l-207 -272h-147z" />
    <glyph glyph-name="ncaron" unicode="&#x148;" horiz-adv-x="1062" 
d="M127 1065h168l37 -170q16 55 91 123t208 68t224 -108t91 -333v-645h-211v655q0 117 -49 179t-142 63q-94 0 -150 -81t-56 -193v-623h-211v1065zM264 1479h144l135 -187l129 187h145l-207 -273h-147z" />
    <glyph glyph-name="Eng" unicode="&#x14a;" horiz-adv-x="1310" 
d="M1155 1434v-1452q-2 -164 -87 -233t-261 -93l-33 145q88 29 121 67t35 130l-555 1061h-4l8 -481v-578h-221v1434h237l543 -1035h4l-8 480v555h221z" />
    <glyph glyph-name="eng" unicode="&#x14b;" horiz-adv-x="1062" 
d="M127 1065h168l37 -168q16 55 90 122t208 67t225 -107q91 -106 91 -334v-645q-2 -291 -336 -348l-39 139q80 27 122 63t42 101v700q0 117 -49 179t-142 63q-94 0 -150 -81t-56 -193v-623h-211v1065z" />
    <glyph glyph-name="Omacron" unicode="&#x14c;" horiz-adv-x="1423" 
d="M307 714q0 -236 109 -386t298 -150t297 150q107 150 107 386t-110 389q-111 153 -294 153t-295 -154q-112 -152 -112 -388zM713 1454q287 0 459 -206t171 -528q1 -322 -167 -532q-168 -208 -463 -208t-463 208t-168 532q0 322 172 528t459 206zM449 1698h536v-131h-536
v131z" />
    <glyph glyph-name="omacron" unicode="&#x14d;" horiz-adv-x="1085" 
d="M543 897q-125 0 -192 -102q-67 -103 -67 -263t68 -262t191 -102t191 102t67 262t-67 262t-191 103zM543 1085q213 -1 344 -155t131 -398t-131 -398t-344 -154t-344 154t-131 398t131 398t344 155zM276 1370h537v-131h-537v131z" />
    <glyph glyph-name="Obreve" unicode="&#x14e;" horiz-adv-x="1423" 
d="M307 714q0 -236 109 -386t298 -150t297 150q107 150 107 386t-110 389q-111 153 -294 153t-295 -154q-112 -152 -112 -388zM713 1454q287 0 459 -206t171 -528q1 -322 -167 -532q-168 -208 -463 -208t-463 208t-168 532q0 322 172 528t459 206zM714 1657q130 0 140 133
h102q-16 -250 -242 -250t-241 250h102q9 -133 139 -133z" />
    <glyph glyph-name="obreve" unicode="&#x14f;" horiz-adv-x="1085" 
d="M543 897q-125 0 -192 -102q-67 -103 -67 -263t68 -262t191 -102t191 102t67 262t-67 262t-191 103zM543 1085q213 -1 344 -155t131 -398t-131 -398t-344 -154t-344 154t-131 398t131 398t344 155zM542 1313q130 0 140 133h102q-16 -250 -242 -250t-241 250h102
q9 -133 139 -133z" />
    <glyph glyph-name="Ohungarumlaut" unicode="&#x150;" horiz-adv-x="1423" 
d="M307 714q0 -236 109 -386t298 -150t297 150q107 150 107 386t-110 389q-111 153 -294 153t-295 -154q-112 -152 -112 -388zM713 1454q287 0 459 -206t171 -528q1 -322 -167 -532q-168 -208 -463 -208t-463 208t-168 532q0 322 172 528t459 206zM881 1888l147 -73
l-137 -285h-135zM610 1888l148 -73l-137 -285h-136z" />
    <glyph glyph-name="ohungarumlaut" unicode="&#x151;" horiz-adv-x="1085" 
d="M543 897q-125 0 -192 -102q-67 -103 -67 -263t68 -262t191 -102t191 102t67 262t-67 262t-191 103zM543 1085q213 -1 344 -155t131 -398t-131 -398t-344 -154t-344 154t-131 398t131 398t344 155zM713 1565l147 -74l-137 -285h-135zM442 1565l148 -74l-137 -285h-136z
" />
    <glyph glyph-name="OE" unicode="&#x152;" horiz-adv-x="2093" 
d="M309 714q0 -236 109 -386t298 -150t297 150q107 150 107 386t-110 389q-111 153 -294 153t-295 -154q-112 -152 -112 -388zM84 720q0 324 173 530t460 204q256 0 407 -188v168h869v-199h-647v-440h559v-191h-559v-405h663v-199h-885v168q-154 -186 -407 -186
q-295 -2 -464 206t-169 532z" />
    <glyph glyph-name="oe" unicode="&#x153;" horiz-adv-x="1730" 
d="M1408 897q-102 0 -167 -77q-66 -77 -74 -210h453q4 113 -53 200t-159 87zM541 897q-125 0 -192 -102q-67 -103 -67 -263t68 -262t191 -102t191 102t67 262t-67 262t-191 103zM541 1085q159 0 275 -88t165 -241q49 150 160 240t258 89q193 0 307 -143t113 -358
q0 -78 -9 -125h-641q9 -135 91 -213t204 -78t254 63l56 -165q-156 -86 -328 -86t-292 89t-173 240q-49 -153 -166 -241t-274 -88q-213 0 -344 154t-131 398t131 398t344 155z" />
    <glyph glyph-name="Racute" unicode="&#x154;" horiz-adv-x="1189" 
d="M377 1235v-457h276q100 0 166 64t66 164t-65 164t-167 65h-276zM160 1434h514q190 0 307 -118t117 -308q0 -293 -256 -396l299 -612h-238l-274 582h-252v-582h-217v1434zM584 1888l147 -73l-137 -285h-135z" />
    <glyph glyph-name="racute" unicode="&#x155;" horiz-adv-x="651" 
d="M127 1065h166l29 -209q18 78 86 146t198 69v-194q-268 0 -268 -310v-567h-211v1065zM408 1565l147 -74l-137 -285h-135z" />
    <glyph glyph-name="Rcommaaccent" unicode="&#x156;" horiz-adv-x="1189" 
d="M377 1235v-457h276q100 0 166 64t66 164t-65 164t-167 65h-276zM160 1434h514q190 0 307 -118t117 -308q0 -293 -256 -396l299 -612h-238l-274 582h-252v-582h-217v1434zM498 -264q0 34 26 62t72 28q47 0 76 -41t28 -104q0 -143 -149 -232l-33 59q90 74 88 170
q-8 -24 -39 -24t-50 24t-19 58z" />
    <glyph glyph-name="rcommaaccent" unicode="&#x157;" horiz-adv-x="651" 
d="M127 1065h166l29 -209q18 78 86 146t198 69v-194q-268 0 -268 -310v-567h-211v1065zM235 -174q47 0 76 -41t29 -104q0 -143 -150 -232l-32 59q90 74 88 170q-8 -24 -39 -24t-50 24t-19 58t24 62q26 28 73 28z" />
    <glyph glyph-name="Rcaron" unicode="&#x158;" horiz-adv-x="1189" 
d="M377 1235v-457h276q100 0 166 64t66 164t-65 164t-167 65h-276zM160 1434h514q190 0 307 -118t117 -308q0 -293 -256 -396l299 -612h-238l-274 582h-252v-582h-217v1434zM309 1802h144l135 -186l129 186h145l-207 -272h-147z" />
    <glyph glyph-name="rcaron" unicode="&#x159;" horiz-adv-x="649" 
d="M125 1065h166l28 -209q19 78 87 146t198 69v-194q-268 0 -268 -310v-567h-211v1065zM106 1479h144l135 -187l129 187h145l-206 -273h-148z" />
    <glyph glyph-name="Sacute" unicode="&#x15a;" horiz-adv-x="1034" 
d="M500 -20q-207 0 -420 106l70 174q5 -5 36 -17q31 -13 61 -25t97 -28q68 -16 135 -16q137 0 205 57t68 131t-36 119q-56 70 -226 137t-264 141q-58 46 -94 124t-36 178q0 193 123 293t318 100t391 -94l-66 -172q-2 0 -48 20q-112 48 -243 50t-197 -52t-65 -126
q0 -72 36 -117t94 -74t128 -57q169 -67 268 -146q130 -105 130 -309q0 -203 -129 -300t-336 -97zM559 1888l148 -73l-138 -285h-135z" />
    <glyph glyph-name="sacute" unicode="&#x15b;" horiz-adv-x="835" 
d="M414 -20q-162 0 -338 86l55 159q154 -70 266 -69q170 0 170 131q0 70 -64 107q-38 23 -136 65q-293 113 -293 321q0 152 101 229t251 77t309 -76l-55 -158q-115 57 -231 57q-166 0 -166 -125q0 -66 56 -98t127 -58q123 -44 216 -118q94 -74 93 -225q-1 -149 -100 -227
t-261 -78zM451 1565l147 -74l-137 -285h-135z" />
    <glyph glyph-name="Scircumflex" unicode="&#x15c;" horiz-adv-x="1034" 
d="M500 -20q-207 0 -420 106l70 174q5 -5 36 -17q31 -13 61 -25t97 -28q68 -16 135 -16q137 0 205 57t68 131t-36 119q-56 70 -226 137t-264 141q-58 46 -94 124t-36 178q0 193 123 293t318 100t391 -94l-66 -172q-2 0 -48 20q-112 48 -243 50t-197 -52t-65 -126
q0 -72 36 -117t94 -74t128 -57q169 -67 268 -146q130 -105 130 -309q0 -203 -129 -300t-336 -97zM412 1530h-144l199 272h160l198 -272h-143l-135 186z" />
    <glyph glyph-name="scircumflex" unicode="&#x15d;" horiz-adv-x="835" 
d="M414 -20q-162 0 -338 86l55 159q154 -70 266 -69q170 0 170 131q0 70 -64 107q-38 23 -136 65q-293 113 -293 321q0 152 101 229t251 77t309 -76l-55 -158q-115 57 -231 57q-166 0 -166 -125q0 -66 56 -98t127 -58q123 -44 216 -118q94 -74 93 -225q-1 -149 -100 -227
t-261 -78zM299 1206h-143l198 273h160l199 -273h-144l-135 187z" />
    <glyph glyph-name="Scedilla" unicode="&#x15e;" horiz-adv-x="1036" 
d="M752 362q0 74 -36 119q-56 70 -226 137t-264 141q-58 46 -94 124t-36 178q0 193 123 293t318 100t391 -94l-66 -172q-2 0 -48 20q-112 48 -243 50t-197 -52t-65 -126q0 -72 36 -117t94 -74t128 -57q169 -67 268 -146q130 -105 130 -304q0 -198 -117 -295t-303 -105
l-21 -109q14 2 23 2q57 0 100 -34q43 -33 43 -109t-55 -113t-131 -37t-144 23l19 80q57 -14 92 -15q82 0 82 66t-70 65l-45 -4l-35 41l39 146q-182 12 -362 102l70 174q5 -5 36 -17q31 -13 61 -25t97 -28q68 -16 135 -16q137 0 205 57t68 131z" />
    <glyph glyph-name="scedilla" unicode="&#x15f;" horiz-adv-x="837" 
d="M567 287q0 70 -64 107q-38 23 -136 65q-293 113 -293 321q0 152 101 229t251 77t309 -76l-55 -158q-115 57 -231 57q-166 0 -166 -125q0 -66 56 -98t127 -58q123 -44 216 -118q94 -74 93 -224q-1 -149 -97 -226t-246 -80l-24 -107q14 2 22 2q57 0 100 -34q43 -33 43 -109
t-56 -113q-57 -37 -131 -37t-142 23l18 80q57 -14 92 -15q82 0 82 66t-69 65l-45 -4l-35 41l43 148q-131 18 -254 80l55 159q154 -70 266 -69q170 0 170 131z" />
    <glyph glyph-name="Scaron" unicode="&#x160;" horiz-adv-x="1034" 
d="M500 -20q-207 0 -420 106l70 174q5 -5 36 -17q31 -13 61 -25t97 -28q68 -16 135 -16q137 0 205 57t68 131t-36 119q-56 70 -226 137t-264 141q-58 46 -94 124t-36 178q0 193 123 293t318 100t391 -94l-66 -172q-2 0 -48 20q-112 48 -243 50t-197 -52t-65 -126
q0 -72 36 -117t94 -74t128 -57q169 -67 268 -146q130 -105 130 -309q0 -203 -129 -300t-336 -97zM260 1802h143l136 -186l129 186h145l-207 -272h-147z" />
    <glyph glyph-name="scaron" unicode="&#x161;" horiz-adv-x="835" 
d="M414 -20q-162 0 -338 86l55 159q154 -70 266 -69q170 0 170 131q0 70 -64 107q-38 23 -136 65q-293 113 -293 321q0 152 101 229t251 77t309 -76l-55 -158q-115 57 -231 57q-166 0 -166 -125q0 -66 56 -98t127 -58q123 -44 216 -118q94 -74 93 -225q-1 -149 -100 -227
t-261 -78zM152 1479h143l135 -187l129 187h146l-207 -273h-148z" />
    <glyph glyph-name="Tcommaaccent" unicode="&#x162;" horiz-adv-x="1032" 
d="M23 1434h989v-193h-383v-1241h-219v1241h-387v193zM420 -264q0 34 26 62t72 28q47 0 76 -41t29 -104q0 -143 -150 -232l-33 59q90 74 88 170q-8 -24 -39 -24t-50 24t-19 58z" />
    <glyph glyph-name="tcommaaccent" unicode="&#x163;" horiz-adv-x="655" 
d="M160 297v612h-123v135l123 17l35 311h176v-307h217v-156h-217v-610q1 -80 25 -112t81 -31q14 0 109 20l8 -160q-96 -37 -186 -36q-137 0 -193 75q-55 76 -55 242zM362 -174q47 0 76 -41t29 -104q0 -143 -150 -232l-32 59q90 74 88 170q-8 -24 -39 -24t-50 24
q-20 24 -20 58t26 62t72 28z" />
    <glyph glyph-name="Tcaron" unicode="&#x164;" horiz-adv-x="1032" 
d="M23 1434h989v-193h-383v-1241h-219v1241h-387v193zM246 1802h143l135 -186l129 186h146l-207 -272h-148z" />
    <glyph glyph-name="tcaron" unicode="&#x165;" horiz-adv-x="655" 
d="M160 297v612h-123v135l123 17l35 311h176v-307h217v-156h-217v-610q1 -80 25 -112t81 -31q14 0 109 20l8 -160q-96 -37 -186 -36q-137 0 -193 75q-55 76 -55 242zM567 1577h164q0 -102 -38 -216t-83 -171l-98 41q55 131 55 346z" />
    <glyph glyph-name="Tbar" unicode="&#x166;" horiz-adv-x="1038" 
d="M25 1434h989v-199h-383v-455h262v-114h-262v-666h-219v666h-258v114h258v455h-387v199z" />
    <glyph glyph-name="tbar" unicode="&#x167;" horiz-adv-x="657" 
d="M162 297v315h-121v80h121v217h-123v135l123 17l35 311h176v-307h217v-156h-217v-217h205v-80h-205v-313q1 -80 25 -112t81 -31q14 0 109 20l8 -160q-96 -37 -186 -36q-137 0 -193 75q-55 76 -55 242z" />
    <glyph glyph-name="Utilde" unicode="&#x168;" horiz-adv-x="1257" 
d="M143 1434h217v-957q0 -135 74 -217t197 -82t195 82t73 217v957h217v-949q0 -225 -130 -365t-359 -140t-357 143q-127 143 -127 362v949zM776 1679q44 0 90 70l56 -45q-76 -160 -189 -160q-53 0 -120 43t-113 43t-90 -67l-58 49q80 156 191 155q49 0 119 -44t114 -44z" />
    <glyph glyph-name="utilde" unicode="&#x169;" horiz-adv-x="1064" 
d="M119 1065h211v-649q0 -248 184 -248q109 0 160 76t51 190v631h213v-1065h-168l-35 156q-82 -176 -299 -176q-133 0 -225 94t-92 313v678zM442 1444q49 0 119 -44t114 -44t91 69l55 -45q-76 -160 -188 -159q-53 0 -120 43t-113 43t-91 -68l-57 49q80 156 190 156z" />
    <glyph glyph-name="Umacron" unicode="&#x16a;" horiz-adv-x="1257" 
d="M143 1434h217v-957q0 -135 74 -217t197 -82t195 82t73 217v957h217v-949q0 -225 -130 -365t-359 -140t-357 143q-127 143 -127 362v949zM362 1698h537v-131h-537v131z" />
    <glyph glyph-name="umacron" unicode="&#x16b;" horiz-adv-x="1064" 
d="M119 1065h211v-649q0 -248 184 -248q109 0 160 76t51 190v631h213v-1065h-168l-35 156q-82 -176 -299 -176q-133 0 -225 94t-92 313v678zM260 1370h537v-131h-537v131z" />
    <glyph glyph-name="Ubreve" unicode="&#x16c;" horiz-adv-x="1257" 
d="M143 1434h217v-957q0 -135 74 -217t197 -82t195 82t73 217v957h217v-949q0 -225 -130 -365t-359 -140t-357 143q-127 143 -127 362v949zM631 1657q129 0 139 133h102q-16 -250 -242 -250t-241 250h103q10 -133 139 -133z" />
    <glyph glyph-name="ubreve" unicode="&#x16d;" horiz-adv-x="1064" 
d="M119 1065h211v-649q0 -248 184 -248q109 0 160 76t51 190v631h213v-1065h-168l-35 156q-82 -176 -299 -176q-133 0 -225 94t-92 313v678zM532 1313q129 0 140 133h102q-16 -250 -242 -250t-241 250h102q10 -133 139 -133z" />
    <glyph glyph-name="Uring" unicode="&#x16e;" horiz-adv-x="1257" 
d="M143 1434h217v-957q0 -135 74 -217t197 -82t195 82t73 217v957h217v-949q0 -225 -130 -365t-359 -140t-357 143q-127 143 -127 362v949zM537 1720q-1 -48 27 -76t71 -28t71 28t28 76t-28 77q-28 28 -71 28t-71 -28t-27 -77zM451 1720q0 82 54 133t130 51t130 -50
q54 -52 54 -134t-54 -133t-130 -51t-130 51t-54 133z" />
    <glyph glyph-name="uring" unicode="&#x16f;" horiz-adv-x="1064" 
d="M119 1065h211v-649q0 -248 184 -248q109 0 160 76t51 190v631h213v-1065h-168l-35 156q-82 -176 -299 -176q-133 0 -225 94t-92 313v678zM428 1391q0 -49 28 -77t70 -28t71 28q28 28 28 77t-28 77t-71 27q-42 1 -70 -27t-28 -77zM342 1391q0 82 54 133t130 51t130 -51
t54 -133q0 -81 -54 -133t-130 -52t-130 52t-54 133z" />
    <glyph glyph-name="Uhungarumlaut" unicode="&#x170;" horiz-adv-x="1257" 
d="M143 1434h217v-957q0 -135 74 -217t197 -82t195 82t73 217v957h217v-949q0 -225 -130 -365t-359 -140t-357 143q-127 143 -127 362v949zM795 1888l147 -73l-137 -285h-135zM524 1888l148 -73l-137 -285h-136z" />
    <glyph glyph-name="uhungarumlaut" unicode="&#x171;" horiz-adv-x="1064" 
d="M119 1065h211v-649q0 -248 184 -248q109 0 160 76t51 190v631h213v-1065h-168l-35 156q-82 -176 -299 -176q-133 0 -225 94t-92 313v678zM702 1565l148 -74l-137 -285h-135zM432 1565l148 -74l-138 -285h-135z" />
    <glyph glyph-name="Uogonek" unicode="&#x172;" horiz-adv-x="1257" 
d="M141 1434h217v-957q0 -135 74 -217t197 -82t195 82t73 217v957h217v-949q0 -167 -74 -291t-209 -178q-47 -28 -75 -96t-29 -117q0 -94 80 -94q27 0 49 8l18 -73q-44 -29 -114 -29t-110 49t-40 123q0 115 74 195q-18 -2 -55 -2q-233 0 -361 143q-127 143 -127 362v949z
" />
    <glyph glyph-name="uogonek" unicode="&#x173;" horiz-adv-x="1064" 
d="M119 1065h211v-649q0 -248 184 -248q109 0 160 76t51 190v631h213v-1065q-66 -18 -96 -72t-31 -106q0 -94 80 -94q27 0 49 8l18 -74q-44 -29 -114 -29t-108 44q-38 43 -38 107t28 124t71 92h-27l-35 156q-82 -176 -299 -176q-133 0 -225 94t-92 313v678z" />
    <glyph glyph-name="Wcircumflex" unicode="&#x174;" horiz-adv-x="1755" 
d="M770 1434h256l246 -1145l250 1145h223l-336 -1440h-274l-240 1110l-236 -1110h-276l-342 1440h233l250 -1145zM760 1530h-144l199 272h160l199 -272h-144l-135 186z" />
    <glyph glyph-name="wcircumflex" unicode="&#x175;" horiz-adv-x="1501" 
d="M645 1065h207l192 -782l205 782h201l-281 -1065h-245l-174 727l-170 -727h-248l-281 1065h205l205 -784zM612 1206h-143l199 273h159l199 -273h-143l-135 187z" />
    <glyph glyph-name="Ycircumflex" unicode="&#x176;" horiz-adv-x="1089" 
d="M647 0h-211v580l-430 854h232l309 -643h2l309 643h219l-430 -854v-580zM412 1530h-144l199 272h160l198 -272h-143l-135 186z" />
    <glyph glyph-name="ycircumflex" unicode="&#x177;" horiz-adv-x="997" 
d="M47 1065h221l238 -803l223 803h221l-436 -1413h-225l100 328zM371 1206h-144l199 273h160l198 -273h-143l-135 187z" />
    <glyph glyph-name="Ydieresis" unicode="&#x178;" horiz-adv-x="1089" 
d="M647 0h-211v580l-430 854h232l309 -643h2l309 643h219l-430 -854v-580zM238 1649q0 45 30 77t75 31q44 0 74 -31q29 -32 29 -78t-30 -75t-75 -29q-46 0 -75 30q-28 30 -28 75zM637 1649q0 45 31 77q30 32 74 31q44 0 75 -31q31 -30 31 -76t-31 -76t-76 -30t-75 30t-29 75
z" />
    <glyph glyph-name="Zacute" unicode="&#x179;" horiz-adv-x="1081" 
d="M88 1434h924v-150l-662 -1087l2 -4l264 6h390v-199h-947v152l660 1083l-2 4l-258 -4h-371v199zM584 1888l147 -73l-137 -285h-135z" />
    <glyph glyph-name="zacute" unicode="&#x17a;" horiz-adv-x="894" 
d="M86 1065h735v-150l-497 -735v-6l245 4h252v-178h-762v154l500 731v6l-260 -4h-213v178zM496 1565l147 -74l-137 -285h-135z" />
    <glyph glyph-name="Zdotaccent" unicode="&#x17b;" horiz-adv-x="1081" 
d="M88 1434h924v-150l-662 -1087l2 -4l264 6h390v-199h-947v152l660 1083l-2 4l-258 -4h-371v199zM428 1647q0 45 31 77t75 31q44 0 74 -32q31 -33 31 -77t-31 -75t-75 -31q-45 0 -75 31t-30 76z" />
    <glyph glyph-name="zdotaccent" unicode="&#x17c;" horiz-adv-x="894" 
d="M86 1065h735v-150l-497 -735v-6l245 4h252v-178h-762v154l500 731v6l-260 -4h-213v178zM344 1319q0 45 31 77t75 32t74 -32q30 -30 29 -76q0 -46 -30 -78q-31 -32 -75 -32t-74 32t-30 77z" />
    <glyph glyph-name="Zcaron" unicode="&#x17d;" horiz-adv-x="1081" 
d="M88 1434h924v-150l-662 -1087l2 -4l264 6h390v-199h-947v152l660 1083l-2 4l-258 -4h-371v199zM276 1802h144l135 -186l129 186h145l-206 -272h-148z" />
    <glyph glyph-name="zcaron" unicode="&#x17e;" horiz-adv-x="894" 
d="M86 1065h735v-150l-497 -735v-6l245 4h252v-178h-762v154l500 731v6l-260 -4h-213v178zM182 1479h144l135 -187l129 187h145l-207 -273h-147z" />
    <glyph glyph-name="AEacute" unicode="&#x1fc;" horiz-adv-x="1726" 
d="M764 1235h-66l-249 -676h315v676zM1628 1434v-199h-647v-440h559v-191h-559v-405h664v-199h-881v371h-387l-144 -371h-231l580 1434h1046zM1126 1888l148 -73l-137 -285h-136z" />
    <glyph glyph-name="aeacute" unicode="&#x1fd;" horiz-adv-x="1570" 
d="M1163 903q-109 0 -181 -79t-81 -214h481q4 113 -53 203t-166 90zM434 156q195 0 273 170q-29 76 -29 161q-86 12 -186 13q-231 0 -232 -178q0 -82 48 -124t126 -42zM494 1085q254 0 350 -139q134 139 322 139t302 -143t113 -358q0 -78 -8 -125h-670q8 -137 96 -214
q87 -77 217 -77t265 65l55 -167q-156 -86 -348 -86q-279 0 -414 210q-125 -211 -381 -210q-156 0 -249 85t-93 251t112 252q112 87 288 87q121 0 229 -14q4 31 16 70v2q0 115 -55 153t-189 37q-134 0 -272 -45l-39 166q193 61 353 61zM852 1565l147 -74l-137 -285h-135z" />
    <glyph glyph-name="Oslashacute" unicode="&#x1fe;" horiz-adv-x="1423" 
d="M756 1888l147 -73l-137 -285h-135zM713 178q189 0 297 150t108 378q0 230 -100 381l-481 -868q78 -41 176 -41zM713 1255q-182 -1 -294 -153t-112 -390t111 -388l485 876q-88 55 -190 55zM82 719q0 323 172 529t459 206q162 0 291 -70l63 113h178l-115 -205
q213 -207 213 -573q1 -322 -167 -531t-463 -208q-154 0 -277 59l-61 -111h-176l108 199q-225 203 -225 592z" />
    <glyph glyph-name="oslashacute" unicode="&#x1ff;" horiz-adv-x="1085" 
d="M539 1563l147 -74l-137 -285h-135zM543 897q-125 0 -192 -102t-67 -253t52 -245l317 571q-47 29 -110 29zM543 168q123 0 191 102t67 252q0 150 -53 248l-320 -573q51 -29 115 -29zM543 1085q115 0 205 -47l59 107h149l-100 -180q162 -157 162 -417t-131 -414t-344 -154
q-115 0 -209 47l-60 -107h-147l100 182q-159 154 -159 414t131 414t344 155z" />
    <glyph glyph-name="Scommaaccent" unicode="&#x218;" horiz-adv-x="1034" 
d="M500 -20q-207 0 -420 106l70 174q5 -5 36 -17q31 -13 61 -25t97 -28q68 -16 135 -16q137 0 205 57t68 131t-36 119q-56 70 -226 137t-264 141q-58 46 -94 124t-36 178q0 193 123 293t318 100t391 -94l-66 -172q-2 0 -48 20q-112 48 -243 50t-197 -52t-65 -126
q0 -72 36 -117t94 -74t128 -57q169 -67 268 -146q130 -105 130 -309q0 -203 -129 -300t-336 -97zM532 -174q47 0 76 -41t29 -104q0 -143 -150 -232l-32 59q90 74 88 170q-8 -24 -39 -24t-50 24q-20 24 -20 58t26 62t72 28z" />
    <glyph glyph-name="scommaaccent" unicode="&#x219;" horiz-adv-x="835" 
d="M414 -20q-162 0 -338 86l55 159q154 -70 266 -69q170 0 170 131q0 70 -64 107q-38 23 -136 65q-293 113 -293 321q0 152 101 229t251 77t309 -76l-55 -158q-115 57 -231 57q-166 0 -166 -125q0 -66 56 -98t127 -58q123 -44 216 -118q94 -74 93 -225q-1 -149 -100 -227
t-261 -78zM334 -264q0 34 26 62t72 28q47 0 76 -41t29 -104q0 -143 -150 -232l-33 59q90 74 88 170q-8 -24 -39 -24t-50 24t-19 58z" />
    <glyph glyph-name="circumflex" unicode="&#x2c6;" horiz-adv-x="888" 
d="M317 1262h-143l199 272h159l199 -272h-143l-135 186z" />
    <glyph glyph-name="caron" unicode="&#x2c7;" horiz-adv-x="890" 
d="M172 1528h143l136 -187l129 187h145l-207 -273h-147z" />
    <glyph glyph-name="breve" unicode="&#x2d8;" horiz-adv-x="770" 
d="M385 1335q65 0 97 32t48 99h97q-16 -252 -242 -252t-242 252h99q16 -66 47 -98t96 -33z" />
    <glyph glyph-name="dotaccent" unicode="&#x2d9;" horiz-adv-x="497" 
d="M143 1487q0 45 31 77t75 32t74 -32q29 -30 29 -76t-30 -77t-74 -31q-45 0 -75 31t-30 76z" />
    <glyph glyph-name="ring" unicode="&#x2da;" horiz-adv-x="610" 
d="M311 1436q-82 0 -82 -104t82 -105q82 1 82 105t-82 104zM143 1331q-1 84 49 134q50 51 120 51t118 -50q49 -50 49 -135q0 -84 -49 -134t-119 -50t-119 50t-49 134z" />
    <glyph glyph-name="ogonek" unicode="&#x2db;" horiz-adv-x="550" 
d="M260 -178q0 -94 80 -94q27 0 49 8l19 -74q-45 -29 -114 -29q-69 1 -110 51t-41 130q-1 80 53 150q54 71 138 102l41 -54q-57 -29 -86 -84t-29 -106z" />
    <glyph glyph-name="tilde" unicode="&#x2dc;" horiz-adv-x="854" 
d="M334 1440q49 0 119 -44q69 -44 113 -44t91 69l56 -45q-76 -160 -189 -159q-53 0 -120 43q-66 43 -112 43t-91 -68l-58 49q80 156 191 156z" />
    <glyph glyph-name="hungarumlaut" unicode="&#x2dd;" horiz-adv-x="804" 
d="M516 1530l129 -76l-125 -250h-110zM252 1530l131 -76l-127 -250h-111z" />
    <glyph glyph-name="Wgrave" unicode="&#x1e80;" horiz-adv-x="1755" 
d="M770 1434h256l246 -1145l250 1145h223l-336 -1440h-274l-240 1110l-236 -1110h-276l-342 1440h233l250 -1145zM692 1815l148 73l125 -358h-136z" />
    <glyph glyph-name="wgrave" unicode="&#x1e81;" horiz-adv-x="1501" 
d="M645 1065h207l192 -782l205 782h201l-281 -1065h-245l-174 727l-170 -727h-248l-281 1065h205l205 -784zM539 1491l147 74l125 -359h-135z" />
    <glyph glyph-name="Wacute" unicode="&#x1e82;" horiz-adv-x="1755" 
d="M770 1434h256l246 -1145l250 1145h223l-336 -1440h-274l-240 1110l-236 -1110h-276l-342 1440h233l250 -1145zM958 1888l148 -73l-137 -285h-135z" />
    <glyph glyph-name="wacute" unicode="&#x1e83;" horiz-adv-x="1501" 
d="M645 1065h207l192 -782l205 782h201l-281 -1065h-245l-174 727l-170 -727h-248l-281 1065h205l205 -784zM829 1559l148 -82l-154 -267h-116z" />
    <glyph glyph-name="Wdieresis" unicode="&#x1e84;" horiz-adv-x="1755" 
d="M770 1434h256l246 -1145l250 1145h223l-336 -1440h-274l-240 1110l-236 -1110h-276l-342 1440h233l250 -1145zM580 1649q0 45 30 77t75 31q44 0 75 -31q31 -30 31 -76t-31 -76t-76 -30t-75 30q-29 30 -29 75zM979 1649q0 45 32 77q33 32 75 31q42 0 74 -31q32 -30 32 -76
t-32 -76t-77 -30t-75 30t-29 75z" />
    <glyph glyph-name="wdieresis" unicode="&#x1e85;" horiz-adv-x="1501" 
d="M645 1065h207l192 -782l205 782h201l-281 -1065h-245l-174 727l-170 -727h-248l-281 1065h205l205 -784zM444 1318q0 46 30 77t75 31t75 -30t30 -77t-30 -77t-76 -30t-75 30t-29 76zM844 1318q0 46 32 77t74 31t75 -30q32 -30 32 -77t-32 -77t-77 -30t-75 30
q-29 30 -29 76z" />
    <glyph glyph-name="germandbls.case" unicode="&#x1e9e;" horiz-adv-x="1220" 
d="M143 913q0 249 117 395t342 146q256 0 445 -231l-218 -404q342 -86 342 -420q1 -211 -125 -329t-317 -117q-115 0 -231 37l32 184q74 -29 174 -29q100 -1 182 63q81 64 81 204q0 244 -293 266l-53 102l200 394q-94 92 -210 92q-115 0 -183 -91t-68 -247v-928h-217v913z
" />
    <glyph glyph-name="Ygrave" unicode="&#x1ef2;" horiz-adv-x="1089" 
d="M647 0h-211v580l-430 854h232l309 -643h2l309 643h219l-430 -854v-580zM360 1815l148 73l125 -358h-135z" />
    <glyph glyph-name="ygrave" unicode="&#x1ef3;" horiz-adv-x="997" 
d="M47 1065h221l238 -803l223 803h221l-436 -1413h-225l100 328zM340 1491l147 74l125 -359h-135z" />
    <glyph glyph-name="endash" unicode="&#x2013;" horiz-adv-x="1245" 
d="M121 762h1003v-148h-1003v148z" />
    <glyph glyph-name="emdash" unicode="&#x2014;" horiz-adv-x="1564" 
d="M121 762h1323v-148h-1323v148z" />
    <glyph glyph-name="quoteleft" unicode="&#x2018;" horiz-adv-x="468" 
d="M240 958q-56 0 -95 54t-39 129q0 184 193 291l41 -68q-119 -98 -111 -209q8 19 43 19t60 -27q24 -27 24 -75t-30 -81t-86 -33z" />
    <glyph glyph-name="quoteright" unicode="&#x2019;" horiz-adv-x="462" 
d="M230 1434q56 0 94 -54q39 -54 38 -129q0 -184 -192 -290l-41 67q121 94 113 209q-8 -18 -43 -18q-35 1 -60 27t-25 74t30 81t86 33z" />
    <glyph glyph-name="quotesinglbase" unicode="&#x201a;" horiz-adv-x="471" 
d="M229 217q55 0 95 -55t38 -129q0 -184 -190 -291l-43 70q47 35 82 90t31 118q0 -4 -14 -12t-25 -8q-39 0 -64 28t-25 74t30 81q30 34 85 34z" />
    <glyph glyph-name="quotedblleft" unicode="&#x201c;" horiz-adv-x="827" 
d="M238 958q-56 0 -95 54t-39 129q0 186 193 291l41 -68q-117 -90 -113 -209q12 19 45 19t58 -28q24 -28 24 -75t-30 -80q-28 -33 -84 -33zM598 958q-56 0 -94 54t-39 129q0 184 192 291l41 -68q-119 -88 -110 -209q6 19 42 19t60 -29t25 -75q0 -46 -31 -79q-30 -33 -86 -33
z" />
    <glyph glyph-name="quotedblright" unicode="&#x201d;" horiz-adv-x="825" 
d="M592 1432q56 0 94 -54t39 -129q0 -184 -193 -291l-40 68q115 92 110 209q-6 -18 -42 -18q-36 -1 -60 27t-25 75q0 47 31 80q30 33 86 33zM230 1432q56 0 94 -54q39 -54 38 -129q0 -184 -192 -291l-41 68q47 33 81 88t32 121q-12 -18 -46 -18q-34 1 -58 29t-24 74t30 79
t86 33z" />
    <glyph glyph-name="quotedblbase" unicode="&#x201e;" horiz-adv-x="831" 
d="M592 217q56 0 94 -55t39 -129q0 -184 -193 -291l-40 70q119 84 112 208q-10 -20 -44 -20t-58 28t-25 76q0 48 30 80q29 33 85 33zM232 217q56 0 94 -55q39 -55 39 -129q0 -184 -193 -291l-43 70q47 35 82 89t31 119q-4 -20 -41 -20t-62 29t-25 75t31 80q31 33 87 33z" />
    <glyph glyph-name="dagger" unicode="&#x2020;" horiz-adv-x="1046" 
d="M971 1120v-162l-287 29v98zM76 1120l289 -35v-98l-289 -29v162zM434 1434h180l-24 -1225h-131z" />
    <glyph glyph-name="daggerdbl" unicode="&#x2021;" horiz-adv-x="1105" 
d="M106 582l287 -35v-98l-287 -33v166zM999 582v-166l-286 33v98zM106 1120l287 -35v-98l-287 -29v162zM999 1120v-162l-286 29v98zM461 1434h184l-24 -1434h-134z" />
    <glyph glyph-name="bullet" unicode="&#x2022;" horiz-adv-x="720" 
d="M362 936q86 0 146 -66t61 -158q0 -92 -61 -158q-60 -65 -146 -65t-148 66t-62 159q0 94 62 158t148 64z" />
    <glyph glyph-name="ellipsis" unicode="&#x2026;" horiz-adv-x="1347" 
d="M903 91q0 46 32 79t77 33q46 0 76 -33t30 -80t-31 -79q-31 -31 -75 -31t-77 32q-32 32 -32 79zM508 90q0 47 31 80t75 33t77 -33q32 -33 32 -79t-32 -79q-32 -32 -77 -32q-46 0 -76 32t-30 78zM113 91q0 46 31 79q32 33 77 33t76 -33t31 -80t-31 -79q-31 -31 -76 -31
t-77 32q-31 33 -31 79z" />
    <glyph glyph-name="perthousand" unicode="&#x2030;" horiz-adv-x="2156" 
d="M1812 141q45 0 74 49q29 48 29 134t-29 135t-75 49q-45 0 -73 -48t-28 -134q0 -185 102 -185zM1522 322q0 152 83 250t210 100q127 0 207 -98t81 -248q0 -150 -83 -248t-210 -98q-128 0 -208 95t-80 247zM1108 141q45 0 74 49q28 48 28 134t-28 135q-29 49 -75 49
t-74 -48t-27 -134q0 -185 102 -185zM342 924q47 0 75 49t27 135q0 86 -28 134q-29 48 -74 48t-74 -49q-28 -49 -28 -136t28 -134t74 -47zM817 322q0 152 83 250t210 100q127 0 208 -98t81 -248t-83 -248t-210 -98t-208 95t-81 247zM264 0l701 1434h217l-695 -1434h-223z
M340 764q-129 0 -209 96t-80 247t82 249t211 98t209 -96t80 -248t-82 -249t-211 -97z" />
    <glyph glyph-name="guilsinglleft" unicode="&#x2039;" horiz-adv-x="630" 
d="M432 1036l107 -112l-244 -392l244 -393l-107 -110l-360 479v49z" />
    <glyph glyph-name="guilsinglright" unicode="&#x203a;" horiz-adv-x="630" 
d="M92 924l107 112l360 -479v-49l-360 -479l-107 110l244 393z" />
    <glyph glyph-name="fraction" unicode="&#x2044;" horiz-adv-x="722" 
d="M539 1434h170l-521 -1434h-172z" />
    <glyph glyph-name="Euro" unicode="&#x20ac;" horiz-adv-x="1380" 
d="M459 719q0 -47 6 -86h522l-39 -113h-463q43 -168 161 -256t286 -88t317 80v-203q-154 -74 -334 -73q-250 0 -432 143t-231 397h-174l39 113h116q-2 27 -2 80t2 78h-163l39 112h141q47 255 229 403t436 148q223 -6 383 -108l-61 -172q-133 84 -303 84t-289 -93
q-119 -92 -162 -262h598l-39 -112h-579q-4 -25 -4 -72z" />
    <glyph glyph-name="trademark" unicode="&#x2122;" horiz-adv-x="1400" 
d="M119 1434h487v-123h-180v-516h-127v516h-180v123zM1260 1434v-639h-115v381l-127 -299h-86l-127 299v-381h-115v639h119l166 -418l166 418h119z" />
    <glyph glyph-name="commaaccent" unicode="&#xf6c3;" horiz-adv-x="462" 
d="M127 -264q-1 34 25 62t73 28t76 -41t29 -104q0 -143 -150 -232l-33 59q90 74 89 170q-8 -24 -39 -24t-51 23q-19 24 -19 59z" />
    <glyph glyph-name="apple" unicode="&#xf8ff;" horiz-adv-x="2301" 
d="M2181 981v-63h62v-19h-62v-133q0 -51 39 -51q20 0 31 4l2 -17q-12 -6 -35 -6q-57 0 -57 72v131h-33v16l33 3l4 63h16zM2073 808q0 40 -27 66t-67 27q-39 -1 -65 -27t-26 -66t26 -68t64 -28t67 28q28 28 28 68zM1868 807q0 47 32 80t79 33q48 0 81 -32t33 -80t-34 -82
t-80 -34q-47 0 -79 34t-32 81zM1626 807q0 -41 25 -68t61 -27t63 28q26 28 25 67q0 39 -26 67t-62 27q-38 -1 -62 -27t-24 -67zM1821 807q0 -47 -30 -81q-29 -34 -87 -34t-76 53v-120h-22v293h16l4 -52q25 54 79 54t85 -33t31 -80zM1528 815q0 33 -22 59t-56 27t-60 -25
t-28 -61h166zM1448 920q45 0 77 -37t23 -84h-186q2 -37 28 -62q47 -45 134 -8l8 -16q-100 -49 -160 13q-33 34 -33 81t32 80t77 33zM1087 807q0 -41 25 -69t63 -28q39 0 63 28t24 68t-26 68t-62 27t-62 -27q-25 -26 -25 -67zM1260 1008h20v-312h-16l-2 52q-27 -56 -81 -56
t-85 34t-31 81t31 80t84 33t80 -52v140zM822 880q-54 0 -64 -57h121q-3 57 -57 57zM819 922q47 0 75 -33t28 -80l-2 -21h-162q6 -57 69 -57q23 0 66 14l14 -32q-35 -21 -83 -21t-81 32t-33 82t31 83t78 33zM498 807q0 -33 18 -53t48 -20t48 20t19 53q-1 33 -19 53t-47 20
t-48 -20t-19 -53zM678 807q0 -49 -29 -82t-78 -33t-69 31v-98h-47v293h37l6 -33q24 37 72 37t78 -33t30 -82zM262 625q-20 0 -43 6l8 41q13 -4 29 -4t31 28l-86 222h47l63 -173l62 173h49l-92 -232q-27 -61 -68 -61zM82 772v111h-31v28l31 7l8 63h37v-63h51v-35h-51v-115
q0 -33 29 -33l26 2l8 -32q-25 -8 -40 -9q-68 0 -68 76zM1006 1008v-394h-9v394h9z" />
    <glyph glyph-name="a.alt" 
d="M485 1085q103 0 185 -51t114 -129l31 160h172v-1065h-207v158q-43 -86 -127 -132t-178 -46q-182 0 -293 160q-110 160 -110 391q0 232 114 394q115 160 299 160zM543 897q-111 0 -183 -104q-72 -105 -72 -263t72 -260q70 -102 181 -102t181 101t71 261t-69 264t-181 103z
" />
    <glyph glyph-name="g.alt" 
d="M542 256q116 0 182 94t64 228q0 134 -65 226q-65 93 -181 93t-183 -91t-67 -229t67 -230q67 -91 183 -91zM485 -156q131 0 211 71t80 206v112q-34 -73 -112 -117t-172 -44q-166 0 -291 134t-125 371t125 373t291 135q104 0 187 -54t114 -124l30 158h164v-891
q0 -256 -127 -389t-339 -133t-386 106l68 168q150 -82 282 -82z" />
    <glyph glyph-name="f_b" horiz-adv-x="1689" 
d="M1153 901q-113 0 -181 -105q-68 -104 -69 -264q0 -160 68 -263q67 -103 181 -103t180 103t67 261q-1 158 -67 264t-179 107zM686 0v1120q0 113 -44 167t-116 54t-116 -54t-43 -167v-55h176v-156h-176v-909h-211v909h-121v133l121 23v55q0 190 102 294t268 106
q166 0 268 -104t103 -296v-227q43 94 127 143t168 49q196 1 310 -161t114 -394t-117 -391q-117 -160 -307 -159q-111 0 -191 55t-114 149l-21 -184h-180z" />
    <glyph glyph-name="f_f_b" horiz-adv-x="2187" 
d="M1655 901q-113 0 -181 -105q-68 -104 -69 -264q0 -160 68 -263q67 -103 181 -103t180 103t67 261q-1 158 -67 264t-179 107zM1188 0v1137q0 113 -44 167t-116 54t-116 -54t-44 -167v-72h176v-156h-176v-909h-211v909h-290v-909h-211v909h-121v133l121 23v109
q0 174 63 260t219 86q66 0 131 -19l-30 -172q-37 8 -66 8q-106 0 -106 -166v-106h290v72q1 191 103 295t268 104t267 -103t104 -296v-244q43 94 127 143t168 49q196 1 310 -161t114 -394t-117 -391q-117 -160 -307 -159q-111 0 -191 55t-114 149l-21 -184h-180z" />
    <glyph glyph-name="f_h" horiz-adv-x="1609" 
d="M897 0h-211v1120q0 113 -44 167t-116 54t-116 -54t-43 -167v-55h176v-156h-176v-909h-211v909h-121v133l121 23v55q0 190 102 294t268 106q166 0 268 -104t103 -296v-205q29 63 100 117q72 53 174 53q141 0 231 -106t91 -332v-647h-211v647q0 123 -47 188t-138 65
t-145 -85q-54 -84 -55 -197v-618z" />
    <glyph glyph-name="f_f_h" horiz-adv-x="2111" 
d="M1399 0h-211v1137q0 113 -44 167t-116 54t-116 -54t-44 -167v-72h176v-156h-176v-909h-211v909h-290v-909h-211v909h-121v133l121 23v109q0 170 62 258t208 88q78 0 143 -19l-30 -168q-37 8 -66 8q-106 0 -106 -165v-111h290v72q1 191 103 295t268 104t267 -103t104 -296
v-222q29 63 100 117q72 53 176 53q139 0 229 -106t91 -332v-647h-211v645q0 123 -47 188t-138 65t-145 -85q-54 -84 -55 -197v-616z" />
    <glyph glyph-name="f_k" horiz-adv-x="1488" 
d="M897 0h-211v1120q0 113 -44 167t-116 54t-116 -54t-43 -167v-55h176v-156h-176v-909h-211v909h-121v133l121 23v55q0 190 102 294t268 106q166 0 268 -104t103 -296v-540l348 485h221l-352 -485l342 -580h-217l-244 424l-98 -127v-297z" />
    <glyph glyph-name="f_f_k" horiz-adv-x="1992" 
d="M1401 0h-211v1137q0 113 -44 167t-116 54t-116 -54t-44 -167v-72h177v-156h-177v-909h-211v909h-290v-909h-211v909h-121v133l121 23v109q0 174 63 260t219 86q66 0 131 -19l-30 -168q-37 8 -66 8q-106 0 -106 -165v-111h290v72q1 191 103 295t268 104t267 -103t104 -296
v-557l348 485h221l-352 -485l342 -580h-217l-244 424l-98 -127v-297z" />
    <glyph glyph-name="dollar.tnum" horiz-adv-x="1198" 
d="M680 -201h-148v183q-203 14 -366 90l74 178q184 -76 318 -76t201 52t67 144t-69 151q-69 58 -166 93t-195 78t-166 133q-69 90 -68 230q0 176 101 276t269 119v188h148v-188q188 -14 332 -84l-70 -176q-35 18 -122 44q-86 26 -194 26t-172 -54t-65 -131q0 -78 37 -126
t95 -79q58 -32 129 -58t142 -60t129 -78q58 -45 95 -121t37 -178q1 -166 -95 -266t-278 -127v-183z" />
    <glyph glyph-name="percent.tnum" horiz-adv-x="1202" 
d="M954 109q59 0 96 59q36 58 36 156t-37 157t-95 59t-93 -58q-34 -58 -34 -158t34 -158t93 -57zM119 1110q0 -98 36 -158t94 -59q58 0 93 58q35 59 35 157t-36 158t-94 59q-58 0 -93 -59q-35 -58 -35 -156zM950 -20q-122 0 -192 97t-70 248t71 249t191 98t197 -98
q78 -98 78 -248t-77 -248t-198 -98zM182 0l662 1434h172l-662 -1434h-172zM244 764q-123 0 -194 97q-70 97 -70 248t71 248q72 97 192 97q121 0 197 -97t76 -247t-74 -248t-198 -98z" />
    <glyph glyph-name="plus.tnum" horiz-adv-x="1200" 
d="M524 1083h148v-325h305v-150h-305v-327h-148v327h-303v150h303v325z" />
    <glyph glyph-name="hyphen.tnum" horiz-adv-x="1200" 
d="M248 762h702v-148h-702v148z" />
    <glyph glyph-name="zero.tnum" horiz-adv-x="1200" 
d="M301 716q0 -254 80 -400t220 -146t219 145t79 399t-81 402t-219 148t-218 -146t-80 -402zM600 -20q-233 0 -378 203q-144 204 -144 533q0 330 145 534t377 204t378 -204q144 -204 144 -532t-144 -533q-145 -205 -378 -205z" />
    <glyph glyph-name="one.tnum" horiz-adv-x="1198" 
d="M258 0v168h266v1018l-225 -80l-72 141l351 187h153v-1266h270v-168h-743z" />
    <glyph glyph-name="two.tnum" horiz-adv-x="1200" 
d="M1055 178v-178h-899l448 627q190 195 191 374q0 115 -72 189t-193 74t-297 -74l-77 156q217 108 409 108q193 0 315 -123t121 -311q0 -109 -48 -215t-101 -172t-135 -148l-311 -307h649z" />
    <glyph glyph-name="three.tnum" horiz-adv-x="1198" 
d="M566 1454q183 0 296 -105t113 -268q0 -223 -230 -319q281 -90 281 -359q0 -190 -132 -307q-132 -116 -345 -116t-381 108l72 150q147 -72 277 -72t211 71t81 197t-93 190t-218 64h-88v156h100q106 0 181 52t75 152t-67 159q-67 58 -183 58t-258 -51l-55 156
q180 84 363 84z" />
    <glyph glyph-name="four.tnum" horiz-adv-x="1212" 
d="M737 494v612l-420 -612h420zM944 1434v-940h150v-158h-150v-336h-207v336h-633v149l660 949h180z" />
    <glyph glyph-name="five.tnum" horiz-adv-x="1198" 
d="M995 1434v-189h-571l-41 -393q106 82 240 82q178 0 298 -128q119 -128 119 -347t-139 -349t-354 -130t-391 112l73 156q135 -78 283 -78t233 79q84 79 84 222t-68 222q-69 79 -192 79t-219 -86q-6 4 -143 78l69 670h719z" />
    <glyph glyph-name="six.tnum" horiz-adv-x="1200" 
d="M621 760q-111 0 -183 -88t-72 -215t72 -216t184 -89t182 85t70 220t-71 219t-182 84zM682 1274q-170 0 -265 -154t-81 -407q37 100 125 160t207 61q178 0 290 -134t111 -343q0 -209 -117 -343t-319 -134q-166 0 -279 96q-207 176 -209 596q0 270 102 506q54 124 165 200
t264 76q207 0 346 -104l-72 -152q-125 76 -268 76z" />
    <glyph glyph-name="seven.tnum" horiz-adv-x="1200" 
d="M186 1434h863v-191l-529 -1243h-213l527 1245h-648v189z" />
    <glyph glyph-name="eight.tnum" horiz-adv-x="1200" 
d="M598 1278q-88 0 -144 -60t-56 -160t52 -162q54 -64 148 -64t147 62q53 64 53 164t-56 160t-144 60zM356 398q0 -116 71 -182t171 -64q100 0 171 66t71 180q0 116 -67 184t-177 68t-174 -68q-66 -68 -66 -184zM598 1454q166 0 282 -102t115 -275q0 -121 -62 -205
t-155 -114q113 -33 192 -125t79 -238q-1 -188 -133 -302q-132 -113 -316 -113t-318 112t-135 305q0 141 79 235t192 126q-92 31 -155 113q-62 83 -62 204q0 174 115 277q116 102 282 102z" />
    <glyph glyph-name="nine.tnum" horiz-adv-x="1198" 
d="M574 674q114 0 186 87t72 215t-72 217t-184 89t-182 -85t-70 -219t68 -219t182 -85zM516 160q170 0 265 152t81 405q-29 -97 -122 -159t-212 -62q-176 0 -288 136t-111 346q0 210 118 343t320 133q244 0 365 -194t121 -498q0 -168 -31 -300t-72 -209t-96 -139
q-121 -136 -328 -135t-350 107l76 152q127 -78 264 -78z" />
    <glyph glyph-name="equal.tnum" horiz-adv-x="1202" 
d="M264 594h674v-150h-674v150zM264 924h674v-150h-674v150z" />
    <glyph glyph-name="cent.tnum" horiz-adv-x="1202" 
d="M692 -20h-96v174q-190 24 -305 174t-115 374t115 374q115 151 305 173v168h96v-164q127 -6 252 -73l-57 -156q-98 49 -201 49q-141 -1 -213 -109t-72 -266t75 -262t214 -104q100 0 207 53l51 -158q-133 -74 -256 -80v-167z" />
    <glyph glyph-name="sterling.tnum" horiz-adv-x="1222" 
d="M710 1257q-88 0 -137 -67q-47 -68 -47 -178v-264h398v-125h-398v-222q0 -80 -28 -137t-68 -80h617v-184h-861v182q4 2 23 9t44 40q50 66 50 156v236h-88v125h88v251q-1 197 103 326t296 129t318 -164l-146 -127q-76 94 -164 94z" />
    <glyph glyph-name="yen.tnum" horiz-adv-x="1206" 
d="M711 518h200v-100h-200v-103h200v-100h-200v-215h-211v215h-201v100h201v103h-201v100h201v62l-430 854h225l309 -652h2l309 652h226l-430 -854v-62z" />
    <glyph glyph-name="multiply.tnum" horiz-adv-x="1204" 
d="M602 575l-215 -221l-88 82l217 228l-209 221l84 80l209 -215l209 215l82 -80l-207 -223l219 -228l-88 -80z" />
    <glyph glyph-name="divide.tnum" horiz-adv-x="1200" 
d="M494 322q0 48 32 80t74 32q43 0 76 -34t33 -78t-33 -79q-33 -34 -76 -34t-75 33q-31 33 -31 80zM186 737h828v-143h-828v143zM494 1014q0 47 31 80q32 32 76 32t77 -32t33 -81q0 -48 -33 -81t-77 -33t-76 34q-31 34 -31 81z" />
    <glyph glyph-name="Euro.tnum" horiz-adv-x="1206" 
d="M377 719q0 -47 6 -86h522l-39 -113h-463q43 -168 161 -256t286 -88t317 80v-203q-154 -74 -333 -73q-250 0 -433 143q-182 143 -231 397h-174l39 113h117q-8 94 0 158h-164l39 112h141q47 255 229 403t437 148q223 -6 383 -108l-62 -172q-133 84 -303 84t-289 -93
q-119 -92 -162 -262h598l-38 -112h-580q-4 -25 -4 -72z" />
    <glyph glyph-name="agrave.alt" 
d="M485 1085q103 0 185 -51t114 -129l31 160h172v-1065h-207v158q-43 -86 -127 -132t-178 -46q-182 0 -293 160q-110 160 -110 391q0 232 114 394q115 160 299 160zM543 897q-111 0 -183 -104q-72 -105 -72 -263t72 -260q70 -102 181 -102t181 101t71 261t-69 264t-181 103z
M385 1491l147 74l125 -359h-135z" />
    <glyph glyph-name="acircumflex.alt" 
d="M485 1085q103 0 185 -51t114 -129l31 160h172v-1065h-207v158q-43 -86 -127 -132t-178 -46q-182 0 -293 160q-110 160 -110 391q0 232 114 394q115 160 299 160zM543 897q-111 0 -183 -104q-72 -105 -72 -263t72 -260q70 -102 181 -102t181 101t71 261t-69 264t-181 103z
M451 1206h-144l199 273h160l198 -273h-143l-135 187z" />
    <glyph glyph-name="aacute.alt" 
d="M485 1085q103 0 185 -51t114 -129l31 160h172v-1065h-207v158q-43 -86 -127 -132t-178 -46q-182 0 -293 160q-110 160 -110 391q0 232 114 394q115 160 299 160zM543 897q-111 0 -183 -104q-72 -105 -72 -263t72 -260q70 -102 181 -102t181 101t71 261t-69 264t-181 103z
M567 1565l148 -74l-137 -285h-136z" />
    <glyph glyph-name="adieresis.alt" 
d="M485 1085q103 0 185 -51t114 -129l31 160h172v-1065h-207v158q-43 -86 -127 -132t-178 -46q-182 0 -293 160q-110 160 -110 391q0 232 114 394q115 160 299 160zM543 897q-111 0 -183 -104q-72 -105 -72 -263t72 -260q70 -102 181 -102t181 101t71 261t-69 264t-181 103z
M355 1212q-47 0 -75 30t-28 76t30 77t74 31t75 -30q30 -30 30 -77t-30 -77t-76 -30zM651 1318q0 46 31 77t75 31q45 0 75 -30t30 -77t-31 -77t-77 -30t-74 30q-29 30 -29 76z" />
    <glyph glyph-name="aring.alt" 
d="M485 1085q103 0 185 -51t114 -129l31 160h172v-1065h-207v158q-43 -86 -127 -132t-178 -46q-182 0 -293 160q-110 160 -110 391q0 232 114 394q115 160 299 160zM543 897q-111 0 -183 -104q-72 -105 -72 -263t72 -260q70 -102 181 -102t181 101t71 261t-69 264t-181 103z
M459 1391q-1 -49 27 -77t71 -28t71 28t27 77q1 49 -27 77t-71 27q-43 1 -71 -27t-27 -77zM373 1391q0 82 54 133t130 51t130 -51t54 -133q0 -81 -54 -133t-130 -52t-130 52t-54 133z" />
    <glyph glyph-name="aogonek.alt" horiz-adv-x="1110" 
d="M543 897q-111 0 -183 -104q-72 -105 -72 -263t72 -260q70 -102 181 -102t181 101t71 261t-69 264t-181 103zM485 1085q103 0 185 -51t114 -129l31 160h172v-1065h-22q-43 -20 -76 -76t-33 -119q0 -80 82 -79q27 0 49 8l19 -74q-45 -29 -117 -29t-110 45t-38 113
q0 131 93 211h-54v158q-43 -86 -127 -132t-178 -46q-182 0 -293 160q-110 160 -110 391q0 232 114 394q115 160 299 160z" />
    <glyph glyph-name="amacron.alt" 
d="M485 1085q103 0 185 -51t114 -129l31 160h172v-1065h-207v158q-43 -86 -127 -132t-178 -46q-182 0 -293 160q-110 160 -110 391q0 232 114 394q115 160 299 160zM543 897q-111 0 -183 -104q-72 -105 -72 -263t72 -260q70 -102 181 -102t181 101t71 261t-69 264t-181 103z
M283 1370h536v-131h-536v131z" />
    <glyph glyph-name="atilde.alt" 
d="M485 1085q103 0 185 -51t114 -129l31 160h172v-1065h-207v158q-43 -86 -127 -132t-178 -46q-182 0 -293 160q-110 160 -110 391q0 232 114 394q115 160 299 160zM543 897q-111 0 -183 -104q-72 -105 -72 -263t72 -260q70 -102 181 -102t181 101t71 261t-69 264t-181 103z
M463 1444q49 0 119 -44t114 -44t90 69l56 -45q-76 -160 -189 -159q-53 0 -119 43t-113 43q-46 0 -91 -68l-58 49q80 156 191 156z" />
    <glyph glyph-name="abreve.alt" 
d="M485 1085q103 0 185 -51t114 -129l31 160h172v-1065h-207v158q-43 -86 -127 -132t-178 -46q-182 0 -293 160q-110 160 -110 391q0 232 114 394q115 160 299 160zM543 897q-111 0 -183 -104q-72 -105 -72 -263t72 -260q70 -102 181 -102t181 101t71 261t-69 264t-181 103z
M553 1313q129 0 139 133h103q-16 -250 -242 -250t-242 250h103q10 -133 139 -133z" />
    <glyph glyph-name="gbreve.alt" 
d="M542 256q116 0 182 94t64 228q0 134 -65 226q-65 93 -181 93t-183 -91t-67 -229t67 -230q67 -91 183 -91zM485 -156q131 0 211 71t80 206v112q-34 -73 -112 -117t-172 -44q-166 0 -291 134t-125 371t125 373t291 135q104 0 187 -54t114 -124l30 158h164v-891
q0 -256 -127 -389t-339 -133t-386 106l68 168q150 -82 282 -82zM551 1313q129 0 139 133h103q-16 -250 -242 -250t-242 250h103q10 -133 139 -133z" />
    <glyph glyph-name="gcircumflex.alt" 
d="M542 256q116 0 182 94t64 228q0 134 -65 226q-65 93 -181 93t-183 -91t-67 -229t67 -230q67 -91 183 -91zM485 -156q131 0 211 71t80 206v112q-34 -73 -112 -117t-172 -44q-166 0 -291 134t-125 371t125 373t291 135q104 0 187 -54t114 -124l30 158h164v-891
q0 -256 -127 -389t-339 -133t-386 106l68 168q150 -82 282 -82zM420 1210h-144l199 273h160l199 -273h-144l-135 187z" />
    <glyph glyph-name="gcommaaccent.alt" 
d="M542 256q116 0 182 94t64 228q0 134 -65 226q-65 93 -181 93t-183 -91t-67 -229t67 -230q67 -91 183 -91zM485 -156q131 0 211 71t80 206v112q-34 -73 -112 -117t-172 -44q-166 0 -291 134t-125 371t125 373t291 135q104 0 187 -54t114 -124l30 158h164v-891
q0 -256 -127 -389t-339 -133t-386 106l68 168q150 -82 282 -82zM533 1208q-47 0 -76 41t-29 105q0 143 150 231l32 -59q-90 -74 -88 -170q8 24 39 24t50 -24t19 -58t-24 -62q-26 -28 -73 -28z" />
    <glyph glyph-name="gdotaccent.alt" 
d="M542 256q116 0 182 94t64 228q0 134 -65 226q-65 93 -181 93t-183 -91t-67 -229t67 -230q67 -91 183 -91zM485 -156q131 0 211 71t80 206v112q-34 -73 -112 -117t-172 -44q-166 0 -291 134t-125 371t125 373t291 135q104 0 187 -54t114 -124l30 158h164v-891
q0 -256 -127 -389t-339 -133t-386 106l68 168q150 -82 282 -82zM440 1319q0 45 31 76t75 31t74 -32q30 -30 30 -75t-30 -77t-75 -32t-75 32t-30 77z" />
    <glyph glyph-name="J.alt" horiz-adv-x="593" 
d="M223 195v1038l-133 31v170h350v-1209q1 -358 -368 -512l-72 156q223 137 223 326z" />
    <glyph glyph-name="Jcircumflex.alt" horiz-adv-x="595" 
d="M223 195v1038l-133 31v170h350v-1209q1 -358 -368 -512l-72 156q223 137 223 326zM152 1530h-144l199 272h160l198 -272h-143l-135 186z" />
    <glyph glyph-name="j.alt" horiz-adv-x="497" 
d="M250 1223q-55 0 -91 39t-36 94t36 94t91 39t91 -39t36 -94t-36 -94t-91 -39zM70 1065h303v-975q0 -180 -91 -290t-200 -148l-74 141q154 98 154 260v840l-92 22v150z" />
    <glyph glyph-name="jcircumflex.alt" horiz-adv-x="495" 
d="M68 1065h303v-975q0 -180 -91 -290t-200 -148l-74 141q154 98 154 260v840l-92 22v150zM94 1206h-143l199 273h159l199 -273h-143l-136 187z" />
    </font>
</defs>
</svg>
