<?xml version="1.0" standalone="no"?>
<!DOCTYPE svg PUBLIC "-//W3C//DTD SVG 1.1//EN" "http://www.w3.org/Graphics/SVG/1.1/DTD/svg11.dtd" >
<svg xmlns="http://www.w3.org/2000/svg">
<metadata>
Created by FontPrep 20130207 at Wed Nov 20 02:17:57 2013
 By MacMini
Copyright (c) 2011 by typedepot. All rights reserved.
</metadata>
<defs>
<font id="d6af579292c57141dd4d73bd8e7332f1" horiz-adv-x='1024' >
  <font-face 
    font-family="CentraleSansBook-Italic"
    font-weight="400"
    font-style="italic"
    font-stretch="normal"
    units-per-em="2048"
    panose-1="0 0 0 0 0 0 0 0 0 0"
    ascent="1536"
    descent="-512"
    x-height="1065"
    cap-height="1434"
    bbox="-510 -406 2806 1903.02"
    underline-thickness="102"
    underline-position="-102"
    slope="-10"
    unicode-range="U+000D-FB04"
  />
<missing-glyph horiz-adv-x="1286" 
d="M385 1257l-223 -1265l442 637zM1157 1257l-444 -636l219 -629zM1139 1401h-697l232 -670zM877 -150l-234 668l-465 -668h699zM1294 1499l-307 -1747h-962l307 1747h962z" />
    <glyph glyph-name="f_f" unicode="ff" horiz-adv-x="1302" 
d="M1223 1526q98 0 213 -27l-29 -119q-63 23 -145 23q-172 0 -205 -195l-25 -143h305l-20 -117h-307l-201 -1173h-166l203 1173h-418l-205 -1173h-164l205 1173h-153l22 117h154l22 131q25 154 99 236t225 81q86 0 192 -24l-30 -119q-74 20 -121 21q-166 0 -203 -195
l-22 -131h419l27 145q27 147 101 232q75 84 227 84z" />
    <glyph glyph-name="f_f_i" unicode="ffi" horiz-adv-x="1744" 
d="M1579 1331q-101 78 -271 78q-96 0 -166 -58t-87 -163l-23 -123h635l-188 -1065h-162l168 948h-475l-205 -1173h-162l205 1173h-420l-207 -1173h-162l207 1173h-155l22 117h154l22 131q25 154 100 236t232 81q92 0 184 -24l-30 -119q-66 20 -121 21q-166 0 -203 -195
l-22 -131h419l23 119q31 166 144 254q114 88 291 88t308 -101z" />
    <glyph glyph-name="f_f_l" unicode="ffl" horiz-adv-x="1804" 
d="M1588 113q50 0 79 4l-18 -119q-47 -12 -147 -12t-138 45q-37 45 -18 157l159 916q12 66 13 92q0 102 -56 154t-155 51q-98 0 -169 -67t-94 -189l-14 -80h260l-20 -117h-262l-203 -1173h-162l203 1173h-420l-205 -1173h-162l205 1173h-153l20 117h154l26 141
q25 144 101 226t235 81q98 0 191 -26l-31 -117q-74 20 -139 21q-164 0 -197 -185l-25 -141h420l19 84q31 170 136 273q105 104 279 104t277 -80q102 -80 102 -240q0 -31 -14 -119l-156 -888q-7 -51 11 -69t68 -17z" />
    <glyph glyph-name=".notdef" horiz-adv-x="1286" 
d="M385 1257l-223 -1265l442 637zM1157 1257l-444 -636l219 -629zM1139 1401h-697l232 -670zM877 -150l-234 668l-465 -668h699zM1294 1499l-307 -1747h-962l307 1747h962z" />
    <glyph glyph-name=".null" horiz-adv-x="0" 
 />
    <glyph glyph-name=".null" horiz-adv-x="0" 
 />
    <glyph glyph-name="nonmarkingreturn" horiz-adv-x="681" 
 />
    <glyph glyph-name="CR" unicode="&#xd;" horiz-adv-x="600" 
 />
    <glyph glyph-name="space" unicode=" " horiz-adv-x="542" 
 />
    <glyph glyph-name="exclam" unicode="!" horiz-adv-x="555" 
d="M198 164q46 0 72 -25t23 -65q-2 -40 -28 -68q-25 -26 -71 -26t-73 22t-24 66t29 70t72 26zM518 1440l-211 -1053h-135l162 1053h184z" />
    <glyph glyph-name="quotedbl" unicode="&#x22;" horiz-adv-x="860" 
d="M514 1434l-186 -529h-105l117 529h174zM860 1434l-188 -529h-105l119 529h174z" />
    <glyph glyph-name="numbersign" unicode="#" horiz-adv-x="1605" 
d="M692 946l-168 -473h430l168 473h-430zM1579 1085l-49 -139h-268l-168 -473h272l-49 -137h-270l-119 -336h-140l119 336h-430l-119 -336h-145l119 336h-275l52 137h272l170 473h-277l50 139h276l125 351h139l-123 -351h430l123 351h140l-123 -351h268z" />
    <glyph glyph-name="dollar" unicode="$" horiz-adv-x="1228" 
d="M742 1315q-188 0 -264 -70q-75 -70 -75 -169t68 -154q69 -54 199 -108t182 -80q158 -80 201 -182q27 -62 26 -146q0 -178 -122 -300t-382 -126l-30 -170h-105l31 174q-229 20 -422 141l55 131q252 -145 469 -137q164 2 244 75t80 183q0 57 -19 99q-18 42 -70 76
q-64 42 -188 92q-124 49 -180 79q-57 31 -112 75q-107 86 -107 257q0 173 125 285t377 114l33 178h96l-33 -182q190 -14 391 -131l-61 -135q-219 131 -407 131z" />
    <glyph glyph-name="percent" unicode="%" horiz-adv-x="1710" 
d="M1485 1436l-1077 -1436h-136l1080 1436h133zM531 1350q-93 0 -157 -77t-64 -189t48 -162q50 -52 144 -52t155 76t62 201q0 203 -188 203zM557 1456q133 0 210 -78t77 -217q0 -183 -100 -289t-273 -106q-133 0 -211 78t-78 213q0 183 100 291t275 108zM1454 362
q0 205 -188 205q-94 0 -158 -77t-64 -188q0 -110 50 -162t143 -52q94 0 156 76q61 76 61 198zM1292 674q133 0 210 -78t77 -215q0 -185 -99 -291t-274 -106q-133 0 -211 78t-77 212q0 184 100 292t274 108z" />
    <glyph glyph-name="ampersand" unicode="&#x26;" horiz-adv-x="1333" 
d="M854 1162q0 162 -173 163q-83 0 -151 -56q-67 -57 -67 -161q-1 -53 23 -103t83 -139q145 80 215 148t70 148zM469 119q182 0 354 141l-317 455q-143 -74 -221 -153t-78 -200q-1 -121 71 -182t191 -61zM682 1452q144 0 228 -70q85 -70 85 -200t-92 -219q-92 -90 -272 -185
l295 -420q80 86 202 273l109 -62q-119 -190 -240 -315l179 -254h-172l-111 158q-217 -176 -457 -176q-172 0 -280 86t-107 262q0 176 121 284t276 187q-68 98 -96 163q-29 65 -28 144q0 164 108 254t252 90z" />
    <glyph glyph-name="quotesingle" unicode="'" horiz-adv-x="514" 
d="M514 1434l-186 -529h-105l115 529h176z" />
    <glyph glyph-name="parenleft" unicode="(" horiz-adv-x="724" 
d="M248 330q0 -208 77 -414q77 -205 167 -299h-170q-92 102 -165 307q-73 206 -73 426q0 417 194 727q164 266 353 422h184q-149 -116 -280 -291q-82 -109 -143 -226q-144 -283 -144 -652z" />
    <glyph glyph-name="parenright" unicode=")" horiz-adv-x="720" 
d="M434 765q0 228 -76 434t-165 300h169q90 -104 164 -309q74 -204 74 -424q0 -545 -368 -972q-87 -101 -179 -177h-184q181 144 350 391q96 141 156 335q59 194 59 422z" />
    <glyph glyph-name="asterisk" unicode="*" horiz-adv-x="827" 
d="M561 1544l103 -26l-76 -252l246 100l30 -102l-256 -64l207 -162l-78 -82l-180 195l-37 -262l-104 24l78 254l-250 -104l-31 106l258 64l-207 162l76 80l182 -193z" />
    <glyph glyph-name="plus" unicode="+" horiz-adv-x="1161" 
d="M741 1135l-69 -392h389l-23 -120h-389l-67 -381h-123l65 381h-379l21 120h381l69 392h125z" />
    <glyph glyph-name="comma" unicode="," horiz-adv-x="501" 
d="M169 158q48 0 78 -37t29 -98q0 -94 -67 -173q-68 -78 -166 -116l-35 45q66 31 117 88t53 129q0 10 -2 14q-18 -18 -47 -18q-68 0 -68 71q0 43 30 69t78 26z" />
    <glyph glyph-name="hyphen" unicode="-" horiz-adv-x="1040" 
d="M885 614l-25 -127h-733l25 127h733z" />
    <glyph glyph-name="period" unicode="." horiz-adv-x="473" 
d="M156 166q46 0 70 -24t22 -64q-6 -92 -98 -92q-43 0 -68 22t-23 66q7 92 97 92z" />
    <glyph glyph-name="slash" unicode="/" horiz-adv-x="911" 
d="M1112 1503l-1167 -1851h-154l1163 1851h158z" />
    <glyph glyph-name="zero" unicode="0" horiz-adv-x="1437" 
d="M813 1313q-170 -1 -284 -103q-115 -102 -163 -253t-56 -368t93 -343q103 -126 273 -125q170 0 282 103t161 255q47 152 55 368t-92 341t-269 125zM813 1452q249 0 399 -161t140 -462q-8 -346 -173 -588q-81 -120 -213 -190t-298 -69q-248 0 -398 162t-139 464
q8 344 173 586q81 118 212 188t297 70z" />
    <glyph glyph-name="one" unicode="1" horiz-adv-x="737" 
d="M682 1436l-252 -1436h-170l223 1270l-278 -131l-47 121l391 176h133z" />
    <glyph glyph-name="two" unicode="2" horiz-adv-x="1228" 
d="M700 1458q470 0 469 -397q0 -154 -89 -279t-292 -270l-509 -371h743l-25 -141h-985l23 129l659 489q160 122 229 218t69 221t-85 193t-235 69q-150 0 -385 -115l-33 133q214 121 446 121z" />
    <glyph glyph-name="three" unicode="3" horiz-adv-x="1144" 
d="M622 1458q204 0 324 -91q121 -91 121 -243t-92 -244q-92 -93 -254 -118q135 -35 209 -126t74 -228q0 -205 -152 -318t-399 -113q-137 0 -265 34t-206 81l47 125q177 -100 381 -100t310 83q105 83 105 233t-113 214q-95 53 -218 53h-152l23 127h151q150 -1 262 63t113 186
q0 122 -81 180q-80 58 -224 58t-336 -79l-29 127q197 96 401 96z" />
    <glyph glyph-name="four" unicode="4" horiz-adv-x="1282" 
d="M954 1217l-710 -744h581zM1157 1436l-170 -963h184l-22 -131h-184l-62 -342h-164l60 342h-766l18 123l946 971h160z" />
    <glyph glyph-name="five" unicode="5" horiz-adv-x="1208" 
d="M666 893q208 0 324 -112t116 -312q0 -236 -161 -365t-430 -129t-488 134l67 116q186 -115 394 -115t325 91q117 89 117 249t-88 240t-232 80t-309 -106l-100 67l174 703h799l-25 -140h-670l-119 -477q141 76 306 76z" />
    <glyph glyph-name="six" unicode="6" horiz-adv-x="1335" 
d="M698 776q-156 0 -259 -89t-121 -235t75 -244q92 -97 256 -97q92 1 171 29t142 107q62 79 70 199q12 162 -83 246t-251 84zM891 1452q213 0 403 -102l-65 -121q-162 86 -348 86q-240 0 -392 -182q-127 -156 -172 -410l-4 -18q150 197 445 196q209 0 336 -117
q128 -118 116 -330t-162 -342t-392 -130q-240 0 -371 122t-149 328q-18 205 49 429t204 374q201 217 502 217z" />
    <glyph glyph-name="seven" unicode="7" horiz-adv-x="1112" 
d="M1184 1434l-23 -127l-825 -1307h-205l836 1290h-787l25 144h979z" />
    <glyph glyph-name="eight" unicode="8" horiz-adv-x="1316" 
d="M756 1327q-146 0 -242 -74q-96 -73 -99 -189t80 -178t233 -62t241 64q92 64 96 180t-79 188q-84 72 -230 71zM630 100q174 0 284 82q108 82 113 220t-89 210q-94 74 -271 74t-288 -80t-116 -213t94 -213t273 -80zM762 1456q221 0 348 -102t123 -271q-6 -131 -92 -217
t-240 -114q150 -33 231 -128t74 -227q-8 -195 -166 -307t-412 -113q-254 0 -402 109q-146 109 -142 295q6 147 110 253t289 136q-119 33 -179 114t-56 191q4 172 148 277q145 104 366 104z" />
    <glyph glyph-name="nine" unicode="9" horiz-adv-x="1323" 
d="M736 1323q-154 0 -267 -80t-122 -249t85 -253t251 -84t260 88t119 236t-78 245t-248 97zM719 1452q242 0 373 -123t147 -338q23 -201 -41 -422t-197 -370q-197 -217 -503 -217q-217 0 -404 102l64 121q162 -86 352 -86q244 0 389 184q119 143 162 402v6
q-147 -178 -438 -179q-207 0 -335 116t-119 331t159 344t391 129z" />
    <glyph glyph-name="colon" unicode=":" horiz-adv-x="489" 
d="M287 918q45 0 69 -24t23 -65q-6 -92 -98 -92q-43 0 -68 23t-23 65q7 93 97 93zM154 166q46 0 70 -24t22 -64q-6 -92 -99 -92q-43 0 -67 22t-23 66q7 92 97 92z" />
    <glyph glyph-name="semicolon" unicode=";" horiz-adv-x="532" 
d="M303 737q-41 0 -67 23q-26 22 -23 64t27 68t68 26t71 -25t24 -64q-4 -92 -100 -92zM179 158q48 0 78 -38t30 -116t-68 -155t-166 -115l-35 45q66 29 117 86t53 131q0 8 -2 12q-18 -18 -47 -18q-68 0 -67 71q0 45 29 71q30 26 78 26z" />
    <glyph glyph-name="less" unicode="&#x3c;" horiz-adv-x="1189" 
d="M76 618l22 136l1112 366l-26 -145l-924 -293l821 -293l-24 -137z" />
    <glyph glyph-name="equal" unicode="=" horiz-adv-x="1087" 
d="M934 551l-19 -113h-768l19 113h768zM991 903l-18 -110h-766l18 110h766z" />
    <glyph glyph-name="greater" unicode="&#x3e;" horiz-adv-x="1189" 
d="M1167 756l-22 -135l-1112 -369l26 147l924 293l-821 291l24 137z" />
    <glyph glyph-name="question" unicode="?" horiz-adv-x="980" 
d="M372 164q44 0 70 -24t23 -66q-2 -42 -28 -69q-26 -26 -72 -25q-99 0 -95 90q2 42 30 68t72 26zM840 1122q0 201 -279 201q-135 0 -305 -90l-43 113q191 106 375 106t293 -78t108 -235q0 -100 -45 -175t-113 -122q-69 -47 -137 -90q-68 -42 -125 -102t-73 -134t-25 -141
h-127q18 217 98 315q55 68 121 111t129 86q148 101 148 235z" />
    <glyph glyph-name="at" unicode="@" horiz-adv-x="1916" 
d="M1196 631q0 272 -240 272q-80 0 -140 -32t-92 -85q-62 -103 -63 -230q-1 -128 65 -203t187 -74q151 0 217 105t66 247zM1051 1417q483 0 693 -304q110 -159 110 -395t-118 -390q-116 -152 -319 -152t-221 160q-92 -158 -309 -158q-166 0 -260 104t-90 283q4 178 106 307
t295 129q223 0 299 -176l37 166h117l-99 -555q-27 -170 142 -170q156 0 234 134t77 310q0 335 -211 482q-189 135 -487 135q-383 0 -609 -218q-226 -219 -227 -567t193 -516t511 -169q246 0 494 100l14 -90q-264 -98 -508 -98q-381 -1 -598 197t-217 560q0 399 259 645
q260 246 692 246z" />
    <glyph glyph-name="A" unicode="A" horiz-adv-x="1452" 
d="M862 1290h-2l-446 -782h616zM995 1440l318 -1440h-176l-78 369h-717l-203 -369h-186l811 1440h231z" />
    <glyph glyph-name="B" unicode="B" horiz-adv-x="1423" 
d="M870 791q121 -1 203 73t82 184t-70 179q-70 68 -180 67h-416l-88 -503h469zM805 139q129 0 217 80q88 79 88 189t-63 183t-170 73h-498l-92 -525h518zM954 1434q162 0 266 -98t105 -248q0 -148 -87 -240t-206 -115q110 -29 182 -115t72 -215q0 -183 -133 -293t-346 -110
h-719l252 1434h614z" />
    <glyph glyph-name="C" unicode="C" horiz-adv-x="1386" 
d="M950 1452q254 0 461 -127l-59 -123q-184 111 -398 111q-303 1 -475 -187t-172 -452q1 -264 147 -408t386 -145q178 0 387 90l35 -129q-215 -100 -447 -100q-305 0 -498 175t-193 511t234 560t592 224z" />
    <glyph glyph-name="D" unicode="D" horiz-adv-x="1550" 
d="M774 1294h-280l-205 -1155h362q279 0 454 177t175 466q0 244 -133 378t-373 134zM752 1434q326 0 518 -163t192 -500t-221 -554t-598 -217h-553l254 1434h408z" />
    <glyph glyph-name="E" unicode="E" horiz-adv-x="1327" 
d="M1348 1434l-25 -140h-829l-95 -524h717l-24 -139h-717l-86 -492h854l-25 -139h-1028l254 1434h1004z" />
    <glyph glyph-name="F" unicode="F" horiz-adv-x="1261" 
d="M1348 1434l-25 -140h-827l-99 -542h715l-25 -140h-712l-111 -612h-174l254 1434h1004z" />
    <glyph glyph-name="G" unicode="G" horiz-adv-x="1566" 
d="M956 1452q285 0 504 -117l-69 -125q-201 102 -430 103q-317 -1 -483 -183t-169 -475q-2 -242 138 -388t401 -146q193 0 381 108l59 357h-381l21 127h526l-96 -563q-254 -168 -558 -168t-489 176q-186 176 -184 489q2 357 229 581t600 224z" />
    <glyph glyph-name="H" unicode="H" horiz-adv-x="1558" 
d="M262 0h-176l254 1434h174l-115 -652h818l116 652h174l-254 -1434h-174l113 643h-817z" />
    <glyph glyph-name="I" unicode="I" horiz-adv-x="569" 
d="M516 1434l-256 -1434h-174l256 1434h174z" />
    <glyph glyph-name="J" unicode="J" horiz-adv-x="1126" 
d="M406 121q124 0 208 81t115 247l174 985h174l-176 -990q-39 -225 -163 -344q-124 -118 -323 -118t-291 87q-93 87 -124 169l111 86q86 -203 295 -203z" />
    <glyph glyph-name="K" unicode="K" horiz-adv-x="1398" 
d="M1456 1434l-606 -549l391 -885h-199l-327 762l-377 -342l-74 -420h-174l254 1434h174l-143 -795l874 795h207z" />
    <glyph glyph-name="L" unicode="L" horiz-adv-x="1148" 
d="M514 1434l-229 -1295h755l-24 -139h-930l254 1434h174z" />
    <glyph glyph-name="M" unicode="M" horiz-adv-x="1892" 
d="M1841 1434l-254 -1434h-174l170 961l59 270h-2l-696 -1071h-158l-319 1071h-4l-35 -270l-168 -961h-174l254 1434h238l319 -1102l692 1102h252z" />
    <glyph glyph-name="N" unicode="N" horiz-adv-x="1529" 
d="M1479 1434l-254 -1434h-183l-577 1169l-205 -1169h-174l254 1434h182l578 -1160l205 1160h174z" />
    <glyph glyph-name="O" unicode="O" horiz-adv-x="1679" 
d="M920 1313q-144 -1 -262 -57t-190 -152q-145 -195 -153 -452t128 -394t362 -137q147 0 264 57q117 56 189 152q143 191 151 450q8 258 -128 396t-361 137zM926 1452q305 0 489 -177t176 -489t-187 -543q-91 -118 -248 -190t-357 -71q-307 0 -491 177q-183 177 -175 489
t188 544q91 120 247 190t358 70z" />
    <glyph glyph-name="P" unicode="P" horiz-adv-x="1404" 
d="M897 1294h-405l-113 -632h475q176 0 271 97t95 230t-80 219q-81 86 -243 86zM942 1434q221 0 340 -126t119 -309t-123 -323q-60 -70 -164 -112t-237 -42h-523l-92 -522h-174l254 1434h600z" />
    <glyph glyph-name="Q" unicode="Q" horiz-adv-x="1703" 
d="M790 119q210 0 349 100q259 186 270 567q8 252 -128 390t-346 137q-210 1 -349 -99q-256 -183 -271 -565q-7 -254 129 -392t346 -138zM799 -18q-307 0 -491 177q-183 177 -175 489t188 544q91 120 247 190t358 70q307 0 490 -178t175 -492q-9 -372 -249 -603
q-132 -128 -322 -173q233 -104 403 -139l-47 -137q-233 57 -563 252h-14z" />
    <glyph glyph-name="R" unicode="R" horiz-adv-x="1454" 
d="M899 741q154 0 248 79t94 204t-70 198t-198 72h-469l-101 -553h496zM1421 1043q0 -165 -102 -279t-283 -146l191 -618h-178l-175 602h-493l-105 -602h-174l252 1434h658q195 0 302 -113t107 -278z" />
    <glyph glyph-name="S" unicode="S" horiz-adv-x="1241" 
d="M203 1044q0 200 140 304q141 104 371 104t500 -119l-57 -137q-240 117 -429 117t-266 -70t-77 -169t69 -149t245 -118q303 -118 366 -200q63 -81 63 -208q0 -199 -136 -309t-382 -108q-326 0 -594 161l60 140q285 -164 542 -160q154 1 240 67t86 176t-74 159
q-74 51 -224 107t-194 76q-133 61 -182 123q-67 87 -67 213z" />
    <glyph glyph-name="T" unicode="T" horiz-adv-x="1212" 
d="M1335 1434l-24 -140h-494l-229 -1294h-174l229 1294h-496l25 140h1163z" />
    <glyph glyph-name="U" unicode="U" horiz-adv-x="1490" 
d="M686 -18q-256 0 -388 134t-132 316q0 47 6 90l160 912h174l-162 -916q-6 -35 -6 -67q0 -141 93 -235t266 -95q173 0 276 96q102 96 129 242l174 975h174l-170 -961q-38 -219 -188 -355t-406 -136z" />
    <glyph glyph-name="V" unicode="V" horiz-adv-x="1361" 
d="M1454 1434l-778 -1434h-227l-265 1434h176l232 -1254l668 1254h194z" />
    <glyph glyph-name="W" unicode="W" horiz-adv-x="2000" 
d="M2081 1434l-662 -1434h-215l-110 1171l-525 -1171h-213l-159 1434h170l133 -1227l538 1210h195l108 -1202l547 1219h193z" />
    <glyph glyph-name="X" unicode="X" horiz-adv-x="1349" 
d="M1460 1434l-661 -711l407 -723h-202l-324 586l-543 -586h-221l666 702l-412 732h201l336 -596l548 596h205z" />
    <glyph glyph-name="Y" unicode="Y" horiz-adv-x="1312" 
d="M637 0h-174l100 580l-360 854h172l295 -721l549 721h186l-670 -869z" />
    <glyph glyph-name="Z" unicode="Z" horiz-adv-x="1267" 
d="M1325 1434l-20 -117l-1078 -1182l432 4h447l-25 -139h-1114l21 117l1081 1181l-422 -4h-422l25 140h1075z" />
    <glyph glyph-name="bracketleft" unicode="[" horiz-adv-x="614" 
d="M666 1452l-21 -127h-203l-278 -1573h203l-21 -127h-338l320 1827h338z" />
    <glyph glyph-name="backslash" unicode="\" horiz-adv-x="995" 
d="M238 1503h127l432 -1575h-131z" />
    <glyph glyph-name="bracketright" unicode="]" horiz-adv-x="614" 
d="M588 1452l-320 -1827h-338l23 127h203l278 1573h-203l19 127h338z" />
    <glyph glyph-name="underscore" unicode="_" horiz-adv-x="1175" 
d="M891 -164l-23 -117h-872l22 117h873z" />
    <glyph glyph-name="grave" unicode="`" horiz-adv-x="483" 
d="M266 1460h152l78 -301h-119z" />
    <glyph glyph-name="a" unicode="a" horiz-adv-x="1308" 
d="M647 956q-195 0 -298 -145t-103 -323t90 -278q90 -99 250 -99q102 0 182 44q80 45 125 115q94 147 93 317q-1 171 -91 270t-248 99zM618 1079q147 0 260 -68q112 -69 154 -186l49 240h154l-137 -795l-35 -270h-156l21 158q-138 -172 -372 -172t-354 132t-121 368t140 415
q141 178 397 178z" />
    <glyph glyph-name="b" unicode="b" horiz-adv-x="1304" 
d="M641 113q102 0 181 43q79 44 124 114q90 141 89 310q-1 170 -89 271t-234 101t-240 -76q-167 -137 -167 -391q0 -168 90 -270t246 -102zM742 1079q224 0 342 -134t118 -363q0 -343 -235 -508q-125 -88 -290 -88t-274 68t-151 190l-49 -244h-152l264 1499h162l-100 -571
q140 151 365 151z" />
    <glyph glyph-name="c" unicode="c" horiz-adv-x="1114" 
d="M688 1079q201 0 356 -86l-57 -116q-139 74 -301 73q-204 0 -320 -127t-116 -321t104 -290t270 -97q166 0 296 73l32 -122q-168 -80 -348 -80q-225 0 -374 124q-148 124 -148 380t171 423q171 166 435 166z" />
    <glyph glyph-name="d" unicode="d" horiz-adv-x="1312" 
d="M647 952q-193 0 -294 -143t-101 -321t90 -275q90 -98 236 -98q146 1 239 77q170 138 170 398q0 168 -90 265t-250 97zM541 -14q-217 0 -336 131t-120 369t139 416q140 177 399 179q145 -1 257 -67t156 -180l117 665h162l-213 -1229l-35 -270h-143l20 170
q-145 -184 -403 -184z" />
    <glyph glyph-name="e" unicode="e" horiz-adv-x="1181" 
d="M700 954q-168 0 -288 -108t-158 -266q135 -16 231 -17q449 0 453 221q0 170 -238 170zM713 1079q177 1 285 -69t106 -219q-2 -338 -600 -338q-137 0 -262 18v-4q-2 -176 94 -266t284 -90t338 79l33 -112q-157 -92 -403 -92t-381 122t-132 362t176 424q173 185 462 185z
" />
    <glyph glyph-name="f" unicode="f" horiz-adv-x="718" 
d="M668 1391q-86 1 -132 -49t-65 -146l-25 -131h304l-21 -117h-303l-207 -1173h-164l207 1173h-151l20 117h154l22 131q25 154 101 236t235 81q117 0 207 -28l-35 -117q-61 23 -147 23z" />
    <glyph glyph-name="g" unicode="g" horiz-adv-x="1282" 
d="M631 952q-171 0 -273 -125t-104 -297t83 -270t259 -98t272 127t102 302t-82 268q-87 93 -257 93zM616 1079q158 0 264 -69q105 -70 142 -185l49 240h150l-172 -977q-74 -440 -564 -440q-262 0 -462 125l47 118q180 -115 411 -114q346 0 402 307l18 111
q-119 -160 -371 -160q-206 0 -326 125q-120 124 -117 366t148 398t381 155z" />
    <glyph glyph-name="h" unicode="h" horiz-adv-x="1236" 
d="M758 1079q186 0 270 -100t84 -256q0 -47 -12 -129l-107 -594h-162l105 594q10 70 10 104q0 117 -61 186q-61 68 -203 68t-240 -106t-131 -289l-98 -557h-162l264 1499h162l-104 -594q135 174 385 174z" />
    <glyph glyph-name="i" unicode="i" horiz-adv-x="512" 
d="M432 1065l-186 -1065h-164l168 948h-131l20 117h293zM369 1427q51 1 75 -21t21 -60q0 -86 -98 -86t-93 81q5 86 95 86z" />
    <glyph glyph-name="j" unicode="j" horiz-adv-x="520" 
d="M400 1421q95 0 89 -88q-6 -84 -100 -84q-47 0 -72 23t-22 61q10 88 105 88zM-18 -358h-101l25 133h51q69 -1 93 25t36 98l186 1050h-139l21 117h301l-209 -1188q-20 -129 -82 -182t-182 -53z" />
    <glyph glyph-name="k" unicode="k" horiz-adv-x="1105" 
d="M483 1499l-174 -981l635 547h189l-469 -403l297 -662h-170l-248 557l-269 -231l-57 -326h-162l267 1499h161z" />
    <glyph glyph-name="l" unicode="l" horiz-adv-x="536" 
d="M322 113q50 0 79 4l-18 -119q-47 -12 -147 -12t-138 45q-37 45 -18 157l231 1311h162l-229 -1300q-8 -51 10 -69t68 -17z" />
    <glyph glyph-name="m" unicode="m" horiz-adv-x="1853" 
d="M712 1079q232 0 298 -221q59 106 162 164q104 58 220 57q116 0 190 -40q74 -41 102 -105q67 -146 32 -301l-110 -633h-162l108 631q23 137 -23 230q-45 93 -175 93t-214 -87t-118 -244l-109 -623h-163l114 645q8 39 8 84q0 97 -54 161t-181 64t-207 -102t-102 -248
l-107 -604h-164l142 799l28 266h148l-17 -147q122 161 354 161z" />
    <glyph glyph-name="n" unicode="n" horiz-adv-x="1224" 
d="M758 1079q181 0 263 -96t79 -225q-2 -66 -13 -135l-108 -623h-162l107 621q24 141 -26 237t-209 96t-260 -114t-132 -285l-98 -555h-162l135 766l33 299h149l-20 -186q148 200 424 200z" />
    <glyph glyph-name="o" unicode="o" horiz-adv-x="1275" 
d="M641 950q-172 0 -280 -135q-109 -135 -111 -323t90 -282q92 -95 248 -95q190 0 299 135q109 134 113 322t-92 283q-95 95 -267 95zM670 1079q223 0 361 -128q138 -129 135 -379q-2 -250 -158 -418t-428 -168q-223 0 -362 128q-138 128 -135 378t160 419q157 168 427 168z
" />
    <glyph glyph-name="p" unicode="p" horiz-adv-x="1304" 
d="M700 950q-197 0 -298 -145t-101 -321t90 -274q90 -97 248 -97q102 0 181 42q79 43 124 113q94 147 93 316q-1 170 -90 268t-247 98zM748 1079q216 0 336 -131q120 -132 120 -370t-140 -415t-396 -179q-150 0 -260 66t-156 183l-102 -581h-162l196 1116l35 297h141
l-20 -176q154 190 408 190z" />
    <glyph glyph-name="q" unicode="q" horiz-adv-x="1298" 
d="M578 115q146 -1 238 75q171 139 171 400q0 166 -90 263t-246 97q-100 0 -179 -44q-141 -79 -194 -267q-24 -82 -24 -164q0 -166 89 -263t235 -97zM1241 1065l-250 -1413h-162l89 495q-136 -161 -364 -161t-347 130t-121 355q0 345 240 516q124 90 284 92q160 3 272 -65
t158 -185l50 236h151z" />
    <glyph glyph-name="r" unicode="r" horiz-adv-x="706" 
d="M719 1065l-37 -160q-152 20 -246 -78t-127 -288l-96 -539h-162l146 813l28 252h148l-23 -201q52 106 150 166t219 35z" />
    <glyph glyph-name="s" unicode="s" horiz-adv-x="997" 
d="M542 1079q175 0 390 -92l-49 -108q-190 80 -326 79q-246 0 -246 -165q0 -70 50 -104q51 -34 147 -66q96 -33 132 -45t87 -39t74 -55q59 -72 59 -175q0 -159 -112 -241t-323 -82q-210 0 -419 129l51 110q199 -121 383 -119q252 4 252 181q0 79 -54 115t-160 68t-144 48
t-90 48q-99 62 -99 210t111 226t286 77z" />
    <glyph glyph-name="t" unicode="t" horiz-adv-x="745" 
d="M295 213q0 -59 33 -84q32 -25 102 -25t143 25l-10 -111q-80 -32 -206 -32t-178 50t-52 144q0 43 14 119l113 649h-154l21 117h155l80 307h136l-54 -307h307l-22 -117h-307l-111 -645q-10 -82 -10 -90z" />
    <glyph glyph-name="u" unicode="u" horiz-adv-x="1253" 
d="M446 -14q-181 0 -264 97t-80 224q2 66 13 135l110 623h164l-110 -621q-25 -141 26 -237t210 -96q159 1 259 115t131 284l99 555h163l-135 -766l-33 -299h-149l18 184q-154 -198 -422 -198z" />
    <glyph glyph-name="v" unicode="v" horiz-adv-x="1079" 
d="M1102 1065l-596 -1065h-193l-198 1063h164l161 -893l478 895h184z" />
    <glyph glyph-name="w" unicode="w" horiz-adv-x="1677" 
d="M1696 1065l-518 -1065h-189l-119 844l-413 -844h-191l-139 1065h158l112 -891l439 891h145l121 -887l420 887h174z" />
    <glyph glyph-name="x" unicode="x" horiz-adv-x="1075" 
d="M1122 1065l-487 -524l303 -541h-174l-244 430l-393 -430h-180l487 535l-301 530h178l242 -424l393 424h176z" />
    <glyph glyph-name="y" unicode="y" horiz-adv-x="1142" 
d="M148 -356q-106 0 -209 28l28 123q179 -53 277 18q55 40 108 134l27 51l-256 1067h170l201 -911l483 911h178l-633 -1145q-92 -166 -180 -221t-194 -55z" />
    <glyph glyph-name="z" unicode="z" horiz-adv-x="1052" 
d="M1055 1065l-23 -131l-829 -823l340 6h356l-22 -117h-900l23 127l831 825l-327 -4h-342l22 117h871z" />
    <glyph glyph-name="braceleft" unicode="{" horiz-adv-x="677" 
d="M338 -365q-162 0 -212 73t-26 212l78 451q18 123 -88 123h-27l19 102h18q121 0 138 104l86 484q26 136 92 202t213 66h108l-20 -121h-72q-164 0 -192 -164l-82 -477q-20 -129 -156 -145q125 -18 98 -170l-80 -455q-14 -82 16 -123t118 -41h71l-22 -121h-78z" />
    <glyph glyph-name="bar" unicode="|" horiz-adv-x="630" 
d="M389 1630v-1943h-133v1943h133z" />
    <glyph glyph-name="braceright" unicode="}" horiz-adv-x="675" 
d="M322 1452q162 0 212 -73t25 -212l-78 -450q-18 -123 88 -123h27l-18 -102h-19q-121 0 -137 -105l-86 -483q-26 -137 -92 -203t-213 -66h-109l21 121h71q164 0 193 164l82 477q20 129 155 146q-125 18 -98 170l80 454q14 82 -15 123q-30 41 -118 41h-72l23 121h78z" />
    <glyph glyph-name="exclamdown" unicode="&#xa1;" horiz-adv-x="516" 
d="M322 1081q46 -1 72 -23t24 -65t-29 -69t-72 -25q-45 0 -71 24t-25 66q9 92 101 92zM344 674l-164 -1053h-182l209 1053h137z" />
    <glyph glyph-name="cent" unicode="&#xa2;" horiz-adv-x="1120" 
d="M285 664q0 -186 103 -285q104 -100 270 -100t288 77l41 -106q-147 -96 -340 -96h-47l-35 -197h-94l37 211q-176 37 -284 159t-107 324q0 248 161 415t420 181l33 191h96l-32 -191q152 -14 280 -84l-53 -110q-123 70 -277 69q-213 0 -337 -136t-123 -322z" />
    <glyph glyph-name="sterling" unicode="&#xa3;" horiz-adv-x="1202" 
d="M465 530q0 -281 -193 -403h756l-20 -127h-998l19 119q39 8 89 37q50 28 85 68t63 118q29 78 29 154t-10 141h-156l16 90h127q-14 104 -14 211q0 256 142 385t376 129t410 -113l-68 -114q-174 94 -340 94t-259 -97t-93 -284q0 -92 16 -211h523l-15 -90h-493q8 -70 8 -107z
" />
    <glyph glyph-name="yen" unicode="&#xa5;" horiz-adv-x="1355" 
d="M1421 1434l-661 -852l-15 -68h261l-15 -80h-258l-20 -110h258l-15 -80h-256l-43 -244h-174l43 244h-258l15 80h256l20 110h-258l14 80h258l11 68l-361 852h172l297 -703l537 703h192z" />
    <glyph glyph-name="section" unicode="&#xa7;" horiz-adv-x="1239" 
d="M895 655q-70 47 -243 101t-199 65q-180 -129 -181 -260q0 -82 64 -128t182 -83q16 -6 118 -38t150 -50q178 129 179 260q0 86 -70 133zM741 1436q244 0 465 -103l-53 -125q-211 88 -383 88t-259 -56t-87 -153q0 -64 42 -100t103 -56q62 -19 123 -37q60 -18 116 -37
q230 -75 285 -181q26 -51 25 -121q0 -109 -72 -201t-157 -145q111 -79 111 -227t-130 -241q-128 -93 -372 -93t-465 102l53 127q197 -90 376 -90t266 56t87 153q0 63 -41 100t-102 57q-62 19 -124 36q-217 60 -324 132q-105 73 -103 205q0 109 73 201t156 147
q-110 78 -110 227t128 242t373 93z" />
    <glyph glyph-name="dieresis" unicode="&#xa8;" horiz-adv-x="745" 
d="M707 1372q47 0 69 -22t21 -62q0 -86 -90 -86q-45 0 -69 23t-22 63q5 84 91 84zM289 1372q47 0 71 -22t23 -62q-4 -86 -94 -86q-43 0 -67 23t-21 63q4 84 88 84z" />
    <glyph glyph-name="copyright" unicode="&#xa9;" horiz-adv-x="1703" 
d="M879 1372q-273 0 -461 -185t-188 -466t186 -466q188 -185 462 -185t461 185q188 185 189 466q0 281 -188 466t-461 185zM915 1092q121 0 213 -43l-24 -84q-84 33 -170 32q-135 -1 -207 -75t-72 -198t72 -199t209 -74q92 0 174 36l20 -86q-98 -45 -215 -45q-170 0 -276 98
t-107 271q0 171 106 269t277 98zM878 1442q306 0 515 -204t209 -515t-210 -517t-514 -206t-513 205t-209 517t208 516t514 204z" />
    <glyph glyph-name="ordfeminine" unicode="&#xaa;" horiz-adv-x="1005" 
d="M850 555l-19 -100h-679l18 100h680zM342 942q0 -127 161 -127q79 0 149 52t87 139l17 84q-82 16 -173 16t-166 -38t-75 -126zM658 1491q154 0 209 -60q54 -60 34 -184l-65 -373q-8 -41 22 -40q29 0 45 4l-16 -93q-72 -10 -88 -10q-90 0 -82 82l4 29q-78 -115 -262 -115
q-227 0 -228 193q1 129 101 192t260 64q82 0 176 -15l12 58q14 92 -17 131t-141 39t-249 -39l-2 94q133 43 287 43z" />
    <glyph glyph-name="guillemotleft" unicode="&#xab;" horiz-adv-x="1202" 
d="M1067 1022l80 -88l-410 -414l258 -403l-100 -74l-334 471l6 37zM590 1022l80 -88l-410 -414l258 -403l-100 -74l-334 471l6 37z" />
    <glyph glyph-name="registered" unicode="&#xae;" horiz-adv-x="1243" 
d="M754 1231h-146v-178h148q42 -1 66 25t24 63q0 90 -92 90zM541 1288h221q63 0 104 -42t41 -105q0 -104 -92 -137l86 -193h-74l-73 184h-148v-184h-65v477zM714 1452q-179 0 -293 -118t-114 -293t114 -291t293 -117q179 0 292 117q112 118 112 292t-112 292
q-113 118 -292 118zM713 1503q201 0 331 -131t132 -330q0 -200 -132 -330t-332 -130t-331 131t-131 329t131 330q131 131 332 131z" />
    <glyph glyph-name="macron" unicode="&#xaf;" horiz-adv-x="706" 
d="M801 1346l-19 -99h-610l16 99h613z" />
    <glyph glyph-name="degree" unicode="&#xb0;" horiz-adv-x="679" 
d="M460 1372q-70 0 -122 -52q-53 -52 -55 -138t47 -124q48 -38 122 -38t123 51t51 138t-46 125q-50 38 -120 38zM445 936q-115 0 -191 60t-74 188t84 200t199 72t193 -59t73 -186q-2 -127 -85 -201t-199 -74z" />
    <glyph glyph-name="plusminus" unicode="&#xb1;" horiz-adv-x="1161" 
d="M737 1128l-57 -329h391l-24 -121h-390l-57 -322h-123l55 322h-378l22 121h381l57 329h123zM971 250l-19 -107h-895l21 107h893z" />
    <glyph glyph-name="acute" unicode="&#xb4;" horiz-adv-x="565" 
d="M647 1473l-233 -304h-121l201 304h153z" />
    <glyph glyph-name="mu" unicode="&#xb5;" horiz-adv-x="1275" 
d="M574 -18q-112 0 -198 47t-118 125l-90 -502h-162l256 1413h162l-107 -598q-12 -76 -12 -105q0 -114 76 -184q77 -70 223 -70t231 97q85 96 109 239l111 621h162l-146 -823l-29 -242h-137l10 166q-53 -82 -141 -133t-200 -51z" />
    <glyph glyph-name="paragraph" unicode="&#xb6;" horiz-adv-x="1177" 
d="M707 -178l260 1489h-201l-262 -1489h-123l135 770h-59q-147 4 -225 99q-77 95 -76 245q0 231 143 364t334 134h479l-285 -1612h-120z" />
    <glyph glyph-name="periodcentered" unicode="&#xb7;" horiz-adv-x="563" 
d="M305 733q53 0 85 -32t28 -87q-12 -119 -135 -118q-53 0 -85 30t-28 88q12 119 135 119z" />
    <glyph glyph-name="cedilla" unicode="&#xb8;" horiz-adv-x="589" 
d="M336 -253q0 -77 -64 -115t-159 -38q-96 0 -166 29l18 78q57 -29 141 -29q117 0 117 72q0 78 -131 61l-29 37l95 172h94l-70 -135q55 2 105 -26q49 -29 49 -106z" />
    <glyph glyph-name="ordmasculine" unicode="&#xba;" horiz-adv-x="1101" 
d="M667 1384q-126 0 -203 -78t-82 -210q-4 -132 60 -194t189 -62t201 78t82 209q7 131 -57 194t-190 63zM934 555l-19 -100h-768l19 100h768zM670 1491q182 0 280 -89t92 -264t-118 -290t-296 -115q-182 0 -281 88t-93 264t120 291t296 115z" />
    <glyph glyph-name="guillemotright" unicode="&#xbb;" horiz-adv-x="1218" 
d="M41 131l410 412l-258 405l100 74l334 -471l-6 -37l-500 -471zM518 131l408 412l-256 405l100 74l334 -471l-6 -37l-500 -471z" />
    <glyph glyph-name="questiondown" unicode="&#xbf;" horiz-adv-x="978" 
d="M608 897q-44 0 -70 24q-26 25 -24 67t28 68t70 26t72 -24q27 -22 25 -67q-5 -94 -101 -94zM390 -391q-184 0 -293 77q-108 77 -107 234q0 100 45 176t111 123q67 47 137 90q174 107 202 238q10 43 23 139h129q-7 -74 -25 -161t-73 -155t-122 -111q-67 -44 -130 -87
q-148 -101 -148 -235q0 -101 72 -151q73 -50 201 -50t313 92l41 -113q-192 -106 -376 -106z" />
    <glyph glyph-name="Agrave" unicode="&#xc0;" horiz-adv-x="1452" 
d="M918 1755l69 -227h-110l-105 227h146zM862 1290h-2l-446 -782h616zM995 1440l318 -1440h-176l-78 369h-717l-203 -369h-186l811 1440h231z" />
    <glyph glyph-name="Aacute" unicode="&#xc1;" horiz-adv-x="1449" 
d="M1106 1757l-193 -229h-120l163 229h150zM862 1290h-2l-446 -782h616zM995 1440l318 -1440h-176l-78 369h-717l-203 -369h-186l811 1440h231z" />
    <glyph glyph-name="Acircumflex" unicode="&#xc2;" horiz-adv-x="1452" 
d="M598 1528l266 229h148l180 -229h-125l-133 166l-199 -166h-137zM862 1290h-2l-446 -782h616zM995 1440l318 -1440h-176l-78 369h-717l-203 -369h-186l811 1440h231z" />
    <glyph glyph-name="Atilde" unicode="&#xc3;" horiz-adv-x="1449" 
d="M754 1663q-68 0 -119 -78l-53 31q74 152 202 151q50 0 130 -44t120 -44q64 0 117 76l55 -29q-78 -152 -202 -151q-57 0 -125 43q-90 45 -125 45zM862 1290h-2l-446 -782h616zM995 1440l318 -1440h-176l-78 369h-717l-203 -369h-186l811 1440h231z" />
    <glyph glyph-name="Adieresis" unicode="&#xc4;" horiz-adv-x="1452" 
d="M1106 1735q45 0 68 -22t20 -60q0 -82 -88 -82q-41 -1 -65 21t-21 61q4 82 86 82zM690 1735q45 0 69 -22t21 -60q0 -82 -90 -82q-40 -1 -64 21t-22 61q4 82 86 82zM862 1290h-2l-446 -782h616zM995 1440l318 -1440h-176l-78 369h-717l-203 -369h-186l811 1440h231z" />
    <glyph glyph-name="Aring" unicode="&#xc5;" horiz-adv-x="1452" 
d="M934 1827q-109 0 -117 -119q-4 -51 27 -78q31 -26 79 -26q47 0 79 30t34 86q2 55 -27 81q-30 26 -75 26zM933 1903q87 0 142 -45q55 -46 53 -138t-60 -142t-146 -50t-145 46q-56 46 -52 138q5 92 63 142t145 49zM862 1290h-2l-446 -782h616zM995 1440l318 -1440h-176
l-78 369h-717l-203 -369h-186l811 1440h231z" />
    <glyph glyph-name="AE" unicode="&#xc6;" horiz-adv-x="2105" 
d="M1047 1294l-551 -759h469l135 759h-53zM109 0h-199l1057 1434h1159l-25 -140h-829l-94 -526h716l-24 -139h-717l-86 -490h858l-24 -139h-1031l72 395h-547z" />
    <glyph glyph-name="Ccedilla" unicode="&#xc7;" horiz-adv-x="1386" 
d="M950 1452q254 0 461 -127l-59 -123q-184 111 -398 111q-303 1 -475 -187t-172 -452q1 -264 147 -408t386 -145q178 0 387 90l35 -129q-215 -100 -447 -100q-20 0 -65 4l-54 -107q55 2 105 -26q49 -29 49 -106t-64 -115t-159 -38q-96 0 -166 29l18 78q57 -29 142 -29
q117 0 116 72q0 78 -131 61l-28 37l81 152q-244 41 -389 211t-145 452q0 346 233 571q234 224 592 224z" />
    <glyph glyph-name="Egrave" unicode="&#xc8;" horiz-adv-x="1327" 
d="M872 1755l70 -227h-111l-104 227h145zM1348 1434l-25 -140h-829l-95 -524h717l-24 -139h-717l-86 -492h854l-25 -139h-1028l254 1434h1004z" />
    <glyph glyph-name="Eacute" unicode="&#xc9;" horiz-adv-x="1327" 
d="M1096 1757l-193 -229h-121l164 229h150zM1348 1434l-25 -140h-829l-95 -524h717l-24 -139h-717l-86 -492h854l-25 -139h-1028l254 1434h1004z" />
    <glyph glyph-name="Ecircumflex" unicode="&#xca;" horiz-adv-x="1327" 
d="M573 1528l267 229h147l180 -229h-125l-133 166l-198 -166h-138zM1348 1434l-25 -140h-829l-95 -524h717l-24 -139h-717l-86 -492h854l-25 -139h-1028l254 1434h1004z" />
    <glyph glyph-name="Edieresis" unicode="&#xcb;" horiz-adv-x="1327" 
d="M1083 1735q45 0 68 -22t20 -60q0 -82 -88 -82q-41 -1 -65 21t-21 61q4 82 86 82zM668 1735q44 0 68 -22t22 -60q0 -82 -90 -82q-41 -1 -65 21t-21 61q4 82 86 82zM1348 1434l-25 -140h-829l-95 -524h717l-24 -139h-717l-86 -492h854l-25 -139h-1028l254 1434h1004z" />
    <glyph glyph-name="Igrave" unicode="&#xcc;" horiz-adv-x="569" 
d="M457 1755l69 -227h-110l-105 227h146zM516 1434l-256 -1434h-174l256 1434h174z" />
    <glyph glyph-name="Iacute" unicode="&#xcd;" horiz-adv-x="569" 
d="M680 1757l-193 -229h-120l163 229h150zM516 1434l-256 -1434h-174l256 1434h174z" />
    <glyph glyph-name="Icircumflex" unicode="&#xce;" horiz-adv-x="569" 
d="M137 1528l266 229h148l180 -229h-125l-133 166l-199 -166h-137zM516 1434l-256 -1434h-174l256 1434h174z" />
    <glyph glyph-name="Idieresis" unicode="&#xcf;" horiz-adv-x="569" 
d="M668 1735q46 0 68 -22t20 -60q0 -82 -88 -82q-41 -1 -65 21t-21 61q4 82 86 82zM252 1735q45 0 69 -22t21 -60q0 -82 -90 -82q-41 -1 -65 21t-21 61q4 82 86 82zM516 1434l-256 -1434h-174l256 1434h174z" />
    <glyph glyph-name="Eth" unicode="&#xd0;" horiz-adv-x="1550" 
d="M774 1294h-280l-95 -536h324l-16 -109h-328l-90 -510h362q279 0 454 177t175 466q0 244 -133 378t-373 134zM752 1434q326 0 518 -163t192 -500t-221 -554t-598 -217h-553l115 649h-172l16 109h174l121 676h408z" />
    <glyph glyph-name="Ntilde" unicode="&#xd1;" horiz-adv-x="1529" 
d="M819 1663q-68 0 -119 -78l-53 31q74 152 203 151q49 0 129 -44t121 -44q64 0 117 76l55 -29q-78 -152 -203 -151q-57 0 -125 43q-90 45 -125 45zM1479 1434l-254 -1434h-183l-577 1169l-205 -1169h-174l254 1434h182l578 -1160l205 1160h174z" />
    <glyph glyph-name="Ograve" unicode="&#xd2;" horiz-adv-x="1677" 
d="M975 1755l69 -227h-110l-105 227h146zM920 1313q-144 -1 -262 -57t-190 -152q-145 -195 -153 -452t128 -394t362 -137q147 0 264 57q117 56 189 152q143 191 151 450q8 258 -128 396t-361 137zM926 1452q305 0 489 -177t176 -489t-187 -543q-91 -118 -248 -190t-357 -71
q-307 0 -491 177q-183 177 -175 489t188 544q91 120 247 190t358 70z" />
    <glyph glyph-name="Oacute" unicode="&#xd3;" horiz-adv-x="1679" 
d="M1147 1757l-193 -229h-120l163 229h150zM920 1313q-144 -1 -262 -57t-190 -152q-145 -195 -153 -452t128 -394t362 -137q147 0 264 57q117 56 189 152q143 191 151 450q8 258 -128 396t-361 137zM926 1452q305 0 489 -177t176 -489t-187 -543q-91 -118 -248 -190
t-357 -71q-307 0 -491 177q-183 177 -175 489t188 544q91 120 247 190t358 70z" />
    <glyph glyph-name="Ocircumflex" unicode="&#xd4;" horiz-adv-x="1677" 
d="M662 1528l266 229h147l180 -229h-125l-133 166l-198 -166h-137zM920 1313q-144 -1 -262 -57t-190 -152q-145 -195 -153 -452t128 -394t362 -137q147 0 264 57q117 56 189 152q143 191 151 450q8 258 -128 396t-361 137zM926 1452q305 0 489 -177t176 -489t-187 -543
q-91 -118 -248 -190t-357 -71q-307 0 -491 177q-183 177 -175 489t188 544q91 120 247 190t358 70z" />
    <glyph glyph-name="Otilde" unicode="&#xd5;" horiz-adv-x="1677" 
d="M819 1663q-68 0 -119 -78l-53 31q74 152 203 151q49 0 129 -44t121 -44q64 0 117 76l55 -29q-78 -152 -203 -151q-57 0 -125 43q-90 45 -125 45zM920 1313q-144 -1 -262 -57t-190 -152q-145 -195 -153 -452t128 -394t362 -137q147 0 264 57q117 56 189 152
q143 191 151 450q8 258 -128 396t-361 137zM926 1452q305 0 489 -177t176 -489t-187 -543q-91 -118 -248 -190t-357 -71q-307 0 -491 177q-183 177 -175 489t188 544q91 120 247 190t358 70z" />
    <glyph glyph-name="Odieresis" unicode="&#xd6;" horiz-adv-x="1679" 
d="M1186 1735q46 0 68 -22t20 -60q0 -82 -88 -82q-41 -1 -65 21t-21 61q4 82 86 82zM770 1735q45 0 69 -22t21 -60q0 -82 -90 -82q-40 -1 -64 21t-22 61q4 82 86 82zM920 1313q-144 -1 -262 -57t-190 -152q-145 -195 -153 -452t128 -394t362 -137q147 0 264 57
q117 56 189 152q143 191 151 450q8 258 -128 396t-361 137zM926 1452q305 0 489 -177t176 -489t-187 -543q-91 -118 -248 -190t-357 -71q-307 0 -491 177q-183 177 -175 489t188 544q91 120 247 190t358 70z" />
    <glyph glyph-name="multiply" unicode="&#xd7;" horiz-adv-x="1028" 
d="M270 1100l273 -332l391 334l70 -84l-392 -334l275 -332l-101 -86l-272 334l-391 -334l-70 86l391 332l-272 334z" />
    <glyph glyph-name="Oslash" unicode="&#xd8;" horiz-adv-x="1679" 
d="M938 1313q-315 0 -469 -209q-146 -194 -154 -445q-8 -250 119 -391l789 957q-121 88 -285 88zM786 121q316 0 471 210q144 190 151 443q7 254 -120 393l-790 -956q122 -90 288 -90zM941 1452q216 0 382 -106l127 155h113l-170 -207q205 -178 197 -499t-186 -552
q-91 -118 -248 -190q-157 -71 -375 -71t-384 106l-133 -160h-110l174 213q-203 180 -195 510q4 147 50 285q107 320 385 446q156 70 373 70z" />
    <glyph glyph-name="Ugrave" unicode="&#xd9;" horiz-adv-x="1490" 
d="M932 1755l69 -227h-110l-105 227h146zM686 -18q-256 0 -388 134t-132 316q0 47 6 90l160 912h174l-162 -916q-6 -35 -6 -67q0 -141 93 -235t266 -95q173 0 276 96q102 96 129 242l174 975h174l-170 -961q-38 -219 -188 -355t-406 -136z" />
    <glyph glyph-name="Uacute" unicode="&#xda;" horiz-adv-x="1490" 
d="M1141 1757l-193 -229h-121l164 229h150zM686 -18q-256 0 -388 134t-132 316q0 47 6 90l160 912h174l-162 -916q-6 -35 -6 -67q0 -141 93 -235t266 -95q173 0 276 96q102 96 129 242l174 975h174l-170 -961q-38 -219 -188 -355t-406 -136z" />
    <glyph glyph-name="Ucircumflex" unicode="&#xdb;" horiz-adv-x="1490" 
d="M612 1528l267 229h147l180 -229h-125l-133 166l-198 -166h-138zM686 -18q-256 0 -388 134t-132 316q0 47 6 90l160 912h174l-162 -916q-6 -35 -6 -67q0 -141 93 -235t266 -95q173 0 276 96q102 96 129 242l174 975h174l-170 -961q-38 -219 -188 -355t-406 -136z" />
    <glyph glyph-name="Udieresis" unicode="&#xdc;" horiz-adv-x="1490" 
d="M1124 1735q45 0 68 -22t20 -60q0 -82 -88 -82q-40 -1 -64 21t-22 61q4 82 86 82zM709 1735q45 0 69 -22t21 -60q0 -82 -90 -82q-41 -1 -65 21t-21 61q4 82 86 82zM686 -18q-256 0 -388 134t-132 316q0 47 6 90l160 912h174l-162 -916q-6 -35 -6 -67q0 -141 93 -235
t266 -95q173 0 276 96q102 96 129 242l174 975h174l-170 -961q-38 -219 -188 -355t-406 -136z" />
    <glyph glyph-name="Yacute" unicode="&#xdd;" horiz-adv-x="1312" 
d="M1030 1757l-192 -229h-121l164 229h149zM637 0h-174l100 580l-360 854h172l295 -721l549 721h186l-670 -869z" />
    <glyph glyph-name="Thorn" unicode="&#xde;" horiz-adv-x="1386" 
d="M797 442q176 0 270 92t94 220q0 129 -81 210t-234 80h-404l-104 -602h459zM881 1180q225 0 343 -119t118 -303t-134 -318q-133 -134 -391 -133h-502l-55 -307h-174l252 1434h174l-45 -254h414z" />
    <glyph glyph-name="germandbls" unicode="&#xdf;" horiz-adv-x="1269" 
d="M706 1452q170 0 268 -85t97 -210q0 -76 -30 -135q-31 -59 -65 -90q-95 -86 -94 -179q1 -94 88 -171q36 -33 72 -71q90 -96 84 -224q-2 -170 -112 -256t-279 -86q-170 0 -336 55l31 127q125 -53 260 -53q262 0 268 235q2 70 -33 125q-36 55 -79 88t-80 88q-37 56 -37 118
q0 114 68 182q29 30 57 59q66 66 67 151q1 84 -51 144t-158 59q-106 0 -198 -77t-119 -228l-180 -1018h-162l183 1034q37 221 168 320q132 98 302 98z" />
    <glyph glyph-name="agrave" unicode="&#xe0;" horiz-adv-x="1302" 
d="M565 1495h152l78 -301h-119zM647 956q-195 0 -298 -145t-103 -323t90 -278q90 -99 250 -99q102 0 182 44q80 45 125 115q94 147 93 317q-1 171 -91 270t-248 99zM618 1079q147 0 260 -68q112 -69 154 -186l49 240h154l-137 -795l-35 -270h-156l21 158
q-138 -172 -372 -172t-354 132t-121 368t140 415q141 178 397 178z" />
    <glyph glyph-name="aacute" unicode="&#xe1;" horiz-adv-x="1302" 
d="M991 1497l-233 -303h-121l201 303h153zM647 956q-195 0 -298 -145t-103 -323t90 -278q90 -99 250 -99q102 0 182 44q80 45 125 115q94 147 93 317q-1 171 -91 270t-248 99zM618 1079q147 0 260 -68q112 -69 154 -186l49 240h154l-137 -795l-35 -270h-156l21 158
q-138 -172 -372 -172t-354 132t-121 368t140 415q141 178 397 178z" />
    <glyph glyph-name="acircumflex" unicode="&#xe2;" horiz-adv-x="1308" 
d="M436 1194l277 305h149l170 -305h-125l-123 233l-213 -233h-135zM647 956q-195 0 -298 -145t-103 -323t90 -278q90 -99 250 -99q102 0 182 44q80 45 125 115q94 147 93 317q-1 171 -91 270t-248 99zM618 1079q147 0 260 -68q112 -69 154 -186l49 240h154l-137 -795
l-35 -270h-156l21 158q-138 -172 -372 -172t-354 132t-121 368t140 415q141 178 397 178z" />
    <glyph glyph-name="atilde" unicode="&#xe3;" horiz-adv-x="1302" 
d="M862 1241q-57 0 -125 43q-90 45 -125 45q-68 0 -118 -78l-54 31q74 152 203 152q49 0 129 -44t121 -44q64 -1 117 75l55 -28q-78 -152 -203 -152zM647 956q-195 0 -298 -145t-103 -323t90 -278q90 -99 250 -99q102 0 182 44q80 45 125 115q94 147 93 317q-1 171 -91 270
t-248 99zM618 1079q147 0 260 -68q112 -69 154 -186l49 240h154l-137 -795l-35 -270h-156l21 158q-138 -172 -372 -172t-354 132t-121 368t140 415q141 178 397 178z" />
    <glyph glyph-name="adieresis" unicode="&#xe4;" horiz-adv-x="1302" 
d="M948 1407q47 0 70 -23t20 -61q0 -86 -90 -86q-44 0 -68 23t-22 63q4 84 90 84zM530 1407q47 0 72 -23t23 -61q-4 -86 -95 -86q-42 0 -66 23t-22 63q4 84 88 84zM647 956q-195 0 -298 -145t-103 -323t90 -278q90 -99 250 -99q102 0 182 44q80 45 125 115q94 147 93 317
q-1 171 -91 270t-248 99zM618 1079q147 0 260 -68q112 -69 154 -186l49 240h154l-137 -795l-35 -270h-156l21 158q-138 -172 -372 -172t-354 132t-121 368t140 415q141 178 397 178z" />
    <glyph glyph-name="aring" unicode="&#xe5;" horiz-adv-x="1308" 
d="M774 1493q-109 0 -117 -119q-4 -51 27 -78q31 -26 79 -26t80 30t34 86t-28 82t-75 25zM773 1569q87 0 142 -45t53 -137q-2 -93 -60 -143t-146 -50t-145 46q-56 46 -52 138q5 92 63 142t145 49zM647 956q-195 0 -298 -145t-103 -323t90 -278q90 -99 250 -99q102 0 182 44
q80 45 125 115q94 147 93 317q-1 171 -91 270t-248 99zM618 1079q147 0 260 -68q112 -69 154 -186l49 240h154l-137 -795l-35 -270h-156l21 158q-138 -172 -372 -172t-354 132t-121 368t140 415q141 178 397 178z" />
    <glyph glyph-name="ae" unicode="&#xe6;" horiz-adv-x="1865" 
d="M426 109q111 0 209 48t147 128q-31 108 -18 227q-115 8 -205 8q-362 0 -362 -221q0 -190 229 -190zM1171 563q449 0 453 221q0 170 -238 170q-168 0 -288 -108t-156 -264q118 -19 229 -19zM1399 1079q177 1 285 -69t106 -219q-2 -338 -600 -338q-137 0 -262 18v-4
q-2 -176 94 -266t284 -90t339 79l32 -112q-158 -92 -413 -92q-311 0 -437 200q-152 -201 -465 -200q-152 0 -242 76t-91 225q2 346 528 346q125 0 227 -10q31 111 97 204q-29 127 -260 127q-195 0 -390 -53l-2 121q199 57 452 57t329 -121q168 121 389 121z" />
    <glyph glyph-name="ccedilla" unicode="&#xe7;" horiz-adv-x="1114" 
d="M672 -253q0 -77 -64 -115t-159 -38q-96 0 -166 29l18 78q57 -29 141 -29q117 0 117 72q0 78 -131 61l-29 37l84 154q-181 28 -291 150t-110 335q0 266 171 432t435 166q201 0 356 -86l-57 -116q-139 74 -301 73q-204 0 -320 -127t-116 -321t104 -290t270 -97
q166 0 296 73l32 -122q-168 -80 -348 -80l-31 2l-55 -109q55 2 105 -26q49 -29 49 -106z" />
    <glyph glyph-name="egrave" unicode="&#xe8;" horiz-adv-x="1181" 
d="M614 1495h152l78 -301h-119zM700 954q-168 0 -288 -108t-158 -266q135 -16 231 -17q449 0 453 221q0 170 -238 170zM713 1079q177 1 285 -69t106 -219q-2 -338 -600 -338q-137 0 -262 18v-4q-2 -176 94 -266t284 -90t338 79l33 -112q-157 -92 -403 -92t-381 122t-132 362
t176 424q173 185 462 185z" />
    <glyph glyph-name="eacute" unicode="&#xe9;" horiz-adv-x="1181" 
d="M952 1497l-233 -303h-121l201 303h153zM700 954q-168 0 -288 -108t-158 -266q135 -16 231 -17q449 0 453 221q0 170 -238 170zM713 1079q177 1 285 -69t106 -219q-2 -338 -600 -338q-137 0 -262 18v-4q-2 -176 94 -266t284 -90t338 79l33 -112q-157 -92 -403 -92
t-381 122t-132 362t176 424q173 185 462 185z" />
    <glyph glyph-name="ecircumflex" unicode="&#xea;" horiz-adv-x="1181" 
d="M365 1194l276 305h150l170 -305h-125l-123 233l-213 -233h-135zM700 954q-168 0 -288 -108t-158 -266q135 -16 231 -17q449 0 453 221q0 170 -238 170zM713 1079q177 1 285 -69t106 -219q-2 -338 -600 -338q-137 0 -262 18v-4q-2 -176 94 -266t284 -90t338 79l33 -112
q-157 -92 -403 -92t-381 122t-132 362t176 424q173 185 462 185z" />
    <glyph glyph-name="edieresis" unicode="&#xeb;" horiz-adv-x="1181" 
d="M897 1407q47 0 70 -23t20 -61q0 -86 -90 -86q-45 0 -69 23t-21 63q4 84 90 84zM479 1407q47 0 72 -23t22 -61q-4 -86 -94 -86q-43 0 -67 23t-21 63q4 84 88 84zM700 954q-168 0 -288 -108t-158 -266q135 -16 231 -17q449 0 453 221q0 170 -238 170zM713 1079
q177 1 285 -69t106 -219q-2 -338 -600 -338q-137 0 -262 18v-4q-2 -176 94 -266t284 -90t338 79l33 -112q-157 -92 -403 -92t-381 122t-132 362t176 424q173 185 462 185z" />
    <glyph glyph-name="igrave" unicode="&#xec;" horiz-adv-x="512" 
d="M195 1485h151l78 -301h-119zM432 1065l-186 -1065h-164l168 948h-131l20 117h293z" />
    <glyph glyph-name="iacute" unicode="&#xed;" horiz-adv-x="512" 
d="M625 1497l-234 -303h-121l201 303h154zM432 1065l-186 -1065h-164l168 948h-131l20 117h293z" />
    <glyph glyph-name="icircumflex" unicode="&#xee;" horiz-adv-x="512" 
d="M39 1184l276 305h150l170 -305h-125l-123 233l-213 -233h-135zM432 1065l-186 -1065h-164l168 948h-131l20 117h293z" />
    <glyph glyph-name="idieresis" unicode="&#xef;" horiz-adv-x="512" 
d="M547 1397q47 0 69 -23t21 -61q0 -86 -90 -86q-45 1 -69 23t-21 63q4 84 90 84zM129 1397q47 0 72 -23t22 -61q-4 -86 -94 -86q-43 1 -67 23t-21 63q4 84 88 84zM432 1065l-186 -1065h-164l168 948h-131l20 117h293z" />
    <glyph glyph-name="eth" unicode="&#xf0;" horiz-adv-x="1173" 
d="M903 511q1 161 -83 255t-253 94t-265 -120t-95 -280q0 -160 80 -254q81 -93 247 -93t268 118q101 119 101 280zM1106 721q0 -326 -151 -531t-429 -204q-233 0 -360 120t-127 346q0 224 137 380t377 155q139 0 241 -56t154 -153q-2 49 -12 99q-27 227 -156 428l-202 -125
l-29 53l196 121q-74 102 -159 182l110 68q96 -84 170 -177l207 129l31 -55l-201 -123q203 -285 203 -657z" />
    <glyph glyph-name="ntilde" unicode="&#xf1;" horiz-adv-x="1224" 
d="M858 1241q-57 0 -125 43q-90 45 -125 45q-68 0 -119 -78l-53 31q74 152 203 152q49 0 129 -44t121 -44q64 -1 117 75l55 -28q-78 -152 -203 -152zM758 1079q181 0 263 -96t79 -225q-2 -66 -13 -135l-108 -623h-162l107 621q24 141 -26 237t-209 96t-260 -114t-132 -285
l-98 -555h-162l135 766l33 299h149l-20 -186q148 200 424 200z" />
    <glyph glyph-name="ograve" unicode="&#xf2;" horiz-adv-x="1275" 
d="M578 1485h151l78 -301h-119zM641 950q-172 0 -280 -135q-109 -135 -111 -323t90 -282q92 -95 248 -95q190 0 299 135q109 134 113 322t-92 283q-95 95 -267 95zM670 1079q223 0 361 -128q138 -129 135 -379q-2 -250 -158 -418t-428 -168q-223 0 -362 128
q-138 128 -135 378t160 419q157 168 427 168z" />
    <glyph glyph-name="oacute" unicode="&#xf3;" horiz-adv-x="1275" 
d="M971 1497l-234 -303h-121l201 303h154zM641 950q-172 0 -280 -135q-109 -135 -111 -323t90 -282q92 -95 248 -95q190 0 299 135q109 134 113 322t-92 283q-95 95 -267 95zM670 1079q223 0 361 -128q138 -129 135 -379q-2 -250 -158 -418t-428 -168q-223 0 -362 128
q-138 128 -135 378t160 419q157 168 427 168z" />
    <glyph glyph-name="ocircumflex" unicode="&#xf4;" horiz-adv-x="1275" 
d="M403 1184l277 305h149l170 -305h-125l-122 233l-213 -233h-136zM641 950q-172 0 -280 -135q-109 -135 -111 -323t90 -282q92 -95 248 -95q190 0 299 135q109 134 113 322t-92 283q-95 95 -267 95zM670 1079q223 0 361 -128q138 -129 135 -379q-2 -250 -158 -418
t-428 -168q-223 0 -362 128q-138 128 -135 378t160 419q157 168 427 168z" />
    <glyph glyph-name="otilde" unicode="&#xf5;" horiz-adv-x="1275" 
d="M598 1319q-68 0 -119 -78l-53 31q74 152 203 151q49 0 129 -44t121 -44q63 0 116 76l56 -29q-78 -152 -203 -151q-57 0 -125 43q-90 45 -125 45zM641 950q-172 0 -280 -135q-109 -135 -111 -323t90 -282q92 -95 248 -95q190 0 299 135q109 134 113 322t-92 283
q-95 95 -267 95zM670 1079q223 0 361 -128q138 -129 135 -379q-2 -250 -158 -418t-428 -168q-223 0 -362 128q-138 128 -135 378t160 419q157 168 427 168z" />
    <glyph glyph-name="odieresis" unicode="&#xf6;" horiz-adv-x="1275" 
d="M922 1397q48 0 70 -23t20 -61q0 -86 -90 -86q-45 1 -69 23t-22 63q5 84 91 84zM504 1397q48 0 72 -23t22 -61q-4 -86 -94 -86q-43 1 -67 23t-21 63q4 84 88 84zM641 950q-172 0 -280 -135q-109 -135 -111 -323t90 -282q92 -95 248 -95q190 0 299 135q109 134 113 322
t-92 283q-95 95 -267 95zM670 1079q223 0 361 -128q138 -129 135 -379q-2 -250 -158 -418t-428 -168q-223 0 -362 128q-138 128 -135 378t160 419q157 168 427 168z" />
    <glyph glyph-name="divide" unicode="&#xf7;" horiz-adv-x="1181" 
d="M673 1110q39 0 65 -23t24 -61q-8 -88 -94 -88q-37 0 -62 20q-24 20 -22 60t26 66t63 26zM548 406q40 0 66 -23t23 -61q-8 -88 -94 -89q-37 0 -62 22q-25 23 -23 61t26 64t64 26zM1069 721l-18 -109h-904l19 109h903z" />
    <glyph glyph-name="oslash" unicode="&#xf8;" horiz-adv-x="1275" 
d="M588 115q190 0 299 135q108 136 111 314t-74 272l-545 -662q80 -59 209 -59zM655 950q-186 0 -294 -135q-109 -135 -111 -317t82 -281l549 662q-91 71 -226 71zM670 1079q180 0 305 -86l115 140h79l-145 -177q145 -134 142 -384q-2 -250 -158 -418t-428 -168
q-174 0 -295 75l-107 -129h-80l138 166q-156 131 -153 388t160 425t427 168z" />
    <glyph glyph-name="ugrave" unicode="&#xf9;" horiz-adv-x="1253" 
d="M541 1495h151l78 -301h-119zM446 -14q-181 0 -264 97t-80 224q2 66 13 135l110 623h164l-110 -621q-25 -141 26 -237t210 -96q159 1 259 115t131 284l99 555h163l-135 -766l-33 -299h-149l18 184q-154 -198 -422 -198z" />
    <glyph glyph-name="uacute" unicode="&#xfa;" horiz-adv-x="1253" 
d="M985 1497l-233 -303h-121l200 303h154zM446 -14q-181 0 -264 97t-80 224q2 66 13 135l110 623h164l-110 -621q-25 -141 26 -237t210 -96q159 1 259 115t131 284l99 555h163l-135 -766l-33 -299h-149l18 184q-154 -198 -422 -198z" />
    <glyph glyph-name="ucircumflex" unicode="&#xfb;" horiz-adv-x="1253" 
d="M412 1194l276 305h150l170 -305h-125l-123 233l-213 -233h-135zM446 -14q-181 0 -264 97t-80 224q2 66 13 135l110 623h164l-110 -621q-25 -141 26 -237t210 -96q159 1 259 115t131 284l99 555h163l-135 -766l-33 -299h-149l18 184q-154 -198 -422 -198z" />
    <glyph glyph-name="udieresis" unicode="&#xfc;" horiz-adv-x="1253" 
d="M936 1407q47 0 70 -23t20 -61q0 -86 -90 -86q-45 0 -69 23t-21 63q4 84 90 84zM518 1407q47 0 72 -23t22 -61q-4 -86 -94 -86q-42 0 -66 23t-22 63q4 84 88 84zM446 -14q-181 0 -264 97t-80 224q2 66 13 135l110 623h164l-110 -621q-25 -141 26 -237t210 -96
q159 1 259 115t131 284l99 555h163l-135 -766l-33 -299h-149l18 184q-154 -198 -422 -198z" />
    <glyph glyph-name="yacute" unicode="&#xfd;" horiz-adv-x="1142" 
d="M901 1497l-233 -303h-121l201 303h153zM148 -356q-106 0 -209 28l28 123q179 -53 277 18q55 40 108 134l27 51l-256 1067h170l201 -911l483 911h178l-633 -1145q-92 -166 -180 -221t-194 -55z" />
    <glyph glyph-name="thorn" unicode="&#xfe;" horiz-adv-x="1302" 
d="M639 113q102 0 181 42q79 43 124 113q94 147 93 316q-1 170 -90 268t-247 98q-197 0 -298 -145t-101 -321t90 -274q90 -97 248 -97zM744 1079q220 0 340 -131q120 -132 120 -370t-140 -415t-396 -179q-150 0 -260 66t-156 183l-102 -581h-162l313 1782h162l-90 -510
q150 155 371 155z" />
    <glyph glyph-name="ydieresis" unicode="&#xff;" horiz-adv-x="1142" 
d="M852 1372q47 0 70 -22t20 -62q0 -86 -90 -86q-45 0 -69 23t-21 63q4 84 90 84zM434 1372q47 0 72 -22t22 -62q-4 -86 -94 -86q-42 0 -66 23t-22 63q4 84 88 84zM148 -356q-106 0 -209 28l28 123q179 -53 277 18q55 40 108 134l27 51l-256 1067h170l201 -911l483 911h178
l-633 -1145q-92 -166 -180 -221t-194 -55z" />
    <glyph glyph-name="Amacron" unicode="&#x100;" horiz-adv-x="1449" 
d="M1208 1714l-18 -98h-610l16 98h612zM862 1290h-2l-446 -782h616zM995 1440l318 -1440h-176l-78 369h-717l-203 -369h-186l811 1440h231z" />
    <glyph glyph-name="amacron" unicode="&#x101;" horiz-adv-x="1302" 
d="M1065 1380l-18 -98h-611l17 98h612zM647 956q-195 0 -298 -145t-103 -323t90 -278q90 -99 250 -99q102 0 182 44q80 45 125 115q94 147 93 317q-1 171 -91 270t-248 99zM618 1079q147 0 260 -68q112 -69 154 -186l49 240h154l-137 -795l-35 -270h-156l21 158
q-138 -172 -372 -172t-354 132t-121 368t140 415q141 178 397 178z" />
    <glyph glyph-name="Abreve" unicode="&#x102;" horiz-adv-x="1452" 
d="M914 1550q-226 0 -232 213l113 6q3 -67 29 -99t98 -32t110 32t62 99l110 -6q-64 -213 -290 -213zM862 1290h-2l-446 -782h616zM995 1440l318 -1440h-176l-78 369h-717l-203 -369h-186l811 1440h231z" />
    <glyph glyph-name="abreve" unicode="&#x103;" horiz-adv-x="1302" 
d="M737 1217q-233 0 -239 227l106 10q10 -150 141 -149q136 -1 185 149l106 -10q-66 -227 -299 -227zM647 956q-195 0 -298 -145t-103 -323t90 -278q90 -99 250 -99q102 0 182 44q80 45 125 115q94 147 93 317q-1 171 -91 270t-248 99zM618 1079q147 0 260 -68
q112 -69 154 -186l49 240h154l-137 -795l-35 -270h-156l21 158q-138 -172 -372 -172t-354 132t-121 368t140 415q141 178 397 178z" />
    <glyph glyph-name="Aogonek" unicode="&#x104;" horiz-adv-x="1452" 
d="M862 1290h-2l-446 -782h616zM1239 -262q37 0 74 10l-2 -88q-53 -18 -113 -18q-141 0 -141 133q0 127 141 225h-61l-78 369h-717l-203 -369h-186l811 1440h231l318 -1440h-2q-145 -82 -146 -190q0 -72 74 -72z" />
    <glyph glyph-name="aogonek" unicode="&#x105;" horiz-adv-x="1302" 
d="M647 956q-195 0 -298 -145t-103 -323t90 -278q90 -99 250 -99q102 0 182 44q80 45 125 115q94 147 93 317q-1 171 -91 270t-248 99zM618 1079q147 0 260 -68q112 -69 154 -186l49 240h154l-137 -795l-35 -270h-2q-145 -82 -146 -190q0 -72 74 -72q37 0 74 10l-2 -88
q-53 -18 -113 -18q-141 0 -141 133q0 127 141 225h-41l21 158q-138 -172 -372 -172t-354 132t-121 368t140 415q141 178 397 178z" />
    <glyph glyph-name="Cacute" unicode="&#x106;" horiz-adv-x="1386" 
d="M1126 1757l-192 -229h-121l164 229h149zM950 1452q254 0 461 -127l-59 -123q-184 111 -398 111q-303 1 -475 -187t-172 -452q1 -264 147 -408t386 -145q178 0 387 90l35 -129q-215 -100 -447 -100q-305 0 -498 175t-193 511t234 560t592 224z" />
    <glyph glyph-name="cacute" unicode="&#x107;" horiz-adv-x="1114" 
d="M934 1497l-234 -303h-120l200 303h154zM688 1079q201 0 356 -86l-57 -116q-139 74 -301 73q-204 0 -320 -127t-116 -321t104 -290t270 -97q166 0 296 73l32 -122q-168 -80 -348 -80q-225 0 -374 124q-148 124 -148 380t171 423q171 166 435 166z" />
    <glyph glyph-name="Ccircumflex" unicode="&#x108;" horiz-adv-x="1386" 
d="M662 1528l266 229h147l180 -229h-125l-133 166l-198 -166h-137zM950 1452q254 0 461 -127l-59 -123q-184 111 -398 111q-303 1 -475 -187t-172 -452q1 -264 147 -408t386 -145q178 0 387 90l35 -129q-215 -100 -447 -100q-305 0 -498 175t-193 511t234 560t592 224z" />
    <glyph glyph-name="ccircumflex" unicode="&#x109;" horiz-adv-x="1114" 
d="M393 1194l277 305h149l170 -305h-125l-123 233l-213 -233h-135zM688 1079q201 0 356 -86l-57 -116q-139 74 -301 73q-204 0 -320 -127t-116 -321t104 -290t270 -97q166 0 296 73l32 -122q-168 -80 -348 -80q-225 0 -374 124q-148 124 -148 380t171 423q171 166 435 166z
" />
    <glyph glyph-name="Cdotaccent" unicode="&#x10a;" horiz-adv-x="1386" 
d="M999 1735q45 0 68 -22t20 -60q0 -82 -88 -82q-41 -1 -65 21t-21 61q4 82 86 82zM950 1452q254 0 461 -127l-59 -123q-184 111 -398 111q-303 1 -475 -187t-172 -452q1 -264 147 -408t386 -145q178 0 387 90l35 -129q-215 -100 -447 -100q-305 0 -498 175t-193 511
t234 560t592 224z" />
    <glyph glyph-name="cdotaccent" unicode="&#x10b;" horiz-adv-x="1114" 
d="M685 1407q95 0 89 -84q-4 -86 -94 -86q-47 0 -72 23t-22 63q4 84 99 84zM688 1079q201 0 356 -86l-57 -116q-139 74 -301 73q-204 0 -320 -127t-116 -321t104 -290t270 -97q166 0 296 73l32 -122q-168 -80 -348 -80q-225 0 -374 124q-148 124 -148 380t171 423
q171 166 435 166z" />
    <glyph glyph-name="Ccaron" unicode="&#x10c;" horiz-adv-x="1386" 
d="M1313 1757l-266 -229h-148l-180 229h125l133 -166l199 166h137zM950 1452q254 0 461 -127l-59 -123q-184 111 -398 111q-303 1 -475 -187t-172 -452q1 -264 147 -408t386 -145q178 0 387 90l35 -129q-215 -100 -447 -100q-305 0 -498 175t-193 511t234 560t592 224z" />
    <glyph glyph-name="ccaron" unicode="&#x10d;" horiz-adv-x="1114" 
d="M1030 1499l-276 -305h-150l-170 305h125l123 -233l213 233h135zM688 1079q201 0 356 -86l-57 -116q-139 74 -301 73q-204 0 -320 -127t-116 -321t104 -290t270 -97q166 0 296 73l32 -122q-168 -80 -348 -80q-225 0 -374 124q-148 124 -148 380t171 423q171 166 435 166z
" />
    <glyph glyph-name="Dcaron" unicode="&#x10e;" horiz-adv-x="1550" 
d="M1163 1757l-266 -229h-147l-181 229h125l133 -166l199 166h137zM774 1294h-280l-205 -1155h362q279 0 454 177t175 466q0 244 -133 378t-373 134zM752 1434q326 0 518 -163t192 -500t-221 -554t-598 -217h-553l254 1434h408z" />
    <glyph glyph-name="dcaron" unicode="&#x10f;" horiz-adv-x="1304" 
d="M1456 1499h117q-29 -152 -98 -291h-82q45 180 63 291zM647 952q-193 0 -294 -143t-101 -321t90 -275q90 -98 236 -98q146 1 239 77q170 138 170 398q0 168 -90 265t-250 97zM541 -14q-217 0 -336 131t-120 369t139 416q140 177 399 179q145 -1 257 -67t156 -180l117 665
h162l-213 -1229l-35 -270h-143l20 170q-145 -184 -403 -184z" />
    <glyph glyph-name="Dcroat" unicode="&#x110;" horiz-adv-x="1550" 
d="M774 1294h-280l-95 -536h324l-16 -109h-328l-90 -510h362q279 0 454 177t175 466q0 244 -133 378t-373 134zM752 1434q326 0 518 -163t192 -500t-221 -554t-598 -217h-553l115 649h-172l16 109h174l121 676h408z" />
    <glyph glyph-name="dcroat" unicode="&#x111;" horiz-adv-x="1304" 
d="M647 952q-193 0 -294 -143t-101 -321t90 -275q90 -98 236 -98q146 1 239 77q170 138 170 398q0 168 -90 265t-250 97zM541 -14q-217 0 -336 131t-120 369t139 416q140 177 399 179q145 -1 257 -67t156 -180l72 409h-322l11 60h321l35 196h162l-35 -196h152l-9 -60h-153
l-168 -973l-35 -270h-143l20 170q-145 -184 -403 -184z" />
    <glyph glyph-name="Emacron" unicode="&#x112;" horiz-adv-x="1327" 
d="M1190 1714l-19 -98h-610l17 98h612zM1348 1434l-25 -140h-829l-95 -524h717l-24 -139h-717l-86 -492h854l-25 -139h-1028l254 1434h1004z" />
    <glyph glyph-name="emacron" unicode="&#x113;" horiz-adv-x="1181" 
d="M1004 1380l-19 -98h-610l16 98h613zM700 954q-168 0 -288 -108t-158 -266q135 -16 231 -17q449 0 453 221q0 170 -238 170zM713 1079q177 1 285 -69t106 -219q-2 -338 -600 -338q-137 0 -262 18v-4q-2 -176 94 -266t284 -90t338 79l33 -112q-157 -92 -403 -92t-381 122
t-132 362t176 424q173 185 462 185z" />
    <glyph glyph-name="Ebreve" unicode="&#x114;" horiz-adv-x="1327" 
d="M870 1550q-226 0 -233 213l113 6q2 -67 28 -99t98 -32t110 32t63 99l110 -6q-63 -213 -289 -213zM1348 1434l-25 -140h-829l-95 -524h717l-24 -139h-717l-86 -492h854l-25 -139h-1028l254 1434h1004z" />
    <glyph glyph-name="ebreve" unicode="&#x115;" horiz-adv-x="1181" 
d="M676 1217q-233 0 -240 227l107 10q10 -150 141 -149q135 -1 184 149l107 -10q-66 -227 -299 -227zM700 954q-168 0 -288 -108t-158 -266q135 -16 231 -17q449 0 453 221q0 170 -238 170zM713 1079q177 1 285 -69t106 -219q-2 -338 -600 -338q-137 0 -262 18v-4
q-2 -176 94 -266t284 -90t338 79l33 -112q-157 -92 -403 -92t-381 122t-132 362t176 424q173 185 462 185z" />
    <glyph glyph-name="Edotaccent" unicode="&#x116;" horiz-adv-x="1327" 
d="M881 1735q45 0 67 -22t21 -60q0 -82 -88 -82q-41 -1 -65 21t-21 61q4 82 86 82zM1348 1434l-25 -140h-829l-95 -524h717l-24 -139h-717l-86 -492h854l-25 -139h-1028l254 1434h1004z" />
    <glyph glyph-name="edotaccent" unicode="&#x117;" horiz-adv-x="1181" 
d="M740 1407q95 0 89 -84q-4 -86 -94 -86q-47 0 -71 23t-23 63q4 84 99 84zM700 954q-168 0 -288 -108t-158 -266q135 -16 231 -17q449 0 453 221q0 170 -238 170zM713 1079q177 1 285 -69t106 -219q-2 -338 -600 -338q-137 0 -262 18v-4q-2 -176 94 -266t284 -90t338 79
l33 -112q-157 -92 -403 -92t-381 122t-132 362t176 424q173 185 462 185z" />
    <glyph glyph-name="Eogonek" unicode="&#x118;" horiz-adv-x="1327" 
d="M922 -190q0 -72 73 -72q37 0 74 10l-2 -88q-53 -18 -113 -18q-141 0 -141 133q0 127 141 225h-864l254 1434h1004l-25 -140h-829l-95 -524h717l-24 -139h-717l-86 -492h854l-25 -139h-51q-145 -82 -145 -190z" />
    <glyph glyph-name="eogonek" unicode="&#x119;" horiz-adv-x="1181" 
d="M700 954q-168 0 -288 -108t-158 -266q135 -16 231 -17q449 0 453 221q0 170 -238 170zM713 1079q177 1 285 -69t106 -219q-2 -338 -600 -338q-137 0 -262 18v-4q-2 -176 94 -266t284 -90t338 79l33 -112q-70 -41 -176 -66q-141 -70 -141 -200q0 -74 74 -74q37 0 73 10
l-2 -88q-53 -18 -112 -18q-141 0 -141 130t112 220q-55 -6 -100 -6q-236 0 -371 122t-132 362t176 424q173 185 462 185z" />
    <glyph glyph-name="Ecaron" unicode="&#x11a;" horiz-adv-x="1327" 
d="M1212 1757l-266 -229h-147l-181 229h125l134 -166l198 166h137zM1348 1434l-25 -140h-829l-95 -524h717l-24 -139h-717l-86 -492h854l-25 -139h-1028l254 1434h1004z" />
    <glyph glyph-name="ecaron" unicode="&#x11b;" horiz-adv-x="1181" 
d="M1016 1499l-277 -305h-149l-170 305h125l123 -233l213 233h135zM700 954q-168 0 -288 -108t-158 -266q135 -16 231 -17q449 0 453 221q0 170 -238 170zM713 1079q177 1 285 -69t106 -219q-2 -338 -600 -338q-137 0 -262 18v-4q-2 -176 94 -266t284 -90t338 79l33 -112
q-157 -92 -403 -92t-381 122t-132 362t176 424q173 185 462 185z" />
    <glyph glyph-name="Gcircumflex" unicode="&#x11c;" horiz-adv-x="1566" 
d="M676 1528l266 229h148l180 -229h-125l-133 166l-199 -166h-137zM956 1452q285 0 504 -117l-69 -125q-201 102 -430 103q-317 -1 -483 -183t-169 -475q-2 -242 138 -388t401 -146q193 0 381 108l59 357h-381l21 127h526l-96 -563q-254 -168 -558 -168t-489 176
q-186 176 -184 489q2 357 229 581t600 224z" />
    <glyph glyph-name="gcircumflex" unicode="&#x11d;" horiz-adv-x="1282" 
d="M457 1194l276 305h150l170 -305h-125l-123 233l-213 -233h-135zM631 952q-171 0 -273 -125t-104 -297t83 -270t259 -98t272 127t102 302t-82 268q-87 93 -257 93zM616 1079q158 0 264 -69q105 -70 142 -185l49 240h150l-172 -977q-74 -440 -564 -440q-262 0 -462 125
l47 118q180 -115 411 -114q346 0 402 307l18 111q-119 -160 -371 -160q-206 0 -326 125q-120 124 -117 366t148 398t381 155z" />
    <glyph glyph-name="Gbreve" unicode="&#x11e;" horiz-adv-x="1566" 
d="M992 1550q-226 0 -232 213l112 6q2 -67 29 -99t99 -32t108 32q38 32 63 99l111 -6q-64 -213 -290 -213zM956 1452q285 0 504 -117l-69 -125q-201 102 -430 103q-317 -1 -483 -183t-169 -475q-2 -242 138 -388t401 -146q193 0 381 108l59 357h-381l21 127h526l-96 -563
q-254 -168 -558 -168t-489 176q-186 176 -184 489q2 357 229 581t600 224z" />
    <glyph glyph-name="gbreve" unicode="&#x11f;" horiz-adv-x="1282" 
d="M709 1217q-233 0 -240 227l106 10q10 -150 142 -149q135 -1 184 149l107 -10q-66 -227 -299 -227zM631 952q-171 0 -273 -125t-104 -297t83 -270t259 -98t272 127t102 302t-82 268q-87 93 -257 93zM616 1079q158 0 264 -69q105 -70 142 -185l49 240h150l-172 -977
q-74 -440 -564 -440q-262 0 -462 125l47 118q180 -115 411 -114q346 0 402 307l18 111q-119 -160 -371 -160q-206 0 -326 125q-120 124 -117 366t148 398t381 155z" />
    <glyph glyph-name="Gdotaccent" unicode="&#x120;" horiz-adv-x="1566" 
d="M985 1735q45 0 68 -22t20 -60q0 -82 -88 -82q-41 -1 -65 21t-21 61q4 82 86 82zM956 1452q285 0 504 -117l-69 -125q-201 102 -430 103q-317 -1 -483 -183t-169 -475q-2 -242 138 -388t401 -146q193 0 381 108l59 357h-381l21 127h526l-96 -563q-254 -168 -558 -168
t-489 176q-186 176 -184 489q2 357 229 581t600 224z" />
    <glyph glyph-name="gdotaccent" unicode="&#x121;" horiz-adv-x="1280" 
d="M775 1407q95 0 89 -84q-4 -86 -94 -86q-47 0 -72 23t-22 63q4 84 99 84zM631 952q-171 0 -273 -125t-104 -297t83 -270t259 -98t272 127t102 302t-82 268q-87 93 -257 93zM616 1079q158 0 264 -69q105 -70 142 -185l49 240h150l-172 -977q-74 -440 -564 -440
q-262 0 -462 125l47 118q180 -115 411 -114q346 0 402 307l18 111q-119 -160 -371 -160q-206 0 -326 125q-120 124 -117 366t148 398t381 155z" />
    <glyph glyph-name="Gcommaaccent" unicode="&#x122;" horiz-adv-x="1566" 
d="M721 -92h121q-19 -96 -49 -163q-31 -67 -41 -93h-105q56 152 74 256zM956 1452q285 0 504 -117l-69 -125q-201 102 -430 103q-317 -1 -483 -183t-169 -475q-2 -242 138 -388t401 -146q193 0 381 108l59 357h-381l21 127h526l-96 -563q-254 -168 -558 -168t-489 176
q-186 176 -184 489q2 357 229 581t600 224z" />
    <glyph glyph-name="gcommaaccent" unicode="&#x123;" horiz-adv-x="1280" 
d="M735 1198h-121q19 96 49 163q31 67 42 93h104q-56 -152 -74 -256zM631 952q-171 0 -273 -125t-104 -297t83 -270t259 -98t272 127t102 302t-82 268q-87 93 -257 93zM616 1079q158 0 264 -69q105 -70 142 -185l49 240h150l-172 -977q-74 -440 -564 -440q-262 0 -462 125
l47 118q180 -115 411 -114q346 0 402 307l18 111q-119 -160 -371 -160q-206 0 -326 125q-120 124 -117 366t148 398t381 155z" />
    <glyph glyph-name="Hcircumflex" unicode="&#x124;" horiz-adv-x="1558" 
d="M635 1528l266 229h148l180 -229h-125l-133 166l-199 -166h-137zM262 0h-176l254 1434h174l-115 -652h818l116 652h174l-254 -1434h-174l113 643h-817z" />
    <glyph glyph-name="hcircumflex" unicode="&#x125;" horiz-adv-x="1236" 
d="M98 1565l267 229h147l180 -229h-125l-133 166l-198 -166h-138zM758 1079q186 0 270 -100t84 -256q0 -47 -12 -129l-107 -594h-162l105 594q10 70 10 104q0 117 -61 186q-61 68 -203 68t-240 -106t-131 -289l-98 -557h-162l264 1499h162l-104 -594q135 174 385 174z" />
    <glyph glyph-name="Hbar" unicode="&#x126;" horiz-adv-x="1552" 
d="M455 1098l-56 -316h818l57 316h-819zM1333 1434h174l-45 -256h113l-14 -80h-113l-195 -1098h-174l113 643h-817l-113 -643h-176l195 1098h-123l14 80h123l45 256h174l-45 -256h819z" />
    <glyph glyph-name="hbar" unicode="&#x127;" horiz-adv-x="1236" 
d="M758 1079q186 0 270 -100t84 -256q0 -47 -12 -129l-107 -594h-162l105 594q10 70 10 104q0 117 -61 186q-61 68 -203 68t-240 -106t-131 -289l-98 -557h-162l219 1243h-161l10 60h162l34 196h162l-35 -196h303l-8 -60h-305l-59 -338q135 174 385 174z" />
    <glyph glyph-name="Itilde" unicode="&#x128;" horiz-adv-x="569" 
d="M319 1663q-68 0 -118 -78l-54 31q74 152 203 151q49 0 129 -44t121 -44q64 0 117 76l55 -29q-78 -152 -203 -151q-57 0 -125 43q-90 45 -125 45zM516 1434l-256 -1434h-174l256 1434h174z" />
    <glyph glyph-name="itilde" unicode="&#x129;" horiz-adv-x="512" 
d="M229 1319q-68 0 -118 -78l-54 31q74 152 203 151q49 0 129 -44t121 -44q64 0 117 76l55 -29q-78 -152 -203 -151q-57 0 -125 43q-90 45 -125 45zM432 1065l-186 -1065h-164l168 948h-131l20 117h293z" />
    <glyph glyph-name="Imacron" unicode="&#x12a;" horiz-adv-x="569" 
d="M774 1714l-18 -98h-611l17 98h612zM516 1434l-256 -1434h-174l256 1434h174z" />
    <glyph glyph-name="imacron" unicode="&#x12b;" horiz-adv-x="512" 
d="M662 1370l-19 -98h-610l16 98h613zM432 1065l-186 -1065h-164l168 948h-131l20 117h293z" />
    <glyph glyph-name="Ibreve" unicode="&#x12c;" horiz-adv-x="569" 
d="M454 1550q-226 0 -233 213l113 6q2 -67 28 -99t99 -32q71 0 109 32t63 99l110 -6q-63 -213 -289 -213zM516 1434l-256 -1434h-174l256 1434h174z" />
    <glyph glyph-name="ibreve" unicode="&#x12d;" horiz-adv-x="512" 
d="M358 1294q136 0 185 150l106 -10q-66 -228 -299 -228t-239 228l106 10q10 -150 141 -150zM432 1065l-186 -1065h-164l168 948h-131l20 117h293z" />
    <glyph glyph-name="Iogonek" unicode="&#x12e;" horiz-adv-x="569" 
d="M115 -190q0 -72 73 -72q37 0 74 10l-2 -88q-53 -18 -113 -18q-141 0 -141 133q0 127 141 225h-61l256 1434h174l-256 -1434q-145 -82 -145 -190z" />
    <glyph glyph-name="iogonek" unicode="&#x12f;" horiz-adv-x="512" 
d="M369 1427q51 1 75 -21t21 -60q0 -86 -98 -86t-93 81q5 86 95 86zM86 -190q0 -72 74 -72q37 0 73 10l-2 -88q-53 -18 -112 -18q-141 0 -141 130t141 228h-37l168 948h-131l20 117h293l-186 -1065h-15q-145 -82 -145 -190z" />
    <glyph glyph-name="Idotaccent" unicode="&#x130;" horiz-adv-x="569" 
d="M465 1735q45 0 67 -22t21 -60q0 -82 -88 -82q-41 -1 -65 21t-21 61q4 82 86 82zM516 1434l-256 -1434h-174l256 1434h174z" />
    <glyph glyph-name="dotlessi" unicode="&#x131;" horiz-adv-x="512" 
d="M432 1065l-186 -1065h-164l168 948h-131l20 117h293z" />
    <glyph glyph-name="Jcircumflex" unicode="&#x134;" horiz-adv-x="1126" 
d="M682 1528l266 229h148l180 -229h-125l-133 166l-199 -166h-137zM406 121q124 0 208 81t115 247l174 985h174l-176 -990q-39 -225 -163 -344q-124 -118 -323 -118t-291 87q-93 87 -124 169l111 86q86 -203 295 -203z" />
    <glyph glyph-name="jcircumflex" unicode="&#x135;" horiz-adv-x="520" 
d="M35 1159l276 305h150l170 -305h-125l-123 234l-213 -234h-135zM-18 -358h-101l25 133h51q67 1 91 27t36 96l186 1052h-137l21 115h301l-209 -1188q-20 -129 -82 -182t-182 -53z" />
    <glyph glyph-name="Kcommaaccent" unicode="&#x136;" horiz-adv-x="1398" 
d="M584 -92h121q-19 -96 -49 -163q-31 -67 -42 -93h-104q56 152 74 256zM1456 1434l-606 -549l391 -885h-199l-327 762l-377 -342l-74 -420h-174l254 1434h174l-143 -795l874 795h207z" />
    <glyph glyph-name="kcommaaccent" unicode="&#x137;" horiz-adv-x="1105" 
d="M430 -92h121q-19 -96 -49 -163q-31 -67 -41 -93h-105q56 152 74 256zM483 1499l-174 -981l635 547h189l-469 -403l297 -662h-170l-248 557l-269 -231l-57 -326h-162l267 1499h161z" />
    <glyph glyph-name="kgreenlandic" unicode="&#x138;" horiz-adv-x="1103" 
d="M1133 1065l-469 -403l294 -662h-172l-245 553l-265 -227l-59 -326h-162l191 1065h162l-99 -547l635 547h189z" />
    <glyph glyph-name="Lacute" unicode="&#x139;" horiz-adv-x="1148" 
d="M686 1757l-192 -229h-121l164 229h149zM514 1434l-229 -1295h755l-24 -139h-930l254 1434h174z" />
    <glyph glyph-name="lacute" unicode="&#x13a;" horiz-adv-x="536" 
d="M647 1796l-192 -229h-121l164 229h149zM322 113q50 0 79 4l-18 -119q-47 -12 -147 -12t-138 45q-37 45 -18 157l231 1311h162l-229 -1300q-8 -51 10 -69t68 -17z" />
    <glyph glyph-name="Lcommaaccent" unicode="&#x13b;" horiz-adv-x="1148" 
d="M500 -92h121q-19 -96 -49 -163q-31 -67 -42 -93h-104q56 152 74 256zM514 1434l-229 -1295h755l-24 -139h-930l254 1434h174z" />
    <glyph glyph-name="lcommaaccent" unicode="&#x13c;" horiz-adv-x="536" 
d="M123 -92h121q-19 -96 -49 -163q-31 -67 -41 -93h-105q56 152 74 256zM322 113q50 0 79 4l-18 -119q-47 -12 -147 -12t-138 45q-37 45 -18 157l231 1311h162l-229 -1300q-8 -51 10 -69t68 -17z" />
    <glyph glyph-name="Lcaron" unicode="&#x13d;" horiz-adv-x="1148" 
d="M514 1434l-229 -1295h755l-24 -139h-930l254 1434h174zM893 1434h117q-29 -152 -99 -291h-82q46 180 64 291z" />
    <glyph glyph-name="lcaron" unicode="&#x13e;" horiz-adv-x="536" 
d="M322 113q50 0 79 4l-18 -119q-47 -12 -147 -12t-138 45q-37 45 -18 157l231 1311h162l-229 -1300q-8 -51 10 -69t68 -17zM637 1499h117q-29 -152 -99 -291h-82q46 180 64 291z" />
    <glyph glyph-name="Lslash" unicode="&#x141;" horiz-adv-x="1148" 
d="M514 1434l-123 -691l371 201l-19 -86l-366 -199l-92 -520h755l-24 -139h-930l98 555l-194 -104l14 84l195 104l141 795h174z" />
    <glyph glyph-name="lslash" unicode="&#x142;" horiz-adv-x="581" 
d="M338 113q50 0 80 4l-19 -119q-47 -12 -147 -12t-137 45t-19 157l66 373l-158 -84l19 92l155 84l150 846h161l-133 -747l254 137l-14 -94l-256 -138l-80 -458q-8 -51 10 -69t68 -17z" />
    <glyph glyph-name="Nacute" unicode="&#x143;" horiz-adv-x="1529" 
d="M1174 1757l-193 -229h-121l164 229h150zM1479 1434l-254 -1434h-183l-577 1169l-205 -1169h-174l254 1434h182l578 -1160l205 1160h174z" />
    <glyph glyph-name="nacute" unicode="&#x144;" horiz-adv-x="1224" 
d="M989 1497l-233 -303h-121l201 303h153zM758 1079q181 0 263 -96t79 -225q-2 -66 -13 -135l-108 -623h-162l107 621q24 141 -26 237t-209 96t-260 -114t-132 -285l-98 -555h-162l135 766l33 299h149l-20 -186q148 200 424 200z" />
    <glyph glyph-name="Ncommaaccent" unicode="&#x145;" horiz-adv-x="1529" 
d="M600 -92h121q-19 -96 -49 -163q-31 -67 -41 -93h-105q56 152 74 256zM1479 1434l-254 -1434h-183l-577 1169l-205 -1169h-174l254 1434h182l578 -1160l205 1160h174z" />
    <glyph glyph-name="ncommaaccent" unicode="&#x146;" horiz-adv-x="1224" 
d="M449 -92h120q-17 -90 -31 -121q-14 -33 -31 -71t-28 -64h-104q56 152 74 256zM758 1079q181 0 263 -96t79 -225q-2 -66 -13 -135l-108 -623h-162l107 621q24 141 -26 237t-209 96t-260 -114t-132 -285l-98 -555h-162l135 766l33 299h149l-20 -186q148 200 424 200z" />
    <glyph glyph-name="Ncaron" unicode="&#x147;" horiz-adv-x="1529" 
d="M1270 1757l-266 -229h-148l-180 229h125l133 -166l199 166h137zM1479 1434l-254 -1434h-183l-577 1169l-205 -1169h-174l254 1434h182l578 -1160l205 1160h174z" />
    <glyph glyph-name="ncaron" unicode="&#x148;" horiz-adv-x="1224" 
d="M1053 1499l-277 -305h-149l-170 305h125l123 -233l213 233h135zM758 1079q181 0 263 -96t79 -225q-2 -66 -13 -135l-108 -623h-162l107 621q24 141 -26 237t-209 96t-260 -114t-132 -285l-98 -555h-162l135 766l33 299h149l-20 -186q148 200 424 200z" />
    <glyph glyph-name="Eng" unicode="&#x14a;" horiz-adv-x="1529" 
d="M1479 1434l-248 -1407q-31 -166 -131 -244t-256 -113l-21 117q137 40 187 108q25 34 37 78l6 27l-586 1180l-207 -1180h-172l252 1434h180l580 -1170l205 1170h174z" />
    <glyph glyph-name="eng" unicode="&#x14b;" horiz-adv-x="1224" 
d="M758 1079q210 0 286 -132t43 -324l-112 -641q-25 -139 -121 -208t-256 -104l-14 107q119 39 166 81t59 111l115 652q24 139 -28 236t-209 97t-258 -114t-132 -285l-98 -555h-162l135 766l33 299h149l-20 -188q148 202 424 202z" />
    <glyph glyph-name="Omacron" unicode="&#x14c;" horiz-adv-x="1677" 
d="M1280 1714l-18 -98h-611l17 98h612zM920 1313q-144 -1 -262 -57t-190 -152q-145 -195 -153 -452t128 -394t362 -137q147 0 264 57q117 56 189 152q143 191 151 450q8 258 -128 396t-361 137zM926 1452q305 0 489 -177t176 -489t-187 -543q-91 -118 -248 -190t-357 -71
q-307 0 -491 177q-183 177 -175 489t188 544q91 120 247 190t358 70z" />
    <glyph glyph-name="omacron" unicode="&#x14d;" horiz-adv-x="1275" 
d="M1030 1370l-18 -98h-611l17 98h612zM641 950q-172 0 -280 -135q-109 -135 -111 -323t90 -282q92 -95 248 -95q190 0 299 135q109 134 113 322t-92 283q-95 95 -267 95zM670 1079q223 0 361 -128q138 -129 135 -379q-2 -250 -158 -418t-428 -168q-223 0 -362 128
q-138 128 -135 378t160 419q157 168 427 168z" />
    <glyph glyph-name="Obreve" unicode="&#x14e;" horiz-adv-x="1679" 
d="M964 1550q-226 0 -233 213l113 6q2 -67 28 -99t99 -32q71 0 109 32t63 99l110 -6q-63 -213 -289 -213zM920 1313q-144 -1 -262 -57t-190 -152q-145 -195 -153 -452t128 -394t362 -137q147 0 264 57q117 56 189 152q143 191 151 450q8 258 -128 396t-361 137zM926 1452
q305 0 489 -177t176 -489t-187 -543q-91 -118 -248 -190t-357 -71q-307 0 -491 177q-183 177 -175 489t188 544q91 120 247 190t358 70z" />
    <glyph glyph-name="obreve" unicode="&#x14f;" horiz-adv-x="1275" 
d="M739 1294q136 0 185 150l106 -10q-66 -228 -299 -228t-239 228l106 10q10 -150 141 -150zM641 950q-172 0 -280 -135q-109 -135 -111 -323t90 -282q92 -95 248 -95q190 0 299 135q109 134 113 322t-92 283q-95 95 -267 95zM670 1079q223 0 361 -128q138 -129 135 -379
q-2 -250 -158 -418t-428 -168q-223 0 -362 128q-138 128 -135 378t160 419q157 168 427 168z" />
    <glyph glyph-name="Ohungarumlaut" unicode="&#x150;" horiz-adv-x="1677" 
d="M1024 1757l-207 -229h-121l172 229h156zM1321 1757l-207 -229h-121l172 229h156zM920 1313q-144 -1 -262 -57t-190 -152q-145 -195 -153 -452t128 -394t362 -137q147 0 264 57q117 56 189 152q143 191 151 450q8 258 -128 396t-361 137zM926 1452q305 0 489 -177
t176 -489t-187 -543q-91 -118 -248 -190t-357 -71q-307 0 -491 177q-183 177 -175 489t188 544q91 120 247 190t358 70z" />
    <glyph glyph-name="ohungarumlaut" unicode="&#x151;" horiz-adv-x="1275" 
d="M821 1487l-239 -303h-121l203 303h157zM1118 1487l-239 -303h-121l203 303h157zM641 950q-172 0 -280 -135q-109 -135 -111 -323t90 -282q92 -95 248 -95q190 0 299 135q109 134 113 322t-92 283q-95 95 -267 95zM670 1079q223 0 361 -128q138 -129 135 -379
q-2 -250 -158 -418t-428 -168q-223 0 -362 128q-138 128 -135 378t160 419q157 168 427 168z" />
    <glyph glyph-name="OE" unicode="&#x152;" horiz-adv-x="2598" 
d="M790 121q210 0 349 99q257 183 272 566q8 254 -128 390t-363 137q-144 -1 -262 -57t-190 -152q-145 -195 -153 -452q-7 -257 129 -394t346 -137zM941 1452q216 0 381 -109t222 -309l70 400h1003l-24 -140h-830l-94 -524h717l-25 -139h-716l-86 -492h854l-25 -139h-1028
l49 276q-211 -295 -610 -294q-307 0 -491 177q-183 177 -175 492q4 147 50 285q107 320 385 446q156 70 373 70z" />
    <glyph glyph-name="oe" unicode="&#x153;" horiz-adv-x="2115" 
d="M1634 954q-168 0 -288 -108t-158 -266q135 -16 231 -17q449 0 453 221q0 170 -238 170zM641 950q-172 0 -280 -135q-109 -135 -111 -323t90 -282q92 -95 248 -95q190 0 299 135q109 134 113 322t-92 283q-95 95 -267 95zM670 1079q158 -1 278 -67t174 -193
q184 260 525 260q177 1 285 -69t106 -219q-2 -338 -600 -338q-137 0 -262 18v-4q-2 -176 94 -266t284 -90t338 79l33 -112q-158 -92 -414 -92q-334 0 -452 229q-160 -229 -479 -229q-223 0 -362 128q-138 128 -135 378t160 419q157 168 427 168z" />
    <glyph glyph-name="Racute" unicode="&#x154;" horiz-adv-x="1447" 
d="M1040 1757l-192 -229h-121l164 229h149zM899 741q154 0 248 79t94 204t-70 198t-198 72h-469l-101 -553h496zM1421 1043q0 -165 -102 -279t-283 -146l191 -618h-178l-175 602h-493l-105 -602h-174l252 1434h658q195 0 302 -113t107 -278z" />
    <glyph glyph-name="racute" unicode="&#x155;" horiz-adv-x="706" 
d="M731 1473l-233 -304h-121l201 304h153zM719 1065l-37 -160q-152 20 -246 -78t-127 -288l-96 -539h-162l146 813l28 252h148l-23 -201q52 106 150 166t219 35z" />
    <glyph glyph-name="Rcommaaccent" unicode="&#x156;" horiz-adv-x="1454" 
d="M580 -92h120q-16 -84 -30 -118q-14 -36 -32 -74t-28 -64h-104q56 152 74 256zM899 741q154 0 248 79t94 204t-70 198t-198 72h-469l-101 -553h496zM1421 1043q0 -165 -102 -279t-283 -146l191 -618h-178l-175 602h-493l-105 -602h-174l252 1434h658q195 0 302 -113
t107 -278z" />
    <glyph glyph-name="rcommaaccent" unicode="&#x157;" horiz-adv-x="706" 
d="M66 -92h120q-16 -84 -30 -118q-14 -36 -32 -74t-28 -64h-104q56 152 74 256zM719 1065l-37 -160q-152 20 -246 -78t-127 -288l-96 -539h-162l146 813l28 252h148l-23 -201q52 106 150 166t219 35z" />
    <glyph glyph-name="Rcaron" unicode="&#x158;" horiz-adv-x="1454" 
d="M1221 1753l-267 -229h-147l-180 229h125l133 -166l198 166h138zM899 741q154 0 248 79t94 204t-70 198t-198 72h-469l-101 -553h496zM1421 1043q0 -165 -102 -279t-283 -146l191 -618h-178l-175 602h-493l-105 -602h-174l252 1434h658q195 0 302 -113t107 -278z" />
    <glyph glyph-name="rcaron" unicode="&#x159;" horiz-adv-x="706" 
d="M797 1475l-277 -306h-149l-170 306h125l123 -234l213 234h135zM719 1065l-37 -160q-152 20 -246 -78t-127 -288l-96 -539h-162l146 813l28 252h148l-23 -201q52 106 150 166t219 35z" />
    <glyph glyph-name="Sacute" unicode="&#x15a;" horiz-adv-x="1241" 
d="M1001 1755l-192 -229h-121l164 229h149zM203 1044q0 200 140 304q141 104 371 104t500 -119l-57 -137q-240 117 -429 117t-266 -70t-77 -169t69 -149t245 -118q303 -118 366 -200q63 -81 63 -208q0 -199 -136 -309t-382 -108q-326 0 -594 161l60 140q285 -164 542 -160
q154 1 240 67t86 176t-74 159q-74 51 -224 107t-194 76q-133 61 -182 123q-67 87 -67 213z" />
    <glyph glyph-name="sacute" unicode="&#x15b;" horiz-adv-x="997" 
d="M870 1495l-233 -303h-121l201 303h153zM542 1079q175 0 390 -92l-49 -108q-190 80 -326 79q-246 0 -246 -165q0 -70 50 -104q51 -34 147 -66q96 -33 132 -45t87 -39t74 -55q59 -72 59 -175q0 -159 -112 -241t-323 -82q-210 0 -419 129l51 110q199 -121 383 -119
q252 4 252 181q0 79 -54 115t-160 68t-144 48t-90 48q-99 62 -99 210t111 226t286 77z" />
    <glyph glyph-name="Scircumflex" unicode="&#x15c;" horiz-adv-x="1241" 
d="M459 1526l266 229h147l181 -229h-125l-133 166l-199 -166h-137zM203 1044q0 200 140 304q141 104 371 104t500 -119l-57 -137q-240 117 -429 117t-266 -70t-77 -169t69 -149t245 -118q303 -118 366 -200q63 -81 63 -208q0 -199 -136 -309t-382 -108q-326 0 -594 161
l60 140q285 -164 542 -160q154 1 240 67t86 176t-74 159q-74 51 -224 107t-194 76q-133 61 -182 123q-67 87 -67 213z" />
    <glyph glyph-name="scircumflex" unicode="&#x15d;" horiz-adv-x="997" 
d="M287 1190l276 305h150l170 -305h-125l-123 233l-213 -233h-135zM542 1079q175 0 390 -92l-49 -108q-190 80 -326 79q-246 0 -246 -165q0 -70 50 -104q51 -34 147 -66q96 -33 132 -45t87 -39t74 -55q59 -72 59 -175q0 -159 -112 -241t-323 -82q-210 0 -419 129l51 110
q199 -121 383 -119q252 4 252 181q0 79 -54 115t-160 68t-144 48t-90 48q-99 62 -99 210t111 226t286 77z" />
    <glyph glyph-name="Scedilla" unicode="&#x15e;" horiz-adv-x="1241" 
d="M203 1044q0 200 140 304q141 104 371 104t500 -119l-57 -137q-240 117 -429 117t-266 -70t-77 -169t69 -149t245 -118q303 -118 366 -200q63 -81 63 -208q0 -199 -136 -309t-382 -108h-18l-51 -101q55 1 104 -27t49 -105t-63 -115t-159 -38t-167 29l19 78q57 -29 141 -29
q117 0 117 72q0 78 -131 61l-29 37l78 144q-264 23 -484 155l60 140q285 -164 542 -160q154 1 240 67t86 176t-74 159q-74 51 -224 107t-194 76q-133 61 -182 123q-67 87 -67 213z" />
    <glyph glyph-name="scedilla" unicode="&#x15f;" horiz-adv-x="997" 
d="M542 1079q175 0 390 -92l-49 -108q-190 80 -326 79q-246 0 -246 -165q0 -70 50 -104q51 -34 147 -66q96 -33 132 -45t87 -39t74 -55q59 -72 59 -175q0 -159 -112 -241t-304 -82l-53 -105q55 2 105 -26q49 -29 49 -106q1 -77 -63 -115t-160 -38t-166 29l18 78
q57 -29 141 -29q117 0 117 72q0 78 -131 61l-29 37l80 148q-182 20 -346 123l51 110q199 -121 383 -119q252 4 252 181q0 79 -54 115t-160 68t-144 48t-90 48q-99 62 -99 210t111 226t286 77z" />
    <glyph glyph-name="Scaron" unicode="&#x160;" horiz-adv-x="1241" 
d="M1098 1755l-267 -229h-147l-180 229h125l133 -166l199 166h137zM203 1044q0 200 140 304q141 104 371 104t500 -119l-57 -137q-240 117 -429 117t-266 -70t-77 -169t69 -149t245 -118q303 -118 366 -200q63 -81 63 -208q0 -199 -136 -309t-382 -108q-326 0 -594 161
l60 140q285 -164 542 -160q154 1 240 67t86 176t-74 159q-74 51 -224 107t-194 76q-133 61 -182 123q-67 87 -67 213z" />
    <glyph glyph-name="scaron" unicode="&#x161;" horiz-adv-x="997" 
d="M938 1495l-276 -305h-150l-170 305h125l123 -233l213 233h135zM542 1079q175 0 390 -92l-49 -108q-190 80 -326 79q-246 0 -246 -165q0 -70 50 -104q51 -34 147 -66q96 -33 132 -45t87 -39t74 -55q59 -72 59 -175q0 -159 -112 -241t-323 -82q-210 0 -419 129l51 110
q199 -121 383 -119q252 4 252 181q0 79 -54 115t-160 68t-144 48t-90 48q-99 62 -99 210t111 226t286 77z" />
    <glyph glyph-name="Tcommaaccent" unicode="&#x162;" horiz-adv-x="1212" 
d="M440 -92h121q-17 -90 -31 -121q-14 -33 -31 -71t-28 -64h-104q55 152 73 256zM1335 1434l-24 -140h-494l-229 -1294h-174l229 1294h-496l25 140h1163z" />
    <glyph glyph-name="tcommaaccent" unicode="&#x163;" horiz-adv-x="745" 
d="M266 -92h121q-17 -90 -31 -121q-14 -33 -31 -71t-28 -64h-104q55 152 73 256zM295 213q0 -59 33 -84q32 -25 102 -25t143 25l-10 -111q-80 -32 -206 -32t-178 50t-52 144q0 43 14 119l113 649h-154l21 117h155l80 307h136l-54 -307h307l-22 -117h-307l-111 -645
q-10 -82 -10 -90z" />
    <glyph glyph-name="Tcaron" unicode="&#x164;" horiz-adv-x="1212" 
d="M1108 1757l-266 -229h-148l-180 229h125l133 -166l199 166h137zM1335 1434l-24 -140h-494l-229 -1294h-174l229 1294h-496l25 140h1163z" />
    <glyph glyph-name="tcaron" unicode="&#x165;" horiz-adv-x="745" 
d="M295 213q0 -59 33 -84q32 -25 102 -25t143 25l-10 -111q-80 -32 -206 -32t-178 50t-52 144q0 43 14 119l113 649h-154l21 117h155l80 307h136l-54 -307h307l-22 -117h-307l-111 -645q-10 -82 -10 -90zM680 1499h117q-29 -152 -99 -291h-82q46 180 64 291z" />
    <glyph glyph-name="Tbar" unicode="&#x166;" horiz-adv-x="1212" 
d="M1335 1434l-24 -140h-494l-92 -522h346l-16 -80h-344l-123 -692h-174l123 692h-347l15 80h346l92 522h-496l25 140h1163z" />
    <glyph glyph-name="tbar" unicode="&#x167;" horiz-adv-x="745" 
d="M295 213q0 -59 33 -84q32 -25 102 -25t143 25l-10 -111q-80 -32 -206 -32t-178 50t-52 144q0 43 14 119l70 403h-152l13 60h149l33 186h-154l21 117h155l80 307h136l-54 -307h307l-22 -117h-307l-33 -186h299l-12 -60h-297l-68 -399q-10 -82 -10 -90z" />
    <glyph glyph-name="Utilde" unicode="&#x168;" horiz-adv-x="1490" 
d="M797 1663q-68 0 -119 -78l-53 31q74 152 202 151q49 0 129 -44t121 -44q64 0 117 76l55 -29q-78 -152 -202 -151q-57 0 -125 43q-90 45 -125 45zM686 -18q-256 0 -388 134t-132 316q0 47 6 90l160 912h174l-162 -916q-6 -35 -6 -67q0 -141 93 -235t266 -95q173 0 276 96
q102 96 129 242l174 975h174l-170 -961q-38 -219 -188 -355t-406 -136z" />
    <glyph glyph-name="utilde" unicode="&#x169;" horiz-adv-x="1253" 
d="M848 1241q-57 0 -125 43q-90 45 -125 45q-68 0 -119 -78l-53 31q74 152 203 152q49 0 129 -44t121 -44q63 -1 116 75l56 -28q-78 -152 -203 -152zM446 -14q-181 0 -264 97t-80 224q2 66 13 135l110 623h164l-110 -621q-25 -141 26 -237t210 -96q159 1 259 115t131 284
l99 555h163l-135 -766l-33 -299h-149l18 184q-154 -198 -422 -198z" />
    <glyph glyph-name="Umacron" unicode="&#x16a;" horiz-adv-x="1490" 
d="M1219 1714l-19 -98h-610l16 98h613zM686 -18q-256 0 -388 134t-132 316q0 47 6 90l160 912h174l-162 -916q-6 -35 -6 -67q0 -141 93 -235t266 -95q173 0 276 96q102 96 129 242l174 975h174l-170 -961q-38 -219 -188 -355t-406 -136z" />
    <glyph glyph-name="umacron" unicode="&#x16b;" horiz-adv-x="1253" 
d="M1047 1380l-19 -98h-610l16 98h613zM446 -14q-181 0 -264 97t-80 224q2 66 13 135l110 623h164l-110 -621q-25 -141 26 -237t210 -96q159 1 259 115t131 284l99 555h163l-135 -766l-33 -299h-149l18 184q-154 -198 -422 -198z" />
    <glyph glyph-name="Ubreve" unicode="&#x16c;" horiz-adv-x="1490" 
d="M912 1550q-226 0 -232 213l113 6q3 -67 29 -99t98 -32t110 32t62 99l110 -6q-64 -213 -290 -213zM686 -18q-256 0 -388 134t-132 316q0 47 6 90l160 912h174l-162 -916q-6 -35 -6 -67q0 -141 93 -235t266 -95q173 0 276 96q102 96 129 242l174 975h174l-170 -961
q-38 -219 -188 -355t-406 -136z" />
    <glyph glyph-name="ubreve" unicode="&#x16d;" horiz-adv-x="1253" 
d="M723 1217q-233 0 -240 227l107 10q10 -150 141 -149q135 -1 184 149l107 -10q-66 -227 -299 -227zM446 -14q-181 0 -264 97t-80 224q2 66 13 135l110 623h164l-110 -621q-25 -141 26 -237t210 -96q159 1 259 115t131 284l99 555h163l-135 -766l-33 -299h-149l18 184
q-154 -198 -422 -198z" />
    <glyph glyph-name="Uring" unicode="&#x16e;" horiz-adv-x="1490" 
d="M948 1827q-109 0 -117 -119q-4 -51 27 -78q31 -26 79 -26t80 30t34 86q2 55 -28 81t-75 26zM947 1903q87 0 143 -45q56 -46 53 -138t-61 -142t-146 -50t-144 46t-52 138t62 142t145 49zM686 -18q-256 0 -388 134t-132 316q0 47 6 90l160 912h174l-162 -916q-6 -35 -6 -67
q0 -141 93 -235t266 -95q173 0 276 96q102 96 129 242l174 975h174l-170 -961q-38 -219 -188 -355t-406 -136z" />
    <glyph glyph-name="uring" unicode="&#x16f;" horiz-adv-x="1253" 
d="M750 1493q-109 0 -117 -119q-3 -51 27 -78q30 -26 78 -26t80 30t34 86t-28 82t-74 25zM749 1569q87 0 142 -45t53 -137q-2 -93 -60 -143t-146 -50t-145 46q-56 46 -52 138t62 142q59 49 146 49zM446 -14q-181 0 -264 97t-80 224q2 66 13 135l110 623h164l-110 -621
q-25 -141 26 -237t210 -96q159 1 259 115t131 284l99 555h163l-135 -766l-33 -299h-149l18 184q-154 -198 -422 -198z" />
    <glyph glyph-name="Uhungarumlaut" unicode="&#x170;" horiz-adv-x="1490" 
d="M993 1757l-207 -229h-120l172 229h155zM1290 1757l-207 -229h-120l172 229h155zM686 -18q-256 0 -388 134t-132 316q0 47 6 90l160 912h174l-162 -916q-6 -35 -6 -67q0 -141 93 -235t266 -95q173 0 276 96q102 96 129 242l174 975h174l-170 -961q-38 -219 -188 -355
t-406 -136z" />
    <glyph glyph-name="uhungarumlaut" unicode="&#x171;" horiz-adv-x="1253" 
d="M1143 1497l-240 -303h-121l203 303h158zM846 1497l-240 -303h-121l203 303h158zM446 -14q-181 0 -264 97t-80 224q2 66 13 135l110 623h164l-110 -621q-25 -141 26 -237t210 -96q159 1 259 115t131 284l99 555h163l-135 -766l-33 -299h-149l18 184q-154 -198 -422 -198z
" />
    <glyph glyph-name="Uogonek" unicode="&#x172;" horiz-adv-x="1490" 
d="M694 -190q0 -72 74 -72q37 0 74 10l-2 -88q-53 -18 -113 -18q-141 0 -141 133q0 117 116 207h-14q-258 0 -390 134t-132 316q0 47 6 90l160 912h174l-162 -916q-6 -35 -6 -67q0 -141 93 -235t266 -95q173 0 276 96q102 96 129 242l174 975h174l-170 -961
q-32 -186 -146 -314t-305 -163q-135 -82 -135 -186z" />
    <glyph glyph-name="uogonek" unicode="&#x173;" horiz-adv-x="1253" 
d="M446 -14q-181 0 -264 97t-80 224q2 66 13 135l110 623h164l-110 -621q-25 -141 26 -237t210 -96q159 1 259 115t131 284l99 555h163l-135 -766l-33 -299q-145 -82 -145 -190q0 -72 74 -72q37 0 73 10l-2 -88q-53 -18 -112 -18q-141 0 -141 130t141 228h-37l18 184
q-154 -198 -422 -198z" />
    <glyph glyph-name="Wcircumflex" unicode="&#x174;" horiz-adv-x="2000" 
d="M840 1528l266 229h147l181 -229h-125l-133 166l-199 -166h-137zM2081 1434l-662 -1434h-215l-110 1171l-525 -1171h-213l-159 1434h170l133 -1227l538 1210h195l108 -1202l547 1219h193z" />
    <glyph glyph-name="wcircumflex" unicode="&#x175;" horiz-adv-x="1677" 
d="M623 1184l276 305h150l170 -305h-125l-123 233l-213 -233h-135zM1696 1065l-518 -1065h-189l-119 844l-413 -844h-191l-139 1065h158l112 -891l439 891h145l121 -887l420 887h174z" />
    <glyph glyph-name="Ycircumflex" unicode="&#x176;" horiz-adv-x="1312" 
d="M487 1528l267 229h147l180 -229h-125l-133 166l-198 -166h-138zM637 0h-174l100 580l-360 854h172l295 -721l549 721h186l-670 -869z" />
    <glyph glyph-name="ycircumflex" unicode="&#x177;" horiz-adv-x="1142" 
d="M334 1184l276 305h150l170 -305h-125l-123 233l-213 -233h-135zM148 -356q-106 0 -209 28l28 123q179 -53 277 18q55 40 108 134l27 51l-256 1067h170l201 -911l483 911h178l-633 -1145q-92 -166 -180 -221t-194 -55z" />
    <glyph glyph-name="Ydieresis" unicode="&#x178;" horiz-adv-x="1312" 
d="M1028 1735q45 0 68 -22t20 -60q0 -82 -88 -82q-40 -1 -64 21t-22 61q4 82 86 82zM612 1735q45 0 69 -22t21 -60q0 -82 -90 -82q-40 -1 -64 21t-22 61q4 82 86 82zM637 0h-174l100 580l-360 854h172l295 -721l549 721h186l-670 -869z" />
    <glyph glyph-name="Zacute" unicode="&#x179;" horiz-adv-x="1267" 
d="M1022 1757l-193 -229h-120l163 229h150zM1325 1434l-20 -117l-1078 -1182l432 4h447l-25 -139h-1114l21 117l1081 1181l-422 -4h-422l25 140h1075z" />
    <glyph glyph-name="zacute" unicode="&#x17a;" horiz-adv-x="1052" 
d="M885 1497l-234 -303h-121l201 303h154zM1055 1065l-23 -131l-829 -823l340 6h356l-22 -117h-900l23 127l831 825l-327 -4h-342l22 117h871z" />
    <glyph glyph-name="Zdotaccent" unicode="&#x17b;" horiz-adv-x="1267" 
d="M807 1735q45 0 67 -22t21 -60q0 -82 -88 -82q-41 -1 -65 21t-21 61q4 82 86 82zM1325 1434l-20 -117l-1078 -1182l432 4h447l-25 -139h-1114l21 117l1081 1181l-422 -4h-422l25 140h1075z" />
    <glyph glyph-name="zdotaccent" unicode="&#x17c;" horiz-adv-x="1052" 
d="M623 1397q95 0 90 -84q-4 -86 -95 -86q-48 1 -72 23t-22 63q4 84 99 84zM1055 1065l-23 -131l-829 -823l340 6h356l-22 -117h-900l23 127l831 825l-327 -4h-342l22 117h871z" />
    <glyph glyph-name="Zcaron" unicode="&#x17d;" horiz-adv-x="1267" 
d="M1118 1757l-266 -229h-147l-181 229h125l133 -166l199 166h137zM1325 1434l-20 -117l-1078 -1182l432 4h447l-25 -139h-1114l21 117l1081 1181l-422 -4h-422l25 140h1075z" />
    <glyph glyph-name="zcaron" unicode="&#x17e;" horiz-adv-x="1052" 
d="M975 1499l-277 -305h-149l-170 305h125l123 -233l213 233h135zM1055 1065l-23 -131l-829 -823l340 6h356l-22 -117h-900l23 127l831 825l-327 -4h-342l22 117h871z" />
    <glyph glyph-name="AEacute" unicode="&#x1fc;" horiz-adv-x="2105" 
d="M1714 1757l-192 -229h-121l164 229h149zM1047 1294l-551 -759h469l135 759h-53zM109 0h-199l1057 1434h1159l-25 -140h-829l-94 -526h716l-24 -139h-717l-86 -490h858l-24 -139h-1031l72 395h-547z" />
    <glyph glyph-name="aeacute" unicode="&#x1fd;" horiz-adv-x="1865" 
d="M1282 1497l-233 -303h-121l200 303h154zM426 109q111 0 209 48t147 128q-31 108 -18 227q-115 8 -205 8q-362 0 -362 -221q0 -190 229 -190zM1171 563q449 0 453 221q0 170 -238 170q-168 0 -288 -108t-156 -264q118 -19 229 -19zM1399 1079q177 1 285 -69t106 -219
q-2 -338 -600 -338q-137 0 -262 18v-4q-2 -176 94 -266t284 -90t339 79l32 -112q-158 -92 -413 -92q-311 0 -437 200q-152 -201 -465 -200q-152 0 -242 76t-91 225q2 346 528 346q125 0 227 -10q31 111 97 204q-29 127 -260 127q-195 0 -390 -53l-2 121q199 57 452 57
t329 -121q168 121 389 121z" />
    <glyph glyph-name="Oslashacute" unicode="&#x1fe;" horiz-adv-x="1679" 
d="M1147 1757l-193 -229h-120l163 229h150zM938 1313q-315 0 -469 -209q-146 -194 -154 -445q-8 -250 119 -391l789 957q-121 88 -285 88zM786 121q316 0 471 210q144 190 151 443q7 254 -120 393l-790 -956q122 -90 288 -90zM941 1452q216 0 382 -106l127 155h113
l-170 -207q205 -178 197 -499t-186 -552q-91 -118 -248 -190q-157 -71 -375 -71t-384 106l-133 -160h-110l174 213q-203 180 -195 510q4 147 50 285q107 320 385 446q156 70 373 70z" />
    <glyph glyph-name="oslashacute" unicode="&#x1ff;" horiz-adv-x="1275" 
d="M961 1497l-234 -303h-121l201 303h154zM588 115q190 0 299 135q108 136 111 314t-74 272l-545 -662q80 -59 209 -59zM655 950q-186 0 -294 -135q-109 -135 -111 -317t82 -281l549 662q-91 71 -226 71zM670 1079q180 0 305 -86l115 140h79l-145 -177q145 -134 142 -384
q-2 -250 -158 -418t-428 -168q-174 0 -295 75l-107 -129h-80l138 166q-156 131 -153 388t160 425t427 168z" />
    <glyph glyph-name="Scommaaccent" unicode="&#x218;" horiz-adv-x="1241" 
d="M498 -90h120q-16 -84 -30 -118q-14 -36 -32 -74t-28 -64h-104q56 152 74 256zM203 1044q0 200 140 304q141 104 371 104t500 -119l-57 -137q-240 117 -429 117t-266 -70t-77 -169t69 -149t245 -118q303 -118 366 -200q63 -81 63 -208q0 -199 -136 -309t-382 -108
q-326 0 -594 161l60 140q285 -164 542 -160q154 1 240 67t86 176t-74 159q-74 51 -224 107t-194 76q-133 61 -182 123q-67 87 -67 213z" />
    <glyph glyph-name="scommaaccent" unicode="&#x219;" horiz-adv-x="997" 
d="M358 -90h121q-17 -90 -31 -121q-14 -33 -31 -71t-28 -64h-104q55 152 73 256zM542 1079q175 0 390 -92l-49 -108q-190 80 -326 79q-246 0 -246 -165q0 -70 50 -104q51 -34 147 -66q96 -33 132 -45t87 -39t74 -55q59 -72 59 -175q0 -159 -112 -241t-323 -82
q-210 0 -419 129l51 110q199 -121 383 -119q252 4 252 181q0 79 -54 115t-160 68t-144 48t-90 48q-99 62 -99 210t111 226t286 77z" />
    <glyph glyph-name="circumflex" unicode="&#x2c6;" horiz-adv-x="694" 
d="M158 1159l276 305h150l170 -305h-125l-123 234l-213 -234h-135z" />
    <glyph glyph-name="caron" unicode="&#x2c7;" horiz-adv-x="669" 
d="M795 1464l-277 -305h-149l-170 305h125l122 -233l213 233h136z" />
    <glyph glyph-name="breve" unicode="&#x2d8;" horiz-adv-x="649" 
d="M444 1182q-233 0 -239 227l106 10q10 -150 142 -149q135 -1 184 149l106 -10q-66 -227 -299 -227z" />
    <glyph glyph-name="dotaccent" unicode="&#x2d9;" horiz-adv-x="512" 
d="M384 1372q95 0 89 -84q-4 -86 -94 -86q-47 0 -72 23t-22 63q4 84 99 84z" />
    <glyph glyph-name="ring" unicode="&#x2da;" horiz-adv-x="522" 
d="M418 1458q-109 0 -117 -119q-4 -51 27 -77t79 -27q47 0 79 31t34 86t-27 81q-30 25 -75 25zM417 1534q87 0 142 -45t53 -137t-60 -142t-146 -51q-88 0 -145 46q-56 46 -52 138t62 142q59 49 146 49z" />
    <glyph glyph-name="ogonek" unicode="&#x2db;" horiz-adv-x="559" 
d="M215 -262q37 0 74 10l-2 -88q-53 -18 -113 -18q-141 0 -141 133q0 165 231 276l23 -51q-145 -82 -146 -190q0 -72 74 -72z" />
    <glyph glyph-name="tilde" unicode="&#x2dc;" horiz-adv-x="716" 
d="M602 1206q-57 0 -125 43q-90 45 -125 45q-68 0 -119 -77l-53 30q74 152 203 152q49 0 129 -44t121 -44q64 -1 117 75l55 -28q-78 -152 -203 -152z" />
    <glyph glyph-name="hungarumlaut" unicode="&#x2dd;" horiz-adv-x="724" 
d="M530 1462l-239 -303h-121l203 303h157zM827 1462l-239 -303h-121l203 303h157z" />
    <glyph glyph-name="Wgrave" unicode="&#x1e80;" horiz-adv-x="2000" 
d="M1159 1755l70 -227h-111l-104 227h145zM2081 1434l-662 -1434h-215l-110 1171l-525 -1171h-213l-159 1434h170l133 -1227l538 1210h195l108 -1202l547 1219h193z" />
    <glyph glyph-name="wgrave" unicode="&#x1e81;" horiz-adv-x="1677" 
d="M756 1485h151l78 -301h-119zM1696 1065l-518 -1065h-189l-119 844l-413 -844h-191l-139 1065h158l112 -891l439 891h145l121 -887l420 887h174z" />
    <glyph glyph-name="Wacute" unicode="&#x1e82;" horiz-adv-x="2000" 
d="M1382 1757l-192 -229h-121l164 229h149zM2081 1434l-662 -1434h-215l-110 1171l-525 -1171h-213l-159 1434h170l133 -1227l538 1210h195l108 -1202l547 1219h193z" />
    <glyph glyph-name="wacute" unicode="&#x1e83;" horiz-adv-x="1677" 
d="M1208 1497l-233 -303h-121l201 303h153zM1696 1065l-518 -1065h-189l-119 844l-413 -844h-191l-139 1065h158l112 -891l439 891h145l121 -887l420 887h174z" />
    <glyph glyph-name="Wdieresis" unicode="&#x1e84;" horiz-adv-x="2000" 
d="M1370 1735q45 0 68 -22t20 -60q0 -82 -88 -82q-40 -1 -64 21t-22 61q4 82 86 82zM954 1735q45 0 69 -22t21 -60q0 -82 -90 -82q-40 -1 -64 21t-22 61q4 82 86 82zM2081 1434l-662 -1434h-215l-110 1171l-525 -1171h-213l-159 1434h170l133 -1227l538 1210h195l108 -1202
l547 1219h193z" />
    <glyph glyph-name="wdieresis" unicode="&#x1e85;" horiz-adv-x="1677" 
d="M1139 1397q47 0 69 -23t21 -61q0 -86 -90 -86q-45 1 -69 23t-21 63q4 84 90 84zM721 1397q47 0 72 -23t22 -61q-4 -86 -94 -86q-43 1 -67 23t-21 63q4 84 88 84zM1696 1065l-518 -1065h-189l-119 844l-413 -844h-191l-139 1065h158l112 -891l439 891h145l121 -887
l420 887h174z" />
    <glyph glyph-name="germandbls.case" unicode="&#x1e9e;" horiz-adv-x="1503" 
d="M1155 804q0 -88 75 -170q32 -34 62 -71q75 -91 74 -213q-2 -193 -136 -292t-358 -99q-143 0 -383 72l29 133q186 -72 342 -72t247 67t91 182t-102 214q-39 37 -71 96t-32 131q0 122 88 249q54 78 91 125q37 46 49 61q-161 104 -359 104t-306 -109t-138 -290l-164 -922
h-172l162 920q43 250 199 391q157 141 399 143q154 2 308 -48t271 -140q-16 -23 -88 -114q-73 -91 -97 -127q-24 -37 -52 -103t-29 -118z" />
    <glyph glyph-name="Ygrave" unicode="&#x1ef2;" horiz-adv-x="1312" 
d="M807 1755l70 -227h-111l-104 227h145zM637 0h-174l100 580l-360 854h172l295 -721l549 721h186l-670 -869z" />
    <glyph glyph-name="ygrave" unicode="&#x1ef3;" horiz-adv-x="1142" 
d="M465 1485h151l78 -301h-119zM148 -356q-106 0 -209 28l28 123q179 -53 277 18q55 40 108 134l27 51l-256 1067h170l201 -911l483 911h178l-633 -1145q-92 -166 -180 -221t-194 -55z" />
    <glyph glyph-name="endash" unicode="&#x2013;" horiz-adv-x="1464" 
d="M1307 614l-23 -125l-1157 -2l25 127h1155z" />
    <glyph glyph-name="emdash" unicode="&#x2014;" horiz-adv-x="1742" 
d="M1585 614l-22 -127h-1436l25 127h1433z" />
    <glyph glyph-name="quoteleft" unicode="&#x2018;" horiz-adv-x="509" 
d="M395 1161q66 0 68 -69q0 -45 -30 -71t-78 -26q-47 0 -77 38t-30 116t68 155q69 77 167 115l33 -45q-68 -33 -119 -89t-51 -128v-14q23 18 49 18z" />
    <glyph glyph-name="quoteright" unicode="&#x2019;" horiz-adv-x="509" 
d="M392 1413q48 0 78 -38q30 -37 30 -115t-69 -155t-165 -114l-35 45q68 31 119 87t51 130q0 10 -2 15q-14 -18 -47 -19q-68 0 -67 70q0 43 29 69q30 25 78 25z" />
    <glyph glyph-name="quotesinglbase" unicode="&#x201a;" horiz-adv-x="509" 
d="M173 174q48 0 78 -38t30 -99q0 -96 -68 -172t-166 -117l-35 47q68 31 119 87t51 130q0 8 -2 13q-18 -18 -47 -19q-68 0 -67 72q0 44 30 70t77 26z" />
    <glyph glyph-name="quotedblleft" unicode="&#x201c;" horiz-adv-x="878" 
d="M764 1161q67 0 67 -75q1 -39 -29 -65t-78 -26t-78 38t-30 116t69 155t167 115l33 -45q-68 -33 -119 -89t-51 -128v-14q23 18 49 18zM395 1161q66 0 68 -69q0 -45 -30 -71t-78 -26q-47 0 -77 38t-30 116t68 155q69 77 167 115l33 -45q-68 -33 -119 -89t-51 -128v-14
q23 18 49 18z" />
    <glyph glyph-name="quotedblright" unicode="&#x201d;" horiz-adv-x="878" 
d="M653 1319q0 43 30 69t78 25q48 0 78 -38t29 -99q0 -94 -68 -171t-165 -114l-35 45q68 29 119 86t51 131q0 10 -2 15q-14 -18 -47 -19q-68 0 -68 70zM392 1413q48 0 78 -38q30 -37 30 -115t-69 -155t-165 -114l-35 45q68 29 119 86t51 131q0 10 -2 15q-14 -18 -47 -19
q-68 0 -67 70q0 43 29 69q30 25 78 25z" />
    <glyph glyph-name="quotedblbase" unicode="&#x201e;" horiz-adv-x="876" 
d="M173 174q48 0 78 -38t30 -99q0 -96 -68 -172t-166 -117l-35 47q66 29 118 87t52 130q0 8 -2 13q-18 -18 -47 -19q-68 0 -67 72q0 44 30 70t77 26zM432 78q0 44 30 70t78 26t78 -38t29 -99q1 -96 -67 -172t-166 -117l-35 47q66 29 118 87t52 130q0 8 -2 13
q-18 -18 -47 -19q-68 0 -68 72z" />
    <glyph glyph-name="dagger" unicode="&#x2020;" horiz-adv-x="1095" 
d="M1092 1102l-21 -115l-297 21l14 73zM190 1102l297 -21l-14 -73l-303 -21zM770 1436l-268 -1436h-103l234 1436h137z" />
    <glyph glyph-name="daggerdbl" unicode="&#x2021;" horiz-adv-x="1095" 
d="M1092 1102l-21 -115l-297 21l12 73zM190 1102l295 -21l-12 -73l-303 -21zM993 549l-20 -117l-295 23l12 73zM92 549l297 -21l-12 -73l-305 -23zM772 1436l-268 -1436h-103l234 1436h137z" />
    <glyph glyph-name="bullet" unicode="&#x2022;" horiz-adv-x="788" 
d="M422 883q80 0 127 -45t42 -127t-55 -126t-132 -44t-128 45q-47 45 -42 126q4 81 56 126t132 45z" />
    <glyph glyph-name="ellipsis" unicode="&#x2026;" horiz-adv-x="1302" 
d="M983 166q43 0 69 -25t23 -63q-6 -92 -96 -92q-43 0 -69 24t-21 64q6 92 94 92zM565 166q43 0 69 -25t23 -63q-6 -92 -96 -92q-43 0 -69 24t-21 64q6 92 94 92zM156 166q42 0 68 -25t24 -63q-6 -92 -96 -92q-43 0 -69 24t-22 64q7 92 95 92z" />
    <glyph glyph-name="perthousand" unicode="&#x2030;" horiz-adv-x="2496" 
d="M2081 674q133 0 210 -78t76 -215q0 -185 -99 -291t-273 -106q-133 0 -211 78t-78 212q0 184 100 292q101 108 275 108zM1831 302q0 -214 192 -214q94 0 156 76q61 76 62 198q0 205 -189 205q-94 0 -158 -77t-63 -188zM1292 674q133 0 210 -78t77 -215q0 -185 -99 -291
t-274 -106q-133 0 -211 78t-77 212q0 184 100 292t274 108zM1454 362q0 205 -188 205q-94 0 -158 -77t-64 -188q0 -110 50 -162t143 -52q94 0 156 76q61 76 61 198zM557 1456q133 0 210 -78t77 -217q0 -183 -100 -289t-273 -106q-133 0 -211 78t-78 213q0 183 100 291
t275 108zM531 1350q-93 0 -157 -77t-64 -189t48 -162q50 -52 144 -52t155 76t62 201q0 203 -188 203zM1483 1436l-1077 -1436h-136l1080 1436h133z" />
    <glyph glyph-name="guilsinglleft" unicode="&#x2039;" horiz-adv-x="724" 
d="M670 934l-410 -414l258 -403l-100 -74l-334 471l6 37l500 471z" />
    <glyph glyph-name="guilsinglright" unicode="&#x203a;" horiz-adv-x="722" 
d="M23 131l409 412l-258 405l100 74l334 -471l-6 -37l-500 -471z" />
    <glyph glyph-name="fraction" unicode="&#x2044;" horiz-adv-x="864" 
d="M971 1436l-903 -1436h-136l899 1436h140z" />
    <glyph glyph-name="Euro" unicode="&#x20ac;" horiz-adv-x="1636" 
d="M1001 123q204 0 355 72l-8 -140q-168 -74 -377 -73q-281 0 -454 156t-206 405h-168l33 80h127v36q0 74 12 144h-163l41 80h139q70 253 276 411t510 158q242 0 422 -104l-59 -119q-172 86 -355 86q-231 0 -389 -119t-217 -313h703l-37 -80h-686q-10 -55 -11 -135v-45h617
l-33 -80h-573q33 -190 165 -305t336 -115z" />
    <glyph glyph-name="trademark" unicode="&#x2122;" horiz-adv-x="1583" 
d="M809 1434l-14 -86h-222l-98 -543h-88l98 543h-219l15 86h528zM1575 1434l-111 -629h-88l80 459l-248 -353h-63l-135 353l-82 -459h-88l112 629h84l156 -420l295 420h88z" />
    <glyph glyph-name="commaaccentcomb" unicode="&#xf6c3;" horiz-adv-x="0" 
d="M-436 -92h121q-19 -96 -49 -163q-31 -67 -42 -93h-104q56 152 74 256z" />
    <glyph glyph-name="apple" unicode="&#xf8ff;" horiz-adv-x="2885" 
d="M1177 670q-30 0 -30 -41h51q9 41 -21 41zM1797 672q-30 0 -30 -41h52q8 41 -22 41zM2416 668q-20 0 -20 -54t20 -53q20 -1 19 53q0 54 -19 54zM2109 655q-14 0 -28 -14v-76q14 -10 24 -10q31 0 31 50t-27 50zM864 655q-14 0 -28 -14v-76q14 -10 24 -10q31 0 31 50t-27 50
zM1477 659q-35 0 -35 -52t24 -52q16 0 31 14v84q-12 6 -20 6zM291 819v-90h59v-76h-59v-39q0 -47 63 -30l2 -76q-37 -16 -89 -16t-78 24t-25 82v55h-47v76h47l16 90h111zM2742 819v-90h58v-76h-58v-39q0 -47 62 -30l2 -76q-37 -16 -89 -16t-78 24t-26 82v55h-45v76h45l17 90
h112zM1796 739q125 0 125 -94q0 -35 -2 -53h-150q7 -35 57 -35t85 10v-59q-55 -20 -109 -21q-150 0 -149 125q0 127 143 127zM1167 737q134 0 133 -94q0 -35 -2 -53h-149q6 -35 57 -35t84 10v-59q-51 -20 -108 -21q-150 0 -150 125q1 127 135 127zM2415 737h2
q139 0 139 -126t-137 -126h-4q-72 0 -105 31q-33 30 -33 96t33 96t105 29zM2155 737q98 0 98 -126t-103 -126q-41 0 -67 23v-123h-131v344h108l8 -27q40 35 87 35zM909 737q47 1 73 -31t26 -92q0 -129 -103 -129q-41 0 -67 23v-123h-131v344h108l8 -27q39 35 86 35z
M1626 838v-344h-119l-6 22q-37 -31 -76 -31q-100 0 -100 126t105 126q33 0 65 -20v121h131zM672 729v-221q0 -70 -34 -102t-115 -31q-81 0 -122 24l13 66q42 -14 86 -14t45 32v21q-31 -18 -66 -19q-92 0 -92 101v143h129v-164q0 -25 29 -12v176h127z" />
    <glyph glyph-name="f_i" unicode="&#xfb01;" horiz-adv-x="1157" 
d="M730 1513q179 0 314 -94l-55 -100q-25 23 -97 51t-172 27q-102 0 -172 -69t-83 -171l-16 -92h630l-186 -1065h-162l166 948h-469l-205 -1173h-162l205 1173h-155l22 117h154l14 86q29 166 139 264q111 98 290 98z" />
    <glyph glyph-name="f_l" unicode="&#xfb02;" horiz-adv-x="1191" 
d="M994 113q50 0 79 4l-18 -119q-45 -12 -147 -12t-138 45q-37 45 -18 157l159 902q8 47 9 94q0 204 -213 206q-100 0 -170 -69q-70 -70 -88 -191l-11 -65h271l-21 -117h-270l-207 -1173h-162l207 1173h-145l20 117h145l11 55q31 178 139 286q109 108 283 108t272 -84
q98 -82 98 -250q0 -54 -14 -136l-150 -845q-7 -51 11 -69t68 -17z" />
    <glyph glyph-name="J.alt" horiz-adv-x="665" 
d="M625 1434l-228 -1303q-33 -174 -149 -270t-283 -150l-41 117q51 20 75 32t83 50q117 77 145 237l199 1147h-129l25 140h303z" />
    <glyph glyph-name="Jcircumflex.alt" horiz-adv-x="665" 
d="M203 1528l266 229h147l181 -229h-125l-133 166l-199 -166h-137zM625 1434l-228 -1303q-33 -174 -149 -270t-283 -150l-41 117q51 20 75 32t83 50q117 77 145 237l199 1147h-129l25 140h303z" />
    <glyph glyph-name="a.alt" horiz-adv-x="1200" 
d="M426 109q143 -1 259 77t136 199l21 119q-123 16 -283 16q-362 0 -362 -221q0 -190 229 -190zM660 1079q232 0 326 -87q93 -87 54 -296l-90 -506q-11 -56 23 -64q12 -3 36 -3t60 6l-16 -113q-63 -22 -134 -22t-105 30t-30 78l9 50q-152 -166 -431 -166q-152 0 -242 76
t-91 225q2 346 528 346q139 0 305 -19l17 91q27 141 -40 195t-240 54t-368 -53l-2 121q199 57 431 57z" />
    <glyph glyph-name="aacute.alt" horiz-adv-x="1200" 
d="M924 1497l-234 -303h-121l201 303h154zM426 109q143 -1 259 77t136 199l21 119q-123 16 -283 16q-362 0 -362 -221q0 -190 229 -190zM660 1079q232 0 326 -87q93 -87 54 -296l-90 -506q-11 -56 23 -64q12 -3 36 -3t60 6l-16 -113q-63 -22 -134 -22t-105 30t-30 78l9 50
q-152 -166 -431 -166q-152 0 -242 76t-91 225q2 346 528 346q139 0 305 -19l17 91q27 141 -40 195t-240 54t-368 -53l-2 121q199 57 431 57z" />
    <glyph glyph-name="abreve.alt" horiz-adv-x="1200" 
d="M731 1294q133 0 182 150l107 -10q-66 -228 -299 -228t-240 228l107 10q10 -150 143 -150zM426 109q143 -1 259 77t136 199l21 119q-123 16 -283 16q-362 0 -362 -221q0 -190 229 -190zM660 1079q232 0 326 -87q93 -87 54 -296l-90 -506q-11 -56 23 -64q12 -3 36 -3t60 6
l-16 -113q-63 -22 -134 -22t-105 30t-30 78l9 50q-152 -166 -431 -166q-152 0 -242 76t-91 225q2 346 528 346q139 0 305 -19l17 91q27 141 -40 195t-240 54t-368 -53l-2 121q199 57 431 57z" />
    <glyph glyph-name="acircumflex.alt" horiz-adv-x="1200" 
d="M338 1184l276 305h150l170 -305h-125l-123 233l-213 -233h-135zM426 109q143 -1 259 77t136 199l21 119q-123 16 -283 16q-362 0 -362 -221q0 -190 229 -190zM660 1079q232 0 326 -87q93 -87 54 -296l-90 -506q-11 -56 23 -64q12 -3 36 -3t60 6l-16 -113
q-63 -22 -134 -22t-105 30t-30 78l9 50q-152 -166 -431 -166q-152 0 -242 76t-91 225q2 346 528 346q139 0 305 -19l17 91q27 141 -40 195t-240 54t-368 -53l-2 121q199 57 431 57z" />
    <glyph glyph-name="adieresis.alt" horiz-adv-x="1200" 
d="M870 1397q47 0 70 -23t21 -61q0 -86 -91 -86q-44 1 -68 23t-22 63q4 84 90 84zM453 1397q47 0 71 -23t23 -61q-4 -86 -94 -86q-43 1 -67 23t-21 63q4 84 88 84zM426 109q143 -1 259 77t136 199l21 119q-123 16 -283 16q-362 0 -362 -221q0 -190 229 -190zM660 1079
q232 0 326 -87q93 -87 54 -296l-90 -506q-11 -56 23 -64q12 -3 36 -3t60 6l-16 -113q-63 -22 -134 -22t-105 30t-30 78l9 50q-152 -166 -431 -166q-152 0 -242 76t-91 225q2 346 528 346q139 0 305 -19l17 91q27 141 -40 195t-240 54t-368 -53l-2 121q199 57 431 57z" />
    <glyph glyph-name="agrave.alt" horiz-adv-x="1200" 
d="M498 1485h151l78 -301h-119zM426 109q143 -1 259 77t136 199l21 119q-123 16 -283 16q-362 0 -362 -221q0 -190 229 -190zM660 1079q232 0 326 -87q93 -87 54 -296l-90 -506q-11 -56 23 -64q12 -3 36 -3t60 6l-16 -113q-63 -22 -134 -22t-105 30t-30 78l9 50
q-152 -166 -431 -166q-152 0 -242 76t-91 225q2 346 528 346q139 0 305 -19l17 91q27 141 -40 195t-240 54t-368 -53l-2 121q199 57 431 57z" />
    <glyph glyph-name="amacron.alt" horiz-adv-x="1200" 
d="M1051 1370l-19 -98h-610l16 98h613zM426 109q143 -1 259 77t136 199l21 119q-123 16 -283 16q-362 0 -362 -221q0 -190 229 -190zM660 1079q232 0 326 -87q93 -87 54 -296l-90 -506q-11 -56 23 -64q12 -3 36 -3t60 6l-16 -113q-63 -22 -134 -22t-105 30t-30 78l9 50
q-152 -166 -431 -166q-152 0 -242 76t-91 225q2 346 528 346q139 0 305 -19l17 91q27 141 -40 195t-240 54t-368 -53l-2 121q199 57 431 57z" />
    <glyph glyph-name="aogonek.alt" horiz-adv-x="1200" 
d="M426 109q143 -1 259 77t136 199l21 119q-123 16 -283 16q-362 0 -362 -221q0 -190 229 -190zM660 1079q232 0 326 -87q93 -87 54 -296l-90 -506q-11 -56 23 -64q12 -3 36 -3t60 6l-16 -113q-39 -16 -86 -18q-139 -82 -140 -188q0 -72 74 -72q37 0 74 10l-2 -88
q-53 -18 -113 -18q-141 0 -141 133q0 127 141 225q-82 20 -76 102l9 50q-152 -166 -431 -166q-152 0 -242 76t-91 225q2 346 528 346q139 0 305 -19l17 91q27 141 -40 195t-240 54t-368 -53l-2 121q199 57 431 57z" />
    <glyph glyph-name="aring.alt" horiz-adv-x="1200" 
d="M766 1483q-109 0 -117 -119q-4 -51 27 -78q31 -26 79 -26t80 30q31 30 33 86q2 55 -27 81q-30 26 -75 26zM765 1559q87 1 142 -45t53 -138t-60 -142t-146 -50t-145 46q-56 46 -52 138q5 92 63 142t145 49zM426 109q143 -1 259 77t136 199l21 119q-123 16 -283 16
q-362 0 -362 -221q0 -190 229 -190zM660 1079q232 0 326 -87q93 -87 54 -296l-90 -506q-11 -56 23 -64q12 -3 36 -3t60 6l-16 -113q-63 -22 -134 -22t-105 30t-30 78l9 50q-152 -166 -431 -166q-152 0 -242 76t-91 225q2 346 528 346q139 0 305 -19l17 91q27 141 -40 195
t-240 54t-368 -53l-2 121q199 57 431 57z" />
    <glyph glyph-name="atilde.alt" horiz-adv-x="1200" 
d="M596 1319q-68 0 -119 -78l-53 31q74 152 203 151q49 0 129 -44t121 -44q63 0 116 76l56 -29q-78 -152 -203 -151q-57 0 -125 43q-90 45 -125 45zM426 109q143 -1 259 77t136 199l21 119q-123 16 -283 16q-362 0 -362 -221q0 -190 229 -190zM660 1079q232 0 326 -87
q93 -87 54 -296l-90 -506q-11 -56 23 -64q12 -3 36 -3t60 6l-16 -113q-63 -22 -134 -22t-105 30t-30 78l9 50q-152 -166 -431 -166q-152 0 -242 76t-91 225q2 346 528 346q139 0 305 -19l17 91q27 141 -40 195t-240 54t-368 -53l-2 121q199 57 431 57z" />
    <glyph glyph-name="e.alt" horiz-adv-x="1220" 
d="M658 950q-150 0 -260 -100t-140 -264h698l2 10q0 13 3 55q0 135 -76 217q-77 82 -227 82zM654 1079q222 0 340 -122q116 -122 116 -328q0 -92 -20 -154h-840q0 -164 94 -262t286 -99t365 99l17 -123q-178 -104 -413 -104t-377 130t-136 391t176 417t392 155z" />
    <glyph glyph-name="eacute.alt" horiz-adv-x="1220" 
d="M948 1497l-233 -303h-121l201 303h153zM658 950q-150 0 -260 -100t-140 -264h698l2 10q0 13 3 55q0 135 -76 217q-77 82 -227 82zM654 1079q222 0 340 -122q116 -122 116 -328q0 -92 -20 -154h-840q0 -164 94 -262t286 -99t365 99l17 -123q-178 -104 -413 -104t-377 130
t-136 391t176 417t392 155z" />
    <glyph glyph-name="ebreve.alt" horiz-adv-x="1220" 
d="M725 1294q133 0 182 150l107 -10q-66 -228 -299 -228t-240 228l107 10q10 -150 143 -150zM658 950q-150 0 -260 -100t-140 -264h698l2 10q0 13 3 55q0 135 -76 217q-77 82 -227 82zM654 1079q222 0 340 -122q116 -122 116 -328q0 -92 -20 -154h-840q0 -164 94 -262
t286 -99t365 99l17 -123q-178 -104 -413 -104t-377 130t-136 391t176 417t392 155z" />
    <glyph glyph-name="ecaron.alt" horiz-adv-x="1220" 
d="M1047 1489l-277 -305h-149l-170 305h124l123 -234l213 234h136zM658 950q-150 0 -260 -100t-140 -264h698l2 10q0 13 3 55q0 135 -76 217q-77 82 -227 82zM654 1079q222 0 340 -122q116 -122 116 -328q0 -92 -20 -154h-840q0 -164 94 -262t286 -99t365 99l17 -123
q-178 -104 -413 -104t-377 130t-136 391t176 417t392 155z" />
    <glyph glyph-name="ecircumflex.alt" horiz-adv-x="1220" 
d="M393 1184l277 305h149l170 -305h-125l-123 233l-213 -233h-135zM658 950q-150 0 -260 -100t-140 -264h698l2 10q0 13 3 55q0 135 -76 217q-77 82 -227 82zM654 1079q222 0 340 -122q116 -122 116 -328q0 -92 -20 -154h-840q0 -164 94 -262t286 -99t365 99l17 -123
q-178 -104 -413 -104t-377 130t-136 391t176 417t392 155z" />
    <glyph glyph-name="edieresis.alt" horiz-adv-x="1220" 
d="M893 1397q47 0 70 -23t20 -61q0 -86 -90 -86q-45 1 -69 23t-21 63q4 84 90 84zM475 1397q47 0 72 -23t22 -61q-4 -86 -94 -86q-43 1 -67 23t-21 63q4 84 88 84zM658 950q-150 0 -260 -100t-140 -264h698l2 10q0 13 3 55q0 135 -76 217q-77 82 -227 82zM654 1079
q222 0 340 -122q116 -122 116 -328q0 -92 -20 -154h-840q0 -164 94 -262t286 -99t365 99l17 -123q-178 -104 -413 -104t-377 130t-136 391t176 417t392 155z" />
    <glyph glyph-name="edotaccent.alt" horiz-adv-x="1220" 
d="M713 1397q94 0 90 -84q-4 -86 -94 -86q-47 1 -72 23t-23 63q5 84 99 84zM658 950q-150 0 -260 -100t-140 -264h698l2 10q0 13 3 55q0 135 -76 217q-77 82 -227 82zM654 1079q222 0 340 -122q116 -122 116 -328q0 -92 -20 -154h-840q0 -164 94 -262t286 -99t365 99
l17 -123q-178 -104 -413 -104t-377 130t-136 391t176 417t392 155z" />
    <glyph glyph-name="egrave.alt" horiz-adv-x="1220" 
d="M522 1485h152l78 -301h-119zM658 950q-150 0 -260 -100t-140 -264h698l2 10q0 13 3 55q0 135 -76 217q-77 82 -227 82zM654 1079q222 0 340 -122q116 -122 116 -328q0 -92 -20 -154h-840q0 -164 94 -262t286 -99t365 99l17 -123q-178 -104 -413 -104t-377 130t-136 391
t176 417t392 155z" />
    <glyph glyph-name="emacron.alt" horiz-adv-x="1220" 
d="M1024 1370l-18 -98h-611l17 98h612zM658 950q-150 0 -260 -100t-140 -264h698l2 10q0 13 3 55q0 135 -76 217q-77 82 -227 82zM654 1079q222 0 340 -122q116 -122 116 -328q0 -92 -20 -154h-840q0 -164 94 -262t286 -99t365 99l17 -123q-178 -104 -413 -104t-377 130
t-136 391t176 417t392 155z" />
    <glyph glyph-name="eogonek.alt" horiz-adv-x="1220" 
d="M658 950q-150 0 -260 -100t-140 -264h698l2 10q0 13 3 55q0 135 -76 217q-77 82 -227 82zM654 1079q222 0 340 -122q116 -122 116 -328q0 -92 -20 -154h-840q0 -164 94 -262t286 -99t365 99l17 -123q-66 -37 -156 -65q-150 -82 -149 -215q0 -72 73 -72q37 0 74 10l-2 -88
q-53 -18 -113 -18q-141 0 -141 133q0 119 113 217q-49 -6 -101 -6q-246 0 -388 130t-136 391t176 417t392 155z" />
    <glyph glyph-name="j.alt" horiz-adv-x="516" 
d="M414 1421q48 1 74 -23t22 -63q0 -86 -96 -86q-47 0 -73 23t-22 61q5 88 95 88zM469 1065l-184 -1042q-24 -147 -123 -228t-164 -113q-65 -31 -68 -30l-39 110q201 80 230 244l166 942h-140l21 117h301z" />
    <glyph glyph-name="jcircumflex.alt" horiz-adv-x="516" 
d="M45 1159l277 305h149l170 -305h-125l-123 234l-213 -234h-135zM469 1065l-184 -1042q-24 -147 -123 -228t-164 -113q-65 -31 -68 -30l-39 110q201 80 230 244l166 942h-140l21 117h301z" />
    <glyph glyph-name="f_b" horiz-adv-x="1978" 
d="M1311 113q102 0 181 43q140 76 190 263q22 79 22 161q0 170 -88 271t-234 101t-240 -76q-167 -137 -167 -391q0 -168 90 -270t246 -102zM1412 1079q224 0 342 -134q118 -133 118 -371t-138 -412t-399 -176q-155 -2 -263 68t-150 192l-50 -246h-151l192 1090q12 74 13 96
q0 104 -58 154t-151 51q-217 0 -262 -258l-15 -68h260l-20 -117h-260l-207 -1173h-164l207 1173h-145l20 117h145l13 57q33 182 139 286t282 105t277 -81q100 -82 100 -250q0 -39 -16 -127l-22 -127q139 151 363 151z" />
    <glyph glyph-name="f_f_b" horiz-adv-x="2568" 
d="M1905 113q102 0 181 43q140 76 190 263q22 79 22 161q0 170 -88 271t-234 101t-240 -76q-167 -137 -167 -391q0 -168 90 -270t246 -102zM2006 1079q224 0 342 -134q118 -133 118 -371t-138 -412t-399 -176q-155 -2 -263 68t-150 192l-50 -246h-151l194 1104q12 66 13 92
q0 104 -58 156t-155 51q-98 0 -167 -67t-93 -191l-17 -80h258l-20 -117h-260l-207 -1173h-162l207 1173h-420l-207 -1173h-162l207 1173h-155l22 117h154l24 141q27 144 101 226t233 81q92 0 195 -26l-31 -117q-78 20 -129 21q-172 0 -205 -185l-26 -141h419l17 84
q31 170 137 273q106 104 280 104t279 -80q104 -80 105 -240q0 -45 -15 -119l-29 -157q140 149 364 149z" />
    <glyph glyph-name="f_f_h" horiz-adv-x="2498" 
d="M2019 1079q187 0 271 -100t84 -256q0 -47 -13 -129l-106 -594h-162l105 594q10 70 10 104q0 117 -62 186q-62 68 -202 68q-142 0 -240 -106t-131 -289l-98 -557h-162l194 1104q12 55 13 92q0 104 -58 156t-156 51q-99 0 -168 -67t-94 -191l-14 -80h260l-20 -117h-260
l-207 -1173h-162l205 1173h-420l-205 -1173h-162l205 1173h-153l20 117h154l24 141q27 144 101 226t233 81q96 0 195 -26l-31 -117q-74 20 -129 21q-172 0 -207 -185l-25 -141h420l17 84q31 170 137 273q106 104 282 104t278 -80q103 -80 103 -240q0 -45 -14 -119l-33 -180
q135 172 383 172z" />
    <glyph glyph-name="f_f_k" horiz-adv-x="2336" 
d="M1308 1401q-99 0 -170 -67t-94 -189l-14 -80h260l-20 -117h-262l-203 -1173h-162l203 1173h-420l-203 -1173h-164l205 1173h-153l20 117h154l26 141q25 144 99 226t233 81q96 0 195 -26l-31 -117q-74 20 -129 21q-170 0 -205 -185l-24 -141h417l17 84q29 170 136 273
q108 104 283 104t278 -80t103 -240q0 -43 -12 -119l-104 -569l635 547h188l-469 -403l297 -662h-170l-248 557l-268 -231l-57 -326h-162l196 1104q10 70 11 92q0 102 -56 154t-156 51z" />
    <glyph glyph-name="f_h" horiz-adv-x="1904" 
d="M1427 1079q187 0 271 -100t84 -256q0 -47 -13 -129l-106 -594h-162l105 594q10 70 10 104q0 117 -62 186q-62 68 -202 68q-142 0 -240 -106t-131 -289l-98 -557h-162l192 1090q12 72 13 94q0 204 -215 206q-100 0 -169 -67q-69 -68 -91 -190l-13 -68h273l-21 -117h-270
l-205 -1173h-162l205 1173h-147l22 117h146l8 57q31 176 140 284q110 108 284 108t273 -84q99 -82 99 -250q0 -53 -14 -136l-25 -137q135 172 383 172z" />
    <glyph glyph-name="f_k" horiz-adv-x="1746" 
d="M707 1513q174 -1 275 -83t101 -250q0 -53 -14 -136l-94 -526l635 547h188l-469 -403l297 -662h-170l-248 557l-268 -231l-57 -326h-162l192 1090q10 59 11 94q0 204 -216 206q-102 0 -172 -67q-70 -68 -87 -190l-11 -68h273l-21 -117h-272l-205 -1173h-162l205 1173h-145
l20 117h145l11 57q31 178 138 285q108 106 282 106z" />
    <glyph glyph-name="zero.tnum" 
d="M825 1313q-342 0 -450 -444q-29 -118 -37 -255q-10 -223 86 -358t274 -135q123 0 217 59q95 60 149 162q109 204 120 477q10 213 -84 353t-275 141zM831 1452q249 0 395 -160t137 -448t-116 -508t-312 -307q-112 -47 -245 -47q-248 0 -394 158t-137 483q9 324 166 566
q79 123 209 193t297 70z" />
    <glyph glyph-name="one.tnum" 
d="M971 1436l-230 -1309h394l-23 -127h-973l23 127h409l201 1143l-375 -125l-45 119l486 172h133z" />
    <glyph glyph-name="two.tnum" 
d="M838 1458q196 0 314 -100t118 -276t-90 -303q-90 -128 -291 -267l-524 -371h759l-24 -141h-1006l23 129l678 489q157 120 227 216t70 220t-82 194q-82 71 -215 71q-186 0 -426 -115l-33 133q96 53 232 87t270 34z" />
    <glyph glyph-name="three.tnum" 
d="M819 1458q184 0 306 -90t122 -242t-92 -245q-92 -94 -256 -121q137 -35 210 -129t73 -230q0 -201 -155 -313t-423 -111q-268 0 -461 115l47 125q178 -100 389 -100t318 82t107 234t-115 217q-97 55 -225 57h-160l22 116h160q214 0 325 111q60 62 60 164t-83 159
q-82 57 -232 57t-344 -75l-29 125q84 42 209 68t227 26z" />
    <glyph glyph-name="four.tnum" 
d="M1042 1217l-745 -744h616zM1247 1436l-170 -963h191l-21 -131h-190l-64 -342h-164l62 342h-803l18 123l979 971h162z" />
    <glyph glyph-name="five.tnum" 
d="M798 893q188 0 305 -114q116 -114 116 -312q0 -238 -161 -365t-430 -127t-489 134l68 116q186 -115 394 -115t325 91q116 90 116 251q0 162 -88 240t-238 78t-304 -98l-99 69l172 693h801l-24 -140h-676l-117 -477q141 76 329 76z" />
    <glyph glyph-name="six.tnum" 
d="M738 776q-178 0 -278 -110t-100 -247q0 -136 94 -222t243 -86q148 0 259 69q59 37 99 106q39 69 45 160q8 160 -88 245t-274 85zM952 1452q219 0 414 -102l-66 -121q-162 86 -358 86q-236 0 -393 -178q-152 -166 -195 -430q0 -3 -1 -5t-1 -4q70 96 192 150t273 53
q211 0 342 -116q131 -115 120 -329t-165 -344t-402 -130t-378 122q-131 122 -148 336q-23 211 51 434q73 223 218 371q202 207 497 207z" />
    <glyph glyph-name="seven.tnum" 
d="M1421 1434l-24 -127l-893 -1307h-203l897 1290h-895l27 144h1091z" />
    <glyph glyph-name="eight.tnum" 
d="M816 1327q-146 0 -243 -74q-96 -73 -99 -189t80 -178q82 -62 232 -62t242 64t96 180t-79 188t-229 71zM728 686q-177 0 -288 -80q-112 -80 -116 -213t95 -213t273 -80t283 82t113 220t-89 210q-94 74 -271 74zM823 1456q221 0 348 -102t123 -271q-6 -131 -92 -217
t-239 -114q151 -33 231 -128t74 -227q-8 -195 -166 -307t-413 -113q-255 0 -401 109t-143 295q7 147 111 253t289 136q-119 33 -179 114t-57 191q5 173 149 277t365 104z" />
    <glyph glyph-name="nine.tnum" 
d="M764 657q178 0 279 111t99 247t-94 222q-93 86 -241 86t-261 -70q-60 -37 -100 -105t-45 -161q-8 -160 88 -245q97 -85 275 -85zM551 -18q-219 0 -414 102l64 121q162 -86 360 -86q246 0 397 176q139 154 189 424q-139 -186 -463 -187q-211 0 -342 116t-120 330t165 344
t402 130q247 0 379 -123t149 -336q23 -213 -48 -436t-216 -369q-195 -206 -502 -206z" />
    <glyph glyph-name="exclamdown.case" horiz-adv-x="516" 
d="M385 1458q45 0 72 -22t25 -66q-2 -43 -30 -70q-26 -26 -71 -26t-72 24t-24 66q8 94 100 94zM408 1051l-164 -1053h-183l209 1053h138z" />
    <glyph glyph-name="questiondown.case" horiz-adv-x="980" 
d="M678 1274q-45 0 -71 24q-25 24 -23 65q2 42 28 69q27 26 71 26t71 -22t24 -68q-4 -94 -100 -94zM209 313q0 -200 277 -200q133 0 309 92l41 -113q-198 -108 -380 -108t-290 78t-107 235q0 100 45 175t112 123q66 48 136 90q172 104 203 237q8 41 23 139h129
q-11 -80 -27 -163q-16 -82 -72 -150t-122 -112q-67 -44 -130 -87q-147 -100 -147 -236z" />
    <glyph glyph-name="braceleft.case" horiz-adv-x="677" 
d="M664 1436q-164 0 -193 -164l-82 -477q-20 -129 -156 -146q125 -20 99 -172l-80 -452q-33 -164 133 -164h70l-21 -121h-78q-162 0 -213 73t-26 212l80 450q18 123 -86 123h-29l18 102h21q117 0 135 105l84 483q25 137 92 203q68 66 215 65h109l-23 -120h-69z" />
    <glyph glyph-name="braceright.case" horiz-adv-x="675" 
d="M338 1556q162 0 212 -72t25 -210l-77 -451q-20 -127 88 -127h26l-18 -100h-19q-121 0 -137 -102l-86 -486q-26 -137 -92 -203t-213 -65h-108l20 121h72q164 0 192 164l82 479q23 129 156 145q-123 16 -99 170l80 453q14 82 -15 123q-30 41 -118 41h-71l22 120h78z" />
    <glyph glyph-name="bracketleft.case" horiz-adv-x="614" 
d="M684 1556l-20 -124h-203l-279 -1573h203l-20 -127h-338l319 1824h338z" />
    <glyph glyph-name="bracketright.case" horiz-adv-x="614" 
d="M606 1556l-319 -1824h-338l22 125h203l279 1573h-203l18 126h338z" />
    <glyph glyph-name="parenleft.case" horiz-adv-x="724" 
d="M682 1671h170q-86 -73 -152 -139t-150 -176t-139 -227q-53 -115 -93 -279t-39 -342q0 -442 241 -719h-166q-96 100 -168 296t-72 419q0 222 57 414q90 307 329 579q88 100 182 174z" />
    <glyph glyph-name="parenright.case" horiz-adv-x="716" 
d="M629 954q0 -555 -385 -992q-88 -99 -183 -173h-170q84 73 152 139t151 176t138 227q55 115 93 279t38 342q0 440 -240 719h166q94 -102 167 -298t73 -419z" />
    <glyph glyph-name="emdash.case" horiz-adv-x="1736" 
d="M1614 778l-23 -127h-1435l24 127h1434z" />
    <glyph glyph-name="endash.case" horiz-adv-x="1470" 
d="M1346 778l-23 -127h-1157l24 127h1156z" />
    <glyph glyph-name="hyphen.case" horiz-adv-x="1036" 
d="M915 778l-24 -127h-733l24 127h733z" />
    <glyph glyph-name="hyphen.tnum" 
d="M1167 778l-26 -127h-813l24 127h815z" />
    <glyph glyph-name="guillemotleft.case" horiz-adv-x="1224" 
d="M1083 1124l80 -88l-409 -413l258 -402l-101 -74l-333 471l6 37zM608 1124l80 -88l-409 -411l258 -404l-101 -74l-334 471l7 37z" />
    <glyph glyph-name="guillemotright.case" horiz-adv-x="1224" 
d="M535 233l409 412l-258 408l100 71l334 -471l-6 -37l-500 -469zM59 233l408 412l-256 408l100 71l334 -471l-6 -37l-500 -469z" />
    <glyph glyph-name="guilsinglleft.case" horiz-adv-x="735" 
d="M688 1036l-409 -411l258 -404l-101 -74l-334 471l7 37l499 469z" />
    <glyph glyph-name="guilsinglright.case" horiz-adv-x="735" 
d="M53 233l410 414l-258 406l100 71l334 -471l-6 -37l-500 -469z" />
    <glyph glyph-name="cent.tnum" 
d="M455 664q0 -186 103 -285q104 -100 272 -100t294 77l39 -106q-147 -96 -344 -96h-45l-35 -197h-94l37 211q-176 37 -286 159t-109 324q0 250 162 416t425 180l33 191h97l-35 -191q160 -14 282 -84l-53 -110q-123 70 -276 69q-217 0 -342 -136t-125 -322z" />
    <glyph glyph-name="dollar.tnum" horiz-adv-x="1437" 
d="M844 1315q-188 0 -264 -70q-74 -70 -74 -169t68 -154q68 -54 198 -108q131 -54 182 -80q157 -80 201 -182q27 -62 27 -146q0 -178 -123 -300t-383 -126l-31 -170h-104l30 174q-227 20 -419 141l55 131q252 -145 469 -137q164 2 244 75t79 183q0 57 -19 99q-18 42 -70 76
q-64 42 -188 92q-124 49 -180 79q-57 31 -112 75q-108 86 -107 258t126 284t374 114l33 178h96l-32 -182q195 -16 393 -131l-62 -135q-219 131 -407 131z" />
    <glyph glyph-name="Euro.tnum" horiz-adv-x="1449" 
d="M890 123q204 0 355 72l-8 -140q-168 -74 -377 -73q-282 0 -454 156t-205 405h-168l33 80h127v36q0 74 12 144h-164l41 80h139q70 253 277 411t510 158q242 0 422 -104l-60 -119q-172 86 -354 86q-231 0 -389 -119t-217 -313h702l-37 -80h-686q-10 -55 -10 -135v-45h616
l-32 -80h-574q33 -190 165 -305t336 -115z" />
    <glyph glyph-name="sterling.tnum" horiz-adv-x="1427" 
d="M596 530q0 -281 -193 -403h756l-20 -127h-998l19 119q39 8 89 37q50 28 85 68t63 118q29 78 29 154t-10 141h-156l16 90h127q-14 104 -14 211q0 256 142 385q141 129 375 129t411 -113l-68 -114q-174 94 -340 94t-259 -97t-93 -284q0 -92 16 -211h523l-15 -90h-493
q8 -70 8 -107z" />
    <glyph glyph-name="yen.tnum" horiz-adv-x="1419" 
d="M1421 1434l-661 -852l-15 -68h261l-15 -80h-258l-20 -110h258l-15 -80h-256l-43 -244h-174l43 244h-258l15 80h256l20 110h-258l14 80h258l11 68l-361 852h172l297 -703l537 703h192z" />
    <glyph glyph-name="divide.tnum" 
d="M784 934q-38 0 -62 20t-22 60t26 66t64 26t66 -23t23 -61q-8 -88 -95 -88zM659 229q-37 1 -61 21t-23 60q2 40 26 66t65 25q42 -1 66 -23t22 -63q-8 -86 -95 -86zM1184 717l-19 -109h-903l19 109h903z" />
    <glyph glyph-name="equal.tnum" horiz-adv-x="1431" 
d="M1092 553l-21 -115h-772l20 115h773zM1151 903l-21 -112h-770l21 112h770z" />
    <glyph glyph-name="multiply.tnum" 
d="M487 1100l273 -332l393 334l70 -84l-394 -336l275 -330l-100 -86l-273 332l-389 -332l-70 86l390 332l-273 334z" />
    <glyph glyph-name="percent.tnum" horiz-adv-x="1437" 
d="M612 1134q0 216 -187 216q-91 0 -153 -78t-61 -188q0 -110 48 -162t141 -52t153 76q59 76 59 188zM455 1456q125 0 199 -80t75 -215q0 -180 -96 -288t-260 -107q-123 0 -200 79t-77 212q0 183 96 291t263 108zM1076 565q-91 0 -152 -78q-62 -78 -62 -187q0 -110 48 -162
t140 -52t153 76t61 187t-48 163t-140 53zM1104 672q123 0 199 -79t75 -214q0 -182 -96 -290t-260 -107q-125 0 -201 78t-76 212q-1 180 97 290t262 110zM1317 1436l-1034 -1436h-133l1036 1436h131z" />
    <glyph glyph-name="plus.tnum" 
d="M862 1135l-67 -392h399l-20 -120h-402l-67 -381h-125l67 381h-391l20 120h394l67 392h125z" />
    <glyph glyph-name="acute.case" horiz-adv-x="565" 
d="M606 1389l-192 -230h-121l164 230h149z" />
    <glyph glyph-name="breve.case" horiz-adv-x="649" 
d="M452 1182q-226 0 -233 213l113 6q2 -67 28 -99t99 -32q71 0 109 32t63 99l110 -6q-63 -213 -289 -213z" />
    <glyph glyph-name="caron.case" horiz-adv-x="669" 
d="M784 1389l-266 -230h-147l-181 230h125l134 -166l198 166h137z" />
    <glyph glyph-name="circumflex.case" horiz-adv-x="694" 
d="M160 1159l266 230h147l181 -230h-125l-133 166l-199 -166h-137z" />
    <glyph glyph-name="dieresis.case" horiz-adv-x="745" 
d="M707 1202q-41 0 -65 22t-21 60q4 82 91 82t83 -82q0 -82 -88 -82zM291 1366q45 0 69 -22t21 -60q0 -82 -90 -82q-41 0 -65 22t-21 60q4 82 86 82z" />
    <glyph glyph-name="dotaccent.case" horiz-adv-x="512" 
d="M377 1202q-41 0 -65 22t-21 60q4 82 91 82t83 -82q0 -82 -88 -82z" />
    <glyph glyph-name="grave.case" horiz-adv-x="483" 
d="M428 1386l70 -227h-111l-104 227h145z" />
    <glyph glyph-name="hungarumlaut.case" horiz-adv-x="724" 
d="M498 1389l-207 -230h-121l172 230h156zM795 1389l-207 -230h-121l172 230h156z" />
    </font>
</defs>
</svg>
